<svg width="16" height="16" fill="none" xmlns="http://www.w3.org/2000/svg"><path d="M15 8A7 7 0 1 1 1 8a7 7 0 0 1 14 0z" fill="#005430"/><path d="M13.21 7.09c0-.25-.098-.921-.123-1.147-.024-.225-.05-.43-.043-.477.005-.047.077.064.115.073.02-.004.01-.074-.025-.133-.024-.04-.106-.192-.156-.28-.023-.043-.028-.067-.04-.072a.529.529 0 0 0-.091.196c.024.037.041.055.045.12.004.065.038.53.081.884.033.266.104.839.107 1.195 0 .117-.013.228-.028.274-.04.073-.103.138-.335.274-.262.152-.61.278-.76.363-.094.053-.063.06.018.037s.5-.097.703-.183a.773.773 0 0 0 .41-.411c.115-.243.124-.448.123-.713zM12.401 5.195c.02-.007.188-.016.233-.007-.03.042-.23.136-.231.153.005.011.138-.022.18-.04.028-.016.046-.042.066-.063.048-.055.105-.156.09-.17-.022-.02-.25-.007-.28-.003-.02.003-.072.094-.081.118-.01.023.003.02.023.012z" fill="#fff"/><path d="M12.743 6.673a.695.695 0 0 0-.004-.41.534.534 0 0 0-.257-.296l-.016.148s.123.061.206.213a.517.517 0 0 1 .034.386c-.007.038.02.017.037-.04zM11.447 7.419a.628.628 0 0 0-.003-.37.48.48 0 0 0-.232-.266l-.014.133s.11.055.185.192c.048.087.068.21.03.347-.006.034.019.016.034-.036zM6.948 5.395c.05.092.071.222.031.366-.006.036.02.016.036-.038a.662.662 0 0 0-.004-.39.507.507 0 0 0-.245-.281l-.014.14s.116.058.196.203zM3.91 5.442a.446.446 0 0 1-.023.373c-.013.035.02.018.046-.034a.605.605 0 0 0 .059-.393.505.505 0 0 0-.232-.314l-.04.14s.123.073.19.228z" fill="#fff"/><path d="M4.75 7.65a.886.886 0 0 0 .1-.285c.021-.103.022-.223.015-.344.161-.066.353-.174.418-.182-.045.15.06.313.274.292l.038.409c.018.181.015.41.015.45-.001.04.028.033.058-.056.04-.12.052-.431.038-.637a9.657 9.657 0 0 0-.017-.2c.138-.064.161-.187.213-.239.046.162.302.184.382.15.098-.043.13-.12.155-.3.025-.18-.048-.253-.075-.272a5.603 5.603 0 0 1-.067.233s.061.063.064.095c-.05.044-.154.047-.241.019-.088-.029-.115-.08-.11-.116.005-.035.038-.067.04-.11 0-.043-.02-.03-.056.008a.826.826 0 0 0-.106.153.334.334 0 0 1-.218.172 43.79 43.79 0 0 0-.055-.535c-.007-.07-.082-.666-.087-.733-.005-.058-.014-.127-.012-.16.001-.025.017-.015.042.012s.07.074.077.07c.025-.012 0-.09-.034-.16s-.148-.344-.171-.355c-.013-.006-.09.163-.094.196.012.021.043.054.044.147 0 .026.017.271.04.503.02.205.048.4.05.422.02.156.042.376.063.593-.123-.024-.156-.105-.154-.15.004-.053.027-.112.016-.125-.024-.014-.165.064-.363.149-.056.024-.118.049-.184.073-.017-.147-.04-.288-.05-.395V6.43a.407.407 0 0 0 .284-.135.713.713 0 0 0 .107-.36c.004-.123-.095-.346-.119-.418a.77.77 0 0 1-.038-.145c-.002-.024.054.029.089.04.024.004.015-.047-.014-.083-.029-.035-.185-.27-.196-.254-.007.01-.07.183-.073.21.024.016.053.06.055.103.002.043.037.23.075.335.038.105.12.305.125.36a.589.589 0 0 1-.322.106c-.022-.183-.05-.395-.066-.545A1.299 1.299 0 0 1 4.7 5.49c0-.025.019-.022.044.005.026.026.065.064.074.062.017-.006.002-.064-.033-.133-.035-.07-.173-.362-.198-.373-.012-.005-.074.159-.078.192.012.021.044.053.047.146.003.075.039.438.07.759-.13-.067-.174-.162-.19-.322-.011-.112-.012-.317-.052-.49a.52.52 0 0 0-.127-.247c-.013.032-.073.23-.073.23.02.057.08.249.078.415-.002.166-.015.328-.202.44-.187.112-.468.067-.537-.107-.07-.175.085-.613.083-.716-.003-.104-.021-.118-.065-.1-.043.016-.132.116-.208.278-.077.162-.111.363-.154.5-.044.137-.113.275-.22.267-.108-.007-.166-.105-.199-.246a1.11 1.11 0 0 1-.004-.376c.023-.12-.03-.095-.061.093-.02.116-.04.3.03.494.069.194.187.266.29.241.104-.024.195-.265.227-.373.032-.109.175-.589.256-.612.011.054-.063.228-.087.432-.024.204.032.478.292.526.26.047.438-.12.502-.237a.906.906 0 0 0 .1-.301c.01.156.117.4.325.47l.022.007c.013.128.034.295.053.47a1.98 1.98 0 0 1-.123.034.397.397 0 0 0-.017-.049c-.064-.136-.17-.261-.316-.253-.149.01-.312.207-.305.352.005.097.059.177.255.197a.9.9 0 0 0 .282-.022.4.4 0 0 1 .024.117c-.062.072-.576.457-.96.494-.385.037-.502-.163-.506-.364-.003-.153.09-.306.155-.412.093-.067.17-.152.218-.217l.037.022a.166.166 0 0 1 .064.066c.009-.013.048-.083.033-.118a.603.603 0 0 0-.084-.055c.044-.109.044-.217-.013-.241-.064-.027-.147.047-.183.093a.12.12 0 0 0-.025.073c0 .03.013.056.047.079l.095.063c-.084.087-.283.216-.404.291-.005-.01-.022 0-.046.029l-.033.02c-.097.06-.33.189-.375.22-.046.032-.017.026 0 .02.032-.018.074-.04.122-.062l.222-.107a1.124 1.124 0 0 0-.067.131c-.091.215-.239.66.081.928.306.256.832.158 1.268-.108.436-.266.53-.36.599-.457zM3.328 6.59c-.016-.011-.018-.026-.005-.036a.13.13 0 0 1 .058-.03c.049-.01.068.046.049.132a1.49 1.49 0 0 1-.102-.066zm1 .363c-.222 0-.232-.04-.228-.065.004-.025.073-.095.161-.05a.4.4 0 0 1 .118.113.767.767 0 0 1-.05.002zm-.68 1.16c-.42.115-.83-.062-.854-.41a1.022 1.022 0 0 1 .142-.582c.06-.03.117-.058.164-.084-.11.176-.174.412-.131.611.049.226.246.363.581.319.332-.044.78-.357.907-.475a.528.528 0 0 0 .1-.16c.014-.032.034-.075.041-.123a.726.726 0 0 0 .009-.098l.117-.039c.013.143.023.284.024.406-.207.241-.68.522-1.1.636zM10.988 7.2a40.597 40.597 0 0 0-.067-.872c-.017-.19-.05-.453-.075-.683-.006-.058-.007-.113-.006-.146 0-.025.026-.015.052.01.026.027.066.06.073.056.025-.013-.005-.077-.04-.146-.035-.069-.175-.354-.2-.365-.012-.005-.077.165-.081.199.012.02.044.053.048.146.003.093.05.522.085.869.024.24.055.634.077.93-.001.001.02.283.023.314.014.183.007.412.005.452-.001.04.028.033.06-.056.032-.09.05-.293.053-.475l-.007-.234zM9.797 6.381c-.043.013-.11-.032-.106-.127.005-.086.042-.166.056-.216.02-.07.02-.138.003-.1-.037.086-.107.25-.12.363-.015.112.021.184.07.208.063.031.107-.018.137-.09.03-.069.024-.15.004-.13-.017.02-.023.086-.044.092zM9.178 6.726c.023-.06.028-.12.01-.087-.039.073-.113.213-.135.31-.021.098.005.164.047.189.052.031.095-.009.127-.07.03-.06.032-.13.013-.115-.016.016-.027.074-.046.078-.039.009-.094-.035-.082-.118.01-.075.05-.144.066-.187zM7.377 7.997c.038-.061.057-.125.03-.093-.058.072-.17.212-.215.315-.045.102-.031.18.01.214.05.044.105.008.153-.053.047-.059.065-.136.04-.123-.021.015-.046.076-.067.077-.045.002-.096-.056-.065-.145.029-.08.086-.147.114-.192zM10.535 6.202c-.044.01-.109-.038-.098-.133.01-.085.052-.163.069-.213.024-.069.028-.136.01-.099a1.645 1.645 0 0 0-.144.356c-.02.111.011.185.06.212.06.034.107-.013.141-.083.033-.068.033-.148.011-.13-.018.019-.028.085-.05.09zM10.521 7.36c.06.035.108-.012.142-.082.033-.068.033-.149.011-.13-.018.018-.028.084-.05.09-.043.01-.108-.038-.097-.133.01-.085.052-.163.07-.213.023-.069.027-.136.008-.099a1.637 1.637 0 0 0-.143.356c-.02.11.011.185.06.212zM11.286 5.88c.03-.083.034-.164.011-.12a1.98 1.98 0 0 0-.173.43c-.025.135.014.225.072.258.072.04.13-.016.171-.101.04-.082.04-.18.014-.158-.022.023-.034.103-.06.11-.053.013-.131-.046-.118-.16.012-.104.063-.198.083-.259z" fill="#fff"/><path d="M5.173 7.32c.048-.1.065-.202.03-.148-.078.12-.224.355-.274.521-.05.166-.013.283.056.331.086.06.165-.005.229-.108.06-.098.073-.221.038-.196-.03.026-.057.125-.09.13-.068.011-.159-.072-.127-.214.028-.128.104-.242.138-.315zM11.774 8.327c.036-.03.35-.198.408-.232 0 0 .059-.096.041-.106-.018-.01-.132.094-.204.096-.071.003-.169-.049-.172-.092.01-.032.095-.08.126-.082.031-.002.026.068.037.077.01.008.051-.049.056-.072.005-.024.001-.123-.056-.109-.09.023-.225.188-.24.24-.016.053.068.098.129.123a.307.307 0 0 0-.08.052s-.03.035-.045.105zM10.703 8.535c.036-.03.35-.197.408-.231 0 0 .059-.096.041-.107-.018-.01-.132.094-.204.097-.071.003-.169-.05-.172-.092.01-.032.095-.08.126-.083.031-.002.026.069.037.077.01.009.051-.048.056-.072.005-.024.001-.123-.056-.109-.09.023-.225.189-.24.241-.016.052.068.098.129.122a.307.307 0 0 0-.08.052s-.031.035-.045.105zM8.29 5.52c.028.033.213.266.357.413a14.662 14.662 0 0 0 .685.648c.046.35.099.796.121.98.022.181.025.41.026.45 0 .04.03.032.057-.058.037-.12.04-.432.021-.637a24.05 24.05 0 0 0-.068-.585c.107.105.209.21.277.288.126.144.232.253.296.407.046.11.041.197.06.214.016.015.034-.116.014-.243-.032-.206-.077-.294-.343-.588a6.043 6.043 0 0 0-.338-.34l-.012-.093c-.01-.07-.1-.664-.107-.73-.006-.059-.017-.127-.016-.16 0-.025.017-.015.043.01.026.027.07.073.078.069.026-.013-.002-.09-.038-.159-.035-.069-.156-.341-.18-.352-.013-.005-.085.165-.089.199.013.02.045.053.048.146.001.026.024.27.054.502.025.204.057.398.06.42v.002c-.12-.11-.226-.202-.29-.26-.151-.137-.484-.46-.497-.508-.003-.015.023-.006.07.002.048.007.09.023.083 0-.004-.01-.022-.038-.067-.066-.046-.028-.163-.1-.25-.151-.086-.052-.13-.095-.147-.082-.009.006-.001.181.004.203.022.002.06.027.088.06z" fill="#fff"/><path d="M8.527 5.205c.036-.007.205-.003.266.01-.025.017-.198.104-.232.125-.034.02-.043.033-.026.03.05-.013.161-.03.215-.058.05-.023.136-.138.17-.18.033-.043.033-.065.025-.076a.917.917 0 0 0-.361-.01.551.551 0 0 0-.095.147c-.009.022.003.02.038.012zM9.467 5.192a.964.964 0 0 1 .215.007c-.021.014-.16.084-.188.101-.027.017-.034.026-.02.025.04-.011.13-.025.173-.047.04-.02.11-.112.137-.146.026-.034.026-.052.02-.06a.734.734 0 0 0-.291-.01.442.442 0 0 0-.077.12c-.007.017.003.016.031.01zM10.231 5.182a.963.963 0 0 1 .215.007c-.02.015-.16.085-.188.101-.027.017-.034.027-.02.025.04-.01.137-.025.18-.047.04-.019.089-.111.116-.146.026-.034.026-.051.02-.06a.664.664 0 0 0-.277-.01.445.445 0 0 0-.077.12c-.007.017.003.016.031.01zM9.755 5.552c-.046.07.011.128.032.185-.028.025-.071.002-.085-.02-.03-.046-.02-.139-.057-.153-.009.025-.015.053-.015.053s.028.064.02.106c-.004.025-.026.055-.056.055-.08.002-.04-.115-.07-.18l-.019.048a.26.26 0 0 1 .01.055c.001.028 0 .058.004.082.007.033.025.055.054.058.06.004.086-.044.095-.083.01.04.089.084.127.035.052-.065.01-.12-.016-.18-.018-.046-.013-.075-.024-.061zM7.526 5.364c.004.03.02.049.044.052.05.006.076-.034.086-.067.006.035.072.076.108.035.047-.054.014-.103-.006-.156-.014-.04-.008-.065-.018-.054-.042.06.004.111.019.161-.025.02-.061 0-.073-.02-.024-.04-.01-.12-.04-.134-.01.021-.016.045-.016.045s.02.056.012.091c-.005.022-.025.047-.051.046-.069-.001-.03-.1-.053-.159-.006.014-.01.029-.018.042a.21.21 0 0 1 .006.048c0 .024-.003.05 0 .07zM9.144 8.108c.008-.012.025-.045.02-.068-.004-.022-.032-.117-.086-.14-.053-.024-.094.026-.12.094H8.94a.216.216 0 0 0-.014.053c-.006.04-.017.065-.085.127a2.178 2.178 0 0 1-.366.235c-.12.058-.208.109-.24.124s-.023.02.01.011c.031-.01.192-.06.256-.087.064-.027.142-.07.236-.13.105-.068.168-.136.189-.196a.636.636 0 0 0 .019-.06s.04.024.106.039c.067.015.085.01.093-.002zm-.09-.134c.03.011.048.043.053.063a.381.381 0 0 1-.123-.029c.016-.03.044-.044.07-.034z" fill="#fff"/><path d="M8.435 8.174c-.093-.013-.328-.048-.385-.183.048-.07.27-.158.547-.241.278-.082.568-.19.646-.241.017-.006.05-.004.05-.004.014-.04.084-.18.088-.21-.077.005-.556.04-.768.05-.213.012-.622.01-.758.008.083-.06.282-.176.566-.276l.102-.035a.326.326 0 0 1 .045.119c.018-.019.032-.08.027-.142.165-.053.25-.07.287-.08a.621.621 0 0 0 .07-.239.639.639 0 0 0-.17-.148c-.095-.066-.197-.123-.3-.098-.139.034-.167.289-.134.343.01.017.035.047.064.084a3.1 3.1 0 0 0-.303.136c-.21.11-.443.23-.511.345l-.02.01c-.005.01-.049.189-.055.208.044-.001.369 0 .595-.008.227-.007.425-.014.502-.014-.115.027-.415.138-.502.203-.086.066-.14.166-.142.336a.804.804 0 0 1-.359-.274c-.142-.192-.112-.389-.17-.647-.082-.375-.259-.691-.37-.788a1.157 1.157 0 0 0-.041.232s.138.303.208.497c.07.193.13.384.126.427-.057.125-.398.388-.681.541-.27.146-.506.162-.59.058a.174.174 0 0 1-.034-.071l.11-.052c.242-.11.672-.34.773-.46a.471.471 0 0 0 .043-.472c-.063-.118-.163-.255-.17-.303-.007-.023.064.01.106.012.02-.002.01-.029-.034-.072-.034-.034-.168-.144-.22-.187-.012-.011-.022-.007-.025.005-.01.044-.03.138-.038.185l.006.023c.014.01.031.019.04.043.011.035.052.131.118.253.067.122.163.256.173.324-.079.1-.474.31-.859.485.024-.073.062-.156.112-.248a.3.3 0 0 0 .039-.057c.038-.07.042-.155.018-.137-.02.02-.034.089-.057.093-.046.01-.112-.044-.096-.144.015-.089.064-.17.084-.221.03-.072.037-.143.015-.104-.049.086-.141.252-.17.368-.028.117.002.196.052.227a.077.077 0 0 0 .053.013c-.034.064-.076.142-.106.235-.155.07-.306.13-.43.175-.448.16-.768.253-.991.323l-.009.004c.017-.053.014-.098-.003-.084-.02.019-.034.088-.057.093-.047.01-.113-.045-.096-.144.015-.09.063-.17.084-.222.029-.071.036-.142.015-.104-.05.086-.142.253-.17.369-.028.116.002.195.051.226.062.039.114-.008.154-.081l.014-.03a11.304 11.304 0 0 1 .783-.116c.26-.034.44-.105.614-.184v.058c.01.238.166.305.38.26.206-.043.494-.231.667-.358.18-.132.283-.25.31-.292a.763.763 0 0 0 .064-.265c.016.145.029.346.167.518.127.159.387.38.877.386.002-.058-.021-.239-.021-.239zm-.033-1.47c.07-.079.22-.028.332.072a2.21 2.21 0 0 0-.222.068c-.05-.062-.108-.121-.11-.14zM5.647 5.63c.032-.014.13-.057.235-.118.104-.06.203-.133.25-.182.02-.019.036-.033.046-.05.032.013.053.026.067.031.02.008.047.02.065-.038.017-.058-.006-.095-.04-.139-.03-.037-.075-.093-.113-.106-.032-.012-.047.058-.042.056h.021l.005.002c-.044.022-.078.09-.081.114-.004.026.001.045.064.061l.025.008c-.052.061-.15.125-.216.17-.094.064-.227.144-.265.167-.038.023-.035.03-.02.025zm.566-.45.003-.032c.044.05.077.11.074.118-.02.002-.046-.017-.09-.036a.373.373 0 0 0 .013-.05zm-.127 0c0-.01.017-.036.053-.05.036-.015.052.025.055.074l-.01.02-.033-.012c-.034-.01-.057-.015-.065-.033z" fill="#fff"/><path d="M7.994 6.57c.051-.035.193-.137.274-.203.056-.047.122-.115.166-.173l.078.048a.168.168 0 0 1 .065.066c.008-.013.048-.083.032-.118-.01-.011-.066-.044-.123-.079.029-.065.07-.178.012-.218-.05-.033-.133.022-.172.094-.031.06-.036.11.025.152l.05.033a3.164 3.164 0 0 1-.255.232c-.1.083-.194.165-.21.184l-.005.008c-.022-.06-.016-.098-.032-.078-.07.109.018.197.05.285-.043.039-.11.003-.131-.03-.047-.07-.032-.214-.087-.236-.014.039-.023.082-.023.082s.042.097.031.162c-.007.04-.041.085-.087.086-.122.003-.062-.177-.11-.279-.009.025-.016.052-.027.075a.389.389 0 0 1 .015.085c.003.043 0 .089.006.126.01.051.04.085.083.088.091.008.133-.066.147-.126.016.062.136.13.196.054.079-.1.016-.185-.025-.279L7.933 6.6c.005.002.026-.007.06-.03zm.356-.562c.03-.056.094-.06.113-.031.016.023.017.068-.006.116-.056-.035-.106-.069-.107-.085z" fill="#fff"/><path d="M6.003 6.214c-.108-.007-.166-.105-.199-.246a1.11 1.11 0 0 1-.003-.376c.009-.047-.042-.023-.062.093-.02.116-.04.3.03.494s.187.266.29.241c.104-.024.195-.265.227-.373.032-.109.175-.55.256-.574.012.054-.063.19-.086.394-.024.204.017.472.278.52.26.047.437-.121.5-.238a.905.905 0 0 0 .102-.3c.009.156.116.4.325.47.201.067.355.006.423-.082a.717.717 0 0 0 .114-.36c.004-.122-.102-.346-.126-.417a.765.765 0 0 1-.038-.145c-.002-.025.054.028.089.039.024.005.015-.047-.014-.082-.028-.035-.185-.27-.196-.254-.006.01-.069.183-.073.21.025.016.053.06.056.103.001.043.043.23.081.335.038.104.113.305.118.36a.44.44 0 0 1-.401.05c-.16-.067-.21-.164-.228-.339-.01-.111-.012-.317-.052-.489A.52.52 0 0 0 7.288 5c-.014.032-.074.23-.074.23.02.057.08.25.079.415-.002.166-.016.329-.203.44-.187.112-.454.068-.523-.107-.07-.174.085-.567.083-.67-.002-.104-.02-.118-.064-.101-.044.017-.133.117-.209.279-.077.162-.11.324-.154.46-.043.138-.113.276-.22.268zM2.883 5.61a.496.496 0 0 0 .273-.136c.029-.027.044-.067.024-.052-.153.136-.358.14-.37.117.006-.023.06-.06.138-.112a.471.471 0 0 0 .122-.103l.009.001c.058.013.125.038.146.018.033-.033.038-.087.002-.145a.455.455 0 0 0-.165-.127c-.061-.033-.073.02-.081.038-.008.017-.005.032.008.032a.231.231 0 0 0-.04.091.064.064 0 0 0 .008.046.077.077 0 0 0 .035.026l.027.008a.811.811 0 0 1-.128.093c-.05.03-.11.084-.129.139-.018.055-.011.075.121.065zm.234-.388.005-.029v-.017c.042.03.109.087.105.122-.027-.006-.077-.017-.125-.03a.292.292 0 0 0 .015-.046zm-.124.008c-.031-.024-.001-.049.026-.064.035-.02.056-.004.074.05a.215.215 0 0 1-.026.044.367.367 0 0 1-.074-.03zM3.28 7.093c-.038.033-.053.14-.045.146.007.007.126.046.145.055l.008-.032c.057.05.12.302.134.303.014 0 .034-.028.047-.095.012-.062.024-.155.037-.23.012-.07.03-.11.072-.118.042-.007.073.046.084.082 0 0 .03-.07.036-.113-.007-.023-.073-.109-.126-.08-.053.028-.087.149-.098.224-.01.076-.02.17-.032.184a.674.674 0 0 0-.112-.244c-.06-.072-.13-.099-.15-.082zM2.773 6.964c.05-.013.161-.03.215-.058.05-.023.136-.138.17-.18.033-.043.033-.065.024-.076a.915.915 0 0 0-.36-.01.548.548 0 0 0-.095.147c-.009.022.003.02.038.012.036-.007.205-.003.266.01-.025.017-.198.104-.232.125-.034.02-.043.033-.026.03zM13.015 7.576c-.005-.128-.068-.325-.308-.626-.083-.104-.2-.24-.322-.379l-.01-.127c-.016-.191-.07-.581-.094-.812a1.336 1.336 0 0 1-.005-.152c0-.026.019-.022.045.004.025.027.065.065.073.062.017-.006.002-.064-.033-.133s-.166-.348-.19-.36c-.013-.005-.075.16-.079.193.012.02.044.053.047.146.004.093.06.644.093.99l.002.02c-.184-.204-.357-.39-.428-.465l-.041-.044a10.965 10.965 0 0 1-.03-.254 1.252 1.252 0 0 1-.005-.152c0-.026.02-.023.045.004.026.026.065.065.073.062.018-.006.002-.064-.033-.133-.034-.07-.172-.355-.196-.366-.012-.006-.077.172-.081.205.012.02.044.053.047.146.001.04.012.16.026.311-.122-.144-.241-.294-.25-.325-.003-.015.023-.006.07.002.048.007.093.022.085-.002-.004-.01-.022-.038-.067-.066-.046-.028-.162-.1-.249-.151-.087-.052-.13-.095-.148-.082-.009.006 0 .181.004.203a.138.138 0 0 1 .088.052c.026.034.192.266.324.422.037.046.097.115.166.196l.04.418c.026.284.122 1.033.123 1.276a.599.599 0 0 1-.364.16c-.15.002-.23-.037-.29-.147-.02-.034-.037-.068-.054-.1a.2.2 0 0 0-.218-.094l-.013.003-.024.012a.542.542 0 0 0-.18.162c-.103.138-.169.289-.245.419-.08.136-.141.227-.28.205-.1-.015-.174-.1-.22-.202a.807.807 0 0 0 .292-.366c.09-.209.121-.444.113-.71-.007-.249-.122-.835-.152-1.06-.03-.224-.073-.409-.068-.457.005-.046.079.063.117.07.02-.003.009-.073-.028-.132-.025-.04-.104-.221-.156-.31-.025-.04-.03-.065-.042-.07a.527.527 0 0 0-.087.199c.025.036.043.053.048.118.006.065.065.543.117.895.039.265.125.747.136 1.104a.769.769 0 0 1-.028.246c-.037.071-.097.15-.31.301-.033-.212.003-.385-.028-.401-.036.004-.041.103-.045.225-.002.057 0 .135.011.219-.261.173-.607.332-.769.416-.095.05-.06.061.02.036.08-.024.523-.14.76-.263l.025-.014a.757.757 0 0 0 .044.118c.08.164.193.262.316.252.104-.008.178-.118.244-.249.066-.133.178-.385.288-.48a.481.481 0 0 1 .128-.081s.075-.025.143.02c.025.016.044.039.055.065.027.059.06.134.125.197.116.111.302.088.442.024a.414.414 0 0 0 .242-.285 1.96 1.96 0 0 0 .034-.6c-.012-.213-.046-.43-.065-.66a8.086 8.086 0 0 0-.033-.289 10.33 10.33 0 0 0 .456.5c.025.348.05.783.063.966a4.8 4.8 0 0 1 .003.451c-.002.04.02.033.053-.055.043-.119.07-.43.06-.636a37.618 37.618 0 0 0-.031-.558c.106.125.206.25.27.336.117.15.223.33.26.442.038.112.042.145.049.165.007.02.04-.062.034-.19zM11.058 11.838c-.01-.03-.043-.052-.081-.052-.038 0-.07.022-.08.052h-.364a.32.32 0 0 1 .011-.12h.75l.02.034a.37.37 0 0 0 .071.085h-.327zm.496-.347h-.9c.069-.05.105-.122.095-.195-.006-.046-.052-.08-.108-.086h-.028c-.069.007-.118.056-.111.11l.003.02.003.032a.32.32 0 0 1-.011.12H3.839c.098.142.279.23.473.23l6.076-.004c-.07.05-.106.122-.096.196.007.054.068.092.136.085.069-.006.118-.055.111-.11l-.003-.02h.357c.007.035.042.062.084.062s.077-.027.083-.062h.364a.477.477 0 0 0 .274.084c.096 0 .173-.067.173-.148v-.043c0-.15-.142-.27-.317-.27z" fill="#fff"/></svg>