<svg width="16" height="16" viewBox="0 0 16 16" fill="none" xmlns="http://www.w3.org/2000/svg">
<path d="M15 8C15 11.866 11.866 15 8 15C4.13401 15 1 11.866 1 8C1 4.13401 4.13401 1 8 1C11.866 1 15 4.13401 15 8Z" fill="#005430"/>
<path d="M13.2107 7.0896C13.2092 6.84024 13.1118 6.16857 13.0871 5.94324C13.0625 5.71791 13.0376 5.51349 13.0436 5.46562C13.0495 5.41943 13.121 5.52985 13.1588 5.53878C13.1784 5.53488 13.1697 5.46514 13.1341 5.40559C13.1101 5.36515 13.0281 5.21393 12.9783 5.12532C12.9549 5.08339 12.9497 5.05906 12.9384 5.05391C12.9272 5.04876 12.8366 5.23035 12.8466 5.25048C12.8713 5.28739 12.8882 5.305 12.8921 5.37018C12.896 5.43537 12.9299 5.90076 12.9731 6.25353C13.0056 6.51965 13.077 7.09301 13.0796 7.44949C13.0803 7.56578 13.0673 7.67661 13.0517 7.72293C13.0118 7.79566 12.9493 7.86126 12.7167 7.99654C12.4552 8.14866 12.1063 8.27525 11.9564 8.35997C11.8632 8.41281 11.8941 8.41988 11.9752 8.39676C12.0562 8.37363 12.4749 8.29952 12.6783 8.21408C12.8692 8.13368 12.9932 7.99918 13.0872 7.80297C13.2034 7.56038 13.2123 7.35453 13.2107 7.0896Z" fill="white"/>
<path d="M12.4011 5.19547C12.4213 5.18768 12.5887 5.17912 12.6337 5.18834C12.6041 5.2304 12.4035 5.32351 12.4026 5.34058C12.4081 5.35208 12.5412 5.31931 12.5832 5.3011C12.6107 5.28468 12.629 5.25928 12.6493 5.23819C12.6973 5.18331 12.7542 5.08152 12.7399 5.06876C12.7166 5.04815 12.4885 5.06097 12.4584 5.06522C12.4383 5.0681 12.3872 5.15917 12.3778 5.18253C12.3686 5.2059 12.3809 5.20326 12.4011 5.19547Z" fill="white"/>
<path d="M12.743 6.67341C12.7779 6.55598 12.7865 6.41351 12.739 6.26355C12.6902 6.10916 12.5691 6.01504 12.4817 5.96681L12.4662 6.11545C12.4662 6.11545 12.5887 6.17596 12.6724 6.32832C12.7255 6.42496 12.7476 6.56162 12.7057 6.71397C12.6987 6.75178 12.7259 6.73093 12.743 6.67341Z" fill="white"/>
<path d="M11.447 7.41882C11.4784 7.31308 11.4861 7.1848 11.4435 7.04976C11.3995 6.91071 11.2905 6.82593 11.2118 6.78268L11.1977 6.91646C11.1977 6.91646 11.308 6.97098 11.3834 7.10806C11.4313 7.19499 11.4511 7.31823 11.4135 7.45537C11.4072 7.48928 11.4317 7.47058 11.447 7.41882Z" fill="white"/>
<path d="M6.94763 5.39489C6.99809 5.48661 7.01902 5.6165 6.97932 5.76119C6.97267 5.79708 6.99835 5.77737 7.01472 5.72273C7.0477 5.61129 7.05592 5.47589 7.0108 5.33336C6.96445 5.18663 6.84938 5.09731 6.76639 5.05159L6.75172 5.19275C6.75172 5.19275 6.86809 5.2502 6.94763 5.39489Z" fill="white"/>
<path d="M3.91026 5.44236C3.95264 5.5411 3.9555 5.6744 3.88705 5.81483C3.87375 5.85012 3.90615 5.83341 3.93334 5.78062C3.98888 5.67272 4.02005 5.53768 3.99188 5.3885C3.963 5.23513 3.84709 5.13058 3.76031 5.07396L3.72094 5.2141C3.72094 5.2141 3.84344 5.28671 3.91026 5.44236Z" fill="white"/>
<path d="M4.74989 7.6493C4.80374 7.54997 4.82617 7.48311 4.85009 7.36544C4.87102 7.26191 4.87239 7.14233 4.86483 7.02059C5.02599 6.95528 5.21805 6.8469 5.28259 6.83893C5.23845 6.98955 5.34381 7.15209 5.5566 7.13088C5.5729 7.30121 5.58685 7.45081 5.59532 7.53954C5.61267 7.72144 5.61006 7.95066 5.60954 7.9905C5.60882 8.03052 5.63796 8.02297 5.66788 7.93382C5.70778 7.81448 5.7201 7.50282 5.70563 7.29672C5.70218 7.2452 5.69631 7.17564 5.6892 7.09637C5.82715 7.03293 5.8501 6.91047 5.90167 6.85828C5.94822 7.02035 6.20443 7.04233 6.28351 7.00764C6.38156 6.96457 6.4137 6.8871 6.43893 6.70731C6.46423 6.52757 6.39056 6.4552 6.36422 6.43561C6.36161 6.45735 6.29746 6.6686 6.29746 6.6686C6.29746 6.6686 6.35829 6.73247 6.36135 6.76386C6.3118 6.80844 6.2073 6.81119 6.11955 6.7828C6.03173 6.7544 6.00481 6.70215 6.01002 6.66711C6.01511 6.63194 6.04816 6.59994 6.04927 6.55711C6.05025 6.51427 6.02958 6.52667 5.99444 6.5646C5.9593 6.60258 5.93661 6.63673 5.88798 6.71827C5.84821 6.78495 5.78367 6.86631 5.66984 6.88956C5.65106 6.69377 5.62962 6.48545 5.61527 6.3546C5.60778 6.28553 5.53287 5.68856 5.52752 5.62176C5.52289 5.56359 5.51422 5.49499 5.51566 5.46276C5.51709 5.43711 5.53326 5.4473 5.55829 5.47414C5.58339 5.50092 5.62727 5.54765 5.63483 5.544C5.66039 5.53153 5.63424 5.45395 5.6008 5.38445C5.56742 5.31477 5.45346 5.0399 5.42954 5.02857C5.41721 5.02282 5.34029 5.19201 5.33572 5.22532C5.34765 5.24617 5.37881 5.27895 5.37992 5.37217C5.38031 5.39817 5.39713 5.64333 5.42047 5.87513C5.44088 6.07985 5.46793 6.27408 5.47054 6.29667C5.48912 6.45292 5.51168 6.67316 5.53313 6.88968C5.40959 6.86631 5.37673 6.78531 5.37947 6.73912C5.3826 6.687 5.40626 6.62816 5.39492 6.61486C5.37112 6.60066 5.22952 6.67933 5.03205 6.76386C4.9765 6.78759 4.91392 6.81305 4.84788 6.8372C4.83066 6.68963 4.80798 6.54932 4.79885 6.44202L4.79774 6.43009C4.92761 6.42177 5.03394 6.35658 5.08231 6.29451C5.14275 6.21693 5.18499 6.05726 5.1891 5.93492C5.19321 5.81246 5.09379 5.58857 5.07012 5.5174C5.04626 5.44616 5.03394 5.39679 5.03185 5.37217C5.0297 5.34754 5.08557 5.40069 5.12071 5.41111C5.14451 5.41584 5.13629 5.36462 5.10722 5.32945C5.07834 5.2944 4.92213 5.05877 4.91118 5.0753C4.90446 5.08501 4.84188 5.25834 4.83777 5.28488C4.86241 5.30105 4.89123 5.34563 4.89325 5.38834C4.89534 5.43106 4.92976 5.61889 4.9679 5.72325C5.00617 5.82762 5.08766 6.02784 5.09281 6.0829C5.03459 6.1237 4.90205 6.19278 4.77095 6.18865C4.74852 6.00604 4.7201 5.79395 4.70491 5.64375C4.69904 5.5857 4.69865 5.52375 4.69956 5.49139C4.70028 5.46575 4.71886 5.46929 4.74441 5.49565C4.7701 5.52201 4.80948 5.56035 4.81756 5.5576C4.83516 5.55178 4.81991 5.49361 4.78503 5.42453C4.75015 5.35545 4.61155 5.06326 4.58723 5.05236C4.57491 5.04679 4.51284 5.21089 4.50893 5.24438C4.52132 5.26511 4.55307 5.29716 4.5562 5.39038C4.55868 5.46461 4.59505 5.8284 4.62622 6.14881C4.49648 6.08213 4.45221 5.98681 4.43618 5.82678C4.42496 5.71522 4.42385 5.50973 4.38383 5.33784C4.36127 5.24066 4.31374 5.14193 4.25741 5.0895C4.24398 5.1218 4.18401 5.32005 4.18401 5.32005C4.20356 5.37696 4.26439 5.56862 4.2623 5.7347C4.26028 5.90077 4.24711 6.06313 4.05988 6.17499C3.87277 6.2869 3.59211 6.24239 3.52281 6.06781C3.45351 5.8931 3.60756 5.45509 3.60554 5.35168C3.60345 5.24827 3.58487 5.23401 3.54139 5.25109C3.49797 5.26816 3.40911 5.36785 3.33257 5.53004C3.25604 5.69234 3.222 5.89334 3.17852 6.03C3.13517 6.16666 3.06573 6.30512 2.95829 6.29745C2.85086 6.2899 2.79303 6.19218 2.75998 6.05085C2.72686 5.9094 2.74713 5.72313 2.75613 5.67538C2.77856 5.5558 2.7266 5.5803 2.69478 5.76807C2.67509 5.88388 2.65553 6.06882 2.72484 6.2624C2.79401 6.45598 2.91194 6.52817 3.01527 6.50343C3.11867 6.4788 3.20955 6.23778 3.24163 6.12952C3.27364 6.02143 3.41687 5.54136 3.49797 5.51775C3.50931 5.57186 3.43493 5.74626 3.41113 5.95026C3.3874 6.15426 3.44275 6.4283 3.70327 6.47569C3.96378 6.52314 4.14052 6.3552 4.20461 6.23862C4.26876 6.12185 4.29868 5.99945 4.30592 5.9378C4.31426 6.09429 4.4217 6.33867 4.63039 6.40835L4.6519 6.41452C4.66475 6.54261 4.68567 6.70982 4.70491 6.88542C4.66429 6.89789 4.62328 6.90915 4.58247 6.91886C4.57726 6.90202 4.57152 6.88554 4.56454 6.87039C4.50085 6.73421 4.39543 6.60869 4.24933 6.61738C4.1001 6.62619 3.93738 6.82413 3.94448 6.9687C3.94918 7.06594 4.00303 7.14574 4.19887 7.16617C4.28832 7.17558 4.3833 7.16569 4.48142 7.14442C4.49524 7.18462 4.50398 7.22459 4.50496 7.26101C4.44289 7.33315 3.92936 7.71814 3.54484 7.75517C3.16033 7.79213 3.04305 7.59179 3.0392 7.39066C3.03633 7.23765 3.12891 7.08493 3.19397 6.97925C3.28707 6.91155 3.36348 6.82689 3.41172 6.76159C3.42482 6.76961 3.43727 6.77704 3.44914 6.78393C3.4951 6.81047 3.51342 6.85014 3.51342 6.85014C3.5219 6.8372 3.5614 6.7665 3.54595 6.73193C3.53885 6.72342 3.5041 6.70215 3.46231 6.67693C3.50618 6.56825 3.5056 6.45975 3.44875 6.43561C3.38518 6.40871 3.30219 6.48348 3.2664 6.52907C3.24782 6.55279 3.24071 6.57969 3.24058 6.60228C3.24032 6.63134 3.25408 6.65758 3.28811 6.68094C3.32201 6.70395 3.3535 6.7248 3.3831 6.74361C3.29906 6.83132 3.10048 6.95984 2.97896 7.03532C2.97446 7.02424 2.95667 7.03592 2.93274 7.06396L2.89982 7.08415C2.80287 7.14311 2.57039 7.27258 2.52469 7.30427C2.47892 7.33602 2.50761 7.33027 2.52469 7.3232C2.55696 7.30589 2.59934 7.28492 2.64693 7.26179C2.71434 7.22902 2.79277 7.19193 2.86944 7.15473C2.84675 7.19295 2.82328 7.23765 2.80248 7.28642C2.71101 7.50108 2.56315 7.94599 2.883 8.21367C3.18902 8.46992 3.715 8.37244 4.15121 8.10613C4.58749 7.83976 4.6817 7.74612 4.74989 7.6493ZM3.32762 6.59102C3.31249 6.57993 3.31041 6.56514 3.32273 6.55483C3.33844 6.54153 3.35852 6.52895 3.38134 6.52469C3.42971 6.51577 3.44901 6.57101 3.42958 6.65704C3.39281 6.63469 3.355 6.61121 3.32762 6.59102ZM4.32821 6.9539C4.1061 6.95492 4.09586 6.91484 4.10004 6.8892C4.10414 6.86368 4.17331 6.79364 4.26107 6.83983C4.29816 6.85942 4.33995 6.9004 4.37861 6.95187C4.36153 6.95312 4.34471 6.95378 4.32821 6.9539ZM3.64792 8.11494C3.22826 8.22877 2.81891 8.05239 2.79414 7.70316C2.77517 7.43649 2.87302 7.23555 2.93613 7.12232C2.9963 7.09272 3.05315 7.06396 3.10016 7.0382C2.99031 7.21404 2.92602 7.44956 2.96899 7.64906C3.01762 7.87505 3.21542 8.01207 3.55032 7.96785C3.8819 7.92418 4.33024 7.61072 4.45736 7.49251C4.49609 7.44985 4.52164 7.41139 4.55646 7.33303C4.5708 7.30085 4.59095 7.25838 4.59844 7.21039C4.60333 7.17911 4.60594 7.14568 4.60653 7.11165C4.64545 7.10009 4.68456 7.08715 4.72394 7.07325C4.73731 7.21632 4.74715 7.35735 4.74774 7.47933C4.54114 7.72018 4.06757 8.00104 3.64792 8.11494Z" fill="white"/>
<path d="M10.9883 7.19916C10.974 6.9655 10.9397 6.54258 10.9206 6.32804C10.9036 6.1371 10.8703 5.8754 10.8459 5.64504C10.8398 5.58705 10.8392 5.53151 10.8398 5.49922C10.8405 5.47369 10.8662 5.48352 10.8919 5.50976C10.9176 5.536 10.9577 5.56895 10.9653 5.56494C10.9904 5.552 10.9603 5.48801 10.9251 5.41917C10.8898 5.35021 10.75 5.06497 10.7257 5.05413C10.7133 5.04862 10.6477 5.21949 10.644 5.25298C10.6565 5.27359 10.6885 5.30552 10.6919 5.39874C10.6955 5.49203 10.7429 5.92088 10.7771 6.26771C10.8008 6.50879 10.8315 6.90217 10.8538 7.1988C10.8526 7.19928 10.8748 7.4808 10.8772 7.51244C10.8909 7.69457 10.8838 7.92373 10.8824 7.96351C10.8809 8.00348 10.9103 7.99653 10.9419 7.90786C10.974 7.81733 10.9924 7.61519 10.9948 7.43269L10.9883 7.19916Z" fill="white"/>
<path d="M9.79666 6.38116C9.75364 6.39422 9.68609 6.34899 9.69125 6.25415C9.69594 6.16847 9.73284 6.08825 9.74705 6.03762C9.76661 5.96777 9.76674 5.90043 9.75018 5.93859C9.71289 6.0239 9.64346 6.18884 9.62912 6.30076C9.61471 6.41267 9.65122 6.48481 9.70083 6.50943C9.76263 6.54029 9.80716 6.49134 9.83728 6.4192C9.86623 6.35012 9.86075 6.26948 9.84067 6.28848C9.82385 6.30831 9.81759 6.37475 9.79666 6.38116Z" fill="white"/>
<path d="M9.17812 6.72595C9.20094 6.66567 9.20629 6.6066 9.18875 6.63901C9.14918 6.71163 9.07505 6.85194 9.05334 6.94942C9.0317 7.04689 9.05797 7.11286 9.0997 7.13784C9.15172 7.16911 9.19455 7.12903 9.22695 7.06762C9.25792 7.00885 9.25949 6.9375 9.24045 6.95295C9.22402 6.96925 9.21313 7.02718 9.19436 7.03144C9.15531 7.04 9.09963 6.99567 9.11169 6.91251C9.12264 6.83762 9.16157 6.7695 9.17812 6.72595Z" fill="white"/>
<path d="M7.37694 7.99743C7.41508 7.9359 7.43405 7.8721 7.40758 7.90433C7.34852 7.97634 7.23671 8.11612 7.19159 8.21863C7.14661 8.32114 7.16095 8.39812 7.20105 8.43317C7.25105 8.47691 7.30679 8.44096 7.35549 8.37991C7.40223 8.32138 7.41971 8.24373 7.39526 8.25697C7.37381 8.27189 7.3493 8.33318 7.32772 8.33432C7.28332 8.33647 7.23208 8.2777 7.2635 8.18915C7.29193 8.10923 7.34936 8.04201 7.37694 7.99743Z" fill="white"/>
<path d="M10.5348 6.20177C10.4911 6.21268 10.4264 6.16397 10.4372 6.06949C10.4471 5.98423 10.4888 5.90605 10.506 5.85632C10.5298 5.78748 10.534 5.72032 10.5151 5.75747C10.4729 5.84087 10.3936 6.00191 10.3724 6.11299C10.3512 6.224 10.3832 6.29787 10.4313 6.32501C10.4913 6.3588 10.5385 6.31231 10.5731 6.24174C10.6061 6.17428 10.6056 6.09351 10.5843 6.11149C10.5664 6.13054 10.5561 6.1965 10.5348 6.20177Z" fill="white"/>
<path d="M10.5214 7.36087C10.5813 7.39466 10.6287 7.34817 10.6631 7.27759C10.6961 7.21013 10.6957 7.12937 10.6745 7.14734C10.6564 7.16627 10.6462 7.23236 10.6249 7.23763C10.5811 7.24847 10.5163 7.19982 10.5273 7.10534C10.5371 7.02009 10.5788 6.94184 10.5961 6.89218C10.6199 6.82334 10.624 6.75606 10.6052 6.79332C10.5628 6.87672 10.4837 7.03776 10.4625 7.14872C10.4413 7.25986 10.4733 7.33373 10.5214 7.36087Z" fill="white"/>
<path d="M11.2863 5.88029C11.3152 5.79701 11.3201 5.71571 11.2973 5.7607C11.246 5.8616 11.1502 6.05643 11.1245 6.19093C11.099 6.32531 11.1378 6.41464 11.196 6.44753C11.2684 6.48839 11.3257 6.43214 11.3675 6.34682C11.4073 6.26516 11.4067 6.16733 11.3811 6.18919C11.3594 6.21214 11.3469 6.29194 11.3211 6.29835C11.2683 6.31153 11.1898 6.25264 11.2031 6.13833C11.215 6.03516 11.2655 5.94056 11.2863 5.88029Z" fill="white"/>
<path d="M5.17339 7.32071C5.22053 7.21922 5.23761 7.11761 5.20292 7.17171C5.12528 7.29279 4.97905 7.52722 4.92911 7.6933C4.87911 7.85944 4.91614 7.97614 4.98492 8.02401C5.07071 8.08345 5.15018 8.01898 5.21388 7.91647C5.27483 7.81816 5.28696 7.69504 5.25182 7.71966C5.2215 7.74602 5.1953 7.84512 5.16205 7.85033C5.09372 7.86099 5.00297 7.77819 5.03466 7.6359C5.06334 7.50751 5.13936 7.39416 5.17339 7.32071Z" fill="white"/>
<path d="M11.7736 8.32691C11.8098 8.29749 12.1239 8.12932 12.1817 8.09517C12.1817 8.09517 12.2408 7.99931 12.2231 7.98913C12.2053 7.97894 12.0906 8.08259 12.0193 8.08546C11.9479 8.08834 11.8502 8.03622 11.847 7.9935C11.8563 7.96127 11.9422 7.91286 11.9732 7.91088C12.0042 7.90908 11.9992 7.9793 12.0096 7.98787C12.0199 7.99632 12.0612 7.9394 12.0664 7.91567C12.0715 7.89201 12.0673 7.79291 12.0105 7.80711C11.9206 7.8297 11.785 7.99542 11.7695 8.04754C11.7539 8.09978 11.8377 8.14526 11.8989 8.17C11.8937 8.17192 11.848 8.19373 11.8191 8.22212C11.8191 8.22212 11.7881 8.25669 11.7736 8.32691Z" fill="white"/>
<path d="M10.7026 8.53525C10.7387 8.50583 11.0528 8.33778 11.1106 8.30351C11.1106 8.30351 11.1699 8.20765 11.152 8.19746C11.1342 8.18728 11.0195 8.29093 10.9482 8.2938C10.8768 8.29668 10.7791 8.24456 10.776 8.20184C10.7852 8.16961 10.8711 8.1212 10.9021 8.11934C10.9332 8.11742 10.9281 8.18758 10.9385 8.19609C10.9489 8.20465 10.9901 8.14774 10.9954 8.12401C11.0004 8.10035 10.9961 8.00125 10.9394 8.01545C10.8495 8.03816 10.7139 8.20375 10.6985 8.256C10.6829 8.30812 10.7667 8.35359 10.8277 8.37834C10.8226 8.38026 10.777 8.402 10.7481 8.43046C10.7481 8.43046 10.717 8.46503 10.7026 8.53525Z" fill="white"/>
<path d="M8.29001 5.52094C8.31818 5.55347 8.50268 5.78647 8.64721 5.93295C8.79168 6.07956 9.03935 6.31681 9.22131 6.47941C9.25651 6.51093 9.29387 6.54507 9.33188 6.5806C9.37778 6.93085 9.43084 7.37653 9.45314 7.56082C9.47511 7.7423 9.47837 7.97146 9.47883 8.01136C9.47922 8.05132 9.50816 8.04317 9.53568 7.95349C9.57257 7.83312 9.57681 7.52146 9.55725 7.3156C9.54513 7.18847 9.51651 6.95032 9.4888 6.73074C9.59624 6.83625 9.69775 6.94091 9.76614 7.01928C9.89189 7.16313 9.9977 7.27163 10.0622 7.42626C10.1078 7.53566 10.1032 7.62271 10.1219 7.63991C10.1381 7.65476 10.1559 7.52386 10.136 7.3969C10.1036 7.19075 10.0593 7.10333 9.79306 6.80899C9.69149 6.69647 9.57192 6.57887 9.45503 6.46893C9.45053 6.43502 9.44642 6.40362 9.44271 6.37576C9.43345 6.30693 9.34322 5.71176 9.33612 5.64508C9.33005 5.58702 9.31943 5.51866 9.32027 5.48637C9.32093 5.46067 9.33735 5.47067 9.36317 5.49692C9.38886 5.5231 9.43384 5.56893 9.44147 5.56492C9.46663 5.55197 9.4386 5.47511 9.40333 5.40615C9.36819 5.33731 9.24713 5.06495 9.22281 5.05417C9.21049 5.04865 9.13793 5.21946 9.13421 5.25289C9.14679 5.2735 9.17874 5.30562 9.18219 5.39872C9.18317 5.42472 9.20638 5.66952 9.23552 5.90066C9.26134 6.1049 9.29328 6.2986 9.29661 6.321L9.29674 6.32274C9.1762 6.21346 9.06999 6.12066 9.00558 6.06236C8.85498 5.9263 8.52237 5.60344 8.509 5.55509C8.506 5.53981 8.53182 5.54922 8.57928 5.55677C8.62694 5.56438 8.66931 5.58049 8.66169 5.55725C8.65823 5.54628 8.63998 5.5192 8.59454 5.49128C8.54903 5.46331 8.43246 5.39081 8.34576 5.33953C8.25885 5.2883 8.21582 5.24535 8.1979 5.25763C8.18903 5.26368 8.19692 5.43916 8.20213 5.46103C8.22384 5.46289 8.26198 5.48829 8.29001 5.52094Z" fill="white"/>
<path d="M8.52744 5.20539C8.5631 5.19761 8.73209 5.20186 8.79344 5.21468C8.76775 5.23241 8.59485 5.31923 8.56069 5.3399C8.52673 5.36063 8.51812 5.37261 8.5352 5.37057C8.58475 5.35691 8.69643 5.3399 8.74995 5.31216C8.80041 5.28867 8.8864 5.17412 8.91985 5.1314C8.95309 5.08869 8.95309 5.06736 8.94462 5.05591C8.91046 5.03746 8.69023 5.01895 8.58403 5.04513C8.55463 5.06496 8.49713 5.17059 8.48865 5.19257C8.48018 5.21468 8.49178 5.21318 8.52744 5.20539Z" fill="white"/>
<path d="M9.46732 5.19163C9.49614 5.18534 9.63233 5.18876 9.68168 5.19906C9.66101 5.21338 9.52176 5.28336 9.49424 5.30013C9.46667 5.31673 9.45982 5.32643 9.47358 5.32476C9.51354 5.31385 9.60357 5.30013 9.64667 5.27767C9.68728 5.25873 9.75659 5.16641 9.78351 5.13208C9.8103 5.09757 9.8103 5.08044 9.80346 5.07127C9.77608 5.05623 9.59855 5.04137 9.51295 5.06252C9.48922 5.07846 9.443 5.16359 9.43616 5.18133C9.42918 5.19906 9.43863 5.19792 9.46732 5.19163Z" fill="white"/>
<path d="M10.2314 5.18187C10.2601 5.17558 10.3962 5.179 10.4456 5.1893C10.4251 5.20362 10.2857 5.2736 10.2582 5.29025C10.2307 5.30697 10.2239 5.31667 10.2376 5.315C10.2776 5.30409 10.3746 5.29025 10.4177 5.26791C10.4584 5.24897 10.5065 5.15665 10.5335 5.1222C10.5604 5.08781 10.5604 5.07056 10.5534 5.06151C10.526 5.04647 10.3625 5.03161 10.277 5.05264C10.2533 5.0687 10.2069 5.15383 10.2001 5.17157C10.1932 5.1893 10.2026 5.18816 10.2314 5.18187Z" fill="white"/>
<path d="M9.75468 5.55173C9.70943 5.62255 9.76615 5.6797 9.78682 5.73692C9.75892 5.76226 9.71602 5.73914 9.70168 5.71691C9.67116 5.67132 9.6814 5.57839 9.64548 5.56407C9.63629 5.58918 9.63029 5.61704 9.63029 5.61704C9.63029 5.61704 9.6576 5.6806 9.65076 5.72266C9.64639 5.74806 9.62383 5.77772 9.59404 5.77832C9.51463 5.78024 9.55375 5.66341 9.52311 5.5972C9.51685 5.61338 9.51235 5.63075 9.50505 5.64591C9.51066 5.66317 9.51372 5.68737 9.51463 5.70133C9.51646 5.72907 9.51424 5.75897 9.519 5.78263C9.52559 5.81612 9.5443 5.83835 9.57285 5.84051C9.63218 5.84518 9.65923 5.79743 9.66817 5.75825C9.6784 5.79821 9.75683 5.84224 9.79542 5.79318C9.84654 5.72847 9.80566 5.67305 9.77945 5.61218C9.76055 5.56719 9.76602 5.53765 9.75468 5.55173Z" fill="white"/>
<path d="M7.52599 5.36395C7.53009 5.39307 7.54515 5.41296 7.56973 5.41595C7.62045 5.42236 7.64614 5.38228 7.65572 5.34897C7.66244 5.38378 7.72802 5.42476 7.76368 5.38414C7.81082 5.3304 7.77816 5.28103 7.75847 5.22753C7.74439 5.18787 7.75045 5.16271 7.74002 5.17439C7.69764 5.23346 7.74387 5.28517 7.75893 5.33531C7.73363 5.35592 7.69784 5.33429 7.68649 5.3147C7.66237 5.27414 7.67554 5.19452 7.64542 5.18068C7.6363 5.20201 7.62984 5.22567 7.62984 5.22567C7.62984 5.22567 7.65025 5.28157 7.64229 5.31746C7.6374 5.33921 7.61661 5.36383 7.59079 5.36317C7.5224 5.36167 7.56165 5.26258 7.53831 5.2044C7.53225 5.218 7.52749 5.23292 7.52038 5.2455C7.52449 5.26072 7.52599 5.28157 7.52599 5.29373C7.52651 5.3177 7.52312 5.34322 7.52599 5.36395Z" fill="white"/>
<path d="M9.1442 8.10782C9.15183 8.09577 9.16865 8.0627 9.16441 8.04012C9.16018 8.01753 9.13234 7.92329 9.07829 7.89968C9.02457 7.87608 8.98389 7.92556 8.95814 7.9944L8.94028 7.99398C8.93604 8.00417 8.93069 8.01939 8.92646 8.04689C8.92046 8.08661 8.90912 8.11219 8.8406 8.17402C8.78297 8.22578 8.59625 8.3501 8.47525 8.40851C8.35412 8.46705 8.26696 8.51755 8.23481 8.53289C8.2028 8.54799 8.21213 8.55362 8.24414 8.5441C8.27608 8.53463 8.43685 8.48316 8.50094 8.45692C8.56489 8.4305 8.64312 8.38707 8.73739 8.32626C8.84223 8.25867 8.90488 8.19109 8.92594 8.13118C8.94093 8.08846 8.94478 8.07139 8.94478 8.07139C8.94478 8.07139 8.98415 8.09452 9.05098 8.10967C9.11754 8.12489 9.13645 8.11998 9.1442 8.10782ZM9.05385 7.97391C9.08351 7.98512 9.10157 8.01723 9.10691 8.0367C9.07288 8.03748 9.01023 8.02029 8.98357 8.0083C8.9996 7.97745 9.02751 7.96409 9.05385 7.97391Z" fill="white"/>
<path d="M8.43462 8.17405C8.34165 8.16123 8.10741 8.12582 8.0501 7.99066C8.09822 7.92092 8.31981 7.83261 8.59741 7.74999C8.875 7.66755 9.16505 7.56055 9.24302 7.5089C9.2601 7.50315 9.29315 7.50489 9.29315 7.50489C9.30711 7.46493 9.3768 7.32462 9.38117 7.29526C9.30359 7.29963 8.82539 7.33456 8.61299 7.34588C8.40045 7.35727 7.99117 7.35451 7.85478 7.35301C7.93843 7.29322 8.13694 7.17651 8.42067 7.07694C8.45743 7.064 8.49147 7.05232 8.52321 7.04177C8.54682 7.08359 8.56435 7.12493 8.568 7.16094C8.58606 7.14248 8.59962 7.08131 8.59506 7.01853C8.76046 6.96604 8.84566 6.94867 8.88243 6.93878C8.90564 6.90889 8.94678 6.78798 8.95291 6.70009C8.9282 6.65534 8.85081 6.59962 8.78197 6.55175C8.68711 6.48591 8.58482 6.42851 8.48273 6.45362C8.34315 6.48765 8.31518 6.74251 8.34771 6.79655C8.35808 6.81363 8.38266 6.84388 8.41167 6.88121C8.30971 6.92105 8.20305 6.9679 8.10904 7.01715C7.89964 7.12679 7.66585 7.24673 7.59766 7.36206L7.5781 7.37153C7.57262 7.38243 7.52946 7.56091 7.52321 7.58014C7.56676 7.57864 7.89194 7.57924 8.11843 7.57223C8.34478 7.56504 8.54271 7.55791 8.62022 7.55791C8.50542 7.58493 8.20455 7.69607 8.11803 7.76143C8.03152 7.82698 7.97715 7.92661 7.97572 8.09742C7.89507 8.06603 7.74519 7.99431 7.61748 7.8226C7.47509 7.63124 7.50456 7.43443 7.44758 7.17615C7.36478 6.80135 7.18798 6.48489 7.07787 6.38807C7.04077 6.52036 7.03601 6.62005 7.03601 6.62005C7.03601 6.62005 7.17396 6.92321 7.24378 7.11672C7.31361 7.3103 7.37326 7.501 7.37033 7.54371C7.31283 7.66905 6.97245 7.93158 6.68879 8.08526C6.4198 8.23096 6.18282 8.24666 6.09885 8.14289C6.08236 8.12264 6.07114 8.09868 6.06482 8.07154C6.10133 8.05458 6.13797 8.03751 6.17552 8.02043C6.41739 7.91091 6.84695 7.68037 6.94761 7.55941C7.05622 7.41281 7.05472 7.20641 6.99103 7.08826C6.92759 6.97018 6.82811 6.83346 6.82035 6.78511C6.81429 6.76228 6.88496 6.7944 6.92668 6.79655C6.94689 6.79505 6.93679 6.76803 6.89343 6.72532C6.85875 6.69129 6.72465 6.58087 6.6734 6.53779C6.66056 6.52683 6.65098 6.53126 6.64837 6.54283C6.63839 6.58692 6.61799 6.68134 6.6101 6.72795L6.61558 6.75144C6.63031 6.76013 6.64726 6.76989 6.65547 6.79428C6.66708 6.82884 6.7077 6.9253 6.77426 7.04704C6.84095 7.16872 6.93731 7.30305 6.94676 7.37087C6.8684 7.4702 6.47326 7.68175 6.08835 7.85609C6.11215 7.78276 6.1497 7.69984 6.19951 7.60776C6.21366 7.59218 6.22656 7.57295 6.23856 7.55126C6.27696 7.48153 6.28068 7.39627 6.2574 7.4143C6.23745 7.43342 6.22311 7.50261 6.20029 7.50729C6.15355 7.51681 6.08796 7.46259 6.10446 7.36344C6.11939 7.27399 6.1675 7.19323 6.1883 7.14153C6.21711 7.06999 6.225 6.99929 6.20316 7.03776C6.15407 7.12367 6.06195 7.29011 6.03366 7.4064C6.00549 7.52251 6.03542 7.60189 6.08477 7.63262C6.10322 7.64431 6.12088 7.64796 6.1377 7.64568C6.10393 7.70955 6.06221 7.78792 6.03176 7.88138C5.87699 7.95022 5.7264 8.01175 5.60175 8.05608C5.15367 8.21551 4.83435 8.30945 4.61099 8.37919L4.60226 8.38308C4.61869 8.3303 4.61647 8.28524 4.59887 8.29878C4.57892 8.31802 4.56464 8.38721 4.54182 8.39177C4.49508 8.40129 4.42949 8.34713 4.44592 8.24792C4.46092 8.15847 4.50903 8.07783 4.52983 8.02606C4.55851 7.95459 4.56647 7.88377 4.54469 7.9223C4.49554 8.00821 4.40348 8.17465 4.37519 8.29088C4.34696 8.40704 4.37688 8.48643 4.42617 8.51722C4.48758 8.55557 4.53993 8.50854 4.58009 8.4358L4.59417 8.40591C4.60813 8.40591 4.63166 8.40267 4.6668 8.39488C4.76915 8.372 5.02504 8.33509 5.37689 8.2895C5.63741 8.25583 5.81728 8.18471 5.99115 8.10557C5.99037 8.12468 5.99017 8.14415 5.99102 8.16422C6.00047 8.40153 6.15694 8.46851 6.3709 8.42412C6.57731 8.38104 6.86514 8.19292 7.03764 8.06603C7.21751 7.93374 7.3213 7.81553 7.34777 7.77431C7.39575 7.67324 7.40892 7.56157 7.41218 7.5089C7.42789 7.65401 7.44061 7.85484 7.57869 8.02708C7.70581 8.18561 7.96633 8.4068 8.45633 8.41286C8.45796 8.35492 8.43462 8.17405 8.43462 8.17405ZM8.40222 6.70357C8.47236 6.62532 8.62205 6.67649 8.73438 6.7757C8.67681 6.78912 8.59864 6.81303 8.51239 6.84364C8.46115 6.78223 8.40398 6.72304 8.40222 6.70357Z" fill="white"/>
<path d="M5.64746 5.6308C5.67927 5.61636 5.77661 5.57287 5.88151 5.51212C5.98621 5.45179 6.08458 5.37869 6.1327 5.33011C6.15115 5.31147 6.16758 5.29691 6.17807 5.2796C6.2095 5.29254 6.23114 5.30596 6.24464 5.31123C6.26491 5.31902 6.29197 5.33023 6.30957 5.27283C6.32711 5.21549 6.30383 5.17847 6.26954 5.13425C6.24053 5.09717 6.1945 5.04145 6.15715 5.02761C6.12546 5.01581 6.1104 5.08614 6.11523 5.08441H6.13641L6.14052 5.08638C6.09691 5.10825 6.06314 5.17631 6.05975 5.20022C6.05629 5.22622 6.06125 5.24539 6.12383 5.26139L6.149 5.26876C6.09678 5.33023 5.99944 5.39379 5.93314 5.43885C5.83906 5.50295 5.70555 5.58305 5.66754 5.60618C5.62953 5.62919 5.63273 5.63644 5.64746 5.6308ZM6.21282 5.17919L6.21621 5.14845C6.26022 5.1983 6.29288 5.25761 6.28962 5.266C6.26941 5.26762 6.24425 5.24904 6.20024 5.23035C6.20513 5.21549 6.20924 5.19908 6.21282 5.17919ZM6.08648 5.17925C6.08622 5.1699 6.10317 5.1439 6.13902 5.1297C6.17481 5.11538 6.19066 5.15534 6.19378 5.20399L6.18316 5.22346L6.15089 5.21238C6.11673 5.20243 6.09365 5.1968 6.08648 5.17925Z" fill="white"/>
<path d="M7.99369 6.56917C8.04533 6.53526 8.18725 6.43341 8.26777 6.36667C8.32377 6.32029 8.38955 6.25199 8.43421 6.19424C8.46224 6.21227 8.48839 6.22827 8.51218 6.24217C8.55808 6.26883 8.57653 6.30837 8.57653 6.30837C8.585 6.29543 8.62451 6.22461 8.60906 6.19017C8.5998 6.1789 8.54334 6.14613 8.48565 6.11102C8.51492 6.04572 8.55521 5.93278 8.49751 5.89324C8.44816 5.85969 8.36491 5.91523 8.32638 5.9873C8.29456 6.04698 8.29046 6.0976 8.35115 6.13906C8.36823 6.15074 8.3846 6.16177 8.40063 6.17225C8.33942 6.23881 8.22663 6.33731 8.14638 6.40435C8.0467 6.48727 7.95243 6.56857 7.936 6.58798L7.93124 6.59553C7.90946 6.53526 7.9154 6.49805 7.89923 6.51806C7.8294 6.62692 7.9169 6.71511 7.94871 6.80318C7.90568 6.84201 7.83977 6.80636 7.81767 6.77239C7.7706 6.70205 7.78631 6.55922 7.73122 6.53712C7.71701 6.5757 7.70775 6.61866 7.70775 6.61866C7.70775 6.61866 7.74967 6.71649 7.73905 6.78108C7.73246 6.82014 7.69765 6.86585 7.65195 6.86663C7.52964 6.86975 7.58995 6.68989 7.54275 6.58804C7.53316 6.61302 7.52632 6.63974 7.51484 6.66287C7.52352 6.68965 7.52827 6.7268 7.52951 6.74831C7.53264 6.79102 7.52912 6.83686 7.53636 6.87352C7.54646 6.92505 7.57528 6.95932 7.61929 6.96249C7.71049 6.96986 7.75215 6.89617 7.76597 6.83608C7.78168 6.89755 7.90249 6.96513 7.96188 6.88976C8.04057 6.79012 7.97759 6.70481 7.93737 6.61111L7.93261 6.59894C7.93821 6.60092 7.95927 6.59176 7.99369 6.56917ZM8.35043 6.00815C8.38068 5.95237 8.44438 5.94764 8.46348 5.97688C8.47867 6.00012 8.47991 6.04548 8.45709 6.09335C8.40089 6.0583 8.35076 6.02397 8.35043 6.00815Z" fill="white"/>
<path d="M6.00268 6.21449C5.89524 6.20694 5.83742 6.1091 5.80436 5.96777C5.77125 5.82644 5.79152 5.64005 5.80052 5.5923C5.80951 5.54461 5.75886 5.56924 5.73917 5.68505C5.71961 5.80074 5.69992 5.98574 5.76922 6.17944C5.8384 6.37289 5.95633 6.44509 6.05966 6.42034C6.163 6.39572 6.25394 6.1547 6.28602 6.04655C6.31803 5.93835 6.46126 5.4971 6.54236 5.47338C6.5537 5.52748 6.47932 5.66318 6.45552 5.86718C6.43186 6.07118 6.47306 6.33874 6.73357 6.3862C6.99409 6.43371 7.17083 6.26571 7.23491 6.14894C7.29906 6.03236 7.32899 5.90978 7.33623 5.84819C7.34457 6.00474 7.45201 6.24918 7.6607 6.31885C7.86234 6.38619 8.01639 6.32455 8.08446 6.23725C8.14489 6.15973 8.19411 6.00006 8.19835 5.8776C8.20246 5.75526 8.09606 5.53137 8.07226 5.46008C8.0484 5.38896 8.03608 5.33959 8.034 5.31497C8.03197 5.29035 8.08785 5.34349 8.12299 5.35391C8.14678 5.35865 8.13844 5.30742 8.10949 5.27225C8.08061 5.2372 7.92427 5.00157 7.91332 5.01799C7.90661 5.02781 7.84402 5.20114 7.83991 5.22768C7.86469 5.24385 7.89337 5.28843 7.89552 5.33115C7.89748 5.37386 7.93888 5.56169 7.97715 5.66605C8.01542 5.77042 8.0898 5.97065 8.09502 6.0257C8.02063 6.07783 7.85308 6.14415 7.69394 6.07693C7.53481 6.00947 7.48402 5.91175 7.46648 5.73717C7.45527 5.62561 7.45416 5.42012 7.41413 5.24829C7.39158 5.15117 7.34405 5.05244 7.28759 5.00001C7.27429 5.03219 7.21431 5.23055 7.21431 5.23055C7.23387 5.28747 7.2947 5.47913 7.29274 5.6452C7.29059 5.81116 7.27742 5.97358 7.09018 6.0855C6.90308 6.19741 6.6365 6.15284 6.5672 5.97819C6.4979 5.80361 6.65195 5.41083 6.64993 5.30742C6.64784 5.20401 6.62913 5.18969 6.58578 5.20683C6.54236 5.2239 6.45337 5.3236 6.37696 5.48578C6.30042 5.64808 6.26646 5.81026 6.22291 5.94692C6.17956 6.08358 6.11012 6.22204 6.00268 6.21449Z" fill="white"/>
<path d="M2.88312 5.60916C3.01533 5.59964 3.12707 5.5 3.15595 5.47352C3.1849 5.44686 3.20048 5.40714 3.17975 5.42224C3.0268 5.55794 2.82216 5.56177 2.81069 5.53895C2.8159 5.51618 2.86975 5.47915 2.94831 5.42703C2.99603 5.39534 3.03854 5.36562 3.07035 5.3235L3.07902 5.325C3.13724 5.3377 3.20446 5.36299 3.22499 5.34273C3.25844 5.30996 3.26287 5.25628 3.22662 5.19841C3.19598 5.14928 3.12453 5.10357 3.06246 5.07055C3.00053 5.03772 2.98854 5.09015 2.98058 5.10884C2.97295 5.12627 2.97608 5.14113 2.98919 5.14149C2.96924 5.16851 2.95503 5.20332 2.94981 5.23208C2.94642 5.25065 2.94916 5.26587 2.95679 5.27839C2.959 5.28192 2.97048 5.29588 2.99219 5.30415L3.01911 5.31248C2.97276 5.35502 2.91936 5.38833 2.89133 5.40516C2.84074 5.43554 2.78076 5.48868 2.76218 5.54362C2.74354 5.59874 2.75077 5.61869 2.88312 5.60916ZM3.11684 5.22153L3.12192 5.19349V5.17552C3.16384 5.20584 3.23086 5.26323 3.22675 5.29762C3.20022 5.29163 3.14963 5.28103 3.10158 5.26874C3.10771 5.25442 3.11273 5.23873 3.11684 5.22153ZM2.99258 5.23028C2.96174 5.20584 2.99179 5.18145 3.01911 5.16575C3.05438 5.1455 3.07505 5.16222 3.09311 5.21536C3.08678 5.23058 3.07792 5.24538 3.06749 5.25958C3.04004 5.25113 3.00138 5.23759 2.99258 5.23028Z" fill="white"/>
<path d="M3.27977 7.09332C3.24176 7.12609 3.22702 7.23273 3.23478 7.23914C3.24247 7.24555 3.36126 7.2854 3.37984 7.29402L3.38831 7.26191C3.4449 7.31242 3.50762 7.56441 3.52157 7.56512C3.53552 7.56578 3.55573 7.53661 3.56897 7.46968C3.58116 7.40762 3.59335 7.31475 3.60606 7.23914C3.61793 7.16995 3.63638 7.13034 3.67823 7.12243C3.72015 7.11465 3.75118 7.16803 3.762 7.20433C3.762 7.20433 3.79141 7.13454 3.79767 7.09116C3.79069 7.06833 3.7255 6.9823 3.67204 7.01076C3.61851 7.03928 3.585 7.16 3.57418 7.23549C3.56329 7.31086 3.55495 7.40432 3.54178 7.4193C3.52796 7.35495 3.48369 7.2398 3.43023 7.1751C3.37012 7.1026 3.29984 7.076 3.27977 7.09332Z" fill="white"/>
<path d="M2.77307 6.96448C2.82268 6.95094 2.93436 6.93392 2.98781 6.90618C3.03821 6.8827 3.1242 6.76815 3.15758 6.72543C3.19089 6.68271 3.19096 6.66126 3.18248 6.64994C3.14839 6.63137 2.9281 6.61298 2.82183 6.63916C2.79249 6.65887 2.73506 6.76449 2.72658 6.7866C2.71798 6.80859 2.72971 6.80721 2.76531 6.79942C2.80097 6.79151 2.97002 6.79577 3.03117 6.80859C3.00568 6.82644 2.83278 6.91325 2.79862 6.93392C2.76459 6.95453 2.75599 6.96664 2.77307 6.96448Z" fill="white"/>
<path d="M13.0152 7.57604C13.0101 7.44801 12.947 7.25144 12.7071 6.94984C12.6243 6.84571 12.5078 6.71019 12.3849 6.57138C12.3815 6.52405 12.3781 6.48079 12.3751 6.44365C12.359 6.25259 12.3044 5.8628 12.2809 5.63238C12.2752 5.57426 12.2747 5.51243 12.2756 5.48014C12.2764 5.4545 12.295 5.45791 12.3206 5.48427C12.3461 5.51058 12.3855 5.54898 12.3937 5.54634C12.4112 5.54035 12.396 5.48218 12.3611 5.41322C12.3263 5.34414 12.1947 5.06477 12.1705 5.05393C12.158 5.04842 12.096 5.21245 12.0921 5.24601C12.1044 5.26661 12.1363 5.29867 12.1393 5.39195C12.1426 5.48517 12.1992 6.03576 12.2317 6.38271L12.2335 6.40207C12.0497 6.19819 11.8767 6.01228 11.8055 5.93691C11.7932 5.92385 11.7796 5.90899 11.765 5.89305C11.7534 5.80025 11.7427 5.71182 11.7354 5.63879C11.7294 5.58079 11.729 5.51884 11.73 5.48655C11.7306 5.46097 11.7493 5.46444 11.7749 5.49081C11.8006 5.51711 11.8398 5.55551 11.848 5.55275C11.8655 5.54688 11.8503 5.48871 11.8154 5.41963C11.7806 5.35055 11.6434 5.06477 11.6191 5.05393C11.6068 5.04842 11.5418 5.22552 11.538 5.25883C11.5504 5.27956 11.5822 5.31161 11.5853 5.40489C11.5865 5.44449 11.5969 5.56456 11.6107 5.71607C11.4889 5.57223 11.3697 5.42161 11.3612 5.39099C11.3582 5.37589 11.384 5.38518 11.4316 5.39285C11.4791 5.4004 11.5236 5.4146 11.516 5.39123C11.5124 5.38039 11.4943 5.35331 11.4489 5.32527C11.4034 5.29729 11.2868 5.2248 11.2001 5.17363C11.1132 5.12241 11.0701 5.07933 11.0522 5.09161C11.0434 5.09766 11.0512 5.27326 11.0563 5.29501C11.0782 5.29699 11.1185 5.31311 11.1442 5.34726C11.1702 5.38141 11.3363 5.61291 11.4676 5.76946C11.5054 5.81451 11.5646 5.88437 11.6339 5.96501C11.6475 6.10922 11.6617 6.25822 11.6734 6.38271C11.7001 6.6667 11.7959 7.41566 11.7969 7.65908C11.7261 7.72504 11.5815 7.81707 11.4326 7.81898C11.2838 7.82084 11.2022 7.7819 11.1422 7.6719C11.1237 7.63781 11.1065 7.60354 11.0894 7.57251C11.0488 7.49875 10.9583 7.45736 10.8711 7.47767L10.8578 7.4812L10.8341 7.49252C10.775 7.52326 10.7139 7.57478 10.6542 7.65471C10.5509 7.79334 10.485 7.94372 10.4086 8.07397C10.329 8.20961 10.2679 8.30062 10.1282 8.27887C10.0299 8.26353 9.95526 8.17971 9.90924 8.0766C10.0385 7.9877 10.1324 7.87171 10.201 7.71096C10.2904 7.50205 10.3223 7.26654 10.3144 7.00172C10.3067 6.75249 10.1924 6.16613 10.1623 5.9414C10.1321 5.71655 10.0888 5.53202 10.0939 5.48404C10.0986 5.43772 10.1728 5.54676 10.2108 5.55491C10.2302 5.5506 10.2198 5.48104 10.1829 5.42227C10.1578 5.3823 10.0785 5.20053 10.0267 5.11288C10.0023 5.07142 9.9964 5.0474 9.98506 5.04248C9.97384 5.03739 9.88746 5.22078 9.89789 5.24073C9.92345 5.27704 9.94092 5.29435 9.94627 5.35942C9.95174 5.42448 10.0109 5.9021 10.0627 6.25384C10.1017 6.51925 10.1878 7.00137 10.1989 7.35772C10.2025 7.47401 10.1859 7.55747 10.1714 7.60408C10.1342 7.67549 10.0737 7.75482 9.86086 7.90538C9.82801 7.69263 9.86373 7.51978 9.83257 7.50379C9.79743 7.50756 9.79182 7.60672 9.78785 7.72906C9.78589 7.78555 9.78837 7.8638 9.79906 7.94785C9.5377 8.12148 9.19243 8.27959 9.03029 8.364C8.93517 8.41361 8.96947 8.42517 9.04998 8.40043C9.1305 8.37557 9.57297 8.26023 9.80916 8.13676L9.83459 8.12274C9.84659 8.16414 9.86112 8.20422 9.87899 8.24118C9.95846 8.40534 10.072 8.50282 10.195 8.49329C10.2985 8.48538 10.3735 8.37533 10.439 8.24406C10.5052 8.11117 10.617 7.85883 10.7266 7.76494C10.7688 7.72876 10.8123 7.70012 10.8547 7.68292C10.8547 7.68292 10.9296 7.65806 10.9985 7.70281C11.0232 7.71899 11.0417 7.742 11.0533 7.76776C11.0805 7.82689 11.1127 7.90214 11.1784 7.96517C11.2942 8.07601 11.4803 8.05312 11.62 7.98865C11.7594 7.92413 11.8306 7.82348 11.8617 7.70389C11.9146 7.49929 11.9061 7.28966 11.896 7.10346C11.8844 6.89095 11.8502 6.67377 11.8308 6.44365C11.8245 6.36965 11.8123 6.26672 11.7983 6.15511C11.9343 6.31112 12.0755 6.46947 12.1612 6.55604C12.1907 6.58594 12.2219 6.61913 12.2539 6.65418C12.2794 7.0025 12.304 7.43836 12.317 7.62127C12.3298 7.80353 12.3215 8.03263 12.32 8.07247C12.3185 8.11231 12.3408 8.10548 12.3728 8.01705C12.4157 7.89837 12.4426 7.58712 12.4332 7.38073C12.4276 7.25809 12.4153 7.0345 12.402 6.82301C12.5075 6.94768 12.6077 7.07356 12.6729 7.15851C12.7889 7.30937 12.8953 7.48875 12.9325 7.60066C12.9697 7.7127 12.9738 7.74589 12.981 7.76584C12.9883 7.78579 13.0203 7.70407 13.0152 7.57604Z" fill="white"/>
<path d="M11.0578 11.8375C11.0474 11.8077 11.0153 11.7859 10.977 11.7859C10.9386 11.7859 10.9066 11.8077 10.8961 11.8375H10.533C10.5293 11.7975 10.5329 11.7572 10.5443 11.718L11.2939 11.7176L11.3148 11.7525C11.3336 11.7841 11.3574 11.8125 11.385 11.8375L11.0578 11.8375ZM11.554 11.4913H10.6533C10.7225 11.4416 10.7588 11.3691 10.7491 11.2958C10.7429 11.2496 10.6968 11.2151 10.6407 11.2104H10.6125C10.5441 11.2171 10.4946 11.266 10.5018 11.3197L10.5046 11.3404L10.5079 11.3722C10.5116 11.4121 10.508 11.4522 10.4967 11.4913H3.83853C3.9374 11.6342 4.11766 11.7219 4.31231 11.7218L10.388 11.7181C10.3185 11.7678 10.2821 11.8404 10.2919 11.9138C10.2991 11.9676 10.3602 12.0059 10.4285 11.9993C10.4968 11.9926 10.5463 11.9437 10.5392 11.8899L10.5364 11.8693H10.8935C10.8997 11.9039 10.9346 11.9305 10.977 11.9305C11.0194 11.9305 11.0542 11.9039 11.0605 11.8693H11.4237C11.4996 11.9228 11.5959 11.9527 11.6979 11.9527C11.7938 11.9527 11.8715 11.8864 11.8715 11.8047V11.7619C11.8715 11.6125 11.7294 11.4913 11.554 11.4913Z" fill="white"/>
</svg>
