<svg width="16" height="16" viewBox="0 0 16 16" fill="none" xmlns="http://www.w3.org/2000/svg">
<path d="M5.93488 9.00621C5.93601 8.73229 5.99256 8.46144 6.10113 8.20996C4.9545 8.615 3.93868 9.32245 3.16113 10.2575L4.16738 11.1325C4.67969 10.5066 5.32149 9.99912 6.04863 9.64496C5.97892 9.43894 5.94057 9.22362 5.93488 9.00621Z" fill="#242E30"/>
<path d="M8.4025 7.25628L8.83125 2.88128C8.56328 2.79205 8.28242 2.7477 8 2.75003C7.7025 2.74678 7.40662 2.79412 7.125 2.89003L7.55375 7.26503L8.4025 7.25628Z" fill="#242E30"/>
<path d="M7.24756 9.00628C7.24756 9.15511 7.29169 9.3006 7.37438 9.42434C7.45707 9.54809 7.57459 9.64454 7.71209 9.7015C7.84959 9.75845 8.0009 9.77335 8.14687 9.74432C8.29284 9.71528 8.42692 9.64361 8.53216 9.53837C8.6374 9.43314 8.70907 9.29905 8.7381 9.15308C8.76714 9.00711 8.75223 8.85581 8.69528 8.71831C8.63833 8.58081 8.54188 8.46328 8.41813 8.3806C8.29438 8.29791 8.14889 8.25378 8.00006 8.25378C7.80049 8.25378 7.60908 8.33306 7.46796 8.47418C7.32684 8.6153 7.24756 8.8067 7.24756 9.00628Z" fill="#242E30"/>
</svg>
