<svg width="40" height="40" viewBox="0 0 40 40" fill="none" xmlns="http://www.w3.org/2000/svg">
<rect width="40" height="40" rx="4" fill="#333E47"/>
<rect x="0.5" y="0.5" width="39" height="39" rx="3.5" stroke="white" stroke-opacity="0.01"/>
<path d="M14.2026 12.5039C14.1476 12.5118 14.0887 12.5196 14.0337 12.5275C13.4839 12.5943 12.989 12.7985 12.5412 13.1206C12.4469 13.1874 12.3605 13.2581 12.2623 13.3327C12.2545 13.313 12.2466 13.2934 12.2466 13.2777C12.2309 13.1716 12.2152 13.0617 12.1956 12.9556C12.1681 12.7749 12.0777 12.6964 11.8971 12.6964H11.4454C11.1744 12.6964 11.1233 12.7474 11.1233 13.0185V21.2392C11.1233 21.2785 11.1233 21.3178 11.1272 21.357C11.1351 21.4749 11.2058 21.5495 11.3197 21.5534C11.5946 21.5574 11.8735 21.5574 12.1484 21.5534C12.2623 21.5534 12.333 21.4749 12.3448 21.357C12.3487 21.3178 12.3487 21.2785 12.3487 21.2392V18.3955C12.3919 18.4309 12.4155 18.4505 12.4352 18.4702C13.1382 19.0554 13.9473 19.2478 14.8311 19.075C15.6323 18.9179 16.1901 18.4269 16.5514 17.7042C16.8264 17.1583 16.9403 16.577 16.956 15.9721C16.9756 15.3005 16.9088 14.6406 16.6378 14.0161C16.304 13.2463 15.7502 12.7396 14.9136 12.5668C14.7879 12.5393 14.6582 12.5275 14.5286 12.5079C14.4187 12.5039 14.3126 12.5039 14.2026 12.5039ZM12.3409 14.1496C12.3409 14.0907 12.3566 14.0554 12.4077 14.02C12.9458 13.6469 13.5388 13.4505 14.1987 13.5016C14.7839 13.5448 15.2631 13.8315 15.5145 14.5189C15.6677 14.9391 15.707 15.3751 15.707 15.815C15.707 16.2235 15.6755 16.6241 15.5498 17.0169C15.2828 17.8535 14.67 18.1716 13.8766 18.1363C13.3267 18.1127 12.8476 17.9006 12.4077 17.5903C12.3605 17.555 12.3409 17.5236 12.3409 17.4607C12.3448 16.9069 12.3409 16.357 12.3409 15.8032C12.3409 15.2533 12.3448 14.7035 12.3409 14.1496ZM20.4202 12.5039C20.3809 12.5079 20.3417 12.5157 20.3063 12.5196C19.9214 12.5393 19.5443 12.5864 19.1712 12.6807C18.9316 12.7435 18.6999 12.8299 18.4681 12.9085C18.3267 12.9556 18.256 13.0577 18.26 13.2109C18.2639 13.3405 18.256 13.4701 18.26 13.5998C18.2639 13.7883 18.3425 13.8394 18.5271 13.7922C18.8334 13.7137 19.1398 13.6273 19.4501 13.5683C19.9332 13.478 20.4202 13.4387 20.9112 13.5134C21.1665 13.5526 21.4061 13.6273 21.5711 13.8433C21.7164 14.0318 21.7714 14.2557 21.7792 14.4874C21.791 14.8134 21.7871 15.1394 21.791 15.4654C21.791 15.4811 21.7871 15.5008 21.7831 15.5204C21.7635 15.5165 21.7478 15.5204 21.7321 15.5165C21.3197 15.4183 20.9033 15.3476 20.4752 15.324C20.0314 15.3005 19.5915 15.328 19.1673 15.4772C18.6606 15.654 18.2521 15.9603 18.0125 16.4552C17.8279 16.8401 17.8004 17.2486 17.8593 17.661C17.9379 18.2109 18.2128 18.6351 18.6999 18.9061C19.1673 19.1654 19.674 19.1968 20.1885 19.1182C20.7816 19.0279 21.3079 18.7765 21.7714 18.3955C21.7871 18.3798 21.8067 18.368 21.8342 18.3523C21.8578 18.5016 21.8774 18.643 21.9049 18.7844C21.9285 18.9061 22.0031 18.9847 22.117 18.9886C22.3291 18.9925 22.5451 18.9925 22.7572 18.9886C22.8633 18.9847 22.934 18.914 22.9458 18.804C22.9497 18.7687 22.9497 18.7294 22.9497 18.694V14.5306C22.9497 14.3617 22.9418 14.1929 22.9143 14.024C22.8397 13.5173 22.6237 13.1009 22.1681 12.8299C21.9049 12.6728 21.6143 12.5943 21.3118 12.5511C21.1704 12.5314 21.029 12.5196 20.8876 12.5C20.7344 12.5039 20.5773 12.5039 20.4202 12.5039ZM21.7949 17.5196C21.7949 17.5707 21.7792 17.6061 21.736 17.6375C21.2961 17.9556 20.813 18.1677 20.267 18.2227C20.0432 18.2463 19.8193 18.2384 19.6072 18.152C19.3597 18.0538 19.1987 17.881 19.1201 17.6296C19.0416 17.3782 19.0416 17.119 19.1162 16.8676C19.2144 16.5416 19.4462 16.357 19.7604 16.2549C20.0785 16.1528 20.4084 16.1371 20.7344 16.1685C21.0644 16.196 21.3864 16.2588 21.7164 16.302C21.7792 16.3099 21.7989 16.3413 21.7989 16.4042C21.7949 16.5927 21.7989 16.7773 21.7989 16.9658C21.7949 17.1504 21.791 17.335 21.7949 17.5196ZM26.8146 17.7632C26.3079 16.361 25.8012 14.9548 25.2945 13.5526C25.216 13.3288 25.1296 13.1088 25.0471 12.8888C25.0039 12.7749 24.9214 12.7003 24.7957 12.7003C24.4972 12.6964 24.1987 12.6925 23.8963 12.6964C23.7981 12.6964 23.7509 12.7749 23.7706 12.8731C23.7902 12.9556 23.8138 13.0342 23.8452 13.1127C24.615 15.0177 25.3888 16.9266 26.1665 18.8276C26.2333 18.9886 26.249 19.1261 26.1743 19.291C26.0447 19.5778 25.9426 19.8802 25.8091 20.1669C25.6912 20.4222 25.4949 20.6147 25.2121 20.6893C25.0117 20.7443 24.8114 20.7522 24.6072 20.7325C24.509 20.7247 24.4108 20.7011 24.3126 20.6932C24.1791 20.6854 24.1123 20.7443 24.1084 20.8818C24.1044 21.0114 24.1044 21.141 24.1084 21.2706C24.1123 21.4867 24.1869 21.5848 24.399 21.6202C24.619 21.6595 24.8428 21.6948 25.0628 21.6987C25.7344 21.7145 26.2686 21.4434 26.6143 20.8582C26.7517 20.6265 26.8774 20.383 26.9756 20.1355C27.9065 17.7867 28.8256 15.434 29.7486 13.0813C29.7761 13.0106 29.7996 12.9399 29.8114 12.8653C29.8271 12.7553 29.7761 12.6925 29.6661 12.6925C29.4069 12.6885 29.1437 12.6925 28.8845 12.6925C28.7392 12.6925 28.637 12.7553 28.582 12.8967C28.5624 12.9517 28.5388 13.0027 28.5192 13.0577C28.0636 14.3657 27.608 15.6736 27.1524 16.9855C27.0542 17.2683 26.952 17.555 26.8499 17.8574C26.8342 17.8142 26.8264 17.7907 26.8146 17.7632Z" fill="white"/>
<path d="M7.99686 22.7239C8.08719 22.5589 8.2011 22.5314 8.37785 22.6257C8.78633 22.8457 9.18696 23.0735 9.6033 23.2816C11.2019 24.0829 12.8712 24.6799 14.6072 25.1002C15.4281 25.2966 16.2529 25.4537 17.0896 25.5636C18.3268 25.7286 19.5719 25.7993 20.8209 25.7679C21.5043 25.7522 22.1877 25.6972 22.8672 25.6186C25.0825 25.3555 27.2231 24.8017 29.2812 23.9376C29.3951 23.8904 29.513 23.859 29.6386 23.8904C29.9018 23.9611 29.9921 24.2439 29.7997 24.4364C29.6897 24.5464 29.5522 24.6367 29.4226 24.727C28.2168 25.5558 26.901 26.1567 25.5106 26.6084C24.5444 26.9187 23.5624 27.1504 22.5609 27.2997C21.8696 27.4018 21.1705 27.4725 20.4713 27.4882C20.4399 27.4882 20.4046 27.4961 20.3731 27.5H19.5444C19.513 27.4961 19.4776 27.4882 19.4462 27.4882C19.3048 27.4804 19.1634 27.4764 19.0259 27.4725C18.3621 27.445 17.7023 27.3704 17.0463 27.2643C15.9701 27.0876 14.9175 26.8166 13.8885 26.4435C11.7635 25.6736 9.8586 24.5346 8.16968 23.0263C8.09898 22.9635 8.05184 22.8771 7.99686 22.8024V22.7239ZM32.0031 22.6021C31.9639 22.4057 31.8146 22.3311 31.6457 22.2761C31.3786 22.1858 31.0998 22.1465 30.8209 22.1229C30.3064 22.0797 29.7918 22.1033 29.2812 22.1976C28.7196 22.3036 28.1854 22.4843 27.7101 22.8103C27.6551 22.8496 27.6002 22.8928 27.5648 22.9478C27.5373 22.991 27.5295 23.0577 27.5452 23.1049C27.5609 23.1638 27.6276 23.1795 27.6866 23.1756C27.7141 23.1756 27.7455 23.1756 27.773 23.1717C28.0793 23.1402 28.3818 23.1049 28.6881 23.0735C29.1359 23.0303 29.5876 23.0028 30.0353 23.0381C30.2239 23.0499 30.4163 23.0931 30.6009 23.1442C30.8013 23.1991 30.8916 23.3484 30.8994 23.5526C30.9152 23.8669 30.8445 24.1693 30.762 24.4678C30.6009 25.0727 30.3692 25.6579 30.1414 26.2392C30.1257 26.2785 30.11 26.3178 30.1021 26.357C30.0825 26.4709 30.1493 26.5456 30.2632 26.5181C30.3299 26.5024 30.4046 26.467 30.4517 26.4199C30.6245 26.251 30.8013 26.0821 30.9505 25.8936C31.4533 25.2494 31.7478 24.5071 31.9207 23.7098C31.9521 23.5684 31.9756 23.423 32.0031 23.2816V22.6021Z" fill="#F79C34"/>
</svg>
