<svg width="40" height="40" viewBox="0 0 40 40" fill="none" xmlns="http://www.w3.org/2000/svg">
<rect width="40" height="40" rx="4" fill="black"/>
<rect x="0.5" y="0.5" width="39" height="39" rx="3.5" stroke="white" stroke-opacity="0.01"/>
<path fill-rule="evenodd" clip-rule="evenodd" d="M12.2743 16.1341C11.9889 16.486 11.5323 16.7636 11.0757 16.7239C11.0186 16.2481 11.2421 15.7426 11.5037 15.4303C11.7891 15.0685 12.2885 14.8108 12.6928 14.791C12.7404 15.2866 12.5549 15.7723 12.2743 16.1341ZM12.688 16.8181C12.2858 16.794 11.9187 16.9441 11.6223 17.0655C11.4315 17.1435 11.2699 17.2096 11.147 17.2096C11.009 17.2096 10.8408 17.14 10.6519 17.0618L10.6519 17.0618C10.4044 16.9593 10.1215 16.8422 9.82471 16.8478C9.14455 16.8577 8.51196 17.2592 8.16474 17.8986C7.45129 19.1773 7.97924 21.0706 8.66892 22.1114C9.00662 22.6269 9.41091 23.1919 9.94362 23.1721C10.178 23.1628 10.3466 23.0883 10.521 23.0111C10.7219 22.9223 10.9306 22.8301 11.2564 22.8301C11.5709 22.8301 11.7704 22.9199 11.962 23.0062C12.1441 23.0882 12.319 23.167 12.5786 23.1621C13.1304 23.1522 13.4776 22.6467 13.8153 22.1312C14.1797 21.578 14.3399 21.0381 14.3642 20.9562L14.367 20.9467C14.3665 20.9461 14.362 20.9439 14.354 20.9401C14.2322 20.882 13.301 20.4378 13.2921 19.2467C13.2831 18.2469 14.0307 17.7403 14.1483 17.6606L14.1484 17.6606C14.1555 17.6557 14.1603 17.6524 14.1625 17.6507C13.6869 16.9172 12.9449 16.8379 12.688 16.8181ZM16.5075 23.1076V15.3808H19.2899C20.7263 15.3808 21.7299 16.4117 21.7299 17.9184C21.7299 19.4251 20.7073 20.4659 19.2519 20.4659H17.6585V23.1076H16.5075ZM17.6584 16.3918H18.9854C19.9843 16.3918 20.555 16.9469 20.555 17.9233C20.555 18.8997 19.9843 19.4598 18.9807 19.4598H17.6584V16.3918ZM25.5303 22.1808C25.2259 22.7855 24.5553 23.1671 23.8323 23.1671C22.7621 23.1671 22.0154 22.503 22.0154 21.5018C22.0154 20.5105 22.7383 19.9405 24.0749 19.8563L25.5113 19.7671V19.3408C25.5113 18.7114 25.1165 18.3694 24.4126 18.3694C23.8323 18.3694 23.409 18.6817 23.3234 19.1575H22.2865C22.3198 18.1563 23.2235 17.4277 24.4459 17.4277C25.7634 17.4277 26.6195 18.1464 26.6195 19.2615V23.1076H25.5541V22.1808H25.5303ZM24.1414 22.2502C23.5278 22.2502 23.1378 21.9429 23.1378 21.472C23.1378 20.9863 23.5135 20.7038 24.2318 20.6592L25.5112 20.575V21.0111C25.5112 21.7347 24.9214 22.2502 24.1414 22.2502ZM30.1535 23.41C29.6921 24.763 29.1642 25.2091 28.0416 25.2091C27.956 25.2091 27.6707 25.1992 27.6041 25.1794V24.2525C27.6754 24.2624 27.8514 24.2724 27.9418 24.2724C28.4507 24.2724 28.7361 24.0493 28.9121 23.4694L29.0167 23.1275L27.0666 17.5021H28.27L29.6255 22.0668H29.6493L31.0049 17.5021H32.1749L30.1535 23.41Z" fill="white"/>
</svg>
