<svg width="40" height="40" viewBox="0 0 40 40" fill="none" xmlns="http://www.w3.org/2000/svg">
<rect width="40" height="40" rx="4" fill="white"/>
<rect width="40" height="40" rx="4" fill="#273879"/>
<rect x="0.5" y="0.5" width="39" height="39" rx="3.5" stroke="white" stroke-opacity="0.01"/>
<path d="M21.8757 14.1828C21.8758 13.9239 21.8239 13.6675 21.7231 13.429C21.6223 13.1905 21.4747 12.9747 21.2889 12.7943C21.1031 12.614 20.883 12.4727 20.6416 12.379C20.4002 12.2853 20.1424 12.2411 19.8836 12.2489C19.3669 12.2489 18.8713 12.4541 18.5058 12.8195C18.1404 13.185 17.9352 13.6806 17.9352 14.1973C17.9352 14.7141 18.1404 15.2097 18.5058 15.5751C18.8713 15.9405 19.3669 16.1458 19.8836 16.1458C20.1449 16.1537 20.4051 16.1085 20.6484 16.0131C20.8918 15.9176 21.1132 15.7737 21.2994 15.5903C21.4856 15.4068 21.6327 15.1875 21.7317 14.9455C21.8308 14.7036 21.8798 14.4442 21.8757 14.1828Z" fill="white"/>
<path d="M21.8757 25.8154C21.8798 25.554 21.8308 25.2946 21.7317 25.0526C21.6327 24.8107 21.4856 24.5914 21.2994 24.4079C21.1132 24.2245 20.8918 24.0806 20.6484 23.9851C20.4051 23.8896 20.1449 23.8445 19.8836 23.8524C19.3669 23.8524 18.8713 24.0577 18.5058 24.4231C18.1404 24.7885 17.9352 25.2841 17.9352 25.8009C17.9352 26.3176 18.1404 26.8132 18.5058 27.1786C18.8713 27.5441 19.3669 27.7493 19.8836 27.7493C20.1424 27.7571 20.4002 27.7128 20.6416 27.6192C20.883 27.5255 21.1031 27.3842 21.2889 27.2039C21.4747 27.0235 21.6223 26.8077 21.7231 26.5692C21.8239 26.3307 21.8758 26.0743 21.8757 25.8154Z" fill="white"/>
<path d="M12.4969 19.9991C12.4988 19.7427 12.4498 19.4884 12.3525 19.2512C12.2553 19.0139 12.1118 18.7983 11.9305 18.617C11.7492 18.4357 11.5336 18.2923 11.2964 18.195C11.0591 18.0978 10.8049 18.0487 10.5484 18.0506C10.0317 18.0506 9.53607 18.2559 9.17067 18.6213C8.80526 18.9867 8.59998 19.4823 8.59998 19.9991C8.59998 20.5159 8.80526 21.0115 9.17067 21.3769C9.53607 21.7423 10.0317 21.9476 10.5484 21.9476C10.8049 21.9495 11.0591 21.9004 11.2964 21.8032C11.5336 21.706 11.7492 21.5625 11.9305 21.3812C12.1118 21.1999 12.2553 20.9843 12.3525 20.747C12.4498 20.5098 12.4988 20.2555 12.4969 19.9991Z" fill="white"/>
<path d="M31.3999 19.9991C31.3999 19.6137 31.2856 19.237 31.0715 18.9166C30.8574 18.5962 30.5531 18.3464 30.1971 18.199C29.8411 18.0515 29.4493 18.0129 29.0713 18.0881C28.6934 18.1633 28.3462 18.3488 28.0737 18.6213C27.8012 18.8938 27.6156 19.241 27.5404 19.619C27.4652 19.9969 27.5038 20.3887 27.6513 20.7448C27.7988 21.1008 28.0485 21.4051 28.3689 21.6192C28.6894 21.8333 29.0661 21.9476 29.4515 21.9476C29.7079 21.9495 29.9621 21.9004 30.1994 21.8032C30.4367 21.7059 30.6522 21.5625 30.8335 21.3812C31.0149 21.1999 31.1583 20.9843 31.2555 20.747C31.3528 20.5098 31.4019 20.2555 31.3999 19.9991Z" fill="white"/>
<path d="M28.739 16.5529V12.9032L20.0145 18.196L11.29 12.8741V16.5238L16.9755 19.9991L11.1592 23.4743V27.1241L19.8836 21.8022L28.6953 27.1241V23.4889L22.879 20.0136L28.739 16.5529Z" fill="white"/>
</svg>
