<svg width="40" height="40" viewBox="0 0 40 40" fill="none" xmlns="http://www.w3.org/2000/svg">
<rect x="0.5" y="0.5" width="39" height="39" rx="3.5" fill="white"/>
<rect x="0.5" y="0.5" width="39" height="39" rx="3.5" stroke="#DBD9D7"/>
<path d="M12.9975 18.1404C13.4226 18.0736 13.7112 17.6855 13.6422 17.2737C13.5733 16.8618 13.1728 16.5822 12.7477 16.649C12.3227 16.7158 12.034 17.1039 12.103 17.5157C12.172 17.9276 12.5725 18.2072 12.9975 18.1404Z" fill="black"/>
<path d="M32.9456 18.5968C33.3706 18.5299 33.6593 18.1419 33.5903 17.73C33.5213 17.3182 33.1208 17.0385 32.6958 17.1054C32.2707 17.1722 31.9821 17.5602 32.0511 17.9721C32.12 18.3839 32.5205 18.6636 32.9456 18.5968Z" fill="black"/>
<path d="M11.1458 20.193C11.0532 20.0465 10.9324 19.9124 10.787 19.7954C10.6428 19.6796 10.4623 19.5898 10.2489 19.5296L10.2149 19.5194V19.4376L10.2395 19.424C10.5221 19.2706 10.7378 19.0513 10.8832 18.7707C11.0286 18.489 11.1024 18.1925 11.1024 17.8903C11.1024 17.5813 11.0391 17.3064 10.9148 17.0724C10.7906 16.8384 10.6159 16.6396 10.3943 16.4828C10.1715 16.3249 9.90185 16.2034 9.59233 16.1227C9.28046 16.0409 8.93108 16 8.55238 16C8.55238 16 6.93326 16 6 16V23.3182C6.93326 23.3194 8.55238 23.3103 8.55238 23.3103C8.92522 23.3103 9.28984 23.2705 9.63688 23.1921C9.98158 23.1149 10.2899 22.9899 10.5514 22.8206C10.8105 22.6536 11.0215 22.4299 11.1775 22.1583C11.3334 21.8868 11.4119 21.5483 11.4119 21.1507C11.4119 20.9894 11.3908 20.8247 11.3486 20.6599C11.3076 20.4975 11.2384 20.3396 11.1458 20.193ZM7.56402 17.4621H8.54183C8.80446 17.4621 8.99791 17.5302 9.11749 17.6643C9.23474 17.7972 9.29453 17.9562 9.29453 18.1391C9.29453 18.3277 9.23708 18.4981 9.12453 18.6435C9.00846 18.7935 8.82321 18.8696 8.57349 18.8696H7.56402V17.4621ZM9.38012 21.6017C9.23591 21.7676 9.01901 21.8516 8.73411 21.8516H7.56402V20.2271H8.74466C9.02839 20.2271 9.24412 20.3078 9.38481 20.4657C9.52316 20.6225 9.5935 20.8122 9.5935 21.0291C9.5935 21.245 9.52198 21.4381 9.38012 21.6017Z" fill="black"/>
<path d="M13.826 21.963C13.731 21.963 13.6536 21.888 13.6536 21.796V18.6537H12.0908C12.0908 18.7071 12.0908 21.638 12.0908 21.638C12.0908 22.0163 12.14 22.3185 12.2397 22.5423C12.3393 22.7661 12.4683 22.9388 12.6278 23.0581C12.7872 23.1774 12.9678 23.2546 13.1682 23.2898C13.3582 23.3228 13.8787 23.3216 14.1625 23.3216V21.9652C14.1601 21.9652 14.1578 21.9652 14.1554 21.9652H13.826V21.963Z" fill="black"/>
<path d="M27.9338 20.1851C27.8201 19.8829 27.6642 19.6262 27.4672 19.4137C27.2702 19.2013 27.0381 19.0388 26.7731 18.9252C26.5082 18.8116 26.2209 18.7548 25.9126 18.7548C25.6535 18.7548 25.4389 18.7878 25.2689 18.8537C25.0989 18.9196 24.9617 18.9945 24.8574 19.0775C24.7354 19.1718 24.6346 19.2785 24.5549 19.3967H24.4423C24.3521 19.1627 24.202 18.9684 24.039 18.8469C23.8761 18.7242 23.6908 18.6446 23.4833 18.6094C23.2887 18.5754 22.9428 18.5719 22.7341 18.5754V19.9749C22.8584 19.9783 23.0061 19.9851 23.0718 20.0101V25.2949H24.6733V23.0058C24.7601 23.1137 24.8679 23.2092 24.9969 23.2932C25.1012 23.3648 25.2373 23.4318 25.4037 23.4954C25.5702 23.5579 25.7648 23.5897 25.9864 23.5897C26.3006 23.5897 26.5879 23.5318 26.847 23.4148C27.1061 23.2978 27.3277 23.1342 27.5129 22.9217C27.6982 22.7093 27.8436 22.4571 27.9479 22.164C28.0523 21.8709 28.105 21.5483 28.105 21.1961C28.105 20.8235 28.0476 20.4873 27.9338 20.1851ZM26.2397 21.9777C26.0697 22.1845 25.8469 22.2879 25.569 22.2879C25.4459 22.2879 25.3264 22.2651 25.2126 22.2208C25.0989 22.1754 24.9981 22.1084 24.9113 22.0186C24.8246 21.9289 24.7554 21.8141 24.7026 21.6767C24.6499 21.5381 24.6241 21.3768 24.6241 21.1905C24.6241 21.0348 24.644 20.8871 24.6839 20.7497C24.7237 20.6111 24.7823 20.4895 24.8597 20.385C24.9371 20.2794 25.0321 20.1964 25.147 20.1328C25.2607 20.0692 25.392 20.0385 25.5397 20.0385C25.8047 20.0385 26.0298 20.134 26.2151 20.326C26.4003 20.5179 26.4929 20.794 26.4929 21.1541C26.4953 21.496 26.4097 21.771 26.2397 21.9777Z" fill="black"/>
<path d="M22.1467 19.5307C22.0658 19.3092 21.9568 19.1297 21.8184 18.9923C21.6801 18.8548 21.516 18.756 21.3284 18.6969C21.1396 18.6367 20.9379 18.6072 20.7222 18.6072C20.5428 18.6072 20.3752 18.6299 20.2181 18.6742C20.061 18.7185 19.9168 18.7787 19.7878 18.8537C19.6577 18.9287 19.5428 19.0127 19.4408 19.1047C19.354 19.1831 19.2825 19.2638 19.225 19.3444H19.1547C19.0327 19.1036 18.8627 18.9207 18.6447 18.7991C18.4137 18.6708 18.1464 18.606 17.8439 18.606C17.6587 18.606 17.491 18.6333 17.3398 18.6867C17.1885 18.7401 17.0549 18.806 16.9376 18.8843C16.8204 18.9616 16.7195 19.0491 16.6363 19.1445C16.5742 19.2161 16.5132 19.2831 16.4628 19.3444H16.4159C16.4159 19.1843 16.4159 18.7514 16.4159 18.6526H14.8917C14.8905 18.6662 14.8917 23.3182 14.8917 23.3182H16.4933V21.3768C16.4933 21.2155 16.5073 21.0541 16.5343 20.8928C16.5624 20.7315 16.6093 20.5861 16.6773 20.4577C16.7453 20.3294 16.838 20.2237 16.9552 20.1396C17.0724 20.0556 17.2237 20.0022 17.4089 20.0147C17.5637 20.0249 17.7794 20.1715 17.7794 20.5975V23.3194H19.381V21.3779C19.381 21.2041 19.3962 21.036 19.4279 20.8712C19.4583 20.7065 19.5099 20.5622 19.5803 20.4361C19.6506 20.3112 19.7456 20.2089 19.8628 20.1317C19.9801 20.0544 20.1255 20.0147 20.2978 20.0147C20.5675 20.0147 20.6683 20.3362 20.6683 20.5975V23.3194H22.2698V20.3384C22.2675 20.0215 22.2276 19.7523 22.1467 19.5307Z" fill="black"/>
<path d="M31.1592 27.3704C29.5928 27.3704 28.3184 26.1355 28.3184 24.6178H29.8789C29.8789 25.3017 30.4534 25.8583 31.1592 25.8583C31.865 25.8583 32.4395 25.3017 32.4395 24.6178H34C33.9988 26.1355 32.7256 27.3704 31.1592 27.3704Z" fill="black"/>
<path d="M32.0397 21.4052C32.0397 21.8743 31.6458 22.256 31.1615 22.256C30.6773 22.256 30.2857 21.8743 30.2857 21.4052V17.6836C30.2857 17.3053 30.2365 17.0031 30.1368 16.7793C30.0372 16.5555 29.9082 16.3828 29.7488 16.2636C29.5893 16.1443 29.4088 16.067 29.2083 16.0318C29.0183 15.9989 28.0018 16 27.7181 16V17.3564C27.7205 17.3564 28.2187 17.3564 28.2211 17.3564H28.5517C28.6467 17.3564 28.7241 17.4314 28.7241 17.5234V21.4029C28.7241 22.7059 29.8179 23.7658 31.1627 23.7658C32.5075 23.7658 33.6014 22.7059 33.6014 21.4029V20.6031H32.0397V21.4052Z" fill="black"/>
</svg>
