<svg width="40" height="40" viewBox="0 0 40 40" fill="none" xmlns="http://www.w3.org/2000/svg">
<rect x="0.5" y="0.5" width="39" height="39" rx="3.5" fill="white"/>
<rect x="0.5" y="0.5" width="39" height="39" rx="3.5" stroke="#DBD9D7"/>
<path fill-rule="evenodd" clip-rule="evenodd" d="M28.6513 15.1164C31.3486 19.8946 29.6618 25.9546 24.8839 28.6517C20.1059 31.3489 14.046 29.6619 11.3487 24.8836C8.65144 20.1054 10.3382 14.0455 15.1161 11.3483C19.8941 8.65117 25.954 10.3382 28.6513 15.1164ZM20.2639 15.6123C21.7006 15.3463 22.9303 15.4682 23.4077 16.7173C23.7583 17.6315 23.5193 18.3042 22.9765 18.7989C24.0822 18.7597 24.8489 19.4369 25.1526 20.6078C25.4653 22.3629 24.3125 23.1763 22.5137 23.788L23.0078 25.5855L21.921 25.8866L21.4334 24.1132C21.1518 24.1916 20.8623 24.2687 20.5628 24.3457L21.053 26.1276L19.9673 26.428L19.4708 24.6276L17.2787 25.2287L17.1385 23.8741C17.1385 23.8741 17.946 23.663 17.9286 23.655C18.236 23.5692 18.2571 23.3262 18.2387 23.1832L16.8959 18.3053C16.794 18.0968 16.5804 17.8821 16.1399 18.0038C16.1488 17.9853 15.3507 18.2232 15.3507 18.2232L15.0318 17.0658L17.222 16.455L16.7324 14.6742L17.8187 14.3734L18.299 16.1188C18.588 16.0319 18.8787 15.9456 19.1642 15.8665L18.6866 14.1324L19.7734 13.8313L20.2639 15.6123ZM19.4525 19.5021C20.1989 19.3077 21.823 18.8848 21.5149 17.7637C21.1989 16.6171 19.6551 17.0884 18.8992 17.3192L18.8992 17.3192C18.8135 17.3454 18.738 17.3684 18.6755 17.3857L19.2714 19.5501C19.323 19.5358 19.384 19.5199 19.4525 19.5021ZM20.4406 22.9708C21.3338 22.7367 23.2873 22.2246 22.9471 20.9897C22.5994 19.7269 20.7425 20.2891 19.8365 20.5635L19.8364 20.5635C19.7352 20.5941 19.6458 20.6212 19.5718 20.6417L20.2282 23.0274C20.2887 23.0106 20.3602 22.9918 20.4402 22.9709L20.4406 22.9708Z" fill="#8FC258"/>
</svg>
