<svg width="40" height="40" viewBox="0 0 40 40" fill="none" xmlns="http://www.w3.org/2000/svg">
<rect width="40" height="40" rx="4" fill="#F7931A"/>
<rect x="0.5" y="0.5" width="39" height="39" rx="3.5" stroke="white" stroke-opacity="0.01"/>
<path fill-rule="evenodd" clip-rule="evenodd" d="M29.935 20C29.935 25.487 25.4869 29.935 20 29.935C14.5131 29.935 10.065 25.487 10.065 20C10.065 14.5131 14.5131 10.065 20 10.065C25.4869 10.065 29.935 14.5131 29.935 20ZM22.3869 16.3088C23.7688 16.7834 24.7798 17.494 24.5815 18.8165C24.4374 19.7849 23.8986 20.2532 23.1826 20.4172C24.1649 20.9266 24.4996 21.8933 24.1886 23.0622C23.598 24.7443 22.1941 24.8859 20.327 24.5343L19.8736 26.3426L18.7791 26.0705L19.2262 24.2865C18.9425 24.2163 18.6525 24.1411 18.3537 24.061L17.9047 25.8537L16.8115 25.5816L17.2642 23.7697L15.0597 23.2156L15.6035 21.967C15.6035 21.967 16.4105 22.1801 16.3992 22.1646C16.7092 22.241 16.847 22.0397 16.9013 21.9062L18.1299 16.9983C18.1436 16.7666 18.0631 16.4746 17.6197 16.3641C17.6366 16.3523 16.8246 16.1672 16.8246 16.1672L17.1158 15.0025L19.3235 15.5472L19.7725 13.7558L20.8664 14.0279L20.4267 15.7839C20.7211 15.8504 21.0167 15.9181 21.3042 15.9895L21.7408 14.2446L22.8353 14.5167L22.3869 16.3088ZM19.768 19.2972C20.5136 19.4948 22.1359 19.9249 22.4187 18.7972C22.7072 17.6434 21.131 17.2949 20.3593 17.1243L20.3592 17.1243C20.2718 17.1049 20.1947 17.0879 20.1318 17.0722L19.5867 19.25C19.6386 19.2628 19.6995 19.279 19.7678 19.2971L19.768 19.2972ZM18.9233 22.8036C19.8162 23.0388 21.7693 23.5532 22.08 22.3106C22.3981 21.04 20.5045 20.6168 19.5806 20.4103C19.4774 20.3872 19.3863 20.3668 19.3117 20.3483L18.7105 22.7485C18.7716 22.7636 18.8432 22.7825 18.9233 22.8036Z" fill="white"/>
</svg>
