<svg width="40" height="40" viewBox="0 0 40 40" fill="none" xmlns="http://www.w3.org/2000/svg">
<rect width="40" height="40" rx="4" fill="#002855"/>
<rect x="0.5" y="0.5" width="39" height="39" rx="3.5" stroke="white" stroke-opacity="0.01"/>
<path fill-rule="evenodd" clip-rule="evenodd" d="M9.69289 21.374C9.50694 21.4802 9.30895 21.5332 9.09908 21.5332H8.93712C8.89505 21.5332 8.83497 21.5296 8.66145 21.498L9.24813 18.9284C9.35605 18.8285 9.47248 18.7637 9.60746 18.7324C9.74243 18.7012 9.82936 18.6927 9.91343 18.6927C10.1712 18.6927 10.3707 18.7698 10.4667 18.9385C10.5626 19.107 10.6107 19.3412 10.6107 19.641C10.6107 19.8846 10.5716 20.1188 10.4937 20.3436C10.4157 20.5684 10.3093 20.7697 10.1744 20.9478C10.0394 21.1257 9.87877 21.2679 9.69289 21.374ZM11.0156 17.6832C10.8055 17.5771 10.5567 17.524 10.2688 17.524C10.1307 17.524 10.0018 17.5396 9.8819 17.5708C9.76181 17.6022 9.64871 17.6426 9.52882 17.6987L10.0799 15.2852L8.68517 15.51L7.12857 22.3201C7.30249 22.4076 7.48688 22.4762 7.68194 22.5261C7.8768 22.5761 8.06125 22.6135 8.23524 22.6385C8.40917 22.6634 8.56372 22.6775 8.6987 22.6807C8.83368 22.6838 8.92815 22.6854 8.98211 22.6854C9.40193 22.6854 9.79191 22.6025 10.1518 22.4371C10.5117 22.2717 10.8236 22.0469 11.0876 21.7627C11.3515 21.4786 11.56 21.1444 11.7129 20.7604C11.8659 20.3763 11.9424 19.9688 11.9424 19.5379C11.9424 19.2569 11.9093 18.9946 11.8434 18.7511C11.7773 18.5075 11.6754 18.2953 11.5375 18.1141C11.3994 17.933 11.2255 17.7894 11.0156 17.6832ZM14.7044 16.9228L14.9093 16.0254H13.5733L13.3683 16.9228H14.7044ZM16.6377 21.496C16.4655 21.496 16.3302 21.4705 16.232 21.4192C16.1335 21.368 16.0644 21.296 16.0245 21.2032C15.9844 21.1105 15.9692 21 15.9784 20.872C15.9876 20.744 16.0106 20.6065 16.0476 20.4592L16.4533 18.6927H17.9748L18.2514 17.5215H16.7207L17.0711 16.0334L15.6418 16.2639L14.7381 20.2383C14.6643 20.5647 14.6212 20.8753 14.609 21.1696C14.5966 21.4641 14.6397 21.7249 14.7381 21.952C14.8363 22.1793 15.0023 22.3585 15.236 22.4896C15.4696 22.6207 15.7985 22.6864 16.2228 22.6864C16.5178 22.6864 16.7729 22.6608 16.9881 22.6096C17.0103 22.6043 17.0441 22.5958 17.066 22.5903L17.3443 21.3786C17.2508 21.4118 17.1569 21.434 17.0665 21.4528C16.9282 21.4816 16.7852 21.496 16.6377 21.496ZM32.8714 17.5231H31.5354L30.7583 20.9268H30.7597L30.6529 21.395C30.5784 21.4168 30.5041 21.4364 30.4305 21.4517C30.2922 21.4805 30.1492 21.495 30.0017 21.495C29.8295 21.495 29.6942 21.4694 29.5959 21.4181C29.4975 21.367 29.4284 21.295 29.3884 21.2021C29.3484 21.1094 29.3331 20.999 29.3423 20.8709C29.3516 20.743 29.3746 20.6054 29.4115 20.4581L29.8172 18.6917L30.0847 17.5204L30.0847 17.5201H28.7199L28.1021 20.2373C28.0283 20.5637 27.9852 20.8742 27.973 21.1686C27.9606 21.463 28.0036 21.7239 28.1021 21.9509C28.2003 22.1782 28.3663 22.3575 28.6 22.4886C28.8336 22.6196 29.1625 22.6854 29.5867 22.6854C29.8818 22.6854 30.1369 22.6598 30.3521 22.6085C30.3608 22.6065 30.3692 22.6043 30.3777 22.6021L30.377 22.6046C30.3172 22.885 30.1961 23.1123 30.0017 23.2898C29.8072 23.4674 29.5184 23.5562 29.1356 23.5562C28.9721 23.5562 28.8236 23.5461 28.6891 23.5267L28.4261 24.6784C28.604 24.7024 28.8011 24.7148 29.0189 24.7148C29.4257 24.7148 29.7819 24.6664 30.087 24.5699C30.3922 24.4733 30.6539 24.327 30.8723 24.1307C31.0907 23.9345 31.2732 23.6883 31.4198 23.3927C31.5664 23.0967 31.6846 22.7464 31.7743 22.3414L32.6988 18.2955L32.6955 18.294L32.8714 17.5231ZM26.3184 18.6927C25.6954 18.6927 25.5765 18.6927 25.3212 18.8306C25.14 18.9283 24.99 19.0754 24.8583 19.2469C24.7265 19.4185 24.6232 19.6165 24.5483 19.841C24.4733 20.0656 24.4359 20.2995 24.4359 20.5427C24.4359 20.8421 24.4838 21.0793 24.5798 21.2538C24.6755 21.4285 24.8523 21.5158 25.11 21.5158C25.2477 21.5158 25.3721 21.4878 25.483 21.4316C25.5938 21.3755 25.7122 21.2819 25.838 21.1509C25.8499 20.9951 25.8694 20.8313 25.8964 20.6597C25.921 20.5031 25.9516 20.3569 25.9797 20.2233L25.9797 20.2232L25.9797 20.2232L25.9797 20.2231L25.9797 20.223L25.9797 20.223L25.9875 20.1856L26.3184 18.6927ZM27.267 20.4304C27.183 20.7861 27.1591 21.1431 27.195 21.5018C27.231 21.8606 27.3628 22.4102 27.4913 22.6854H26.1984C26.0808 22.4781 26.0547 22.3529 26.0367 22.2664L26.0367 22.2664C26.0306 22.2368 26.0253 22.2117 26.0177 22.1894C25.8499 22.333 25.6642 22.4515 25.4605 22.545C25.2568 22.6385 25.0291 22.6854 24.7774 22.6854C24.4778 22.6854 24.2217 22.6307 24.0091 22.5216C23.7963 22.4125 23.6226 22.2659 23.4878 22.0819C23.353 21.898 23.2555 21.6828 23.1957 21.4363C23.1357 21.1899 23.1058 20.9264 23.1058 20.6457C23.1058 20.2153 23.1791 19.8098 23.326 19.4294C23.4728 19.0489 23.6765 18.7167 23.9372 18.4328C24.1978 18.149 24.8268 17.5232 25.859 17.5232L27.9317 17.5231L27.267 20.4304ZM19.83 21.5359C19.6791 21.5359 19.5525 21.5234 19.4499 21.4982L20.0969 18.6927C20.0969 18.6927 20.426 18.6927 20.6242 18.6935C20.9077 18.6947 21.1087 18.7948 21.2233 18.9833C21.3379 19.1716 21.3952 19.4009 21.3952 19.6709C21.3952 19.9473 21.3574 20.1999 21.2821 20.4291C21.2066 20.6584 21.1012 20.8546 20.9655 21.0178C20.8298 21.1812 20.6653 21.3083 20.4724 21.3993C20.2792 21.4904 20.0652 21.5359 19.83 21.5359ZM22.5171 20.8247C22.6619 20.4449 22.7343 20.0257 22.7343 19.5672C22.7343 19.2847 22.6965 19.0195 22.6212 18.7713C22.5457 18.5233 22.4296 18.3067 22.2729 18.1214C22.1159 17.9362 21.9155 17.7902 21.6712 17.6834C21.4269 17.5767 21.1358 17.5233 20.7981 17.5233L20.3331 17.5232L19.0138 17.5233L17.4594 24.3334H18.7985L19.2057 22.6285C19.4106 22.6662 19.6158 22.685 19.8209 22.685C20.2431 22.685 20.6337 22.6081 20.9926 22.4543C21.3514 22.3005 21.659 22.0854 21.9155 21.809C22.1718 21.5328 22.3724 21.2047 22.5171 20.8247ZM12.0505 22.6864L13.23 17.5201H14.566L13.3866 22.6864H12.0505Z" fill="white"/>
</svg>
