<svg width="40" height="40" viewBox="0 0 40 40" fill="none" xmlns="http://www.w3.org/2000/svg">
<rect width="40" height="40" rx="4" fill="black"/>
<rect x="0.5" y="0.5" width="39" height="39" rx="3.5" stroke="white" stroke-opacity="0.01"/>
<path d="M5.04017 20.6326H5.7923C6.37373 20.6326 6.66178 20.4406 6.66178 20.0778C6.66178 19.7205 6.35239 19.5231 5.74962 19.5231H5.04551V20.6326H5.04017ZM5.04017 17.9495V18.979H5.70162C6.1977 18.979 6.44841 18.7923 6.44841 18.4616C6.44841 18.1202 6.1817 17.9442 5.69095 17.9442C5.68561 17.9442 5.04017 17.9495 5.04017 17.9495ZM4 21.1927V20.6379H4.43741V17.9602H4V17.4054H5.76563C6.57643 17.4054 7.06718 17.7735 7.06718 18.4242C7.06718 18.851 6.8218 19.107 6.50175 19.235C6.94982 19.3577 7.28055 19.6778 7.28055 20.1152C7.28055 20.8086 6.74179 21.1927 5.86164 21.1927C5.85631 21.1927 4 21.1927 4 21.1927ZM10.4651 19.2137C10.3957 18.9897 10.2357 18.8616 10.0223 18.8616C9.51559 18.8616 9.03551 19.2297 9.03551 19.9178V20.6379H10.0117V21.1927H7.84064V20.6379H8.45941V18.9683H7.974V18.4136H9.03551V18.883C9.21687 18.5576 9.57426 18.3229 10.0543 18.3229C10.5931 18.3229 10.9292 18.6323 11.0305 19.0697L10.4651 19.2137ZM13.4256 20.0618C13.2389 19.9925 12.9615 19.9445 12.7108 19.9445C12.3427 19.9445 11.9907 20.0618 11.9907 20.3926C11.9907 20.6379 12.2147 20.7553 12.5188 20.7553C12.9455 20.7553 13.4256 20.5259 13.4256 20.1312V20.0618ZM13.4256 19.5658V19.4111C13.4256 19.0163 13.1109 18.8563 12.7641 18.8563C12.4441 18.8563 12.1667 18.9843 11.9427 19.187L11.5586 18.771C11.8253 18.5309 12.1934 18.3069 12.7641 18.3069C13.4682 18.3069 14.0123 18.6749 14.0123 19.3844V20.6273H14.4177V21.182H13.4202V20.894C13.2709 21.134 12.8601 21.2834 12.4601 21.2834C11.8786 21.2834 11.3826 20.9847 11.3826 20.4086C11.3772 19.7205 12.0547 19.4537 12.6734 19.4537C12.9882 19.4537 13.2335 19.5124 13.4256 19.5658ZM16.21 17H16.8555V17.8535H16.21V17ZM17.9383 20.6326V21.1874H15.1112V20.6326H16.2847V18.963H15.3886V18.4082H16.8608V20.6379H17.9383V20.6326ZM18.6318 20.6326H19.0585V18.963H18.6584V18.4082H19.6346V18.7656C19.8053 18.4936 20.1574 18.3176 20.5948 18.3176C21.2189 18.3176 21.6669 18.7123 21.6669 19.3417V20.6379H22.0937V21.1927H20.6428V20.6379H21.0855V19.5018C21.0855 19.0217 20.7868 18.8776 20.5201 18.8776C20.0827 18.8776 19.6399 19.203 19.6399 19.7098V20.6379H20.0827V21.1927H18.6318V20.6326ZM22.8831 18.9577H22.1577V18.4029H22.8831V17.3947H23.4646V18.4029H24.8301V18.9577H23.4646V20.1312C23.4646 20.5633 23.7686 20.7446 24.11 20.7446C24.4354 20.7446 24.7128 20.5579 24.9208 20.3552L25.3102 20.7553C25.0488 21.0327 24.6648 21.2834 24.1154 21.2834C23.4112 21.2834 22.8885 20.894 22.8885 20.1525V18.9577M28.4681 19.2137C28.3987 18.9897 28.2387 18.8616 28.0253 18.8616C27.5186 18.8616 27.0385 19.2297 27.0385 19.9178V20.6379H28.0093V21.1927H25.8383V20.6379H26.4571V18.9683H25.977V18.4136H27.0385V18.883C27.2199 18.5576 27.5773 18.3229 28.0573 18.3229C28.5961 18.3229 28.9322 18.6323 29.0335 19.0697L28.4681 19.2137ZM30.0257 19.5071H31.7486C31.6633 19.107 31.3112 18.8403 30.9165 18.8403C30.4631 18.8403 30.1217 19.1177 30.0257 19.5071ZM32.3567 20.766C32.0687 21.07 31.5566 21.2834 30.9805 21.2834C30.0417 21.2834 29.3802 20.6539 29.3802 19.8005C29.3802 18.9417 30.015 18.3176 30.9058 18.3176C31.786 18.3176 32.4047 18.9897 32.4047 19.9018V20.0032H29.9937C30.095 20.4672 30.4791 20.75 30.9858 20.75C31.4072 20.75 31.77 20.5793 31.9673 20.3659C31.9673 20.3712 32.3567 20.766 32.3567 20.766ZM33.6209 19.5071H35.3439C35.2585 19.107 34.9065 18.8403 34.5118 18.8403C34.0583 18.8403 33.7223 19.1177 33.6209 19.5071ZM35.952 20.766C35.6639 21.07 35.1519 21.2834 34.5758 21.2834C33.6369 21.2834 32.9755 20.6539 32.9755 19.8005C32.9755 18.9417 33.6103 18.3176 34.5011 18.3176C35.3812 18.3176 36 18.9897 36 19.9018V20.0032H33.5889C33.6903 20.4672 34.0743 20.75 34.5811 20.75C35.0025 20.75 35.3652 20.5793 35.5626 20.3659L35.952 20.766Z" fill="white"/>
<path d="M19.6986 23.6624L19.5493 23.9452H19.3626L20.0293 22.6969H20.1947L20.4667 23.9452H20.2854L20.2214 23.6624H19.6986ZM20.0827 22.9317L19.7733 23.5184H20.2L20.0827 22.9317ZM31.0872 23.8438C31.1565 23.8438 31.2045 23.8331 31.2472 23.8065C31.2899 23.7798 31.3219 23.7531 31.3379 23.7158C31.3539 23.6784 31.3699 23.6358 31.3699 23.5984C31.3699 23.5611 31.3592 23.5291 31.3379 23.5078C31.3219 23.4811 31.2845 23.4597 31.2312 23.4331L31.0765 23.3637C30.9912 23.3264 30.9218 23.2837 30.8845 23.2357C30.8471 23.1877 30.8311 23.129 30.8311 23.065C30.8311 22.9903 30.8471 22.9317 30.8845 22.873C30.9218 22.8196 30.9698 22.7716 31.0392 22.745C31.1085 22.713 31.1832 22.7023 31.2685 22.7023C31.3432 22.7023 31.4019 22.713 31.4606 22.7343C31.5139 22.7503 31.5619 22.7823 31.6046 22.8196L31.5779 22.985C31.4872 22.8997 31.3806 22.857 31.2579 22.857C31.1832 22.857 31.1245 22.873 31.0712 22.9103C31.0178 22.9477 30.9965 22.9957 30.9965 23.0543C30.9965 23.0863 31.0072 23.1184 31.0338 23.1344C31.0605 23.161 31.1032 23.1824 31.1619 23.2144L31.3166 23.2837C31.3966 23.3264 31.4606 23.3691 31.4872 23.4117C31.5246 23.4597 31.5353 23.5184 31.5353 23.5824C31.5353 23.6571 31.5193 23.7318 31.4872 23.7905C31.4552 23.8491 31.4019 23.9078 31.3326 23.9452C31.2579 23.9878 31.1672 24.0092 31.0552 24.0092C30.9005 24.0092 30.7778 23.9718 30.6924 23.8918L30.7245 23.7105C30.8365 23.7958 30.9538 23.8438 31.0872 23.8438ZM32.4314 23.145C32.4954 23.2144 32.5168 23.2944 32.5168 23.3957C32.5168 23.4331 32.5168 23.4597 32.5114 23.4811C32.5061 23.5078 32.5007 23.5291 32.4954 23.5611H31.818C31.8126 23.6518 31.834 23.7211 31.8873 23.7691C31.9353 23.8171 32.0047 23.8438 32.09 23.8438C32.154 23.8438 32.2074 23.8385 32.2554 23.8171C32.3034 23.8065 32.3567 23.7798 32.4047 23.7478L32.3781 23.8811C32.2874 23.9452 32.1754 23.9718 32.0527 23.9718C31.9727 23.9718 31.898 23.9558 31.8393 23.9185C31.7753 23.8811 31.7326 23.8331 31.706 23.7691C31.6793 23.7051 31.6579 23.6358 31.6579 23.5611C31.6579 23.4864 31.6739 23.4064 31.7113 23.3211C31.7486 23.241 31.8126 23.1664 31.882 23.113C31.962 23.0597 32.0527 23.0277 32.17 23.0277C32.282 23.049 32.3674 23.0757 32.4314 23.145ZM31.9567 23.257C31.9033 23.3051 31.8553 23.3691 31.8393 23.4384H32.3621V23.4011C32.3621 23.3317 32.3461 23.2837 32.3087 23.241C32.2714 23.2037 32.2234 23.1877 32.154 23.1877C32.0793 23.1824 32.01 23.209 31.9567 23.257ZM33.0715 23.2144C33.0022 23.2144 32.9435 23.241 32.8901 23.289C32.8421 23.3371 32.8101 23.4117 32.7888 23.5131L32.7195 23.9558H32.5594L32.6928 23.0757H32.8475L32.8208 23.225C32.8955 23.1184 32.9808 23.0703 33.0822 23.0703C33.1089 23.0703 33.1302 23.0703 33.1515 23.0757L33.1249 23.2197H33.0715M33.5569 23.9558H33.4022L33.1942 23.081H33.3542L33.5089 23.7638L33.8716 23.081H34.037L33.5569 23.9558ZM34.1384 23.9558H33.9783L34.1117 23.0757H34.2717L34.1384 23.9558ZM34.1597 22.905C34.1437 22.889 34.133 22.8676 34.133 22.841C34.133 22.809 34.1437 22.7876 34.1704 22.761C34.197 22.7343 34.2184 22.7236 34.2504 22.7236C34.277 22.7236 34.293 22.729 34.3144 22.7503C34.3304 22.7663 34.3411 22.7876 34.3411 22.8143C34.3411 22.8463 34.3304 22.8676 34.3037 22.8943C34.277 22.921 34.2557 22.9317 34.2237 22.9317C34.197 22.9317 34.1757 22.921 34.1597 22.905ZM34.5171 23.9345C34.4531 23.8972 34.4104 23.8491 34.3837 23.7851C34.3571 23.7211 34.3357 23.6571 34.3357 23.5824C34.3357 23.4917 34.3517 23.4011 34.3997 23.3157C34.4424 23.2357 34.5064 23.1664 34.5864 23.1184C34.6664 23.0703 34.7678 23.0437 34.8691 23.0437C34.9758 23.0437 35.0612 23.0703 35.1305 23.1237L35.1038 23.289C35.0398 23.2197 34.9598 23.1877 34.8638 23.1877C34.7945 23.1877 34.7358 23.2037 34.6771 23.241C34.6238 23.2784 34.5758 23.3211 34.5491 23.3851C34.5171 23.4384 34.5064 23.5024 34.5064 23.5718C34.5064 23.6518 34.5331 23.7211 34.5758 23.7691C34.6184 23.8171 34.6878 23.8438 34.7625 23.8438C34.8105 23.8438 34.8638 23.8385 34.9118 23.8171C34.9598 23.8011 35.0025 23.7745 35.0398 23.7371L35.0132 23.9025C34.9652 23.9345 34.9225 23.9558 34.8691 23.9718C34.8211 23.9825 34.7678 23.9878 34.7198 23.9878C34.6398 23.9932 34.5704 23.9718 34.5171 23.9345ZM35.9147 23.145C35.9787 23.2144 36 23.2944 36 23.3957C36 23.4331 36 23.4597 35.9947 23.4811C35.9893 23.5078 35.984 23.5291 35.9787 23.5611H35.3012C35.2959 23.6518 35.3172 23.7211 35.3706 23.7691C35.4186 23.8171 35.4879 23.8438 35.5733 23.8438C35.6373 23.8438 35.6906 23.8385 35.7386 23.8171C35.7866 23.8065 35.84 23.7798 35.888 23.7478L35.8613 23.8811C35.7706 23.9452 35.6586 23.9718 35.5359 23.9718C35.4559 23.9718 35.3812 23.9558 35.3226 23.9185C35.2585 23.8811 35.2159 23.8331 35.1892 23.7691C35.1625 23.7051 35.1412 23.6358 35.1412 23.5611C35.1412 23.4864 35.1572 23.4064 35.1945 23.3211C35.2319 23.241 35.2959 23.1664 35.3652 23.113C35.4452 23.0597 35.5359 23.0277 35.6533 23.0277C35.776 23.049 35.8613 23.0757 35.9147 23.145ZM35.4399 23.257C35.3866 23.3051 35.3386 23.3691 35.3226 23.4384H35.8453V23.4011C35.8453 23.3317 35.8293 23.2837 35.792 23.241C35.7546 23.2037 35.7066 23.1877 35.6373 23.1877C35.5626 23.1824 35.5039 23.209 35.4399 23.257ZM27.2039 22.0622H26.5264C26.4784 22.0622 26.4411 22.0995 26.4357 22.1422L26.1584 23.8972C26.153 23.9345 26.1744 23.9665 26.2117 23.9665H26.5638C26.5958 23.9665 26.6278 23.9398 26.6331 23.9132L26.7131 23.4171C26.7185 23.3744 26.7611 23.3371 26.8038 23.3371H27.0172C27.4652 23.3371 27.7266 23.1237 27.796 22.6916C27.828 22.4996 27.796 22.3502 27.7106 22.2542C27.6039 22.1209 27.4332 22.0622 27.2039 22.0622ZM27.2839 22.7023C27.2465 22.9477 27.0598 22.9477 26.8785 22.9477H26.7718L26.8465 22.4889C26.8518 22.4622 26.8785 22.4409 26.8998 22.4409H26.9478C27.0705 22.4409 27.1879 22.4409 27.2519 22.5103C27.2839 22.5529 27.2945 22.6169 27.2839 22.7023ZM22.3337 22.0622H21.6509C21.6029 22.0622 21.5656 22.0995 21.5603 22.1422L21.2829 23.8972C21.2775 23.9345 21.2989 23.9665 21.3362 23.9665H21.6616C21.7096 23.9665 21.747 23.9345 21.7523 23.8865L21.827 23.4171C21.8323 23.3744 21.875 23.3371 21.9177 23.3371H22.131C22.5791 23.3371 22.8405 23.1237 22.9098 22.6916C22.9418 22.4996 22.9098 22.3502 22.8245 22.2542C22.7391 22.1209 22.5631 22.0622 22.3337 22.0622ZM22.4137 22.7023C22.3764 22.9477 22.1897 22.9477 22.0083 22.9477H21.9016L21.9763 22.4889C21.9817 22.4622 22.0083 22.4409 22.0297 22.4409H22.0777C22.2004 22.4409 22.3177 22.4409 22.3817 22.5103C22.4244 22.5529 22.4297 22.6169 22.4137 22.7023ZM24.3767 22.6916H24.0513C24.0193 22.6916 24.0033 22.7076 23.998 22.7396L23.9873 22.8303L23.9607 22.7983C23.8913 22.6916 23.7313 22.6649 23.5713 22.6649C23.2139 22.6649 22.9045 22.937 22.8458 23.3211C22.8138 23.5131 22.8565 23.6998 22.9685 23.8225C23.0698 23.9398 23.2085 23.9878 23.3846 23.9878C23.6726 23.9878 23.8326 23.8011 23.8326 23.8011L23.822 23.8918C23.8166 23.9292 23.838 23.9612 23.8753 23.9612H24.174C24.222 23.9612 24.2594 23.9292 24.2647 23.8811L24.4461 22.7663C24.4407 22.7183 24.4141 22.6916 24.3767 22.6916ZM23.9233 23.3264C23.8913 23.5131 23.742 23.6411 23.5553 23.6411C23.4646 23.6411 23.3846 23.6091 23.3312 23.5558C23.2832 23.5024 23.2619 23.4224 23.2832 23.3264C23.3152 23.1397 23.4646 23.0117 23.6459 23.0117C23.7366 23.0117 23.8113 23.0437 23.8593 23.097C23.9127 23.1504 23.934 23.2357 23.9233 23.3264ZM29.2469 22.6916H28.9215C28.8895 22.6916 28.8735 22.7076 28.8681 22.7396L28.8575 22.8303L28.8308 22.7983C28.7615 22.6916 28.6014 22.6649 28.4414 22.6649C28.084 22.6649 27.7746 22.937 27.716 23.3211C27.6839 23.5131 27.7266 23.6998 27.8386 23.8225C27.94 23.9398 28.0787 23.9878 28.2547 23.9878C28.5428 23.9878 28.7028 23.8011 28.7028 23.8011L28.6921 23.8918C28.6868 23.9292 28.7081 23.9612 28.7455 23.9612H29.0442C29.0922 23.9612 29.1295 23.9292 29.1349 23.8811L29.3162 22.7663C29.3055 22.7183 29.2789 22.6916 29.2469 22.6916ZM28.7881 23.3264C28.7561 23.5131 28.6068 23.6411 28.4201 23.6411C28.3294 23.6411 28.2494 23.6091 28.196 23.5558C28.148 23.5024 28.1267 23.4224 28.148 23.3264C28.18 23.1397 28.3294 23.0117 28.5107 23.0117C28.6014 23.0117 28.6761 23.0437 28.7241 23.097C28.7828 23.1504 28.8041 23.2357 28.7881 23.3264ZM26.1157 22.6916H25.7903C25.7583 22.6916 25.7263 22.7076 25.7103 22.7343L25.2622 23.4011L25.0702 22.761C25.0595 22.7183 25.0222 22.6916 24.9795 22.6916H24.6594C24.6221 22.6916 24.5901 22.729 24.6061 22.7663L24.9688 23.8278L24.6274 24.3079C24.6008 24.3452 24.6274 24.3986 24.6754 24.3986H25.0008C25.0328 24.3986 25.0648 24.3879 25.0808 24.3559L26.1744 22.7823C26.1904 22.745 26.1637 22.6916 26.1157 22.6916ZM29.6309 22.1102L29.3536 23.8918C29.3482 23.9292 29.3696 23.9612 29.4069 23.9612H29.6896C29.7376 23.9612 29.775 23.9292 29.7803 23.8811L30.0577 22.1262C30.063 22.0888 30.0417 22.0568 30.0043 22.0568H29.6896C29.6576 22.0622 29.6363 22.0782 29.6309 22.1102Z" fill="white"/>
</svg>
