<svg width="40" height="40" viewBox="0 0 40 40" fill="none" xmlns="http://www.w3.org/2000/svg">
<rect width="40" height="40" rx="4" fill="#F36805"/>
<rect x="0.5" y="0.5" width="39" height="39" rx="3.5" stroke="white" stroke-opacity="0.01"/>
<path fill-rule="evenodd" clip-rule="evenodd" d="M20.1865 19.9407C20.568 19.3558 21.1528 18.9574 21.831 18.8133C23.2296 18.5166 24.6198 19.4151 24.9164 20.8222C25.0605 21.5003 24.9334 22.1954 24.5519 22.7803C24.1705 23.3652 23.5856 23.7636 22.9075 23.9077C22.7295 23.9501 22.543 23.967 22.365 23.967C21.8649 23.967 21.3732 23.8229 20.9494 23.5432C20.3645 23.1618 19.9661 22.5769 19.822 21.8987C19.6779 21.2206 19.8051 20.5255 20.1865 19.9407ZM22.5515 22.2463C22.7888 22.1954 22.9923 22.0598 23.1279 21.8564H23.1364C23.2635 21.6529 23.3144 21.4071 23.2635 21.1698C23.1703 20.7459 22.7973 20.4493 22.3735 20.4493C22.3141 20.4493 22.2463 20.4493 22.187 20.4662C21.9496 20.5171 21.7377 20.6527 21.6106 20.8561C21.4834 21.0596 21.4326 21.3054 21.4834 21.5427C21.5343 21.7801 21.6699 21.9835 21.8734 22.1191C22.0683 22.2463 22.3141 22.2971 22.5515 22.2463Z" fill="white"/>
<path d="M15.9736 21.2545L16.4992 22.8651C17.1943 22.6362 17.9148 22.4752 18.6437 22.3819L18.4234 20.7036C17.6011 20.8137 16.7789 21.0002 15.9821 21.2545H15.9736Z" fill="white"/>
<path d="M26.3065 22.0683L26.0776 20.3899C26.8066 20.2967 27.5271 20.1356 28.2222 19.9068L28.7477 21.5173C27.9594 21.7716 27.1372 21.9581 26.3065 22.0683Z" fill="white"/>
<path fill-rule="evenodd" clip-rule="evenodd" d="M30.2991 15.4142L32.0283 23.5771C32.1046 23.9331 31.9436 24.2976 31.6299 24.4841C29.087 25.959 26.0863 26.6032 23.1618 26.2811C20.5765 26.0014 17.9318 26.5609 15.7025 27.8578C15.5753 27.9341 15.4227 27.9764 15.2786 27.9764C15.16 27.9764 15.0413 27.951 14.9311 27.9002C14.6853 27.79 14.5073 27.5611 14.4479 27.2983L14.1174 25.7471C13.8292 25.9929 13.5494 26.2472 13.2867 26.5185C13.1256 26.6795 12.9052 26.7728 12.6763 26.7728C12.6603 26.7728 12.6424 26.7709 12.6235 26.7689C12.6024 26.7667 12.58 26.7643 12.5577 26.7643C12.2949 26.7219 12.0576 26.5524 11.9304 26.315L8.05661 18.9235C7.88708 18.6014 7.94642 18.203 8.20072 17.9402C10.2436 15.8295 12.9815 14.397 15.8974 13.9138C18.4404 13.49 20.8308 12.2439 22.6193 10.3876C22.8058 10.1926 23.0771 10.1078 23.3483 10.1418C23.6111 10.1841 23.8485 10.3537 23.9756 10.591L26.7474 15.8804C27.5442 15.6176 28.3156 15.2785 29.0446 14.8547C29.2819 14.7191 29.5701 14.7021 29.8159 14.8123C30.0618 14.9225 30.2398 15.1514 30.2991 15.4142ZM12.7187 19.1354C12.6424 18.7794 12.8035 18.4149 13.1171 18.2284V18.2369C15.6516 16.7535 18.6608 16.1177 21.6106 16.4398C22.755 16.567 23.9163 16.5161 25.0521 16.3127L22.9923 12.3796C21.0681 14.0494 18.6862 15.1853 16.1687 15.6007C13.8122 15.9906 11.5913 17.0841 9.85365 18.7031L12.9137 24.5434C13.1765 24.3146 13.4477 24.0942 13.7274 23.8907L12.7187 19.1354ZM15.872 25.8488C18.1692 24.7553 20.7799 24.3146 23.3399 24.5943L23.3483 24.5858C25.7048 24.8401 28.1291 24.3909 30.2398 23.2974L28.8751 16.8467C28.4427 17.0586 27.9935 17.2282 27.5442 17.3892C27.0017 17.5842 26.4508 17.7368 25.8828 17.8639C24.4249 18.1775 22.916 18.2708 21.4326 18.1097C19.0507 17.8469 16.6179 18.2962 14.5073 19.3897L15.2447 22.8905L15.6177 24.6452L15.872 25.8488Z" fill="white"/>
</svg>
