<svg width="40" height="40" viewBox="0 0 40 40" fill="none" xmlns="http://www.w3.org/2000/svg">
<rect width="40" height="40" rx="4" fill="#EE293D"/>
<rect x="0.5" y="0.5" width="39" height="39" rx="3.5" stroke="white" stroke-opacity="0.01"/>
<path d="M7.37903 18.3079C7.14422 18.3079 7.12106 18.2317 7.12106 17.6759V17.5811C7.12106 17.0234 7.14422 16.9479 7.37903 16.9479H12.7484C12.9841 16.9479 13.0072 17.0234 13.0072 17.5803V17.6752C13.0072 18.2317 12.9837 18.3075 12.7484 18.3075L7.37903 18.3079ZM7.37903 15.8607C7.14422 15.8607 7.12106 15.7849 7.12106 15.2284V15.1335C7.12106 14.5751 7.14422 14.5 7.37903 14.5H12.7484C12.9841 14.5 13.0072 14.5759 13.0072 15.1335V15.2284C13.0072 15.7849 12.9837 15.8607 12.7484 15.8607H7.37903ZM8.18341 23.1283C8.18341 22.2072 8.664 21.7008 9.38712 21.7008C9.66012 21.7008 9.87869 21.7752 10.1521 21.9022C10.2512 21.9493 10.3333 21.9303 10.4633 21.6424L10.5579 21.4467C10.6514 21.2107 10.6583 21.1132 10.5449 21.0609C10.2098 20.8776 9.691 20.7619 9.24291 20.7619C7.96606 20.7619 7 21.7065 7 23.1283C7 24.5497 7.96606 25.4943 9.2425 25.4943C9.691 25.4943 10.2216 25.379 10.5579 25.1946C10.6701 25.1434 10.6628 25.0448 10.5701 24.8088L10.4767 24.6021C10.3467 24.3138 10.2642 24.2975 10.1643 24.3422C9.89087 24.4701 9.66053 24.5444 9.38712 24.5444C8.664 24.5444 8.18463 24.049 8.18463 23.1283H8.18341ZM23.3975 25.2766C23.3975 25.4017 23.3471 25.4359 22.9681 25.4359H22.9303C22.5309 25.4359 22.4753 25.4188 22.444 25.3274C22.4231 25.2653 22.4064 25.2021 22.394 25.1381C22.1828 25.3741 21.9281 25.5 21.5401 25.5C20.5992 25.5 20.0337 24.8551 20.0337 23.818C20.0337 22.697 20.663 22.0331 21.5962 22.0331C21.859 22.0331 22.1011 22.109 22.288 22.2471V20.7904C22.288 20.6929 22.3002 20.6523 22.8243 20.6523H22.862C23.3471 20.6523 23.3971 20.6929 23.3971 20.7904L23.3975 25.2766ZM22.2884 23.065C22.2243 22.9996 22.1464 22.9474 22.0595 22.9117C21.9726 22.8761 21.8787 22.8577 21.7838 22.8578C21.3662 22.8578 21.168 23.1966 21.168 23.8187C21.168 24.1753 21.2488 24.4018 21.3662 24.5205C21.4718 24.643 21.6343 24.6825 21.7908 24.6825C21.9837 24.6825 22.1328 24.6381 22.2019 24.5558C22.2632 24.4928 22.288 24.3953 22.288 24.1708L22.2884 23.065ZM29.0508 25.2993C29.0508 25.3961 29.0009 25.4359 28.5146 25.4359H28.4772C27.954 25.4359 27.943 25.3961 27.943 25.2993V20.7904C27.943 20.6929 27.954 20.6523 28.4768 20.6523H28.5142C29.0001 20.6523 29.0504 20.6929 29.0504 20.7904L29.0508 25.2993ZM25.1492 24.1006C25.211 24.5091 25.4848 24.7056 25.915 24.7056C26.2461 24.7056 26.5561 24.6374 26.9184 24.4928C26.994 24.4644 27.0618 24.4928 27.1419 24.7216L27.1987 24.8498C27.2788 25.0857 27.2719 25.1381 27.1858 25.1832C26.7551 25.4074 26.307 25.4992 25.8086 25.4992C24.7068 25.4992 24.0158 24.8733 24.0158 23.8017C24.0158 22.7596 24.6507 22.0331 25.7407 22.0331C26.8189 22.0331 27.3722 22.7478 27.3722 23.7379C27.3722 24.0664 27.3418 24.1006 27.217 24.1006H25.1492ZM26.2632 23.4621C26.2461 23.1177 26.0966 22.8172 25.7289 22.8172C25.41 22.8172 25.1793 23.0411 25.1358 23.4621H26.2632ZM30.7766 24.1006C30.8375 24.5091 31.1122 24.7056 31.5428 24.7056C31.871 24.7056 32.1838 24.6374 32.545 24.4928C32.6189 24.4644 32.6888 24.4928 32.7692 24.7216L32.8257 24.8498C32.9057 25.0857 32.8993 25.1381 32.8135 25.1832C32.3829 25.4074 31.934 25.4992 31.4351 25.4992C30.333 25.4992 29.6427 24.8733 29.6427 23.8017C29.6427 22.7596 30.2765 22.0331 31.3669 22.0331C32.4459 22.0331 33 22.7478 33 23.7379C33 24.0664 32.9687 24.1006 32.844 24.1006H30.7766ZM31.8918 23.4621C31.8714 23.1177 31.7232 22.8172 31.3555 22.8172C31.0378 22.8172 30.8063 23.0411 30.7632 23.4621H31.8918ZM18.2608 23.0877C18.2047 23.0185 18.1323 22.9624 18.0491 22.9236C17.966 22.8848 17.8744 22.8643 17.7815 22.8639C17.3638 22.8639 17.1652 23.2034 17.1652 23.8073C17.1652 24.3195 17.3131 24.7 17.7681 24.7C17.9371 24.7 18.0606 24.6597 18.1487 24.5782C18.2292 24.4985 18.2608 24.3885 18.2608 24.148V23.0877ZM19.3821 25.2766C19.3821 25.4017 19.3329 25.4359 18.9531 25.4359H18.9019C18.5038 25.4359 18.4477 25.4188 18.4168 25.3274C18.3955 25.2655 18.3788 25.2022 18.3669 25.1381C18.1556 25.3741 17.8997 25.5 17.5129 25.5C16.6098 25.5 16.0301 24.8657 16.0301 23.8309C16.0301 22.6795 16.7467 22.0331 17.5942 22.0331C17.9371 22.0331 18.2352 22.1667 18.3977 22.3563L18.4168 22.2122C18.4221 22.1439 18.442 22.0984 18.8515 22.0984H18.8958C19.3199 22.0984 19.3813 22.1261 19.3813 22.2311L19.3821 25.2766ZM14.1825 21.1253C14.5993 21.1253 14.6245 21.1303 14.6245 21.257V22.0976H15.3415C15.4407 22.0976 15.4715 22.1147 15.4715 22.4311V22.4777C15.4715 22.7933 15.4407 22.8116 15.3415 22.8116H14.6245V24.3202C14.6245 24.5729 14.6737 24.7056 14.9227 24.7056C15.0527 24.7056 15.1664 24.6825 15.2786 24.6487C15.3964 24.6066 15.4411 24.6597 15.5215 24.9238L15.5402 24.9871C15.6271 25.2766 15.6015 25.2993 15.4906 25.3502C15.2664 25.448 14.9666 25.5 14.6867 25.5C13.8023 25.5 13.5532 25.0857 13.5532 24.365V22.8116H13.1356C13.03 22.8116 13.0036 22.7926 13.0036 22.4777V22.4311C13.0036 22.1147 13.0296 22.0984 13.1356 22.0984H13.6028C13.6536 21.8279 13.7397 21.447 13.7962 21.257C13.8274 21.1473 13.8461 21.1253 14.1825 21.1253ZM11.8653 22.0984C12.3515 22.0984 12.3946 22.1374 12.3946 22.2361V25.2993C12.3946 25.4017 12.3515 25.4359 11.8653 25.4359H11.8336C11.2985 25.4359 11.2863 25.4017 11.2863 25.2993V22.2361C11.2863 22.1374 11.2985 22.0984 11.8336 22.0984H11.8653ZM11.8336 20.6011C12.1846 20.6011 12.4389 20.8541 12.4389 21.1417C12.4373 21.2137 12.4204 21.2848 12.3892 21.3507C12.3579 21.4166 12.313 21.476 12.2569 21.5256C12.1431 21.6261 11.9908 21.6807 11.8336 21.6773C11.4866 21.6773 11.2295 21.4243 11.2295 21.1417C11.2295 20.8533 11.4866 20.6011 11.8336 20.6011Z" fill="white"/>
</svg>
