<svg width="40" height="40" viewBox="0 0 40 40" fill="none" xmlns="http://www.w3.org/2000/svg">
<rect width="40" height="40" rx="4" fill="white"/>
<rect width="40" height="40" rx="4" fill="#03426A"/>
<rect x="0.5" y="0.5" width="39" height="39" rx="3.5" stroke="white" stroke-opacity="0.01"/>
<g clip-path="url(#clip0_13202_9834)">
<g clip-path="url(#clip1_13202_9834)">
<path d="M35.3854 17.7405H24.3696V22.2502H35.3854V17.7405ZM35.2656 17.8541V22.1339H24.4866V17.8541H35.2656Z" fill="white"/>
<path d="M4.66646 22.2002H23.8433V17.7905H4.66646V22.2002Z" fill="#03426A" stroke="white" stroke-width="0.1"/>
<path d="M35.2656 17.8541V22.1339H24.4866V17.8541H35.2656Z" fill="white"/>
<path d="M11.2733 20.2997C11.2733 20.7434 11.0282 20.9625 10.4795 20.9625H9.61604V19.3015H10.4516C11.1145 19.3015 11.2733 19.6153 11.2733 19.9588V20.2997ZM11.627 20.2862V20.0021C11.627 19.0959 10.8917 19.0607 10.3987 19.0607H9.25952V21.2087H10.4962C11.4682 21.2087 11.627 20.6974 11.627 20.2862Z" fill="white"/>
<path d="M13.5544 20.6784C13.5544 20.8028 13.5433 20.9165 13.3957 20.9679C13.3093 21.0003 13.1868 21.0112 12.9807 21.0112C12.7746 21.0112 12.652 20.9922 12.5796 20.9462C12.5295 20.9165 12.51 20.8678 12.51 20.765C12.51 20.6351 12.5434 20.5621 12.6074 20.5323C12.6715 20.5026 12.7523 20.4972 13.0029 20.4972H13.5544V20.6784ZM13.8887 21.2086V20.3646C13.8887 20.205 13.8887 20.0941 13.8747 20.0129C13.858 19.9291 13.8302 19.8695 13.7605 19.8181C13.599 19.6964 13.2035 19.6937 13.0085 19.6937C12.8609 19.6937 12.4598 19.7099 12.3122 19.8317C12.2621 19.8722 12.2509 19.9209 12.2509 19.9805C12.2509 20.0183 12.2565 20.0697 12.2593 20.1373H12.5852C12.5907 20.0995 12.5991 20.0075 12.6353 19.9696C12.6799 19.929 12.7551 19.9128 12.9779 19.9128C13.2341 19.9128 13.4124 19.9209 13.4876 19.9615C13.5572 19.9994 13.5544 20.0805 13.5544 20.1428V20.2888H12.8024C12.5991 20.2888 12.3651 20.2943 12.237 20.4647C12.1785 20.5377 12.1534 20.6324 12.1534 20.7542C12.1534 21.1113 12.379 21.2303 12.9584 21.2303C13.2592 21.2303 13.4569 21.1843 13.5767 21.0842L13.6074 21.2086H13.8887Z" fill="white"/>
<path d="M15.9052 21.2087V20.3863C15.9052 20.1022 15.8912 20.0427 15.8216 19.9913C15.7548 19.9426 15.6211 19.9129 15.4177 19.9129C15.2395 19.9129 15.0556 19.9345 14.883 19.9805V21.2087H14.5515V19.7046H14.8495L14.8718 19.8128C14.9387 19.7776 14.9888 19.7505 15.0584 19.7316C15.1698 19.6991 15.3091 19.6829 15.4957 19.6829C15.7074 19.6829 15.8717 19.7154 15.9971 19.7695C16.1196 19.8209 16.1865 19.9183 16.2115 20.0319C16.2282 20.1103 16.2366 20.178 16.2366 20.3484V21.2087H15.9052Z" fill="white"/>
<path d="M18.3645 21.1167C18.2114 21.1925 17.9607 21.2249 17.6348 21.2249C17.4092 21.2249 17.2226 21.2087 17.0778 21.1708C16.9218 21.1356 16.8438 21.0653 16.8354 20.9354C16.8299 20.8678 16.8354 20.8083 16.8438 20.7272H17.1641C17.1752 20.8029 17.1752 20.8272 17.178 20.8435C17.1892 20.9138 17.1836 20.9517 17.2699 20.9787C17.3535 21.0031 17.4872 21.0139 17.6571 21.0139C17.8688 21.0139 18.0164 20.9923 18.1139 20.949C18.1835 20.9192 18.2169 20.8651 18.2169 20.7623C18.2169 20.6433 18.1919 20.5946 18.0637 20.5757C18.0247 20.5675 17.9857 20.5675 17.944 20.5648C17.9217 20.5621 17.8493 20.5621 17.7323 20.5594C17.6766 20.5594 17.6125 20.554 17.5373 20.5513C17.2059 20.5351 16.8549 20.5215 16.8549 20.1455C16.8549 19.8047 17.0694 19.6856 17.6599 19.6856C17.8103 19.6856 17.9941 19.6964 18.1055 19.71C18.2336 19.7262 18.3311 19.7478 18.4008 19.7857C18.4787 19.829 18.5038 19.8966 18.5038 20.0157C18.5038 20.0481 18.5038 20.0806 18.4982 20.132H18.1751L18.1612 20.0644C18.1445 19.9832 18.1389 19.967 18.1111 19.948C18.0637 19.9129 17.9217 19.8966 17.7211 19.8966C17.5206 19.8966 17.4064 19.9047 17.3145 19.9372C17.2282 19.967 17.1892 20.0211 17.1892 20.1293C17.1892 20.2023 17.217 20.2564 17.2532 20.2808C17.3396 20.3322 17.7963 20.3268 17.9523 20.3295C18.1194 20.3322 18.2281 20.3457 18.3228 20.3782C18.4927 20.435 18.5595 20.5432 18.5595 20.7623C18.5595 20.9382 18.501 21.0491 18.3645 21.1167Z" fill="white"/>
<path d="M20.409 21.2087L19.6096 20.4972H19.4926V21.2087H19.1584V19.0607H19.4926V20.2835H19.6096L20.2725 19.7046H20.6624L19.8909 20.3673L20.8518 21.2087H20.409Z" fill="white"/>
<path d="M22.5007 20.3105H21.4339C21.445 20.1211 21.4868 20.0373 21.562 19.9832C21.64 19.9291 21.7821 19.902 21.991 19.902C22.2806 19.902 22.4171 19.9642 22.4672 20.0941C22.4867 20.1482 22.5007 20.1996 22.5007 20.3105ZM22.8071 20.7379H22.4784C22.4672 20.7839 22.4617 20.9003 22.4171 20.9436C22.367 20.9922 22.2667 21.0139 21.9993 21.0139C21.7347 21.0139 21.5899 20.9787 21.5147 20.9057C21.459 20.8516 21.4256 20.7379 21.4256 20.5621V20.5215H22.8154C22.8182 20.4485 22.8238 20.4296 22.8238 20.37C22.8238 20.1212 22.7876 19.9832 22.6761 19.8777C22.5508 19.7505 22.3085 19.6883 21.9743 19.6883C21.5481 19.6883 21.2863 19.783 21.1777 19.9913C21.1136 20.1103 21.0774 20.2781 21.0774 20.4864C21.0774 20.8137 21.1665 21.0193 21.3643 21.1221C21.4868 21.187 21.6985 21.2249 21.9687 21.2276C22.1943 21.2276 22.3753 21.2168 22.5731 21.16C22.7653 21.1005 22.8126 20.9949 22.8126 20.9057C22.8126 20.884 22.8126 20.811 22.8071 20.7379Z" fill="white"/>
<path d="M27.1967 19.6018C27.1967 19.9183 27.0128 19.9832 26.634 19.9832H25.7957V19.3015H26.6758C27.0128 19.3015 27.1967 19.3312 27.1967 19.6018ZM27.6339 20.6027C27.6339 20.3376 27.478 20.1428 27.1047 20.086V20.0806C27.3944 20.0075 27.5504 19.8615 27.5504 19.6315C27.5504 19.2528 27.361 19.0607 26.8234 19.0607H25.4391V21.2087H26.8791C27.3638 21.2087 27.6339 20.995 27.6339 20.6027ZM27.2774 20.627C27.2774 20.9327 27.0546 20.9625 26.7092 20.9625H25.7957V20.2267H26.7538C27.1632 20.2267 27.2774 20.3538 27.2774 20.627Z" fill="#03426A"/>
<path d="M29.4416 20.6784C29.4416 20.8028 29.4332 20.9165 29.2856 20.9679C29.1993 21.0003 29.0767 21.0112 28.8706 21.0112C28.6645 21.0112 28.542 20.9922 28.4695 20.9462C28.4194 20.9165 28.3999 20.8678 28.3999 20.765C28.3999 20.6351 28.4333 20.5621 28.5002 20.5323C28.5615 20.5026 28.6422 20.4972 28.8957 20.4972H29.4416V20.6784ZM29.7786 21.2086V20.3646C29.7786 20.205 29.7786 20.0941 29.7647 20.0129C29.748 19.9291 29.7201 19.8695 29.6505 19.8181C29.4889 19.6964 29.0934 19.6937 28.8985 19.6937C28.7509 19.6937 28.3498 19.7099 28.2022 19.8317C28.152 19.8722 28.1409 19.9209 28.1409 19.9805C28.1409 20.0183 28.1465 20.0697 28.1492 20.1373H28.4751C28.4835 20.0995 28.489 20.0075 28.5253 19.9696C28.5698 19.929 28.645 19.9128 28.8678 19.9128C29.1241 19.9128 29.3023 19.9209 29.3775 19.9615C29.4472 19.9994 29.4416 20.0805 29.4416 20.1428V20.2888H28.6924C28.489 20.2888 28.2551 20.2943 28.127 20.4647C28.0712 20.5377 28.0434 20.6324 28.0434 20.7542C28.0434 21.1113 28.269 21.2303 28.8483 21.2303C29.1519 21.2303 29.3469 21.1843 29.4667 21.0842L29.4973 21.2086H29.7786Z" fill="#03426A"/>
<path d="M31.7116 21.2087V20.3863C31.7116 20.1022 31.6977 20.0427 31.6281 19.9913C31.5612 19.9426 31.4275 19.9129 31.2242 19.9129C31.0459 19.9129 30.8621 19.9345 30.6894 19.9805V21.2087H30.358V19.7046H30.656L30.6811 19.8128C30.7451 19.7776 30.7953 19.7505 30.8677 19.7316C30.9763 19.6991 31.1156 19.6829 31.3022 19.6829C31.5139 19.6829 31.6782 19.7154 31.8035 19.7695C31.9261 19.8209 31.9929 19.9183 32.0208 20.0319C32.0375 20.1103 32.0431 20.178 32.0431 20.3484V21.2087H31.7116Z" fill="#03426A"/>
<path d="M33.873 21.2087L33.0736 20.4972H32.9538V21.2087H32.6224V19.0607H32.9538V20.2835H33.0736L33.7365 19.7046H34.1236L33.3521 20.3673L34.313 21.2087H33.873Z" fill="#03426A"/>
</g>
</g>
<defs>
<clipPath id="clip0_13202_9834">
<rect width="32" height="4.92308" fill="white" transform="translate(4 17.54)"/>
</clipPath>
<clipPath id="clip1_13202_9834">
<rect width="30.7692" height="4.50928" fill="white" transform="translate(4.61536 17.74)"/>
</clipPath>
</defs>
</svg>
