<svg width="40" height="40" viewBox="0 0 40 40" fill="none" xmlns="http://www.w3.org/2000/svg">
<rect width="40" height="40" rx="4" fill="#4D4D4D"/>
<rect x="0.5" y="0.5" width="39" height="39" rx="3.5" stroke="white" stroke-opacity="0.01"/>
<path fill-rule="evenodd" clip-rule="evenodd" d="M32.2038 17.1108C33.2491 17.1108 33.824 17.5944 33.824 18.5077C33.8763 19.2062 33.4059 19.7972 32.7787 19.9046L34.1899 21.8925H33.0923L31.8902 19.9584H31.7857V21.8925H30.8972V17.1108H32.2038ZM31.7857 19.3137H32.047C32.6219 19.3137 32.8832 19.045 32.8832 18.5615C32.8832 18.1317 32.6219 17.863 32.047 17.863H31.7857V19.3137ZM27.8136 21.8925H30.3223V21.0866H28.7021V19.7972H30.27V18.9913H28.7021V17.9167H30.3223V17.1108H27.8136V21.8925ZM25.2003 20.3345L23.9982 17.1108H23.0575L24.9913 22H25.4617L27.3954 17.1108H26.4547L25.2003 20.3345ZM14.5906 19.5286C14.5906 20.8717 15.6359 22 16.9425 22C17.3606 22 17.7265 21.8925 18.0923 21.7314V20.6568C17.831 20.9792 17.4652 21.1941 17.047 21.1941C16.2108 21.1941 15.5314 20.5494 15.5314 19.6897V19.5823C15.4791 18.7227 16.1585 17.9705 16.9948 17.9168C17.4129 17.9168 17.831 18.1317 18.0923 18.454V17.3795C17.7787 17.1646 17.3606 17.1108 16.9948 17.1108C15.6359 17.0034 14.5906 18.1317 14.5906 19.5286ZM12.9704 18.9376C12.4477 18.7227 12.2909 18.6152 12.2909 18.3466C12.3432 18.0242 12.6045 17.7556 12.9181 17.8093C13.1794 17.8093 13.4408 17.9705 13.6498 18.1854L14.1202 17.5407C13.7544 17.2183 13.284 17.0034 12.8136 17.0034C12.0819 16.9497 11.4547 17.5407 11.4024 18.2928V18.3466C11.4024 18.9913 11.6638 19.3674 12.5 19.636C12.7091 19.6897 12.9181 19.7972 13.1272 19.9046C13.284 20.0121 13.3885 20.1733 13.3885 20.3882C13.3885 20.7643 13.0749 21.0866 12.7613 21.0866H12.7091C12.2909 21.0866 11.9251 20.818 11.7683 20.4419L11.1934 21.0329C11.507 21.6239 12.1341 21.9463 12.7613 21.9463C13.5976 22 14.277 21.3553 14.3293 20.4956V20.3345C14.277 19.6897 14.0157 19.3674 12.9704 18.9376ZM9.93903 21.8925H10.8275V17.1108H9.93903V21.8925ZM5.81012 17.1109H7.11674H7.37806C8.63241 17.1646 9.62544 18.2391 9.57318 19.5286C9.57318 20.227 9.25959 20.8717 8.73694 21.3553C8.26656 21.7314 7.69165 21.9463 7.11674 21.8926H5.81012V17.1109ZM6.95994 21.0866C7.37806 21.1404 7.84845 20.9792 8.16203 20.7105C8.47562 20.3882 8.63242 19.9584 8.63242 19.4748C8.63242 19.045 8.47562 18.6152 8.16203 18.2928C7.84845 18.0242 7.37806 17.863 6.95994 17.9167H6.69862V21.0866H6.95994Z" fill="white"/>
<path fill-rule="evenodd" clip-rule="evenodd" d="M20.7578 17C19.4512 17 18.3536 18.0745 18.3536 19.4714C18.3536 20.8146 19.3989 21.9429 20.7578 21.9966C22.1167 22.0503 23.162 20.9221 23.2143 19.5252C23.162 18.1283 22.1167 17 20.7578 17V17Z" fill="#FD6020"/>
<path d="M1 40L39 29V37C39 38.6569 37.6569 40 36 40H1Z" fill="#FD6020"/>
</svg>
