<svg width="40" height="40" viewBox="0 0 40 40" fill="none" xmlns="http://www.w3.org/2000/svg">
<rect width="40" height="40" rx="4" fill="black"/>
<rect x="0.5" y="0.5" width="39" height="39" rx="3.5" stroke="white" stroke-opacity="0.01"/>
<path d="M10.8242 17.3467C11.1119 17.2524 11.4196 17.2012 11.7399 17.2012C13.1374 17.2012 14.3032 18.1751 14.5706 19.4688L16.5511 19.0726C16.0966 16.8739 14.1155 15.2188 11.7399 15.2188C11.196 15.2188 10.6724 15.3057 10.1837 15.4658L10.8242 17.3467Z" fill="#FECA2F"/>
<path d="M8.46727 23.7187L9.65306 22.1876C9.12376 21.6523 8.78968 20.8706 8.78968 19.9994C8.78968 19.1288 9.12344 18.3472 9.6526 17.8122L8.46618 16.2813C7.56678 17.1909 7 18.5196 7 19.9994C7 21.48 7.56761 22.8091 8.46727 23.7187Z" fill="#1BA7DE"/>
<path d="M14.5712 20.5312C14.3029 21.8247 13.1379 22.7974 11.7415 22.7974C11.4212 22.7974 11.1128 22.746 10.8251 22.6514L10.1837 24.5333C10.6732 24.6942 11.1969 24.7812 11.7415 24.7812C14.115 24.7812 16.0948 23.1272 16.5511 20.9294L14.5712 20.5312Z" fill="#EC412A"/>
<path fill-rule="evenodd" clip-rule="evenodd" d="M26.0795 16.2813V21.7226L27.0559 22.114L26.594 23.1872L25.6284 22.799C25.4112 22.708 25.2643 22.5693 25.1527 22.4126C25.0455 22.2523 24.966 22.0332 24.966 21.7375V16.2813H26.0795ZM18.6738 20.3254C18.6981 18.7694 20.0232 17.5273 21.6312 17.5511C22.9959 17.5718 24.1267 18.4962 24.4237 19.7256L19.1453 21.9072C18.8387 21.4539 18.6644 20.9086 18.6738 20.3254ZM19.8816 20.5436C19.8743 20.4783 19.8692 20.4113 19.8711 20.3438C19.8863 19.427 20.6664 18.6955 21.6138 18.7107C22.1295 18.7174 22.5873 18.9457 22.8969 19.2991L19.8816 20.5436ZM22.7857 21.5538C22.4676 21.853 22.0362 22.0353 21.5599 22.0288C21.2334 22.0235 20.9309 21.929 20.6737 21.7715L20.036 22.754C20.4727 23.0209 20.9876 23.1788 21.5427 23.1872C22.3508 23.1988 23.0873 22.8918 23.6228 22.385L22.7857 21.5538ZM30.1434 18.7106C29.9532 18.7106 29.7704 18.7404 29.5996 18.7958L29.2197 17.6948C29.5097 17.6012 29.8202 17.5503 30.1434 17.5503C31.5537 17.5503 32.7302 18.5191 33 19.8059L31.8238 20.0378C31.6653 19.2804 30.9732 18.7106 30.1434 18.7106ZM28.2123 22.48L29.007 21.611C28.6521 21.3071 28.4286 20.8633 28.4286 20.3687C28.4286 19.8745 28.6521 19.4309 29.0067 19.1273L28.2114 18.2582C27.6084 18.7746 27.2286 19.5291 27.2286 20.3687C27.2286 21.2093 27.6087 21.9635 28.2123 22.48ZM30.1433 22.0273C30.9724 22.0273 31.6644 21.458 31.8238 20.7017L32.9996 20.9346C32.7285 22.22 31.5524 23.1875 30.1433 23.1875C29.8199 23.1875 29.5089 23.1364 29.2182 23.0424L29.599 21.9418C29.7701 21.9971 29.953 22.0273 30.1433 22.0273Z" fill="white"/>
</svg>
