<svg width="40" height="40" viewBox="0 0 40 40" fill="none" xmlns="http://www.w3.org/2000/svg">
<rect x="0.5" y="0.5" width="39" height="39" rx="3.5" fill="white"/>
<rect x="0.5" y="0.5" width="39" height="39" rx="3.5" stroke="#DBD9D7"/>
<g clip-path="url(#clip0_10170_5389)">
<path d="M28.749 20.0018H26.437C26.1801 20.0018 25.9732 19.7966 25.9732 19.5373C25.9732 19.2781 26.1801 19.0512 26.437 19.0512H29.955V17.3013H26.437C25.2096 17.3013 24.2106 18.3131 24.2106 19.5481C24.2106 20.7832 25.2096 21.795 26.437 21.795H28.7169C28.9738 21.795 29.1807 22.0002 29.1807 22.2595C29.1807 22.5187 28.9738 22.7096 28.7169 22.7096H23.8289C23.415 23.5089 23.0118 24.193 22.1912 24.5351H28.749C29.955 24.5171 30.9433 23.4873 30.9433 22.2631C30.9433 21.0352 29.955 20.0198 28.749 20.0018Z" fill="#71706F"/>
<path d="M19.8899 17.3013C17.9311 17.3013 16.3362 18.9216 16.3362 20.9092V28.4167H18.1095V24.5351H19.8863C21.8451 24.5351 23.4328 22.8932 23.4328 20.9056C23.4364 18.9144 21.8487 17.3013 19.8899 17.3013ZM19.8899 22.706H18.1095V20.902C18.1095 19.8938 18.9051 19.0728 19.8899 19.0728C20.8746 19.0728 21.6774 19.8938 21.6774 20.902C21.6774 21.9102 20.8746 22.706 19.8899 22.706Z" fill="#71706F"/>
<path d="M10.7239 24.5351C9.047 24.5351 7.63767 23.3289 7.25591 21.7554C7.25591 21.7554 7.1453 21.2333 7.1453 20.8912C7.1453 20.5491 7.24877 20.0234 7.24877 20.0234C7.6341 18.4535 9.03986 17.2833 10.7132 17.2833C12.6827 17.2833 14.299 18.8964 14.299 20.884V21.759H9.06841C9.37881 22.3675 10.0032 22.7096 10.7239 22.7096H15.4264L15.4336 17.5569C15.4336 16.79 14.8127 16.1599 14.0492 16.1599H7.38435C6.62438 16.1599 6 16.7684 6 17.5389V24.2651C6 25.032 6.62438 25.6802 7.38435 25.6802H14.0492C14.7307 25.6802 15.3015 25.1869 15.4122 24.5387H10.7239V24.5351Z" fill="#B90466"/>
<path d="M10.7168 18.99C9.99963 18.99 9.37524 19.4329 9.06483 20.0054H12.3687C12.0583 19.4329 11.4339 18.99 10.7168 18.99Z" fill="#B90466"/>
<path d="M13.7352 13.9706C13.7352 12.3287 12.383 11 10.7168 11C9.05057 11 7.74471 12.2891 7.7019 13.8914V14.8024C7.7019 14.9104 7.78753 15.0148 7.89813 15.0148H9.00775C9.11479 15.0148 9.21112 14.9104 9.21112 14.8024V13.9706C9.21112 13.1496 9.88546 12.4835 10.7204 12.4835C11.5552 12.4835 12.2296 13.1496 12.2296 13.9706V14.8024C12.2296 14.9104 12.3152 15.0148 12.4258 15.0148H13.5354C13.6425 15.0148 13.7388 14.9104 13.7388 14.8024V13.9706H13.7352Z" fill="#B90466"/>
<path d="M21.8808 26.8576L21.7202 27.7757C21.6417 28.2402 21.3385 28.4527 20.9317 28.4527C20.5856 28.4527 20.318 28.2258 20.3965 27.7757L20.5571 26.8576H20.8033L20.6427 27.7757C20.5928 28.0638 20.7212 28.2258 20.9603 28.2258C21.1993 28.2258 21.4205 28.0782 21.4705 27.7757L21.631 26.8576H21.8808ZM20.9067 26.5695C20.9067 26.6451 20.9638 26.6811 21.0281 26.6811C21.1065 26.6811 21.1922 26.6271 21.1922 26.5191C21.1922 26.4435 21.1422 26.4075 21.078 26.4075C20.9959 26.4075 20.9067 26.4579 20.9067 26.5695ZM21.4419 26.5659C21.4419 26.6451 21.5026 26.6811 21.5668 26.6811C21.6346 26.6811 21.7274 26.6271 21.7274 26.5227C21.7274 26.4471 21.6738 26.4075 21.6132 26.4075C21.5347 26.4075 21.4419 26.4579 21.4419 26.5659Z" fill="#71706F"/>
<path d="M22.4766 26.8575L22.366 27.4913C22.4624 27.3616 22.655 27.2932 22.787 27.2932C23.0653 27.2932 23.2544 27.4589 23.2544 27.7613C23.2544 28.1898 22.9583 28.4491 22.5801 28.4491C22.4338 28.4491 22.3089 28.3951 22.2304 28.2546L22.1876 28.4203H21.97L22.2447 26.8575H22.4766ZM22.3054 27.927C22.2947 28.1106 22.416 28.2294 22.5872 28.2294C22.8049 28.2294 23.0118 28.0602 23.0261 27.8045C23.0368 27.6173 22.9155 27.5057 22.7478 27.5057C22.5337 27.5057 22.3161 27.6821 22.3054 27.927Z" fill="#71706F"/>
<path d="M23.7076 27.9594C23.7004 28.1106 23.8182 28.2367 24.018 28.2367C24.1286 28.2367 24.2749 28.1935 24.3569 28.1178L24.4818 28.2619C24.3462 28.3879 24.1464 28.4527 23.9752 28.4527C23.6576 28.4527 23.4721 28.2619 23.4721 27.9666C23.4721 27.5777 23.7753 27.2861 24.1643 27.2861C24.521 27.2861 24.7208 27.5021 24.5995 27.9594H23.7076ZM24.414 27.7686C24.4318 27.5777 24.3212 27.4985 24.1357 27.4985C23.968 27.4985 23.8146 27.5777 23.7468 27.7686H24.414Z" fill="#71706F"/>
<path d="M25.2132 27.3113L25.2025 27.4589C25.3095 27.3185 25.438 27.2861 25.5557 27.2861C25.6628 27.2861 25.7591 27.3257 25.8091 27.3797L25.6699 27.5813C25.62 27.5345 25.57 27.5129 25.4879 27.5129C25.331 27.5129 25.174 27.6101 25.1383 27.8154L25.0312 28.4131H24.8029L24.9991 27.3077H25.2132V27.3113Z" fill="#71706F"/>
<path d="M26.9187 27.3113L27.0328 28.1863L27.4539 27.3113H27.7072L27.1328 28.4167H26.8652L26.7546 27.6894L26.5797 28.0494L26.3871 28.4167H26.1195L25.9268 27.3113H26.1837L26.2979 28.1863L26.7189 27.3113H26.9187Z" fill="#71706F"/>
<path d="M28.0033 27.9594C27.9962 28.1106 28.1139 28.2367 28.3137 28.2367C28.4243 28.2367 28.5706 28.1935 28.6527 28.1178L28.7776 28.2619C28.642 28.3879 28.4422 28.4527 28.2709 28.4527C27.9534 28.4527 27.7678 28.2619 27.7678 27.9666C27.7678 27.5777 28.0711 27.2861 28.46 27.2861C28.8168 27.2861 29.0166 27.5021 28.8953 27.9594H28.0033ZM28.7098 27.7686C28.7276 27.5777 28.617 27.4985 28.4315 27.4985C28.2638 27.4985 28.1104 27.5777 28.0426 27.7686H28.7098Z" fill="#71706F"/>
<path d="M29.5268 27.3112L29.3342 28.4167H29.1058L29.2985 27.3112H29.5268ZM29.3234 27.0124C29.3234 27.0916 29.3805 27.1312 29.4448 27.1312C29.534 27.1312 29.616 27.0736 29.616 26.962C29.616 26.8863 29.5625 26.8431 29.5018 26.8431C29.4162 26.8467 29.3234 26.9008 29.3234 27.0124Z" fill="#71706F"/>
<path d="M30.5437 27.5849C30.4723 27.5057 30.3796 27.4805 30.2725 27.4805C30.1227 27.4805 30.0121 27.5309 30.0121 27.6281C30.0121 27.711 30.0977 27.7434 30.2297 27.7542C30.4295 27.7722 30.6864 27.8406 30.6329 28.125C30.5936 28.3303 30.3903 28.4527 30.1048 28.4527C29.9264 28.4527 29.7552 28.4131 29.6374 28.2475L29.7873 28.0818C29.8693 28.1971 30.0156 28.2439 30.1441 28.2475C30.2547 28.2475 30.3831 28.2079 30.4045 28.1034C30.4259 28.0026 30.3367 27.9666 30.1762 27.9522C29.9871 27.9342 29.7837 27.8658 29.7837 27.6533C29.7837 27.3761 30.0798 27.2789 30.3046 27.2789C30.4759 27.2789 30.5972 27.3185 30.7007 27.4265L30.5437 27.5849Z" fill="#71706F"/>
<path d="M31.2715 27.3113L31.1681 27.9054C31.1324 28.0962 31.218 28.2259 31.4107 28.2259C31.5926 28.2259 31.7461 28.0746 31.7746 27.891L31.8745 27.3113H32.1029L31.9102 28.4167H31.7032L31.7175 28.2583C31.5891 28.3807 31.4606 28.4419 31.3072 28.4419C31.036 28.4419 30.8755 28.2475 30.9361 27.9126L31.0396 27.3149H31.2715V27.3113Z" fill="#71706F"/>
<path d="M33.1126 28.4167L33.2196 27.8262C33.2517 27.6353 33.1875 27.5093 32.977 27.5093C32.795 27.5093 32.6416 27.6569 32.6095 27.8406L32.5096 28.4203H32.2812L32.4739 27.3149H32.6844L32.6666 27.4769C32.795 27.3581 32.927 27.3005 33.0698 27.3005C33.3374 27.3005 33.5122 27.4877 33.4515 27.8262L33.3445 28.4203H33.1126V28.4167Z" fill="#71706F"/>
<path d="M33.8904 28.5679C33.8761 28.7192 33.9903 28.7804 34.183 28.7804C34.3542 28.7804 34.5362 28.6868 34.579 28.4419L34.6111 28.2511C34.5112 28.3915 34.3292 28.4491 34.1901 28.4491C33.9082 28.4491 33.712 28.2799 33.712 27.9738C33.712 27.5381 34.0331 27.2861 34.397 27.2861C34.5504 27.2861 34.6896 27.3617 34.7395 27.4877L34.7788 27.3113H35L34.8073 28.4491C34.736 28.8704 34.4256 29 34.1437 29C33.8048 29 33.6192 28.8344 33.6656 28.5679H33.8904ZM33.9546 27.9342C33.9546 28.125 34.0759 28.2367 34.2543 28.2367C34.7288 28.2367 34.8573 27.5021 34.3828 27.5021C34.158 27.5021 33.9546 27.6713 33.9546 27.9342Z" fill="#71706F"/>
</g>
<defs>
<clipPath id="clip0_10170_5389">
<rect width="29" height="18" fill="white" transform="translate(6 11)"/>
</clipPath>
</defs>
</svg>
