<svg width="40" height="40" viewBox="0 0 40 40" fill="none" xmlns="http://www.w3.org/2000/svg">
<rect width="40" height="40" rx="4" fill="white"/>
<rect width="40" height="40" rx="4" fill="black"/>
<rect x="0.5" y="0.5" width="39" height="39" rx="3.5" stroke="white" stroke-opacity="0.01"/>
<g clip-path="url(#clip0_13202_9837)">
<path d="M11.5625 16.9329V18.7145H13.1434V26.4477H15.78V18.7145H17.6006V16.9329H15.78V16.3618C15.78 15.9372 15.8456 15.6996 16.0114 15.5239C16.1674 15.3579 16.4383 15.275 16.829 15.275C17.1622 15.275 17.5119 15.3026 17.7483 15.3303V13.3795C17.2821 13.3323 16.6172 13.3063 16.3545 13.3063C15.2776 13.3063 14.4715 13.5764 13.9396 14.1165C13.4077 14.6567 13.1418 15.3498 13.1418 16.1959V16.9329H11.5625Z" fill="white"/>
<path fill-rule="evenodd" clip-rule="evenodd" d="M25.801 18.093V13.3063H28.4375V26.4477H25.9307V25.234H25.8929C25.2789 26.272 24.202 26.6934 22.951 26.6934C20.3473 26.6934 18.6761 24.7296 18.6761 21.6155C18.6761 18.0848 21.0089 16.6742 22.8082 16.6742C23.9935 16.6742 25.118 17.0891 25.7649 18.093H25.801ZM21.3061 21.6919C21.3061 23.5711 22.1844 24.7377 23.5978 24.7377C25.0622 24.7377 25.8896 23.6378 25.8896 21.6919C25.8896 19.746 25.0622 18.6462 23.5978 18.6462C22.1844 18.6462 21.3061 19.8144 21.3061 21.6919Z" fill="white"/>
</g>
<defs>
<clipPath id="clip0_13202_9837">
<rect width="18" height="13.5" fill="white" transform="translate(11 13.25)"/>
</clipPath>
</defs>
</svg>
