<svg width="40" height="40" viewBox="0 0 40 40" fill="none" xmlns="http://www.w3.org/2000/svg">
<rect x="0.5" y="0.5" width="39" height="39" rx="3.5" fill="white"/>
<rect x="0.5" y="0.5" width="39" height="39" rx="3.5" stroke="#DBD9D7"/>
<path fill-rule="evenodd" clip-rule="evenodd" d="M20.2659 15.7428H8.90675C8.30391 15.7438 7.81618 16.1883 7.815 16.7376V23.3425C7.81618 23.8917 8.30391 24.3363 8.90675 24.3374H20.2659V15.7428Z" fill="white"/>
<path fill-rule="evenodd" clip-rule="evenodd" d="M8.90675 15.7427C8.30391 15.7437 7.81618 16.1882 7.815 16.7376V16.7376V23.3424V23.3425C7.81501 23.3468 7.81505 23.351 7.81512 23.3553C7.81565 23.3883 7.81794 23.421 7.82191 23.4532C7.8832 23.9502 8.345 24.3363 8.90675 24.3373H20.2659V24.3373V15.7428V15.7427H8.90675ZM8.90675 15H30.6465C31.6996 15.0002 32.5528 15.7776 32.5532 16.7376V23.3425C32.5528 24.3022 31.6996 25.0797 30.6465 25.08H8.90675C7.85352 25.0797 7.00036 24.3022 7 23.3425V16.7376C7.00036 15.7776 7.85352 15.0002 8.90675 15Z" fill="#0F3365"/>
<path fill-rule="evenodd" clip-rule="evenodd" d="M22.1249 22.2621H21.1713V18.732H22.0509V19.186H22.0615C22.2522 18.8334 22.655 18.6741 23.0896 18.6741C23.8527 18.6741 24.271 19.3357 24.271 19.944C24.271 20.6878 23.8312 21.3059 23.0099 21.3059C22.6761 21.3059 22.3158 21.195 22.1356 20.8956H22.1249V22.2621ZM22.7081 20.6395C23.0682 20.6395 23.2855 20.3644 23.2855 19.9635C23.2855 19.6301 23.0789 19.3405 22.7081 19.3405C22.3582 19.3405 22.1249 19.6207 22.1249 19.9972C22.1249 20.3644 22.3901 20.6395 22.7081 20.6395ZM27.9254 22.2621C28.1216 22.3009 28.3175 22.3202 28.519 22.3202C29.3439 22.3202 29.5744 21.7742 29.8246 21.1817C29.8396 21.1461 29.8547 21.1103 29.87 21.0744L30.8823 18.732H29.9285L29.3614 20.3739H29.3508L28.7573 18.732H27.7297L28.8472 21.3059C28.7787 21.5281 28.5985 21.6537 28.3657 21.6537C28.2328 21.6537 28.1162 21.6395 27.9893 21.6005L27.9254 22.2621ZM27.57 21.3298C27.5277 21.1319 27.5168 20.934 27.5168 20.7359V19.799C27.5168 19.0312 26.9076 18.7561 26.2028 18.7561C25.7946 18.7561 25.4397 18.809 25.1006 18.9348L25.1163 19.5238C25.3815 19.3887 25.6887 19.3355 25.9959 19.3355C26.3405 19.3355 26.6215 19.4273 26.6267 19.7702C26.5048 19.7508 26.3354 19.7361 26.1817 19.7361C25.673 19.7361 24.7563 19.8282 24.7563 20.5959C24.7563 21.1418 25.2438 21.3881 25.7896 21.3881C26.1817 21.3881 26.4466 21.2478 26.6638 20.934H26.6741C26.6741 21.0106 26.6797 21.0872 26.6854 21.1647L26.6854 21.1647C26.6894 21.2192 26.6934 21.2741 26.6955 21.3298H27.57ZM25.6463 20.5333C25.6463 20.2918 25.9006 20.2001 26.2239 20.2001C26.3253 20.2001 26.4239 20.2049 26.5161 20.2094L26.5161 20.2094L26.5162 20.2094C26.5542 20.2113 26.5911 20.2131 26.6267 20.2145C26.6267 20.5089 26.399 20.8087 26.0384 20.8087C25.8159 20.8087 25.6463 20.7069 25.6463 20.5333Z" fill="#FFFFFE"/>
<path fill-rule="evenodd" clip-rule="evenodd" d="M12.8822 21.2477H13.8359V18.7319H12.8822V21.2477ZM12.8822 18.3214H13.836V17.684H12.8822V18.3214ZM16.1686 18.674C16.2797 18.674 16.3963 18.6885 16.4917 18.7027L16.4439 19.4272C16.3381 19.3983 16.232 19.3983 16.1209 19.3983C15.6758 19.3983 15.4266 19.6929 15.4266 20.1856V21.2478H14.4729V18.7319H15.3419V19.1954H15.3524C15.5168 18.8768 15.7553 18.674 16.1686 18.674ZM19.7393 19.9925C19.7393 20.8231 19.0451 21.3059 18.1339 21.3059C17.2226 21.3059 16.5284 20.8231 16.5284 19.9925C16.5284 19.1568 17.2226 18.674 18.1339 18.674C19.0451 18.674 19.7393 19.1568 19.7393 19.9925ZM17.5139 19.9925C17.5139 20.3643 17.6941 20.6974 18.1339 20.6974C18.5737 20.6974 18.7539 20.3643 18.7539 19.9925C18.7539 19.6157 18.5737 19.2825 18.1339 19.2825C17.6941 19.2825 17.5139 19.6157 17.5139 19.9925ZM11.3602 18.7319H12.2241V20.9535C12.2241 21.9867 11.673 22.3201 10.5603 22.3201C10.1046 22.3201 9.72839 22.233 9.50577 22.1608L9.55358 21.475C9.84494 21.6054 10.0887 21.6826 10.4861 21.6826C11.0373 21.6826 11.3339 21.446 11.3339 20.9535V20.818H11.3231C11.0954 21.1129 10.7776 21.2478 10.3961 21.2478C9.63828 21.2478 9.16669 20.7267 9.16669 19.9827C9.16669 19.2341 9.55358 18.674 10.4119 18.674C10.8198 18.674 11.1484 18.8768 11.3498 19.1858H11.3602V18.7319ZM10.6928 19.3405C10.3378 19.3405 10.1523 19.6254 10.1523 19.9681C10.1523 20.3592 10.4067 20.5816 10.6928 20.5816C11.0318 20.5816 11.3021 20.3208 11.3021 19.9343C11.3021 19.6541 11.1219 19.3405 10.6928 19.3405Z" fill="#D8232A"/>
<path d="M7 23.3425V16.7376V23.3425ZM7 23.3425C7.00036 24.3022 7.85352 25.0797 8.90675 25.08L7 23.3425ZM8.90675 14.9H8.90673C7.80722 14.9002 6.90038 15.7138 6.9 16.7376V16.7376L6.9 23.3425L6.9 23.3425C6.90038 24.366 7.80722 25.1797 8.90672 25.18H8.90675H30.6465H30.6465C31.7459 25.1797 32.6528 24.366 32.6532 23.3425V23.3425V16.7376V16.7376C32.6528 15.7138 31.7459 14.9002 30.6465 14.9H8.90675Z" stroke="white" stroke-width="0.2"/>
</svg>
