<svg width="40" height="40" viewBox="0 0 40 40" fill="none" xmlns="http://www.w3.org/2000/svg">
<rect x="0.5" y="0.5" width="39" height="39" rx="3.5" fill="white"/>
<rect x="0.5" y="0.5" width="39" height="39" rx="3.5" stroke="#DBD9D7"/>
<path fill-rule="evenodd" clip-rule="evenodd" d="M19.0578 22.8221V19.8875H20.5725C21.1931 19.8875 21.717 19.6795 22.144 19.2694L22.2465 19.1654C23.0266 18.3162 22.9754 16.9933 22.144 16.2076C21.7284 15.7917 21.159 15.5664 20.5725 15.5779H18.1411V22.8221H19.0578ZM19.0579 18.9978V16.4675H20.5956C20.9259 16.4675 21.2391 16.5946 21.4726 16.8257C21.9681 17.3109 21.9795 18.1197 21.5011 18.6223C21.2676 18.8707 20.9373 19.0093 20.5956 18.9978H19.0579ZM26.5228 18.2526C26.1299 17.8887 25.5947 17.7038 24.9171 17.7038C24.0459 17.7038 23.3911 18.0273 22.9583 18.6685L23.7669 19.1827C24.063 18.7436 24.4673 18.5241 24.9797 18.5241C25.3043 18.5241 25.6175 18.6454 25.8623 18.865C26.1015 19.0729 26.2381 19.3733 26.2381 19.691V19.9048C25.8851 19.7084 25.4409 19.6044 24.8943 19.6044C24.2566 19.6044 23.7441 19.7546 23.3626 20.0608C22.9811 20.3669 22.7875 20.7713 22.7875 21.2855C22.7761 21.7534 22.9754 22.1982 23.3284 22.4986C23.6872 22.8221 24.1427 22.9839 24.6779 22.9839C25.31 22.9839 25.8111 22.7008 26.1926 22.1347H26.2324V22.8221H27.1093V19.7661C27.1093 19.1249 26.9157 18.6165 26.5228 18.2526ZM24.0347 21.9094C23.8467 21.7707 23.7328 21.5454 23.7328 21.3028C23.7328 21.0313 23.8581 20.806 24.103 20.6269C24.3536 20.4478 24.6668 20.3554 25.037 20.3554C25.5495 20.3496 25.9482 20.4652 26.2329 20.6962C26.2329 21.0891 26.0792 21.4299 25.7773 21.7187C25.504 21.996 25.1338 22.152 24.7465 22.152C24.4903 22.1578 24.2397 22.0711 24.0347 21.9094ZM29.0795 25L32.1429 17.8655H31.1464L29.7286 21.4241H29.7115L28.2595 17.8655H27.2631L29.2731 22.5044L28.1343 25H29.0795Z" fill="#3C4043"/>
<path d="M15.8929 19.252C15.8929 18.9689 15.8701 18.6859 15.8246 18.4086H11.9583V20.0088H14.1733C14.0822 20.5229 13.7861 20.9851 13.3533 21.2739V22.3137H14.6744C15.4488 21.5916 15.8929 20.5229 15.8929 19.252Z" fill="#4285F4"/>
<path d="M11.9585 23.3189C13.0631 23.3189 13.997 22.9492 14.6745 22.3138L13.3535 21.2739C12.9834 21.5281 12.5108 21.6725 11.9585 21.6725C10.888 21.6725 9.98262 20.9389 9.65806 19.9568H8.29717V21.0313C8.99185 22.4351 10.4097 23.3189 11.9585 23.3189Z" fill="#34A853"/>
<path d="M9.6582 19.9568C9.48735 19.4427 9.48735 18.8823 9.6582 18.3624V17.2937H8.2971C7.71052 18.4664 7.71052 19.8529 8.2971 21.0256L9.6582 19.9568Z" fill="#FBBC04"/>
<path d="M11.9585 16.6467C12.545 16.6351 13.1087 16.8604 13.53 17.2706L14.703 16.0805C13.9571 15.3757 12.9777 14.9887 11.9585 15.0003C10.4097 15.0003 8.99185 15.8899 8.29717 17.2937L9.65806 18.3682C9.98262 17.3803 10.888 16.6467 11.9585 16.6467Z" fill="#EA4335"/>
</svg>
