<svg width="40" height="40" viewBox="0 0 40 40" fill="none" xmlns="http://www.w3.org/2000/svg">
<rect width="40" height="40" rx="4" fill="#FF6600"/>
<rect x="0.5" y="0.5" width="39" height="39" rx="3.5" stroke="white" stroke-opacity="0.01"/>
<g clip-path="url(#clip0_10305_6436)">
<path d="M32.9567 23.0465C32.9976 22.7916 32.9976 22.5392 32.9976 22.3701C32.9135 22.2867 32.786 22.2426 32.7019 22.2426C32.7019 22.1176 32.6586 21.9461 32.7019 21.7769C32.7836 21.7769 32.9543 21.8186 32.9543 21.7769C32.9543 21.522 32.9111 21.2696 32.8702 21.1421C32.7836 21.1005 32.6586 21.0564 32.5312 21.0147C32.5312 20.8872 32.4903 20.7622 32.4471 20.6765C32.5745 20.6348 32.6586 20.6348 32.7428 20.6348C32.7428 20.6348 32.6586 20.2549 32.6178 20.0833C32.5312 20.0416 32.4062 20.0416 32.3221 20.0416C32.2788 19.9583 32.2379 19.8725 32.1946 19.7451C32.2788 19.7034 32.3653 19.7034 32.4471 19.6617C32.3629 19.451 32.3197 19.3652 32.2355 19.2377H31.9398C31.8989 19.1544 31.8557 19.0686 31.8557 18.9853C31.8989 18.9412 31.9807 18.8995 32.0239 18.8578C31.9807 18.7328 31.8965 18.6054 31.8124 18.5196C31.7282 18.5196 31.6441 18.5613 31.56 18.5196C31.5191 18.5196 31.3917 18.3505 31.4325 18.3505C31.4734 18.2647 31.56 18.223 31.6008 18.1814C31.4734 18.0122 31.4325 17.8848 31.3051 17.8015C31.221 17.8015 31.1368 17.8015 31.0527 17.8431C31.0527 17.8431 30.9686 17.7157 30.9253 17.674C30.7979 17.674 31.0094 17.4632 31.0094 17.4632C30.882 17.2941 30.757 17.1666 30.5887 16.9975C30.5022 16.9975 30.418 17.0809 30.3772 17.0809C30.3772 17.0809 30.2089 16.9534 30.2089 16.9117C30.2089 16.8284 30.3772 16.7843 30.3772 16.7843C30.3772 16.7843 30.0815 16.4461 29.8699 16.3186C29.7858 16.3603 29.7449 16.3603 29.6583 16.3603C29.5333 16.2328 29.3626 16.1495 29.3626 16.1495C29.3626 16.1495 29.4901 16.0637 29.4901 16.022C29.2785 15.8946 29.1943 15.8113 29.0261 15.6838C28.8578 15.6005 28.7736 15.473 28.6895 15.3456C28.3938 14.8799 28.0139 14.2034 27.086 14.076C27.086 14.076 27.2975 14.3725 27.4249 14.5833C27.4249 14.6111 27.3689 14.625 27.2567 14.625H26.961C26.8768 14.4975 26.8335 14.4559 26.7903 14.3701C26.7061 14.201 26.6653 14.1593 26.5787 14.0735C26.4104 13.9461 25.5666 14.4117 24.8478 14.5809C25.0185 14.7916 25.1868 14.9191 25.2276 15.0024C25.4392 15.2132 25.7349 15.5956 25.944 15.8921C25.9873 15.8505 26.0306 15.8088 26.1147 15.7647C26.6653 15.6814 26.6653 15.5539 26.6653 15.5539C26.6653 15.5539 26.2421 15.2132 26.5354 15.2132C26.5354 15.2132 26.747 15.2549 26.8311 15.1715C27.0427 15.1299 27.2951 15.0858 27.4225 15.1715C27.5908 15.299 27.675 15.4681 27.8024 15.5956C27.7182 15.5956 27.6341 15.5539 27.55 15.5539C27.2975 15.5098 27.0427 15.5539 26.8311 15.5956C26.8311 15.5956 27.1701 15.8921 27.2519 16.0196C27.1701 15.9779 26.9153 16.0196 26.9153 16.0196C26.7879 16.0613 26.6196 16.1029 26.5787 16.1029C26.4537 16.1446 26.3263 16.1029 26.2421 16.1446C26.4104 16.2279 27.1725 16.5245 27.55 16.5245C27.8865 16.5245 28.0981 16.4804 28.3938 16.3554C28.4347 16.3137 28.5188 16.272 28.5621 16.3137C28.7304 16.3554 28.8145 16.3995 28.8986 16.4828C29.9973 17.1617 31.221 18.7696 31.6008 19.6152C31.9807 20.4191 32.1898 21.3088 32.1898 22.1544C32.2331 23.2965 31.8533 24.397 31.0936 25.3725C30.6705 25.9216 29.8699 26.3872 29.0261 26.473C29.2785 26.7696 29.4059 27.2353 29.5333 27.6593C29.5333 27.6593 29.829 27.6176 29.9973 27.5318C29.9973 27.1936 29.7858 26.8137 29.7858 26.7279C29.7858 26.7279 30.0382 26.5588 30.2497 26.5588C30.2906 26.6863 30.418 26.897 30.5887 27.1936C30.757 27.1078 30.8844 27.0245 31.0094 26.897C31.0094 26.6863 30.882 26.4314 30.7979 26.1789C31.0936 26.0515 31.2619 26.0098 31.2619 26.0098C31.346 26.1372 31.5576 26.2647 31.5984 26.3921C31.5984 26.3921 31.81 26.1814 31.8941 25.9681C31.8076 25.799 31.6826 25.6715 31.5984 25.5024L31.935 25.1225C31.935 25.1225 32.1466 25.2916 32.2307 25.3774C32.3581 25.2083 32.4831 25.0392 32.5264 24.826C32.3148 24.6152 32.2307 24.6152 32.1898 24.4877C32.274 24.3603 32.3172 24.1912 32.4014 24.0637C32.5288 24.1054 32.6129 24.1912 32.6971 24.2328C32.7788 24.0637 32.8654 23.8088 32.8654 23.6397C32.7788 23.5539 32.6538 23.5122 32.5697 23.4289C32.6105 23.2181 32.6538 23.0049 32.6538 23.0049C32.6538 23.0049 32.8654 23.0465 32.9495 23.0465H32.9567ZM18.9458 14.0318C18.9458 14.1593 18.989 14.2867 19.0323 14.4117C19.2415 14.5392 19.4963 14.6225 19.4963 14.6225C19.5372 14.4951 19.453 14.3676 19.453 14.2426C19.3713 13.9461 19.2415 13.6495 19.2006 13.3113V13.1421C19.0323 13.0588 18.8616 13.0147 18.6501 12.9314C18.6501 12.9314 18.6501 13.1863 18.7342 13.3137C18.8184 13.5245 18.9458 13.8627 18.9458 14.0318ZM19.1141 15.0882C19.1573 15.174 19.2415 15.174 19.3256 15.2157C19.4098 15.299 19.4939 15.3431 19.6213 15.4265C19.7896 15.5956 19.8737 15.8088 20.0853 15.9755C20.1694 16.0171 20.2127 16.0613 20.2536 16.0613C20.2945 16.0613 20.4651 16.1887 20.506 16.2304C20.506 15.8921 20.3786 15.6372 20.2945 15.4681C20.2945 15.4265 20.2512 15.3848 20.167 15.3407C20.0396 15.2132 19.9146 15.0858 19.8713 15.0858C19.7439 14.9583 19.6598 14.8333 19.5348 14.7059C19.4074 14.7059 19.3232 14.8333 19.2391 14.875C19.1982 14.9583 19.0299 15.0441 19.1116 15.0858L19.1141 15.0882ZM19.7896 16.1054C19.7487 16.1054 19.6213 16.0637 19.4506 16.022H19.2391C19.2799 16.1495 19.4074 16.2769 19.4506 16.3603C19.4506 16.4019 19.4506 16.5294 19.4939 16.6152C19.578 16.6152 19.7031 16.6568 19.7896 16.701C19.8329 16.701 20.0853 16.7426 20.1694 16.8284C20.2536 16.8284 20.5493 17.1666 20.5926 17.2083C20.7176 17.2941 20.845 17.3774 20.9291 17.3358C21.0133 17.3358 20.9291 17.2083 20.9291 17.1666C20.7608 16.9117 20.6334 16.4485 20.5926 16.4485C20.4651 16.4068 20.381 16.4485 20.2127 16.3627C20.1286 16.2794 19.8761 16.1519 19.7896 16.1078V16.1054ZM27.1773 24.7402C27.3023 24.7818 27.3865 25.0784 27.4706 25.1642C27.598 25.3333 27.5548 24.8676 27.5139 24.7843C27.5139 24.7426 27.5139 24.4044 27.4298 24.4044C27.3865 24.3627 27.3456 24.2353 27.3023 24.1936C27.2591 24.3211 27.3023 24.4044 27.3023 24.5318C27.3023 24.6176 27.1341 24.701 27.1773 24.7426V24.7402ZM12.6134 13.2279C12.9091 13.0588 13.4164 12.7622 13.5847 12.5931C13.6279 12.6789 14.1352 12.9755 14.3444 13.1005C14.5126 13.2279 14.6809 13.2696 14.8492 13.3554C14.9334 13.2304 15.0175 13.1005 15.1016 12.8064C15.2291 12.8921 15.3973 12.8921 15.5224 12.9338C15.5224 13.1029 15.5224 13.272 15.5656 13.4436C15.5656 13.5269 15.6498 13.4853 15.8181 13.4019C16.0705 13.3186 16.3229 13.2745 16.4503 13.2328C16.7436 13.0637 16.9143 12.7255 17.1668 12.7255C17.3783 12.7255 17.7582 12.8529 17.8423 12.9363C17.9697 12.9804 18.0539 13.022 18.1813 13.022C18.3496 13.022 18.477 12.8529 18.602 12.7671C18.2221 12.5147 17.8014 12.2598 17.3783 12.0907C17.1259 12.3015 16.9552 12.4706 16.8302 12.4706C16.7052 12.4706 16.7869 12.2181 16.7869 12.0465C16.6595 12.0465 16.5753 12.0465 16.4503 12.0049C16.3662 12.3015 16.3229 12.6838 16.1138 12.7671C16.0296 12.8088 15.9863 12.8088 15.9455 12.8088V12.4706C15.9455 12.4289 16.1138 12.1323 16.0729 12.0907C16.0729 12.0907 15.6931 12.174 15.6089 12.2181C15.5656 12.2598 15.3132 12.3872 15.2699 12.3872C15.2699 12.3872 15.1425 12.3456 15.1016 12.3456C14.9742 12.2622 14.8901 12.2622 14.7651 12.1765C14.5968 12.6838 14.5535 12.8113 14.5535 12.7279C14.5535 12.7279 13.9621 12.348 13.753 12.0931C13.2024 12.1765 13.2024 12.2622 12.7384 12.4314C12.5702 12.6005 12.3177 12.8113 12.147 13.0662C12.0629 13.2353 11.9788 13.3211 11.8946 13.4877L12.3153 13.6568C12.3586 13.6152 12.5678 13.3186 12.611 13.2353L12.6134 13.2279ZM21.9412 20.2108C22.0254 20.2941 22.0687 20.4657 22.1095 20.7598C22.1528 20.9289 22.2369 20.9706 22.3211 21.2255C22.4485 21.1421 22.6601 21.1838 22.6601 21.1838C22.6601 20.973 22.5327 20.7598 22.5327 20.7181C22.4894 20.6323 22.3644 20.3774 22.3211 20.2941C22.3644 20.2941 22.4894 20.4632 22.7009 20.4632C22.7442 20.4632 22.8716 20.5049 22.9534 20.4632C22.9534 20.4632 23.0784 20.549 23.0784 20.6323C23.1625 20.7598 23.1625 20.8431 23.2058 20.9706C23.2875 20.9706 23.3308 20.9706 23.3741 20.9289C23.5424 20.9289 23.6265 20.8872 23.6265 20.8872C23.5856 20.8039 23.5424 20.7181 23.5424 20.6323C23.4991 20.549 23.4174 20.3358 23.4174 20.3358L24.177 20.2083C24.177 20.0809 24.1362 19.9117 24.0088 19.826C23.6289 19.9534 23.2082 19.9951 22.9125 19.9951C22.4894 19.9951 22.0687 19.9093 21.4773 19.6568C21.434 19.7402 21.4773 19.9093 21.4773 19.9093C21.7297 20.1225 21.7297 19.9951 21.9412 20.2059V20.2108ZM20.5469 17.7549C20.631 18.0931 20.7584 18.5171 20.8017 19.0245C20.8017 19.1519 20.7584 19.2794 20.8017 19.4068L21.3907 19.6176C21.3907 19.6176 21.309 19.1103 21.2224 18.5171C21.1383 18.0098 21.095 17.8407 20.97 17.6274C20.8859 17.6691 20.8426 17.6691 20.7584 17.6691C20.631 17.7108 20.5469 17.7524 20.5469 17.7524V17.7549ZM26.9201 19.5318C26.372 18.9828 25.7806 18.6421 25.1892 18.6421C24.6843 18.6421 24.3021 19.022 24.3021 19.4044C24.3021 20.9289 24.8935 21.9019 25.2733 22.7475C25.3983 22.9583 25.4416 23.1274 25.4416 23.3407C25.4849 23.8921 25.0209 24.9068 24.7252 25.4559C24.6843 25.4142 24.4727 25.3725 24.3021 25.3725C23.8813 25.3725 23.7106 25.6666 23.6265 25.9215C23.4991 25.9215 23.4174 25.8382 23.2875 25.8382C22.7827 25.7965 22.3596 26.2598 22.3596 26.7696C22.3596 27.3186 22.4846 27.6152 22.6961 27.9975H23.1192C23.076 27.8701 22.951 27.2353 22.9077 27.0662C22.8668 26.8137 22.951 26.6421 23.076 26.5147C23.2443 26.2598 23.6674 26.3456 23.6674 26.3456C23.5424 26.5564 23.3717 26.8946 23.3717 27.2328C23.4149 27.4461 23.4558 27.7843 23.5832 27.9951H23.9198C24.0015 27.7402 23.9198 27.5294 23.9198 27.3162C23.9198 27.1912 23.9198 27.0637 23.9607 26.9363C23.9607 26.8529 24.1722 27.1054 24.1722 27.1054C24.1722 27.1054 24.3405 26.8946 24.3405 26.7255C24.3405 26.598 24.0881 26.6421 24.0472 26.5147C24.0039 26.3872 24.1314 26.0907 24.1314 26.0907C24.3838 25.9216 24.5953 25.9632 24.6795 25.9632C24.8045 25.9632 24.8478 26.0049 25.0161 26.0049C25.1411 26.0049 25.1843 25.7524 25.1843 25.625C25.2252 25.6666 25.3526 25.7524 25.3959 25.7524C25.5233 25.7941 25.5642 25.7941 25.6916 25.8358C25.8599 25.9191 26.0306 26.0049 26.1989 26.174V26.1323C26.1556 25.9632 26.2397 25.7524 26.1147 25.6666C26.1147 25.6666 25.9032 25.4975 25.7349 25.4117C25.6507 25.3284 25.5233 25.3284 25.4825 25.2426C25.4392 25.201 25.4392 25.1568 25.4392 25.0735C25.4392 24.9902 25.4825 24.8627 25.5233 24.8627C25.6075 24.8211 25.6507 24.8627 25.819 24.9461C25.9873 25.0318 26.1556 25.1593 26.283 25.2426C26.283 25.2426 26.3239 25.326 26.3239 25.2843C26.4922 25.201 26.4922 25.1568 26.4922 24.9044C26.3239 24.6912 26.4922 24.6495 26.2397 24.4804C26.1556 24.4804 25.6916 24.3113 25.6916 24.3113C25.6916 24.2255 25.819 24.0147 25.819 24.0147C25.8623 23.973 25.944 23.973 25.9873 24.0564C26.2397 24.2255 26.408 24.2255 26.6629 24.3113C26.7037 24.1838 26.7037 24.1005 26.6196 24.0147C26.533 23.8872 26.408 23.7598 26.3239 23.7181C26.1556 23.6765 26.0715 23.6348 25.944 23.5907C25.944 23.4632 25.9032 23.3358 25.8599 23.1666C25.8599 23.0809 25.944 23.125 26.0282 23.125C26.1965 23.0833 26.9129 23.3358 26.9129 23.3358C26.9129 23.1666 26.8696 23.0392 26.7855 22.9559C26.7013 22.8701 26.6172 22.7867 26.4056 22.701C26.1099 22.6152 25.8575 22.6593 25.6459 22.5318C25.4776 22.3627 25.4344 22.3211 25.3935 22.1519C25.5209 22.1103 25.7301 22.0686 25.8575 22.0686C26.069 22.0686 26.1965 22.0269 26.4489 22.1103C26.5306 22.1519 26.8287 22.4068 26.9562 22.4068C26.9562 22.4068 26.872 22.0686 26.7855 21.9412C26.6605 21.9412 26.4489 21.6863 26.3647 21.6446C25.9416 21.4755 25.8575 21.5613 25.6051 21.6029C25.4801 21.6446 25.3526 21.6029 25.2252 21.6029C25.1843 21.5196 25.3094 21.3921 25.2685 21.3064C25.2685 21.2647 25.0978 21.2206 25.0978 21.1372C25.0978 21.1372 25.7733 21.0515 26.0282 21.0956C26.1123 21.1372 26.3647 21.3088 26.4513 21.3088C26.4513 21.3088 26.533 21.0122 26.408 20.7573C26.1989 20.7157 25.9873 20.7573 25.8166 20.7157C25.6483 20.674 25.48 20.7157 25.3526 20.7157C25.2252 20.7157 25.0978 20.674 24.9728 20.674C24.8886 20.5465 24.8454 20.4191 24.8454 20.2941C24.8454 20.2941 25.9008 20.2524 25.9849 20.2108C25.9416 20.1666 25.8575 20.1274 25.8166 20.0416C25.6483 19.7451 25.5209 19.7034 25.3094 19.7034C25.1819 19.7034 24.8886 19.8309 24.718 19.7867C24.718 19.4485 24.8862 19.1519 25.1387 19.1519C25.6459 19.1519 26.1508 19.3627 26.5739 19.8284C27.6293 20.9289 28.1774 23.0024 28.1774 24.4853C28.1774 25.1617 28.0933 25.7966 28.0091 26.3039C28.1366 26.3456 28.2183 26.3456 28.3457 26.3456C28.4731 25.8382 28.5981 25.1593 28.5981 24.5245C28.5981 22.3652 27.8385 20.5465 26.9105 19.5294L26.9201 19.5318ZM18.8184 16.3162C18.7775 16.3578 18.7342 16.4436 18.7342 16.4853C18.6501 16.6127 18.5251 16.6985 18.6068 16.826C18.6501 16.9951 18.6501 17.1642 18.7775 17.2916C18.9049 17.4191 19.0732 17.375 19.2415 17.5024C19.2415 17.5024 19.1141 16.951 19.0323 16.6985C18.989 16.5294 18.9049 16.4436 18.8208 16.3186L18.8184 16.3162ZM24.0088 21.6495C23.9679 21.522 23.8405 21.4804 23.7563 21.3946C23.7563 21.3946 23.2082 21.1838 23.1241 21.1838C23.0399 21.2255 23.3356 21.3946 23.3765 21.4804C23.5448 21.6495 23.9679 22.0318 23.9679 22.0318L24.0088 21.6519V21.6495ZM20.0012 18.8554C20.1286 18.8554 20.2127 18.9387 20.2969 18.9387C20.2969 18.8137 20.2536 18.7279 20.2127 18.6005C20.1694 18.3897 20.0853 18.2622 20.042 18.1348C20.042 18.0073 20.042 17.924 20.0012 17.8382C19.9603 17.8382 19.917 17.8382 19.8737 17.7965C19.7463 17.7965 19.578 17.7549 19.578 17.7549C19.578 17.8823 19.6213 18.0931 19.6213 18.2206C19.6213 18.2622 19.7896 18.6446 19.8329 18.6863C19.8761 18.772 19.917 18.8137 20.0012 18.8554ZM27.3456 25.7549C27.3456 25.7132 27.2182 25.6274 27.1773 25.6274C27.1773 25.5858 27.1341 25.4142 27.0908 25.3725C27.0066 25.3309 27.0066 25.2867 26.9225 25.2867C26.9225 25.3284 26.9225 25.3725 26.8792 25.4559C26.8792 25.5392 26.7951 25.5833 26.8384 25.6666C26.8792 25.7524 26.9225 25.7524 27.0066 25.7941C27.0475 25.8358 27.1773 26.174 27.2182 26.2181C27.2615 26.1765 27.2615 25.9216 27.3456 25.7524V25.7549ZM24.0977 23.4265C24.266 23.299 24.3069 23.0465 24.3501 22.9191C24.3934 22.7916 24.3069 22.5392 24.266 22.4534C24.141 22.4534 24.0568 22.3676 23.9703 22.3676C23.8837 22.3676 23.8453 22.1568 23.7179 22.1985C23.7611 22.2843 23.8453 22.7059 23.8861 22.7916C23.9294 22.8333 24.0977 23.1299 24.0977 23.4265ZM28.6126 27.0662C28.6126 27.0662 28.5693 27.1936 28.5284 27.2769C28.4443 27.4902 28.4034 27.5735 28.4034 27.701C28.5284 27.7867 28.5717 27.7426 28.74 27.7426C28.8241 27.7426 28.9083 27.7867 28.9515 27.7867C29.0357 27.7426 28.9515 27.6593 28.9515 27.6176C28.9083 27.6176 28.74 27.2353 28.615 27.0662H28.6126ZM21.4797 20.8015C21.4797 20.8015 20.9724 20.5049 20.8883 20.3774C20.8033 20.3774 20.7192 20.4199 20.6358 20.5049C20.5517 20.5049 20.5084 20.549 20.4675 20.6323C20.595 20.7181 20.6358 20.7598 20.7633 20.8431C20.8065 20.8848 20.8474 20.8848 20.9748 20.8431H21.3138C21.3955 20.8431 21.4821 20.8848 21.4821 20.8015H21.4797ZM20.3401 19.8701C20.2993 19.7867 20.2127 19.6152 20.1718 19.5735C20.131 19.4902 20.0877 19.4044 20.0444 19.3627C20.0036 19.3211 19.8353 19.3627 19.7511 19.3627C19.667 19.3627 19.6237 19.3627 19.5396 19.4044C19.6237 19.4877 19.7079 19.7843 19.7511 19.7843C19.792 19.8676 19.792 19.9117 19.8786 19.9534C20.0901 19.9951 20.2584 19.9534 20.47 20.0367C20.5541 19.9093 20.3858 19.9093 20.3425 19.8676L20.3401 19.8701ZM23.5472 23.2132C23.5472 23.0858 23.5039 22.9583 23.4222 22.875C23.3789 22.7475 23.338 22.5784 23.338 22.4951C23.2947 22.4117 23.1265 22.1568 23.0423 22.0294C22.9582 21.9461 22.9582 21.7328 22.9149 21.6054L22.4076 21.6887C22.6625 22.0269 22.874 22.3652 22.999 22.7059C23.0423 22.8333 23.4222 24.1029 23.4222 24.1029C23.5472 24.0613 23.3789 23.424 23.4222 23.3823C23.463 23.299 23.463 23.2549 23.5472 23.2132ZM21.9004 21.7328C21.9004 21.3529 21.8162 21.3529 21.648 21.1814C21.648 21.1814 21.5205 21.4363 21.4364 21.5613C21.6047 21.7304 21.648 21.9412 21.648 21.9412C21.8162 21.772 21.8162 21.8137 21.9004 21.7304V21.7328ZM27.8096 27.5318H27.598C27.5139 27.4902 27.4706 27.4902 27.4298 27.5318C27.3023 27.6593 27.3023 27.8701 27.2182 27.9975H27.7255C27.8096 27.9117 27.8937 27.8701 27.8937 27.701C27.8937 27.6593 27.8937 27.5735 27.8096 27.5318ZM22.4076 22.6642C22.4076 22.6642 22.3235 22.4951 22.3235 22.4534C22.2826 22.3676 22.2394 22.2402 22.1119 22.1985C22.1119 22.1568 22.0687 22.3676 22.0278 22.4534C21.9845 22.5367 21.9845 22.4951 21.9004 22.6642C21.9845 22.7916 22.0278 22.875 22.1119 23.0024C22.1119 23.0441 22.2394 23.2132 22.2394 23.2132C22.2394 23.2132 22.4076 22.875 22.4076 22.7892V22.6617V22.6642ZM14.39 18.8529C14.5175 18.8529 14.6449 18.7279 14.7699 18.6838C15.0223 18.6005 15.2339 18.5147 15.4863 18.473C15.5728 18.4289 15.5728 18.3456 15.5728 18.2598C15.6017 18.2042 15.6161 18.134 15.6161 18.049C15.6161 18.0073 15.4478 17.9657 15.3613 17.7941C15.2771 17.6666 15.3613 17.5392 15.318 17.5392C15.193 17.6225 15.0223 17.7083 14.9814 17.5392C14.9382 17.4117 14.9382 17.2426 15.0656 17.201C15.4863 17.0318 15.9527 17.0318 16.3734 17.201C16.4575 17.201 16.4984 17.2867 16.4984 17.3701C16.5393 17.4534 16.4984 17.5392 16.4143 17.625C16.2869 17.6666 16.1594 17.4975 16.1594 17.625C16.1594 17.7524 16.0753 17.9215 15.8637 18.0073C15.8229 18.049 15.8637 18.1765 15.907 18.3039C15.907 18.3456 15.907 18.4289 15.9479 18.4289C16.1162 18.473 16.371 18.5147 16.496 18.598C16.6643 18.6814 16.96 18.9363 17.0033 18.8946C17.1283 18.8113 17.1716 18.6838 17.2557 18.598C17.7197 18.8088 18.0995 18.9363 18.6909 19.3186C18.7751 19.3186 18.7751 19.1495 18.7751 19.0637C18.5635 18.9363 17.9288 18.598 17.8471 18.5564C17.6788 18.5147 17.5947 18.4289 17.424 18.3872V18.049C17.7197 18.1323 18.3087 18.1765 18.9025 18.5147C18.9434 18.3872 19.0299 18.3039 18.9866 18.2598C18.3087 17.9215 17.8062 17.7941 17.3831 17.7941C17.3831 17.7524 17.299 17.7083 17.3831 17.6666C17.5105 17.5833 17.5514 17.5392 17.5947 17.4975C17.7197 17.3284 17.8062 17.1593 17.8471 16.9902C17.9745 16.7353 18.0995 16.8211 18.1861 16.2696C18.0587 16.2696 18.0154 16.3529 17.8904 16.397C17.9312 16.2696 17.9745 16.1421 17.9745 16.0171C18.0154 15.7622 18.1019 15.5931 18.1019 15.2965C18.2294 15.2549 18.4409 15.1274 18.4818 14.9583C18.4818 14.9166 18.4818 14.7892 18.5251 14.6201C18.5251 14.3652 18.5659 14.1544 18.4818 13.9853C18.4818 13.9436 18.1861 13.5196 17.9745 13.3921C17.6788 13.2647 17.5538 13.3088 17.3422 13.3505C17.0898 13.3505 16.7508 13.6054 16.7508 14.0711C16.4984 14.0711 15.9912 14.1127 15.6979 14.3676C15.4454 14.2402 15.2339 14.1985 15.0223 14.1568H14.6425C14.6016 13.9877 14.5151 13.8186 14.3468 13.6912C14.1352 13.5637 13.8804 13.3946 13.5871 13.3946C13.4597 13.3946 13.3347 13.3529 13.2072 13.4363C13.0798 13.5196 12.8707 13.6054 12.8274 13.7745C12.7432 13.9853 12.6591 14.1544 12.6591 14.3676C12.6591 14.5809 12.7865 14.7475 12.9115 14.9608C12.9524 15.0465 12.9957 15.0465 13.0798 15.0882C13.1231 15.0882 13.2914 15.174 13.3322 15.2157C13.3731 15.2573 13.2914 15.3848 13.2914 15.6397C13.2914 15.7802 13.305 15.9068 13.3322 16.0196C13.3322 16.1887 13.3731 16.3578 13.4164 16.4853C13.2914 16.4853 13.2048 16.3578 13.1207 16.4436C13.1207 16.5294 13.2048 16.7402 13.289 16.9093C13.5005 17.1201 13.7097 17.3333 13.8371 17.5858C13.8371 17.6274 13.8371 17.7132 13.878 17.7132C13.5823 17.7549 13.289 17.7549 12.9933 17.8407C12.7408 17.924 12.4451 18.0515 12.1927 18.1789C12.1927 18.348 12.2336 18.4755 12.2336 18.4755C12.2769 18.4755 12.6567 18.2622 12.9933 18.1789C13.5414 18.0098 13.8371 18.0515 13.8371 18.0515C13.878 18.1348 13.9212 18.2622 13.878 18.3064C13.3731 18.5171 12.8659 18.772 12.3995 19.0686C12.4427 19.1544 12.3995 19.2794 12.486 19.3652C12.9091 19.1103 13.4981 18.8162 13.9212 18.647C14.0895 18.6054 14.0895 18.647 14.1737 18.647C14.2145 18.6887 14.2987 18.8578 14.3828 18.8578L14.39 18.8529ZM17.0922 18.2598C16.9239 18.2181 16.7965 18.0907 16.585 18.0907C16.585 18.0073 16.5994 17.951 16.6282 17.9215C16.8807 17.8799 17.0081 17.9632 17.1331 18.0073C17.1331 18.049 17.0898 18.2598 17.0898 18.2598H17.0922ZM17.5562 15.6372C17.5129 15.7206 17.4288 15.7622 17.3447 15.8064C17.3014 15.8064 17.2605 15.8897 17.2605 15.9314C17.174 16.0588 17.049 16.1005 16.8807 16.1005C16.7965 16.1005 16.6282 16.1005 16.5417 15.9314C16.5417 15.9314 16.5826 16.4387 16.5826 16.5662C16.5826 16.6078 16.6258 16.6078 16.6258 16.6078C16.7941 16.6495 16.8374 16.8211 16.9215 16.9044C16.9215 16.9044 16.9648 16.9461 17.0081 16.9461C17.1764 17.0735 17.5562 17.2426 17.3879 17.2426C17.3879 17.3284 17.2629 17.5392 17.2196 17.5392C17.0922 17.4117 16.8807 17.3284 16.7124 17.2426C16.6715 17.1593 16.6282 17.0735 16.585 16.9902C16.5008 16.9044 16.46 16.9044 16.3325 16.8211C16.3325 16.5245 16.2917 16.5245 16.2917 16.2279C16.2917 16.1863 16.2075 15.7206 16.2075 15.7206C16.2075 15.6789 16.3349 15.5515 16.46 15.5098C16.46 15.5098 17.2629 15.5098 17.6404 15.5539C17.6404 15.5539 17.5995 15.6372 17.5562 15.6372ZM17.3014 13.8603C17.4288 13.7328 17.5995 13.6912 17.7654 13.7328C17.9769 13.7745 18.0178 13.8162 18.1019 13.9019C18.2294 14.0711 18.1885 14.4093 18.1428 14.6201C18.1019 14.7475 17.9745 14.8333 17.8471 14.8333C17.6355 14.5784 17.424 14.4093 17.1283 14.3235C17.085 14.1544 17.2148 13.9853 17.2966 13.8578L17.3014 13.8603ZM16.5008 14.7059C16.585 14.7059 17.3014 14.875 16.8374 15.0858C16.7532 15.1715 16.5417 15.1274 16.3301 15.1274C16.3301 15.0441 16.3301 14.875 16.246 14.875C16.1594 14.7892 16.0344 14.7892 16.0344 14.7059C15.8637 14.5367 16.2869 14.6642 16.4984 14.7059H16.5008ZM14.7699 14.875C14.8973 14.7892 15.0223 14.7059 15.1065 14.7059C15.1906 14.6642 15.3589 14.6201 15.3589 14.7059C15.3589 14.875 15.2315 14.9608 15.1065 15.1274C15.0199 15.2549 14.979 15.1691 14.7699 15.1691H14.5583C14.5583 15.0416 14.6449 15 14.7699 14.8725V14.875ZM13.5029 14.9166C13.4188 14.8333 13.2481 14.7059 13.164 14.5367C13.0389 14.3676 13.0798 14.1985 13.0798 14.1568C13.164 13.9019 13.4597 13.8186 13.6304 13.7769C13.7145 13.7769 13.7986 13.7769 13.9261 13.8627C14.0943 13.9461 14.1785 13.9461 14.2626 14.2426C14.2626 14.2867 14.2626 14.326 14.2194 14.326C14.2194 14.326 13.9669 14.4951 13.8804 14.5809C13.6712 14.7083 13.6279 14.9191 13.5005 14.9191L13.5029 14.9166ZM14.2194 17.076C14.3035 16.9485 14.4742 16.8652 14.5992 16.8235C14.7675 16.7818 14.7242 16.4436 14.7242 16.3995C14.7675 16.3137 14.7242 16.1887 14.7242 16.1029C14.6401 16.1446 14.6401 16.1029 14.4718 16.1446C14.3011 16.1446 14.2169 16.0588 14.1352 15.9755C14.0487 15.8921 13.8395 15.7206 13.7554 15.5539C13.9645 15.5098 14.1352 15.5098 14.3468 15.5098H14.8949C15.0199 15.5539 15.1065 15.6372 15.1065 15.7206C15.1065 15.7622 15.0656 16.0171 15.0656 16.0588C15.0223 16.3137 15.0223 16.397 14.9814 16.7794V16.9068C14.9382 16.9926 14.7699 17.0343 14.6857 17.1176C14.6425 17.2451 14.6425 17.3284 14.5175 17.3725C14.39 17.4142 14.3059 17.5416 14.2218 17.5C14.0943 17.4166 14.1376 17.2034 14.2218 17.076H14.2194ZM14.5151 17.9657C14.6016 17.9657 14.6833 17.9657 14.7675 18.0073C14.7242 18.049 14.5559 18.1348 14.5559 18.1348C14.4742 18.1765 14.4309 18.2181 14.3035 18.2622C14.2626 18.1789 14.2194 18.0098 14.2194 18.0098C14.2194 18.0098 14.3876 17.9681 14.5151 17.9681V17.9657ZM18.6501 20.0392C18.7775 20.2083 18.9049 20.3358 19.0323 20.4632C19.0732 20.549 19.2006 20.549 19.2847 20.549H19.7079C19.8353 20.5049 19.9194 20.5049 20.0036 20.4215C19.8353 20.3382 19.6237 20.2524 19.453 20.1666C19.2847 20.0833 19.1573 19.9975 19.0323 19.8701C18.9458 19.8701 18.9049 19.9117 18.8616 19.9117C18.7775 19.9559 18.7342 19.9975 18.6501 20.0392ZM20.5084 21.4779H20.72C20.8065 21.4779 20.8065 21.3088 20.72 21.3088C20.4243 21.223 20.1718 21.1397 20.0036 20.8848C19.9627 20.9265 19.7079 21.0122 19.6237 21.0956C19.6237 21.0956 19.7079 21.3088 19.9194 21.5196C20.0444 21.647 20.2993 21.5613 20.5108 21.4779H20.5084ZM26.247 27.6568C26.2061 27.7843 26.1628 27.8676 26.0787 27.9534C26.1219 27.9951 26.2061 27.9951 26.247 27.9951H26.6701C26.7109 27.9534 26.7109 27.826 26.7518 27.7402C26.7518 27.6568 26.7927 27.5711 26.7927 27.4436H26.5402C26.4152 27.4436 26.2878 27.5294 26.2445 27.6544L26.247 27.6568ZM22.8716 23.9314C22.8284 23.8456 22.7851 23.7181 22.7442 23.6348C22.7442 23.5931 22.7442 23.5073 22.7009 23.3799C22.7009 23.3799 22.4052 23.5907 22.3644 23.6348C22.5327 23.8456 22.4485 23.9755 22.4894 24.1421C22.4894 24.2255 22.6601 24.2696 22.7009 24.397C22.7009 24.4387 22.6192 24.8186 22.6192 24.8186C22.8716 24.4804 22.8716 24.0564 22.8716 23.9314ZM25.0641 26.174C24.8526 26.174 24.6002 26.4289 24.4319 27.2304C24.3886 27.5269 24.3477 27.7818 24.3886 27.951L24.7684 27.9926C24.8526 27.8652 24.8526 27.6544 24.9367 27.4853C24.9367 27.4019 25.0209 27.4019 25.105 27.4019C25.1916 27.4436 25.3598 27.6568 25.444 27.7402C25.4873 27.6568 25.5714 27.4853 25.5714 27.3603C25.5714 27.3186 25.444 27.2328 25.4031 27.2328C25.2781 27.1495 25.1916 27.0637 25.0233 27.0637C24.98 26.8946 25.2324 26.6838 25.2324 26.6838C25.5281 26.6838 25.8238 27.022 25.8238 27.022C25.908 26.9804 25.9488 26.8529 26.0354 26.7696C25.783 26.3039 25.3166 26.1765 25.0641 26.1765V26.174ZM21.6864 23.2108C21.6455 23.3382 21.5181 23.4216 21.5181 23.5907C21.5181 23.5907 21.7297 23.8015 21.7706 23.9289C21.8138 24.0122 21.7706 24.3946 21.8138 24.4779C21.9412 24.3505 22.0254 24.3088 22.0254 24.1397C21.9821 24.098 21.9412 23.7573 21.898 23.5049C21.898 23.4191 21.7706 23.2941 21.6864 23.2083V23.2108ZM17.8904 20.1617C17.8904 20.1617 17.9312 20.375 18.0154 20.5858C18.0587 20.6715 18.1428 20.7549 18.1861 20.7549C18.2678 20.7965 18.4385 20.8382 18.5659 20.8382V20.7549C18.4409 20.6274 18.2702 20.3309 18.2702 20.2475C18.2157 20.2198 18.146 20.2059 18.0611 20.2059C18.0178 20.1617 17.9337 20.1617 17.8928 20.1617H17.8904ZM19.9146 22.0662C19.8305 21.9828 19.7463 21.897 19.6189 21.8113C19.4482 21.7696 19.3665 21.6838 19.2799 21.5147C19.2391 21.4314 19.1958 21.3456 19.1116 21.2598C19.0299 21.2598 18.9866 21.3015 18.9025 21.3456C18.8159 21.4314 18.6477 21.4314 18.5635 21.5564C18.6044 21.6397 18.6477 21.7255 18.7318 21.8113C18.7751 21.8529 18.8159 21.9387 18.9866 22.022C19.2799 22.1912 19.3665 22.2328 19.3665 22.2328C19.6189 22.2745 19.9146 22.0637 19.9146 22.0637V22.0662ZM11.433 15.9363C11.4891 15.8529 11.5452 15.7827 11.6013 15.7255C11.772 15.598 11.8561 15.5147 12.0677 15.3456C12.1086 15.2598 12.1518 15.3039 12.2793 15.2181C12.3225 15.1765 12.3634 15.1323 12.3634 15.0907C12.3634 15.0073 12.3201 14.9215 12.2793 14.8382C12.236 14.7524 12.1518 14.5416 12.1518 14.4975C12.1518 14.1593 12.1951 14.076 12.236 13.7794C12.0677 13.7377 11.8561 13.7377 11.772 13.9068C11.6879 14.0343 11.6879 14.1617 11.6879 14.2892C11.6879 14.5 11.7287 14.6691 11.772 14.924C11.6013 15.0515 11.5172 15.1348 11.3513 15.2206C11.3922 15.4755 11.433 15.9387 11.433 15.9387V15.9363ZM17.8904 21.4804C17.7221 21.2255 17.6788 20.973 17.6788 20.9314C17.5947 20.8456 17.763 20.5515 17.5514 20.5515C17.4673 20.5073 17.2148 20.424 17.2148 20.424C17.1716 20.5515 17.1716 20.8039 17.2148 20.9314C17.2148 21.0588 17.424 21.4387 17.5081 21.4804C17.5514 21.522 17.7606 21.522 17.8038 21.522C17.8447 21.4804 17.888 21.4804 17.888 21.4804H17.8904ZM16.5826 19.9142C16.6667 19.8309 16.7508 19.6617 16.7508 19.6176C16.835 19.4485 16.835 19.2377 16.835 19.0686C16.4984 18.8554 16.0753 18.8137 15.6546 18.8137C15.2747 18.8137 14.8516 18.8554 14.4309 19.1519C14.4742 19.3211 14.5151 19.4485 14.5992 19.6176C14.6401 19.6176 14.6833 19.7034 14.7242 19.7034C14.8084 19.6176 14.8949 19.4926 15.0199 19.4485V19.6176C15.0199 19.7451 15.0199 19.8284 15.0632 19.9583C15.0632 20.0833 15.1906 20.0833 15.3589 20.0833C15.5272 20.0833 15.5704 19.7867 15.5704 19.7451C15.5704 19.7451 15.6137 19.9142 15.8637 20.0416C15.8637 20.0416 16.1594 20.0416 16.1594 20C16.2027 19.7892 16.246 19.7451 16.2027 19.576C16.2027 19.576 16.4551 19.7451 16.5826 19.9142ZM18.2294 22.6666C18.3976 22.7941 18.7342 22.75 19.0323 22.7083C18.8616 22.5809 18.8208 22.4951 18.7366 22.4117C18.6092 22.326 18.5275 22.2843 18.3568 22.1152H17.8086C17.8928 22.326 17.9337 22.4534 18.2294 22.6642V22.6666ZM20.72 24.2328C20.6791 24.1912 20.595 24.1495 20.5084 24.1078V24.2769C20.5084 24.4461 20.5493 24.4877 20.5493 24.5735C20.5493 24.6593 20.6767 25.25 20.6767 25.4191C20.8883 25.4608 20.8883 25.6323 21.0133 25.7157C21.0133 25.7157 20.9291 25.2083 20.9291 24.5735C20.9291 24.5318 20.8041 24.2769 20.7176 24.2328H20.72ZM11.6879 16.6985C11.7287 16.6568 12.1951 16.3186 12.236 16.2745C12.3201 16.1912 12.3634 16.2328 12.4043 16.147C12.4043 15.8921 12.4908 15.8921 12.4475 15.8088C12.4043 15.723 12.0677 15.8088 11.9836 15.8088C11.772 15.8505 11.3922 15.9779 11.3922 16.0613C11.3513 16.1887 11.3513 16.4828 11.3513 16.5269C11.3922 16.6519 11.3922 16.7818 11.433 16.9068C11.5604 16.7794 11.6013 16.7377 11.6879 16.6961V16.6985ZM16.5826 20.6765C16.4575 20.7598 16.3734 20.8039 16.3734 20.8872C16.3734 21.0564 16.4143 21.2255 16.4143 21.3113C16.4143 21.4387 16.4143 21.522 16.4575 21.5662C16.5826 21.6078 16.6258 21.6078 16.7941 21.6936C16.7941 21.7353 16.9624 21.8211 16.9624 21.8211C16.9624 21.8211 16.8783 21.4412 16.835 21.2696V20.5931C16.6667 20.6348 16.6234 20.6789 16.5826 20.6789V20.6765ZM16.0344 20.7598C15.8637 20.8015 15.5272 20.8431 15.5272 20.9706C15.4839 21.098 15.5272 21.2255 15.5272 21.3088C15.5704 21.3921 15.5704 21.4779 15.5704 21.6054C15.5704 21.6887 15.5272 21.7745 15.5704 21.9019C15.6137 21.8162 15.8229 21.7328 15.8637 21.647C15.9503 21.5196 16.0344 21.4363 16.0753 21.3088C16.1186 21.1814 16.0753 20.9706 16.0344 20.7573V20.7598ZM17.6812 23.0882C17.5538 23.0049 17.3422 22.75 17.2172 22.6225C17.1307 22.5392 17.174 22.4117 17.0898 22.326C17.0057 22.326 16.9215 22.326 16.8374 22.3676C16.71 22.3676 16.6258 22.3676 16.5008 22.4093C16.5417 22.4926 16.5417 22.5784 16.6282 22.6201C16.7965 22.7892 16.7965 22.8333 16.9648 23.0858C17.0081 23.1715 17.2196 23.2132 17.3879 23.2132C17.4745 23.2132 17.6404 23.1299 17.6836 23.0858L17.6812 23.0882ZM11.1373 18.3064C11.2215 18.1789 11.4763 17.9265 11.6013 17.7549C11.6879 17.6715 11.8561 17.4583 12.2769 17.2475C12.3201 17.0784 12.361 16.951 12.361 16.7818C11.9379 16.9093 11.6422 16.9926 11.5604 17.0784C11.3489 17.2059 11.2647 17.2916 11.0532 17.4191C11.0532 17.5874 11.0668 17.714 11.0941 17.799L11.1373 18.3064ZM15.1882 21.9044C15.3132 21.7769 15.1882 21.5662 15.1882 21.4387C15.1449 21.3113 15.1882 21.1838 15.1449 21.0564C15.1041 20.973 15.0175 20.9289 14.9334 20.9289C14.8492 20.9289 14.6377 20.8015 14.6377 20.8872C14.4261 20.8872 14.5968 21.098 14.5968 21.2255C14.5968 21.3946 15.0175 21.8186 15.0175 21.8186C15.1041 21.8603 15.1041 21.8186 15.1882 21.9044ZM14.0463 21.2255C14.0895 21.0564 14.2145 20.9706 14.2145 20.6765C14.2145 20.6765 14.1737 20.4657 14.1304 20.3799C14.0871 20.2965 14.0439 20.2108 13.9188 20.1274C13.8756 20.1274 13.7914 20.0416 13.7506 20.0833C13.7506 20.0833 13.7073 20.4215 13.6664 20.4657C13.7506 20.5931 13.8347 20.6765 13.8756 20.8039C13.9188 20.9314 13.9597 21.1005 14.0439 21.2279L14.0463 21.2255ZM13.1592 19.9117C13.1183 19.8284 12.9909 19.7843 12.9067 19.7426C12.8226 19.7426 12.7384 19.9117 12.7384 20.0809C12.7384 20.1642 12.7817 20.4632 12.8226 20.5882C12.8226 20.6299 12.9067 20.674 12.9909 20.7157C13.1183 20.799 13.2433 20.8407 13.3707 20.9265C13.3707 20.9265 13.2433 20.5465 13.2024 20.3333C13.1592 20.2059 13.2433 20.0367 13.1592 19.9093V19.9117ZM16.9143 24.4828C16.9576 24.4828 17.0009 24.3995 17.0009 24.3995C16.9576 24.2304 16.9143 24.0196 16.8735 23.848C16.8735 23.848 16.746 23.7622 16.621 23.7622C16.5369 23.7622 16.4527 23.7206 16.3686 23.7622C16.4095 23.8897 16.4095 23.9755 16.4527 24.1029C16.5778 24.272 16.746 24.3554 16.9167 24.4828H16.9143ZM11.1806 18.4755V18.6863C11.1806 18.772 11.2239 19.2377 11.2239 19.3627C11.2647 19.4902 11.2647 19.6176 11.3056 19.7426C11.3489 19.826 11.3922 19.9117 11.3922 19.9975C11.3922 19.9975 11.4763 19.9559 11.5172 19.8701C11.6446 19.7426 11.6879 19.6152 11.772 19.4485C11.7287 19.1519 11.6446 18.897 11.6446 18.8137C11.6446 18.4755 11.6879 18.3897 11.7287 18.1789C11.5604 18.2622 11.3489 18.3897 11.1782 18.4755H11.1806ZM15.3156 23.3431C15.443 23.3015 15.5272 23.2157 15.6546 23.174C15.7387 23.1323 15.8229 22.4559 15.8229 22.4559C15.8229 22.4559 15.5704 22.4975 15.5272 22.5392C15.4839 22.5392 15.3156 22.5392 15.2315 22.6225C15.2315 22.75 15.2315 22.8774 15.1906 23.0465C15.1065 23.174 14.8949 23.2573 14.8949 23.4706C14.8949 23.4706 15.0632 23.5122 15.1065 23.5122C15.1906 23.4706 15.2747 23.3848 15.318 23.3431H15.3156ZM19.8737 27.576C19.7896 27.7451 19.7055 27.9142 19.7055 28H20.1694C20.2969 27.8309 20.3377 27.6617 20.2536 27.4068C20.1286 27.4485 19.8737 27.3211 19.8737 27.576ZM20.2103 25.6299C20.1262 25.5882 19.3232 25.2059 19.1982 25.2059C18.9458 25.2475 18.5226 25.2475 18.2678 25.375C18.2269 25.2475 18.1861 25.0367 18.2678 24.9093C18.3087 24.8235 18.7318 24.8235 18.8592 24.8235C19.3232 24.8652 19.578 24.951 19.7031 24.951C19.8305 25.0784 19.9579 25.0784 19.9988 25.0784C19.9988 25.0784 19.9579 24.8235 19.9146 24.7402C19.7463 24.6568 19.578 24.6127 19.4506 24.5711C19.2391 24.4853 19.1549 24.4436 18.8184 24.4019C18.6933 24.4019 18.6933 24.4436 18.4385 24.4436C18.4385 24.4019 18.4794 24.3603 18.5227 24.3162C18.6044 24.1887 18.6909 24.1054 18.7751 24.0196H19.4482C19.6189 24.0613 19.7006 24.1054 19.9122 24.1887C20.0372 24.1887 19.9122 23.9779 19.9122 23.8505C19.8713 23.8088 19.8281 23.7647 19.7439 23.723C19.5756 23.6814 19.4482 23.6397 19.2775 23.5539C19.1525 23.5122 18.9001 23.4265 18.6885 23.4706C18.477 23.5539 18.477 23.5122 18.3063 23.598C18.0971 23.8946 17.9697 24.2328 17.8423 24.5711C17.8423 24.6544 17.6307 25.1642 17.6307 25.2475C17.6307 25.2892 17.5899 25.375 17.5899 25.375C17.4192 25.3333 16.6595 25.2059 16.4503 25.4166C16.3662 25.5 16.2821 25.5858 16.1546 25.8407C15.9863 25.7132 15.8589 25.6715 15.6906 25.6715C15.4791 25.6715 15.2267 25.799 15.0992 26.0098C15.0992 26.0539 14.7627 26.6887 14.8035 27.2794C14.8468 27.6201 14.9718 27.7451 15.1401 28H15.6065C15.5632 27.8309 15.4791 27.6201 15.3949 27.3652C15.3517 27.1544 15.4382 26.772 15.4791 26.4338C15.4791 26.4338 15.6065 26.3505 15.7315 26.3064C15.8181 26.223 15.8589 26.2647 15.9839 26.2647C16.0272 26.2647 16.0272 26.3064 16.0272 26.3064C15.8565 26.4755 15.8565 26.6446 15.8157 26.8995C15.8157 27.0269 15.9839 27.6617 16.1522 28H16.4912C16.4912 28 16.4071 27.1519 16.4479 27.0686C16.4479 26.8995 16.4912 26.772 16.5321 26.6446C16.6162 26.6863 16.7004 26.6863 16.7845 26.7279C16.9119 26.8137 16.9119 26.897 16.9119 27.0245C16.9119 27.2353 16.9119 27.2794 16.871 27.4068V27.6176C16.871 27.8284 16.9119 27.9975 16.9119 27.9975H17.2509C17.2509 27.6176 17.2918 27.6593 17.335 27.4461C17.3783 27.2769 17.335 27.1912 17.3783 27.0662C17.3783 26.9804 17.4192 26.897 17.4649 26.8554C17.5923 26.772 17.6764 26.772 17.8447 26.8137C17.8447 26.9387 17.8447 27.0662 17.8038 27.1936C17.7606 27.4044 17.7173 27.6176 17.6331 27.8284C17.6331 27.8701 17.5923 27.9559 17.549 27.9975H18.0563C18.0563 27.9975 18.1404 27.8284 18.1837 27.6176C18.3087 27.7451 18.4794 27.6593 18.5635 27.6593C18.6909 27.6176 18.7751 27.4902 18.8592 27.4044C18.6909 27.2769 18.3087 27.3186 18.3087 27.1495C18.2269 26.8529 18.3087 26.8113 18.3087 26.6421C18.3087 26.3872 18.0563 26.3039 17.8038 26.2598C17.7173 26.2181 17.549 26.2181 17.4673 26.2181C17.3807 26.2598 17.2966 26.3872 17.2148 26.3872C17.2148 26.3872 17.0441 26.2598 16.9167 26.2181C16.8326 26.2181 16.5802 26.1323 16.5802 26.1323C16.6234 26.049 16.6643 25.9632 16.7076 25.9215C16.7484 25.8799 16.8783 25.7524 16.9191 25.7524C17.0057 25.7108 17.1307 25.7524 17.2172 25.7941C17.4264 25.8358 17.5971 25.8799 17.6379 25.8799C17.6788 25.8799 17.8086 25.9632 17.8086 25.9632C17.9337 25.8799 17.9337 25.7941 18.0178 25.7941C18.2702 25.7108 18.3568 25.6666 18.6092 25.6666C18.8208 25.6666 18.9914 26.049 19.1165 26.174C19.1597 26.2573 19.453 26.6397 19.6237 26.9779C19.7079 26.9363 19.7511 26.8505 19.8353 26.8505C19.8353 26.7671 19.792 26.4265 19.7511 26.3848C19.6237 26.0024 19.3713 25.9191 19.3713 25.8333C19.453 25.8333 19.6237 25.9166 19.7079 25.9166C19.792 25.9583 19.9194 26 20.0444 26.0858C20.0877 26.1274 20.1718 26.1716 20.2151 26.2132C20.256 26.3823 20.256 26.5098 20.3425 26.6789C20.3425 26.7206 20.3425 26.7647 20.3834 26.8064C20.5108 26.5515 20.6358 26.5098 20.72 26.2966C20.6358 25.9166 20.4243 25.7475 20.2151 25.6201L20.2103 25.6299ZM14.8492 22.2867C14.8492 22.2451 14.7218 22.2451 14.6377 22.2451C14.5535 22.2451 14.4694 22.2867 14.3828 22.2867C14.2987 22.4142 14.2578 22.5416 14.2145 22.7108C14.1737 22.8382 14.0871 22.9215 14.0463 23.0073C14.0463 23.0073 14.4261 22.924 14.5102 22.924C14.6377 22.8407 14.7218 22.7965 14.8059 22.6274C14.8492 22.5 14.8925 22.4583 14.8492 22.2892V22.2867ZM11.558 20.8064C11.558 20.8064 11.6855 20.723 11.6855 20.6372C11.897 20.3823 12.1494 20.1715 12.1927 20.1299C12.1062 19.9166 12.0653 19.875 11.9379 19.7475C11.897 19.7892 11.6855 19.9166 11.6422 20.0024C11.558 20.0441 11.4739 20.0858 11.4306 20.1299C11.4306 20.2132 11.4739 20.2549 11.5148 20.3407C11.5148 20.424 11.558 20.6372 11.558 20.8064ZM15.9455 24.826C15.9046 24.7843 15.9046 24.6985 15.8589 24.6152C15.7748 24.3603 15.8181 24.2328 15.7748 23.9804H15.4382C15.3541 24.022 15.3108 23.9804 15.2267 24.022C15.2267 24.1912 15.2699 24.3186 15.3949 24.5294C15.52 24.7843 15.9431 24.826 15.9431 24.826H15.9455ZM13.6664 21.7377H13.414C13.414 21.7377 13.3298 22.076 13.3298 22.3309C13.289 22.4583 13.2433 22.5416 13.2433 22.5858C13.1592 22.7549 13.1183 22.7965 13.0341 23.0098C13.1592 23.0515 13.2866 22.9681 13.3707 22.9681C13.4549 22.9265 13.5823 22.8823 13.6255 22.8407C13.6664 22.799 13.7938 22.5 13.8371 22.4166V22.1201C13.7938 22.0343 13.8371 21.8652 13.8371 21.7402C13.7938 21.6544 13.7097 21.6985 13.6688 21.7402L13.6664 21.7377ZM12.0629 21.5269C12.147 21.3995 12.3995 21.147 12.4836 21.0613C12.3971 20.9779 12.3562 20.8505 12.3153 20.7647C12.147 20.7647 11.5124 21.0171 11.5124 21.0171C11.6398 21.2304 11.7239 21.4412 11.8081 21.6961C11.8922 21.6544 11.9763 21.6127 12.0605 21.5269H12.0629ZM12.5678 22.5C12.6086 22.3725 12.5678 22.2892 12.6086 22.1617C12.6086 22.0784 12.6086 21.8652 12.6519 21.7402C12.5678 21.6985 12.3971 21.7818 12.272 21.7818C12.147 21.7818 11.8513 21.7818 11.8513 21.8235C11.8922 21.9093 11.8922 21.9926 11.9355 22.0784C11.9788 22.1617 12.0196 22.2475 12.0196 22.4583C12.0196 22.5858 12.0629 22.7132 12.0196 22.8799C12.0196 22.8799 12.5678 22.5833 12.5678 22.5ZM13.539 23.6863C13.3274 23.5171 12.9909 23.348 12.4836 23.1789C12.3562 23.1372 12.0629 23.1789 11.9355 23.1789C11.5965 23.772 11.4715 24.3211 11.2191 24.9559C11.1758 25.0833 11.0916 25.3382 11.0916 25.3382C10.8825 25.2108 10.6709 25.1274 10.457 25.1274C10.118 25.1274 9.86557 25.2549 9.74056 25.5931C9.61554 25.5515 9.44485 25.4657 9.2357 25.5073C8.94 25.549 8.68757 25.7206 8.56015 25.973C8.43514 26.1421 8.39187 26.3113 8.43514 26.4804C8.22358 26.5662 8.09617 26.7769 8.01202 26.9461C7.92788 27.2843 8.22358 27.8774 8.351 28.0049H8.77171C8.68757 27.625 8.51928 27.4534 8.6443 27.0735C8.72844 26.8627 9.02414 26.7769 9.10828 26.7353C9.10828 26.5662 8.89672 26.4387 8.94 26.2696C9.02414 26.0588 9.27657 26.0588 9.529 26.1005C9.48572 26.3554 9.44485 26.6936 9.40158 27.0318C9.35831 27.4142 9.56987 28.0073 9.56987 28.0073H10.0339C9.99058 27.8799 9.94971 27.7524 9.94971 27.6274C9.90884 27.5 9.90884 27.4166 9.90884 27.2867C9.94971 27.1176 9.94971 26.9485 9.94971 26.8235C10.3728 26.6103 10.2454 26.9068 10.3296 26.9926C10.3296 26.9926 10.5002 26.6127 10.2887 26.4436C10.2454 26.4019 9.99298 26.4436 9.99298 26.4019C9.99298 26.3603 10.0363 26.2328 10.0771 26.1054C10.1637 25.9363 10.2045 25.8946 10.2887 25.7671C10.3296 25.7255 10.457 25.7255 10.6277 25.7671C10.6685 25.7671 10.8801 25.8088 11.0075 25.8505C10.9642 25.9779 10.7959 26.2304 10.7551 26.3578C10.5868 26.8652 10.5868 27.4583 10.6277 28.0098H11.0916C11.0916 27.7132 11.0508 27.375 11.0916 27.0784C11.1758 26.6985 11.3008 26.6544 11.3465 26.6544C11.4282 26.6544 11.5148 26.7377 11.558 26.8235C11.6422 27.2451 11.3898 27.6274 11.3898 28.0073H11.7263C11.7263 28.0073 11.8537 27.9657 11.8946 27.8382C11.9788 27.5833 12.147 27.3284 12.1903 27.076C12.2312 26.8652 12.147 26.6961 12.0196 26.4412C11.8946 26.272 11.7672 26.1446 11.4715 25.9338C11.3873 25.7647 11.4715 25.5539 11.4715 25.5539C11.4715 25.5956 11.6398 25.5122 11.7239 25.5122C12.0605 25.598 12.1446 25.598 12.3153 25.6814C12.4427 25.723 12.611 25.8088 12.736 25.8946C12.8635 25.9779 12.9885 26.2328 13.1159 26.5294C13.1159 26.5294 13.2 25.9804 13.2 25.8113C13.0317 25.6421 12.8635 25.473 12.6086 25.3456C12.3971 25.1765 11.9331 25.049 11.7239 24.9632C11.7239 24.9632 11.8081 24.8358 11.8081 24.7524C12.0605 24.7108 12.3562 24.7108 12.4836 24.7524C12.9067 24.8799 13.4116 25.1348 13.6231 25.3039C13.6231 25.3039 13.7073 25.1348 13.7073 25.049C13.7073 25.049 13.1159 24.6691 13.1592 24.5416C12.9909 24.4142 12.8635 24.2867 12.6952 24.2451C12.4427 24.2034 11.9355 24.1617 11.9355 24.1617C11.9355 24.1617 12.0629 23.9926 12.1903 23.8652H12.5269C12.6952 23.8652 13.1159 23.9926 13.3707 24.1201C13.7506 24.2892 13.9621 24.4166 14.0054 24.5C14.0463 24.3725 14.0895 24.2034 14.1328 24.1201C13.6688 23.951 13.7097 23.7794 13.5414 23.6961L13.539 23.6863ZM12.7793 27.1568C12.4836 27.1568 12.5678 27.6225 12.4836 27.8358C12.4403 27.8774 12.3971 27.9632 12.4403 28.0049H13.0726C13.0726 28.0049 13.1159 27.625 13.1159 27.5392C13.0726 27.4534 12.9476 27.2426 12.7793 27.1568Z" fill="white"/>
</g>
<defs>
<clipPath id="clip0_10305_6436">
<rect width="25" height="16" fill="white" transform="translate(8 12)"/>
</clipPath>
</defs>
</svg>
