<svg width="40" height="40" viewBox="0 0 40 40" fill="none" xmlns="http://www.w3.org/2000/svg">
<rect width="40" height="40" rx="4" fill="#262626"/>
<rect x="0.5" y="0.5" width="39" height="39" rx="3.5" stroke="white" stroke-opacity="0.01"/>
<path d="M27.0184 26.3125V23.0625L26.6948 23.6801L26.3198 24.3934L25.9596 25.0845V25.1287H25.9375L25.5551 25.864L24.5404 27.8051L24.4743 27.9375H27.0184V30.9816H27.1066L27.8493 29.5625L27.9375 29.3934L28.239 28.8272L29.5331 26.3566C29.5331 26.3566 29.5331 26.3272 29.5331 26.3125H27.0184Z" fill="white"/>
<path d="M28.3419 12.9154L20.0037 9.00366L11.6581 12.9154C10.9228 13.261 10.4448 14.0551 10.4448 14.9448V16.9007H12.5772V24.4007C11.3934 24.4375 10.4448 25.4081 10.4448 26.5919L10.4154 29.5625H21.9669L22.0478 29.4081L22.7316 28.0919H11.8934L11.9081 26.5992C11.9081 26.1948 12.239 25.864 12.6434 25.864H23.886L24.6507 24.3934H22.9596V16.9007H25.9522V21.9081L26.6875 20.4963L27.4228 19.0919V16.9007H29.5551V14.9448C29.5551 14.0551 29.0772 13.261 28.3419 12.9154ZM17.0331 24.3934H14.0404V16.9007H17.0331V24.3934ZM21.4963 24.3934H18.5037V16.9007H21.4963V24.3934ZM28.0919 15.4301H11.9154V14.9448C11.9154 14.636 12.0698 14.3492 12.2831 14.2463L20.0037 10.6287L27.7243 14.2463C27.9375 14.3492 28.0919 14.636 28.0919 14.9448V15.4301Z" fill="white"/>
</svg>
