<svg width="40" height="40" viewBox="0 0 40 40" fill="none" xmlns="http://www.w3.org/2000/svg">
<rect x="0.5" y="0.5" width="39" height="39" rx="3.5" fill="white"/>
<rect x="0.5" y="0.5" width="39" height="39" rx="3.5" stroke="#DBD9D7"/>
<path d="M25.9776 20.3581C26.6176 20.372 27.2612 20.3298 27.8985 20.38C28.544 20.5004 28.6996 21.4776 28.1261 21.7976C27.7349 22.0084 27.27 21.8761 26.8458 21.9133H25.9776V20.3581ZM28.2686 18.5977C28.4107 19.0996 27.927 19.5501 27.4436 19.481H25.9776C25.9879 19.0078 25.9576 18.4941 25.9925 18.0458C26.5798 18.0623 27.1725 18.012 27.7564 18.0721C28.0072 18.1351 28.2172 18.3413 28.2686 18.5977ZM31.7966 11.1556C31.8239 12.1139 31.8005 13.123 31.8084 14.1008C31.8066 18.0763 31.8122 22.0517 31.8052 26.0275C31.7795 27.5174 30.4591 28.812 28.9795 28.8418C27.4984 28.8478 26.0172 28.8427 24.5359 28.8443V22.8342C26.1498 22.8259 27.7645 22.8511 29.3778 22.8216C30.1261 22.7746 30.9459 22.2808 30.9807 21.4572C31.0688 20.6301 30.289 20.058 29.5486 19.9677C29.264 19.9603 29.2723 19.8847 29.5486 19.8517C30.2548 19.6991 30.8093 18.9682 30.6015 18.2363C30.4245 17.4665 29.5736 17.1685 28.8658 17.17C27.4228 17.1602 25.9794 17.1686 24.5363 17.1658C24.5456 16.0437 24.5168 14.9205 24.5518 13.7993C24.6661 12.3363 26.0198 11.1298 27.4786 11.1559C28.9181 11.1557 30.3574 11.1557 31.7966 11.1557V11.1556Z" fill="url(#paint0_linear_10170_4663)"/>
<path d="M8.22811 13.9508C8.26497 12.4632 9.59103 11.1792 11.0687 11.1575C12.5443 11.1529 14.0201 11.1568 15.4956 11.1555C15.4916 16.1326 15.5036 21.1102 15.4896 26.087C15.4327 27.5565 14.1211 28.816 12.6595 28.842C11.1812 28.8474 9.70264 28.8428 8.22422 28.8442V22.6315C9.66025 22.9707 11.1662 23.1151 12.6312 22.8901C13.5069 22.7492 14.465 22.3192 14.7615 21.4107C14.9796 20.6335 14.8568 19.8157 14.8893 19.018V17.1657H12.3539C12.3426 18.3908 12.3773 19.618 12.3356 20.8416C12.2673 21.5937 11.5224 22.0716 10.8131 22.0461C9.93341 22.0554 8.19016 21.4085 8.19016 21.4085C8.18578 19.1132 8.21568 16.2387 8.22811 13.951V13.9508Z" fill="url(#paint1_linear_10170_4663)"/>
<path d="M16.4411 17.913C16.3077 17.9413 16.4143 17.4584 16.3802 17.2752C16.3893 16.117 16.3612 14.9575 16.3957 13.8001C16.5097 12.3309 17.8738 11.1214 19.3385 11.1557H23.6519C23.6479 16.1328 23.6599 21.1104 23.6459 26.0872C23.589 27.5567 22.2773 28.8162 20.8156 28.8422C19.3372 28.8478 17.8586 28.8431 16.3801 28.8445V22.0376C17.3899 22.8661 18.7623 22.995 20.0203 22.9973C20.9686 22.997 21.9115 22.8507 22.8324 22.632V21.385C21.7945 21.9023 20.5744 22.2308 19.4239 21.9336C18.6213 21.7339 18.0387 20.9582 18.0517 20.1299C17.9587 19.2686 18.4636 18.3592 19.3101 18.1031C20.361 17.7741 21.5064 18.0258 22.4915 18.4535C22.7025 18.564 22.9168 18.7011 22.8324 18.3483V17.3681C21.1848 16.9761 19.4315 16.8319 17.7762 17.2583C17.2971 17.3935 16.8303 17.5985 16.4411 17.9131V17.913Z" fill="url(#paint2_linear_10170_4663)"/>
<defs>
<linearGradient id="paint0_linear_10170_4663" x1="24.4863" y1="19.6217" x2="31.7625" y2="19.6217" gradientUnits="userSpaceOnUse">
<stop stop-color="#58B03A"/>
<stop offset="1" stop-color="#55B330"/>
</linearGradient>
<linearGradient id="paint1_linear_10170_4663" x1="8.06952" y1="20.1693" x2="15.3764" y2="20.1693" gradientUnits="userSpaceOnUse">
<stop stop-color="#0F6EB6"/>
<stop offset="1" stop-color="#006DBA"/>
</linearGradient>
<linearGradient id="paint2_linear_10170_4663" x1="16.3695" y1="19.7933" x2="23.6506" y2="19.7933" gradientUnits="userSpaceOnUse">
<stop stop-color="#DE0D3D"/>
<stop offset="1" stop-color="#E30138"/>
</linearGradient>
</defs>
</svg>
