<svg width="40" height="40" viewBox="0 0 40 40" fill="none" xmlns="http://www.w3.org/2000/svg">
<rect width="40" height="40" rx="4" fill="#FEB4C7"/>
<rect x="0.5" y="0.5" width="39" height="39" rx="3.5" stroke="white" stroke-opacity="0.01"/>
<path fill-rule="evenodd" clip-rule="evenodd" d="M7.62737 23.1296H6.2439V16.75H7.62737V23.1296ZM11.0813 16.75H9.72786C9.72786 17.924 9.21783 19.0016 8.32858 19.7065L7.79236 20.1315L9.87005 23.1299H11.5783L9.66656 20.3709C10.5728 19.416 11.0813 18.1311 11.0813 16.75ZM13.288 23.1279H11.9815V16.7512H13.288V23.1279ZM17.2354 18.7169V18.9991C16.8829 18.7445 16.4574 18.595 15.9985 18.595C14.7838 18.595 13.7992 19.637 13.7992 20.9225C13.7992 22.2079 14.7838 23.25 15.9985 23.25C16.4574 23.25 16.8829 23.1004 17.2354 22.846V23.1279H18.4834V18.7169H17.2354ZM17.2317 20.9225C17.2317 21.5493 16.7254 22.0574 16.1009 22.0574C15.4764 22.0574 14.9702 21.5493 14.9702 20.9225C14.9702 20.2957 15.4764 19.7877 16.1009 19.7877C16.7254 19.7877 17.2317 20.2957 17.2317 20.9225ZM30.4005 18.9991V18.7169H31.6484V23.1279H30.4005V22.846C30.048 23.1004 29.6225 23.25 29.1635 23.25C27.9488 23.25 26.9642 22.2079 26.9642 20.9225C26.9642 19.637 27.9488 18.595 29.1635 18.595C29.6225 18.595 30.048 18.7445 30.4005 18.9991ZM29.2659 22.0574C29.8904 22.0574 30.3966 21.5493 30.3966 20.9225C30.3966 20.2957 29.8904 19.7877 29.2659 19.7877C28.6414 19.7877 28.1352 20.2957 28.1352 20.9225C28.1352 21.5493 28.6414 22.0574 29.2659 22.0574ZM32.19 22.3921C32.19 21.9344 32.5405 21.5634 32.973 21.5634C33.4055 21.5634 33.7561 21.9344 33.7561 22.3921C33.7561 22.8498 33.4055 23.2209 32.973 23.2209C32.5405 23.2209 32.19 22.8498 32.19 22.3921ZM24.7467 18.5982C24.2482 18.5982 23.7764 18.762 23.461 19.2139V18.7171H22.2185V23.1279H23.4763V20.8099C23.4763 20.1391 23.9013 19.8107 24.413 19.8107C24.9615 19.8107 25.2768 20.1574 25.2768 20.8008V23.1279H26.5232V20.3228C26.5232 19.2963 25.752 18.5982 24.7467 18.5982ZM20.4138 18.717V19.2915C20.6639 18.9469 21.13 18.7172 21.6368 18.7172V20.0007L21.6299 20.0005L21.622 20.0002C21.1282 20.0002 20.4166 20.3737 20.4166 21.0685V23.1279H19.1361V18.717H20.4138Z" fill="#17120F"/>
</svg>
