<svg width="40" height="40" viewBox="0 0 40 40" fill="none" xmlns="http://www.w3.org/2000/svg">
<rect width="40" height="40" rx="4" fill="black"/>
<rect x="0.5" y="0.5" width="39" height="39" rx="3.5" stroke="white" stroke-opacity="0.01"/>
<g clip-path="url(#clip0_10305_6378)">
<path d="M30.791 23.9364V23.6742H30.725L30.648 23.849L30.571 23.6742H30.505V23.9364H30.549V23.7397L30.626 23.9146H30.681L30.758 23.7397V23.9364H30.791ZM30.351 23.9364V23.7179H30.439V23.6742H30.219V23.7179H30.307V23.9364H30.351Z" fill="#00A2E5"/>
<path d="M22.97 25.0617H17.019V14.4421H22.97V25.0617Z" fill="#7375CF"/>
<path d="M17.404 19.7519C17.404 17.5996 18.416 15.6767 20 14.4422C18.845 13.5353 17.382 13 15.798 13C12.047 13 9 16.0263 9 19.7519C9 23.4775 12.047 26.5039 15.798 26.5039C17.382 26.5039 18.845 25.9685 20 25.0617C18.416 23.8271 17.404 21.9042 17.404 19.7519Z" fill="#EB001B"/>
<path d="M31 19.7519C31 23.4775 27.953 26.5039 24.202 26.5039C22.618 26.5039 21.155 25.9685 20 25.0617C21.584 23.8271 22.596 21.9042 22.596 19.7519C22.596 17.5996 21.584 15.6767 20 14.4422C21.155 13.5353 22.618 13 24.202 13C27.953 13 31 16.0263 31 19.7519Z" fill="#00A2E5"/>
<path d="M24.972 28.0662C25.049 28.0662 25.17 28.0771 25.247 28.1099L25.126 28.4813C25.038 28.4486 24.961 28.4376 24.884 28.4376C24.631 28.4376 24.499 28.6015 24.499 28.8965V29.9016H24.103V28.1099H24.488V28.3284C24.598 28.1645 24.752 28.0662 24.972 28.0662ZM23.52 28.4595H22.882V29.268C22.882 29.4428 22.948 29.563 23.146 29.563C23.245 29.563 23.377 29.5302 23.498 29.4646L23.608 29.8033C23.487 29.8907 23.289 29.9453 23.113 29.9453C22.651 29.9453 22.486 29.6941 22.486 29.2789V28.4595H22.123V28.0989H22.486V27.5527H22.882V28.0989H23.52V28.4595ZM18.493 28.8419C18.537 28.5797 18.691 28.4049 18.977 28.4049C19.23 28.4049 19.395 28.5578 19.439 28.8419H18.493ZM19.846 29.0058C19.846 28.4486 19.494 28.0662 18.988 28.0662C18.46 28.0662 18.086 28.4486 18.086 29.0058C18.086 29.5739 18.471 29.9453 19.01 29.9453C19.285 29.9453 19.527 29.8798 19.747 29.6941L19.549 29.41C19.395 29.5302 19.208 29.5957 19.021 29.5957C18.768 29.5957 18.537 29.4756 18.482 29.1587H19.824C19.835 29.1041 19.846 29.0604 19.846 29.0058ZM21.573 28.5687C21.463 28.5032 21.243 28.4158 21.012 28.4158C20.792 28.4158 20.671 28.4923 20.671 28.6234C20.671 28.7435 20.803 28.7763 20.979 28.7982L21.166 28.82C21.562 28.8747 21.793 29.0385 21.793 29.3554C21.793 29.6941 21.496 29.9453 20.968 29.9453C20.671 29.9453 20.396 29.8689 20.187 29.7159L20.374 29.41C20.506 29.5083 20.704 29.5957 20.979 29.5957C21.243 29.5957 21.386 29.5193 21.386 29.3772C21.386 29.2789 21.287 29.2243 21.067 29.1915L20.88 29.1696C20.473 29.115 20.253 28.9293 20.253 28.6452C20.253 28.2847 20.55 28.0662 21.001 28.0662C21.287 28.0662 21.551 28.1317 21.738 28.2519L21.573 28.5687ZM26.413 28.4267C26.336 28.4267 26.259 28.4376 26.193 28.4704C26.127 28.5032 26.061 28.536 26.017 28.5906C25.973 28.6452 25.929 28.6998 25.896 28.7763C25.863 28.8419 25.852 28.9293 25.852 29.0058C25.852 29.0932 25.863 29.1696 25.896 29.2352C25.929 29.3007 25.962 29.3663 26.017 29.4209C26.072 29.4756 26.127 29.5083 26.193 29.5411C26.259 29.5739 26.336 29.5848 26.413 29.5848C26.49 29.5848 26.567 29.5739 26.633 29.5411C26.699 29.5083 26.765 29.4756 26.809 29.4209C26.864 29.3663 26.897 29.3117 26.93 29.2352C26.963 29.1696 26.974 29.0822 26.974 29.0058C26.974 28.9184 26.963 28.8419 26.93 28.7763C26.897 28.7108 26.864 28.6452 26.809 28.5906C26.754 28.536 26.699 28.5032 26.633 28.4704C26.567 28.4486 26.49 28.4267 26.413 28.4267ZM26.413 28.0662C26.556 28.0662 26.688 28.088 26.798 28.1426C26.919 28.1864 27.018 28.2519 27.106 28.3393C27.194 28.4267 27.26 28.525 27.315 28.6343C27.359 28.7545 27.392 28.8747 27.392 29.0058C27.392 29.1369 27.37 29.268 27.315 29.3772C27.271 29.4974 27.194 29.5957 27.106 29.6722C27.018 29.7596 26.919 29.8252 26.798 29.8689C26.677 29.9126 26.545 29.9453 26.413 29.9453C26.27 29.9453 26.138 29.9235 26.028 29.8689C25.907 29.8252 25.808 29.7596 25.72 29.6722C25.632 29.5848 25.566 29.4865 25.511 29.3772C25.467 29.257 25.434 29.1369 25.434 29.0058C25.434 28.8747 25.456 28.7435 25.511 28.6343C25.555 28.5141 25.632 28.4158 25.72 28.3393C25.808 28.2519 25.907 28.1864 26.028 28.1426C26.138 28.088 26.27 28.0662 26.413 28.0662ZM16.205 29.0058C16.205 28.6889 16.414 28.4267 16.755 28.4267C17.085 28.4267 17.294 28.678 17.294 29.0058C17.294 29.3335 17.074 29.5739 16.755 29.5739C16.414 29.5739 16.205 29.3226 16.205 29.0058ZM17.668 29.0058V28.1099H17.272V28.3284C17.151 28.1645 16.964 28.0662 16.7 28.0662C16.194 28.0662 15.798 28.4595 15.798 29.0058C15.798 29.552 16.194 29.9453 16.7 29.9453C16.953 29.9453 17.14 29.847 17.272 29.6831V29.9016H17.668V29.0058ZM15.457 29.9016V28.7763C15.457 28.3502 15.182 28.0662 14.742 28.0662C14.511 28.0662 14.269 28.1317 14.104 28.383C13.983 28.1864 13.785 28.0662 13.51 28.0662C13.323 28.0662 13.125 28.1208 12.982 28.3284V28.1099H12.586V29.9016H12.982V28.9074C12.982 28.6015 13.158 28.4267 13.422 28.4267C13.686 28.4267 13.818 28.5906 13.818 28.8965V29.8907H14.214V28.8965C14.214 28.5906 14.401 28.4158 14.654 28.4158C14.918 28.4158 15.05 28.5797 15.05 28.8856V29.8798H15.457V29.9016Z" fill="white"/>
<path d="M27.81 29.7596V29.8033H27.854C27.865 29.8033 27.876 29.8033 27.876 29.7924C27.887 29.7924 27.887 29.7815 27.887 29.7706C27.887 29.7596 27.887 29.7596 27.876 29.7596C27.876 29.7596 27.865 29.7487 27.854 29.7487H27.81V29.7596ZM27.854 29.7378C27.876 29.7378 27.887 29.7378 27.898 29.7487C27.909 29.7596 27.92 29.7706 27.92 29.7924C27.92 29.8033 27.92 29.8143 27.909 29.8252C27.898 29.8361 27.887 29.8361 27.865 29.8361L27.92 29.9017H27.876L27.821 29.8361H27.81V29.9017H27.777V29.7378H27.854ZM27.843 29.9563C27.865 29.9563 27.876 29.9563 27.898 29.9454C27.92 29.9345 27.931 29.9235 27.942 29.9126C27.953 29.9017 27.964 29.8907 27.975 29.8689C27.986 29.847 27.986 29.8361 27.986 29.8143C27.986 29.7924 27.986 29.7815 27.975 29.7596C27.964 29.7378 27.953 29.7269 27.942 29.7159C27.931 29.705 27.92 29.6941 27.898 29.6832C27.887 29.6722 27.865 29.6722 27.843 29.6722C27.821 29.6722 27.81 29.6722 27.788 29.6832C27.766 29.6941 27.755 29.705 27.744 29.7159C27.733 29.7269 27.722 29.7487 27.711 29.7596C27.7 29.7815 27.7 29.7924 27.7 29.8143C27.7 29.8361 27.7 29.847 27.711 29.8689C27.722 29.8907 27.733 29.9017 27.744 29.9126C27.755 29.9235 27.777 29.9345 27.788 29.9454C27.81 29.9563 27.821 29.9563 27.843 29.9563ZM27.843 29.6395C27.865 29.6395 27.887 29.6395 27.909 29.6504C27.931 29.6613 27.953 29.6722 27.964 29.6832C27.975 29.6941 27.997 29.7159 28.008 29.7378C28.019 29.7596 28.019 29.7815 28.019 29.8033C28.019 29.8252 28.019 29.847 28.008 29.8689C27.997 29.8907 27.986 29.9126 27.964 29.9235C27.942 29.9345 27.931 29.9563 27.909 29.9672C27.887 29.9782 27.865 29.9782 27.843 29.9782C27.821 29.9782 27.788 29.9782 27.766 29.9672C27.744 29.9563 27.722 29.9454 27.711 29.9235C27.7 29.9126 27.678 29.8907 27.667 29.8689C27.656 29.847 27.656 29.8252 27.656 29.8033C27.656 29.7815 27.656 29.7596 27.667 29.7378C27.678 29.7159 27.689 29.6941 27.711 29.6832C27.722 29.6722 27.744 29.6504 27.766 29.6504C27.788 29.6395 27.821 29.6395 27.843 29.6395Z" fill="black"/>
</g>
<defs>
<clipPath id="clip0_10305_6378">
<rect width="22" height="17" fill="white" transform="translate(9 13)"/>
</clipPath>
</defs>
</svg>
