<svg width="40" height="40" viewBox="0 0 40 40" fill="none" xmlns="http://www.w3.org/2000/svg">
<rect width="40" height="40" rx="4" fill="#14223D"/>
<rect x="0.5" y="0.5" width="39" height="39" rx="3.5" stroke="white" stroke-opacity="0.01"/>
<path d="M29.8438 24.0427C29.8438 24.1624 29.8202 24.2809 29.7744 24.3915C29.7286 24.5022 29.6614 24.6026 29.5768 24.6873L25.4944 28.7697C25.2647 28.9994 24.8719 28.8366 24.8719 28.5118V19.3642L29.787 14.4766H29.8438V24.0427Z" fill="#E83860"/>
<path d="M26.5861 11.2188C26.5522 11.1849 26.512 11.158 26.4678 11.1397C26.4235 11.1213 26.3761 11.1119 26.3282 11.1119C26.2803 11.1119 26.2329 11.1213 26.1886 11.1397C26.1444 11.158 26.1042 11.1849 26.0703 11.2188L20 17.2891H19.9157V24.1404L20 24.3203L29.8438 14.4766L26.5861 11.2188Z" fill="#DFC586"/>
<path d="M10.1562 24.0427C10.1562 24.2845 10.2522 24.5163 10.4232 24.6873L14.5056 28.7697C14.7353 28.9994 15.1281 28.8366 15.1281 28.5118V19.3642L10.2128 14.4766H10.1562V24.0427Z" fill="#327787"/>
<path d="M13.9297 11.2188C13.8958 11.1849 13.8556 11.158 13.8114 11.1397C13.7671 11.1214 13.7197 11.1119 13.6718 11.1119C13.6239 11.1119 13.5765 11.1214 13.5322 11.1397C13.488 11.158 13.4478 11.1849 13.4139 11.2188L10.1562 14.4766L20 24.3203V17.2891L13.9297 11.2188Z" fill="#8ABB9C"/>
</svg>
