<svg width="40" height="40" viewBox="0 0 40 40" fill="none" xmlns="http://www.w3.org/2000/svg">
<rect x="0.5" y="0.5" width="39" height="39" rx="3.5" fill="white"/>
<rect x="0.5" y="0.5" width="39" height="39" rx="3.5" stroke="#DBD9D7"/>
<g clip-path="url(#clip0_13202_9715)">
<path d="M26.3523 15.2058V9.30249H19.5883V11.8634H17.2834V12.929C17.1063 12.9157 16.9301 12.9068 16.7495 12.9068C12.871 12.9068 9.715 16.0911 9.715 20.0035C9.715 22.2972 10.9952 24.4541 13.1406 25.7772L13.4807 25.9868V30.6975H26.3496V28.1232H30.2871V19.1804C30.2871 19.1804 26.8756 15.7341 26.3523 15.2058Z" fill="white"/>
<path d="M24.3581 25.0845H25.4445V22.9289H24.3581V25.0845ZM19.7432 28.7677H15.4905V25.5506H19.7432V28.7677ZM25.4292 15.5372V10.1254H20.6581V12.7498H18.2937V14.0397C17.7772 13.8977 17.2317 13.8203 16.6682 13.8203C13.2761 13.8203 10.5379 16.5895 10.5379 20.0032C10.5379 22.1042 11.8104 23.9303 13.5317 24.9908L17.3699 18.8908H22.7099H22.709C22.3577 16.9409 21.0979 15.3142 19.3892 14.4612V13.8567H21.7508V11.2305H24.3337V19.9986H28.3706V26.1296H24.3337V28.7677H20.8369V25.5078L24.3337 19.9986H17.9704L14.3959 25.679V29.8746H25.4283V27.2374H29.4642V19.6127L25.4292 15.5372Z" fill="#004890"/>
</g>
<defs>
<clipPath id="clip0_13202_9715">
<rect width="22" height="22" fill="white" transform="translate(9 9)"/>
</clipPath>
</defs>
</svg>
