<svg width="40" height="40" viewBox="0 0 40 40" fill="none" xmlns="http://www.w3.org/2000/svg">
<rect width="40" height="40" rx="4" fill="white"/>
<rect width="40" height="40" rx="4" fill="#471563"/>
<rect x="0.5" y="0.5" width="39" height="39" rx="3.5" stroke="white" stroke-opacity="0.01"/>
<path d="M31 20C31 30.2018 30.2018 31 20.0002 31C9.79862 31 9 30.2018 9 20C9 9.79824 9.79862 9 20.0002 9C30.2018 9 31 9.79824 31 20Z" fill="#471563"/>
<path d="M23.2893 22.4176H18.9113L21.0991 26.2109H25.4772L23.2893 22.4176Z" fill="#E3000A"/>
<path d="M25.4741 18.6301L27.6631 22.4215L25.4752 26.2129L23.2862 22.4196L25.4741 18.6301Z" fill="#C30203"/>
<path d="M16.7196 22.4176L18.907 18.6282H14.5294L12.3419 22.4176V22.4191L16.7196 22.4176Z" fill="#E3000A"/>
<path d="M18.9082 26.2117H14.5305L12.3415 22.4196V22.4181H16.7196L18.9082 26.2117Z" fill="#C30203"/>
<path d="M22.1911 12.9412H17.8135L15.626 16.7302H20.0033L22.1911 12.9412Z" fill="#E3000A"/>
<path d="M20.0025 16.7286L22.1915 20.5212L24.3794 16.7306L22.1904 12.9392L20.0025 16.7286Z" fill="#C30203"/>
<path d="M31 20C31 30.2018 30.2018 31 20.0002 31C9.79862 31 9 30.2018 9 20C9 9.79824 9.79862 9 20.0002 9C30.2018 9 31 9.79824 31 20Z" fill="#471563"/>
<path d="M23.2893 22.4176H18.9113L21.0991 26.2109H25.4772L23.2893 22.4176Z" fill="#E3000A"/>
<path d="M25.4741 18.6301L27.6631 22.4215L25.4752 26.2129L23.2862 22.4196L25.4741 18.6301Z" fill="#C30203"/>
<path d="M16.7196 22.4176L18.907 18.6282H14.5294L12.3419 22.4176V22.4191L16.7196 22.4176Z" fill="#E3000A"/>
<path d="M18.9082 26.2117H14.5305L12.3415 22.4196V22.4181H16.7196L18.9082 26.2117Z" fill="#C30203"/>
<path d="M22.1911 12.9412H17.8135L15.626 16.7302H20.0033L22.1911 12.9412Z" fill="#E3000A"/>
<path d="M20.0025 16.7286L22.1915 20.5212L24.3794 16.7306L22.1904 12.9392L20.0025 16.7286Z" fill="#C30203"/>
</svg>
