<svg width="40" height="40" viewBox="0 0 40 40" fill="none" xmlns="http://www.w3.org/2000/svg">
<path d="M0 3.97291C0 1.77873 1.77873 0 3.97291 0H36.0271C38.2213 0 40 1.77873 40 3.97291V36.0271C40 38.2213 38.2213 40 36.0271 40H3.97291C1.77873 40 0 38.2213 0 36.0271V3.97291Z" fill="#E13134"/>
<path d="M16.7 23.9256C16.7 23.9006 16.7275 23.7181 16.7625 23.5231C17.0325 21.9631 17.0425 21.9081 17.1175 21.6806C17.28 21.1781 17.5874 20.7406 17.9599 20.4881C18.3024 20.2531 18.8925 20.0456 20.125 19.7281C20.9 19.5256 21.6575 19.3156 21.825 19.2531C22.175 19.1206 22.3374 18.9606 22.4249 18.6706C22.4749 18.5056 22.625 17.5331 22.625 17.3831C22.6225 17.2606 22.5399 17.1081 22.4424 17.0456C22.3224 16.9706 21.9649 16.9281 21.1924 16.8906C20.2874 16.8481 19.72 16.9056 19.4 17.0681C19.1775 17.1806 19.01 17.6281 18.8925 18.4306L18.8624 18.6306L18.2175 18.6381C17.805 18.6406 17.575 18.6356 17.575 18.6181C17.575 18.5356 17.735 17.6906 17.7875 17.4931C18.08 16.3981 18.615 15.9306 19.775 15.7556C20.32 15.6731 21.5649 15.6431 22.1574 15.6956C22.4924 15.7256 22.8374 15.8056 23.0499 15.9006C23.3449 16.0331 23.6075 16.2881 23.7575 16.5931C23.835 16.7506 23.8374 16.7631 23.8449 17.1556C23.8624 17.8506 23.78 18.4256 23.5825 19.0181C23.41 19.5331 23.21 19.8281 22.8825 20.0481C22.485 20.3131 22.255 20.3981 20.9 20.7681C18.915 21.3081 18.7924 21.3506 18.5774 21.5181C18.4149 21.6481 18.335 21.8356 18.26 22.2656C18.2275 22.4531 18.195 22.6356 18.19 22.6756L18.1775 22.7431H20.6C21.935 22.7431 23.025 22.7506 23.025 22.7581C23.025 22.7781 22.8524 23.8131 22.8349 23.9006L22.82 23.9681H19.76C16.8625 23.9681 16.7 23.9656 16.7 23.9256Z" fill="#CFD4DA"/>
<path d="M27.3574 23.9131C27.3774 23.8331 27.6499 22.2056 27.6499 22.1706C27.6499 22.1506 27.0724 22.1431 25.5799 22.1431H23.5074L23.6149 21.5006C23.7174 20.8956 23.7274 20.8556 23.7949 20.7831C23.8349 20.7406 24.2774 20.2681 24.7749 19.7306C25.2749 19.1956 26.3074 18.0831 27.0724 17.2631L28.4624 15.7681H29.9899L29.5624 18.3381L29.1324 20.9056L29.7199 20.9131L30.3074 20.9181L30.2924 21.0381C30.2749 21.1731 30.1324 22.0006 30.1124 22.0881L30.0999 22.1431H29.5124C29.1899 22.1431 28.9249 22.1481 28.9249 22.1556C28.9249 22.1756 28.6499 23.8431 28.6349 23.9131L28.6249 23.9681H27.3449L27.3574 23.9131ZM28.1524 19.1931C28.3099 18.2456 28.4324 17.4681 28.4224 17.4681C28.4124 17.4681 28.3824 17.4956 28.3574 17.5281C28.3324 17.5606 27.6324 18.3106 26.8024 19.1956C25.9724 20.0806 25.2699 20.8306 25.2424 20.8631L25.1924 20.9181H27.8624L28.1524 19.1931Z" fill="#CFD4DA"/>
<path d="M9.67505 23.9454C9.67505 23.9329 9.86005 22.7979 10.0876 21.4254C10.3151 20.0529 10.6151 18.2504 10.7501 17.4179C10.8876 16.5854 11.0076 15.8754 11.0151 15.8379L11.0301 15.7679H12.9451C14.4751 15.7679 14.9251 15.7754 15.1751 15.8054C16.0851 15.9129 16.5126 16.1829 16.6851 16.7629C16.7601 17.0229 16.7601 17.2179 16.6776 17.7929C16.5351 18.7804 16.4251 19.3704 16.3401 19.6129C16.2426 19.8829 16.0876 20.1304 15.8851 20.3354C15.7126 20.5129 15.6501 20.5579 15.4476 20.6504C15.2026 20.7654 15.0426 20.8154 14.6951 20.8879C14.5126 20.9254 14.3001 20.9304 12.9626 20.9304H11.4376L11.3226 21.6179C11.2601 21.9954 11.1476 22.6804 11.0726 23.1354L10.9376 23.9679H10.3076C9.94255 23.9679 9.67505 23.9579 9.67505 23.9454ZM14.4501 19.6804C14.5801 19.6579 14.7326 19.6179 14.7901 19.5929C14.9076 19.5354 15.0376 19.4129 15.0901 19.3104C15.1526 19.1904 15.4251 17.7279 15.4251 17.5154C15.4251 17.2529 15.3401 17.1329 15.1076 17.0754C14.9526 17.0354 13.8026 16.9979 12.6826 16.9954L12.1051 16.9929L12.0901 17.0629C12.0826 17.1004 11.9851 17.6804 11.8751 18.3529C11.7626 19.0254 11.6651 19.6079 11.6576 19.6479L11.6451 19.7179H12.9276C13.9626 19.7179 14.2576 19.7104 14.4501 19.6804Z" fill="white"/>
</svg>
