<svg width="40" height="40" viewBox="0 0 40 40" fill="none" xmlns="http://www.w3.org/2000/svg">
<rect x="0.5" y="0.5" width="39" height="39" rx="3.5" fill="white"/>
<rect x="0.5" y="0.5" width="39" height="39" rx="3.5" stroke="#DBD9D7"/>
<path fill-rule="evenodd" clip-rule="evenodd" d="M10.095 18.8762C10.095 23.9694 14.1308 28.123 19.1275 28.123C19.7408 28.123 20.3541 28.0677 21.0588 28.0042C21.8446 27.9334 22.7441 27.8524 23.884 27.8263C25.6136 27.8263 27.4874 28.4691 29.5534 30.3481C29.7455 30.5459 30.0338 30.2987 29.8416 30.0515C27.7757 27.4307 25.9019 26.9362 24.0281 26.4912C21.722 25.9473 20.5208 24.6616 19.7041 23.1782C19.5599 22.8815 19.4638 22.931 19.4638 23.3265C19.4158 23.9199 19.4638 24.4638 19.5599 25.0078H19.2717C16.0046 25.0078 13.314 22.2387 13.314 18.8762C13.314 15.5138 16.0046 12.7447 19.2717 12.7447C22.5387 12.7447 25.2293 15.5138 25.2293 18.8762C25.2293 19.074 25.2293 19.3213 25.1812 19.5685C24.7008 19.4696 23.884 19.4696 23.2594 19.519C23.0192 19.519 23.0192 19.6179 23.2114 19.6674C25.1332 20.063 26.4785 21.2992 26.8148 23.5738C26.8148 23.6727 26.8628 23.6727 26.9109 23.6232C27.6796 22.2387 28.16 20.6069 28.16 18.8762C28.16 13.7336 24.1242 9.58002 19.1275 9.58002C14.1308 9.58002 10.095 13.7831 10.095 18.8762ZM25.6616 22.6837C25.9979 22.832 26.1421 23.3265 26.1421 23.5738C26.1901 23.9693 26.094 24.1671 25.9499 24.1671C25.8057 24.1671 25.6136 24.0188 25.4214 23.6727C25.2292 23.3265 25.1331 22.9804 25.2292 22.7826C25.3733 22.6837 25.5175 22.6342 25.6616 22.6837ZM23.6918 24.2166C23.884 24.2166 24.1242 24.3155 24.3644 24.5133C24.7488 24.8594 24.8929 25.255 24.7008 25.5517C24.6047 25.7001 24.3644 25.7989 24.1723 25.7989C23.932 25.7989 23.6918 25.7001 23.5477 25.5517C23.1633 25.2056 23.0672 24.7111 23.3074 24.4144C23.3555 24.3155 23.4996 24.2166 23.6918 24.2166Z" fill="#F28A1A"/>
</svg>
