<svg width="40" height="40" viewBox="0 0 40 40" fill="none" xmlns="http://www.w3.org/2000/svg">
<rect width="40" height="40" rx="4" fill="white"/>
<rect width="40" height="40" rx="4" fill="black"/>
<rect x="0.5" y="0.5" width="39" height="39" rx="3.5" stroke="white" stroke-opacity="0.01"/>
<g clip-path="url(#clip0_13202_9858)">
<path fill-rule="evenodd" clip-rule="evenodd" d="M19.4752 13.942C19.2062 15.7672 18.9911 17.3038 18.6037 19.6969C19.6505 19.675 22.0265 20.0767 22.5494 16.8062C22.9824 14.0853 21.0526 13.8333 19.4752 13.942Z" fill="white"/>
<path fill-rule="evenodd" clip-rule="evenodd" d="M28.5415 27.0998C28.9489 27.9736 28.5387 29.0784 27.6889 29.523C27.201 29.7787 26.6439 30.0161 26.0878 30.1494C25.1697 30.3608 24.2311 30.4783 23.2874 30.5C21.7783 30.5 20.2653 29.6673 19.6135 28.6538C19.4449 29.0035 18.8367 29.7066 17.7709 30.0371C17.0973 30.2471 16.2855 30.5 14.5906 30.4982C13.072 30.4973 12.2061 29.8335 11.7485 29.2765C11.0191 28.3909 10.912 27.266 11.0541 26.5082L11.0617 26.4717C11.6348 23.7006 12.4183 18.6624 12.7793 16.1378L12.783 16.1132C12.8816 15.4129 12.982 14.7126 13.0417 14.0077C13.071 13.6525 13.0909 13.2955 13.0947 12.9395C13.0985 12.6025 13.0663 12.2665 13.0691 11.9296C13.0729 11.6119 13.126 11.2905 13.2804 11.0093C13.5315 10.5555 13.9909 10.1976 14.4769 10.0415C15.0103 9.86981 15.5674 9.80133 16.1216 9.73925C16.6882 9.67381 17.2561 9.61901 17.8249 9.5749C18.5185 9.52578 19.2137 9.5008 19.9091 9.50003C21.099 9.49912 22.2965 9.51829 23.4693 9.75112C24.664 9.98851 25.8709 10.4423 26.8135 11.2375C27.4596 11.7826 27.9722 12.4702 28.3577 13.2225C28.695 13.8854 28.8324 14.5829 28.9138 15.1162C29.0588 16.0731 29.0206 17.0476 28.8011 17.9913C28.6277 18.6794 28.3353 19.3344 27.9362 19.9288C27.4871 20.6008 26.9111 21.2107 26.1769 21.7914C26.6241 23.0423 27.7893 25.4856 28.5415 27.0998ZM15.178 12.0565C15.2064 12.5204 15.2102 12.9879 15.1894 13.4535C15.1685 13.9292 15.1259 14.4031 15.0709 14.876C15.0169 15.3472 14.9516 15.8165 14.8852 16.2858L14.8635 16.4391C14.655 17.9064 14.4352 19.3718 14.205 20.8345C13.9625 22.3721 13.6906 23.9014 13.4187 25.4326C13.2927 26.1466 13.0095 27.0615 13.3969 27.7426C13.7418 28.3507 14.6266 28.4247 15.2434 28.3635C17.4896 28.1425 17.8467 27.6614 17.8467 27.6614C17.3986 27.1829 17.788 25.0026 18.2389 22.0717H19.8352L21.5064 26.9428C21.5064 26.9428 21.999 28.452 23.368 28.379C25.1215 28.2859 26.4118 27.8997 26.5975 27.6851C26.0575 27.3947 24.5133 23.6732 23.6721 20.9404C24.0794 20.7012 24.4745 20.441 24.8468 20.1498C25.3555 19.7498 25.8273 19.2888 26.1883 18.7473C26.4478 18.3584 26.6458 17.9301 26.7595 17.4755C26.8192 17.2353 26.8524 16.9842 26.8732 16.7386C26.9111 16.3058 26.8969 15.8676 26.8315 15.4385C26.769 15.0258 26.6752 14.5665 26.4838 14.194C26.1286 13.4973 25.6255 12.8892 24.9396 12.5003C23.782 11.8447 22.4481 11.7196 21.1473 11.6512C19.7366 11.5756 18.3218 11.6202 16.9192 11.7845C16.762 11.8027 15.1714 11.9379 15.178 12.0565Z" fill="white"/>
</g>
<defs>
<clipPath id="clip0_13202_9858">
<rect width="18" height="21" fill="white" transform="translate(11 9.5)"/>
</clipPath>
</defs>
</svg>
