<svg width="40" height="40" viewBox="0 0 40 40" fill="none" xmlns="http://www.w3.org/2000/svg">
<rect width="40" height="40" rx="4" fill="#EA1D25"/>
<rect x="0.5" y="0.5" width="39" height="39" rx="3.5" stroke="white" stroke-opacity="0.01"/>
<g clip-path="url(#clip0_13202_9864)">
<path fill-rule="evenodd" clip-rule="evenodd" d="M30.4992 24.2662C30.4992 27.4481 25.8002 30.0067 19.9996 30.0067C14.1989 30.0067 9.5 27.4481 9.5 24.2662C9.5 21.9991 11.9424 20.0182 15.4427 19.1034C15.4427 19.9741 15.6365 20.8368 16.0679 21.6099L19.381 27.3504C19.62 27.7851 19.8058 28.2653 19.9027 28.7535L20.0514 28.5127C20.8637 27.1097 20.8637 25.3241 20.0514 23.9278L17.4085 19.3428C16.5962 17.8943 16.5962 16.1609 17.4085 14.7578L17.5572 14.5184C17.6541 15.0053 17.8399 15.4854 18.0855 15.9214L19.62 18.6232L22.0172 22.8176C22.2561 23.2523 22.4499 23.7325 22.5389 24.2127L22.6875 23.9732C23.4999 22.5769 23.4999 20.7913 22.6875 19.3963L20.0514 14.8113C19.2324 13.4069 19.2324 11.6294 20.0514 10.2263L20.1934 9.9856C20.2903 10.4658 20.4841 10.954 20.7217 11.382L23.9831 17.1225C24.3627 17.7525 24.5565 18.4721 24.6016 19.201C28.1537 20.1159 30.5509 22.0967 30.4992 24.2662Z" fill="white"/>
</g>
<defs>
<clipPath id="clip0_13202_9864">
<rect width="21" height="21" fill="white" transform="translate(9.5 9.5)"/>
</clipPath>
</defs>
</svg>
