<svg width="40" height="40" viewBox="0 0 40 40" fill="none" xmlns="http://www.w3.org/2000/svg">
<rect x="0.5" y="0.5" width="39" height="39" rx="3.5" fill="white"/>
<rect x="0.5" y="0.5" width="39" height="39" rx="3.5" stroke="#DBD9D7"/>
<path fill-rule="evenodd" clip-rule="evenodd" d="M22.3456 20.0673H23.4588C23.8117 20.0542 24.0264 20.0262 24.1036 19.9824C24.2092 19.9225 24.28 19.8028 24.3153 19.6231C24.3378 19.5035 24.3491 19.3257 24.3491 19.0895C24.3491 18.8001 24.3267 18.5857 24.2817 18.4456C24.2175 18.2494 24.0636 18.1298 23.82 18.0864C23.7719 18.0799 23.6565 18.0764 23.4738 18.0764H22.3456V20.0673ZM20.5599 23.4207V16.5793H23.8866C24.3429 16.5793 24.6911 16.6177 24.9304 16.6945C25.4775 16.8713 25.8447 17.2332 26.0327 17.7803C26.1298 18.0674 26.1783 18.4996 26.1783 19.0768C26.1783 19.7707 26.1244 20.2695 26.018 20.5731C25.8046 21.1735 25.3653 21.5194 24.7021 21.609C24.6241 21.6224 24.2922 21.6345 23.7065 21.6441L23.4101 21.6543H22.3455V23.4207H20.5599ZM13.2549 18.7616H11.5938C11.5938 18.4805 11.5617 18.2919 11.498 18.1958C11.3992 18.0538 11.1263 17.9826 10.6797 17.9826C10.246 17.9826 9.95854 18.0235 9.81824 18.1055C9.67803 18.1876 9.60784 18.3663 9.60784 18.6415C9.60784 18.8905 9.66998 19.0545 9.79458 19.1331C9.88384 19.1889 10.0018 19.2217 10.1488 19.2315L10.4838 19.2559C11.2018 19.305 11.6502 19.3396 11.829 19.3593C12.3968 19.4183 12.8085 19.574 13.0639 19.8264C13.2648 20.0232 13.3847 20.2805 13.4229 20.5982C13.4453 20.7883 13.4564 21.0034 13.4564 21.2423C13.4564 21.7931 13.4055 22.1965 13.3034 22.4521C13.1184 22.9211 12.7029 23.2173 12.0564 23.3418C11.7856 23.3944 11.3712 23.4207 10.8139 23.4207C9.8836 23.4207 9.23525 23.3636 8.86918 23.2488C8.41989 23.1082 8.12368 22.8233 7.98033 22.3944C7.90048 22.1556 7.86096 21.758 7.86096 21.2013H9.52212L9.52228 21.3436C9.52228 21.6406 9.6051 21.8317 9.77035 21.9168C9.88489 21.9754 10.0232 22.0062 10.1858 22.0099H10.7964C11.1081 22.0099 11.307 21.9934 11.3928 21.9604C11.5455 21.8985 11.6457 21.7988 11.6936 21.6609C11.719 21.576 11.7317 21.4661 11.7317 21.3316C11.7317 21.0304 11.625 20.8472 11.4121 20.7814C11.3325 20.7554 10.9621 20.7193 10.3009 20.6734C9.77003 20.6343 9.40122 20.5967 9.19469 20.5602C8.65081 20.4553 8.28837 20.2396 8.1075 19.9121C7.94854 19.6338 7.86901 19.2127 7.86901 18.6495C7.86901 18.2206 7.91199 17.8766 7.99788 17.6179C8.08384 17.3591 8.22236 17.1627 8.41353 17.0283C8.69355 16.8221 9.0519 16.701 9.48807 16.6648C9.851 16.6322 10.2536 16.6155 10.6965 16.6155C11.3937 16.6155 11.8905 16.6568 12.1867 16.7387C12.9096 16.939 13.271 17.5 13.271 18.4219C13.271 18.4975 13.2656 18.6105 13.2549 18.7616ZM28.7985 17.9399L29.6351 20.9055H27.9866L28.7985 17.9399ZM27.6024 22.2383H29.9898L30.3305 23.4207H32.1391L30.1212 16.5793H27.4277L25.4342 23.4207H27.2817L27.6024 22.2383Z" fill="#10298E"/>
<path fill-rule="evenodd" clip-rule="evenodd" d="M18.0954 17.5418C18.8319 17.5418 19.4892 17.8916 19.9212 18.4396L20.3061 17.5886C19.7041 17.0019 18.8848 16.6402 17.9812 16.6402C16.5742 16.6402 15.3706 17.5164 14.8767 18.7567H14.1261L13.6829 19.7365H14.6485C14.6412 19.8273 14.6366 19.9183 14.6366 20.0111C14.6366 20.1234 14.6422 20.2344 14.653 20.344H14.1677L13.7246 21.3241H14.8997C15.4077 22.533 16.5963 23.3818 17.9812 23.3818C18.6791 23.3818 19.3267 23.1661 19.8629 22.7978V21.5967C19.4311 22.1037 18.7995 22.424 18.0954 22.424C17.2723 22.424 16.5483 21.9864 16.1267 21.3241H18.5873L19.0304 20.344H15.7646C15.7478 20.2261 15.7388 20.1056 15.7388 19.9828C15.7388 19.8998 15.743 19.8176 15.7507 19.7365H19.3051L19.7482 18.7567H16.0581C16.4662 18.0305 17.2256 17.5418 18.0954 17.5418Z" fill="#FFBE00"/>
</svg>
