<svg width="40" height="40" viewBox="0 0 40 40" fill="none" xmlns="http://www.w3.org/2000/svg">
<rect x="0.5" y="0.5" width="39" height="39" rx="3.5" fill="white"/>
<rect x="0.5" y="0.5" width="39" height="39" rx="3.5" stroke="#DBD9D7"/>
<path fill-rule="evenodd" clip-rule="evenodd" d="M24.2194 16.8381C24.2194 16.2857 24.6569 15.8376 25.1956 15.8376C25.7353 15.8376 26.1725 16.2857 26.1725 16.8381C26.1725 17.3907 25.7353 17.8378 25.1956 17.8378C24.6569 17.8378 24.2194 17.3907 24.2194 16.8381ZM27.0264 16.6558L29.0065 16.2929V24.0788H27.0264V16.6558ZM29.9186 16.6558V24.0788H31.9V16.2929L29.9186 16.6558ZM24.2057 18.384V24.0788H26.1868V18.384H24.2057ZM20.3279 20.8751C20.3279 19.2025 21.2578 18.3609 23.0882 18.3005C23.0882 18.3005 23.4188 18.2875 23.6139 18.3301V19.9946C22.4536 20.0356 22.3254 20.4648 22.3254 21.4658V24.0788H20.3279V20.8751ZM17.7135 18.3775L17.7034 18.4043C17.6325 18.595 17.3097 19.4628 16.5853 20.3602V16.2929L14.5407 16.7071V24.0788H16.5853V21.7999C17.1773 22.7096 17.4698 24.0788 17.4698 24.0788H19.9183C19.6762 23.0475 18.6168 21.1464 18.6168 21.1464C19.568 19.9111 19.9852 18.5955 20.0518 18.3775H17.7135ZM10.2819 18.5998C10.2819 19.1342 10.8619 19.1729 11.1123 19.1895C12.9484 19.3156 14.0427 20.236 14.0427 21.6523C14.0427 22.902 13.0642 24.1623 10.8813 24.1623C9.86916 24.1623 9.00552 24.0603 8.23961 23.854V22.0351C8.75106 22.2505 9.59376 22.4767 10.4618 22.4767C11.2541 22.4767 11.7252 22.2083 11.7252 21.7521C11.7252 21.2017 11.1538 21.1659 10.9347 21.1521L10.9324 21.152C8.3754 20.9736 8.10001 19.4244 8.10001 18.7668C8.10001 17.6247 8.8913 16.2929 11.1246 16.2929C12.4201 16.2929 13.1184 16.4998 13.72 16.7153L13.7501 16.7247V18.4912L13.7276 18.4847C13.4861 18.3801 13.2025 18.2774 13.2025 18.2774C12.6929 18.1212 11.9803 17.9548 11.4295 17.9548C11.1164 17.9548 10.2819 17.9548 10.2819 18.5998Z" fill="#862165"/>
</svg>
