<svg width="40" height="40" viewBox="0 0 40 40" fill="none" xmlns="http://www.w3.org/2000/svg">
<rect x="0.5" y="0.5" width="39" height="39" rx="3.5" fill="white"/>
<rect x="0.5" y="0.5" width="39" height="39" rx="3.5" stroke="#DBD9D7"/>
<path fill-rule="evenodd" clip-rule="evenodd" d="M24.0753 16.4307L25.4724 9.26928C25.6405 8.46586 25.1783 7.65627 24.4038 7.42143C23.5393 7.19895 22.6688 7.71807 22.4467 8.59565L21.1808 13.0572L20.1829 8.66366C20.1048 8.25577 19.8647 7.89115 19.5225 7.6563C19.1803 7.42146 18.754 7.34112 18.3518 7.42764C17.5593 7.60068 17.043 8.55242 17.2412 9.41763L17.8299 14.3943C17.3184 13.8695 16.7211 13.7078 16.0288 14.1206L15.9388 14.1824C15.3079 14.6247 15.1796 15.5285 15.585 16.3516C15.2494 16.3711 14.9214 16.5151 14.672 16.7781L14.6119 16.8461C14.0296 17.4641 14.1437 18.5085 14.8701 19.2563L15.4602 19.8618C15.5265 22.6604 17.738 24.6206 20.3455 24.6206C20.3764 24.6206 20.4061 24.6162 20.4343 24.6081C23.9663 24.5718 25.5186 22.4063 25.7846 19.1203C25.8686 18.0821 25.6825 17.3714 25.2923 16.9449C25.0762 16.7101 24.848 16.5989 24.6739 16.5741L24.0753 16.4307ZM23.4431 16.2792L24.8361 9.13331C24.9321 8.66363 24.662 8.20012 24.2297 8.06416C23.7254 7.93438 23.2091 8.24956 23.071 8.77487L21.4561 14.4729C21.408 14.6521 21.2279 14.751 21.0538 14.7016C20.9156 14.6623 20.8266 14.5373 20.8198 14.3978L19.5465 8.79962C19.4985 8.5586 19.3604 8.34847 19.1623 8.21251C18.9642 8.07655 18.718 8.03329 18.4839 8.08273C18.0636 8.17543 17.7515 8.75636 17.8775 9.27549L17.8835 9.31257L18.6112 15.4876L19.0689 16.1909C19.2688 15.9052 19.557 15.7273 19.9011 15.6471C20.1893 15.5853 20.4835 15.5915 20.7656 15.6409C20.836 15.6513 20.8895 15.666 20.9192 15.6741C20.925 15.6757 20.9298 15.677 20.9337 15.678L23.4431 16.2792ZM18.7812 16.9497L18.0646 15.8489C18.0402 15.8222 18.0199 15.7914 18.0052 15.7575L17.6678 15.2392C17.2536 14.615 16.8513 14.3987 16.371 14.683L16.305 14.7325C15.9328 14.9982 15.8848 15.6286 16.269 16.2342L17.6858 18.4034C17.938 18.7866 18.4423 18.8855 18.8145 18.6259L18.8865 18.5827C18.9861 18.5157 19.0685 18.4235 19.1276 18.3175C18.7718 17.9424 18.6837 17.4786 18.7812 16.9497ZM19.783 18.0303C19.746 17.9721 19.6906 17.9255 19.6225 17.8996C19.3518 17.6315 19.3411 17.2968 19.4689 16.8584C19.5649 16.5371 19.7511 16.3702 20.0452 16.3022C20.2373 16.259 20.4475 16.2651 20.6516 16.3022C20.6745 16.3069 20.6948 16.3108 20.7122 16.314C20.7402 16.3193 20.7605 16.3231 20.7717 16.3269L24.5539 17.2354L24.6259 17.2601C24.6859 17.2848 24.752 17.3343 24.818 17.4023C25.0702 17.6804 25.2143 18.2057 25.1422 19.0709C24.8961 22.0991 23.5273 23.9779 20.2734 23.947C20.2551 23.947 20.2373 23.9485 20.2199 23.9514C18.2476 23.8973 16.5794 22.5717 16.1919 20.6125L16.6771 21.1104C17.2595 21.6851 18.178 21.6727 18.7423 21.0795L18.8084 21.0115C19.2563 20.5304 19.3331 19.8217 19.042 19.2611C19.085 19.2372 19.1273 19.2109 19.1687 19.1821L19.2407 19.1327C19.4039 19.0183 19.5409 18.8709 19.6461 18.7012C19.8653 18.8188 20.1288 18.9219 20.4415 19.0091L21.348 19.2254C20.6756 19.6147 20.2553 20.3378 20.2073 21.444C20.1953 21.6294 20.3334 21.784 20.5135 21.7963C20.6936 21.8025 20.8437 21.6665 20.8557 21.4811C20.9037 20.48 21.2819 19.9423 21.8883 19.7074C22.2125 19.5838 22.5667 19.5591 22.8789 19.59L22.9569 19.6024C23.3712 19.6827 23.5033 19.0462 23.089 18.9473L20.5975 18.3725C20.238 18.2714 19.9722 18.1591 19.783 18.0303ZM15.1402 17.2478C15.3894 16.9793 15.7952 16.947 16.0877 17.1563L17.1455 18.7804C17.4357 19.2167 17.9055 19.448 18.3806 19.4394C18.6397 19.763 18.6259 20.2419 18.3341 20.548L18.2741 20.6159C17.9619 20.9435 17.4516 20.9497 17.1334 20.6283L15.3323 18.7928C14.8341 18.2799 14.768 17.6495 15.0802 17.3158L15.1402 17.2478ZM12.7388 30.8934C12.7388 31.9255 11.9584 32.63 10.9378 32.63C10.2234 32.63 9.611 32.2963 9.23278 31.7648L9.93519 31.0417C10.1453 31.3198 10.4935 31.6226 10.9498 31.6226C11.376 31.6226 11.6702 31.3631 11.6702 30.9428C11.6702 30.4979 11.322 30.3866 10.7757 30.2259C9.7731 29.9231 9.36486 29.3854 9.36486 28.6871C9.36486 27.8095 10.0132 27.0556 11.0338 27.0556C11.6762 27.0556 12.2706 27.3646 12.5347 27.964L11.6882 28.5141C11.5261 28.2421 11.304 28.0629 11.0038 28.0629C10.6496 28.0629 10.4275 28.3101 10.4275 28.6253C10.4275 29.0023 10.7517 29.1197 11.268 29.2742C12.0784 29.5214 12.7388 29.9355 12.7388 30.8934ZM13.1049 30.6586C13.1049 31.7401 13.9814 32.63 15.062 32.63C16.1426 32.63 17.0191 31.7401 17.0191 30.6586C17.0191 29.5771 16.1426 28.6871 15.062 28.6871C13.9814 28.6871 13.1049 29.5771 13.1049 30.6586ZM15.0618 31.6412C15.5841 31.6412 15.9983 31.2148 15.9983 30.6586C15.9983 30.1024 15.5841 29.6759 15.0618 29.6759C14.5334 29.6759 14.1252 30.1024 14.1252 30.6586C14.1252 31.221 14.5394 31.6412 15.0618 31.6412ZM19.5466 27.1235V28.1124C18.9763 28.0876 18.562 28.3843 18.562 29.0394V29.4411C18.7901 29.1939 19.1143 29.0703 19.5166 29.0703V30.0715C18.9522 30.0838 18.562 30.4546 18.562 30.9737V32.5311H17.5414V28.9776C17.5414 27.9764 18.1538 27.1235 19.3965 27.1235H19.5466ZM21.7739 32.63C20.6933 32.63 19.8168 31.7401 19.8168 30.6586C19.8168 29.5771 20.6933 28.6871 21.7739 28.6871C22.8545 28.6871 23.7311 29.5771 23.7311 30.6586C23.7311 31.7401 22.8545 32.63 21.7739 32.63ZM22.7104 30.6586C22.7104 31.2148 22.3022 31.6412 21.7738 31.6412C21.2515 31.6412 20.8373 31.221 20.8373 30.6586C20.8373 30.1024 21.2515 29.6759 21.7738 29.6759C22.2961 29.6759 22.7104 30.1024 22.7104 30.6586ZM25.2739 29.2186V28.7922H24.2833V32.5311H25.3039V30.8254C25.3039 30.2074 25.6581 29.8613 26.2705 29.8613V28.7365C25.8082 28.718 25.478 28.8787 25.2739 29.2186ZM27.8795 29.7069V30.6215C27.8795 31.2766 28.2938 31.5671 28.8641 31.5485V32.5374H28.714C27.4653 32.5374 26.8589 31.6845 26.8589 30.6833V27.5933H27.8795V28.1804C27.8795 28.6872 28.2818 29.0703 28.8341 29.0827V30.0777C28.4258 30.0777 28.1077 29.9541 27.8795 29.7069ZM30.0828 32.593C30.455 32.593 30.7672 32.2778 30.7672 31.8884C30.7672 31.5053 30.461 31.1839 30.0828 31.1839C29.7046 31.1839 29.3984 31.4991 29.3984 31.8884C29.3984 32.2778 29.7046 32.593 30.0828 32.593Z" fill="black"/>
</svg>
