<svg width="40" height="40" viewBox="0 0 40 40" fill="none" xmlns="http://www.w3.org/2000/svg">
<rect width="40" height="40" rx="4" fill="#F59100"/>
<rect x="0.5" y="0.5" width="39" height="39" rx="3.5" stroke="white" stroke-opacity="0.01"/>
<path d="M9 9V31H31V9H9Z" fill="#F59100"/>
<path d="M17.7208 19.9516C17.7208 21.1 17.4744 21.9668 16.1984 21.9668C14.7728 21.9668 14.6144 20.9416 14.6144 20.1056V13.6244L12.784 14.0292V20.3916C12.784 22.8116 14.4604 23.7444 16.106 23.7444C18.2488 23.7444 19.5204 22.3804 19.5204 20.6732V13.6244L17.69 14.0292V19.956H17.7208V19.9516Z" fill="white"/>
<path d="M24.1404 16.26C23.3968 16.26 22.7456 16.4756 22.156 16.8804V15.8552L20.3872 16.2908V26.006L22.156 25.6012V23.1196C22.7148 23.5244 23.3968 23.74 24.1404 23.74C26.1248 23.74 27.7088 22.0636 27.7088 20.0176C27.7088 17.9716 26.1292 16.26 24.1404 16.26ZM24.048 22.1252C22.8688 22.1252 22.0328 21.1308 22.0328 19.9824C22.0328 18.834 22.8996 17.8396 24.048 17.8396C25.2272 17.8396 26.0632 18.834 26.0632 19.9824C26.0676 21.1308 25.2272 22.1252 24.048 22.1252Z" fill="white"/>
</svg>
