<svg width="40" height="40" viewBox="0 0 40 40" fill="none" xmlns="http://www.w3.org/2000/svg">
<rect width="40" height="40" rx="4" fill="#F36805"/>
<rect x="0.5" y="0.5" width="39" height="39" rx="3.5" stroke="white" stroke-opacity="0.01"/>
<path d="M22.3649 20.4492C22.3056 20.4492 22.2378 20.4492 22.1784 20.4662C21.9411 20.5171 21.7377 20.6527 21.602 20.8561C21.4664 21.0596 21.424 21.3054 21.4749 21.5427C21.5257 21.7801 21.6614 21.9835 21.8648 22.1191C22.0682 22.2548 22.3141 22.2971 22.5429 22.2463C22.7803 22.1954 22.9837 22.0598 23.1193 21.8564C23.255 21.6529 23.2973 21.4071 23.2465 21.1698C23.1532 20.7459 22.7803 20.4492 22.3564 20.4492H22.3649Z" fill="white"/>
<path d="M22.3649 20.4492C22.3056 20.4492 22.2378 20.4492 22.1784 20.4662C21.9411 20.5171 21.7377 20.6527 21.602 20.8561C21.4664 21.0596 21.424 21.3054 21.4749 21.5427C21.5257 21.7801 21.6614 21.9835 21.8648 22.1191C22.0682 22.2548 22.3141 22.2971 22.5429 22.2463C22.7803 22.1954 22.9837 22.0598 23.1193 21.8564C23.255 21.6529 23.2973 21.4071 23.2465 21.1698C23.1532 20.7459 22.7803 20.4492 22.3564 20.4492H22.3649Z" fill="white"/>
<path d="M12.261 16.7704C14.626 15.3888 17.3385 14.6598 20.1103 14.6598C20.6697 14.6598 21.2377 14.6937 21.7971 14.753C22.1701 14.7954 22.5431 14.8123 22.916 14.8123C23.9502 14.8123 24.9589 14.6428 25.9422 14.3546L23.9756 10.5995C23.8485 10.3621 23.6111 10.1926 23.3483 10.1502C23.0771 10.1163 22.8058 10.2011 22.6193 10.3961C20.8308 12.2524 18.4404 13.4985 15.8974 13.9223C12.9815 14.4055 10.2436 15.838 8.20072 17.9487C7.94642 18.2114 7.88708 18.6098 8.05661 18.932L11.9304 26.3235C12.0576 26.5609 12.2949 26.7304 12.5577 26.7728C12.5746 26.7728 12.5831 26.7728 12.6001 26.7728L11.0573 19.4914C10.8284 18.4149 11.3116 17.3214 12.261 16.7704Z" fill="white"/>
<path d="M32.0283 23.5771L30.299 15.4057C30.2736 15.2701 30.2143 15.1514 30.1295 15.0497C30.121 15.0327 30.0956 15.0327 30.0871 15.0158C30.0108 14.931 29.9261 14.8547 29.8159 14.8039C29.6972 14.753 29.57 14.7276 29.4429 14.736C29.4259 14.736 29.4175 14.736 29.4005 14.736C29.2818 14.7445 29.1547 14.7784 29.0445 14.8378C29.0445 14.8378 29.0445 14.8378 29.036 14.8378C28.6885 15.0412 28.3325 15.2192 27.968 15.3803C27.9425 15.3887 27.9171 15.4057 27.8917 15.4142C26.332 16.1093 24.6367 16.4822 22.9244 16.4822C22.4921 16.4822 22.0513 16.4568 21.619 16.4144C21.1189 16.3635 20.6188 16.3296 20.1187 16.3296C17.669 16.3296 15.2277 16.9823 13.1255 18.2114C12.8119 18.3979 12.6508 18.7624 12.7271 19.1184L14.4563 27.2814C14.5157 27.5441 14.6937 27.773 14.9395 27.8832C15.0497 27.9341 15.1684 27.9595 15.2786 27.9595C15.4227 27.9595 15.5752 27.9171 15.7024 27.8408C15.7278 27.8239 15.7448 27.8154 15.7702 27.8069C16.0075 27.6713 16.2449 27.5441 16.4822 27.4255C16.584 27.3746 16.6772 27.3322 16.7789 27.2898C16.9484 27.2135 17.1265 27.1373 17.3045 27.061C17.4147 27.0186 17.5249 26.9762 17.6435 26.9338C17.8131 26.8745 17.9911 26.8151 18.1691 26.7558C18.2793 26.7219 18.3895 26.688 18.5081 26.6541C18.7031 26.6032 18.8896 26.5524 19.0845 26.51C19.1778 26.4846 19.2795 26.4591 19.3727 26.4422C19.6609 26.3828 19.9576 26.332 20.2458 26.2896C20.2797 26.2896 20.3136 26.2896 20.3475 26.2811C20.6103 26.2472 20.8731 26.2218 21.1359 26.2133C21.2291 26.2133 21.3308 26.2133 21.4241 26.2048C21.5597 26.2048 21.6953 26.1879 21.8309 26.1879C21.8733 26.1879 21.9242 26.1879 21.9666 26.1879C22.3565 26.1879 22.7549 26.2133 23.1448 26.2557C23.5856 26.3066 24.0349 26.3235 24.4756 26.332C24.6875 26.332 24.8995 26.332 25.1029 26.332C25.2131 26.332 25.3148 26.332 25.425 26.3235C25.7471 26.3066 26.0692 26.2726 26.3913 26.2387C26.4083 26.2387 26.4252 26.2387 26.4337 26.2387C26.7728 26.1964 27.1034 26.137 27.4424 26.0692C27.5442 26.0523 27.6459 26.0184 27.7391 26.0014C27.968 25.9505 28.2053 25.8912 28.4342 25.8234C28.5529 25.7895 28.6631 25.7556 28.7817 25.7217C28.9936 25.6539 29.214 25.586 29.4175 25.5013C29.5277 25.4589 29.6463 25.4165 29.7565 25.3741C29.9769 25.2894 30.1973 25.1876 30.4177 25.0859C30.5109 25.0435 30.6042 25.0012 30.6974 24.9588C31.0026 24.8062 31.3077 24.6536 31.6044 24.4756C31.9181 24.2891 32.0791 23.9246 32.0028 23.5686L32.0283 23.5771ZM16.4992 22.8651L15.9736 21.2545C16.7704 21.0002 17.5927 20.8137 18.4149 20.7035L18.6353 22.3819C17.9148 22.4751 17.1858 22.6447 16.4907 22.8651H16.4992ZM24.5519 22.7803C24.1705 23.3652 23.5856 23.7636 22.9075 23.9077C22.7295 23.9501 22.543 23.967 22.365 23.967C21.8649 23.967 21.3817 23.8229 20.9494 23.5432C20.3645 23.1618 19.9661 22.5769 19.822 21.8987C19.6779 21.2206 19.805 20.5255 20.1865 19.9407C20.5679 19.3558 21.1528 18.9574 21.8309 18.8133C23.2296 18.5166 24.6197 19.4151 24.9164 20.8222C25.0605 21.5003 24.9334 22.1954 24.5519 22.7803ZM26.3066 22.0768L26.0777 20.3984C26.8067 20.3051 27.5272 20.1356 28.2223 19.9152L28.7478 21.5258C27.9595 21.7801 27.1373 21.9666 26.3066 22.0768Z" fill="white"/>
</svg>
