<svg width="40" height="40" viewBox="0 0 40 40" fill="none" xmlns="http://www.w3.org/2000/svg">
<rect width="40" height="40" rx="4" fill="#3E4A59"/>
<path d="M16.8177 17.9713C15.9534 17.9713 15.4018 18.4187 15.0647 18.9519H15.0341L15.0463 18.0877H13.3731C13.2198 18.0877 13.085 18.2777 13.085 18.4493V23.7817C13.085 23.9533 13.226 24.1311 13.3792 24.1311H15.0463V21.14C15.0463 20.2758 15.2854 19.5894 16.1251 19.5894C16.9341 19.5894 17.0567 20.19 17.0567 20.9868V23.7756C17.0567 23.9656 17.1977 24.125 17.3448 24.125H19.018V20.5516C19.0242 19.099 18.5706 17.9713 16.8177 17.9713V17.9713ZM29.7502 17.9713C28.9596 17.9713 28.4141 18.2593 28.0954 18.5535C28.1076 18.3329 28.1076 18.0203 28.1076 17.7077V15.6728H26.4405C26.2873 15.6728 26.1524 15.8628 26.1524 16.0222V23.7756C26.1524 23.9656 26.2934 24.125 26.4466 24.125H28.0157L28.0034 23.6285C28.4509 24.0575 29.0576 24.2598 29.738 24.2598C31.4909 24.2598 32.6064 22.8869 32.6064 21.1094C32.5942 19.3381 31.4909 17.9713 29.7502 17.9713V17.9713ZM29.3273 22.6294C28.506 22.6294 27.936 21.992 27.936 21.0604C27.936 20.1287 28.4999 19.4913 29.3273 19.4913C30.1486 19.4913 30.7003 20.1287 30.7003 21.0604C30.7003 21.992 30.1548 22.6294 29.3273 22.6294ZM12.7418 18.0816H10.7253C10.572 18.0816 10.4127 18.1674 10.3146 18.2838L8.64746 20.0858V15.6667H6.96806C6.81483 15.6667 6.67999 15.8567 6.67999 16.0161V23.7756C6.67999 23.9472 6.79645 24.125 6.96806 24.125H8.64133V22.2985L9.18683 21.7775L10.5291 23.8982C10.6517 24.0698 10.8233 24.125 11.0256 24.125H12.9195L10.5291 20.3433L12.7418 18.0816ZM24.6814 18.6761C24.2033 18.2287 23.5475 17.9713 22.4259 17.9713C21.4636 17.9713 20.6361 18.2409 20.0906 18.4677C19.9497 18.5351 19.8884 18.7251 19.9497 18.8661L20.3481 19.8652C20.6607 19.6629 21.4268 19.3197 22.193 19.3197C22.9836 19.3197 23.4311 19.6507 23.4311 20.2881V20.4229L21.9049 20.4781C20.7894 20.5271 19.5513 20.9807 19.5513 22.323C19.5513 23.6653 20.6852 24.2475 21.7517 24.2475C22.7323 24.2475 23.2288 23.7327 23.4862 23.4753L23.5169 23.8859C23.5291 24.0024 23.6333 24.1066 23.7865 24.1066H25.4046V20.7171C25.3985 19.7058 25.1472 19.1174 24.6814 18.6761V18.6761ZM23.4556 22.4701C23.333 22.6785 22.9775 23.0217 22.4565 23.0217C21.911 23.0217 21.531 22.7336 21.531 22.2801C21.531 21.8326 21.8804 21.563 22.481 21.5446L23.4494 21.4894V22.4701H23.4556ZM32.8026 24.3334C32.5145 24.3334 32.3 24.1127 32.3 23.8308C32.3 23.5427 32.5206 23.3282 32.8026 23.3282C33.0845 23.3282 33.3052 23.5488 33.3052 23.8308C33.3113 24.1188 33.0784 24.3334 32.8026 24.3334ZM32.8026 23.4017C32.5635 23.4017 32.3735 23.5917 32.3735 23.8308C32.3735 24.0698 32.5635 24.2598 32.8026 24.2598C33.0416 24.2598 33.2316 24.0698 33.2316 23.8308C33.2316 23.5917 33.0416 23.4017 32.8026 23.4017ZM33.0539 24.125H32.9129L32.7903 23.8859H32.7352V24.125H32.6126V23.5366H32.821C32.9435 23.5366 33.0294 23.604 33.0294 23.7204C33.0294 23.8369 32.9558 23.8737 32.9068 23.8921L33.0539 24.125ZM32.7964 23.6408H32.729V23.8001H32.7964C32.8516 23.8001 32.9006 23.7879 32.9006 23.7266C32.9006 23.6469 32.8516 23.6408 32.7964 23.6408V23.6408Z" fill="white"/>
</svg>
