<svg width="40" height="40" viewBox="0 0 40 40" fill="none" xmlns="http://www.w3.org/2000/svg">
<rect width="40" height="40" rx="4" fill="#000001"/>
<path fill-rule="evenodd" clip-rule="evenodd" d="M22.0714 14.1694C20.6905 14.1218 19.4048 14.8361 18.7857 16.0741H18.5476C17.9762 14.8837 16.7381 14.1694 15.4524 14.1694C14.2619 14.1218 13.119 14.6932 12.4524 15.6932H12.2143L11.881 14.3599H9.5V25.3599H12.4524V19.0741C12.4524 17.5503 13.4524 16.7884 14.4048 16.7884C15.4048 16.7884 16.2619 17.598 16.2619 19.1218V25.3599H19.2143V19.1218C19.2143 17.598 20.119 16.7884 21.119 16.7884C22.1667 16.7884 23.0238 17.5503 23.0238 19.0741V25.3599H25.9762V18.9789C25.9762 15.6456 24.3571 14.1694 22.0714 14.1694Z" fill="white"/>
<path fill-rule="evenodd" clip-rule="evenodd" d="M28.7857 25.5028C29.7381 25.5028 30.5 24.7409 30.5 23.7885C30.5 22.8361 29.7381 22.0742 28.7857 22.0742C27.8333 22.0742 27.0714 22.8361 27.0714 23.7885C27.0714 24.7409 27.881 25.5028 28.7857 25.5028Z" fill="#FF788B"/>
</svg>
