<svg width="40" height="40" viewBox="0 0 40 40" fill="none" xmlns="http://www.w3.org/2000/svg">
<rect x="0.5" y="0.5" width="39" height="39" rx="3.5" fill="white"/>
<rect x="0.5" y="0.5" width="39" height="39" rx="3.5" stroke="#DBD9D7"/>
<path d="M8.25333 12.248C8.25333 10.086 10.006 8.33331 12.168 8.33331H27.672C29.834 8.33331 31.5867 10.086 31.5867 12.248V27.752C31.5867 29.914 29.834 31.6666 27.672 31.6666H12.168C10.006 31.6666 8.25333 29.914 8.25333 27.752V12.248Z" fill="url(#paint0_linear_16573_1104)"/>
<path d="M14.9537 13.1448V18.3452H20.4358V13.1448H23.4261V26.7093H20.4358V20.8588H14.9537V26.7093H11.9635V13.1448H14.9537ZM25.8522 18.3452C26.1339 17.9335 26.4806 17.5868 26.914 17.3268C27.3473 17.0668 27.824 16.8934 28.3658 16.7851C28.9075 16.6768 29.4492 16.6334 29.9909 16.6334C30.4893 16.6334 30.9876 16.6768 31.486 16.7418C31.9844 16.8068 31.5867 16.8889 31.6594 17.2778C31.6594 17.337 31.6594 17.4074 31.6594 17.537C31.6594 18.0103 31.6594 17.7602 31.6594 18.3452V20.2592C31.6594 20.7778 31.6594 20.8804 31.6594 21.4259V23.1937C31.6594 23.689 31.6594 24.1481 31.6594 24.7963C31.6377 24.6446 31.681 25.9509 31.6594 25.7775C31.226 26.2109 30.7276 26.5359 30.1426 26.7093C29.5575 26.8826 28.9725 26.9693 28.3658 26.9693C27.889 26.9693 27.4557 26.9043 27.0656 26.796C26.6539 26.6876 26.3072 26.5143 26.0039 26.2542C25.7005 26.0159 25.4622 25.7125 25.2888 25.3442C25.1155 24.9758 25.0288 24.5424 25.0288 24.0224C25.0288 23.459 25.1371 23.004 25.3322 22.6356C25.5272 22.2672 25.7872 21.9855 26.0906 21.7689C26.3939 21.5522 26.7623 21.4005 27.1523 21.2922C27.5424 21.1838 27.9541 21.0971 28.3658 21.0321C28.7775 20.9671 29.1675 20.9238 29.5575 20.8804C29.9476 20.8371 30.2943 20.7938 30.5976 20.7071C30.901 20.6204 31.1393 20.5121 31.3127 20.3821C31.486 20.2304 31.5727 20.0137 31.551 19.7537C31.551 19.472 31.5077 19.2336 31.3993 19.0603C31.3127 18.8869 31.1827 18.7569 31.031 18.6703C30.8793 18.5836 30.6843 18.5186 30.4893 18.4753C30.2726 18.4536 30.0559 18.4319 29.8175 18.4319C29.2975 18.4319 28.8641 18.5403 28.5608 18.7786C28.2574 19.017 28.0841 19.3853 28.0407 19.927H25.3322C25.4188 19.277 25.5705 18.7569 25.8522 18.3452ZM31.161 22.1372C30.9876 22.2022 30.8143 22.2456 30.6193 22.2889C30.4243 22.3322 30.2076 22.3539 30.0126 22.3756C29.7959 22.3972 29.5792 22.4406 29.3625 22.4623C29.1675 22.5056 28.9508 22.5489 28.7558 22.6139C28.5608 22.6789 28.3874 22.7656 28.2357 22.874C28.0841 22.9823 27.9757 23.1123 27.889 23.2857C27.8024 23.459 27.759 23.654 27.759 23.914C27.759 24.1524 27.8024 24.3474 27.889 24.5208C27.9757 24.6941 28.1057 24.8241 28.2574 24.9108C28.4091 24.9975 28.5824 25.0625 28.7775 25.1058C28.9725 25.1491 29.1892 25.1708 29.4058 25.1708C29.9259 25.1708 30.3376 25.0841 30.6409 24.9108C30.9226 24.7374 31.1393 24.5208 31.291 24.2824C31.421 24.0441 31.5077 23.784 31.551 23.524C31.5727 23.264 31.5944 23.069 31.5944 22.9173V21.9205C31.486 22.0072 31.3343 22.0939 31.161 22.1372Z" fill="white"/>
<defs>
<linearGradient id="paint0_linear_16573_1104" x1="29.7841" y1="16.6296" x2="14.0429" y2="25.2726" gradientUnits="userSpaceOnUse">
<stop stop-color="#008DC8"/>
<stop offset="1" stop-color="#0063A5"/>
</linearGradient>
</defs>
</svg>
