<svg width="40" height="40" viewBox="0 0 40 40" fill="none" xmlns="http://www.w3.org/2000/svg">
<rect x="0.5" y="0.5" width="39" height="39" rx="3.5" fill="white"/>
<rect x="0.5" y="0.5" width="39" height="39" rx="3.5" stroke="#DBD9D7"/>
<path fill-rule="evenodd" clip-rule="evenodd" d="M9.0877 16.3719L5.90659 23.6187H9.71483L10.1869 22.4633H11.2661L11.7382 23.6187H15.93V22.7368L16.3035 23.6187H18.4718L18.8453 22.7182V23.6187H27.5631L28.6232 22.4933L29.6158 23.6187L34.0934 23.628L30.9023 20.0156L34.0934 16.3719H29.6852L28.6533 17.4766L27.692 16.3719H18.2082L17.3938 18.2424L16.5603 16.3719H12.76V17.2238L12.3373 16.3719H9.0877ZM9.82458 17.401H11.6809L13.7909 22.3151V17.401H15.8244L17.4542 20.9244L18.9562 17.401H20.9796V22.601H19.7484L19.7383 18.5263L17.9434 22.601H16.8421L15.0371 18.5263V22.601H12.5043L12.0241 21.4352H9.42997L8.9508 22.6H7.59376L9.82458 17.401ZM27.1121 17.401H22.1059V22.5979H27.0346L28.6232 20.8756L30.1543 22.5979H31.7549L29.4285 20.0145L31.7549 17.401H30.2238L28.6433 19.1036L27.1121 17.401ZM10.7276 18.2808L9.87293 20.3575H11.5813L10.7276 18.2808ZM23.3422 19.4269V18.4777V18.4767H26.4659L27.8289 19.9949L26.4055 21.5213H23.3422V20.4849H26.0733V19.4269H23.3422Z" fill="#1F72CD"/>
</svg>
