<svg width="40" height="40" viewBox="0 0 40 40" fill="none" xmlns="http://www.w3.org/2000/svg">
<rect width="40" height="40" rx="4" fill="#FFCC00"/>
<rect x="0.5" y="0.5" width="39" height="39" rx="3.5" stroke="white" stroke-opacity="0.01"/>
<path fill-rule="evenodd" clip-rule="evenodd" d="M7.57141 32.4286H32.4286V7.57141H7.57141V32.4286Z" fill="#FFCC00"/>
<path fill-rule="evenodd" clip-rule="evenodd" d="M26.6921 17.5143C26.9598 16.0898 27.2944 14.7226 27.5526 13.3364C27.4761 13.3268 27.4378 13.3077 27.3996 13.3077C25.6309 13.3077 23.8527 13.3077 22.084 13.3077C21.9119 13.3077 21.8641 13.3842 21.8259 13.5467C21.4626 15.2389 21.0993 16.9406 20.736 18.6328C20.7264 18.6998 20.6882 18.8432 20.6882 18.8432H22.1031C22.1318 18.7284 22.6959 16.128 22.954 14.9043C23.0114 14.627 23.0209 14.627 23.3077 14.627C24.0534 14.627 25.7265 14.6366 25.8412 14.6461L24.9426 18.8527H29.1587C29.1587 18.9292 28.8241 20.478 28.6903 21.2046C28.652 21.4245 28.5468 21.4723 28.3461 21.4723C27.1223 21.4723 25.9082 21.4723 24.6844 21.4723C24.3976 21.4723 24.3976 21.4723 24.3403 21.7591C24.1012 22.8777 23.8622 23.9867 23.6232 25.1053C23.5563 25.4303 23.5563 25.4303 23.2312 25.4303H20.8029C20.3631 25.4303 20.3535 25.4303 20.2579 25.8605C20.191 26.1473 20.1337 26.4437 20.0667 26.7592C20.2006 26.7592 23.0592 26.7783 24.4072 26.7783C24.694 26.7783 24.694 26.7783 24.7609 26.5011C24.933 25.7171 25.4493 23.2888 25.5544 22.8299H29.4168C29.8184 22.8299 29.761 22.8586 29.8471 22.4761C30.1721 20.9751 30.8605 17.7055 30.8796 17.5334H26.673L26.6921 17.5143Z" fill="#FF0000"/>
<path fill-rule="evenodd" clip-rule="evenodd" d="M9.23493 23.4513L8.52746 26.7496H18.2217L18.9961 23.4513H9.23493Z" fill="white"/>
<path fill-rule="evenodd" clip-rule="evenodd" d="M15.4685 18.7093C15.1721 17.9923 14.5698 17.629 13.8337 17.5525C13.174 17.4856 12.5048 17.5047 11.8355 17.4952C11.6443 17.4952 11.4436 17.4952 11.2237 17.4952C10.7934 19.4933 10.0764 22.7534 9.65576 24.742H11.2619C11.3288 24.4647 11.6061 22.9064 11.6634 22.6387C11.7017 22.4666 11.7686 22.3997 11.9407 22.3997C12.2753 22.3997 12.6195 22.3997 12.9541 22.3805C13.9675 22.3136 14.7515 21.8452 15.2582 20.9656C15.6597 20.2486 15.784 19.4837 15.4685 18.7093ZM12.8011 21.0612C12.543 21.0803 12.2849 21.0612 11.9981 21.0612L12.4187 19.0344C12.4474 18.9005 12.5048 18.8145 12.6673 18.8241C12.8967 18.8432 13.1262 18.8241 13.3556 18.8432C13.7667 18.8814 14.0153 19.1395 14.044 19.5506C14.1109 20.4015 13.6425 20.9752 12.7916 21.0516L12.8011 21.0612Z" fill="black"/>
<path fill-rule="evenodd" clip-rule="evenodd" d="M16.8548 17.5238H16.7018L16.6827 17.6194C16.4628 18.6042 16.2334 19.6845 16.0326 20.6692C15.8032 21.7496 15.4112 23.6425 15.1913 24.742H16.7974C16.96 24.0058 17.1799 22.9446 17.3328 22.218C17.3615 22.1033 17.3902 21.9981 17.3902 21.9981C17.4571 21.9981 18.7956 22.0077 19.331 21.9981L19.3501 21.8834C19.4457 21.501 19.5126 21.1568 19.6082 20.7266H17.6866C17.7822 20.2677 17.8873 19.4072 17.9734 18.9866L18.0021 18.8241C18.5948 18.8241 19.4552 18.8241 20.0384 18.8241C20.0384 18.8241 20.0576 18.7763 20.0671 18.7189C20.1627 18.346 20.2488 17.9445 20.3348 17.5716V17.5047H16.8739L16.8548 17.5238Z" fill="black"/>
</svg>
