<svg width="40" height="40" viewBox="0 0 40 40" fill="none" xmlns="http://www.w3.org/2000/svg">
<rect x="0.5" y="0.5" width="39" height="39" rx="3.5" fill="white"/>
<rect x="0.5" y="0.5" width="39" height="39" rx="3.5" stroke="#DBD9D7"/>
<g clip-path="url(#clip0_13202_9731)">
<rect x="6.5" y="10.55" width="27" height="18.9" fill="white"/>
<path d="M8.71295 14.162H13.3723V15.1779C13.0415 14.9005 12.3389 14.7882 11.5889 14.7882V17.5578C11.5889 17.9713 11.624 18.0834 11.7837 18.2962H10.3015C10.4609 18.0834 10.4964 17.9715 10.4964 17.5578V14.788C9.74636 14.788 9.04376 14.9003 8.71295 15.1777V14.162ZM8.71295 14.162H13.3723V15.1779C13.0415 14.9005 12.3389 14.7882 11.5889 14.7882V17.5578C11.5889 17.9713 11.624 18.0834 11.7837 18.2962H10.3015C10.4609 18.0834 10.4964 17.9715 10.4964 17.5578V14.788C9.74636 14.788 9.04376 14.9003 8.71295 15.1777V14.162ZM8.71295 14.162H13.3723V15.1779C13.0415 14.9005 12.3389 14.7882 11.5889 14.7882V17.5578C11.5889 17.9713 11.624 18.0834 11.7837 18.2962H10.3015C10.4609 18.0834 10.4964 17.9715 10.4964 17.5578V14.788C9.74636 14.788 9.04376 14.9003 8.71295 15.1777V14.162ZM8.71295 14.162H13.3723V15.1779C13.0415 14.9005 12.3389 14.7882 11.5889 14.7882V17.5578C11.5889 17.9713 11.624 18.0834 11.7837 18.2962H10.3015C10.4609 18.0834 10.4964 17.9715 10.4964 17.5578V14.788C9.74636 14.788 9.04376 14.9003 8.71295 15.1777V14.162ZM15.6104 17.6699C16.0888 17.6699 16.886 17.5576 17.1991 17.2802V18.2961H13.8035C13.9689 18.1012 13.9984 17.9713 13.9984 17.5755V14.8824C13.9984 14.4866 13.9689 14.3567 13.8035 14.1619H17.022V15.1777C16.7091 14.9003 15.9117 14.788 15.4334 14.788H15.0556V15.8864H15.333C15.6043 15.8864 16.024 15.8748 16.3014 15.7744V16.5893C16.024 16.4889 15.6045 16.477 15.333 16.477H15.0556V17.6701H15.6104V17.6699ZM20.0633 15.7508C20.8722 15.8627 21.5457 16.1465 21.5457 17.0264C21.5457 18.0598 20.5653 18.3903 19.5082 18.3846C18.7701 18.3786 18.1441 18.3078 17.6834 18.1248V17.1975C18.339 17.6227 19.0121 17.7587 19.5082 17.7587C20.0221 17.7587 20.4944 17.6348 20.4944 17.2449C20.4944 16.855 20.0572 16.7608 19.1598 16.6248C18.3862 16.5068 17.6834 16.1758 17.6774 15.4141C17.6715 14.3867 18.6462 14.0735 19.579 14.0735C20.1815 14.0735 20.7661 14.1445 21.3033 14.3214V15.3197C20.8544 14.9239 20.1872 14.6996 19.5316 14.6996C19.0888 14.6996 18.6696 14.841 18.6696 15.1719C18.6696 15.5854 19.2897 15.6445 20.0633 15.7508ZM24.6756 14.0735C25.1597 14.0735 25.5791 14.1326 25.9157 14.2213V15.2487C25.5849 14.912 25.1952 14.6996 24.6816 14.6996C23.7428 14.6996 23.1167 15.3552 23.1167 16.229C23.1167 17.1029 23.7428 17.7585 24.6816 17.7585C25.1954 17.7585 25.5851 17.5457 25.9157 17.2094V18.2371C25.5791 18.3257 25.1597 18.3903 24.6756 18.3903C23.0517 18.3903 21.8765 17.5816 21.8765 16.229C21.8765 14.8765 23.0515 14.0735 24.6756 14.0735Z" fill="#E3000F"/>
<path d="M28.8413 14.0735C27.1641 14.0735 26.2077 15.0478 26.2077 16.229C26.2077 17.4043 27.1641 18.3846 28.8413 18.3846C30.5186 18.3846 31.475 17.4043 31.475 16.229C31.475 15.0478 30.5186 14.0735 28.8413 14.0735ZM28.8413 17.7585C27.9969 17.7585 27.4476 17.0616 27.4476 16.229C27.4476 15.3905 27.9967 14.6996 28.8413 14.6996C29.6857 14.6996 30.235 15.3907 30.235 16.229C30.2348 17.0616 29.6857 17.7585 28.8413 17.7585Z" fill="#E3000F"/>
<path d="M28.6103 19.4191H31.4239C31.4273 19.4191 31.4299 19.4198 31.4317 19.4207L31.4324 19.4214C31.4331 19.4217 31.4336 19.4223 31.4344 19.4226C31.44 19.428 31.4404 19.439 31.4319 19.4468C31.4297 19.4489 31.4274 19.4503 31.425 19.4516L31.42 19.4537C31.0931 19.6028 30.6556 20.0567 30.6556 20.0567C30.328 20.3677 30.0829 20.5638 29.5592 20.5638H26.8765C26.8691 20.5638 26.865 20.5565 26.8647 20.549C26.8647 20.5441 26.8668 20.5389 26.8703 20.5363C26.8725 20.5343 26.8757 20.5322 26.8789 20.5302C27.1733 20.3655 27.6129 19.9098 27.6129 19.9098C27.7925 19.6972 28.1522 19.4191 28.6103 19.4191Z" fill="#004997"/>
<path d="M24.0257 19.4191H26.8393C26.8427 19.4191 26.8453 19.4198 26.8471 19.4207L26.8478 19.4214C26.8485 19.4217 26.849 19.4223 26.8498 19.4226C26.8554 19.428 26.8558 19.439 26.8473 19.4468C26.8451 19.4489 26.8428 19.4503 26.8403 19.4516L26.8354 19.4537C26.5085 19.6028 26.0707 20.0567 26.0707 20.0567C25.7434 20.3677 25.498 20.5638 24.9746 20.5638H22.2919C22.2841 20.5638 22.2801 20.5565 22.2793 20.549C22.2793 20.5441 22.2818 20.5389 22.2854 20.5363C22.2875 20.5343 22.2907 20.5322 22.2939 20.5302C22.5883 20.3655 23.0279 19.9098 23.0279 19.9098C23.2079 19.6972 23.5674 19.4191 24.0257 19.4191Z" fill="#004997"/>
<path d="M19.441 19.4191H22.2547C22.258 19.4191 22.2607 19.4198 22.2625 19.4207L22.2632 19.4214C22.2639 19.4217 22.2644 19.4223 22.2651 19.4226C22.2708 19.428 22.2712 19.439 22.2627 19.4468C22.2605 19.4489 22.2582 19.4503 22.2557 19.4516L22.2508 19.4537C21.9239 19.6028 21.486 20.0567 21.486 20.0567C21.1588 20.3677 20.9133 20.5638 20.39 20.5638H17.7068C17.6993 20.5638 17.6953 20.5565 17.6949 20.549C17.6949 20.5441 17.6969 20.5389 17.7006 20.5363C17.7025 20.5343 17.7059 20.5322 17.7088 20.5302C18.0034 20.3655 18.4431 19.9098 18.4431 19.9098C18.6233 19.6972 18.9828 19.4191 19.441 19.4191Z" fill="#004997"/>
<path d="M14.8559 19.4191H17.6697C17.6729 19.4191 17.6754 19.4198 17.6772 19.4207L17.6779 19.4214C17.6786 19.4217 17.6791 19.4223 17.6798 19.4226C17.6855 19.428 17.6859 19.439 17.6773 19.4468C17.6752 19.4489 17.6729 19.4503 17.6704 19.4516L17.6655 19.4537C17.3386 19.6028 16.9011 20.0567 16.9011 20.0567C16.5735 20.3677 16.3284 20.5638 15.8047 20.5638H13.1218C13.1144 20.5638 13.1103 20.5565 13.11 20.549C13.11 20.5441 13.1121 20.5389 13.1156 20.5363C13.1178 20.5343 13.121 20.5322 13.1242 20.5302C13.4186 20.3655 13.8582 19.9098 13.8582 19.9098C14.0381 19.6972 14.3979 19.4191 14.8559 19.4191Z" fill="#004997"/>
<path d="M10.2713 19.4191H13.0849C13.0883 19.4191 13.091 19.4198 13.0927 19.4207L13.0934 19.4214C13.0942 19.4217 13.0947 19.4223 13.0954 19.4226C13.1011 19.428 13.1014 19.439 13.0929 19.4468C13.0908 19.4489 13.0885 19.4503 13.086 19.4516L13.081 19.4537C12.7541 19.6028 12.3163 20.0567 12.3163 20.0567C11.989 20.3677 11.744 20.5638 11.2202 20.5638H8.53759C8.52979 20.5638 8.5257 20.5565 8.52499 20.549C8.52499 20.5441 8.52748 20.5389 8.53103 20.5363C8.53316 20.5343 8.53635 20.5322 8.53955 20.5302C8.83397 20.3655 9.27357 19.9098 9.27357 19.9098C9.45352 19.6972 9.81308 19.4191 10.2713 19.4191Z" fill="#004997"/>
<path d="M10.1253 21.7517C10.4832 21.7517 10.7649 21.8453 10.9693 22.0323C11.1739 22.219 11.2762 22.4742 11.2762 22.7967C11.2762 22.9855 11.23 23.1538 11.1374 23.3012C11.0447 23.4487 10.9336 23.5561 10.8037 23.6228C11.0203 23.7057 11.1903 23.8344 11.3143 24.0093C11.4386 24.1845 11.5005 24.406 11.5005 24.6734C11.5005 25.0476 11.3834 25.3425 11.1493 25.559C10.9148 25.7755 10.5973 25.8834 10.1959 25.8834H8.70248V21.7517H10.1253ZM10.1077 23.4519C10.3201 23.4519 10.4834 23.4008 10.5975 23.2984C10.7118 23.1962 10.7686 23.0446 10.7686 22.8437C10.7686 22.6432 10.7118 22.4916 10.5975 22.3894C10.4832 22.2872 10.3178 22.2359 10.1017 22.2359H9.22212V23.4519H10.1077ZM10.1313 25.3998C10.3989 25.3998 10.6064 25.339 10.7542 25.2169C10.9017 25.0948 10.9755 24.9118 10.9755 24.6679C10.9755 24.42 10.9028 24.2362 10.7571 24.116C10.6115 23.9959 10.4028 23.9359 10.1313 23.9359H9.2223V25.3998H10.1313Z" fill="#004997"/>
<path d="M12.4246 25.8219C12.2711 25.7495 12.149 25.6449 12.0586 25.509C11.968 25.3734 11.9227 25.2149 11.9227 25.0339C11.9227 24.7152 12.0448 24.4685 12.2888 24.2933C12.5327 24.1181 12.8574 24.0303 13.2626 24.0303H13.9121V23.8768C13.9121 23.6803 13.8431 23.5238 13.7054 23.4077C13.5677 23.2917 13.3904 23.2336 13.174 23.2336C12.9889 23.2336 12.8289 23.2789 12.6929 23.3696C12.5573 23.4603 12.4519 23.5783 12.3772 23.7236L11.9933 23.4936C12.0956 23.289 12.2482 23.1208 12.4509 22.9891C12.6532 22.8572 12.8942 22.791 13.1739 22.791C13.5439 22.791 13.8419 22.8877 14.0681 23.0803C14.2944 23.2734 14.4076 23.5406 14.4076 23.883V25.8842H14.0119L13.9233 25.4238C13.8252 25.5734 13.6884 25.6951 13.5132 25.7897C13.338 25.8842 13.1442 25.9312 12.9318 25.9312C12.7474 25.931 12.5779 25.8946 12.4246 25.8219ZM13.4488 25.3821C13.5884 25.3111 13.7004 25.206 13.7851 25.0664C13.8697 24.9267 13.9121 24.7624 13.9121 24.5734V24.4553H13.2745C13.0031 24.4553 12.7953 24.5047 12.6519 24.6028C12.5078 24.7013 12.4363 24.8349 12.4363 25.0043C12.4363 25.1578 12.4874 25.277 12.5898 25.3613C12.692 25.446 12.8299 25.4884 13.0031 25.4884C13.1604 25.4886 13.3091 25.4531 13.4488 25.3821Z" fill="#004997"/>
<path d="M15.1227 22.8382H15.6185V23.4109C15.7051 23.2221 15.8379 23.0714 16.0171 22.9594C16.196 22.8471 16.3918 22.791 16.6042 22.791C16.9073 22.791 17.1474 22.8808 17.3244 23.0597C17.5013 23.2389 17.5902 23.4878 17.5902 23.8065V25.8842H17.0944V23.9007C17.0944 23.692 17.0433 23.532 16.9409 23.4196C16.8383 23.3076 16.6889 23.2514 16.492 23.2514C16.3229 23.2514 16.1713 23.3035 16.0377 23.4077C15.9037 23.5123 15.8004 23.6606 15.7277 23.8534C15.6549 24.0463 15.6185 24.2708 15.6185 24.5265V25.884H15.1227V22.8382Z" fill="#004997"/>
<path d="M18.849 24.1368L20.0239 22.8382H20.6433L19.3804 24.237L20.7322 25.884H20.1181L18.849 24.3371V25.884H18.3532V21.7047H18.849V24.1368Z" fill="#004997"/>
</g>
<defs>
<clipPath id="clip0_13202_9731">
<rect width="27" height="18.9" fill="white" transform="translate(6.5 10.55)"/>
</clipPath>
</defs>
</svg>
