<svg width="40" height="40" viewBox="0 0 40 40" fill="none" xmlns="http://www.w3.org/2000/svg">
<rect width="40" height="40" rx="4" fill="#F36805"/>
<rect x="0.5" y="0.5" width="39" height="39" rx="3.5" stroke="white" stroke-opacity="0.01"/>
<path d="M13.3555 27.3828H15.5703V28.8594H11.8789V17.2979C10.7641 18.3093 10.0037 19.0329 9.98151 19.055L8.96268 17.9919C9.20631 17.7852 15.0609 12.1373 18.7523 9.98153C19.1346 9.77981 19.5603 9.67438 19.9926 9.67438C20.4249 9.67438 20.8506 9.77981 21.2329 9.98153C24.9243 12.1521 30.8306 17.7704 31.0373 18.0066L30.0185 19.0698C30.0185 19.0698 29.2359 18.3315 28.1211 17.3127V20H26.6445V15.9764C24.7304 14.2352 22.6759 12.6549 20.502 11.2514C20.3413 11.1767 20.1662 11.138 19.9889 11.138C19.8117 11.138 19.6366 11.1767 19.4758 11.2514C17.3084 12.6542 15.2612 14.2346 13.3555 15.9764V27.3828ZM31.0742 23.6914V28.8594C31.0742 29.4468 30.8409 30.0101 30.4255 30.4255C30.0101 30.8409 29.4468 31.0742 28.8594 31.0742H19.2617C18.6743 31.0742 18.1109 30.8409 17.6956 30.4255C17.2802 30.0101 17.0469 29.4468 17.0469 28.8594V23.6914C17.0469 23.104 17.2802 22.5406 17.6956 22.1253C18.1109 21.7099 18.6743 21.4766 19.2617 21.4766H28.8594C29.4468 21.4766 30.0101 21.7099 30.4255 22.1253C30.8409 22.5406 31.0742 23.104 31.0742 23.6914V23.6914ZM18.5234 23.6914V24.4297H29.5976V23.6914C29.5976 23.4956 29.5199 23.3078 29.3814 23.1694C29.2429 23.0309 29.0552 22.9531 28.8594 22.9531H19.2617C19.0659 22.9531 18.8781 23.0309 18.7397 23.1694C18.6012 23.3078 18.5234 23.4956 18.5234 23.6914ZM29.5976 28.8594V25.9063H18.5234V28.8594C18.5234 29.0552 18.6012 29.243 18.7397 29.3814C18.8781 29.5199 19.0659 29.5977 19.2617 29.5977H28.8594C29.0552 29.5977 29.2429 29.5199 29.3814 29.3814C29.5199 29.243 29.5976 29.0552 29.5976 28.8594ZM20 28.8594H22.2148V27.3828H20V28.8594Z" fill="white"/>
</svg>
