<svg width="40" height="40" viewBox="0 0 40 40" fill="none" xmlns="http://www.w3.org/2000/svg">
<rect x="0.5" y="0.5" width="39" height="39" rx="3.5" fill="white"/>
<rect x="0.5" y="0.5" width="39" height="39" rx="3.5" stroke="#DBD9D7"/>
<path d="M29.0533 10.9445C24.794 6.68518 17.8601 6.68518 13.6008 10.9445L10.9445 13.6008C6.68518 17.8601 6.68518 24.794 10.9445 29.0533C13.0787 31.1875 15.8724 32.25 18.6661 32.25C21.4598 32.25 24.2627 31.1875 26.3878 29.0533C26.5343 28.9067 26.7725 28.6869 27.0473 28.4304C27.9816 27.5602 28.7235 26.8549 29.0807 26.3603C33.3034 22.101 33.2942 15.1946 29.0441 10.9536L29.0533 10.9445ZM21.3316 9.57966C23.6582 9.57966 25.9847 10.4682 27.7617 12.236C31.3065 15.7808 31.3065 21.5514 27.7617 25.0962C24.2169 28.6411 18.4463 28.6411 14.9015 25.0962C11.3566 21.5514 11.3566 15.7808 14.9015 12.236C16.6785 10.459 19.005 9.57966 21.3316 9.57966ZM12.2451 27.7526C9.44226 24.9497 8.8652 20.7637 10.4956 17.3746C10.1201 20.5897 11.146 23.933 13.6008 26.3969C15.735 28.5311 18.5287 29.5937 21.3224 29.5937C21.7529 29.5937 22.1835 29.557 22.614 29.5112C19.2249 31.1417 15.0389 30.5646 12.236 27.7617L12.2451 27.7526Z" fill="#242E30"/>
<path d="M25.9587 18.2937C25.9325 18.215 25.5212 17.4537 24.7512 16.5C24.7337 16.4737 24.7162 16.4475 24.7162 16.4212C24.6725 15.8612 24.5937 15.31 24.4887 14.7587C24.48 14.7062 24.445 14.6537 24.41 14.6187C24.3662 14.5837 24.3137 14.5575 24.2612 14.5487L23.465 14.4525H23.4475C23.4037 14.4525 23.36 14.47 23.325 14.505C23.29 14.54 23.2725 14.575 23.2725 14.6275V14.9075C22.7737 14.4525 22.24 14.05 21.6712 13.6912C21.5575 13.6125 21.4175 13.5687 21.2775 13.5687C21.1375 13.5687 20.9975 13.6125 20.8837 13.6912C18.145 15.3887 16.64 18.145 16.5787 18.3025C16.5612 18.3375 16.5525 18.3812 16.5525 18.4162C16.5525 18.4775 16.57 18.5387 16.6137 18.5825C16.6487 18.6262 16.7012 18.6612 16.7625 18.6787L17.55 18.8275C17.6025 18.845 17.6462 18.8712 17.6812 18.915C17.7162 18.9587 17.7337 19.0112 17.7425 19.0637C17.7425 19.2037 17.9 22.3275 18.0837 23.1412C18.1012 23.2025 18.1362 23.255 18.18 23.29C18.2237 23.325 18.285 23.3425 18.3462 23.3425C18.81 23.3337 19.23 23.325 19.685 23.3162H19.72C19.72 23.3162 19.7462 23.3162 19.755 23.3162C19.7637 23.3162 19.7725 23.3075 19.7812 23.2987C19.7812 23.2987 19.7987 23.2812 19.7987 23.2725C19.7987 23.2637 19.7987 23.2462 19.7987 23.2375C19.7812 22.9662 19.7375 22.3362 19.7112 21.68C19.7112 21.6625 19.7112 21.645 19.7112 21.6275C19.7112 21.6012 19.7025 21.575 19.685 21.5487C19.6675 21.5225 19.65 21.505 19.6325 21.4875C19.51 21.4175 19.4137 21.3125 19.3437 21.1987C19.2737 21.0762 19.23 20.945 19.2212 20.805C19.1775 19.7112 19.16 18.4425 19.2212 17.4537C19.2212 17.41 19.2387 17.375 19.2737 17.3487C19.3 17.3225 19.3437 17.305 19.3875 17.305C19.4312 17.305 19.4662 17.3225 19.4925 17.3487C19.5187 17.375 19.5362 17.4187 19.5362 17.4537C19.5012 18.1275 19.4925 18.9062 19.51 19.6762C19.51 19.7025 19.51 19.7287 19.5275 19.7462C19.5362 19.7725 19.5537 19.79 19.5712 19.8075C19.5887 19.825 19.6062 19.8425 19.6325 19.8512C19.6587 19.86 19.6762 19.8687 19.7025 19.86C19.7287 19.86 19.755 19.86 19.7725 19.8425C19.7987 19.8337 19.8162 19.8162 19.8337 19.7987C19.8512 19.7812 19.8687 19.7637 19.8775 19.7375C19.8862 19.7112 19.895 19.6937 19.8862 19.6675C19.8687 18.8887 19.8775 18.11 19.9125 17.445C19.9125 17.4012 19.93 17.3662 19.965 17.3312C19.9912 17.305 20.035 17.2875 20.0787 17.2875C20.1225 17.2875 20.1575 17.305 20.1925 17.34C20.2187 17.3662 20.2362 17.41 20.2362 17.4537C20.2012 18.1275 20.1925 18.8975 20.21 19.6675C20.21 19.72 20.2275 19.7637 20.2712 19.7987C20.3062 19.8337 20.3587 19.8512 20.4025 19.8512C20.455 19.8512 20.4987 19.8337 20.5337 19.79C20.5687 19.755 20.5862 19.7025 20.5862 19.6587C20.5687 18.8887 20.5775 18.1012 20.6125 17.445C20.6125 17.4012 20.63 17.3662 20.665 17.3312C20.6912 17.305 20.735 17.2875 20.7787 17.2875C20.8225 17.2875 20.8575 17.305 20.8925 17.34C20.9187 17.3662 20.9362 17.41 20.9362 17.4537C20.8837 18.4337 20.9012 19.65 20.9362 20.7175C20.9362 20.7175 20.9362 20.735 20.9362 20.7437C20.9362 20.8925 20.9012 21.0325 20.84 21.155C20.7787 21.2775 20.6825 21.3825 20.5687 21.4612C20.5512 21.4787 20.5337 21.4962 20.5162 21.5137C20.5075 21.5312 20.4987 21.5575 20.4987 21.5837C20.4987 21.5837 20.4812 21.75 20.5512 22.5462C20.5862 22.8962 20.6125 23.1325 20.6212 23.2462C20.6212 23.2637 20.63 23.2812 20.6475 23.2987C20.665 23.3162 20.6825 23.3162 20.7 23.3162H20.77C20.9187 23.3162 21.0762 23.3162 21.2425 23.3162H21.3037H21.8987H22.345C22.345 23.3162 22.3887 23.3162 22.3975 23.2987C22.415 23.2812 22.4237 23.2637 22.4237 23.2462C22.5287 22.2925 22.555 21.7587 22.555 21.7587C22.555 21.7325 22.5462 21.715 22.5287 21.6975C22.5112 21.68 22.4937 21.6712 22.4675 21.6712L21.925 21.5925C21.925 21.5925 21.855 21.575 21.8287 21.5487C21.8025 21.5225 21.785 21.4962 21.7675 21.4612C21.7675 21.435 21.7587 21.4087 21.7675 21.3737C21.9862 18.1975 23.0275 17.1212 23.0275 17.1212C23.045 17.1037 23.0625 17.0862 23.08 17.0775C23.1062 17.06 23.1412 17.0425 23.1762 17.0425C23.2112 17.0425 23.2462 17.0512 23.2725 17.0687C23.2987 17.0862 23.325 17.1125 23.3337 17.1475C23.3337 17.1737 23.3425 17.2 23.3512 17.2262C23.4387 18.2237 23.395 19.9212 23.3425 21.2512C23.2987 22.38 23.2375 23.2637 23.2375 23.2637C23.2375 23.2637 23.2375 23.2812 23.2375 23.29C23.2375 23.29 23.2375 23.3075 23.255 23.3075C23.255 23.3075 23.2725 23.3162 23.2725 23.325C23.2725 23.325 23.29 23.325 23.2987 23.325C23.5962 23.325 23.885 23.3337 24.2 23.3425C24.2612 23.3425 24.3225 23.325 24.3662 23.29C24.41 23.255 24.445 23.2025 24.4625 23.1412C24.6462 22.3275 24.795 19.2037 24.8037 19.0637C24.8037 19.0112 24.83 18.9587 24.865 18.915C24.9 18.8712 24.9437 18.845 24.9962 18.8275L25.7837 18.6787C25.845 18.6612 25.8975 18.6262 25.9325 18.5825C25.9675 18.5387 25.9937 18.4775 25.9937 18.4162C25.9937 18.3812 25.985 18.3375 25.9675 18.3025L25.9587 18.2937Z" fill="#242E30"/>
</svg>
