<svg width="40" height="40" viewBox="0 0 40 40" fill="none" xmlns="http://www.w3.org/2000/svg">
<path d="M0 4C0 1.79086 1.79086 0 4 0H36C38.2091 0 40 1.79086 40 4V36C40 38.2091 38.2091 40 36 40H4C1.79086 40 0 38.2091 0 36V4Z" fill="white"/>
<path d="M0 4C0 1.79086 1.79086 0 4 0H36C38.2091 0 40 1.79086 40 4V36C40 38.2091 38.2091 40 36 40H4C1.79086 40 0 38.2091 0 36V4Z" fill="black"/>
<path d="M17.1666 15.1954H14V28H17.1666V15.1954Z" fill="white"/>
<path d="M27.0969 15.9276C27.0969 13.2105 24.8843 11 22.1646 11H14V13.7345H21.7764C23.0072 13.7345 24.0268 14.7015 24.0493 15.8899C24.0605 16.485 23.8372 17.0466 23.4204 17.4713C23.0035 17.8961 22.4464 18.1302 21.8518 18.1302H18.8226C18.715 18.1302 18.6275 18.2176 18.6275 18.3251V20.7555C18.6275 20.7968 18.6403 20.8363 18.6643 20.8696L23.804 28H27.5663L22.4146 20.8501C25.009 20.7198 27.0969 18.5401 27.0969 15.9276Z" fill="white"/>
</svg>
