<svg width="40" height="40" viewBox="0 0 40 40" fill="none" xmlns="http://www.w3.org/2000/svg">
<rect width="40" height="40" rx="4" fill="black"/>
<path d="M24.6152 16.2954H31.4022V23.8969H24.6152V16.2954Z" fill="white"/>
<path d="M26.066 21.9286H27.7967C27.8462 21.9286 27.9616 21.9121 28.011 21.9121C28.3407 21.8462 28.6209 21.5495 28.6209 21.1374C28.6209 20.7418 28.3407 20.4451 28.011 20.3626C27.9616 20.3462 27.8627 20.3462 27.7967 20.3462H26.066V21.9286Z" fill="url(#paint0_linear_10305_6407)"/>
<path d="M27.5989 11C25.9506 11 24.5989 12.3352 24.5989 14V17.1154H28.8352C28.9341 17.1154 29.0495 17.1154 29.1319 17.1319C30.0879 17.1813 30.7967 17.6758 30.7967 18.533C30.7967 19.2088 30.3187 19.7857 29.4286 19.9011V19.9341C30.4011 20 31.1429 20.544 31.1429 21.3846C31.1429 22.2912 30.3187 22.8846 29.2308 22.8846H24.5824V28.9835H28.9835C30.6319 28.9835 31.9835 27.6484 31.9835 25.9835V11H27.5989Z" fill="url(#paint1_linear_10305_6407)"/>
<path d="M28.4066 18.7308C28.4066 18.3352 28.1264 18.0714 27.7967 18.022C27.7638 18.022 27.6813 18.0055 27.6319 18.0055H26.066V19.456H27.6319C27.6813 19.456 27.7802 19.456 27.7967 19.4396C28.1264 19.3901 28.4066 19.1264 28.4066 18.7308Z" fill="url(#paint2_linear_10305_6407)"/>
<path d="M8.14537 16.2954H14.9324V23.8969H8.14537V16.2954Z" fill="white"/>
<path d="M11.0165 11C9.36814 11 8.01649 12.3352 8.01649 14V21.4011C8.85715 21.8132 9.73077 22.0769 10.6044 22.0769C11.6429 22.0769 12.2033 21.4505 12.2033 20.5934V17.0989H14.7747V20.5769C14.7747 21.9286 13.9341 23.033 11.0824 23.033C9.35165 23.033 8 22.6538 8 22.6538V28.967H12.4011C14.0495 28.967 15.4011 27.6319 15.4011 25.967V11H11.0165Z" fill="url(#paint3_linear_10305_6407)"/>
<path d="M16.3077 16.2954H23.0947V23.8969H16.3077V16.2954Z" fill="white"/>
<path d="M19.3077 11C17.6593 11 16.3077 12.3352 16.3077 14V17.9231C17.0659 17.2802 18.3846 16.8681 20.511 16.967C21.6484 17.0165 22.8681 17.3297 22.8681 17.3297V18.5989C22.2583 18.2857 21.533 18.0055 20.5934 17.9396C18.978 17.8242 18.0055 18.6154 18.0055 20C18.0055 21.4011 18.978 22.1923 20.5934 22.0604C21.533 21.9945 22.2583 21.6978 22.8681 21.4011V22.6703C22.8681 22.6703 21.6648 22.9835 20.511 23.033C18.3846 23.1319 17.0659 22.7198 16.3077 22.0769V29H20.7088C22.3572 29 23.7088 27.6648 23.7088 26V11H19.3077Z" fill="url(#paint4_linear_10305_6407)"/>
<defs>
<linearGradient id="paint0_linear_10305_6407" x1="20.3248" y1="20.0141" x2="41.7819" y2="20.0141" gradientUnits="userSpaceOnUse">
<stop stop-color="#007940"/>
<stop offset="0.2285" stop-color="#00873F"/>
<stop offset="0.7433" stop-color="#40A737"/>
<stop offset="1" stop-color="#5CB531"/>
</linearGradient>
<linearGradient id="paint1_linear_10305_6407" x1="24.596" y1="19.9846" x2="32.0038" y2="19.9846" gradientUnits="userSpaceOnUse">
<stop stop-color="#007940"/>
<stop offset="0.2285" stop-color="#00873F"/>
<stop offset="0.7433" stop-color="#40A737"/>
<stop offset="1" stop-color="#5CB531"/>
</linearGradient>
<linearGradient id="paint2_linear_10305_6407" x1="24.596" y1="18.7287" x2="32.0035" y2="18.7287" gradientUnits="userSpaceOnUse">
<stop stop-color="#007940"/>
<stop offset="0.2285" stop-color="#00873F"/>
<stop offset="0.7433" stop-color="#40A737"/>
<stop offset="1" stop-color="#5CB531"/>
</linearGradient>
<linearGradient id="paint3_linear_10305_6407" x1="8.013" y1="19.9846" x2="15.5349" y2="19.9846" gradientUnits="userSpaceOnUse">
<stop stop-color="#1F286F"/>
<stop offset="0.4751" stop-color="#004E94"/>
<stop offset="0.8261" stop-color="#0066B1"/>
<stop offset="1" stop-color="#006FBC"/>
</linearGradient>
<linearGradient id="paint4_linear_10305_6407" x1="16.2651" y1="19.9846" x2="23.5706" y2="19.9846" gradientUnits="userSpaceOnUse">
<stop stop-color="#6C2C2F"/>
<stop offset="0.1735" stop-color="#882730"/>
<stop offset="0.5731" stop-color="#BE1833"/>
<stop offset="0.8585" stop-color="#DC0436"/>
<stop offset="1" stop-color="#E60039"/>
</linearGradient>
</defs>
</svg>
