<svg width="40" height="40" viewBox="0 0 40 40" fill="none" xmlns="http://www.w3.org/2000/svg">
<rect width="40" height="40" rx="4" fill="#5A78FF"/>
<rect x="0.5" y="0.5" width="39" height="39" rx="3.5" stroke="white" stroke-opacity="0.01"/>
<path d="M6.58138 28.7157L7.56468 25.6981C7.5753 25.6563 7.61249 25.6259 7.65674 25.6229H8.15061C8.19464 25.6289 8.23179 25.6577 8.24746 25.6981L9.01274 27.6017C9.02731 27.6393 9.06604 27.6441 9.08049 27.6017L9.84095 25.6981C9.85656 25.6577 9.89369 25.6288 9.93772 25.6229H10.432C10.4762 25.6259 10.5134 25.6563 10.524 25.6981L11.4877 28.7157C11.5072 28.7768 11.4733 28.8192 11.4152 28.8192H10.829C10.7871 28.8211 10.7501 28.7931 10.7418 28.7533L10.117 26.7933C10.1073 26.7557 10.0637 26.7557 10.0492 26.7933L9.31288 28.7391C9.28868 28.7956 9.25475 28.8191 9.20636 28.8191H8.86248C8.80919 28.8191 8.78017 28.7909 8.7608 28.7391L8.00035 26.7933C7.98589 26.7557 7.94713 26.7557 7.93739 26.7933L7.29821 28.7533C7.28852 28.7943 7.24947 28.8223 7.20627 28.8192H6.65404C6.59595 28.8192 6.55719 28.7816 6.58138 28.7157ZM11.6764 27.6393C11.6764 26.939 12.2285 26.3984 12.9744 26.3984C13.7251 26.3984 14.2724 26.9391 14.2724 27.6393C14.2724 28.335 13.7251 28.8802 12.9744 28.8802C12.2285 28.8802 11.6764 28.3351 11.6764 27.6393ZM13.6137 27.6393C13.6137 27.2726 13.3279 26.9815 12.9744 26.9815C12.6257 26.9815 12.335 27.2726 12.335 27.6393C12.335 28.0012 12.6256 28.2975 12.9744 28.2975C13.328 28.2975 13.6137 28.0012 13.6137 27.6393ZM15.4347 28.6264C15.3862 28.5888 15.3427 28.6029 15.3427 28.6688V28.7299C15.3432 28.7776 15.3046 28.8172 15.2554 28.8192H14.8002C14.7501 28.8176 14.7099 28.7785 14.7082 28.7299V25.7122C14.7099 25.6636 14.7501 25.6245 14.8002 25.6229H15.2797C15.3289 25.6249 15.3675 25.6645 15.3669 25.7122V26.5723C15.3669 26.6334 15.4104 26.6523 15.4783 26.6053C15.6613 26.4718 15.8838 26.3993 16.1127 26.3984C16.7763 26.3984 17.2848 26.9437 17.2848 27.6393C17.2848 28.3349 16.7667 28.8802 16.0934 28.8802C15.8077 28.8803 15.6139 28.7674 15.4347 28.6264ZM16.6263 27.6393C16.6263 27.2726 16.3405 26.9815 15.9821 26.9815C15.6334 26.9815 15.3476 27.2682 15.3476 27.6393C15.3476 28.0061 15.6286 28.2927 15.9821 28.2927C16.3404 28.2927 16.6263 28.0012 16.6263 27.6393ZM17.6867 25.8438C17.6867 25.6465 17.8515 25.4865 18.0548 25.4866C18.2581 25.4866 18.4229 25.6466 18.4229 25.8439C18.4229 26.0411 18.2581 26.2011 18.0548 26.2011C17.8528 26.1979 17.6899 26.0397 17.6867 25.8438ZM17.7206 28.7298V26.5488C17.72 26.5011 17.7586 26.4616 17.8078 26.4595H18.2872C18.3374 26.4611 18.3776 26.5002 18.3793 26.5488V28.7298C18.3776 28.7785 18.3374 28.8176 18.2872 28.8192H17.8077C17.7586 28.8171 17.72 28.7776 17.7206 28.7298ZM18.9188 28.0201V25.7122C18.9182 25.6645 18.9568 25.6249 19.0059 25.6229H19.4854C19.5355 25.6245 19.5758 25.6636 19.5775 25.7122V28.0344C19.5775 28.1848 19.6452 28.2835 19.8147 28.2835C19.8392 28.2835 19.8626 28.2929 19.8799 28.3097C19.8971 28.3264 19.9068 28.3492 19.9068 28.3729V28.7582C19.9047 28.8059 19.8639 28.8434 19.8147 28.8428C19.1754 28.8427 18.9188 28.6405 18.9188 28.0201ZM20.0818 27.6488C20.0818 26.9342 20.6243 26.3985 21.3509 26.3985C22.0725 26.3985 22.6004 26.9438 22.6004 27.6583C22.6004 27.7429 22.5762 27.8133 22.489 27.8133H20.8231C20.7794 27.8133 20.7649 27.8368 20.7698 27.8744C20.8037 28.1424 21.0458 28.3397 21.3606 28.3397C21.5374 28.3423 21.7061 28.2682 21.8207 28.1376C21.8573 28.0903 21.9147 28.0624 21.9757 28.0624H22.4213C22.4988 28.0624 22.5327 28.1141 22.5037 28.1893C22.344 28.5889 21.8885 28.8803 21.3413 28.8803C20.6051 28.8802 20.0818 28.3586 20.0818 27.6488ZM21.8497 27.4327C21.8836 27.4327 21.8981 27.4185 21.8933 27.381C21.8421 27.1243 21.6105 26.939 21.3412 26.9391C21.0778 26.942 20.8503 27.1183 20.789 27.3669C20.7792 27.3997 20.7841 27.4327 20.8277 27.4327L21.8497 27.4327ZM23.0024 28.7298V25.7122C23.0019 25.6645 23.0404 25.6249 23.0896 25.6229H24.6152C25.3126 25.6229 25.7874 26.0178 25.7874 26.6805C25.7874 27.3291 25.2498 27.7521 24.5813 27.7521H23.7726C23.7479 27.7499 23.7236 27.7588 23.7066 27.7763C23.6896 27.7937 23.6818 27.8178 23.6854 27.8416V28.7301C23.6838 28.7787 23.6435 28.8178 23.5934 28.8194H23.0894C23.0402 28.8173 23.0017 28.7776 23.0024 28.7298ZM24.5815 27.207C24.9157 27.207 25.0996 26.9296 25.0996 26.6852C25.0996 26.4268 24.9204 26.1824 24.5815 26.1824H23.7676C23.7095 26.1824 23.6853 26.2106 23.6853 26.2671V27.1225C23.6853 27.179 23.7095 27.2072 23.7676 27.2072L24.5815 27.207ZM26.0143 27.6393C26.0143 26.9248 26.5665 26.3984 27.2155 26.3984C27.4915 26.3984 27.6852 26.5019 27.8596 26.6382C27.9031 26.6758 27.9516 26.671 27.9516 26.6147V26.5443C27.9515 26.5218 27.9607 26.5002 27.9771 26.4843C27.9934 26.4683 28.0157 26.4594 28.0389 26.4595H28.4941C28.5442 26.4612 28.5845 26.5002 28.5861 26.5489V28.1047C28.5861 28.2223 28.6297 28.274 28.712 28.2786C28.7553 28.2794 28.7909 28.312 28.7943 28.3538V28.7627C28.7945 28.7839 28.7859 28.8044 28.7704 28.8194C28.7549 28.8344 28.7339 28.8428 28.712 28.8427C28.3926 28.8427 28.2035 28.7533 28.0969 28.5749C28.0678 28.5277 28.0339 28.5184 27.9855 28.5653C27.7918 28.7393 27.569 28.8803 27.2057 28.8803C26.5566 28.8802 26.0143 28.3492 26.0143 27.6393ZM27.9516 27.6393C27.9516 27.2681 27.6707 26.9815 27.3171 26.9815C26.9587 26.9815 26.6778 27.2726 26.6778 27.6393C26.6778 28.0012 26.9588 28.2975 27.3171 28.2975C27.6708 28.2975 27.9516 28.006 27.9516 27.6393ZM29.0266 29.6464V29.2656C29.0286 29.218 29.0694 29.1805 29.1185 29.1811C29.4382 29.1811 29.7482 29.0165 29.8159 28.7298C29.8339 28.667 29.827 28.5999 29.7966 28.5418L28.9058 26.5863C28.8767 26.5111 28.9251 26.4594 28.9833 26.4594H29.4627C29.5112 26.4594 29.5402 26.497 29.5595 26.5441L30.1166 27.7944C30.1554 27.8931 30.2183 27.8883 30.262 27.7897L30.7947 26.5346C30.8142 26.4877 30.8383 26.4594 30.8868 26.4594H31.3469C31.3758 26.4579 31.4034 26.4709 31.4201 26.4938C31.4368 26.5167 31.4402 26.5463 31.4292 26.5722L30.5137 28.6828C30.1795 29.449 29.826 29.7357 29.119 29.7357C29.0688 29.7343 29.0283 29.6952 29.0266 29.6464ZM31.9955 27.1081V26.6195C31.9961 26.6143 31.9942 26.6092 31.9904 26.6055C31.9867 26.6019 31.9814 26.6 31.9761 26.6006H31.8017C31.7871 26.6006 31.7775 26.5958 31.7775 26.5771V26.483C31.7771 26.4766 31.7795 26.4705 31.7842 26.466C31.7888 26.4615 31.7952 26.4591 31.8017 26.4595H32.3635C32.37 26.4591 32.3764 26.4615 32.381 26.466C32.3856 26.4705 32.3881 26.4766 32.3877 26.483V26.5771C32.3877 26.5958 32.378 26.6006 32.3635 26.6006H32.1843C32.1747 26.6006 32.1698 26.6099 32.1698 26.6195V27.1081C32.1702 27.1157 32.1672 27.123 32.1617 27.1284C32.1561 27.1338 32.1486 27.1367 32.1407 27.1363H32.0197C32.0051 27.1348 31.9945 27.1223 31.9955 27.1081ZM32.383 27.0988L32.5864 26.4784C32.5899 26.4659 32.6023 26.4579 32.6155 26.4595H32.722C32.7346 26.4598 32.7459 26.4672 32.7511 26.4784L32.8913 26.8403C32.9011 26.8544 32.9059 26.8544 32.9155 26.8403L33.0609 26.4784C33.0648 26.4663 33.0769 26.4584 33.0899 26.4595H33.1965C33.2097 26.4578 33.2221 26.4659 33.2255 26.4784L33.4242 27.0988C33.4291 27.1222 33.4242 27.1364 33.4 27.1364H33.2644C33.2499 27.1364 33.2449 27.127 33.2402 27.1177L33.124 26.7558C33.1228 26.7514 33.1188 26.7484 33.1142 26.7484C33.1096 26.7484 33.1056 26.7514 33.1045 26.7558L32.9737 27.1129C32.9641 27.127 32.9542 27.1364 32.9398 27.1364H32.8624C32.8466 27.1377 32.8323 27.1277 32.8284 27.1129L32.6928 26.7603C32.6916 26.7561 32.6876 26.7531 32.6831 26.7531C32.6785 26.7531 32.6745 26.7561 32.6733 26.7603L32.5619 27.1177C32.5523 27.1318 32.5473 27.1364 32.5328 27.1364H32.4069C32.383 27.1364 32.3733 27.1222 32.383 27.0988ZM18.2015 22.4917C17.7631 22.4917 17.3678 22.2356 17.1998 21.8427L13.4602 13.0835C13.2315 12.5476 13.4937 11.9332 14.0461 11.7111L17.9629 10.1371C18.2281 10.0305 18.5262 10.0305 18.7914 10.1371C19.0567 10.2437 19.2674 10.4482 19.3772 10.7055L23.1168 19.4651C23.3452 20.0009 23.083 20.6149 22.531 20.837L18.6141 22.4117C18.4833 22.4644 18.3431 22.4916 18.2015 22.4917ZM18.3772 10.6222C18.3116 10.6224 18.2466 10.635 18.186 10.6596L14.269 12.2335C14.1466 12.2827 14.0493 12.3771 13.9986 12.4959C13.9479 12.6148 13.9479 12.7482 13.9987 12.867L17.7383 21.6267C17.8441 21.8739 18.1362 21.9913 18.3912 21.8892L22.308 20.3142C22.4304 20.265 22.5277 20.1706 22.5784 20.0518C22.6291 19.9329 22.6291 19.7995 22.5783 19.6807L18.8388 10.9219C18.7613 10.7408 18.5793 10.6226 18.3772 10.6222Z" fill="white"/>
<path d="M19.6254 11.283L19.0869 11.4998L20.565 14.9681L21.1035 14.7513L19.6254 11.283Z" fill="url(#paint0_linear_10305_6364)" style="mix-blend-mode:multiply"/>
<path d="M22.3282 19.0991L22.8667 18.8823L21.1935 14.9564L20.655 15.1731L22.3282 19.0991Z" fill="url(#paint1_linear_10305_6364)" style="mix-blend-mode:multiply"/>
<path d="M21.6495 16.4967C20.5293 16.9474 19.594 17.5686 18.9816 18.3174L17.4027 14.6175C18.1229 13.8056 19.0397 13.18 20.0706 12.7967C21.1908 12.346 22.3225 12.1279 23.284 12.255L24.8633 15.9548C23.7623 15.8743 22.658 16.0605 21.6495 16.4967Z" fill="white"/>
<path d="M21.6495 16.4967C20.5293 16.9474 19.594 17.5686 18.9816 18.3174L17.4027 14.6175C18.1229 13.8056 19.0397 13.18 20.0706 12.7967C21.1908 12.346 22.3225 12.1279 23.284 12.255L24.8633 15.9548C23.7623 15.8743 22.658 16.0605 21.6495 16.4967Z" fill="url(#paint2_linear_10305_6364)" style="mix-blend-mode:multiply"/>
<path d="M21.6495 16.4967C20.5293 16.9474 19.594 17.5686 18.9816 18.3174L17.4027 14.6175C18.1229 13.8056 19.0397 13.18 20.0706 12.7967C21.1908 12.346 22.3225 12.1279 23.284 12.255L24.8633 15.9548C23.7623 15.8743 22.658 16.0605 21.6495 16.4967Z" fill="url(#paint3_linear_10305_6364)" style="mix-blend-mode:multiply"/>
<path d="M22.164 17.6246C20.9515 17.6246 19.8415 17.852 18.9813 18.316V14.5749C19.9668 14.0924 21.0605 13.8548 22.164 13.8836C23.3765 13.8836 24.5082 14.1017 25.3466 14.5758V18.3169C24.3612 17.834 23.2676 17.5961 22.164 17.6246Z" fill="white"/>
<defs>
<linearGradient id="paint0_linear_10305_6364" x1="19.6625" y1="25.0132" x2="20.1909" y2="9.92649" gradientUnits="userSpaceOnUse">
<stop stop-color="#504678"/>
<stop offset="0.302" stop-color="#504678" stop-opacity="0.616"/>
<stop offset="0.608" stop-color="#504678" stop-opacity="0.283"/>
<stop offset="0.852" stop-color="#504678" stop-opacity="0.076"/>
<stop offset="1" stop-color="#504678" stop-opacity="0"/>
</linearGradient>
<linearGradient id="paint1_linear_10305_6364" x1="21.5" y1="17.5" x2="22.5593" y2="19.4681" gradientUnits="userSpaceOnUse">
<stop stop-color="#B9B5C8"/>
<stop offset="0.302" stop-color="#DBD9E3"/>
<stop offset="0.608" stop-color="white"/>
<stop offset="0.852" stop-color="white"/>
<stop offset="1" stop-color="white"/>
</linearGradient>
<linearGradient id="paint2_linear_10305_6364" x1="10.2533" y1="23.1121" x2="19.9164" y2="15.5395" gradientUnits="userSpaceOnUse">
<stop stop-color="#504678"/>
<stop offset="0.179" stop-color="#504678" stop-opacity="0.872"/>
<stop offset="0.526" stop-color="#504678" stop-opacity="0.536"/>
<stop offset="1" stop-color="#504678" stop-opacity="0"/>
</linearGradient>
<linearGradient id="paint3_linear_10305_6364" x1="19.3888" y1="16.9389" x2="19.0301" y2="13.6402" gradientUnits="userSpaceOnUse">
<stop stop-color="#D3D0DD"/>
<stop offset="0.643" stop-color="#DCDAE4"/>
<stop offset="1" stop-color="white"/>
</linearGradient>
</defs>
</svg>
