<svg width="40" height="40" viewBox="0 0 40 40" fill="none" xmlns="http://www.w3.org/2000/svg">
<rect width="40" height="40" rx="4" fill="black"/>
<path fill-rule="evenodd" clip-rule="evenodd" d="M17.8629 22.7094C17.4582 22.8948 17.0134 22.9756 16.5694 22.9443C16.1253 22.913 15.6962 22.7705 15.3216 22.5301C14.947 22.2897 14.6388 21.9589 14.4253 21.5683C14.2119 21.1776 14.1 20.7396 14.1 20.2944V17.1961H15.2805V20.2944C15.2805 21.1949 15.9423 21.9152 16.7563 21.9152C16.9703 21.9131 17.1811 21.8625 17.3728 21.7672C17.5644 21.6719 17.732 21.5344 17.8629 21.365V22.7094Z" fill="#89CC53"/>
<path fill-rule="evenodd" clip-rule="evenodd" d="M8.34543 14.6875V17.6391C8.78521 17.3093 9.3083 17.1088 9.85584 17.0601C10.4034 17.0114 10.9536 17.1165 11.4447 17.3636V18.7529C11.2754 18.5441 11.0618 18.3755 10.8193 18.2593C10.5768 18.1431 10.3116 18.0823 10.0427 18.0812C9.02435 18.0812 8.19776 18.9411 8.19776 20C8.19776 21.0589 9.02435 21.9179 10.0427 21.9179C10.3116 21.9168 10.5768 21.856 10.8193 21.7398C11.0618 21.6236 11.2754 21.455 11.4447 21.2462V22.6355C10.9363 22.8914 10.3647 22.9948 9.79883 22.9333C9.23297 22.8718 8.69697 22.648 8.25539 22.2889L8.19776 22.803H7.16498V20.1468H7.16948C7.16948 20.0981 7.16498 20.0486 7.16498 20V14.6875H8.34543Z" fill="#238647"/>
<path fill-rule="evenodd" clip-rule="evenodd" d="M9.3044 17.1619C9.7439 17.0353 10.2068 17.0126 10.6566 17.0956C11.1064 17.1786 11.5307 17.3649 11.8961 17.64C12.2616 17.915 12.5581 18.2712 12.7623 18.6805C12.9664 19.0897 13.0727 19.5408 13.0727 19.9982C13.0727 20.4556 12.9664 20.9067 12.7623 21.3159C12.5581 21.7252 12.2616 22.0814 11.8961 22.3564C11.5307 22.6315 11.1064 22.8178 10.6566 22.9008C10.2068 22.9838 9.7439 22.9611 9.3044 22.8345V21.754C9.53607 21.8601 9.78795 21.9148 10.0427 21.9143C11.0611 21.9143 11.8868 21.0544 11.8868 19.9964C11.8868 18.9384 11.0611 18.0776 10.0427 18.0776C9.78799 18.0775 9.5362 18.1322 9.3044 18.2379V17.1619Z" fill="#2F9B47"/>
<path fill-rule="evenodd" clip-rule="evenodd" d="M11.4447 17.3636C11.9326 17.6097 12.3426 17.9865 12.6291 18.4519C12.9156 18.9173 13.0672 19.453 13.0672 19.9995C13.0672 20.546 12.9156 21.0818 12.6291 21.5472C12.3426 22.0126 11.9326 22.3894 11.4447 22.6355V21.2462C11.7303 20.8935 11.8862 20.4534 11.8862 19.9995C11.8862 19.5457 11.7303 19.1056 11.4447 18.7529V17.3636Z" fill="#62B64F"/>
<path fill-rule="evenodd" clip-rule="evenodd" d="M15.7235 21.4533C15.854 21.5982 16.0132 21.7143 16.191 21.7943C16.3688 21.8743 16.5613 21.9164 16.7563 21.9179C17.5712 21.9179 18.2321 21.1904 18.2321 20.2971V17.1961H19.4126V20.2944C19.4128 20.7331 19.3043 21.165 19.0969 21.5515C18.8895 21.9381 18.5896 22.2673 18.224 22.5096C17.8584 22.752 17.4384 22.9001 17.0016 22.9406C16.5648 22.9811 16.1248 22.9128 15.7208 22.7418L15.7235 21.4533Z" fill="#3DB8AD"/>
<path fill-rule="evenodd" clip-rule="evenodd" d="M17.8629 21.3677C18.1045 21.0624 18.2348 20.6838 18.2321 20.2944L18.2321 17.1961H19.4126V20.2944C19.4125 20.8031 19.2664 21.301 18.9917 21.7291C18.717 22.1571 18.3252 22.4974 17.8629 22.7094L17.8629 21.3677Z" fill="#3394D7"/>
<path fill-rule="evenodd" clip-rule="evenodd" d="M24.282 18.5458C24.1516 18.4009 23.9923 18.2848 23.8145 18.2048C23.6367 18.1248 23.4442 18.0827 23.2492 18.0812C22.4389 18.0812 21.7734 18.8087 21.7734 19.702V22.803H20.593V19.7047C20.5928 19.266 20.7012 18.8341 20.9086 18.4476C21.116 18.061 21.4159 17.7319 21.7816 17.4895C22.1472 17.2471 22.5671 17.099 23.0039 17.0585C23.4407 17.018 23.8808 17.0863 24.2847 17.2573L24.282 18.5458Z" fill="#2872BC"/>
<path fill-rule="evenodd" clip-rule="evenodd" d="M22.1426 17.2897C22.5473 17.1043 22.9921 17.0235 23.4362 17.0548C23.8802 17.0862 24.3093 17.2286 24.6839 17.469C25.0586 17.7095 25.3668 18.0402 25.5802 18.4308C25.7937 18.8215 25.9055 19.2595 25.9055 19.7047V22.803H24.7251V19.7047C24.7251 18.8042 24.0632 18.0839 23.2493 18.0839C23.0352 18.086 22.8244 18.1366 22.6328 18.2319C22.4411 18.3272 22.2735 18.4647 22.1426 18.6341V17.2897Z" fill="#1D5C84"/>
<path fill-rule="evenodd" clip-rule="evenodd" d="M24.282 17.2573C24.7626 17.4611 25.1725 17.8019 25.4607 18.2371C25.7489 18.6723 25.9027 19.1827 25.9028 19.7047V22.803L24.7251 22.803V19.7047C24.7284 19.2764 24.5702 18.8626 24.282 18.5458L24.282 17.2573Z" fill="#993233"/>
<path fill-rule="evenodd" clip-rule="evenodd" d="M30.7012 22.8372C30.2616 22.9638 29.7987 22.9865 29.349 22.9035C28.8992 22.8205 28.4748 22.6342 28.1094 22.3591C27.744 22.0841 27.4475 21.7279 27.2433 21.3186C27.0391 20.9094 26.9328 20.4583 26.9328 20.0009C26.9328 19.5435 27.0391 19.0924 27.2433 18.6832C27.4475 18.2739 27.744 17.9177 28.1094 17.6427C28.4748 17.3676 28.8992 17.1813 29.349 17.0983C29.7987 17.0153 30.2616 17.038 30.7012 17.1646V18.2451C30.4694 18.1394 30.2176 18.0847 29.9628 18.0848C28.9453 18.0848 28.1187 18.9447 28.1187 20.0036C28.1187 21.0625 28.9453 21.9215 29.9628 21.9215C30.2176 21.922 30.4695 21.8673 30.7012 21.7612V22.8372Z" fill="#E13030"/>
<path fill-rule="evenodd" clip-rule="evenodd" d="M28.5609 17.3636C29.0693 17.1077 29.6409 17.0043 30.2067 17.0658C30.7726 17.1273 31.3086 17.3511 31.7502 17.7102L31.8078 17.1961H32.8406V25.3125H31.6601V22.36C31.2203 22.6898 30.6973 22.8903 30.1497 22.939C29.6022 22.9877 29.0519 22.8826 28.5609 22.6355V21.2462C28.7305 21.4552 28.9444 21.6238 29.1871 21.74C29.4299 21.8562 29.6955 21.9169 29.9646 21.9179C30.983 21.9179 31.8096 21.058 31.8096 20C31.8096 18.942 30.983 18.0812 29.9646 18.0812C29.6958 18.0824 29.4306 18.1433 29.1881 18.2595C28.9457 18.3756 28.7321 18.5442 28.5627 18.7529L28.5609 17.3636Z" fill="#F28825"/>
<path fill-rule="evenodd" clip-rule="evenodd" d="M30.7012 17.1619C31.0844 17.2717 31.4413 17.4582 31.7502 17.7102L31.8078 17.1961H32.8406V25.3125H31.6601V22.36C31.3724 22.5765 31.0473 22.7383 30.7012 22.8372L30.7012 21.7567C31.0315 21.5974 31.3102 21.3481 31.5052 21.0375C31.7002 20.7269 31.8036 20.3676 31.8036 20.0009C31.8036 19.6342 31.7002 19.2749 31.5052 18.9643C31.3102 18.6537 31.0315 18.4044 30.7012 18.2451L30.7012 17.1619Z" fill="#F5C836"/>
</svg>
