<svg width="40" height="40" viewBox="0 0 40 40" fill="none" xmlns="http://www.w3.org/2000/svg">
<rect width="40" height="40" rx="4" fill="black"/>
<path d="M27.4837 23.2809C27.8606 23.6609 28.169 24.0721 28.3902 24.5175C29.088 25.9318 28.8294 27.4925 27.4432 28.8538C25.8545 30.4144 23.1475 31.3739 20.0044 31.3739C16.8613 31.3739 14.1542 30.4144 12.5655 28.8538C11.1793 27.4925 10.9239 25.9318 11.6185 24.5175C11.8366 24.0752 12.1419 23.664 12.5219 23.2809C12.0765 23.7107 11.7276 24.0908 11.4098 24.7263C10.7307 26.0844 10.9488 28.0283 12.3817 29.4363C14.0109 31.0374 16.5622 32 20.0324 32C23.512 32 26.0632 31.0063 27.6239 29.4363C29.1565 27.8974 29.2157 25.8913 28.5865 24.6826C28.3217 24.1811 27.9728 23.717 27.4837 23.2809Z" fill="url(#paint0_linear_16587_6998)"/>
<path d="M24.9323 21.6455C23.4589 21.0349 21.7456 20.7203 20.0042 20.7203C18.2629 20.7203 16.5465 21.0349 15.0762 21.6455C13.4656 22.3152 12.2166 23.3058 11.6185 24.5175C10.9239 25.9318 11.1793 27.4925 12.5655 28.8538C14.1542 30.4144 16.8613 31.3739 20.0044 31.3739C23.1475 31.3739 25.8545 30.4144 27.4432 28.8538C28.8294 27.4925 29.0849 25.9318 28.3902 24.5175C27.7921 23.3058 26.5428 22.3121 24.9323 21.6455Z" fill="#F47920"/>
<path d="M20.297 22.3246C20.0073 21.7296 20.0665 21.1907 20.1257 20.7203C20.0852 20.7203 20.0447 20.7203 20.0042 20.7203C18.2629 20.7203 16.5465 21.0349 15.0762 21.6455C13.4656 22.3152 12.2166 23.3058 11.6185 24.5175C10.9239 25.9318 11.1793 27.4925 12.5655 28.8538C12.6652 28.9503 12.7648 29.0438 12.8707 29.1342C18.7208 28.7915 21.7798 25.368 20.297 22.3246Z" fill="url(#paint1_linear_16587_6998)"/>
<path d="M16.2322 22.4273C17.3194 22.7046 18.3536 23.0317 19.4065 23.421C19.6152 22.7949 19.8364 22.175 20.0887 21.5645C20.341 22.175 20.5622 22.7949 20.7709 23.421C21.8238 23.0317 22.8393 22.717 23.9265 22.4398C23.1602 22.9195 22.4842 23.4148 21.7771 23.9724C23.2162 24.1562 24.562 24.393 25.9762 24.7013C24.5651 24.6702 23.2349 24.72 21.8269 24.8104C22.8206 25.6515 23.671 26.4676 24.5962 27.3834C23.3284 26.6607 22.1415 26.0533 20.8207 25.4303C20.5653 26.533 20.3223 27.642 20.0887 28.7479C19.8551 27.6389 19.6401 26.586 19.3847 25.4832C18.0639 26.1063 16.8646 26.7012 15.5562 27.3928C16.4814 26.477 17.3567 25.6795 18.3505 24.8384C16.9393 24.7481 15.5905 24.7294 14.1451 24.7076C15.55 24.4023 16.9705 24.1593 18.3972 23.9787C17.6932 23.4242 16.9985 22.9071 16.2322 22.4273ZM20.0918 24.3556V21.9165C19.8457 22.5955 19.6276 23.2809 19.4221 23.9724C19.6432 24.1001 19.8675 24.2279 20.0918 24.3556ZM16.8677 22.6952C17.7399 23.0784 18.5872 23.5114 19.4189 23.9755C19.2133 23.9973 19.0046 24.0191 18.799 24.041C18.1729 23.5675 17.5312 23.1158 16.8677 22.6952ZM20.0918 24.3556C21.7708 24.3587 23.4468 24.4428 25.1164 24.6079C23.6492 24.3431 22.2256 24.1406 20.7553 23.9693C20.5341 24.097 20.313 24.2247 20.0918 24.3556ZM23.3128 22.6952C22.4406 23.0784 21.5902 23.5114 20.7584 23.9724C20.7242 23.8572 20.6899 23.745 20.6556 23.6298C21.5279 23.284 22.4125 22.9662 23.3128 22.6952ZM20.0015 24.3587C20.0357 25.5362 20.0793 26.7853 20.0918 27.9255C20.3099 26.8726 20.5373 25.8197 20.7802 24.7699C20.5528 24.6297 20.2351 24.4926 20.0015 24.3587ZM23.7894 26.7853C22.8113 26.0782 21.8082 25.4022 20.7802 24.7699C20.9921 24.7543 21.2008 24.7387 21.4126 24.7232C22.2288 25.3804 23.02 26.072 23.7894 26.7853ZM20.0918 24.3556C18.4003 24.3805 17.0826 24.4553 15.4347 24.5986C16.8583 24.6017 17.9611 24.6577 19.4065 24.7699C19.6339 24.6297 19.8613 24.4926 20.0918 24.3556ZM16.3942 26.7853C17.3754 26.0782 18.3785 25.4054 19.4065 24.7699C19.4376 24.9007 19.4657 25.0316 19.4968 25.1624C18.4439 25.6701 17.4097 26.2122 16.3942 26.7853Z" fill="white"/>
<path d="M20.0887 21.605C20.341 22.2155 20.5622 22.8354 20.7709 23.4616C21.7708 23.094 22.7864 22.7762 23.8174 22.5114C23.8548 22.4896 23.8891 22.4647 23.9265 22.4429C22.858 22.7139 21.8051 23.041 20.7709 23.4242C20.5622 22.798 20.341 22.1781 20.0887 21.5676C19.8364 22.1781 19.6152 22.798 19.4065 23.4242C18.3536 23.0348 17.3194 22.7077 16.2322 22.4305C16.2696 22.4523 16.3038 22.4772 16.3412 22.499C17.391 22.77 18.391 23.0877 19.4065 23.4647C19.6152 22.8354 19.8364 22.2155 20.0887 21.605Z" fill="#C9252C"/>
<path d="M18.3503 24.8416C17.3721 25.6733 16.4688 26.4926 15.5591 27.396L15.7056 27.315C16.5996 26.4334 17.3908 25.7169 18.3534 24.9039L18.3503 24.8416Z" fill="#CB4D2C"/>
<path d="M20.0544 24.3773L20.0201 24.3991C19.8145 24.5206 19.6089 24.6452 19.4064 24.7729L19.4158 24.8134C19.64 24.6763 19.8643 24.5424 20.0917 24.4084L20.0918 24.3556L20.0544 24.3773Z" fill="#C4161C"/>
<path d="M19.4189 23.9755L19.3564 23.9818C19.1695 24.0005 18.9859 24.0191 18.799 24.041C18.1729 23.5675 17.5312 23.1158 16.8677 22.6952L16.8674 22.7452C17.5309 23.1657 18.1726 23.6174 18.7988 24.0909C19.0044 24.0691 19.2131 24.0441 19.4187 24.0255C19.6211 24.1376 19.8112 24.2435 20.0105 24.3588H20.0915C19.8672 24.2279 19.6432 24.1001 19.4189 23.9755ZM16.3939 26.8415C17.4094 26.2683 18.4436 25.7263 19.4965 25.2217V25.1656C18.4436 25.6733 17.4097 26.2122 16.3942 26.7853L16.3939 26.8415Z" fill="#CB4D2C"/>
<path d="M20.78 24.7668C20.5402 25.8041 20.3065 26.8788 20.0916 27.9223V27.9628C20.3097 26.9099 20.5371 25.8633 20.78 24.8135C21.4809 25.2465 22.4996 25.9131 23.7923 26.8445V26.7822C22.8111 26.0782 21.808 25.4022 20.78 24.7668ZM21.8734 24.8509L21.8298 24.8135V24.8789C22.7893 25.6919 23.5556 26.4178 24.4496 27.3024C24.4808 27.3211 24.568 27.371 24.6023 27.3897C23.6584 26.452 22.8173 25.6546 21.8734 24.8509Z" fill="#A71C20"/>
<path d="M18.3563 23.9881C16.9452 24.1687 15.5403 24.4086 14.1478 24.7108C14.2164 24.7108 14.3005 24.7139 14.369 24.7139C15.7023 24.4304 17.048 24.203 18.3999 24.0317V23.9818L18.3563 23.9881ZM19.4065 24.7699C18.0826 24.6546 16.7645 24.5893 15.4375 24.6017V24.6422C16.7458 24.6329 18.0479 24.6952 19.3531 24.8073L19.4065 24.7699Z" fill="#CB4D2C"/>
<path d="M21.7771 23.9724C23.2162 24.1562 24.562 24.393 25.9762 24.7013C25.9046 24.6982 25.8109 24.6983 25.7392 24.6983C24.3904 24.4117 23.1412 24.1968 21.7768 24.0255L21.7771 23.9724ZM20.0918 24.3556C21.7708 24.3587 23.4468 24.4428 25.1164 24.6079L25.1162 24.6516C23.4714 24.4865 21.8204 24.4024 20.1663 24.3962C20.1539 24.3899 20.1383 24.3806 20.1258 24.3712L20.0918 24.3556ZM20.7551 23.9725C20.7769 23.9756 20.7956 23.9787 20.8143 23.9787C21.6273 23.5302 22.4559 23.1096 23.3063 22.7358V22.6953C22.4372 23.0785 21.5899 23.5084 20.7551 23.9725Z" fill="#A71C20"/>
<path d="M20.7551 23.9725C20.7208 23.8572 20.6868 23.7449 20.6525 23.6297V23.6702C20.6837 23.773 20.7148 23.8758 20.7428 23.9755C20.7491 23.9755 20.752 23.9756 20.7551 23.9725Z" fill="#C4161C"/>
<path d="M20.2568 31.0499C20.2069 31.0873 20.1384 31.1246 20.0917 31.162C20.0418 31.1246 19.9733 31.0873 19.9234 31.0499C19.9234 30.592 19.9234 30.1372 19.9234 29.6792C19.9733 29.645 20.0449 29.6107 20.0917 29.5796C20.1415 29.6138 20.2069 29.6481 20.2536 29.6792L20.2568 31.0499ZM12.1264 27.7354L12.0454 27.8912C12.0952 27.9099 12.1918 27.941 12.2354 27.9597C12.7151 27.7043 13.1886 27.4488 13.659 27.2027C13.6777 27.1311 13.687 27.0906 13.7088 27.0345C13.659 27.0221 13.6123 27.0096 13.5624 26.9971C13.0796 27.237 12.5999 27.4831 12.1264 27.7354ZM11.7744 24.9256C11.7307 24.9599 11.6871 24.9941 11.6435 25.0315C11.6684 25.0627 11.6934 25.1001 11.7152 25.1312C12.1606 25.0689 12.6092 25.0128 13.0578 24.9661C13.0983 24.9256 13.1512 24.8758 13.1886 24.8384C13.1637 24.8104 13.1357 24.7854 13.1107 24.7574C12.6653 24.8041 12.2198 24.8602 11.7744 24.9256ZM13.4908 22.6578L13.3537 22.717C13.3568 22.745 13.3631 22.7918 13.3662 22.8198C13.6964 22.8665 14.0235 22.9226 14.3537 22.9849C14.3973 22.96 14.4533 22.9257 14.4938 22.9039L14.4751 22.8167C14.1512 22.7575 13.821 22.7014 13.4908 22.6578ZM23.565 21.2623C23.6055 21.2623 23.6491 21.2623 23.6896 21.2623L23.7394 21.3121C23.5681 21.4211 23.3968 21.5364 23.2317 21.6516C23.1881 21.6516 23.1444 21.6516 23.1008 21.6516L23.051 21.5956C23.2192 21.4834 23.3905 21.3682 23.565 21.2623ZM19.9733 20.7857L20.0667 20.7576L20.1633 20.7857L20.1664 21.1875C20.1322 21.2 20.101 21.2093 20.0667 21.2218C20.0356 21.2093 20.0013 21.2 19.9702 21.1875L19.9733 20.7857ZM16.366 21.3214C16.3816 21.3059 16.419 21.2747 16.4345 21.2591L16.5623 21.256C16.7367 21.3651 16.908 21.4772 17.0762 21.5956L17.0264 21.6516C16.9828 21.6516 16.9205 21.6641 16.8769 21.661C16.7087 21.5426 16.5373 21.4305 16.366 21.3214ZM15.3162 30.2119C15.2477 30.2275 15.1605 30.2275 15.095 30.2431C15.0795 30.1963 15.0452 30.1465 15.0327 30.0998C15.3661 29.701 15.7056 29.3023 16.0483 28.9098C16.1137 28.8942 16.2009 28.8818 16.2663 28.8662C16.2819 28.9067 16.313 28.9783 16.3317 29.0157C15.9891 29.4145 15.6495 29.8101 15.3162 30.2119ZM27.9448 27.7354C27.9728 27.7853 27.9978 27.8382 28.0258 27.8912C27.976 27.9099 27.8794 27.941 27.8358 27.9597C27.3561 27.7043 26.8826 27.4488 26.4122 27.2027C26.3935 27.1311 26.3841 27.0906 26.3623 27.0345C26.4122 27.0221 26.4589 27.0096 26.5087 26.9971C26.9885 27.237 27.4682 27.4831 27.9448 27.7354ZM28.2968 24.9256C28.3404 24.9599 28.384 24.9941 28.4276 25.0315C28.4027 25.0627 28.3778 25.1001 28.356 25.1312C27.9105 25.0689 27.462 25.0128 27.0134 24.9661C26.9729 24.9256 26.9199 24.8758 26.8826 24.8384C26.9075 24.8104 26.9355 24.7854 26.9604 24.7574C27.4059 24.8041 27.8514 24.8602 28.2968 24.9256ZM26.5773 22.6578L26.7143 22.717C26.7112 22.745 26.705 22.7918 26.7019 22.8198C26.3717 22.8665 26.0446 22.9226 25.7144 22.9849C25.6708 22.96 25.6147 22.9257 25.5742 22.9039C25.5804 22.8759 25.5867 22.8478 25.5929 22.8167C25.92 22.7575 26.2471 22.7014 26.5773 22.6578ZM24.7518 30.2119C24.8079 30.2213 24.9045 30.2337 24.973 30.2431C24.9948 30.1963 25.0166 30.1496 25.0353 30.0998C24.702 29.701 24.3624 29.3023 24.0198 28.9098C23.9544 28.8942 23.8671 28.8818 23.8017 28.8662C23.7862 28.9067 23.755 28.9783 23.7363 29.0157C24.079 29.4145 24.4185 29.8101 24.7518 30.2119Z" fill="white"/>
<path d="M12.1201 27.8164C12.1076 27.8413 12.0889 27.8787 12.0765 27.9005C12.0671 27.8974 12.0578 27.8943 12.0453 27.8881C12.0734 27.8351 12.0983 27.7853 12.1263 27.7323C12.6029 27.48 13.0795 27.2339 13.5624 26.994C13.6122 27.0065 13.6589 27.019 13.7088 27.0314C13.6994 27.0595 13.6901 27.0875 13.6807 27.1124C13.6434 27.1 13.5904 27.0937 13.5499 27.0813C13.0702 27.3242 12.5967 27.5641 12.1201 27.8164ZM11.7868 24.9879C11.7619 25.0066 11.6964 25.0533 11.6715 25.0751C11.6591 25.0596 11.6559 25.0533 11.6404 25.0315C11.684 24.9973 11.7276 24.9599 11.7712 24.9256C12.2167 24.8602 12.6621 24.8072 13.1076 24.7605C13.1325 24.7886 13.1605 24.8135 13.1854 24.8415C13.1761 24.8509 13.1668 24.8602 13.1574 24.8696C13.145 24.8571 13.12 24.8353 13.1107 24.8259C12.6715 24.8695 12.2291 24.9225 11.7868 24.9879ZM13.363 22.7856L13.3537 22.717L13.4908 22.6578C13.821 22.7045 14.148 22.7575 14.4782 22.8198L14.4969 22.907C14.4907 22.9102 13.824 22.7762 13.497 22.7326L13.363 22.7856Z" fill="#CC612C"/>
<path d="M23.6895 21.3308L23.6958 21.337C23.7113 21.3277 23.7238 21.3183 23.7394 21.309C23.7238 21.2934 23.7051 21.2747 23.6895 21.2592H23.5649C23.3905 21.3682 23.2192 21.4803 23.0509 21.5987L23.0883 21.6423C23.2441 21.5333 23.4029 21.4305 23.5649 21.3308C23.6054 21.3308 23.649 21.3308 23.6895 21.3308Z" fill="#A71C20"/>
<path d="M19.9732 20.8542L20.0667 20.8262L20.1633 20.8542L20.1633 20.7857C20.1322 20.7763 20.0979 20.767 20.0667 20.7576L19.9733 20.7857L19.9732 20.8542Z" fill="#B7161C"/>
<path d="M16.5652 21.3184C16.7271 21.418 16.8798 21.5302 17.0355 21.6392L17.0762 21.5956C16.908 21.4772 16.7367 21.3651 16.5623 21.256C16.5186 21.256 16.4781 21.256 16.4345 21.2591C16.419 21.2747 16.3816 21.3059 16.366 21.3214L16.4094 21.3495C16.4125 21.3464 16.4374 21.3246 16.4406 21.3215C16.481 21.3184 16.5215 21.3184 16.5652 21.3184Z" fill="#CB4D2C"/>
<path d="M16.2537 28.9254C16.2724 28.9503 16.2942 29.0064 16.3129 29.0375L16.3316 29.0188C16.3254 29.0001 16.2849 28.9098 16.2662 28.8693C16.2007 28.8849 16.1135 28.8973 16.0481 28.9129C15.7054 29.3054 15.3659 29.701 15.0326 30.1029C15.0388 30.1216 15.0513 30.1434 15.0575 30.159C15.2724 29.9035 15.7366 29.349 16.073 28.9628C16.126 28.9472 16.1976 28.9378 16.2537 28.9254ZM27.9478 27.8164C27.9602 27.8413 27.9789 27.8787 27.9945 27.9005C28.0038 27.8974 28.0132 27.8943 28.0256 27.8881C27.9976 27.8351 27.9727 27.7853 27.9446 27.7323C27.468 27.48 26.9914 27.2339 26.5086 26.994C26.4587 27.0065 26.412 27.0189 26.3622 27.0314C26.3715 27.0594 26.3809 27.0875 26.3871 27.1124C26.4245 27.0999 26.4774 27.0937 26.5179 27.0812C26.9977 27.3242 27.4712 27.5641 27.9478 27.8164ZM28.2811 24.9879C28.306 25.0066 28.3714 25.0533 28.3963 25.0751C28.4088 25.0595 28.4121 25.0533 28.4276 25.0315C28.384 24.9973 28.3404 24.9599 28.2968 24.9256C27.8514 24.8602 27.4057 24.8072 26.9603 24.7605C26.9354 24.7885 26.9073 24.8135 26.8824 24.8415C26.8917 24.8508 26.9011 24.8571 26.9104 24.8695C26.9229 24.8571 26.9478 24.8353 26.9572 24.8259C27.3995 24.8695 27.8356 24.9225 28.2811 24.9879ZM26.7048 22.7855L26.7143 22.717C26.6707 22.6983 26.624 22.6765 26.5773 22.6578C26.2471 22.7045 25.9198 22.7575 25.5896 22.8198L25.5709 22.907C25.5772 22.9101 26.2438 22.7762 26.5709 22.7326L26.7048 22.7855ZM23.814 28.9254C23.7953 28.9503 23.7735 29.0064 23.7548 29.0375C23.7486 29.0313 23.7424 29.0251 23.7362 29.0188C23.7424 29.0001 23.7829 28.9098 23.8016 28.8693C23.867 28.8849 23.9542 28.8973 24.0196 28.9129C24.3623 29.3054 24.7018 29.7042 25.0351 30.1029C25.0289 30.1216 25.0196 30.1403 25.0133 30.159C24.7984 29.9035 24.3311 29.349 23.9947 28.9628C23.9418 28.9472 23.8701 28.9378 23.814 28.9254ZM20.2254 29.7291L20.2568 31.0499L20.2536 29.6792C20.2038 29.645 20.1384 29.6107 20.0917 29.5796C20.0418 29.6138 19.9702 29.6481 19.9234 29.6792V31.0499L19.9544 29.7291C19.9949 29.701 20.0541 29.6761 20.0915 29.6481C20.1289 29.6761 20.185 29.701 20.2254 29.7291Z" fill="#A71C20"/>
<path d="M13.4563 24.7793C14.0513 22.119 17.7427 21.3277 20.0603 21.3277C22.3779 21.3277 26.0662 22.119 26.6643 24.7793C27.4057 28.0937 22.462 29.3273 20.0634 29.3273C17.6648 29.3273 12.7149 28.0937 13.4563 24.7793ZM13.6962 24.7606C14.2569 22.1875 17.8268 21.4274 20.0572 21.4274C22.2845 21.4274 25.8575 22.1906 26.4182 24.7637C27.1129 27.9473 22.3624 29.1217 20.0572 29.1217C17.752 29.1186 13.0046 27.9442 13.6962 24.7606Z" fill="#CB4D2C"/>
<path d="M13.4784 24.8603C14.0734 22.2 17.6122 21.3963 20.0793 21.3963C22.5402 21.3963 26.0852 22.2 26.6833 24.8634C27.4247 28.1747 22.481 29.4114 20.0824 29.4114C17.6807 29.4083 12.7339 28.1747 13.4784 24.8603ZM13.7183 24.8416C14.279 22.2685 17.8489 21.5084 20.0793 21.5084C22.3097 21.5084 25.8796 22.2716 26.4403 24.8447C27.135 28.0252 22.3876 29.2027 20.0793 29.2027C17.7741 29.2027 13.0236 28.0252 13.7183 24.8416Z" fill="white"/>
<path d="M23.2193 17.4805C23.2193 17.4805 23.0012 17.2812 22.9981 17.2718C22.9825 17.2033 23.0604 17.1098 23.0791 16.9915C23.0573 16.9821 23.0324 16.9728 23.0137 16.9634C22.9607 16.761 22.9171 16.3996 23.0137 16.2034C23.0604 16.1099 23.1165 15.9822 23.0853 15.8732C22.9047 15.2564 22.5495 14.7175 22.2972 14.1318C22.2287 13.973 22.2411 13.8577 22.2318 13.6957C22.0355 13.4808 21.8113 12.92 21.7022 12.5712C21.4748 13.1443 21.3253 13.8047 21.3253 13.9574C21.3253 14.6022 21.9795 14.9168 21.7521 15.9884C21.7085 16.1971 21.6306 16.4837 21.5527 16.7765C21.6898 17.5242 21.6898 18.0662 21.8891 18.9353C22.1695 19.2125 22.4031 19.5677 22.5277 20.0193C22.6056 20.2997 22.8392 20.9539 23.1414 21.0536C23.3283 21.1159 22.509 21.2654 22.2754 20.9726C22.0511 20.6922 21.6649 20.4679 21.4842 20.172C21.3378 19.9352 21.1135 19.4306 20.9702 19.1907L20.7957 20.1097C21.0356 21.0909 20.8923 21.309 20.6805 22.1065C20.5901 22.4522 19.8924 20.8417 19.8924 20.714C19.8924 20.3651 19.8706 20.2343 19.7896 19.9259C19.6432 19.6424 19.6587 19.2406 19.6805 18.9322C19.7148 18.4213 19.7086 17.4556 19.7304 17.2002C19.5559 16.7703 19.1042 15.9915 19.0606 15.5523C18.9921 14.8701 19.1074 14.1785 19.0108 13.4963C18.8924 13.8359 18.7678 14.2689 18.503 14.5306C18.1074 14.9231 17.7398 15.3561 17.3847 15.7828C17.257 15.9604 17.3691 16.0445 17.1698 16.328C16.9735 16.6052 17.0794 16.4806 17.0358 16.7454C17.0296 16.7828 17.014 16.817 16.9891 16.842C16.8832 16.9292 16.771 17.0071 16.6215 16.9416C16.3287 16.7952 16.31 16.5772 16.2882 16.2999C16.2508 15.7672 16.6433 15.7423 16.8676 15.4184C17.3068 14.786 17.528 13.7237 17.9953 13.244C18.0233 13.1506 18.1355 12.8079 18.3442 12.3001C18.3504 11.6709 18.5061 11.1102 19.1541 10.8516C19.4189 10.7457 19.7678 10.7177 19.7802 10.3532C19.7833 10.3096 19.774 10.1975 19.746 10.157C19.64 10.0697 19.5653 10.0697 19.5123 10.0074C19.4064 9.87349 19.3192 9.00749 19.3316 8.95142C19.4812 8.2256 19.8332 7.97951 20.2786 8.00132C20.8051 8.02624 21.2225 8.28168 21.2007 8.9888C21.182 9.55886 20.5933 10.2878 21.4748 10.565C21.8113 10.671 21.8736 10.5962 22.1633 10.889C22.4872 11.213 22.5651 11.7924 22.6212 12.3282L22.9514 13.0945C23.5557 14.1131 23.3377 14.4371 23.5619 15.4744C23.618 15.7423 23.7177 15.9791 23.7395 16.5678C23.7457 16.8482 23.5246 17.4712 23.2193 17.4805Z" fill="#FBB257"/>
<path d="M16.905 16.7143C16.933 16.4433 16.8925 16.4651 17.0669 16.2128C17.2289 15.9791 17.1511 15.8608 17.2912 15.6583C17.6401 15.2222 17.9703 14.7798 18.3628 14.3842C18.6245 14.1163 18.9827 13.2223 19.0668 12.9045C19.0824 12.8578 19.1073 12.836 19.1198 12.8765C19.1759 13.4777 19.26 13.9793 19.2382 14.568C19.1946 15.8078 19.2257 15.677 19.7428 16.8358C19.7864 16.3716 19.8986 15.6957 20.1696 15.4652C19.8518 16.6707 19.8332 18.3933 19.7989 18.9229C19.7833 19.1908 19.7085 19.6176 19.8363 19.8637C19.8799 20.0319 19.883 20.2842 19.8861 20.4773C19.8861 20.5957 19.8955 22.5956 19.8955 22.5956L19.7085 23.5239C19.6431 23.7918 19.2974 24.2435 19.0419 24.3837C18.9609 24.4273 18.7709 24.5301 18.7709 24.6204C18.7709 24.7668 19.7148 25.0409 19.9328 24.7076C20.0948 24.4584 20.2288 24.3182 20.4219 24.1345C20.721 23.8479 20.3908 23.555 20.4281 23.1688C20.4967 22.4959 20.7864 21.9134 20.8798 21.2779C20.9359 20.8948 20.9265 20.5583 20.7521 20.1222L20.8767 18.9073C21.0169 19.116 21.1477 19.4494 21.2786 19.7266C21.5153 20.2188 21.5184 20.2655 21.9265 20.6705C22.0636 20.8075 22.2069 20.9664 22.3096 21.1315C22.5028 21.4368 22.6336 21.739 22.618 22.1034C22.4779 22.3589 22.4156 22.3433 22.2349 22.499C22.2411 22.5084 22.185 22.6486 22.3564 22.6486C22.97 22.6486 22.8953 22.3277 23.1289 21.9103C23.2784 21.6424 23.7114 21.2312 23.2379 21.091C23.0884 21.0474 22.9514 20.9571 22.8641 20.8138C22.5371 20.2655 22.5246 20.2811 22.3533 19.7764C22.2505 19.4712 22.0386 19.2251 21.7925 19.0226C21.6399 18.6799 21.5807 18.4338 21.5309 18.0694C21.4655 17.5741 21.4187 17.219 21.3346 16.7112C21.5745 15.758 21.6991 15.5586 21.291 14.6428C21.1944 14.4278 21.1446 14.1942 21.1446 13.9606C21.1446 13.6553 21.3128 12.9731 21.4748 12.618C21.5309 12.4747 21.6119 12.3376 21.724 12.294C21.8237 12.6647 22.1632 13.4217 22.3626 13.6086C22.3751 13.7581 22.3688 13.9076 22.428 14.0478C22.6772 14.6459 23.0355 15.191 23.2161 15.8203C23.2784 16.0383 23.1943 16.1411 23.1351 16.3156C23.1165 16.3997 23.1102 16.6427 23.1476 16.8233L23.2317 16.8701C23.2161 16.9261 23.1788 17.0788 23.1476 17.1473C23.1601 17.2314 23.2629 17.2813 23.2629 17.2813C23.3999 17.2501 23.5962 16.7548 23.59 16.5554C23.5681 15.948 23.4404 15.677 23.4062 15.4963C23.2037 14.4652 23.3221 14.1849 22.7458 13.188L22.4187 12.3781C22.3782 11.9638 22.2131 11.0168 21.6804 10.8455C21.5901 10.8174 21.4997 10.8112 21.3658 10.7676C20.6711 10.5433 20.6711 10.0075 20.8611 9.42499C21.0293 8.90477 21.0512 8.29421 20.288 8.22879C19.8145 8.1883 19.6712 8.56211 19.5715 8.98888C19.5746 9.0356 19.5995 9.73338 19.7023 9.88291C19.9048 10.0324 20.0169 9.98882 20.0045 10.3657C19.9951 10.6804 19.7927 10.8673 19.5185 10.9638C19.0731 11.1196 18.8488 11.2131 18.6961 11.671C18.6494 11.8143 18.6089 12.023 18.6089 12.3314V12.3532C18.4812 12.6678 18.3223 13.0292 18.2258 13.3656C17.6775 13.9138 17.4065 15.163 16.8551 15.6894C16.4875 16.0383 16.3754 16.0633 16.5093 16.6022C16.5218 16.6582 16.6994 16.7984 16.7367 16.8171C16.7617 16.8296 16.9081 16.7455 16.905 16.7143Z" fill="url(#paint2_linear_16587_6998)"/>
<g opacity="0.45">
<path d="M27.9603 25.4117L26.8794 25.2466L26.7361 25.2123C26.5554 25.1749 26.2065 24.9787 26.057 24.745C25.9043 24.5114 25.543 24.1095 25.3405 23.8603C25.0633 23.5146 24.434 23.1968 24.3437 23.0535C24.2502 22.9102 24.1007 22.661 24.0571 22.5613C24.0166 22.4617 23.9169 22.3807 23.7549 22.39C23.5929 22.3994 23.5774 22.4554 23.4372 22.4648C23.297 22.4741 23.1008 22.443 23.1008 22.443C23.0166 22.4243 22.9575 22.4149 22.8983 22.4149C22.8111 22.5582 22.6802 22.6455 22.3562 22.6455C22.3344 22.6455 22.3158 22.6423 22.3002 22.6392C22.3344 22.7109 22.6335 22.7545 22.6833 22.7514C22.7332 22.7483 23.0166 22.8292 23.0821 22.8386C23.2129 22.8635 23.188 22.8168 23.3967 22.9383C23.7425 23.1376 24.2596 23.689 24.3624 24.1656C24.4184 24.4304 24.8701 24.8603 24.9262 25.1033C24.3219 25.0597 23.5151 24.6578 23.5151 24.6578L23.4154 24.608C23.4154 24.608 23.0571 24.4273 22.5058 24.4024C21.4653 24.3089 21.0697 24.1687 20.9669 24.1345C20.752 24.0628 20.7831 24.0254 20.6087 24.0161C20.5744 24.013 20.5433 24.013 20.5152 24.013C20.4934 24.0566 20.4623 24.0971 20.4249 24.1314C20.2318 24.3151 20.0978 24.4553 19.9358 24.7045C19.8922 24.7731 19.8174 24.8136 19.7302 24.8385C19.9296 24.7918 20.319 24.689 20.319 24.689C20.6866 24.6391 21.2442 24.8042 21.2442 24.8042C21.4498 24.8447 21.7924 24.9787 21.7924 24.9787C21.7924 24.9787 23.2752 25.4335 23.6397 25.6982C23.8795 25.8727 25.11 26.3337 25.4371 26.4459C25.7642 26.558 26.5616 26.991 26.5616 26.991C26.7672 27.1655 27.9572 27.6857 28.2843 27.7947C28.7048 27.0658 28.8512 26.3213 28.7328 25.5674L27.9603 25.4117Z" fill="#4F264A"/>
<path d="M27.4152 24.178C27.3093 24.178 27.1909 24.2061 27.1909 24.2061L26.895 24.3805C26.8576 24.4428 26.9915 24.5207 26.9915 24.5207C26.9915 24.5207 27.3653 24.5456 27.3622 24.6422C27.6364 24.7886 28.222 24.8042 28.5179 24.8197C28.4774 24.7169 28.4338 24.6172 28.384 24.5207C28.3372 24.4241 28.2843 24.3307 28.2282 24.2372C28.2158 24.2279 27.9915 24.1656 27.4152 24.178ZM25.2128 27.8102C25.2128 27.8102 25.1412 27.7199 24.7642 27.7199C24.5244 27.7199 24.867 28.2868 24.867 28.2868C25.082 28.4332 25.8607 28.6544 26.0258 28.6762C26.1878 28.698 26.733 28.86 26.733 28.86C26.733 28.86 27.0164 28.8974 27.3062 28.9846C27.518 28.7915 27.7173 28.5796 27.8949 28.3554C27.2376 28.3429 26.3031 28.3304 25.596 27.9597C25.5274 27.7448 25.2128 27.8102 25.2128 27.8102Z" fill="#4F264A"/>
</g>
<defs>
<linearGradient id="paint0_linear_16587_6998" x1="11.0372" y1="19.9958" x2="28.9604" y2="19.9958" gradientUnits="userSpaceOnUse">
<stop stop-color="#CC612C"/>
<stop offset="1" stop-color="#743237"/>
</linearGradient>
<linearGradient id="paint1_linear_16587_6998" x1="7.83087" y1="23.2875" x2="29.2602" y2="20.7677" gradientUnits="userSpaceOnUse">
<stop stop-color="#FFDD7F"/>
<stop offset="1" stop-color="#F47920"/>
</linearGradient>
<linearGradient id="paint2_linear_16587_6998" x1="17.1179" y1="13.8734" x2="23.532" y2="20.2876" gradientUnits="userSpaceOnUse">
<stop stop-color="#2A3795"/>
<stop offset="1" stop-color="#222A7E"/>
</linearGradient>
</defs>
</svg>
