<svg width="40" height="40" viewBox="0 0 40 40" fill="none" xmlns="http://www.w3.org/2000/svg">
<path d="M0 4C0 1.79086 1.79086 0 4 0H36C38.2091 0 40 1.79086 40 4V36C40 38.2091 38.2091 40 36 40H4C1.79086 40 0 38.2091 0 36V4Z" fill="#011546"/>
<path d="M25.4079 17.6856C25.1796 13.9645 22.0267 11 18.2248 11C14.2364 11 11 14.1683 11 18.1171C10.9931 19.9561 11.721 21.7235 13.0255 23.0355L17.7868 17.6856H25.4091H25.4079ZM20.8343 29H30V23.0755L25.4056 17.6868L20.832 23.0755V29H20.8355H20.8343Z" fill="#F9383D"/>
</svg>
