<svg width="40" height="40" viewBox="0 0 40 40" fill="none" xmlns="http://www.w3.org/2000/svg">
<rect width="40" height="40" rx="4" fill="#FF4785"/>
<path fill-rule="evenodd" clip-rule="evenodd" d="M22.7853 13.1184C23.497 12.6204 24.3559 12.3289 25.2884 12.3289C27.6687 12.3289 29.5829 14.236 29.5829 16.5805C29.5829 18.925 27.6565 20.8321 25.2884 20.8321C23.1534 20.8321 21.3865 19.2894 21.0552 17.2729L17.227 20.0304C16.5154 20.5284 15.6442 20.8321 14.7117 20.8321C12.3436 20.8321 10.4172 18.925 10.4172 16.5805C10.4172 14.236 12.3436 12.3289 14.7117 12.3289C16.8467 12.3289 18.6135 13.8716 18.9448 15.8881L22.7853 13.1184ZM12.7853 16.5805C12.7853 17.6373 13.6442 18.4876 14.7117 18.4876C15.7792 18.4876 16.6381 17.6373 16.6381 16.5805C16.6381 15.5237 15.7792 14.6733 14.7117 14.6733C13.6442 14.6733 12.7853 15.5237 12.7853 16.5805ZM23.362 16.5805C23.362 17.6373 24.2209 18.4876 25.2884 18.4876C26.3559 18.4876 27.2148 17.6373 27.2148 16.5805C27.2148 15.5237 26.3559 14.6733 25.2884 14.6733C24.2209 14.6733 23.362 15.5237 23.362 16.5805Z" fill="white"/>
<path d="M29.7668 23.4195H28.773V26.8694H29.7668V23.4195Z" fill="white"/>
<path d="M28.6871 22.472C28.6871 22.144 28.9448 21.8889 29.2638 21.8889C29.5828 21.8889 29.8527 22.144 29.8405 22.472C29.8405 22.8 29.5828 23.0551 29.2638 23.0551C28.9448 23.0551 28.6871 22.7878 28.6871 22.472Z" fill="white"/>
<path fill-rule="evenodd" clip-rule="evenodd" d="M33.681 27.659V23.4316H32.6871V23.5774C32.4662 23.4681 32.2086 23.4074 31.9386 23.4074C30.9693 23.4074 30.1963 24.1848 30.1963 25.1444C30.1963 26.1041 30.9816 26.8815 31.9386 26.8815C32.2086 26.8815 32.454 26.8208 32.6871 26.7115V27.659H33.681ZM31.9509 24.4034C32.3558 24.4034 32.6871 24.7314 32.6871 25.1444C32.6871 25.5453 32.3558 25.8854 31.9509 25.8854C31.546 25.8854 31.2147 25.5575 31.2147 25.1444C31.2147 24.7314 31.546 24.4034 31.9509 24.4034Z" fill="white"/>
<path d="M19.865 24.7314C19.73 24.5128 19.4969 24.3913 19.2515 24.3913C18.8466 24.3913 18.5153 24.7314 18.5276 25.1444C18.5276 25.5575 18.8589 25.8854 19.2638 25.8854C19.5092 25.8854 19.7423 25.764 19.8773 25.5575L20.6994 26.092C20.3681 26.5779 19.8282 26.8694 19.2515 26.8694C18.2822 26.8694 17.5092 26.092 17.5092 25.1323C17.5092 24.1726 18.2944 23.3952 19.2515 23.3952C19.8405 23.3952 20.3803 23.6989 20.6994 24.1848L19.865 24.7314Z" fill="white"/>
<path fill-rule="evenodd" clip-rule="evenodd" d="M8.06132 26.8815C9.03064 26.8815 9.80365 26.1041 9.80365 25.1444C9.80365 24.1848 9.03064 23.3952 8.06132 23.3952C7.79138 23.3952 7.53371 23.4681 7.30058 23.5774V23.4195H6.30672V27.659H7.30058V26.6993C7.53371 26.8208 7.79138 26.8815 8.06132 26.8815ZM8.07359 24.4034C8.4785 24.4034 8.80978 24.7314 8.80978 25.1444C8.80978 25.5453 8.4785 25.8854 8.07359 25.8854C7.66868 25.8854 7.33739 25.5575 7.33739 25.1444C7.33739 24.7314 7.66868 24.4034 8.07359 24.4034Z" fill="white"/>
<path fill-rule="evenodd" clip-rule="evenodd" d="M12.5889 26.8694H13.5828V23.4316H12.5889V23.5774C12.3681 23.4681 12.1104 23.4074 11.8527 23.4074C10.8834 23.4074 10.1104 24.1848 10.1104 25.1444C10.1104 26.1041 10.8957 26.8815 11.8527 26.8815C12.1104 26.8815 12.3681 26.8208 12.5889 26.7115V26.8694ZM11.8527 24.3913C12.2331 24.3913 12.5521 24.6828 12.5889 25.0473V25.2173C12.5398 25.5818 12.2331 25.8733 11.8527 25.8733C11.4478 25.8733 11.1165 25.5453 11.1165 25.1323C11.1165 24.7193 11.4478 24.3913 11.8527 24.3913Z" fill="white"/>
<path d="M25.8895 23.5531C26.0981 23.4802 26.319 23.4316 26.5276 23.4316C27.3251 23.4316 28.1349 23.9904 28.1349 25.0716V26.8451H27.1411V25.0837C27.1411 24.8651 27.0797 24.695 26.957 24.5857C26.8466 24.4763 26.6994 24.4277 26.5276 24.4277C26.454 24.4277 25.8895 24.452 25.8895 25.0594V26.8694H24.8957V23.4195H25.8895V23.5531Z" fill="white"/>
<path d="M16.5153 23.4316H17.5214L15.8527 27.6711H14.8466L15.3251 26.4685L13.9509 23.4316H15.0306L15.8037 25.2538L16.5153 23.4316Z" fill="white"/>
<path fill-rule="evenodd" clip-rule="evenodd" d="M22.7239 26.8815C23.6932 26.8815 24.4662 26.1041 24.4662 25.1444C24.4662 24.1848 23.681 23.3952 22.7239 23.4074C21.7546 23.4074 20.9816 24.1848 20.9816 25.1444C20.9816 26.1041 21.7668 26.8815 22.7239 26.8815ZM22.7362 24.4034C23.1411 24.4034 23.4724 24.7314 23.4724 25.1444C23.4724 25.5453 23.1411 25.8854 22.7362 25.8854C22.3313 25.8854 22 25.5575 22 25.1444C22 24.7314 22.3313 24.4034 22.7362 24.4034Z" fill="white"/>
</svg>
