<svg width="40" height="40" viewBox="0 0 40 40" fill="none" xmlns="http://www.w3.org/2000/svg">
<rect width="40" height="40" rx="4" fill="#E10A0A"/>
<path d="M10.6619 16.8809C10.2496 16.8809 9.89841 17.1023 9.60826 17.5528L8.73783 18.9119C8.73783 18.2705 8.56986 17.7666 8.2339 17.4001C7.88267 17.0183 7.37874 16.8198 6.85953 16.8427C6.33269 16.8198 5.82876 17.0183 5.4699 17.4077C5.12631 17.7819 4.95833 18.2858 4.95833 18.9272V22.7983H5.50807V18.9348C5.48517 18.5149 5.61497 18.1102 5.86694 17.7819C6.1189 17.4994 6.47777 17.339 6.85953 17.3543C7.2413 17.339 7.60016 17.4917 7.85213 17.7819C8.11173 18.1102 8.2339 18.5225 8.21099 18.9348V19.6373L7.26421 21.0574C7.13441 21.233 7.02751 21.4239 6.94352 21.6301C6.88244 21.7828 6.85953 21.9431 6.85953 22.1035C6.8519 22.3249 6.94352 22.5387 7.10387 22.6914C7.28711 22.8517 7.52381 22.9357 7.76051 22.9281C8.02774 22.9434 8.29498 22.8365 8.48587 22.638C8.66911 22.4165 8.76837 22.1417 8.7531 21.8515V19.7976L10.0358 17.8277C10.2115 17.5528 10.4176 17.4154 10.6467 17.4154C10.7841 17.4077 10.9139 17.4612 11.0055 17.5681C11.0972 17.6826 11.1506 17.8353 11.1353 17.9804V22.8059H11.6851V17.9651C11.7004 17.6826 11.6011 17.4001 11.4102 17.1863C11.2117 16.9725 10.9445 16.8656 10.6619 16.8809ZM8.2339 21.8057C8.24153 21.9737 8.20336 22.134 8.11173 22.2791C8.03538 22.3936 7.90558 22.4547 7.76814 22.4471C7.66125 22.4547 7.55435 22.4165 7.478 22.3402C7.40164 22.2562 7.3711 22.1493 7.3711 22.0424C7.3711 21.9355 7.39401 21.821 7.43219 21.7217C7.49327 21.5766 7.56962 21.4392 7.65361 21.3094L8.22626 20.4161V21.8057H8.2339Z" fill="white"/>
<path d="M18.0988 18.324C17.2971 16.9114 15.5028 16.4151 14.0826 17.2168C13.2961 17.6597 12.7617 18.4461 12.6242 19.3395C12.4333 20.5764 12.9296 21.8744 14.0291 22.5158C15.1363 23.1495 16.5106 23.0197 17.4803 22.1951C18.5569 21.2483 18.786 19.5533 18.0988 18.324ZM16.335 18.7057C16.335 18.7134 16.335 18.6828 16.3427 18.6828C16.3274 18.6676 16.3961 18.6141 16.4037 18.6065C16.4954 18.5454 16.4954 18.5988 16.5564 18.6218C16.5564 18.6218 16.5641 18.637 16.5564 18.637C16.5259 18.6905 16.3427 18.889 16.3274 18.7134L16.335 18.7057ZM16.2129 19.5762C16.2205 19.5609 16.2205 19.454 16.2281 19.454C16.2358 19.4464 16.2358 19.4311 16.2358 19.4158C16.2358 19.4006 16.2358 19.3929 16.2434 19.3777C16.2434 19.3777 16.2434 19.3777 16.2434 19.37C16.2434 19.3624 16.2434 19.3471 16.251 19.3395V19.3318C16.251 19.3242 16.251 19.3242 16.251 19.3166C16.251 19.3166 16.251 19.3166 16.251 19.3089C16.251 19.3013 16.251 19.286 16.251 19.2784C16.251 19.2708 16.251 19.2555 16.251 19.2479V19.2402C16.251 19.2402 16.251 19.2402 16.251 19.2326V19.2173C16.251 19.202 16.251 19.1868 16.2587 19.1639V19.1562C16.2663 19.141 16.2663 19.118 16.2739 19.1028C16.2892 19.0646 16.3121 19.0341 16.3427 19.0112L16.3579 19.0035C16.3656 19.0035 16.3808 18.9959 16.3885 18.9959C16.3961 18.9959 16.4037 18.9959 16.419 18.9959C16.4419 19.0035 16.4496 19.0035 16.4572 19.0264V19.0493C16.4572 19.0493 16.4572 19.0493 16.4648 19.0493V19.0646C16.4648 19.0646 16.4648 19.0646 16.4648 19.0722C16.4648 19.0799 16.4648 19.0799 16.4648 19.0875V19.0951C16.4648 19.0951 16.4648 19.0951 16.4648 19.1028V19.1181C16.4725 19.1181 16.4572 19.1333 16.4572 19.1333C16.4572 19.1333 16.4572 19.1333 16.4648 19.1333V19.141L16.4572 19.1486C16.4572 19.1486 16.4648 19.1562 16.4572 19.1562V19.1639C16.4572 19.1715 16.4495 19.1715 16.4495 19.1715H16.4572C16.4572 19.1715 16.4572 19.1715 16.4572 19.1791C16.4572 19.1791 16.4648 19.1944 16.4572 19.1868C16.4572 19.1791 16.4572 19.202 16.4572 19.1944C16.4572 19.202 16.4572 19.1944 16.4495 19.202V19.2249C16.4495 19.2249 16.4495 19.2555 16.4495 19.2479C16.4495 19.2479 16.4495 19.2479 16.4495 19.2555C16.4419 19.2631 16.4419 19.2784 16.4495 19.2784C16.4495 19.286 16.4419 19.3242 16.4495 19.3242C16.4419 19.3242 16.4495 19.37 16.4495 19.37C16.4495 19.3777 16.4495 19.3853 16.4495 19.3929C16.4419 19.3929 16.4419 19.3929 16.4495 19.4006C16.4495 19.4235 16.4495 19.4464 16.4495 19.4693C16.4419 19.4693 16.4419 19.4616 16.4343 19.4616C16.4343 19.4693 16.4495 19.4845 16.4495 19.4922C16.4419 19.4998 16.4343 19.4693 16.4343 19.4998C16.4343 19.5227 16.4266 19.5456 16.4343 19.5685V19.5762C16.4343 19.5762 16.4343 19.5762 16.4343 19.5838C16.4343 19.5991 16.4496 19.6602 16.4343 19.6678C16.4266 19.7441 16.3045 19.7976 16.2434 19.79C16.2434 19.7823 16.2129 19.7518 16.2129 19.7289C16.1976 19.6983 16.2052 19.6373 16.2129 19.5762ZM15.0752 19.5991C15.0828 19.5914 15.1439 19.5762 15.1515 19.5762C15.1515 19.5762 15.1515 19.5685 15.1439 19.5762C15.1439 19.5685 15.1439 19.5685 15.1515 19.5685C15.1592 19.5685 15.1668 19.5685 15.1668 19.5609C15.1744 19.5609 15.1744 19.5609 15.1821 19.5533H15.1897C15.1897 19.5533 15.1897 19.5533 15.1974 19.5533C15.1974 19.5609 15.1974 19.5609 15.205 19.5533C15.205 19.5533 15.2126 19.5456 15.2203 19.5456C15.2584 19.5227 15.3042 19.5609 15.3119 19.5991L15.3195 19.6067V19.6143C15.3195 19.6143 15.3119 19.6449 15.3195 19.6449C15.3195 19.6602 15.3042 19.6754 15.2966 19.6831C15.289 19.6831 15.2813 19.6983 15.2737 19.706C15.2584 19.7136 15.2355 19.7441 15.2203 19.7518C15.2126 19.7594 15.2126 19.7594 15.205 19.7594C15.205 19.7594 15.1974 19.7594 15.1974 19.7671H15.1897L15.1821 19.7747H15.1744C15.1744 19.7823 15.1363 19.8281 15.1286 19.8358C15.121 19.8358 15.1134 19.8587 15.121 19.8663C15.1134 19.8816 15.1057 19.874 15.1134 19.8816C15.1057 19.9045 15.0981 19.935 15.0905 19.9503C15.0905 19.9503 15.0981 19.9579 15.0905 19.9579C15.0905 19.9579 15.0828 19.9732 15.0905 19.9732C15.0905 19.9808 15.0905 19.9808 15.0905 19.9885C15.0905 20.0114 15.0905 20.0343 15.0828 20.0648V20.0725C15.0675 20.0877 15.0828 20.1183 15.0752 20.1412C15.0752 20.1641 15.0752 20.187 15.0752 20.2099C15.0752 20.2099 15.0828 20.2404 15.0752 20.2404C15.0675 20.271 15.0675 20.3015 15.0675 20.3321C15.0599 20.3321 15.0065 20.4161 14.9912 20.4237H14.9836L14.953 20.439C14.953 20.439 14.953 20.439 14.9454 20.439C14.9454 20.4466 14.9225 20.4466 14.9148 20.4466C14.9072 20.4466 14.8996 20.4466 14.8919 20.4466C14.8843 20.4466 14.8843 20.439 14.8767 20.439C14.8767 20.439 14.8767 20.439 14.869 20.439C14.8385 20.3626 14.869 20.2939 14.8538 20.2252C14.8614 20.1794 14.8614 20.1336 14.8538 20.0954C14.8461 20.0954 14.8538 20.0877 14.8538 20.0877V20.0801C14.8538 20.0801 14.8461 20.0648 14.8538 20.0648C14.8614 20.0496 14.8614 20.0343 14.8614 20.0114C14.8461 20.0038 14.8843 19.8281 14.869 19.8205C14.869 19.7976 14.869 19.7289 14.8843 19.706C14.8538 19.6525 14.9912 19.5914 15.0141 19.5838C15.0217 19.5838 15.0294 19.5838 15.037 19.5762C15.0599 19.5991 15.0675 19.5991 15.0752 19.5991ZM14.22 20.2023C14.2048 20.2023 14.2124 20.2328 14.2124 20.2328C14.22 20.2328 14.22 20.2404 14.2124 20.2404C14.2048 20.2634 14.1971 20.2863 14.1971 20.3092C14.1971 20.3321 14.1818 20.355 14.2048 20.3626V20.3702C14.2048 20.3855 14.2048 20.4084 14.1971 20.4237C14.1895 20.4313 14.1971 20.4466 14.1818 20.4619C14.1818 20.4619 14.1742 20.4695 14.1818 20.4695C14.1818 20.4771 14.1742 20.4771 14.1742 20.4848C14.1742 20.4848 14.1589 20.6146 14.1742 20.6146H14.1666C14.1666 20.6222 14.1666 20.6222 14.1666 20.6299V20.6375C14.1666 20.6451 14.1666 20.6451 14.1666 20.6451C14.1589 20.668 14.1513 20.6909 14.1513 20.7138C14.1437 20.7215 14.1437 20.752 14.1437 20.7597C14.136 20.7902 14.1513 20.8207 14.136 20.8513C14.1284 20.8589 14.1284 20.8742 14.1284 20.8818C14.1284 20.8971 14.1284 20.92 14.1208 20.9353C14.1131 20.9505 14.1208 20.9734 14.1131 20.9887C14.1131 20.9963 14.1131 20.9963 14.1131 21.004C14.1131 21.0116 14.1131 21.0116 14.1131 21.0193C14.1055 21.0574 14.0979 21.0956 14.0979 21.1261C14.0826 21.1872 14.0673 21.2407 14.075 21.3018C14.0597 21.3323 14.052 21.3552 14.052 21.3858L14.0368 21.401C14.052 21.3934 13.9986 21.4316 13.9986 21.4316C13.9986 21.4468 13.9146 21.4316 13.907 21.4316C13.907 21.4316 13.907 21.4316 13.8993 21.4239C13.8917 21.4163 13.8841 21.4087 13.8688 21.401C13.8688 21.3628 13.8383 21.3247 13.8383 21.2941C13.8383 21.2789 13.8383 21.2712 13.8306 21.256C13.8306 21.2483 13.8306 21.2407 13.823 21.233C13.823 21.2254 13.823 21.2178 13.823 21.2101C13.8077 21.1872 13.8153 21.1414 13.8077 21.1185C13.8077 21.1185 13.8077 21.1185 13.8077 21.1109C13.8077 21.0422 13.7924 20.9734 13.7695 20.9047H13.7619C13.7695 20.8742 13.7695 20.8513 13.7619 20.8207C13.7619 20.8131 13.7619 20.7978 13.7543 20.7902V20.7826C13.7466 20.7826 13.7466 20.7444 13.7466 20.7367C13.739 20.7062 13.7314 20.668 13.7314 20.6375C13.7314 20.6299 13.7314 20.6222 13.7314 20.6222C13.6855 20.5764 13.7314 20.2634 13.6703 20.2404C13.6626 20.2175 13.6703 20.2023 13.6626 20.1794C13.655 20.1794 13.6626 20.1717 13.655 20.1717C13.655 20.1717 13.655 20.1717 13.655 20.1641C13.6626 20.1641 13.6321 19.9579 13.6245 19.9427C13.6245 19.9427 13.6245 19.9503 13.6168 19.9427C13.6321 19.9121 13.5863 19.8892 13.6016 19.8587C13.6016 19.8587 13.6016 19.7747 13.5557 19.79C13.5557 19.7976 13.5557 19.8052 13.5481 19.8129L13.5405 19.8205C13.5481 19.8281 13.5252 19.8358 13.5252 19.8281V19.8434C13.5328 19.8434 13.5176 19.8587 13.5176 19.8587C13.5176 19.874 13.5099 19.8892 13.5023 19.9045L13.4947 19.9121C13.4718 19.9274 13.487 19.9808 13.4718 19.9885C13.4641 19.9961 13.4718 20.0038 13.4718 20.0114L13.4641 20.019V20.0267C13.4718 20.0419 13.4183 20.1412 13.4107 20.1565C13.4412 20.2252 13.2885 20.2404 13.258 20.2175C13.174 20.1565 13.2809 20.103 13.258 20.0343C13.2656 20.019 13.2732 19.9961 13.2809 19.9808C13.2885 19.935 13.3038 19.8969 13.3267 19.8587C13.3191 19.8587 13.3954 19.7136 13.3801 19.6983C13.4107 19.5914 13.4565 19.2479 13.5863 19.202C13.7008 19.1562 13.7314 19.2708 13.7543 19.3471C13.8001 19.3624 13.7695 19.6067 13.8001 19.6373H13.8077C13.8077 19.6678 13.8077 19.6983 13.8153 19.7289C13.823 19.7671 13.823 19.8129 13.8383 19.851C13.8459 19.851 13.8535 19.9198 13.8612 19.9274C13.8459 19.9427 13.907 20.0267 13.8841 20.0496C13.8993 20.0801 13.907 20.1183 13.907 20.1488C13.9146 20.1488 13.9146 20.2557 13.9146 20.2634C13.9222 20.2634 13.9222 20.2557 13.9222 20.2634C13.9222 20.2634 13.9222 20.2863 13.9146 20.2863C13.9146 20.3397 13.9222 20.3932 13.9299 20.439C13.9528 20.4466 13.9452 20.4771 13.9452 20.5001C13.9528 20.5001 13.9528 20.5001 13.9528 20.5001C13.9452 20.5153 13.9604 20.5001 13.9604 20.5001V20.4924C13.9681 20.355 13.9986 20.2252 14.0139 20.0954C14.0062 19.9885 14.0291 19.8892 14.075 19.79C14.0215 19.7136 14.136 19.4693 14.1666 19.3929C14.1895 19.3166 14.2124 19.2402 14.2277 19.1639C14.2429 19.1028 14.2506 18.9272 14.304 18.8814C14.2811 18.8432 14.3498 18.7286 14.3651 18.6981C14.4109 18.5683 14.4567 18.4461 14.5025 18.3163C14.5254 18.2629 14.6171 17.8811 14.6858 17.8582C14.6858 17.8277 14.724 17.82 14.7316 17.7895C14.7316 17.7895 14.7316 17.7819 14.7392 17.7819C14.7163 17.7284 14.9454 17.7055 14.9836 17.759C15.037 17.8048 15.0065 17.8659 15.037 17.9117C15.0217 17.9269 15.0217 17.9651 15.0065 17.988C15.0065 17.988 15.0065 17.988 14.9988 17.9957C14.9912 18.0033 14.9912 18.0033 14.9912 18.0109C14.9912 18.0109 14.9912 18.0109 14.9836 18.0109C14.9683 18.0109 14.9836 18.0415 14.9683 18.0415C14.9607 18.0491 14.9607 18.0491 14.953 18.0567C14.953 18.0567 14.9454 18.0567 14.9454 18.0644C14.9454 18.0644 14.9454 18.0644 14.9454 18.072C14.9454 18.072 14.9225 18.0873 14.9225 18.0949C14.9148 18.1025 14.9072 18.1025 14.8996 18.1025C14.8919 18.1102 14.8843 18.1255 14.8767 18.1331C14.8767 18.1331 14.8767 18.1331 14.8767 18.1407C14.8614 18.1407 14.8156 18.2323 14.8003 18.24L14.7927 18.2476C14.785 18.2476 14.785 18.2553 14.785 18.2553C14.7774 18.2553 14.7774 18.2629 14.7774 18.2705C14.7621 18.2705 14.7469 18.324 14.7392 18.3316C14.7392 18.3545 14.7087 18.3698 14.7087 18.3927C14.7011 18.4003 14.6858 18.4614 14.6781 18.4614C14.6705 18.469 14.6705 18.4843 14.6629 18.4919C14.6629 18.4919 14.6629 18.4996 14.6552 18.4996C14.64 18.5225 14.6323 18.5454 14.6247 18.5683C14.6323 18.5759 14.6094 18.6294 14.6018 18.6294C14.6018 18.637 14.5865 18.6599 14.5865 18.6676C14.5865 18.6676 14.5331 18.8432 14.556 18.7668C14.5407 18.8203 14.4873 18.8966 14.4949 18.9501C14.4873 18.9806 14.4796 19.0112 14.4796 19.0417C14.4262 19.1868 14.388 19.3242 14.3422 19.4616V19.4693C14.3269 19.4922 14.3193 19.5227 14.3116 19.5456C14.3116 19.5762 14.2887 19.5991 14.2887 19.6296C14.2811 19.6296 14.2811 19.6373 14.2887 19.6373C14.2811 19.6373 14.2811 19.6754 14.2735 19.6831C14.2506 19.7365 14.2429 19.7976 14.2353 19.8587C14.2506 19.8587 14.2277 19.8816 14.2277 19.8816C14.2277 19.8816 14.2124 19.9808 14.2124 19.9885C14.2429 20.103 14.2353 20.1488 14.22 20.2023ZM14.6552 20.2863C14.64 20.3244 14.64 20.3702 14.64 20.4161C14.64 20.4313 14.64 20.4466 14.6323 20.4619C14.64 20.4695 14.6323 20.4771 14.64 20.4848C14.64 20.5001 14.64 20.5077 14.6323 20.5153C14.6247 20.5535 14.6323 20.6069 14.6247 20.6222C14.6247 20.6222 14.6171 20.6222 14.6171 20.6146C14.556 20.668 14.5102 20.7138 14.4338 20.6833L14.4185 20.6375C14.4338 20.5611 14.4338 20.4848 14.4262 20.4084C14.4338 20.3702 14.4338 20.3397 14.4414 20.3015C14.4414 20.2939 14.4414 20.2863 14.4414 20.2786C14.4414 20.2634 14.4414 20.2557 14.4414 20.2404C14.4491 20.2023 14.4567 20.1641 14.4491 20.1259C14.4262 20.1183 14.472 19.9961 14.4567 19.9732C14.472 19.9732 14.4873 19.8663 14.5178 19.851C14.5178 19.8434 14.5331 19.8358 14.5407 19.8358C14.64 19.6983 14.6705 19.8816 14.7087 19.874C14.7087 19.8816 14.6858 19.8663 14.6934 19.8969C14.7087 20.0267 14.6934 20.1641 14.6552 20.2863ZM14.6934 19.4998C14.6858 19.4998 14.6858 19.5075 14.6781 19.5075C14.6781 19.5151 14.6705 19.5075 14.6705 19.5151H14.6629C14.6629 19.5151 14.6552 19.5151 14.6629 19.5227C14.6629 19.5227 14.6629 19.5227 14.6552 19.5227C14.6476 19.5227 14.6476 19.5227 14.6476 19.5304C14.64 19.538 14.6323 19.5304 14.6323 19.5304C14.6247 19.5304 14.6247 19.5304 14.6171 19.5304H14.6094C14.6018 19.5227 14.5942 19.5304 14.5865 19.5151C14.5789 19.5151 14.5789 19.5151 14.5789 19.5075C14.5789 19.4922 14.5713 19.4845 14.5713 19.4693C14.5713 19.3624 14.6934 19.3242 14.7698 19.3013C14.7774 19.3013 14.785 19.3318 14.785 19.3318C14.785 19.3395 14.7927 19.3395 14.7927 19.3471C14.7927 19.3547 14.7927 19.37 14.7927 19.3777V19.3853C14.785 19.4006 14.7774 19.4082 14.7698 19.4235L14.7316 19.4616C14.724 19.4616 14.7087 19.4769 14.7087 19.4769C14.7011 19.4845 14.6934 19.4922 14.6934 19.4998ZM17.8086 19.3395C17.801 19.3471 17.7934 19.3547 17.7934 19.37C17.7934 19.37 17.7934 19.3777 17.7857 19.3777C17.7857 19.3777 17.7857 19.4006 17.7781 19.3929C17.7781 19.4006 17.7476 19.4311 17.7399 19.4387C17.7094 19.4693 17.4345 19.6143 17.4116 19.5838C17.404 19.5838 17.3276 19.622 17.3276 19.622C17.2665 19.6602 17.1978 19.6907 17.1291 19.7212C17.1215 19.7289 17.1062 19.7365 17.0909 19.7441C17.0909 19.7518 17.068 19.7518 17.0604 19.7594C17.0604 19.7594 17.0527 19.7594 17.0527 19.7671C17.0451 19.7671 17.0451 19.7671 17.0375 19.7747C16.9993 19.7976 16.9611 19.8205 16.9229 19.8358C16.9077 19.8434 16.8924 19.851 16.8848 19.8587C16.8771 19.8587 16.8695 19.8587 16.8695 19.8663C16.8466 19.874 16.8237 19.8892 16.8008 19.9045C16.8008 19.9045 16.7931 19.9045 16.7931 19.9121C16.7855 19.9198 16.7779 19.9198 16.7702 19.9274C16.7702 19.9427 16.4266 20.1259 16.3961 20.1488C16.3656 20.1565 16.335 20.1794 16.3121 20.2023L16.3045 20.2099C16.3045 20.2175 16.2816 20.2252 16.2816 20.2252C16.2816 20.2404 16.2358 20.2404 16.2358 20.2557L16.1518 20.3092C16.1518 20.3092 16.1441 20.3092 16.1441 20.3168C16.1289 20.3244 16.1136 20.3321 16.106 20.3397C16.0983 20.3397 16.0983 20.3473 16.0907 20.3473H16.0831C16.0831 20.3473 16.0831 20.3473 16.0831 20.355C16.0831 20.355 16.0754 20.355 16.0754 20.3626C16.0601 20.3702 16.0372 20.3855 16.0296 20.4008C16.0296 20.4008 16.0296 20.4008 16.022 20.4008V20.4084C16.022 20.4084 16.022 20.4161 16.0143 20.4161C16.0067 20.4161 16.0067 20.4161 16.0067 20.4237C16.0067 20.4313 16.0067 20.4466 16.0067 20.4542C16.0067 20.4542 16.0143 20.5077 16.0067 20.5153C16.0067 20.5153 15.9991 20.5993 15.9991 20.6069V20.6146H16.0067C15.9914 20.6222 16.0067 20.6757 15.9991 20.6986C15.9991 20.6986 15.9991 20.6986 15.9991 20.7062V20.7215C15.9991 20.7215 15.9991 20.7215 15.9991 20.7291C15.9914 20.7444 16.0067 20.7749 15.9991 20.7826V20.7902C15.9991 20.7902 16.0067 20.7902 15.9991 20.7978V20.8055H15.9914V20.8131C15.9914 20.8055 15.9991 20.8207 15.9991 20.8207V20.836C15.9991 20.8436 15.9991 20.8589 15.9991 20.8665C15.9991 20.8742 15.9991 20.8665 15.9991 20.8742C15.9991 20.8818 15.9991 20.8895 15.9991 20.8895C15.9991 20.8971 15.9991 20.9047 15.9991 20.9124C16.0067 20.92 15.9991 20.9276 15.9991 20.9353V20.9429C15.9991 20.9505 15.9991 20.9429 15.9991 20.9505C15.9991 20.9505 16.0143 20.9811 15.9991 20.9887V21.0193C15.9991 21.0193 15.9991 21.0269 16.0067 21.0269C16.0067 21.0269 16.0067 21.0345 15.9991 21.0345C16.022 21.0498 15.9914 21.0498 15.9914 21.0574V21.0651C15.9914 21.0727 15.9914 21.0803 15.9914 21.088C15.9914 21.0956 15.9914 21.0956 15.9914 21.0956C15.9838 21.0956 16.022 21.1032 15.9991 21.1109C15.9838 21.1185 15.9914 21.1414 15.9838 21.1567C15.9838 21.1567 15.9914 21.1796 15.9914 21.1949C15.9991 21.2025 15.9991 21.2101 15.9991 21.2178C16.0067 21.2254 16.0067 21.2178 16.0067 21.2178V21.2254C16.0067 21.2178 15.9838 21.3018 15.9991 21.2789C15.9991 21.2789 15.9685 21.2941 15.9838 21.3094L15.9991 21.3018C15.9914 21.317 15.9991 21.3094 16.0067 21.317C15.9991 21.3247 15.9762 21.3476 15.9991 21.3628V21.3705H16.0067C16.0067 21.3705 16.0067 21.3705 16.0067 21.3781C16.0143 21.3705 16.022 21.3781 16.0143 21.3781C16.0143 21.3858 15.9991 21.4163 16.0143 21.4087C16.0143 21.4239 16.0143 21.4316 16.0143 21.4468C16.022 21.4468 16.022 21.4468 16.022 21.4545V21.4697C16.022 21.4545 16.0143 21.485 16.0143 21.485C16.0143 21.485 16.0143 21.485 16.0143 21.4926C16.022 21.485 16.0143 21.5079 16.0143 21.5079C16.0143 21.5079 16.022 21.5079 16.022 21.5156C16.022 21.5156 16.022 21.5156 16.0296 21.5156C16.0296 21.5156 16.0449 21.5079 16.0372 21.5156C16.0372 21.5156 16.0372 21.5156 16.0449 21.5156C16.0449 21.5232 16.0449 21.5308 16.0449 21.5308C16.0525 21.5385 16.0525 21.5461 16.0525 21.5537C16.0525 21.5537 16.0525 21.5537 16.0525 21.5614C16.0525 21.5614 16.0525 21.5614 16.0601 21.5614C16.0601 21.569 16.0601 21.569 16.0601 21.5614V21.569C16.0525 21.5766 16.0449 21.5843 16.0525 21.5919C16.0525 21.5919 16.022 21.5995 16.0372 21.5995C16.0372 21.5919 16.0449 21.5919 16.0449 21.5995C16.0372 21.6072 16.0296 21.5995 16.0296 21.6072C16.0296 21.6072 16.0296 21.6072 16.0296 21.6148C16.022 21.6224 16.0296 21.6606 16.0449 21.6301C16.0525 21.6301 16.0449 21.6454 16.0449 21.6454C16.0449 21.6377 16.0449 21.6377 16.0525 21.6454L16.0601 21.653C16.0601 21.653 16.0449 21.653 16.0449 21.6606C16.0449 21.6606 16.0678 21.6683 16.0601 21.6683C16.0601 21.6683 16.0831 21.6759 16.0678 21.6835C16.0678 21.6683 16.0601 21.6835 16.0678 21.6835C16.0678 21.6835 16.0601 21.6912 16.0601 21.6835C16.0678 21.6912 16.0678 21.6912 16.0601 21.6912C16.0678 21.7064 16.0449 21.6912 16.0449 21.6912C16.0525 21.6988 16.0449 21.6912 16.0525 21.6988L16.0601 21.7064C16.0601 21.7064 16.0449 21.7217 16.0525 21.7217C16.0525 21.7217 16.0601 21.7217 16.0601 21.7293H16.0678V21.7446C16.0754 21.7446 16.0754 21.7522 16.0831 21.7446V21.7523C16.0754 21.7523 16.0754 21.7675 16.0678 21.7675C16.0678 21.7675 16.0754 21.7675 16.0754 21.7752L16.0678 21.7828C16.0678 21.7981 16.0678 21.7981 16.0831 21.7981L16.0678 21.8057C15.9762 21.8973 15.8769 21.9279 15.8158 21.7828C15.8158 21.8439 15.8005 21.7064 15.8005 21.7064V21.6683C15.8082 21.6224 15.8082 21.5766 15.8082 21.5308C15.8082 21.485 15.8158 21.088 15.8235 21.088C15.8235 21.0803 15.8235 21.0727 15.8235 21.0651C15.8235 21.0574 15.8235 21.0498 15.8235 21.0498C15.8158 20.9887 15.8158 20.9276 15.8235 20.8665C15.8387 20.8589 15.8158 20.6909 15.8235 20.668C15.8311 20.668 15.8158 20.5611 15.8235 20.5535C15.7853 20.5764 15.7013 20.6757 15.6555 20.668C15.6631 20.6757 15.5868 20.7062 15.5868 20.7215C15.5638 20.7291 15.5409 20.7749 15.518 20.7749C15.5104 20.7749 15.5104 20.7749 15.5104 20.7826C15.4111 20.9124 15.2279 20.9887 15.1134 21.1109C15.0905 21.1262 14.9607 21.2254 14.9607 21.256C14.8919 21.2789 14.8079 21.4087 14.7621 21.4545C14.7545 21.4621 14.7011 21.5079 14.7087 21.5156C14.7011 21.5308 14.6858 21.5385 14.6781 21.5461C14.6552 21.5766 14.4796 21.7217 14.4873 21.7446C14.3575 21.8362 14.3422 21.6835 14.2964 21.6224C14.2964 21.6224 14.304 21.6148 14.2964 21.6148C14.304 21.5156 14.4338 21.4316 14.5025 21.3781C14.5865 21.3094 14.6705 21.1796 14.7698 21.1491C14.7698 21.1491 14.8003 21.1261 14.7927 21.1261C14.8003 21.1032 14.9148 21.0269 14.9148 21.0269C14.9225 21.0193 14.9836 20.9811 14.9759 20.9658C14.9836 20.9658 15.0141 20.9429 15.0141 20.9353C15.0141 20.9353 15.0141 20.9353 15.0217 20.9353C15.0217 20.9276 15.037 20.9276 15.037 20.92C15.1286 20.9047 15.205 20.752 15.2966 20.7138C15.3119 20.7062 15.3272 20.6833 15.3424 20.6833C15.3501 20.6833 15.3577 20.668 15.3653 20.668C15.3653 20.6528 15.4035 20.6528 15.4035 20.6375C15.3959 20.6375 15.434 20.6146 15.4417 20.6146C15.4493 20.6146 15.5257 20.5611 15.5257 20.5535C15.5333 20.5535 15.5562 20.5306 15.5562 20.5306C15.5791 20.523 15.5944 20.5077 15.6097 20.4924C15.6631 20.4695 15.7089 20.3932 15.77 20.3779C15.77 20.3626 15.8311 20.3321 15.8464 20.3244C15.8464 20.3168 15.8464 20.3168 15.8464 20.3092V20.2863C15.8464 20.2863 15.8387 20.2786 15.8464 20.2786C15.8464 20.2557 15.8464 20.2252 15.8387 20.2023C15.8311 20.2023 15.8311 20.2023 15.8235 20.2099C15.8005 20.2252 15.7853 20.2328 15.7624 20.2481C15.7624 20.2557 15.7242 20.2557 15.7242 20.2634C15.7242 20.271 15.686 20.271 15.7089 20.271H15.686C15.6784 20.2634 15.6784 20.2634 15.6784 20.271C15.6707 20.2786 15.6173 20.2786 15.6173 20.2786C15.6097 20.2786 15.6097 20.2786 15.602 20.2786C15.5791 20.2786 15.5562 20.271 15.5409 20.271C15.5257 20.2634 15.5104 20.2557 15.5028 20.2481C15.4875 20.2252 15.4799 20.2099 15.4646 20.1946L15.4493 20.103C15.4417 20.0725 15.4646 19.935 15.4417 19.9198C15.434 19.8969 15.4722 19.79 15.457 19.7823C15.4493 19.7747 15.4646 19.7365 15.4646 19.7289C15.4646 19.7289 15.4875 19.6296 15.4875 19.6143C15.5028 19.5838 15.518 19.5533 15.5333 19.5227L15.5562 19.4769C15.5791 19.4387 15.6097 19.4082 15.6478 19.3853C15.6478 19.3777 15.6555 19.3777 15.6555 19.3777C15.6631 19.3777 15.6707 19.37 15.6784 19.3624H15.686C15.7242 19.3318 15.7853 19.3318 15.8235 19.3624C15.8235 19.37 15.8311 19.3777 15.8235 19.3853C15.8235 19.3929 15.8234 19.3929 15.8158 19.4006C15.8311 19.4006 15.8005 19.4387 15.8082 19.4387C15.8082 19.4311 15.7929 19.454 15.8005 19.454V19.4616C15.8005 19.4616 15.8005 19.4616 15.7929 19.4616C15.7929 19.4693 15.7853 19.4769 15.7853 19.4769C15.7853 19.4769 15.7776 19.4769 15.7776 19.4845C15.7776 19.4922 15.77 19.4922 15.7624 19.4922C15.7547 19.4845 15.7471 19.5227 15.7471 19.5151C15.7471 19.5227 15.7395 19.5227 15.7395 19.5227C15.7318 19.5227 15.7318 19.5304 15.7318 19.538V19.5456C15.7318 19.5456 15.7318 19.5533 15.7242 19.5533C15.7242 19.5456 15.7166 19.5685 15.7166 19.5685V19.5762L15.7089 19.5838C15.686 19.5914 15.6707 19.7441 15.6555 19.7441C15.6555 19.7441 15.6555 19.7747 15.6631 19.7747C15.6707 19.7823 15.6707 19.7976 15.6631 19.8052C15.6555 19.8663 15.6249 19.9732 15.6631 20.0267C15.6936 20.0725 15.7624 20.0954 15.8005 20.0343C15.8235 20.019 15.9074 19.8205 15.8693 19.7976C15.8845 19.7594 15.8616 19.6983 15.8845 19.6678C15.8845 19.6602 15.8845 19.6525 15.8845 19.6525C15.8845 19.5227 15.8998 19.3929 15.9303 19.2708C15.938 19.2555 15.9533 19.2479 15.9609 19.2402H15.9685C15.9762 19.1791 16.0983 19.2631 16.1136 19.2784C16.1136 19.2784 16.0983 19.3242 16.106 19.3242C16.106 19.3395 16.106 19.3471 16.106 19.3624C16.0983 19.3624 16.106 19.4693 16.106 19.4769C16.0907 19.4769 16.1136 19.4769 16.106 19.4845C16.0983 19.4922 16.106 19.5075 16.106 19.4998C16.1136 19.4998 16.0983 19.5075 16.0983 19.5075C16.0907 19.5762 16.0831 19.6373 16.0831 19.706C16.0831 19.7212 16.0831 19.7365 16.0831 19.7594C16.0754 19.7823 16.0754 19.8129 16.0754 19.8358C16.0754 19.851 16.0601 19.8816 16.0754 19.8892C16.0754 19.8816 16.0754 19.9885 16.0754 19.9808C16.0678 19.9885 16.0754 20.0038 16.0754 20.0114C16.0754 20.0114 16.0754 20.0114 16.0678 20.0114V20.0267C16.0678 20.0267 16.0601 20.0343 16.0678 20.0343C16.0678 20.0648 16.0831 20.1565 16.0601 20.1717V20.1794C16.0678 20.1794 16.0754 20.1717 16.0831 20.1717C16.167 20.1106 16.251 20.0496 16.3503 20.0038C16.3503 19.9961 16.4114 19.9656 16.4114 19.9656C16.4419 19.9198 16.5412 19.8969 16.587 19.8663C16.587 19.8663 16.587 19.8663 16.5946 19.8663C16.5946 19.8663 16.5946 19.8663 16.6023 19.8587C16.7168 19.8281 16.7931 19.7212 16.9 19.6831C16.9 19.6754 16.9535 19.6602 16.9535 19.6525C17.0069 19.5838 17.152 19.5914 17.1673 19.4922C17.1673 19.4693 17.1291 19.3853 17.1215 19.3547C17.1138 19.286 17.1444 19.2097 17.1367 19.141C17.1291 19.118 17.152 19.0722 17.1444 19.0417C17.0986 19.0188 17.1673 18.9501 17.1291 18.9272C17.068 18.8737 17.0451 18.9501 16.9917 18.9653C16.9917 18.9577 16.9153 19.0875 16.9229 19.0646C16.9229 19.0646 16.9229 19.0646 16.9229 19.0722H16.9153C16.9153 19.0799 16.9153 19.0875 16.9153 19.0951C16.9153 19.1028 16.9153 19.1028 16.9077 19.1104C16.9077 19.1104 16.9077 19.141 16.9 19.1333V19.1486C16.9 19.1562 16.9 19.1562 16.8924 19.1639C16.9 19.1639 16.9 19.1639 16.9077 19.1715C16.9 19.1791 16.9 19.1944 16.8924 19.202C16.9 19.2097 16.9 19.2249 16.8924 19.2326C16.9 19.2402 16.8848 19.2326 16.8848 19.2402C16.8848 19.2402 16.8924 19.2402 16.8924 19.2479H16.8848V19.2631C16.8848 19.2555 16.9 19.286 16.9 19.2784C16.9 19.286 16.9077 19.3166 16.8924 19.3089C16.8924 19.2784 16.8924 19.3166 16.8848 19.3166C16.8848 19.3242 16.8771 19.3242 16.8924 19.3318C16.8924 19.3318 16.8924 19.3318 16.8924 19.3395H16.8848C16.8771 19.37 16.8771 19.4082 16.8924 19.4082C16.8924 19.4158 16.8924 19.4387 16.8924 19.4464C16.8771 19.454 16.8848 19.4464 16.8924 19.454C16.8771 19.4769 16.8924 19.4922 16.8848 19.4998C16.8848 19.5151 16.8924 19.5227 16.8924 19.538C16.8848 19.538 16.8848 19.5609 16.8771 19.5609C16.8771 19.5685 16.8695 19.5762 16.8695 19.5838C16.8695 19.5914 16.8619 19.6143 16.8619 19.6067C16.8619 19.6067 16.8542 19.6143 16.8542 19.6067C16.8466 19.6678 16.6939 19.6831 16.671 19.622C16.671 19.5685 16.671 19.5227 16.671 19.4693C16.671 19.4616 16.671 19.454 16.671 19.454C16.671 19.4464 16.671 19.4387 16.671 19.4311C16.671 19.4158 16.6633 19.2937 16.6786 19.2784V19.2708C16.671 19.2631 16.6786 19.2402 16.6786 19.2326C16.6557 19.1257 16.6786 19.0112 16.7321 18.9195C16.7779 18.8737 16.816 18.8737 16.8771 18.8584C16.9306 18.8432 16.9993 18.8126 17.0527 18.805C17.1062 18.7134 17.2131 18.6752 17.32 18.6981L17.3429 18.721C17.3505 18.7134 17.3582 18.7439 17.3582 18.7516C17.3582 18.7516 17.3734 18.7745 17.3811 18.7897H17.3734C17.3734 18.7821 17.3963 18.8966 17.3734 18.8814L17.3811 18.9119C17.3887 18.9119 17.3811 18.9195 17.3887 18.9119C17.3887 18.9043 17.3734 18.9424 17.3811 18.9348C17.3811 18.9424 17.3811 18.9577 17.3887 18.9653C17.3887 18.9653 17.3887 18.9653 17.3887 18.973C17.3811 18.973 17.3811 18.973 17.3734 18.973C17.3734 18.9882 17.3734 19.0035 17.3811 19.0188C17.3734 19.0112 17.3734 19.1333 17.3734 19.141C17.3734 19.1486 17.3734 19.1562 17.3734 19.1562C17.3658 19.1715 17.3963 19.1944 17.3811 19.2097C17.3811 19.2249 17.3582 19.3013 17.3811 19.3166C17.3811 19.3166 17.3734 19.3242 17.3811 19.3242C17.3811 19.3242 17.404 19.3547 17.3811 19.3547C17.3811 19.3624 17.3887 19.3624 17.3887 19.3547C17.3887 19.3547 17.3887 19.3547 17.3963 19.3624C17.3963 19.3624 17.3963 19.3624 17.3963 19.37C17.3887 19.3777 17.4192 19.4006 17.4269 19.4006C17.4345 19.4006 17.4956 19.4006 17.4956 19.3853C17.6254 19.3547 17.5185 19.37 17.5414 19.3624C17.5567 19.3547 17.5719 19.3547 17.5796 19.3395C17.5796 19.3395 17.5872 19.3395 17.5872 19.3318C17.6101 19.3242 17.6254 19.3166 17.6483 19.3013C17.6636 19.2937 17.6788 19.286 17.7017 19.2784C17.7094 19.2479 17.8163 19.2784 17.8316 19.2784C17.8316 19.2784 17.8316 19.2784 17.8316 19.2708H17.8392C17.8392 19.2784 17.8468 19.2784 17.8468 19.2784C17.8621 19.2784 17.8697 19.3242 17.885 19.3242C17.885 19.3242 17.9003 19.37 17.8926 19.37C17.801 19.3318 17.801 19.3318 17.8086 19.3395Z" fill="white"/>
<path d="M35.0417 16.9649C34.7821 17.7971 34.4461 18.6141 34.0567 19.4006C33.6902 20.1488 33.2626 20.8665 32.7816 21.5537L31.8959 22.7907H31.2316L32.3922 21.2178L30.1245 16.9649H30.7506L32.7434 20.7062C33.0946 20.1488 33.4153 19.5685 33.6902 18.9653C33.9956 18.3163 34.2552 17.6444 34.4766 16.9572H35.0417V16.9649ZM23.7642 22.3096H23.4817L21.2446 17.5604C21.0384 17.1099 20.7254 16.8885 20.2978 16.8885C20.0534 16.8809 19.8091 16.9725 19.6335 17.1481C19.4655 17.3237 19.3739 17.5681 19.3815 17.8124V22.7983H19.9313V17.8277C19.9236 17.7208 19.9618 17.6139 20.0305 17.5299C20.0916 17.4535 20.1832 17.4154 20.2825 17.4154C20.4505 17.4154 20.6032 17.5528 20.733 17.8277L23.0694 22.7983H24.314V16.9725H23.7642V22.3096ZM29.2541 20.0954V19.5914H26.0243V17.4841H29.4907V16.9649H25.4746V22.7907H29.5137V22.2715H26.0167V20.0954H29.2541Z" fill="white"/>
</svg>
