<svg width="40" height="40" viewBox="0 0 40 40" fill="none" xmlns="http://www.w3.org/2000/svg">
<rect width="40" height="40" rx="4" fill="url(#paint0_linear_17041_41998)"/>
<rect x="0.5" y="0.5" width="39" height="39" rx="3.5" stroke="white" stroke-opacity="0.01"/>
<path d="M15.7555 8.80005C16.0873 8.80005 16.4133 8.88647 16.7003 9.05057C19.096 10.5566 22.6945 14.1582 23.7398 15.2043C23.9012 15.3659 24.0018 15.4665 24.0276 15.4891L23.2177 16.2389C23.2067 16.2226 22.6448 15.6466 21.8239 14.8425V17.0409H12.8797C12.5166 17.0409 12.2222 17.331 12.2222 17.6886V22.9273H9.70368V14.8425C8.8773 15.6466 8.29883 16.2389 8.29883 16.2389L7.5 15.4891C7.52599 15.4664 7.62772 15.3644 7.79105 15.2007C8.83967 14.15 12.4273 10.5549 14.8107 9.05057C15.0978 8.88647 15.4237 8.80005 15.7555 8.80005Z" fill="white"/>
<path d="M14.0602 18.2183H31.8425C32.2055 18.2183 32.5 18.5083 32.5 18.8659V30.5209C32.5 30.8785 32.2055 31.1685 31.8425 31.1685H14.0602C13.6972 31.1685 13.4027 30.8785 13.4027 30.5209V18.8659C13.4027 18.5083 13.6972 18.2183 14.0602 18.2183Z" fill="white"/>
<path d="M15.1032 29.4553V27.222H15.8028C16.3113 27.222 16.6385 27.4102 16.6385 27.7994C16.6385 28.0194 16.5347 28.1726 16.3892 28.2619C16.5999 28.3577 16.723 28.5428 16.723 28.7947C16.723 29.2447 16.3892 29.4553 15.871 29.4553H15.1032ZM15.5535 28.1505H15.8872C16.0913 28.1505 16.1786 28.0517 16.1786 27.8697C16.1786 27.6751 16.02 27.6112 15.8062 27.6112H15.5535V28.1505ZM15.5535 29.0661H15.8321C16.1041 29.0661 16.2627 28.9992 16.2627 28.7886C16.2627 28.578 16.1265 28.4952 15.8707 28.4952H15.5532L15.5535 29.0661ZM17.5958 29.4936C17.1521 29.4936 16.9286 29.28 16.9286 28.9927C16.9286 28.6769 17.191 28.4918 17.5796 28.4887C17.6762 28.4906 17.7725 28.4989 17.8678 28.5142V28.4378C17.8678 28.2432 17.7544 28.1508 17.5375 28.1508C17.3914 28.149 17.2462 28.1751 17.11 28.2272L17.029 27.8825C17.1683 27.8252 17.3917 27.7868 17.5892 27.7868C18.0654 27.7868 18.3019 28.0357 18.3019 28.4663V29.3534C18.1692 29.4203 17.9199 29.4936 17.5958 29.4936ZM17.8678 29.133V28.7917C17.7924 28.7751 17.7151 28.7665 17.6379 28.7662C17.4889 28.7662 17.3724 28.8236 17.3724 28.9737C17.3724 29.1078 17.4696 29.1778 17.6413 29.1778C17.7195 29.1802 17.7968 29.1649 17.8678 29.133ZM18.6166 29.4553V27.9271C18.8494 27.835 19.0978 27.7874 19.3486 27.7868C19.8217 27.7868 20.0937 28.0164 20.0937 28.4409V29.4553H19.6468V28.4728C19.6468 28.2527 19.5431 28.1505 19.3455 28.1505C19.2473 28.1493 19.1501 28.1686 19.0604 28.2079V29.4553H18.6166ZM21.6555 27.8825L21.5714 28.2303C21.4558 28.1809 21.3314 28.1539 21.2052 28.1505C20.9428 28.1505 20.8004 28.3322 20.8004 28.6324C20.8004 28.9611 20.9494 29.1299 21.228 29.1299C21.3523 29.1265 21.4745 29.0983 21.5876 29.047L21.6589 29.4012C21.5122 29.4654 21.3529 29.497 21.1924 29.4936C20.6549 29.4936 20.3439 29.1649 20.3439 28.645C20.3439 28.125 20.6515 27.7868 21.1666 27.7868C21.3345 27.7859 21.5009 27.8184 21.6555 27.8825ZM22.6212 29.4936C22.1223 29.4936 21.8113 29.1523 21.8113 28.6385C21.8113 28.1247 22.1223 27.7868 22.6212 27.7868C23.1201 27.7868 23.4277 28.1281 23.4277 28.6385C23.4277 29.152 23.1232 29.4936 22.6212 29.4936ZM22.6212 29.1299C22.8512 29.1299 22.9711 28.9418 22.9711 28.6385C22.9711 28.3353 22.8512 28.1505 22.6212 28.1505C22.3912 28.1505 22.2681 28.3386 22.2681 28.6385C22.2681 28.9415 22.3943 29.1299 22.6212 29.1299ZM23.6863 29.4553V27.9271C23.9191 27.835 24.1674 27.7874 24.4183 27.7868C24.8913 27.7868 25.1633 28.0164 25.1633 28.4409V29.4553H24.7165V28.4728C24.7165 28.2527 24.6127 28.1505 24.4152 28.1505C24.317 28.1493 24.2198 28.1686 24.13 28.2079V29.4553H23.6863ZM26.1714 29.4936C25.786 29.4936 25.5884 29.2861 25.5884 28.865V28.176H25.3681V27.8252H25.5884V27.471L26.0352 27.4485V27.8248H26.3948V28.1757H26.0352V28.8583C26.0352 29.0434 26.1128 29.1293 26.2587 29.1293C26.3163 29.1293 26.374 29.1228 26.4304 29.1103L26.4531 29.4645C26.3606 29.4847 26.2662 29.4945 26.1714 29.4936ZM27.2995 29.4936C26.8557 29.4936 26.6323 29.28 26.6323 28.9927C26.6323 28.6769 26.8947 28.4918 27.2833 28.4887C27.3799 28.4906 27.4762 28.4989 27.5715 28.5142V28.4378C27.5715 28.2432 27.4581 28.1508 27.2412 28.1508C27.095 28.149 26.9498 28.1751 26.8137 28.2272L26.7326 27.8825C26.8719 27.8252 27.0954 27.7868 27.2929 27.7868C27.7691 27.7868 28.0056 28.0357 28.0056 28.4663V29.3534C27.8728 29.4203 27.6232 29.4936 27.2995 29.4936ZM27.5715 29.133V28.7917C27.4961 28.7751 27.4188 28.7665 27.3415 28.7662C27.1926 28.7662 27.076 28.8236 27.076 28.9737C27.076 29.1078 27.1733 29.1778 27.345 29.1778C27.4229 29.1802 27.5001 29.1649 27.5715 29.133ZM29.5347 27.8825L29.4505 28.2303C29.3349 28.1809 29.2106 28.1539 29.0844 28.1505C28.822 28.1505 28.6796 28.3322 28.6796 28.6324C28.6796 28.9611 28.8286 29.1299 29.1071 29.1299C29.2315 29.1265 29.3536 29.0983 29.4667 29.047L29.5381 29.4012C29.3913 29.4654 29.2321 29.497 29.0716 29.4936C28.5341 29.4936 28.2231 29.1649 28.2231 28.645C28.2231 28.125 28.5307 27.7868 29.0458 27.7868C29.2137 27.7859 29.3798 27.8184 29.5347 27.8825ZM30.5175 29.4936C30.132 29.4936 29.9345 29.2861 29.9345 28.865V28.176H29.7142V27.8252H29.9345V27.471L30.3813 27.4485V27.8248H30.7409V28.1757H30.3813V28.8583C30.3813 29.0434 30.4589 29.1293 30.6048 29.1293C30.6624 29.1293 30.7201 29.1228 30.7765 29.1103L30.7992 29.4645C30.7067 29.4847 30.6122 29.4945 30.5175 29.4936Z" fill="#1E3764"/>
<path d="M18.2209 26.1054C20.586 26.1054 21.7686 24.5524 22.9512 22.9993H15.1032V26.1054H18.2209Z" fill="url(#paint1_linear_17041_41998)"/>
<path d="M27.6815 19.8932C25.3164 19.8932 24.1338 21.4462 22.9512 22.9993L30.7992 22.9993V19.8932H27.6815Z" fill="url(#paint2_linear_17041_41998)"/>
<defs>
<linearGradient id="paint0_linear_17041_41998" x1="39" y1="1.5" x2="2" y2="38" gradientUnits="userSpaceOnUse">
<stop stop-color="#015BBA"/>
<stop offset="1" stop-color="#1E3865"/>
</linearGradient>
<linearGradient id="paint1_linear_17041_41998" x1="17.2654" y1="25.291" x2="32.4287" y2="21.9538" gradientUnits="userSpaceOnUse">
<stop stop-color="#005AB9"/>
<stop offset="1" stop-color="#1E3764"/>
</linearGradient>
<linearGradient id="paint2_linear_17041_41998" x1="23.4264" y1="23.2685" x2="29.5027" y2="21.1638" gradientUnits="userSpaceOnUse">
<stop stop-color="#FBA900"/>
<stop offset="1" stop-color="#FFD800"/>
</linearGradient>
</defs>
</svg>
