<svg width="40" height="40" viewBox="0 0 40 40" fill="none" xmlns="http://www.w3.org/2000/svg">
<rect width="40" height="40" rx="4" fill="#B2FCE4"/>
<path d="M36.7814 18.3905L35.7214 17.7805L34.6614 17.1405C34.4986 17.0477 34.3144 16.9992 34.127 17C33.9396 17.0008 33.7557 17.0508 33.5937 17.1449C33.4317 17.2391 33.2973 17.3741 33.2039 17.5366C33.1105 17.699 33.0613 17.8831 33.0614 18.0705V18.2005C33.0614 18.2379 33.0705 18.2748 33.0879 18.3079C33.1053 18.341 33.1306 18.3693 33.1614 18.3905L33.6614 18.6705C33.6849 18.6844 33.7109 18.6935 33.7379 18.697C33.765 18.7005 33.7925 18.6984 33.8187 18.691C33.8449 18.6835 33.8693 18.6707 33.8904 18.6534C33.9115 18.6361 33.9289 18.6147 33.9414 18.5905C33.9503 18.5577 33.9503 18.5232 33.9414 18.4905V18.1705C33.9401 18.1429 33.9442 18.1153 33.9535 18.0893C33.9628 18.0633 33.9772 18.0394 33.9958 18.019C34.0144 17.9986 34.0368 17.982 34.0618 17.9702C34.0868 17.9585 34.1138 17.9518 34.1414 17.9505H34.2614L35.2614 18.5205L36.2614 19.0805C36.31 19.1114 36.3446 19.1601 36.3577 19.2162C36.3708 19.2723 36.3613 19.3313 36.3314 19.3805L36.2614 19.4505L35.2614 20.0105L34.2614 20.5805C34.2378 20.5951 34.2116 20.6048 34.1842 20.6092C34.1568 20.6135 34.1288 20.6124 34.1018 20.6059C34.0749 20.5994 34.0495 20.5876 34.0271 20.5713C34.0047 20.5549 33.9858 20.5342 33.9714 20.5105C33.9613 20.4711 33.9613 20.4298 33.9714 20.3905V20.2305C33.9715 20.0431 33.9224 19.859 33.829 19.6966C33.7356 19.5341 33.6011 19.3991 33.4391 19.3049C33.2771 19.2108 33.0932 19.1608 32.9059 19.16C32.7185 19.1592 32.5342 19.2077 32.3714 19.3005L31.2914 19.9205L30.2314 20.5305C29.9867 20.6728 29.8076 20.9056 29.7328 21.1787C29.658 21.4517 29.6934 21.7433 29.8314 21.9905C29.9235 22.1595 30.0624 22.2984 30.2314 22.3905L31.2914 23.0005L32.3714 23.6105C32.5342 23.7033 32.7185 23.7517 32.9059 23.751C33.0932 23.7502 33.2771 23.7002 33.4391 23.606C33.6011 23.5119 33.7356 23.3768 33.829 23.2144C33.9224 23.052 33.9715 22.8679 33.9714 22.6805V22.5505C33.9715 22.5131 33.9624 22.4762 33.945 22.4431C33.9275 22.41 33.9023 22.3816 33.8714 22.3605L33.3714 22.0705C33.348 22.0565 33.3219 22.0475 33.2949 22.044C33.2679 22.0405 33.2404 22.0425 33.2141 22.05C33.1879 22.0575 33.1635 22.0703 33.1424 22.0876C33.1213 22.1048 33.1039 22.1263 33.0914 22.1505C33.0825 22.1866 33.0825 22.2244 33.0914 22.2605V22.5805C33.0928 22.6081 33.0887 22.6356 33.0793 22.6616C33.07 22.6876 33.0556 22.7115 33.0371 22.732C33.0185 22.7524 32.9961 22.769 32.9711 22.7807C32.9461 22.7925 32.919 22.7992 32.8914 22.8005C32.8519 22.8095 32.8109 22.8095 32.7714 22.8005L31.7714 22.2305L30.7714 21.6705C30.721 21.6465 30.6815 21.6042 30.6611 21.5522C30.6407 21.5002 30.6408 21.4424 30.6614 21.3905L30.7314 21.3205L31.7314 20.7605L32.7314 20.1905C32.755 20.1759 32.7813 20.1662 32.8087 20.1618C32.8361 20.1574 32.864 20.1585 32.891 20.165C32.918 20.1715 32.9434 20.1833 32.9658 20.1997C32.9881 20.2161 33.0071 20.2368 33.0214 20.2605C33.0316 20.2998 33.0316 20.3411 33.0214 20.3805V20.5405C33.0213 20.7279 33.0705 20.912 33.1639 21.0744C33.2573 21.2368 33.3917 21.3719 33.5537 21.466C33.7157 21.5602 33.8996 21.6102 34.087 21.611C34.2744 21.6117 34.4586 21.5633 34.6214 21.4705L35.7014 20.8505L36.7614 20.2405C36.881 20.1669 36.9847 20.0704 37.0666 19.9564C37.1486 19.8424 37.2071 19.7133 37.2387 19.5766C37.2703 19.4398 37.2745 19.2981 37.2509 19.1598C37.2273 19.0214 37.1765 18.8891 37.1014 18.7705C37.0284 18.6189 36.9184 18.4882 36.7814 18.3905Z" fill="black"/>
<path d="M29.8014 18.5706L27.3114 23.7106H26.3114L27.2414 21.7906L25.7814 18.5706H26.8414L27.7814 20.7206L28.7814 18.5706H29.8014Z" fill="black"/>
<path d="M4.9114 20.3905C4.90162 20.1952 4.83476 20.007 4.7191 19.8492C4.60345 19.6915 4.44407 19.5711 4.2607 19.503C4.07733 19.435 3.87803 19.4222 3.68745 19.4662C3.49688 19.5103 3.32341 19.6092 3.18851 19.7509C3.05361 19.8925 2.96322 20.0706 2.92851 20.2631C2.89381 20.4556 2.91632 20.654 2.99326 20.8339C3.07019 21.0137 3.19818 21.167 3.36137 21.2748C3.52457 21.3827 3.7158 21.4403 3.9114 21.4405C4.17661 21.4405 4.43097 21.3352 4.6185 21.1476C4.80604 20.9601 4.9114 20.7057 4.9114 20.4405V20.3905ZM4.9114 22.2205V21.7405C4.77029 21.911 4.59297 22.048 4.39231 22.1414C4.19166 22.2348 3.97272 22.2823 3.7514 22.2805C3.51631 22.2753 3.28456 22.2239 3.06937 22.1291C2.85418 22.0343 2.65977 21.898 2.49726 21.7281C2.33474 21.5581 2.20731 21.3578 2.12222 21.1386C2.03714 20.9194 1.99609 20.6856 2.0014 20.4505V20.3905C1.99203 20.1515 2.02988 19.9129 2.11278 19.6885C2.19569 19.4641 2.32202 19.2582 2.48456 19.0827C2.64709 18.9072 2.84264 18.7654 3.06002 18.6655C3.2774 18.5656 3.51233 18.5095 3.7514 18.5005C3.96878 18.4991 4.18378 18.5459 4.38091 18.6375C4.57804 18.7292 4.75239 18.8634 4.8914 19.0305V18.5705H5.7814V22.2205H4.9114Z" fill="black"/>
<path d="M10.1814 21.3906C9.86139 21.3906 9.78139 21.2706 9.78139 20.9706V19.3906H10.3514V18.6006H9.78139V17.6806H8.86139V18.5706H7.66139V18.2006C7.66139 17.9006 7.78139 17.7806 8.10139 17.7806H8.30139V17.0706H7.87139C7.11139 17.0706 6.75139 17.3206 6.75139 18.0706V18.5606H6.24139V19.3906H6.75139V22.2506H7.66139V19.3906H8.86139V21.1806C8.86139 21.9306 9.14139 22.2506 9.86139 22.2506H10.3614V21.3906H10.1814Z" fill="black"/>
<path d="M13.4814 20.0605C13.4516 19.844 13.3415 19.6467 13.1729 19.5078C13.0043 19.3688 12.7896 19.2984 12.5714 19.3105C12.3526 19.3004 12.1379 19.3714 11.9681 19.5097C11.7984 19.6481 11.6856 19.8442 11.6514 20.0605H13.4814ZM11.6614 20.6305C11.6769 20.8666 11.7836 21.0873 11.9591 21.246C12.1346 21.4047 12.365 21.4888 12.6014 21.4805C12.773 21.4825 12.9423 21.4404 13.0929 21.3581C13.2436 21.2758 13.3704 21.1561 13.4614 21.0105H14.4014C14.2851 21.396 14.0422 21.7311 13.712 21.9616C13.3817 22.192 12.9834 22.3044 12.5814 22.2805C12.1054 22.3135 11.6357 22.1561 11.2757 21.8429C10.9157 21.5298 10.6947 21.0865 10.6614 20.6105V20.3905C10.6614 19.8892 10.8605 19.4085 11.215 19.0541C11.5694 18.6996 12.0501 18.5005 12.5514 18.5005C13.0527 18.5005 13.5334 18.6996 13.8878 19.0541C14.2423 19.4085 14.4414 19.8892 14.4414 20.3905C14.4514 20.4668 14.4514 20.5441 14.4414 20.6205L11.6614 20.6305Z" fill="black"/>
<path d="M20.3214 20.3905C20.3148 20.1276 20.2049 19.8778 20.0154 19.6953C19.826 19.5128 19.5722 19.4123 19.3092 19.4156C19.0462 19.4189 18.795 19.5257 18.6102 19.7129C18.4254 19.9 18.3217 20.1525 18.3217 20.4155C18.3217 20.6786 18.4254 20.931 18.6102 21.1182C18.795 21.3054 19.0462 21.4122 19.3092 21.4155C19.5722 21.4187 19.826 21.3183 20.0154 21.1358C20.2049 20.9533 20.3148 20.7035 20.3214 20.4405V20.3905ZM17.4314 23.7105V18.5705H18.3214V19.0405C18.4625 18.87 18.6398 18.7331 18.8405 18.6397C19.0411 18.5463 19.2601 18.4987 19.4814 18.5005C19.7165 18.5044 19.9485 18.5546 20.1642 18.6482C20.3798 18.7418 20.575 18.8769 20.7384 19.046C20.9018 19.215 21.0304 19.4145 21.1167 19.6332C21.203 19.8519 21.2454 20.0855 21.2414 20.3205V20.3905C21.2508 20.6296 21.2129 20.8681 21.13 21.0925C21.0471 21.317 20.9208 21.5228 20.7582 21.6984C20.5957 21.8739 20.4002 22.0157 20.1828 22.1156C19.9654 22.2155 19.7305 22.2715 19.4914 22.2805C19.2819 22.2846 19.074 22.2428 18.8823 22.1582C18.6905 22.0735 18.5196 21.9481 18.3814 21.7905V23.7105H17.4314Z" fill="black"/>
<path d="M24.4814 20.3905C24.4715 20.1974 24.4058 20.0112 24.2922 19.8547C24.1786 19.6981 24.0221 19.5778 23.8416 19.5084C23.661 19.439 23.4643 19.4235 23.2751 19.4636C23.0859 19.5038 22.9124 19.598 22.7756 19.7347C22.6389 19.8715 22.5447 20.045 22.5045 20.2342C22.4644 20.4234 22.4799 20.6202 22.5493 20.8007C22.6187 20.9812 22.739 21.1377 22.8956 21.2513C23.0521 21.3649 23.2382 21.4306 23.4314 21.4405H23.4814C23.7466 21.4405 24.001 21.3352 24.1885 21.1476C24.376 20.9601 24.4814 20.7057 24.4814 20.4405V20.3905ZM24.4814 22.2205V21.7405C24.3428 21.9114 24.1674 22.0487 23.9682 22.1422C23.7691 22.2357 23.5514 22.283 23.3314 22.2805C23.0963 22.2766 22.8643 22.2264 22.6486 22.1328C22.433 22.0393 22.2378 21.9041 22.0744 21.7351C21.911 21.5661 21.7824 21.3665 21.6961 21.1478C21.6098 20.9291 21.5674 20.6956 21.5714 20.4605V20.3905C21.562 20.1515 21.5999 19.9129 21.6828 19.6885C21.7657 19.4641 21.892 19.2582 22.0546 19.0827C22.2171 18.9072 22.4126 18.7654 22.63 18.6655C22.8474 18.5656 23.0823 18.5095 23.3214 18.5005C23.5373 18.4991 23.7508 18.546 23.9463 18.6377C24.1418 18.7294 24.3144 18.8636 24.4514 19.0305V18.5705H25.3514V22.2205H24.4814Z" fill="black"/>
<path d="M15.8114 18.9305C15.8946 18.7966 16.0111 18.6865 16.1496 18.6111C16.2881 18.5357 16.4438 18.4976 16.6014 18.5005C16.7358 18.4971 16.8692 18.5244 16.9914 18.5805V19.5205C16.7965 19.4004 16.5702 19.3412 16.3414 19.3505C16.1841 19.3843 16.0452 19.4762 15.9526 19.6078C15.8599 19.7393 15.8202 19.901 15.8414 20.0605V22.2205H14.9114V18.5705H15.8114V18.9305Z" fill="black"/>
</svg>
