<svg width="40" height="40" viewBox="0 0 40 40" fill="none" xmlns="http://www.w3.org/2000/svg">
<rect width="40" height="40" rx="4" fill="#56A18D"/>
<path d="M14.4179 15.7802V21.5537C14.4179 22.0646 14.4301 22.3738 14.4545 22.6709H14.4301C14.3021 22.3307 14.1511 22.0324 13.9259 21.6442L10.4264 15.7802H8.82706V24.2196H10.0732V18.4458C10.0732 17.9346 10.061 17.6256 10.0368 17.3283H10.0625C10.1904 17.6686 10.3413 17.9666 10.5667 18.3547L14.0651 24.2196H15.6476V15.7802H14.4179ZM28.6333 18.6048C27.602 18.6048 26.8657 19.0702 26.4935 19.7591C26.4935 18.1309 27.0748 16.7136 28.4566 16.7136C29.3349 16.7136 29.6834 17.2067 29.8696 18.0151L31.1488 17.7654C30.8488 16.3697 29.9388 15.6913 28.4656 15.6913C26.6146 15.6913 25.2298 17.0781 25.2298 20.1861C25.2298 22.9452 26.3846 24.3089 28.3743 24.3089C30.0185 24.3089 31.25 23.2134 31.25 21.4082C31.25 19.9979 30.4794 18.6048 28.6333 18.6048ZM28.3775 23.2891C27.3571 23.2891 26.6506 22.3744 26.5284 21.1598C26.8383 20.1238 27.5255 19.6077 28.3381 19.6077C29.3827 19.6077 29.972 20.3603 29.972 21.4304C29.972 22.5789 29.3 23.2891 28.3775 23.2891ZM19.5742 23.1263C20.2254 22.6872 21.1589 21.9578 21.5731 21.5529C22.0439 21.0934 23.3842 19.9121 23.3842 18.2281C23.3842 16.4873 22.2217 15.6906 20.6495 15.6906C18.7437 15.6913 17.8027 16.8358 17.8027 18.1452C17.8024 18.37 17.8311 18.5939 17.888 18.8117L19.1937 18.9342C19.1386 18.6963 19.11 18.4532 19.1084 18.2092C19.1084 17.2286 19.7735 16.7594 20.6062 16.7594C21.4181 16.7594 22.019 17.2032 22.019 18.2705C22.019 19.3552 21.4753 20.0945 20.6473 20.9033C19.7816 21.7485 18.3978 22.7569 17.7313 23.2207V24.2196H23.4813V23.1263H19.5742ZM15.725 26.4065V27.5H8.75V26.4065H15.725ZM15.725 12.5V13.5935H8.75V12.5H15.725Z" fill="white"/>
</svg>
