<svg width="40" height="40" viewBox="0 0 40 40" fill="none" xmlns="http://www.w3.org/2000/svg">
<rect width="40" height="40" rx="4" fill="#F36805"/>
<path d="M23.2337 18.7671L20.0369 19.2617L20.4946 16.065L25.7512 10.7715C26.0229 10.5017 26.3681 10.3179 26.7436 10.2431C27.1191 10.1682 27.5083 10.2057 27.8627 10.3507L29.0735 9.13989L30.1218 10.1883L28.9111 11.399C29.0561 11.7534 29.0935 12.1426 29.0187 12.5182C28.9438 12.8937 28.76 13.2388 28.4902 13.5105L23.2337 18.7671ZM31.0742 16.3086V28.1211H8.92578V16.3086H18.959L18.2946 20.9672L23.9277 20.1624L27.7741 16.3086H31.0742ZM21.4766 22.9531H12.6172V24.4297H21.4766V22.9531ZM27.3828 22.9531H24.4297V24.4297H27.3828V22.9531Z" fill="white"/>
</svg>
