<svg width="40" height="40" viewBox="0 0 40 40" fill="none" xmlns="http://www.w3.org/2000/svg">
<rect x="0.5" y="0.5" width="39" height="39" rx="3.5" fill="white"/>
<rect x="0.5" y="0.5" width="39" height="39" rx="3.5" stroke="#DBD9D7"/>
<path d="M31.1844 19.9995C31.1844 26.173 26.1901 31.1673 20.0166 31.1673C13.8431 31.1673 8.84879 26.173 8.84879 19.9995C8.84879 13.826 13.8431 8.83172 20.0166 8.83172C26.167 8.83172 31.1844 13.826 31.1844 19.9995Z" fill="white"/>
<path d="M19.9935 31.2135C26.1868 31.2135 31.2075 26.1928 31.2075 19.9995C31.2075 13.8062 26.1868 8.78547 19.9935 8.78547C13.8001 8.78547 8.77943 13.8062 8.77943 19.9995C8.77943 26.1928 13.8001 31.2135 19.9935 31.2135Z" fill="white"/>
<path d="M19.9935 19.9995L24.1554 17.6873L30.7913 23.0978L19.9935 19.9995Z" fill="url(#paint0_linear_16573_1130)"/>
<path d="M24.1554 17.6873L30.7913 23.0978L30.1208 22.751L24.1554 17.8723L24.1554 17.6873Z" fill="#E53121"/>
<path d="M19.9935 19.9995L24.1554 17.6873L24.1323 17.8723L20.3634 19.9533L19.9935 19.9995Z" fill="#F08465"/>
<path d="M30.7913 23.0978L19.9935 19.9995L20.3865 19.9533L30.1208 22.751L30.7913 23.0978Z" fill="#B82B18"/>
<path d="M19.9935 19.9995L24.1554 17.6873L23.0918 9.20166L19.9935 19.9995Z" fill="#F5B0AC"/>
<path d="M23.0918 9.20166L19.9935 19.9995L20.2478 19.6989L23.0455 9.94155L23.0918 9.20166Z" fill="#D47785"/>
<path d="M24.1554 17.6873L23.0918 9.20166L23.0455 9.94155L24.0166 17.5948L24.1554 17.6873Z" fill="#D99E9B"/>
<path d="M19.9935 19.9995L24.1554 17.6873L23.9935 17.5948L20.2247 19.6758L19.9935 19.9995Z" fill="#F9D1CD"/>
<path d="M22.3056 24.1614L16.8951 30.7974L17.242 30.1268L22.1207 24.1383L22.3056 24.1614Z" fill="#F9F9FC"/>
<path d="M19.9935 19.9995L22.3056 24.1614L22.1207 24.1383L20.0397 20.3695L19.9935 19.9995Z" fill="#F3F2F9"/>
<path d="M16.8951 30.7974L19.9935 19.9995L20.0397 20.3926L17.242 30.1268L16.8951 30.7974Z" fill="#DCDAEE"/>
<path d="M19.9935 19.9995L22.3056 24.1614L30.7913 23.0978L19.9935 19.9995Z" fill="#2B2B85"/>
<path d="M30.7913 23.0978L19.9935 19.9995L20.294 20.2538L30.0514 23.0516L30.7913 23.0978Z" fill="#484293"/>
<path d="M22.3056 24.1614L30.7913 23.0978L30.0514 23.0516L22.3981 24.0227L22.3056 24.1614Z" fill="#24236F"/>
<path d="M19.9935 19.9995L22.3056 24.1614L22.3981 23.9996L20.3172 20.2307L19.9935 19.9995Z" fill="#8F88C0"/>
<path d="M19.9935 19.9995L15.8315 22.3117L9.1956 16.9012L19.9935 19.9995Z" fill="url(#paint1_linear_16573_1130)"/>
<path d="M15.8315 22.3117L9.1956 16.9012L9.86613 17.248L15.8547 22.1267L15.8315 22.3117Z" fill="#BBB7DB"/>
<path d="M19.9935 19.9995L15.8315 22.3117L15.8547 22.1267L19.6235 20.0458L19.9935 19.9995Z" fill="#B0AAD4"/>
<path d="M9.1956 16.9012L19.9935 19.9995L19.6004 20.0458L9.86613 17.248L9.1956 16.9012Z" fill="#D1CCE6"/>
<path d="M19.9935 19.9995L15.8315 22.3117L16.8951 30.7974L19.9935 19.9995Z" fill="#FFDD00"/>
<path d="M16.8951 30.7974L19.9935 19.9995L19.7391 20.3001L16.9645 30.0575L16.8951 30.7974Z" fill="#DBBB85"/>
<path d="M15.8315 22.3117L16.8951 30.7974L16.9414 30.0575L15.9703 22.4042L15.8315 22.3117Z" fill="#EBC536"/>
<path d="M19.9935 19.9995L15.8315 22.3117L15.9934 22.4042L19.7622 20.3232L19.9935 19.9995Z" fill="#FFE167"/>
<path d="M19.9935 19.9995L17.6813 15.8376L23.0918 9.20166L19.9935 19.9995Z" fill="#E53121"/>
<path d="M17.6813 15.8376L23.0918 9.20166L22.7449 9.87219L17.8662 15.8607L17.6813 15.8376Z" fill="#EA583C"/>
<path d="M19.9935 19.9995L17.6813 15.8376L17.8662 15.8607L19.9472 19.6296L19.9935 19.9995Z" fill="#D42F1E"/>
<path d="M23.0918 9.20166L19.9935 19.9995L19.9472 19.6064L22.7449 9.87219L23.0918 9.20166Z" fill="#C22C1A"/>
<path d="M19.9935 19.9995L17.6813 15.8376L9.1956 16.9012L19.9935 19.9995Z" fill="#F3F2F9"/>
<path d="M9.1956 16.9012L19.9935 19.9995L19.6929 19.7452L9.9355 16.9706L9.1956 16.9012Z" fill="#F9F8FB"/>
<path d="M17.6813 15.8376L9.1956 16.9012L9.9355 16.9474L17.5888 15.9763L17.6813 15.8376Z" fill="#DCDAEE"/>
<path d="M19.9935 19.9995L17.6813 15.8376L17.5888 15.9994L19.6698 19.7683L19.9935 19.9995Z" fill="#F9F9FC"/>
<path d="M28.0861 12.2075C26.6988 10.7739 24.9878 9.75658 23.0918 9.20166L24.1554 17.6873L28.0861 12.2075Z" fill="url(#paint2_linear_16573_1130)"/>
<path d="M23.0918 9.20166L24.1554 17.6873L24.2479 17.2943L23.2536 9.2479C23.2074 9.2479 23.138 9.22478 23.0918 9.20166Z" fill="#8F88C0"/>
<path d="M27.9704 12.0919L24.271 17.2943L24.1785 17.6873L28.0861 12.1844C28.0398 12.1612 28.0167 12.115 27.9704 12.0919Z" fill="#A59FCE"/>
<path d="M28.0861 12.2075C26.6988 10.7739 24.9878 9.75658 23.0918 9.20166L23.2999 9.57161C25.0109 10.1034 26.5369 11.0514 27.8086 12.3231L28.0861 12.2075Z" fill="url(#paint3_linear_16573_1130)"/>
<path d="M24.1554 17.6873L28.0629 12.1844C29.4271 13.5948 30.3982 15.352 30.8838 17.2711L24.1554 17.6873Z" fill="url(#paint4_linear_16573_1130)"/>
<path d="M28.0861 12.2075L24.1554 17.6873L24.4559 17.5255L28.1785 12.3231C28.1554 12.2769 28.1092 12.2306 28.0861 12.2075Z" fill="#ED6F50"/>
<path d="M30.8607 17.1324L24.4791 17.5255L24.1785 17.6873L30.9069 17.2711C30.8838 17.2249 30.8607 17.1787 30.8607 17.1324Z" fill="#A62714"/>
<path d="M30.5601 17.1555C30.0976 15.4445 29.219 13.8723 28.0167 12.5543L28.0861 12.1844C29.4502 13.5948 30.4213 15.352 30.9069 17.2711L30.5601 17.1555Z" fill="url(#paint5_linear_16573_1130)"/>
<path d="M24.1554 17.6873L30.8838 17.2711C31.3462 19.1209 31.3462 21.1094 30.7913 23.0747L24.1554 17.6873Z" fill="url(#paint6_linear_16573_1130)"/>
<path d="M30.9069 17.2943L24.1785 17.7105L24.5716 17.8261L30.9531 17.433C30.93 17.3868 30.9069 17.3405 30.9069 17.2943Z" fill="#D1CEE8"/>
<path d="M30.7913 23.0978C30.8144 23.0516 30.8144 22.9822 30.8375 22.936L24.5484 17.8261L24.1554 17.7105L30.7913 23.0978Z" fill="#F3F2F9"/>
<path d="M30.5832 22.7279C31.0456 20.9475 31.0456 19.144 30.6294 17.4561L30.9069 17.2943C31.3693 19.144 31.3693 21.1325 30.8144 23.0978L30.5832 22.7279Z" fill="url(#paint7_linear_16573_1130)"/>
<path d="M12.2014 11.93C10.8141 13.248 9.77365 14.9359 9.1956 16.9012L17.6813 15.8376L12.2014 11.93Z" fill="url(#paint8_linear_16573_1130)"/>
<path d="M9.1956 16.9012L17.6813 15.8376L17.2882 15.7451L9.24185 16.7393C9.24185 16.7856 9.21873 16.855 9.1956 16.9012Z" fill="#FFCB00"/>
<path d="M12.0858 12.0225L17.2882 15.722L17.6813 15.8145L12.2014 11.93C12.1552 11.9531 12.1321 11.9994 12.0858 12.0225Z" fill="#FFDD00"/>
<path d="M12.2014 11.93C10.7679 13.2942 9.75053 15.0052 9.1956 16.9012L9.56555 16.6931C10.0974 14.9821 11.0453 13.4561 12.317 12.1844C12.3402 12.2075 12.2014 11.93 12.2014 11.93Z" fill="#FFF8C7"/>
<path d="M17.6813 15.8376L12.2014 11.93C13.6119 10.5658 15.3691 9.59473 17.2882 9.10917L17.6813 15.8376Z" fill="url(#paint9_linear_16573_1130)"/>
<path d="M12.2014 11.93L17.7044 15.8376L17.5425 15.537L12.317 11.8144C12.2708 11.8607 12.2246 11.8838 12.2014 11.93ZM17.1264 9.1323L17.5194 15.5139L17.6813 15.8145L17.2882 9.10917L17.1264 9.1323Z" fill="#E53121"/>
<path d="M17.1495 9.456C15.4385 9.91843 13.8662 10.7971 12.5483 11.9994L12.1783 11.93C13.5887 10.5658 15.346 9.59473 17.2651 9.10917L17.1495 9.456Z" fill="url(#paint10_linear_16573_1130)"/>
<path d="M17.6813 15.8376L17.2882 9.10917C19.1379 8.64674 21.1264 8.64674 23.0918 9.20166L17.6813 15.8376Z" fill="url(#paint11_linear_16573_1130)"/>
<path d="M17.2882 9.10917L17.7044 15.8376L17.82 15.4445L17.427 9.06294C17.3807 9.08606 17.3345 9.08605 17.2882 9.10917Z" fill="#1E398E"/>
<path d="M23.0918 9.20166C23.0455 9.17854 22.9761 9.17854 22.9299 9.15542L17.82 15.4445L17.7044 15.8376L23.0918 9.20166Z" fill="#2F2482"/>
<path d="M22.7218 9.40976C20.9415 8.94732 19.138 8.94732 17.4501 9.36351L17.2882 9.08605C19.138 8.62362 21.1264 8.62362 23.0918 9.17854L22.7218 9.40976Z" fill="url(#paint12_linear_16573_1130)"/>
<path d="M11.924 27.8147C13.2881 29.2251 15.0223 30.2656 16.9183 30.7974L15.8547 22.3117L11.924 27.8147Z" fill="#2B2B85"/>
<path d="M16.8951 30.7974L15.8315 22.3117L15.739 22.7048L16.7564 30.7511C16.8026 30.7742 16.8489 30.7742 16.8951 30.7974Z" fill="#24236F"/>
<path d="M12.0165 27.9071L15.7159 22.7048L15.8084 22.3117L11.924 27.8147L12.0165 27.9071Z" fill="#5B549F"/>
<path d="M11.924 27.8147C13.2881 29.2251 15.0223 30.2656 16.9183 30.7974L16.7102 30.4274C14.9992 29.8956 13.4731 28.9476 12.2014 27.6759L11.924 27.8147Z" fill="url(#paint13_linear_16573_1130)"/>
<path d="M15.8315 22.3117L11.924 27.8147C10.565 26.3875 9.59395 24.6364 9.10313 22.7279L15.8315 22.3117Z" fill="url(#paint14_linear_16573_1130)"/>
<path d="M11.924 27.8147L15.8315 22.3117L15.531 22.4735L11.8084 27.699C11.8546 27.7222 11.8777 27.7684 11.924 27.8147Z" fill="#B0AAD4"/>
<path d="M9.12626 22.8666L15.5079 22.4735L15.8084 22.3117L9.10313 22.7279C9.10313 22.7741 9.12626 22.8204 9.12626 22.8666Z" fill="#DAD8ED"/>
<path d="M9.44996 22.8435C9.91239 24.5545 10.791 26.1268 11.9933 27.4447L11.924 27.8147C10.565 26.3875 9.59395 24.6364 9.10313 22.7279L9.44996 22.8435Z" fill="url(#paint15_linear_16573_1130)"/>
<path d="M15.8315 22.3117L9.10313 22.7279C8.6407 20.8781 8.6407 18.8897 9.19562 16.9243L15.8315 22.3117Z" fill="#E53121"/>
<path d="M9.10313 22.7279L15.8315 22.3117L15.4385 22.1961L9.05687 22.566C9.07999 22.6123 9.08001 22.6585 9.10313 22.7279Z" fill="#CA2D0A"/>
<path d="M9.1956 16.9012C9.17248 16.9474 9.1725 17.0168 9.14937 17.063L15.4385 22.1961L15.8315 22.3117L9.1956 16.9012ZM9.40371 17.2711C8.94128 19.0515 8.94128 20.855 9.35747 22.5429L9.08001 22.7047C8.61757 20.8088 8.6638 18.7972 9.1956 16.9012L9.40371 17.2711Z" fill="#ED6F50"/>
<path d="M27.8086 28.0921C29.219 26.7279 30.2595 24.9938 30.7913 23.0978L22.3056 24.1614L27.8086 28.0921Z" fill="url(#paint16_linear_16573_1130)"/>
<path d="M30.7913 23.0978L22.3056 24.1614L22.6987 24.2539L30.7451 23.2366C30.7682 23.2134 30.7682 23.1441 30.7913 23.0978Z" fill="#7B73B3"/>
<path d="M27.9011 27.9765L22.6987 24.277L22.3056 24.1845L27.8086 28.0921C27.8317 28.0459 27.878 27.9996 27.9011 27.9765Z" fill="#D1CEE8"/>
<path d="M27.8086 28.0921C29.1728 26.7742 30.2364 25.0632 30.7913 23.0978L30.4213 23.3059C29.8895 25.0169 28.9416 26.543 27.6699 27.8147L27.8086 28.0921Z" fill="#655EA5"/>
<path d="M22.3056 24.1614L27.8086 28.069C26.3982 29.4332 24.6409 30.4043 22.7218 30.8898L22.3056 24.1614Z" fill="url(#paint17_linear_16573_1130)"/>
<path d="M27.8086 28.0921L22.3056 24.1614L22.4675 24.462L27.6699 28.1846C27.7161 28.1615 27.7624 28.1152 27.8086 28.0921ZM22.8606 30.8667L22.4675 24.4851L22.3056 24.1845L22.7218 30.913C22.7681 30.8898 22.8143 30.8667 22.8606 30.8667Z" fill="#E53121"/>
<path d="M22.8374 30.5661C24.5484 30.1037 26.1207 29.2251 27.4386 28.0227L27.8086 28.0921C26.3982 29.4563 24.6409 30.4274 22.7218 30.913L22.8374 30.5661Z" fill="url(#paint18_linear_16573_1130)"/>
<path d="M22.3056 24.1614L22.7218 30.8898C20.8721 31.3523 18.8836 31.3523 16.9183 30.7974L22.3056 24.1614Z" fill="url(#paint19_linear_16573_1130)"/>
<path d="M22.7218 30.8898L22.3056 24.1614L22.19 24.5545L22.5831 30.9361C22.6062 30.913 22.6756 30.913 22.7218 30.8898Z" fill="#F5B0AC"/>
<path d="M16.8951 30.7974L17.057 30.8436L22.19 24.5545L22.3056 24.1614L16.8951 30.7974Z" fill="#FAD9D5"/>
<path d="M17.2651 30.5893C19.0455 31.0517 20.849 31.0517 22.5368 30.6355L22.6987 30.913C20.7796 31.3985 18.7911 31.3523 16.8951 30.8205L17.2651 30.5893Z" fill="url(#paint20_linear_16573_1130)"/>
<defs>
<linearGradient id="paint0_linear_16573_1130" x1="18.7304" y1="16.8397" x2="28.1797" y2="18.1754" gradientUnits="userSpaceOnUse">
<stop stop-color="#E53121"/>
<stop offset="1" stop-color="#C22C1A"/>
</linearGradient>
<linearGradient id="paint1_linear_16573_1130" x1="8.9031" y1="16.1841" x2="32.6161" y2="19.5361" gradientUnits="userSpaceOnUse">
<stop stop-color="#DCDAEE"/>
<stop offset="1" stop-color="#8F88C0"/>
</linearGradient>
<linearGradient id="paint2_linear_16573_1130" x1="29.5361" y1="22.9011" x2="6.72711" y2="12.5267" gradientUnits="userSpaceOnUse">
<stop stop-color="#7B73B3"/>
<stop offset="1" stop-color="#C6C2E2"/>
</linearGradient>
<linearGradient id="paint3_linear_16573_1130" x1="31.7769" y1="30.0933" x2="4.44732" y2="20.2397" gradientUnits="userSpaceOnUse">
<stop stop-color="#6C62A8"/>
<stop offset="1" stop-color="#CBCAE6"/>
</linearGradient>
<linearGradient id="paint4_linear_16573_1130" x1="13.3582" y1="14.5452" x2="27.0008" y2="33.8549" gradientUnits="userSpaceOnUse">
<stop stop-color="#E53121"/>
<stop offset="1" stop-color="#A62714"/>
</linearGradient>
<linearGradient id="paint5_linear_16573_1130" x1="9.39016" y1="8.885" x2="18.3846" y2="36.2797" gradientUnits="userSpaceOnUse">
<stop stop-color="#E84D2C"/>
<stop offset="1" stop-color="#811F08"/>
</linearGradient>
<linearGradient id="paint6_linear_16573_1130" x1="18.3673" y1="5.87251" x2="30.0859" y2="32.2995" gradientUnits="userSpaceOnUse">
<stop stop-color="#F3F2F9"/>
<stop offset="1" stop-color="#BBB7DB"/>
</linearGradient>
<linearGradient id="paint7_linear_16573_1130" x1="-14.5341" y1="18.9315" x2="-5.72573" y2="41.1272" gradientUnits="userSpaceOnUse">
<stop stop-color="white"/>
<stop offset="1" stop-color="#BBB7DB"/>
</linearGradient>
<linearGradient id="paint8_linear_16573_1130" x1="12.4282" y1="19.8484" x2="32.2406" y2="23.1227" gradientUnits="userSpaceOnUse">
<stop stop-color="#FFF098"/>
<stop offset="1" stop-color="#FFD530"/>
</linearGradient>
<linearGradient id="paint9_linear_16573_1130" x1="10.2878" y1="14.0216" x2="35.102" y2="25.1024" gradientUnits="userSpaceOnUse">
<stop stop-color="#F4A286"/>
<stop offset="1" stop-color="#E53121"/>
</linearGradient>
<linearGradient id="paint10_linear_16573_1130" x1="8.3272" y1="31.2014" x2="36.5809" y2="21.941" gradientUnits="userSpaceOnUse">
<stop stop-color="#F4A286"/>
<stop offset="1" stop-color="#E53121"/>
</linearGradient>
<linearGradient id="paint11_linear_16573_1130" x1="7.95662" y1="17.7096" x2="28.0889" y2="24.6231" gradientUnits="userSpaceOnUse">
<stop stop-color="#4464AC"/>
<stop offset="1" stop-color="#1D3584"/>
</linearGradient>
<linearGradient id="paint12_linear_16573_1130" x1="9.00611" y1="19.9977" x2="31.5224" y2="19.9977" gradientUnits="userSpaceOnUse">
<stop stop-color="#4464AC"/>
<stop offset="0.373" stop-color="#2F4B97"/>
<stop offset="0.728" stop-color="#223B89"/>
<stop offset="1" stop-color="#1D3584"/>
</linearGradient>
<linearGradient id="paint13_linear_16573_1130" x1="7.58644" y1="14.0117" x2="33.6479" y2="18.6786" gradientUnits="userSpaceOnUse">
<stop stop-color="#5B62A2"/>
<stop offset="0.152" stop-color="#4C579A"/>
<stop offset="0.482" stop-color="#31438C"/>
<stop offset="0.776" stop-color="#213783"/>
<stop offset="1" stop-color="#1B3380"/>
</linearGradient>
<linearGradient id="paint14_linear_16573_1130" x1="19.9525" y1="8.90032" x2="22.3982" y2="31.7432" gradientUnits="userSpaceOnUse">
<stop stop-color="white"/>
<stop offset="1" stop-color="#DAD8ED"/>
</linearGradient>
<linearGradient id="paint15_linear_16573_1130" x1="3.59379" y1="17.3685" x2="30.904" y2="31.1381" gradientUnits="userSpaceOnUse">
<stop stop-color="white"/>
<stop offset="1" stop-color="#D1CEE8"/>
</linearGradient>
<linearGradient id="paint16_linear_16573_1130" x1="10.4266" y1="11.9027" x2="31.3969" y2="15.3846" gradientUnits="userSpaceOnUse">
<stop stop-color="#D1CEE8"/>
<stop offset="1" stop-color="#7B73B3"/>
</linearGradient>
<linearGradient id="paint17_linear_16573_1130" x1="8.32234" y1="8.76701" x2="18.6544" y2="30.63" gradientUnits="userSpaceOnUse">
<stop stop-color="#E53121"/>
<stop offset="1" stop-color="#B02916"/>
</linearGradient>
<linearGradient id="paint18_linear_16573_1130" x1="8.45799" y1="32.4146" x2="36.7108" y2="23.1541" gradientUnits="userSpaceOnUse">
<stop stop-color="#E53121"/>
<stop offset="1" stop-color="#9D2511"/>
</linearGradient>
<linearGradient id="paint19_linear_16573_1130" x1="17.8604" y1="18.2188" x2="29.7156" y2="32.6373" gradientUnits="userSpaceOnUse">
<stop stop-color="#F5B0AC"/>
<stop offset="1" stop-color="#EF8495"/>
</linearGradient>
<linearGradient id="paint20_linear_16573_1130" x1="16.9763" y1="30.9197" x2="22.7887" y2="30.9197" gradientUnits="userSpaceOnUse">
<stop stop-color="#F5B0AC"/>
<stop offset="1" stop-color="#EE788F"/>
</linearGradient>
</defs>
</svg>
