<svg width="40" height="40" viewBox="0 0 40 40" fill="none" xmlns="http://www.w3.org/2000/svg">
<rect x="0.5" y="0.5" width="39" height="39" rx="3.5" fill="white"/>
<rect x="0.5" y="0.5" width="39" height="39" rx="3.5" stroke="#DBD9D7"/>
<path d="M14.0182 19.6884H12.7998C12.5446 19.6884 12.3009 19.5403 12.2196 19.3125C11.9992 18.6746 11.361 18.4581 11.361 18.4581C11.1289 18.3784 10.9548 18.1506 10.9548 17.8886V16.6925C10.9548 16.3622 11.2333 16.1002 11.5698 16.1002C11.9063 16.1002 12.1732 16.3508 12.1732 16.6925L12.1616 17.6608L13.5773 16.2711C13.821 16.0319 14.2039 16.0319 14.4476 16.2711C14.6913 16.5103 14.6913 16.8976 14.4476 17.1254L13.0551 18.4809H14.0066C14.3431 18.4809 14.6216 18.7543 14.6216 19.0846C14.6216 19.415 14.3431 19.6884 14.0182 19.6884ZM14.0066 21.1464L13.0203 21.135L14.436 22.5247C14.6797 22.7639 14.6797 23.1398 14.436 23.3791C14.1923 23.6183 13.8094 23.6183 13.5657 23.3791L12.1732 22.0121V22.9576C12.1732 23.3107 11.8947 23.5613 11.5582 23.5613C11.2217 23.5613 10.9432 23.2879 10.9432 22.9576V21.7501C10.9432 21.4995 11.1057 21.2603 11.3378 21.1806C11.9876 20.9642 12.208 20.3377 12.208 20.3377C12.2893 20.1098 12.5213 19.939 12.7882 19.939H14.0066C14.3431 19.939 14.6216 20.2124 14.6216 20.5427C14.6216 20.8844 14.3664 21.1464 14.0066 21.1464ZM10.0729 23.5385C9.73643 23.5385 9.46955 23.3221 9.48115 22.9462L9.49275 21.978L8.07709 23.3791C7.83341 23.6183 7.43888 23.6183 7.2068 23.3791C6.96312 23.1398 6.96312 22.7526 7.2068 22.5247L8.58766 21.1578H7.63614C7.28803 21.1578 7.02114 20.8844 7.02114 20.5541C7.02114 20.2237 7.28803 19.9504 7.63614 19.9504H8.85454C9.10983 19.9504 9.3419 20.0984 9.43473 20.3263C9.65521 20.9642 10.2818 21.1806 10.2818 21.1806C10.5255 21.2603 10.6879 21.4881 10.6879 21.7501V22.9462C10.6879 23.2765 10.4211 23.5385 10.0729 23.5385ZM10.2934 18.4695C9.6436 18.6973 9.42313 19.3125 9.42313 19.3125C9.3419 19.5403 9.10983 19.7112 8.84294 19.7112H7.62454C7.28803 19.7112 7.00954 19.4378 7.00954 19.1074C7.00954 18.7771 7.24161 18.5151 7.62454 18.5151L8.61086 18.5265L7.1952 17.1254C6.95152 16.8862 6.95152 16.5103 7.1952 16.2711C7.43888 16.0319 7.8218 16.0319 8.06548 16.2711L9.45794 17.638V16.6925C9.45794 16.3622 9.72483 16.0888 10.0729 16.0888C10.4095 16.0888 10.6763 16.3622 10.6763 16.6925V17.9C10.6763 18.1506 10.5255 18.3898 10.2934 18.4695Z" fill="#14366E"/>
<path d="M30.1591 23.5955C29.5093 23.5955 28.6739 23.493 28.2677 23.3677L28.5926 22.0463C28.8943 22.183 29.5557 22.388 30.1591 22.388C30.8902 22.388 31.4356 22.0805 31.4356 21.4426C31.4356 20.9072 31.099 20.6224 30.1591 20.2579C29.196 19.8934 28.3954 19.4378 28.3954 18.0936C28.3954 16.7837 29.4513 16.0546 31.0642 16.0546C31.7489 16.0546 32.4335 16.1913 32.8512 16.3166L32.5379 17.6038C32.2594 17.4557 31.7257 17.2621 31.0642 17.2621C30.2868 17.2621 29.9387 17.5582 29.9387 18.0594C29.9387 18.572 30.3216 18.7543 31.1571 19.1188C32.3058 19.5972 33.0369 20.087 33.0369 21.3515C33.0369 22.7412 31.8997 23.5955 30.1591 23.5955ZM24.9954 20.2921H24.1136V22.4108H25.0419C25.7729 22.4108 26.3415 22.126 26.3415 21.3401C26.3415 20.6224 25.8077 20.2921 24.9954 20.2921ZM25.007 17.2735H24.1136V19.1872H24.9374C25.564 19.1872 26.0978 18.8568 26.0978 18.1961C26.1094 17.581 25.7265 17.2735 25.007 17.2735ZM25.0883 23.5271H22.6631V16.1571H25.2159C26.678 16.1571 27.6411 16.852 27.6411 18.0822C27.6411 18.9479 27.0493 19.4378 26.4923 19.6542C27.2582 19.8478 27.8848 20.3718 27.8848 21.3401C27.8848 22.6272 26.8753 23.5271 25.0883 23.5271ZM18.9499 17.2849H18.2072V19.3922H18.7874C19.5649 19.3922 20.1334 19.0619 20.1334 18.3442C20.1334 17.7063 19.7157 17.2849 18.9499 17.2849ZM20.3423 23.5271C19.8898 22.6272 19.0775 21.2148 18.5901 20.4743H18.2072V23.5271H16.7683V16.1571H19.1471C20.7136 16.1571 21.6419 16.8976 21.6419 18.367C21.6419 19.3808 20.8993 19.9959 20.1218 20.2579C20.6208 20.93 21.5839 22.5703 22.0597 23.5385L20.3423 23.5271Z" fill="#14366E"/>
</svg>
