<svg width="40" height="40" viewBox="0 0 40 40" fill="none" xmlns="http://www.w3.org/2000/svg">
<rect x="0.5" y="0.5" width="39" height="39" rx="3.5" fill="white"/>
<rect x="0.5" y="0.5" width="39" height="39" rx="3.5" stroke="#DBD9D7"/>
<path d="M21.5305 18.7116V14.2401L22.6982 13.9636V14.5491C22.6982 14.5491 23.0001 13.7784 23.7013 13.5993C23.9173 13.545 24.026 13.5776 24.026 13.5776V14.7183C23.8159 14.7211 23.6083 14.7644 23.4145 14.8458C22.9817 15.0164 22.7643 15.3897 22.7643 15.9568V18.4257L21.5305 18.7116ZM15.3777 20.1656C15.3777 20.1656 15.1887 19.8821 15.1887 18.8746V16.6486L14.5876 16.7903V15.8741L15.1892 15.7323V14.7324L16.4305 14.4395V15.437L17.3075 15.2291V16.1458L16.4305 16.3542V18.6223C16.4305 19.6529 16.7041 19.8509 16.7041 19.8509L15.3777 20.1656ZM17.437 17.5057C17.437 16.7105 17.5504 16.1307 17.7933 15.6855C18.082 15.1572 18.5569 14.8132 19.2477 14.6559C20.6091 14.3464 21.1001 15.1525 21.0807 16.2327C21.0745 16.6188 21.076 16.8073 21.076 16.8073L18.6774 17.3711V17.4098C18.6774 18.1658 18.8362 18.5236 19.3144 18.4215C19.7274 18.3345 19.8422 18.0756 19.8748 17.7562C19.8805 17.7037 19.8823 17.5728 19.8823 17.5728L21.0065 17.3035C21.0065 17.3035 21.0093 17.3956 21.0065 17.4982C20.9961 17.9277 20.8714 18.9928 19.3096 19.3614C17.8306 19.7124 17.4356 18.809 17.4356 17.5057H17.437ZM19.2959 15.4885C18.8985 15.5787 18.6901 15.9686 18.6816 16.6145L19.8885 16.3272C19.8909 16.2979 19.8909 16.2327 19.8909 16.1325C19.8885 15.6454 19.7378 15.3883 19.2964 15.4885H19.2959ZM28.2249 14.8907C28.1776 13.5289 28.5311 12.4477 30.0503 12.1028C31.0199 11.8826 31.3871 12.134 31.5733 12.3773C31.7523 12.6098 31.8213 12.9231 31.8213 13.3621V13.4434L30.6315 13.7269V13.561C30.6315 13.0412 30.4897 12.8428 30.1117 12.9373C29.6623 13.0502 29.4809 13.4764 29.4809 14.3251V14.7206C29.4809 15.583 29.599 15.978 30.1164 15.8693C30.5663 15.7748 30.6277 15.3817 30.6362 15.0358C30.6362 14.9815 30.6395 14.8076 30.6395 14.8076L31.8275 14.5278V14.7126C31.8242 15.8429 31.2283 16.5555 30.1112 16.8154C28.5741 17.1764 28.2726 16.2866 28.2254 14.8907H28.2249ZM24.1153 16.7969C24.1153 15.7611 24.723 15.4337 25.6364 15.0561C26.4572 14.7164 26.4746 14.5477 26.4784 14.2528C26.4827 14.0047 26.3678 13.7916 25.9586 13.8961C25.583 13.9906 25.4833 14.2637 25.4634 14.481C25.4565 14.5574 25.454 14.6341 25.4559 14.7107L24.3043 14.9824C24.2965 14.7529 24.3233 14.5235 24.3837 14.302C24.568 13.6825 25.1147 13.2657 26.0569 13.0479C27.2817 12.7643 27.6905 13.303 27.6924 14.1394V16.1198C27.6924 17.0776 27.87 17.2175 27.87 17.2175L26.7393 17.4854C26.6768 17.3547 26.6258 17.2187 26.5871 17.079C26.5871 17.079 26.34 17.7023 25.4866 17.9036C24.5888 18.1143 24.1162 17.5596 24.1162 16.7974L24.1153 16.7969ZM26.4718 15.3831C26.2811 15.5168 26.0798 15.6345 25.8698 15.7351C25.4918 15.9199 25.3221 16.1467 25.3221 16.4964C25.3221 16.7993 25.5111 16.9987 25.8514 16.9136C26.2176 16.822 26.4718 16.4803 26.4718 16.0064V15.3831ZM8.88889 23.2999C8.75985 23.2996 8.63326 23.2646 8.52246 23.1984C8.41166 23.1323 8.32074 23.0375 8.25927 22.924C8.19779 22.8106 8.16805 22.6827 8.17316 22.5537C8.17827 22.4248 8.21804 22.2996 8.2883 22.1913L8.29586 22.1814L8.30956 22.1781L9.9965 21.7798V23.0617L9.97004 23.0679C9.58729 23.16 9.12988 23.2645 9.03537 23.2838C8.98698 23.2947 8.93753 23.3001 8.88794 23.2999H8.88889ZM8.88889 24.9401C8.69931 24.9401 8.51746 24.8649 8.38318 24.7311C8.2489 24.5973 8.17316 24.4156 8.17253 24.2261C8.17177 24.0877 8.21206 23.9522 8.2883 23.8367L8.29586 23.8239L8.30956 23.8211L9.9965 23.4228V24.7047L9.97004 24.7118C9.58729 24.8035 9.12988 24.9098 9.03537 24.9283C8.98681 24.9378 8.93743 24.9425 8.88794 24.9424L8.88889 24.9401ZM8.88889 26.5831C8.69886 26.5829 8.51665 26.5074 8.38232 26.3729C8.24799 26.2385 8.17253 26.0563 8.17253 25.8662C8.17177 25.7278 8.21206 25.5923 8.2883 25.4769L8.29586 25.4636L9.99698 25.0629V26.3449L9.97051 26.3515C9.5665 26.4489 9.11712 26.5505 9.03585 26.5689C8.98725 26.5782 8.93789 26.5829 8.88842 26.5831" fill="#231F20"/>
<path d="M8.69042 21.7287L8.68995 14.5562L9.99744 14.2471V21.4192L8.69042 21.7287Z" fill="#231F20"/>
<path d="M11.9476 21.1187C11.9425 20.9081 11.8552 20.7078 11.7045 20.5607C11.5537 20.4135 11.3514 20.3312 11.1407 20.3312C10.9301 20.3312 10.7278 20.4135 10.577 20.5607C10.4262 20.7078 10.339 20.9081 10.3339 21.1187V27.823C10.3349 28.402 10.5653 28.957 10.9747 29.3664C11.384 29.7759 11.939 30.0064 12.5179 30.0075C13.1284 30.0075 14.8012 30.0047 14.8012 30.0047V24.0891C14.8015 23.9152 14.7588 23.7439 14.677 23.5905C14.5951 23.437 14.4766 23.3062 14.332 23.2097L12.2963 21.827V24.9665C12.2975 24.9901 12.294 25.0136 12.2858 25.0356C12.2777 25.0577 12.2651 25.0779 12.2489 25.095C12.2327 25.1121 12.2132 25.1256 12.1916 25.1349C12.17 25.1442 12.1467 25.149 12.1231 25.149C12.0996 25.149 12.0763 25.1442 12.0547 25.1349C12.0331 25.1256 12.0136 25.1121 11.9974 25.095C11.9811 25.0779 11.9686 25.0577 11.9604 25.0356C11.9523 25.0136 11.9487 24.9901 11.95 24.9665C11.95 24.933 11.9457 21.5331 11.9457 21.1187H11.9476ZM13.0372 16.117C12.79 16.1741 12.558 16.2839 12.3571 16.4388C12.1562 16.5938 11.991 16.7902 11.8729 17.0148V16.5125L10.6959 16.7913V20.0106C10.9023 19.9292 11.1273 19.9063 11.3459 19.9446C11.5645 19.9829 11.7683 20.0808 11.9348 20.2275V18.1484C11.9348 17.6508 12.1834 17.2529 12.5368 17.175C12.8038 17.1164 13.0259 17.2118 13.0259 17.6858V20.719L14.2654 20.4279V17.2199C14.2654 16.4416 13.9667 15.8968 13.0368 16.117H13.0372ZM31.0573 11.5263C30.9056 11.5264 30.7573 11.4815 30.6311 11.3973C30.5049 11.3132 30.4066 11.1934 30.3484 11.0533C30.2903 10.9132 30.275 10.759 30.3045 10.6103C30.334 10.4615 30.407 10.3248 30.5142 10.2175C30.6213 10.1101 30.7579 10.037 30.9067 10.0073C31.0554 9.97764 31.2097 9.99273 31.3498 10.0507C31.49 10.1087 31.6098 10.2069 31.6942 10.3329C31.7785 10.459 31.8236 10.6073 31.8237 10.7589C31.8233 10.9621 31.7424 11.1567 31.5988 11.3003C31.4551 11.4439 31.2604 11.5247 31.0573 11.5249V11.5263ZM31.0573 10.0879C30.9247 10.0879 30.795 10.1273 30.6848 10.2009C30.5745 10.2746 30.4886 10.3793 30.4378 10.5018C30.3871 10.6243 30.3737 10.759 30.3996 10.8891C30.4254 11.0192 30.4892 11.1386 30.583 11.2324C30.6767 11.3262 30.7961 11.3901 30.9262 11.416C31.0562 11.442 31.191 11.4288 31.3135 11.3781C31.4361 11.3274 31.5408 11.2415 31.6145 11.1313C31.6883 11.0211 31.7277 10.8915 31.7278 10.7589C31.7275 10.5811 31.6568 10.4107 31.5311 10.2849C31.4055 10.1591 31.2351 10.0883 31.0573 10.0879Z" fill="#231F20"/>
<path d="M30.778 10.3029H31.1088C31.2406 10.3029 31.345 10.3686 31.345 10.543C31.345 10.6644 31.2912 10.758 31.1891 10.774C31.2836 10.7835 31.3309 10.8345 31.3351 10.9664C31.3351 11.0254 31.338 11.0991 31.3408 11.1554C31.3408 11.1714 31.3448 11.1872 31.3526 11.2013C31.3604 11.2153 31.3716 11.2272 31.3852 11.2357H31.217C31.2001 11.2115 31.1911 11.1826 31.1915 11.153C31.1858 11.0968 31.1867 11.0443 31.1849 10.9763C31.1849 10.8742 31.1513 10.8293 31.0483 10.8293H30.9297V11.2357H30.7799L30.778 10.3029ZM31.0469 10.7197C31.0672 10.7216 31.0877 10.7189 31.1069 10.7119C31.126 10.7049 31.1434 10.6936 31.1577 10.6791C31.172 10.6645 31.1828 10.6469 31.1895 10.6277C31.1962 10.6084 31.1985 10.5878 31.1962 10.5675C31.1962 10.4678 31.1537 10.4159 31.0544 10.4159H30.9297V10.7197H31.0469Z" fill="#231F20"/>
</svg>
