<svg width="40" height="40" viewBox="0 0 40 40" fill="none" xmlns="http://www.w3.org/2000/svg">
<rect width="40" height="40" rx="4" fill="black"/>
<rect x="0.5" y="0.5" width="39" height="39" rx="3.5" stroke="white" stroke-opacity="0.01"/>
<path d="M12.0555 11.5908H18.5748C19.4849 11.5908 20.0509 12.3543 19.8386 13.2943L16.8034 26.7089C16.5892 27.6456 15.678 28.4098 14.7673 28.4098H8.24861C7.33983 28.4098 6.77255 27.6456 6.98484 26.7089L10.0213 13.2943C10.2336 12.3543 11.1443 11.5908 12.0555 11.5908Z" fill="white"/>
<path d="M18.032 11.59H25.5291C26.439 11.59 26.0287 12.3536 25.8146 13.2935L22.7799 26.7082C22.567 27.6449 22.6334 28.4091 21.7216 28.4091H14.2245C13.3127 28.4091 12.7484 27.6449 12.9626 26.7082L15.9972 13.2935C16.2127 12.3536 17.1215 11.59 18.032 11.59Z" fill="white"/>
<path d="M25.2318 11.59H31.7512C32.6625 11.59 33.2285 12.3536 33.0145 13.2935L29.9797 26.7082C29.7655 27.6449 28.8537 28.4091 27.9426 28.4091H21.4262C20.5144 28.4091 19.9489 27.6449 20.1625 26.7082L23.1977 13.2935C23.41 12.3536 24.32 11.59 25.2318 11.59Z" fill="white"/>
<path d="M13.7578 15.889C13.0874 15.896 12.8894 15.889 12.8261 15.8736C12.8018 15.9925 12.3494 18.1408 12.3481 18.1426C12.2507 18.5772 12.1799 18.887 11.9391 19.0871C11.8025 19.2034 11.6429 19.2595 11.458 19.2595C11.1606 19.2595 10.9874 19.1075 10.9584 18.8193L10.9528 18.7203C10.9528 18.7203 11.0434 18.1382 11.0434 18.1349C11.0434 18.1349 11.5182 16.1772 11.6032 15.9184C11.6076 15.9037 11.6089 15.896 11.61 15.889C10.6858 15.8973 10.522 15.889 10.5107 15.8736C10.5045 15.8947 10.4816 16.0161 10.4816 16.0161L9.99683 18.2226L9.9552 18.4097L9.87463 19.0218C9.87463 19.2034 9.90927 19.3516 9.97824 19.4769C10.1991 19.8742 10.8292 19.9338 11.1856 19.9338C11.6448 19.9338 12.0756 19.8333 12.3667 19.65C12.872 19.3426 13.0042 18.8622 13.1222 18.4352L13.1768 18.2162C13.1768 18.2162 13.6659 16.1829 13.749 15.9184C13.7522 15.9037 13.7535 15.896 13.7578 15.889ZM15.4219 17.5292C15.304 17.5292 15.0885 17.5587 14.895 17.6563C14.8248 17.6935 14.7583 17.7363 14.6883 17.779L14.7515 17.544L14.7169 17.5044C14.3064 17.5899 14.2146 17.6014 13.8354 17.6563L13.8036 17.6781C13.7596 18.0538 13.7205 18.3363 13.5573 19.0749C13.4952 19.3471 13.4307 19.6219 13.366 19.8934L13.3835 19.9279C13.772 19.9068 13.8899 19.9068 14.2276 19.9126L14.2549 19.882C14.2978 19.6558 14.3034 19.6028 14.3984 19.1446C14.4431 18.9273 14.5362 18.45 14.5821 18.2801C14.6665 18.2398 14.7498 18.2002 14.8292 18.2002C15.0185 18.2002 14.9954 18.3702 14.9881 18.4379C14.98 18.5516 14.9111 18.9229 14.8403 19.2417L14.7931 19.4475C14.7603 19.5995 14.7242 19.7472 14.6913 19.8978L14.7056 19.9279C15.0885 19.9068 15.2053 19.9068 15.5324 19.9126L15.5708 19.882C15.6299 19.5287 15.6473 19.4341 15.7521 18.9197L15.8049 18.6833C15.9074 18.2207 15.9589 17.9861 15.8813 17.7951C15.7993 17.5809 15.6026 17.5292 15.4219 17.5292ZM17.281 18.0136C17.0774 18.0538 16.9476 18.0806 16.8186 18.098C16.6906 18.1191 16.5659 18.1382 16.3692 18.1664L16.3536 18.1809L16.3393 18.1925C16.3188 18.3434 16.3045 18.4737 16.2773 18.627C16.2543 18.7855 16.2189 18.9656 16.1612 19.2244C16.1165 19.4225 16.0935 19.4915 16.0681 19.5612C16.0433 19.6309 16.0159 19.6986 15.9657 19.8934L15.9775 19.9114L15.9873 19.9279C16.1712 19.9189 16.2915 19.9126 16.4151 19.9114C16.5386 19.9068 16.6665 19.9114 16.8645 19.9126L16.8818 19.898L16.9004 19.882C16.929 19.7063 16.9333 19.659 16.9508 19.5733C16.9681 19.4814 16.998 19.3541 17.0712 19.0142C17.1059 18.8545 17.1445 18.6954 17.1804 18.5324C17.2177 18.3702 17.2568 18.2104 17.294 18.0507L17.2884 18.0314L17.281 18.0136ZM17.2853 17.3605C17.1004 17.2482 16.7757 17.2838 16.5572 17.4391C16.3394 17.5912 16.3146 17.8071 16.4989 17.921C16.6807 18.0302 17.0066 17.9977 17.2232 17.8411C17.4406 17.6857 17.4677 17.4718 17.2853 17.3605ZM18.4039 19.9631C18.7781 19.9631 19.1617 19.857 19.4505 19.5419C19.6726 19.2864 19.7745 18.9063 19.8097 18.7497C19.9246 18.2309 19.8352 17.9886 19.7228 17.8411C19.5522 17.6161 19.2506 17.544 18.9377 17.544C18.7495 17.544 18.3014 17.5631 17.9514 17.8954C17.7 18.135 17.5838 18.4602 17.5137 18.772C17.443 19.0896 17.3617 19.6615 17.8725 19.8743C18.0302 19.944 18.2574 19.9631 18.4039 19.9631ZM18.3747 18.7957C18.461 18.4028 18.5628 18.073 18.8228 18.073C19.0265 18.073 19.0413 18.3184 18.9507 18.7126C18.9345 18.8001 18.8601 19.1255 18.7595 19.264C18.6893 19.3663 18.6062 19.4282 18.5144 19.4282C18.487 19.4282 18.3245 19.4282 18.3219 19.1798C18.3207 19.0571 18.345 18.9318 18.3747 18.7957ZM20.7452 19.9126L20.7745 19.882C20.8159 19.6558 20.8228 19.6026 20.9146 19.1446C20.9605 18.9274 21.0556 18.4501 21.1002 18.2801C21.1847 18.2397 21.2666 18.2001 21.3486 18.2001C21.5366 18.2001 21.5137 18.3701 21.5062 18.4378C21.4994 18.5517 21.4304 18.9228 21.3584 19.2416L21.3138 19.4474C21.2796 19.5995 21.2424 19.7471 21.2095 19.8979L21.2238 19.928C21.6081 19.9069 21.7204 19.9069 22.0493 19.9126L22.0891 19.882C22.1467 19.5285 22.1623 19.434 22.2704 18.9197L22.3219 18.6832C22.4248 18.2206 22.477 17.9862 22.4007 17.7951C22.3163 17.581 22.1183 17.5293 21.9402 17.5293C21.8221 17.5293 21.6055 17.5586 21.4131 17.6564C21.3443 17.6935 21.2753 17.7362 21.2076 17.7791L21.2666 17.544L21.235 17.5043C20.8247 17.59 20.7309 17.6014 20.3522 17.6564L20.3232 17.6781C20.2772 18.0539 20.2399 18.3362 20.0767 19.0749C20.0146 19.3471 19.9501 19.6219 19.8855 19.8935L19.9029 19.928C20.292 19.9069 20.4082 19.9069 20.7452 19.9126ZM23.5682 19.9279C23.5924 19.8065 23.7359 19.0871 23.7371 19.0871C23.7371 19.0871 23.8593 18.5593 23.8668 18.5401C23.8668 18.5401 23.9053 18.4852 23.9437 18.4634H24.0003C24.534 18.4634 25.1368 18.4634 25.6092 18.1057C25.9307 17.8603 26.1504 17.498 26.2485 17.0576C26.2739 16.9497 26.2926 16.8212 26.2926 16.6928C26.2926 16.5242 26.2597 16.3573 26.1647 16.227C25.9238 15.88 25.4441 15.8736 24.8903 15.871C24.8886 15.871 24.6173 15.8736 24.6173 15.8736C23.9084 15.8826 23.6242 15.88 23.5074 15.8653C23.4975 15.9185 23.4789 16.013 23.4789 16.013C23.4789 16.013 23.225 17.2245 23.225 17.2264C23.225 17.2264 22.6173 19.8021 22.5887 19.9235C23.2077 19.9158 23.4614 19.9158 23.5682 19.9279ZM24.0387 17.7759C24.0387 17.7759 24.3087 16.5669 24.3074 16.5715L24.3162 16.5095L24.32 16.4622L24.4279 16.4736C24.4279 16.4736 24.9847 16.5229 24.9977 16.5242C25.2175 16.6117 25.3081 16.8373 25.2448 17.1317C25.1871 17.4008 25.0176 17.627 24.7997 17.7363C24.6203 17.8289 24.4006 17.8366 24.1741 17.8366H24.0276L24.0387 17.7759ZM25.7197 18.8181C25.6483 19.1312 25.5663 19.703 26.0747 19.9069C26.2368 19.9779 26.382 19.999 26.5296 19.9913C26.6855 19.9826 26.83 19.9021 26.9637 19.7863C26.9517 19.8339 26.9396 19.8815 26.9275 19.9293L26.9506 19.9599C27.3162 19.944 27.4297 19.944 27.8258 19.9471L27.8617 19.919C27.9196 19.5689 27.9741 19.229 28.1244 18.5593C28.1976 18.2385 28.2707 17.9209 28.3459 17.6014L28.3341 17.5662C27.9251 17.6443 27.8158 17.6609 27.4223 17.7184L27.3925 17.7434C27.3885 17.7759 27.3844 17.8072 27.3806 17.8384C27.3194 17.7367 27.2307 17.6498 27.0939 17.5957C26.9189 17.5248 26.508 17.6161 26.1548 17.9472C25.9066 18.1836 25.7874 18.5075 25.7197 18.8181ZM26.5787 18.8372C26.6663 18.4513 26.7669 18.1248 27.0275 18.1248C27.1923 18.1248 27.279 18.2814 27.2614 18.5483C27.2474 18.6149 27.2323 18.6851 27.2143 18.7644C27.1883 18.8791 27.16 18.9928 27.1325 19.1066C27.1045 19.1845 27.072 19.2579 27.0362 19.3069C26.9692 19.4047 26.8096 19.4654 26.7178 19.4654C26.6917 19.4654 26.5309 19.4654 26.5253 19.2213C26.5241 19.0998 26.5484 18.9746 26.5787 18.8372ZM31.0647 17.5631L31.033 17.526C30.6283 17.6104 30.5551 17.6238 30.1832 17.6755L30.1559 17.7036C30.1546 17.7082 30.1535 17.7152 30.1516 17.7216L30.1503 17.7152C29.8735 18.3726 29.8816 18.2308 29.6563 18.7484C29.655 18.7248 29.655 18.7101 29.6538 18.6851L29.5973 17.5631L29.5619 17.526C29.138 17.6104 29.1279 17.6238 28.7364 17.6755L28.7059 17.7036C28.7016 17.717 28.7016 17.7317 28.6991 17.7478L28.7016 17.7535C28.7505 18.011 28.7388 17.9536 28.7879 18.3599C28.8108 18.5593 28.8413 18.7598 28.8642 18.9568C28.9028 19.2864 28.9244 19.4487 28.9716 19.9517C28.7072 20.4008 28.6446 20.5708 28.39 20.965L28.3917 20.969L28.2125 21.2608C28.192 21.2915 28.1734 21.3126 28.1473 21.3216C28.1187 21.3362 28.0816 21.3388 28.0299 21.3388H27.9306L27.783 21.8443L28.2894 21.8533C28.5867 21.8519 28.7736 21.7088 28.8742 21.5164L29.1926 20.9547H29.1875L29.2211 20.9151C29.4353 20.4404 31.0647 17.5631 31.0647 17.5631ZM25.7197 24.2015H25.5048L26.3 21.4941H26.5638L26.6475 21.2152L26.6556 21.5254C26.6458 21.7171 26.7923 21.887 27.1771 21.8589H27.6222L27.7754 21.3376H27.6079C27.5116 21.3376 27.467 21.3125 27.4725 21.2589L27.4644 20.9434H26.6402V20.945C26.3737 20.9507 25.5779 20.9713 25.4168 21.0155C25.2218 21.0672 25.0164 21.2193 25.0164 21.2193L25.0971 20.9401H24.3261L24.1654 21.4941L23.3596 24.2429H23.2033L23.0499 24.7604H24.5856L24.5341 24.933H25.2908L25.341 24.7604H25.5533L25.7197 24.2015ZM25.0896 22.0442C24.9662 22.0794 24.7364 22.1861 24.7364 22.1861L24.9407 21.4941H25.5533L25.4055 21.9983C25.4055 21.9983 25.2163 22.0097 25.0896 22.0442ZM25.1014 23.0327C25.1014 23.0327 24.9089 23.0576 24.7823 23.087C24.6576 23.126 24.4237 23.2487 24.4237 23.2487L24.6347 22.5286H25.2504L25.1014 23.0327ZM24.7581 24.2079H24.1437L24.3218 23.6002H24.9344L24.7581 24.2079ZM26.238 22.5286H27.1237L26.9964 22.9529H26.0989L25.9642 23.4168H26.7495L26.1548 24.2787C26.1132 24.342 26.0759 24.3644 26.0344 24.3822C25.9928 24.404 25.9381 24.4295 25.8749 24.4295H25.657L25.5073 24.9376H26.0771C26.3733 24.9376 26.5483 24.7989 26.6775 24.6168L27.0852 24.0423L27.1728 24.6256C27.1914 24.7349 27.2677 24.7989 27.3193 24.8237C27.3763 24.8532 27.4353 24.9037 27.5186 24.9113C27.6079 24.9152 27.6724 24.9183 27.7153 24.9183H27.9953L28.1634 24.3497H28.053C27.9896 24.3497 27.8804 24.3387 27.8618 24.3183C27.8432 24.2934 27.8432 24.2551 27.8332 24.1969L27.7444 23.6123H27.3806L27.5402 23.4168H28.4359L28.5737 22.9529H27.7444L27.8736 22.5286H28.7003L28.8537 22.0053H26.3888L26.238 22.5286ZM18.757 24.326L18.9638 23.6181H19.8134L19.9687 23.0915H19.1182L19.2481 22.6557H20.0791L20.2331 22.1459H18.1537L18.0029 22.6557H18.4753L18.3493 23.0915H17.8756L17.7186 23.6271H18.1909L17.9153 24.5637C17.8781 24.6877 17.9328 24.735 17.9674 24.7925C18.0029 24.8487 18.0388 24.8858 18.1195 24.9069C18.2028 24.926 18.2598 24.9375 18.3374 24.9375H19.2952L19.4659 24.3542L19.0413 24.4142C18.9593 24.4142 18.7322 24.4041 18.757 24.326ZM18.8545 20.9369L18.6392 21.3375C18.5931 21.425 18.5516 21.4793 18.5143 21.5043C18.4814 21.5254 18.4162 21.5343 18.3218 21.5343H18.2095L18.0593 22.0468H18.4324C18.6118 22.0468 18.7496 21.979 18.8154 21.9452C18.8861 21.9063 18.9047 21.9285 18.9594 21.8742L19.0854 21.7618H20.2505L20.4051 21.2282H19.5522L19.7011 20.9369H18.8545ZM20.5745 24.3363C20.5547 24.3069 20.569 24.255 20.5993 24.1471L20.9178 23.062H22.0506C22.2157 23.0596 22.3349 23.0576 22.4124 23.0519C22.4957 23.0429 22.5863 23.0123 22.6849 22.9574C22.7868 22.8998 22.8389 22.8391 22.8829 22.7694C22.932 22.6999 23.0109 22.5478 23.0785 22.3132L23.4788 20.9401L22.3033 20.9471C22.3033 20.9471 21.9413 21.0021 21.7819 21.0628C21.6211 21.1305 21.3913 21.3196 21.3913 21.3196L21.4974 20.9432H20.7713L19.7546 24.4142C19.7185 24.549 19.6944 24.6468 19.6888 24.7055C19.6869 24.7688 19.7663 24.8315 19.8178 24.8787C19.8787 24.926 19.9686 24.9183 20.0549 24.926C20.1457 24.933 20.2747 24.9375 20.4528 24.9375H21.0109L21.1822 24.342L20.6826 24.3906C20.6292 24.3906 20.5906 24.3612 20.5745 24.3363ZM21.1232 22.3292H22.3131L22.2375 22.5733C22.2268 22.579 22.2014 22.5612 22.0803 22.5759H21.05L21.1232 22.3292ZM21.3616 21.5107H22.5615L22.4752 21.8046C22.4752 21.8046 21.9096 21.7989 21.8191 21.8161C21.4205 21.8871 21.1877 22.1063 21.1877 22.1063L21.3616 21.5107ZM22.2641 23.3906C22.2542 23.427 22.2387 23.4493 22.2169 23.466C22.1928 23.482 22.1537 23.4877 22.0953 23.4877H21.9258L21.9358 23.1905H21.2306L21.202 24.6436C21.2009 24.7484 21.2107 24.8091 21.2852 24.8577C21.3598 24.9184 21.5894 24.9261 21.8985 24.9261H22.3404L22.4999 24.3822L22.1152 24.4039L21.9873 24.4116C21.9698 24.4039 21.9531 24.3969 21.9345 24.3777C21.9183 24.3612 21.891 24.3714 21.8954 24.2665L21.8985 23.894L22.3019 23.8769C22.5198 23.8769 22.6129 23.8039 22.6923 23.7344C22.7681 23.6678 22.7929 23.5913 22.8215 23.4877L22.8892 23.1579H22.3348L22.2641 23.3906Z" fill="black"/>
</svg>
