<svg width="45" height="45" viewBox="0 0 45 45" fill="none" xmlns="http://www.w3.org/2000/svg">
<path d="M0 4C0 1.79086 1.79086 0 4 0H41C43.2091 0 45 1.79086 45 4V41C45 43.2091 43.2091 45 41 45H4C1.79086 45 0 43.2091 0 41V4Z" fill="white"/>
<path d="M0 4C0 1.79086 1.79086 0 4 0H41C43.2091 0 45 1.79086 45 4V41C45 43.2091 43.2091 45 41 45H4C1.79086 45 0 43.2091 0 41V4Z" fill="black"/>
<path d="M40.1506 21.2898V20.078H38.7034V18.4981H37.3037V24.2582C37.3037 24.7874 37.4368 25.1908 37.6994 25.457C37.9618 25.7235 38.3708 25.8586 38.915 25.8586H40.1506V24.6468H39.2465C39.0498 24.6468 38.9087 24.6035 38.827 24.5181C38.752 24.44 38.7034 24.2426 38.7034 24.0154V21.2898H40.1506Z" fill="white"/>
<path d="M20.7557 20.0779L19.3085 24.289L17.8613 20.0779H16.3909L18.48 25.8091H20.137L22.2261 20.0779H20.7557Z" fill="white"/>
<path d="M30.2155 18H28.8158V25.8091H30.2155V18Z" fill="white"/>
<path d="M35.0221 22.949C35.0221 23.3118 34.9671 23.6275 34.8587 23.8871C34.7511 24.1454 34.5971 24.3434 34.4007 24.4755C34.2043 24.6076 33.9628 24.6746 33.6832 24.6746C33.283 24.6746 32.9811 24.5431 32.7857 24.2839C32.5884 24.0219 32.4884 23.6248 32.4884 23.1037V20.0781H31.0887V23.2584C31.0887 23.7536 31.1506 24.1736 31.2729 24.5066C31.3951 24.8407 31.5631 25.1124 31.7722 25.3141C31.9811 25.5156 32.225 25.6611 32.4972 25.7468C32.768 25.832 33.0592 25.8751 33.3629 25.8751C33.8005 25.8751 34.1628 25.7958 34.4391 25.6392C34.6912 25.496 34.9024 25.3286 35.0679 25.1409L35.1933 25.809H36.4218V20.0781H35.0221V22.949Z" fill="white"/>
<path d="M26.6764 20.3804C26.2353 20.1358 25.7116 20.0119 25.1199 20.0119C24.5354 20.0119 24.0136 20.1358 23.5689 20.3803C23.1236 20.6254 22.7738 20.9715 22.529 21.4091C22.2846 21.8462 22.1607 22.3644 22.1607 22.949C22.1607 23.5265 22.2846 24.041 22.529 24.4782C22.7736 24.9156 23.1235 25.2616 23.5689 25.5067C24.0136 25.7512 24.5354 25.8751 25.1199 25.8751C25.7116 25.8751 26.2353 25.7512 26.6764 25.5067C27.118 25.2617 27.466 24.9156 27.7107 24.4782C27.9552 24.0408 28.0792 23.5263 28.0792 22.949C28.0792 22.3646 27.9552 21.8464 27.7107 21.409C27.4658 20.9714 27.1179 20.6253 26.6764 20.3804ZM25.937 24.4752C25.7115 24.6221 25.4366 24.6966 25.12 24.6966C24.8106 24.6966 24.5374 24.6221 24.3082 24.4752C24.0785 24.3281 23.8984 24.1205 23.7727 23.8582C23.6465 23.5955 23.5824 23.2897 23.5824 22.949C23.5824 22.6013 23.6464 22.2937 23.7727 22.0347C23.8983 21.7758 24.0786 21.5682 24.3085 21.4174C24.5377 21.2668 24.8107 21.1904 25.1199 21.1904C25.4364 21.1904 25.7112 21.2668 25.9367 21.4172C26.1629 21.5681 26.3414 21.7758 26.4673 22.0347C26.5934 22.2944 26.6574 22.602 26.6574 22.949C26.6574 23.2889 26.5934 23.5949 26.4673 23.8582C26.3414 24.1206 26.163 24.3282 25.937 24.4752Z" fill="white"/>
<path d="M5.95459 19.9272H4.5V25.8091H5.95459V19.9272Z" fill="white"/>
<path d="M10.5163 20.2637C10.5163 19.0156 9.49996 18.0002 8.25063 18.0002H4.50018V19.2563H8.07232C8.6377 19.2563 9.10604 19.7005 9.11639 20.2464C9.12155 20.5198 9.01897 20.7777 8.82752 20.9728C8.636 21.168 8.3801 21.2755 8.10698 21.2755H6.71546C6.66605 21.2755 6.62584 21.3156 6.62584 21.3651V22.4815C6.62584 22.5004 6.6317 22.5186 6.64274 22.5339L9.00368 25.8093H10.7319L8.3655 22.5249C9.55724 22.4651 10.5163 21.4638 10.5163 20.2637Z" fill="white"/>
<path d="M14.989 20.347C14.57 20.1246 14.0724 20.0119 13.5102 20.0119C12.9473 20.0119 12.444 20.1359 12.0143 20.3805C11.5838 20.6254 11.2452 20.9716 11.0078 21.4094C10.7706 21.8461 10.6505 22.3679 10.6505 22.9602C10.6505 23.5375 10.7725 24.0518 11.0133 24.4891C11.2547 24.9273 11.6029 25.2716 12.048 25.5124C12.4923 25.7531 13.0251 25.8752 13.6317 25.8752C14.113 25.8752 14.5451 25.785 14.9162 25.6071C15.2873 25.4287 15.5903 25.1858 15.8168 24.885C16.032 24.5992 16.1771 24.2759 16.2481 23.9242L16.2558 23.8866H14.8638L14.8573 23.9092C14.7806 24.1715 14.632 24.3788 14.4152 24.5254C14.1825 24.683 13.8967 24.763 13.5657 24.763C13.285 24.763 13.0316 24.7028 12.8125 24.5843C12.5944 24.4664 12.4239 24.2978 12.3057 24.083C12.1872 23.8675 12.1197 23.6082 12.1053 23.3139V23.2678H16.3097L16.3144 23.2421C16.3291 23.1615 16.3385 23.0783 16.3426 22.9947C16.3461 22.9133 16.3481 22.8319 16.3481 22.7498C16.3406 22.1945 16.2165 21.7061 15.9792 21.298C15.7411 20.8894 15.4079 20.5694 14.989 20.347ZM14.479 21.4263C14.7181 21.6275 14.8669 21.9135 14.9214 22.2769H12.1536C12.1852 22.0411 12.2635 21.8369 12.3865 21.6694C12.5155 21.4937 12.6808 21.3557 12.8778 21.2592C13.075 21.1623 13.2915 21.1131 13.5213 21.1131C13.9096 21.1131 14.2318 21.2185 14.479 21.4263Z" fill="white"/>
</svg>
