<svg width="40" height="40" viewBox="0 0 40 40" fill="none" xmlns="http://www.w3.org/2000/svg">
<rect width="40" height="40" rx="4" fill="#5A31F4"/>
<rect x="0.5" y="0.5" width="39" height="39" rx="3.5" stroke="white" stroke-opacity="0.01"/>
<path d="M22.1414 17.9371C22.1414 19.4332 21.0925 20.5012 19.6268 20.5012H18.2458C18.2306 20.5012 18.2155 20.5042 18.2014 20.5101C18.1873 20.5159 18.1746 20.5245 18.1638 20.5353C18.153 20.5461 18.1445 20.5589 18.1387 20.573C18.133 20.5871 18.13 20.6022 18.1301 20.6175V22.5838C18.1301 22.6146 18.1179 22.6441 18.0962 22.6659C18.0745 22.6876 18.0451 22.7 18.0144 22.7001H17.0481C17.0251 22.7 17.0026 22.6931 16.9836 22.6803C16.9645 22.6675 16.9496 22.6494 16.9408 22.6282C16.9349 22.6143 16.9319 22.5994 16.9318 22.5844V15.4887C16.9317 15.4735 16.9346 15.4584 16.9404 15.4443C16.9462 15.4302 16.9547 15.4173 16.9655 15.4065C16.9762 15.3957 16.989 15.3871 17.0031 15.3813C17.0172 15.3754 17.0322 15.3724 17.0475 15.3724H19.6329C21.0925 15.3708 22.1414 16.4387 22.1414 17.9371ZM20.9363 17.9371C20.9363 17.077 20.3498 16.4483 19.5543 16.4483H18.2458C18.2306 16.4483 18.2155 16.4513 18.2014 16.4572C18.1873 16.463 18.1746 16.4716 18.1638 16.4824C18.153 16.4932 18.1445 16.506 18.1387 16.5201C18.133 16.5342 18.13 16.5493 18.1301 16.5646V19.3029C18.1301 19.3335 18.1423 19.363 18.164 19.3847C18.1857 19.4064 18.2151 19.4186 18.2458 19.4186H19.5543C20.3498 19.4242 20.9363 18.795 20.9363 17.9371ZM22.4279 21.3388C22.4179 21.1094 22.4654 20.8811 22.5661 20.6746C22.6667 20.4682 22.8174 20.2902 23.0044 20.1568C23.3813 19.8731 23.9707 19.7265 24.8359 19.6961L25.7572 19.6635V19.3916C25.7572 18.8467 25.392 18.6163 24.8055 18.6163C24.219 18.6163 23.8471 18.8242 23.7617 19.1641C23.7547 19.188 23.74 19.2089 23.7199 19.2235C23.6997 19.2382 23.6753 19.2457 23.6504 19.245H22.7403C22.7235 19.2454 22.7069 19.2422 22.6915 19.2355C22.6762 19.2288 22.6625 19.2188 22.6514 19.2062C22.6404 19.1936 22.6322 19.1787 22.6276 19.1626C22.623 19.1464 22.6219 19.1295 22.6246 19.113C22.7594 18.3073 23.4296 17.695 24.8471 17.695C26.355 17.695 26.8994 18.3972 26.8994 19.7377V22.5838C26.8991 22.6149 26.8865 22.6445 26.8644 22.6663C26.8423 22.6881 26.8124 22.7003 26.7814 22.7001H25.864C25.8333 22.7 25.8038 22.6879 25.7819 22.6664C25.7712 22.6556 25.7627 22.6428 25.7569 22.6287C25.7511 22.6147 25.7482 22.5996 25.7482 22.5844V22.3715C25.7486 22.3539 25.7436 22.3366 25.7339 22.3219C25.7242 22.3072 25.7103 22.2958 25.694 22.2891C25.6777 22.2825 25.6597 22.281 25.6425 22.2847C25.6254 22.2885 25.6097 22.2974 25.5977 22.3102C25.3224 22.6097 24.878 22.826 24.1662 22.826C23.119 22.826 22.4279 22.281 22.4279 21.3388ZM25.7572 20.722V20.5012L24.5639 20.5641C23.9353 20.5961 23.5695 20.8574 23.5695 21.2973C23.5695 21.695 23.9049 21.9153 24.4909 21.9153C25.287 21.9153 25.7572 21.4855 25.7572 20.722ZM27.8207 24.8507V24.026C27.8209 24.0087 27.8249 23.9916 27.8324 23.9761C27.8399 23.9605 27.8507 23.9467 27.8641 23.9358C27.8775 23.9248 27.8932 23.917 27.9099 23.9128C27.9267 23.9086 27.9442 23.9081 27.9612 23.9114C28.1016 23.9378 28.2449 23.9513 28.3882 23.9518C28.6345 23.9638 28.8776 23.8928 29.0788 23.7502C29.28 23.6076 29.4275 23.4017 29.4977 23.1653L29.5573 22.9754C29.5659 22.9499 29.5659 22.9222 29.5573 22.8967L27.6455 17.9865C27.6385 17.9687 27.6361 17.9495 27.6382 17.9305C27.6404 17.9116 27.6471 17.8934 27.6578 17.8776C27.6685 17.8618 27.6829 17.8488 27.6998 17.8398C27.7166 17.8308 27.7354 17.826 27.7544 17.8259H28.6814C28.7051 17.8261 28.7282 17.8335 28.7476 17.847C28.767 17.8605 28.782 17.8796 28.7904 17.9017L30.0888 21.3647C30.0969 21.3877 30.112 21.4076 30.1319 21.4217C30.1518 21.4358 30.1756 21.4434 30.2 21.4434C30.2244 21.4434 30.2482 21.4358 30.2681 21.4217C30.288 21.4076 30.3031 21.3877 30.3112 21.3647L31.4388 17.9113C31.4466 17.8876 31.4617 17.8671 31.4819 17.8526C31.502 17.8381 31.5263 17.8303 31.5512 17.8304H32.5102C32.5294 17.8305 32.5483 17.8352 32.5652 17.8442C32.5822 17.8532 32.5968 17.8662 32.6076 17.882C32.6185 17.8979 32.6254 17.9161 32.6277 17.9352C32.63 17.9543 32.6276 17.9736 32.6208 17.9916L30.5759 23.4445C30.1051 24.7119 29.2977 25.0361 28.409 25.0361C28.2404 25.0406 28.0719 25.0204 27.9089 24.976C27.8819 24.9688 27.8582 24.9523 27.842 24.9294C27.8259 24.9065 27.8184 24.8786 27.8207 24.8507ZM10.7221 14.9634C9.50413 14.9548 8.32916 15.4132 7.43888 16.2444C7.4008 16.2792 7.37707 16.327 7.37229 16.3784C7.36751 16.4298 7.38204 16.4812 7.41303 16.5225L7.96417 17.2753C7.98203 17.3003 8.00518 17.3212 8.03197 17.3364C8.05875 17.3515 8.08854 17.3606 8.11923 17.363C8.14991 17.3654 8.18076 17.3611 8.20958 17.3503C8.23841 17.3395 8.26452 17.3225 8.28608 17.3006C8.60621 16.9805 8.98691 16.7275 9.40594 16.5563C9.82498 16.3851 10.2739 16.2991 10.7266 16.3034C12.6165 16.3034 13.6036 17.7259 13.6036 19.1304C13.6036 20.6574 12.5665 21.7316 11.076 21.7529C9.92432 21.7529 9.05632 20.9894 9.05632 19.981C9.05752 19.7262 9.11524 19.4749 9.22531 19.2451C9.33539 19.0153 9.49507 18.8129 9.69285 18.6523C9.73467 18.6174 9.76109 18.5674 9.76645 18.5132C9.77181 18.459 9.75567 18.4048 9.72151 18.3624L9.14228 17.6309C9.12476 17.6088 9.10299 17.5904 9.07825 17.5768C9.05351 17.5633 9.02631 17.5548 8.99824 17.5519C8.97017 17.549 8.94181 17.5518 8.91483 17.5601C8.88785 17.5683 8.86279 17.5819 8.84115 17.6C8.48542 17.8866 8.19836 18.2492 8.00101 18.6612C7.80367 19.0732 7.70105 19.5241 7.70068 19.981C7.70068 21.7169 9.17599 23.0788 11.0659 23.09H11.0912C13.3351 23.0608 14.9576 21.399 14.9576 19.1276C14.9576 17.1107 13.4721 14.9634 10.7226 14.9634H10.7221Z" fill="white"/>
</svg>
