<svg width="40" height="40" viewBox="0 0 40 40" fill="none" xmlns="http://www.w3.org/2000/svg">
<rect width="40" height="40" rx="4" fill="#E31F28"/>
<path d="M27.5313 19.2344L31.6488 24.2414C32.5045 22.9839 33 21.458 33 19.8095C33 18.0766 32.4445 16.4702 31.4986 15.1744L27.5313 19.2344Z" fill="white"/>
<path d="M15.8581 14.745C18.9322 14.745 21.2518 15.5463 21.492 18.1916L24.7274 14.745H31.1758C29.7683 13.0658 27.6926 12 25.3693 12H12.983C10.6596 12 8.57269 13.0658 7.17641 14.745H15.8581Z" fill="white"/>
<path d="M10.7947 18.0843L9.69496 21.1666H14.1278C15.434 21.1666 15.8356 20.6107 16.1283 19.5449C16.4211 18.4868 15.6892 18.0843 14.7959 18.0843H10.7947Z" fill="white"/>
<path d="M24.7575 24.6592L21.3343 20.2427C20.7 23.2561 18.6281 24.6592 14.7433 24.6592H7C8.40003 26.4573 10.562 27.6074 12.983 27.6074H25.3655C27.7865 27.6074 29.9409 26.4496 31.341 24.6592H24.7575Z" fill="white"/>
</svg>
