<svg width="40" height="40" viewBox="0 0 40 40" fill="none" xmlns="http://www.w3.org/2000/svg">
<rect width="40" height="40" rx="4" fill="#F36805"/>
<path d="M21.233 9.9667C20.8506 9.76498 20.4249 9.65955 19.9926 9.65955C19.5604 9.65955 19.1346 9.76498 18.7523 9.9667C15.0609 12.1372 9.20636 17.7851 8.96272 17.9918L9.98155 19.0549C9.98155 19.0549 10.7641 18.3167 11.8789 17.2978V28.8593H28.1211V17.2978C29.2359 18.3093 29.9964 19.0328 30.0185 19.0549L31.0742 17.9918C30.7937 17.7851 24.9391 12.1372 21.233 9.9667ZM14.4629 23.6913C14.2439 23.6913 14.0298 23.6264 13.8477 23.5047C13.6656 23.383 13.5236 23.2101 13.4398 23.0077C13.356 22.8054 13.334 22.5827 13.3768 22.3679C13.4195 22.1531 13.525 21.9557 13.6799 21.8009C13.8347 21.646 14.0321 21.5405 14.2469 21.4978C14.4617 21.4551 14.6844 21.477 14.8867 21.5608C15.0891 21.6446 15.262 21.7866 15.3837 21.9687C15.5054 22.1508 15.5703 22.3649 15.5703 22.5839C15.5703 22.8776 15.4537 23.1593 15.246 23.367C15.0383 23.5747 14.7566 23.6913 14.4629 23.6913ZM18.1543 23.6913C17.9353 23.6913 17.7212 23.6264 17.5391 23.5047C17.357 23.383 17.215 23.2101 17.1312 23.0077C17.0474 22.8054 17.0255 22.5827 17.0682 22.3679C17.1109 22.1531 17.2164 21.9557 17.3713 21.8009C17.5261 21.646 17.7235 21.5405 17.9383 21.4978C18.1531 21.4551 18.3758 21.477 18.5781 21.5608C18.7805 21.6446 18.9534 21.7866 19.0751 21.9687C19.1968 22.1508 19.2617 22.3649 19.2617 22.5839C19.2617 22.8776 19.1451 23.1593 18.9374 23.367C18.7297 23.5747 18.448 23.6913 18.1543 23.6913ZM21.8457 23.6913C21.6267 23.6913 21.4126 23.6264 21.2305 23.5047C21.0484 23.383 20.9064 23.2101 20.8226 23.0077C20.7388 22.8054 20.7169 22.5827 20.7596 22.3679C20.8023 22.1531 20.9078 21.9557 21.0627 21.8009C21.2175 21.646 21.4149 21.5405 21.6297 21.4978C21.8445 21.4551 22.0672 21.477 22.2695 21.5608C22.4719 21.6446 22.6448 21.7866 22.7665 21.9687C22.8882 22.1508 22.9532 22.3649 22.9532 22.5839C22.9532 22.8776 22.8365 23.1593 22.6288 23.367C22.4211 23.5747 22.1394 23.6913 21.8457 23.6913ZM25.5371 23.6913C25.3181 23.6913 25.104 23.6264 24.9219 23.5047C24.7398 23.383 24.5978 23.2101 24.514 23.0077C24.4302 22.8054 24.4083 22.5827 24.451 22.3679C24.4937 22.1531 24.5992 21.9557 24.7541 21.8009C24.9089 21.646 25.1063 21.5405 25.3211 21.4978C25.5359 21.4551 25.7586 21.477 25.9609 21.5608C26.1633 21.6446 26.3362 21.7866 26.4579 21.9687C26.5796 22.1508 26.6446 22.3649 26.6446 22.5839C26.6446 22.8776 26.5279 23.1593 26.3202 23.367C26.1125 23.5747 25.8308 23.6913 25.5371 23.6913V23.6913Z" fill="white"/>
</svg>
