<svg width="40" height="40" viewBox="0 0 40 40" fill="none" xmlns="http://www.w3.org/2000/svg">
<rect x="0.5" y="0.5" width="39" height="39" rx="3.5" fill="white"/>
<rect x="0.5" y="0.5" width="39" height="39" rx="3.5" stroke="#DBD9D7"/>
<path fill-rule="evenodd" clip-rule="evenodd" d="M17.5327 18.4061H18.6393L18.8172 17.4956H17.7104L17.5327 18.4061ZM17.4179 18.9917H18.5248L17.8217 22.5868C17.7704 22.6049 17.6119 22.6689 17.3931 22.6689C17.0979 22.6689 16.827 22.552 16.827 22.1376C16.827 22.0597 16.8359 21.9709 16.8556 21.87C17.0755 20.7482 17.4179 18.9917 17.4179 18.9917ZM28.4082 18.9096C27.6715 18.9096 27.3787 19.3478 27.2412 19.6145H27.2282L27.2706 18.9925H26.1769C26.1697 19.1292 26.1224 19.5604 26.0522 19.9322C26.0522 19.9322 25.7996 21.2372 25.7519 21.487C25.7154 21.6779 25.6488 21.96 25.6488 22.1238C25.6488 22.4724 25.823 22.669 26.2116 22.669C26.4296 22.669 26.5867 22.6085 26.6439 22.5868L27.0097 20.7145C27.1111 20.1975 27.4793 19.8592 27.917 19.8592C28.2702 19.8592 28.4391 20.1208 28.4391 20.3347C28.4391 20.5208 28.3931 20.7271 28.3575 20.9095L28.2002 21.7113C28.1815 21.8075 28.1414 21.9924 28.1414 22.1374C28.1414 22.4919 28.3382 22.669 28.712 22.669C28.9161 22.669 29.0455 22.6172 29.1371 22.5868L29.4654 20.9084C29.5365 20.5291 29.5628 20.3293 29.5628 20.0879C29.5628 19.3928 29.1626 18.9096 28.4082 18.9096ZM23.4918 19.7789C22.8731 19.7789 22.5304 20.4212 22.5304 20.9937C22.5304 21.4766 22.7452 21.8 23.2334 21.8C23.7852 21.8 24.2172 21.3231 24.2172 20.5091C24.2172 20.1367 24.0219 19.7789 23.4918 19.7789ZM23.1655 22.6691C21.9804 22.6691 21.4134 21.9473 21.4134 21.0274C21.4134 19.7651 22.2668 18.9096 23.5857 18.9096C24.7301 18.9096 25.3377 19.6132 25.3377 20.5169C25.3377 21.8711 24.4262 22.6691 23.1655 22.6691ZM19.0209 21.8035C18.9957 21.9328 18.9797 22.0235 18.9797 22.1349C18.9797 22.547 19.251 22.669 19.5384 22.669C19.7683 22.669 19.9105 22.6051 19.9626 22.5868L20.4947 19.8617L21.3553 19.8616L21.5251 18.9917L20.6647 18.9918L20.7065 18.7776C20.7844 18.3758 20.9706 18.1991 21.2927 18.1991C21.5077 18.1991 21.6817 18.238 21.7422 18.254L21.9041 17.4268C21.8351 17.4091 21.5171 17.33 21.0465 17.33C20.2965 17.33 19.8052 17.7926 19.6599 18.5376L19.5709 18.9917H19.0107L18.8407 19.8616H19.4013C19.4013 19.8616 19.1802 20.9883 19.0209 21.8035ZM16.4729 18.9097C15.9174 18.9097 15.6119 19.3014 15.4924 19.6139H15.4797L15.5224 18.9917H14.4282C14.4185 19.2074 14.3741 19.572 14.2626 20.1454C14.1496 20.7263 14.0395 21.3059 13.9259 21.8699C13.9064 21.9664 13.8977 22.0607 13.8977 22.1405C13.8977 22.436 14.0415 22.6687 14.4662 22.6687C14.6766 22.6687 14.8227 22.6132 14.8929 22.5868L15.2184 20.9201C15.3357 20.2825 15.5487 19.8609 16.1667 19.8609C16.4478 19.8609 16.7148 19.9218 16.7708 19.9385L16.9581 18.9796C16.9177 18.9654 16.7555 18.9097 16.4729 18.9097ZM32.5265 20.4488C32.5858 20.1192 32.397 19.7789 31.9703 19.7789C31.4492 19.7789 31.2204 20.1404 31.1182 20.4488H32.5265ZM33.0204 21.7866C33.0204 22.2866 32.5437 22.67 31.6995 22.67C30.5328 22.67 29.9623 21.9319 29.9623 21.0283C29.9623 20.1313 30.5485 18.9105 31.9795 18.9105C32.9229 18.9105 33.6284 19.3866 33.6284 20.4764C33.6284 20.7444 33.5696 21.0358 33.5444 21.1525H31.0365C31.0323 21.414 31.2493 21.8672 32.1211 21.8672C32.5096 21.8672 32.9495 21.7278 33.0204 21.6923C33.0204 21.7194 33.0204 21.7686 33.0204 21.7866ZM12.5284 20.4488C12.5875 20.1192 12.3987 19.7789 11.972 19.7789C11.451 19.7789 11.2222 20.1404 11.12 20.4488H12.5284ZM13.0223 21.7866C13.0223 22.2866 12.5456 22.67 11.7015 22.67C10.5347 22.67 9.96429 21.9319 9.96429 21.0283C9.96429 20.1313 10.5504 18.9105 11.9815 18.9105C12.9249 18.9105 13.6304 19.3866 13.6304 20.4764C13.6304 20.7444 13.5716 21.0358 13.5463 21.1525H11.0385C11.0343 21.414 11.2512 21.8672 12.123 21.8672C12.5115 21.8672 12.9514 21.7278 13.0223 21.6923C13.0223 21.7194 13.0223 21.7686 13.0223 21.7866ZM6.3716 17.7685H7.48503V21.3429C7.48503 21.8805 7.74843 22.1549 8.1713 22.1549C8.21443 22.1549 8.23986 22.1493 8.24824 22.1472C8.06288 22.4321 7.82258 22.6657 7.2708 22.6657C6.68698 22.6657 6.3716 22.2541 6.3716 21.6364V17.7685Z" fill="#1A1919"/>
<path fill-rule="evenodd" clip-rule="evenodd" d="M7.94927 20.7293C7.84857 20.889 7.79514 21.0739 7.79514 21.2627V21.3489C7.79514 21.7113 7.98785 21.8411 8.19826 21.8411C8.41332 21.8411 8.52845 21.693 8.63407 21.5246C8.81104 21.2426 10.9736 17.7684 10.9736 17.7684H9.81634L7.94927 20.7293Z" fill="#00A3DA"/>
</svg>
