<svg width="40" height="40" viewBox="0 0 40 40" fill="none" xmlns="http://www.w3.org/2000/svg">
<rect width="40" height="40" rx="4" fill="#2F3B96"/>
<rect x="0.5" y="0.5" width="39" height="39" rx="3.5" stroke="white" stroke-opacity="0.01"/>
<path d="M19.3319 18.955L19.0297 20.3876C18.9096 20.9766 18.5492 21.349 17.8284 21.349C16.9876 21.349 16.7667 20.8398 16.9682 20.133C17.2317 19.1108 18.0726 18.7992 19.3319 18.955ZM20.6533 16.8916L19.7504 16.9714L19.4714 18.366C19.1304 18.347 19.0297 18.347 18.6306 18.347C17.3906 18.347 16.2862 18.8562 16.0072 20.057C15.7476 21.1362 16.3676 21.9836 17.7509 21.9836C19.1537 21.9836 19.7737 21.2578 19.9946 20.2546L20.6533 16.8916ZM11.0394 19.012C9.73743 18.8942 8.61756 19.012 8.59431 19.4262C8.57493 20.076 10.7372 19.525 10.6984 20.703C10.6364 22.47 7.61393 22.0596 6.87381 21.843L7.01331 21.311C8.29593 21.5086 9.65606 21.5276 9.69868 20.8398C9.73743 20.095 7.55581 20.76 7.59456 19.563C7.63331 18.6776 8.99731 18.1874 11.2216 18.5028L11.0394 19.012ZM14.5463 20.2128C14.4068 20.9006 13.7868 21.4098 13.0661 21.4098C12.3259 21.4098 12.0043 20.9956 12.1864 20.2128C12.3259 19.506 12.9459 19.0158 13.6899 18.9968C14.3642 18.974 14.7284 19.4642 14.5463 20.2128ZM13.7868 18.385C12.4848 18.385 11.4618 19.1108 11.2022 20.2128C10.9426 21.3148 11.6439 22.0406 12.9266 22.0406C14.2092 22.0406 15.2516 21.2958 15.5112 20.2128C15.7708 19.1298 15.0656 18.385 13.7868 18.385ZM28.7056 22.0178H27.5857C26.4658 20.9386 25.4816 19.7188 24.6407 18.423H25.4622C26.3844 19.6428 28.7056 22.0178 28.7056 22.0178ZM29.8874 14.87L30.4067 13.8098L30.5462 14.889L31.6079 14.5166L30.8717 15.44L31.6738 16.048L30.5927 16.1468L30.5539 17.245L29.9494 16.4204L29.0892 17.207L29.4108 16.1088L28.3878 15.972L29.3682 15.421L28.9691 14.4596L29.8874 14.87ZM32.0729 20.2128C31.9334 20.9196 31.2902 21.4288 30.5694 21.4288C29.8293 21.4288 29.4883 20.9956 29.6898 20.2128C29.8293 19.506 30.4726 18.9968 31.2127 18.974C31.9102 18.974 32.2706 19.4642 32.0729 20.2128ZM31.3096 18.366C29.9882 18.366 28.9458 19.1108 28.6862 20.2128C28.4266 21.311 29.1279 22.0786 30.4493 22.0786C31.7707 22.0786 32.8131 21.3338 33.0727 20.2128C33.3323 19.0918 32.6309 18.366 31.3096 18.366Z" fill="white"/>
<path d="M23.7997 21.7024C25.9232 20.5434 27.7639 18.7764 29.0659 17.245C28.1242 20.114 25.8612 21.6834 23.7997 21.7024Z" fill="#EC2024"/>
<path d="M22.9589 18.917C23.358 18.917 23.5789 19.0538 23.5789 19.3312C23.5789 20.057 22.118 20.019 21.4747 19.8822C21.715 19.2894 22.2962 18.8942 22.9589 18.917ZM24.4624 19.2894C24.4624 18.7574 24.0206 18.366 23.0596 18.366C21.4786 18.366 20.4362 19.3692 20.4362 20.6232C20.4362 21.4288 21.1182 22.0976 22.3776 22.0976C22.8775 22.0976 23.3774 21.9608 23.8191 21.6834C22.7186 21.8012 21.374 21.6834 21.374 20.5434V20.4066C22.8581 20.722 24.4624 20.3496 24.4624 19.2894Z" fill="white"/>
<path d="M11.2639 23.7164V25.4188C11.2639 25.529 11.2871 25.605 11.3297 25.6468C11.3724 25.6886 11.446 25.7114 11.5467 25.7114H12.1784V26.1522H11.322C11.1089 26.1522 10.95 26.0952 10.8415 25.9774C10.733 25.8634 10.6787 25.7 10.6787 25.491V23.7164H11.2639Z" fill="#E9444E"/>
<path d="M12.4537 24.3738H13.0233V25.4834C13.0233 25.5822 13.0427 25.6506 13.0853 25.6848C13.1279 25.719 13.1744 25.738 13.2248 25.738C13.2945 25.738 13.3565 25.7152 13.4108 25.6696C13.465 25.624 13.5154 25.5784 13.5619 25.5328L13.6433 25.453V24.3662H14.2168V26.1446H13.6433V25.833L13.5464 25.9356C13.4767 26.004 13.403 26.061 13.3217 26.1066C13.2403 26.1522 13.1357 26.175 13.0039 26.175C12.845 26.175 12.7133 26.1294 12.6087 26.042C12.504 25.9546 12.4537 25.7988 12.4537 25.5708V24.3738Z" fill="#E9444E"/>
<path d="M14.6661 24.3737H15.2358V24.6929L15.3365 24.5903C15.4024 24.5219 15.476 24.4649 15.5574 24.4193C15.6388 24.3737 15.7473 24.3509 15.879 24.3509C16.0379 24.3509 16.1696 24.3927 16.2743 24.4801C16.3789 24.5675 16.4293 24.7195 16.4293 24.9361V26.1559H15.8596V25.0463C15.8596 24.9475 15.8403 24.8791 15.7976 24.8449C15.755 24.8107 15.7085 24.7917 15.6581 24.7917C15.5884 24.7917 15.5264 24.8145 15.4721 24.8601C15.414 24.9057 15.3636 24.9513 15.321 25.0007L15.2396 25.0767V26.1635H14.6661V24.3737Z" fill="#E9444E"/>
<path d="M16.7859 25.1299C16.7859 24.8639 16.8789 24.6701 17.061 24.5409C17.2432 24.4117 17.4563 24.3509 17.7043 24.3509C17.8205 24.3509 17.9407 24.3623 18.0647 24.3851C18.1887 24.4079 18.2933 24.4421 18.3824 24.4877V25.0349H17.9252V24.8221C17.8903 24.8107 17.8515 24.7993 17.8167 24.7955C17.7779 24.7917 17.743 24.7879 17.7082 24.7879C17.6074 24.7879 17.526 24.8145 17.4602 24.8715C17.3943 24.9285 17.3594 25.0159 17.3594 25.1299V25.3655C17.3594 25.4985 17.3943 25.5935 17.4602 25.6543C17.526 25.7151 17.6229 25.7455 17.7508 25.7455C17.8438 25.7455 17.9445 25.7379 18.0453 25.7189C18.146 25.6999 18.2352 25.6809 18.3204 25.6581H18.3475V26.0685C18.2662 26.1027 18.1654 26.1293 18.0414 26.1483C17.9174 26.1673 17.805 26.1825 17.7004 26.1825C17.4369 26.1825 17.2199 26.1255 17.0494 26.0115C16.8789 25.8975 16.7937 25.7037 16.7937 25.4339V25.1299H16.7859Z" fill="#E9444E"/>
<path d="M18.731 23.7164H19.3006V24.693L19.4014 24.5904C19.4672 24.522 19.5409 24.465 19.6222 24.4194C19.7036 24.3738 19.8121 24.351 19.9439 24.351C20.1027 24.351 20.2345 24.3966 20.3391 24.484C20.4437 24.5714 20.4941 24.7272 20.4941 24.9552V26.156H19.9245V25.0464C19.9245 24.9476 19.9051 24.8792 19.8625 24.845C19.8199 24.8108 19.7734 24.7918 19.723 24.7918C19.6532 24.7918 19.5912 24.8146 19.537 24.8602C19.4789 24.9058 19.4285 24.9514 19.3859 25.0008L19.3045 25.0768V26.1636H18.731V23.7164Z" fill="#E9444E"/>
<path d="M21.8233 23.7164H22.8114C23.102 23.7164 23.3229 23.7848 23.4663 23.9254C23.6097 24.0622 23.6833 24.275 23.6833 24.5638C23.6833 24.8488 23.6019 25.073 23.443 25.2326C23.2842 25.3922 23.0555 25.472 22.761 25.472H22.4045V26.156H21.8233V23.7164ZM22.4007 25.0312H22.6719C22.8424 25.0312 22.9548 24.9894 23.0129 24.9096C23.071 24.8298 23.0982 24.712 23.0982 24.56C23.0982 24.4118 23.0672 24.3054 23.0052 24.2446C22.9432 24.1838 22.8347 24.1534 22.6835 24.1534H22.4007V25.0312Z" fill="#E9444E"/>
<path d="M23.9002 25.2895C23.9002 25.0121 24.0048 24.7917 24.214 24.6245C24.4233 24.4573 24.6558 24.3775 24.9193 24.3775H25.7059V26.1559H25.1363V25.8747L24.9968 25.9811C24.9232 26.0381 24.8418 26.0875 24.7565 26.1255C24.6713 26.1635 24.5667 26.1825 24.4465 26.1825C24.2954 26.1825 24.1637 26.1331 24.059 26.0381C23.9544 25.9431 23.9002 25.7873 23.9002 25.5707V25.2895ZM25.1324 25.4757V24.7917H24.9735C24.8263 24.7917 24.7062 24.8373 24.6132 24.9247C24.5163 25.0121 24.4698 25.1299 24.4698 25.2743V25.4833C24.4698 25.5859 24.4892 25.6543 24.5318 25.6885C24.5744 25.7227 24.6209 25.7417 24.679 25.7417C24.7488 25.7417 24.8147 25.7189 24.8844 25.6695C24.9542 25.6201 25.0084 25.5783 25.051 25.5441L25.1324 25.4757Z" fill="#E9444E"/>
<path d="M26.0818 25.6923H26.109C26.1981 25.7113 26.3027 25.7265 26.4151 25.7379C26.5275 25.7493 26.6243 25.7569 26.7057 25.7569C26.7755 25.7569 26.853 25.7493 26.9382 25.7303C27.0235 25.7113 27.0622 25.6733 27.0622 25.6125C27.0622 25.5707 27.0351 25.5365 26.9847 25.5137C26.9343 25.4909 26.884 25.4757 26.8336 25.4643L26.5546 25.4035C26.4073 25.3693 26.2911 25.3161 26.2058 25.2363C26.1206 25.1565 26.078 25.0463 26.078 24.8981C26.078 24.6929 26.171 24.5523 26.357 24.4725C26.543 24.3927 26.7483 24.3509 26.9692 24.3509C27.0661 24.3509 27.163 24.3585 27.2676 24.3699C27.3722 24.3813 27.4652 24.3965 27.5505 24.4155V24.8259H27.5233C27.442 24.8145 27.3567 24.7993 27.2637 24.7917C27.1746 24.7803 27.0777 24.7765 26.977 24.7765C26.9072 24.7765 26.8375 24.7841 26.7716 24.8031C26.7057 24.8221 26.6708 24.8601 26.6708 24.9171C26.6708 24.9589 26.6941 24.9893 26.7406 25.0083C26.7871 25.0235 26.8336 25.0387 26.8801 25.0501L27.1203 25.1071C27.2598 25.1337 27.3838 25.1869 27.4923 25.2629C27.6008 25.3389 27.6551 25.4605 27.6551 25.6277C27.6551 25.8557 27.5543 26.0077 27.3528 26.0799C27.1513 26.1559 26.9382 26.1901 26.7057 26.1901C26.5933 26.1901 26.4887 26.1863 26.3841 26.1787C26.2795 26.1711 26.1787 26.1559 26.0818 26.1369V25.6923Z" fill="#E9444E"/>
<path d="M27.9071 25.6923H27.9342C28.0233 25.7113 28.128 25.7265 28.2403 25.7379C28.3527 25.7493 28.4496 25.7569 28.5309 25.7569C28.6007 25.7569 28.6782 25.7493 28.7634 25.7303C28.8487 25.7113 28.8875 25.6733 28.8875 25.6125C28.8875 25.5707 28.8603 25.5365 28.8099 25.5137C28.7596 25.4909 28.7092 25.4757 28.6588 25.4643L28.3798 25.4035C28.2326 25.3693 28.1163 25.3161 28.0311 25.2363C27.9458 25.1565 27.9032 25.0463 27.9032 24.8981C27.9032 24.6929 27.9962 24.5523 28.1822 24.4725C28.3682 24.3927 28.5736 24.3509 28.7945 24.3509C28.8913 24.3509 28.9882 24.3585 29.0928 24.3699C29.1975 24.3813 29.2904 24.3965 29.3757 24.4155V24.8259H29.3486C29.2672 24.8145 29.182 24.7993 29.089 24.7917C28.9998 24.7803 28.903 24.7765 28.8022 24.7765C28.7325 24.7765 28.6627 24.7841 28.5968 24.8031C28.531 24.8221 28.4961 24.8601 28.4961 24.9171C28.4961 24.9589 28.5193 24.9893 28.5658 25.0083C28.6123 25.0235 28.6588 25.0387 28.7053 25.0501L28.9456 25.1071C29.0851 25.1337 29.2091 25.1869 29.3176 25.2629C29.4261 25.3389 29.4803 25.4605 29.4803 25.6277C29.4803 25.8557 29.3796 26.0077 29.1781 26.0799C28.9766 26.1559 28.7634 26.1901 28.5309 26.1901C28.4186 26.1901 28.314 26.1863 28.2093 26.1787C28.1047 26.1711 28.0039 26.1559 27.9071 26.1369V25.6923Z" fill="#E9444E"/>
</svg>
