<svg width="40" height="40" viewBox="0 0 40 40" fill="none" xmlns="http://www.w3.org/2000/svg">
<rect x="0.5" y="0.5" width="39" height="39" rx="3.5" fill="white"/>
<rect x="0.5" y="0.5" width="39" height="39" rx="3.5" stroke="#DBD9D7"/>
<path fill-rule="evenodd" clip-rule="evenodd" d="M22.8075 10.8875L22.0025 12.4375H21.65L22.45 10.9375H21.5525V10.65H22.8025L22.8075 10.8875ZM21.15 11.905C21.149 11.984 21.1316 12.0619 21.099 12.1338C21.0664 12.2057 21.0192 12.2701 20.9605 12.323C20.9018 12.3758 20.8328 12.4159 20.7579 12.4408C20.6829 12.4656 20.6036 12.4747 20.525 12.4675C20.3949 12.4713 20.2656 12.4451 20.1473 12.3909C20.0289 12.3367 19.9246 12.256 19.8425 12.155L20.0625 11.95C20.1167 12.0229 20.1872 12.0821 20.2684 12.1229C20.3496 12.1638 20.4392 12.185 20.53 12.185C20.5683 12.1888 20.607 12.1847 20.6437 12.173C20.6803 12.1613 20.7142 12.1422 20.7433 12.1169C20.7723 12.0916 20.7959 12.0607 20.8125 12.0259C20.8291 11.9912 20.8385 11.9535 20.84 11.915V11.915C20.84 11.7375 20.6775 11.6375 20.4275 11.6375H20.2825L20.2325 11.4425L20.715 10.925H19.9425V10.65H21.1225V10.885L20.6225 11.385C20.8925 11.4225 21.1475 11.5575 21.1475 11.885L21.15 11.905ZM19.5325 10.8875L18.7275 12.4375H18.375L19.175 10.9375H18.28V10.65H19.53L19.5325 10.8875ZM17.7325 12.4375H17.425V10.9575L17.1 11.0475L17.035 10.7975L17.515 10.6425H17.7325V12.4375ZM24.115 8.75H15.885C15.885 8.75 14.925 8.75 14.925 9.585V30.415C14.925 30.415 14.925 31.25 15.885 31.25H19.47V27.4375C19.4725 27.4142 19.4725 27.3908 19.47 27.3675C19.45 27.2625 19.455 27.1175 19.385 27.075C19.265 26.985 19.135 26.9075 19.0175 26.825C18.5449 26.5135 18.1196 26.1355 17.755 25.7025C17.345 25.1793 17.0687 24.564 16.95 23.91C16.8641 23.4585 16.9128 22.9916 17.09 22.5675C17.1613 22.4194 17.2568 22.2843 17.3725 22.1675C17.4283 22.1065 17.4635 22.0294 17.4729 21.9473C17.4823 21.8651 17.4656 21.7821 17.425 21.71C17.3052 21.4745 17.2073 21.2284 17.1325 20.975C17.0644 20.7312 17.0432 20.4767 17.07 20.225C17.0971 19.9779 17.1991 19.7449 17.3625 19.5575C17.5025 19.41 17.68 19.3875 17.7875 19.1525C17.6491 18.7455 17.5732 18.3198 17.5625 17.89C17.5512 17.7012 17.5672 17.5117 17.61 17.3275C17.7075 17 17.9375 16.925 18.11 16.8275C18.2 16.78 18.2975 16.7525 18.39 16.7075C18.4825 16.6625 18.505 16.6225 18.505 16.4225C18.505 15.515 18.625 14.655 19.105 14.2075C19.2139 14.1037 19.3427 14.0229 19.4836 13.9701C19.6245 13.9172 19.7747 13.8934 19.925 13.9C20.2385 13.8859 20.5451 13.9944 20.78 14.2025C21.28 14.65 21.4075 15.51 21.4075 16.4175C21.4075 16.6175 21.4075 16.6525 21.53 16.7025C21.6525 16.7525 21.7275 16.775 21.8225 16.825C22.0125 16.92 22.2525 16.995 22.355 17.325C22.3999 17.5089 22.4167 17.6986 22.405 17.8875C22.3938 18.3169 22.3162 18.7419 22.175 19.1475C22.2875 19.385 22.475 19.3975 22.62 19.555C22.7909 19.7379 22.8979 19.9712 22.925 20.22C22.9527 20.472 22.9297 20.727 22.8575 20.97C22.7841 21.2291 22.6853 21.4803 22.5625 21.72C22.5186 21.7906 22.4992 21.8737 22.5073 21.9564C22.5155 22.0391 22.5507 22.1168 22.6075 22.1775C22.7285 22.2925 22.8284 22.4279 22.9025 22.5775C23.0896 22.9989 23.1411 23.468 23.05 23.92C22.9227 24.578 22.6322 25.1935 22.205 25.71C21.8207 26.1461 21.3752 26.5242 20.8825 26.8325C20.755 26.9175 20.6325 26.9975 20.5 27.0825C20.425 27.135 20.4325 27.27 20.41 27.375C20.4088 27.3983 20.4088 27.4217 20.41 27.445V31.25H24.115C24.115 31.25 25.075 31.25 25.075 30.415V9.585C25.075 9.585 25.075 8.75 24.115 8.75Z" fill="#00585A"/>
</svg>
