<svg width="40" height="40" viewBox="0 0 40 40" fill="none" xmlns="http://www.w3.org/2000/svg">
<rect width="40" height="40" rx="4" fill="#FFF48D"/>
<path d="M8.0581 4.06777V22.0833C8.0581 22.9458 8.75518 23.6511 9.60673 23.6511H20.2368C28.2734 23.6511 31.7561 19.0957 31.7561 13.0518C31.7561 7.00784 28.2721 2.5 20.2355 2.5H9.60544C8.75388 2.5 8.05681 3.2053 8.05681 4.06777H8.0581Z" fill="white"/>
<path d="M15.173 6.92203V20.2342H20.8937C26.0887 20.2342 28.3409 17.2625 28.3409 13.061C28.3409 8.85963 26.0874 5.91956 20.8937 5.91956H16.1634C15.6143 5.91956 15.173 6.37391 15.173 6.92335V6.92203Z" fill="#CC0066"/>
<path fill-rule="evenodd" clip-rule="evenodd" d="M10.9918 22.2168H20.2355C26.7312 22.2168 30.3153 18.9637 30.3153 13.0598C30.3153 9.65742 29.0068 3.94238 20.2355 3.94238H10.9918C10.1714 3.94238 9.50549 4.61598 9.50549 5.44808V20.7124C9.50549 21.5432 10.1714 22.2181 10.9918 22.2181V22.2168ZM10.0001 5.44808C10.0001 4.89203 10.4414 4.44428 10.9905 4.44428H20.2342C23.8105 4.44428 29.8181 5.56563 29.8181 13.0598C29.8181 18.6414 26.4119 21.7149 20.2342 21.7149H10.9905C10.4414 21.7149 10.0001 21.2685 10.0001 20.7111V5.44808Z" fill="#232323"/>
<path fill-rule="evenodd" clip-rule="evenodd" d="M17.9885 11.1248C17.8146 11.0614 17.6329 11.0297 17.4356 11.0297V11.0217H16.1258V14.2365H17.4511C17.6861 14.2365 17.8899 14.189 18.0638 14.1097C18.2378 14.0226 18.3819 13.9116 18.4961 13.769C18.6103 13.6263 18.6934 13.452 18.7531 13.2539C18.8063 13.0557 18.8362 12.8418 18.8362 12.604C18.8362 12.3346 18.7986 12.1048 18.7298 11.9067C18.6545 11.7165 18.5558 11.55 18.4351 11.4153C18.3066 11.2885 18.1625 11.1855 17.9885 11.1221V11.1248ZM17.677 13.6039C17.5783 13.6356 17.4875 13.6514 17.3888 13.6514V13.6593H16.7904V11.6319H17.2746C17.4407 11.6319 17.577 11.6557 17.6913 11.7033C17.8055 11.7508 17.8951 11.8301 17.9639 11.9172C18.0327 12.0044 18.0846 12.1233 18.1158 12.2501C18.1456 12.3769 18.1612 12.5274 18.1612 12.6859C18.1612 12.8682 18.1378 13.0108 18.0937 13.1376C18.0483 13.2644 17.9872 13.3595 17.9197 13.4388C17.8509 13.518 17.7679 13.5735 17.677 13.6052V13.6039Z" fill="white"/>
<path d="M21.57 11.0309V11.6253H19.9487V12.3147H21.4402V12.8615H19.9487V13.6461H21.6076V14.2404H19.275V11.0256H21.57V11.0336V11.0309Z" fill="white"/>
<path fill-rule="evenodd" clip-rule="evenodd" d="M25.0385 14.2458L23.8871 11.031H23.1822L22.023 14.2458H22.7045L22.9473 13.5326H24.0987L24.3336 14.2458H25.0385ZM23.5392 11.8222L23.926 13.0016H23.1303L23.5314 11.8222H23.5392Z" fill="white"/>
<path d="M26.1367 11.0297V13.6514H27.636V14.2458H25.463V11.031H26.1367V11.0297Z" fill="white"/>
<path d="M12.5145 14.2933C13.3349 14.2933 13.9995 13.617 13.9995 12.781C13.9995 11.9449 13.3349 11.2687 12.5145 11.2687C11.6941 11.2687 11.0295 11.9449 11.0295 12.781C11.0295 13.617 11.6941 14.2933 12.5145 14.2933Z" fill="#232323"/>
<path d="M13.3985 20.3412C12.2484 20.3412 11.3267 19.3308 11.3267 18.0892V16.3313C11.3267 15.7105 11.7875 15.2007 12.3665 15.2007C12.9454 15.2007 13.4063 15.7026 13.4063 16.3313V20.3412H13.3985Z" fill="#232323"/>
<path d="M34.1855 27.3307H5.62742C5.48463 27.3307 5.3678 27.2118 5.3678 27.0665C5.3678 26.9212 5.48463 26.8024 5.62742 26.8024H34.1855C34.3283 26.8024 34.4452 26.9212 34.4452 27.0665C34.4452 27.2118 34.3283 27.3307 34.1855 27.3307Z" fill="#1D1C1C"/>
<path d="M27.4088 33.9029C27.4088 32.1357 28.6446 30.5256 30.7787 30.5256C32.9128 30.5256 34.1576 32.137 34.1576 33.9029C34.1576 35.6688 32.9218 37.2801 30.7787 37.2801C28.6446 37.2801 27.4088 35.6688 27.4088 33.9029ZM32.2819 33.9029C32.2819 33.051 31.7302 32.2651 30.7787 32.2651C29.8272 32.2651 29.2755 33.0523 29.2755 33.9029C29.2755 34.7535 29.8363 35.542 30.7787 35.542C31.7211 35.542 32.2819 34.7548 32.2819 33.9029Z" fill="#1D1C1C"/>
<path d="M26.0965 35.1577C26.8078 34.7456 27.2349 33.9585 27.2349 33.0894C27.2349 31.799 26.3184 30.7001 24.8957 30.7001H21.9088V37.1072H23.7586V35.4694H24.1052L25.1631 37.1072H27.3413L26.0965 35.1577ZM24.5232 33.9954H23.7586V32.1833H24.5322C25.0307 32.1833 25.35 32.5954 25.35 33.0894C25.35 33.5834 25.0203 33.9954 24.5232 33.9954Z" fill="#1D1C1C"/>
<path d="M13.466 30.6936L12.3561 34.512L11.2735 30.6936H9.80016L8.70846 34.512L7.60767 30.6936H5.65534L7.89196 37.0888H9.499L10.5375 33.6073L11.5669 37.0888H13.1817L15.4183 30.6936H13.466Z" fill="#1D1C1C"/>
<path d="M18.217 35.5262H18.2118C17.5199 35.5262 17.0344 35.1009 16.8267 34.5382H21.5272C21.5648 34.3269 21.5843 34.1103 21.5843 33.891C21.5843 32.1291 20.3524 30.5217 18.2157 30.5204V32.2559C18.9115 32.2572 19.3918 32.6825 19.5982 33.2438H14.9043C14.8666 33.4552 14.8472 33.6718 14.8472 33.891C14.8472 35.6543 16.0803 37.263 18.2105 37.263H18.2157V35.5262H18.217Z" fill="#1D1C1C"/>
<path d="M18.2118 37.2617C18.2845 37.2617 18.3546 37.259 18.426 37.2564C18.8583 37.2339 19.2516 37.1441 19.6021 37.0002C19.9526 36.8549 20.2602 36.6568 20.5211 36.4164C20.7821 36.176 20.9988 35.8947 21.1663 35.5843C21.3182 35.303 21.4298 34.9965 21.4999 34.6782H19.5411C19.5008 34.7628 19.4541 34.8446 19.4009 34.9199C19.3282 35.0243 19.2425 35.118 19.1452 35.1986C19.0478 35.2805 18.9388 35.3492 18.8193 35.402C18.6986 35.4548 18.5688 35.4918 18.4273 35.5116C18.3585 35.5209 18.2871 35.5262 18.2131 35.5262C17.7718 35.5262 17.4161 35.3531 17.1617 35.0824L15.8882 36.3926C16.4542 36.9249 17.2395 37.2604 18.2131 37.2604L18.2118 37.2617Z" fill="url(#paint0_linear_26074_296)"/>
<path d="M18.2118 30.519C16.4049 30.519 15.2431 31.6761 14.9328 33.1025H16.8852C17.1188 32.6112 17.5783 32.2546 18.2118 32.2546C18.7168 32.2546 19.1088 32.4764 19.3645 32.8119L20.6496 31.4898C20.0759 30.8981 19.2503 30.519 18.2131 30.519H18.2118Z" fill="url(#paint1_linear_26074_296)"/>
<defs>
<linearGradient id="paint0_linear_26074_296" x1="20.5445" y1="33.5173" x2="17.5615" y2="37.108" gradientUnits="userSpaceOnUse">
<stop offset="0.02" stop-color="#1D1C1C" stop-opacity="0"/>
<stop offset="0.68" stop-color="#1D1C1C"/>
</linearGradient>
<linearGradient id="paint1_linear_26074_296" x1="15.4469" y1="34.2899" x2="18.4942" y2="31.33" gradientUnits="userSpaceOnUse">
<stop offset="0.02" stop-color="#1D1C1C" stop-opacity="0"/>
<stop offset="0.68" stop-color="#1D1C1C"/>
</linearGradient>
</defs>
</svg>
