<svg width="40" height="40" viewBox="0 0 40 40" fill="none" xmlns="http://www.w3.org/2000/svg">
<path d="M0 3.33333C0 1.49238 1.49238 0 3.33333 0V0V40V40C1.49238 40 0 38.5076 0 36.6667V3.33333Z" fill="#238647"/>
<path d="M3.33333 0H6.66668V40H3.33333V0Z" fill="#2F9B47"/>
<path d="M6.66668 0H10V40H6.66668V0Z" fill="#62B64F"/>
<path d="M10 0H13.3333V40H10V0Z" fill="#89CC53"/>
<path d="M13.3333 0H16.6667V40H13.3333V0Z" fill="#3DB8AD"/>
<path d="M16.6667 0H20V40H16.6667V0Z" fill="#3394D7"/>
<path d="M20 0H23.3333V40H20V0Z" fill="#2872BC"/>
<path d="M23.3333 0H26.6667V40H23.3333V0Z" fill="#1D5C84"/>
<path d="M26.6667 0H30V40H26.6667V0Z" fill="#993233"/>
<path d="M30 0H33.3333V40H30V0Z" fill="#E13030"/>
<path d="M33.3333 0H36.6667V40H33.3333V0Z" fill="#F28825"/>
<path d="M36.6667 0V0C38.5076 0 40 1.49237 40 3.33331V36.6667C40 38.5076 38.5076 40 36.6667 40V40V0Z" fill="#F5C836"/>
<path fill-rule="evenodd" clip-rule="evenodd" d="M18.001 17.8333H19.3343V21.3333C19.3343 22.989 17.99 24.3333 16.3343 24.3333C14.6787 24.3333 13.3343 22.989 13.3343 21.3333V17.8333H14.6677V21.3333C14.6677 22.3452 15.4145 23.1667 16.3343 23.1667C17.2541 23.1667 18.001 22.3452 18.001 21.3333V17.8333Z" fill="white"/>
<path fill-rule="evenodd" clip-rule="evenodd" d="M25.3418 24.1667H26.6752V20.6667C26.6752 19.011 25.3308 17.6667 23.6752 17.6667C22.0195 17.6667 20.6752 19.011 20.6752 20.6667V24.1667H22.0085V20.6667C22.0085 19.6548 22.7553 18.8333 23.6752 18.8333C24.595 18.8333 25.3418 19.6548 25.3418 20.6667V24.1667Z" fill="white"/>
<path fill-rule="evenodd" clip-rule="evenodd" d="M6.50022 24.1667H5.33356V21.1667H5.33856C5.33523 21.1115 5.33356 21.0558 5.33356 21V15H6.66688V18.3338C7.22355 17.915 7.91688 17.6667 8.66687 17.6667C10.5069 17.6667 12.0002 19.1603 12.0002 21C12.0002 22.8397 10.5069 24.3334 8.66687 24.3334C7.87021 24.3334 7.13855 24.0532 6.56522 23.5862L6.50022 24.1667ZM8.58354 18.8333C9.73353 18.8333 10.6669 19.8042 10.6669 21C10.6669 22.1958 9.73353 23.1667 8.58354 23.1667C7.43355 23.1667 6.50022 22.1958 6.50022 21C6.50022 19.8042 7.43355 18.8333 8.58354 18.8333Z" fill="white"/>
<path fill-rule="evenodd" clip-rule="evenodd" d="M33.5016 17.8333H34.6682V20.8334H34.6632C34.6666 20.8885 34.6682 20.9442 34.6682 21V27H33.3349V23.6662C32.7782 24.085 32.0849 24.3334 31.3349 24.3334C29.4949 24.3334 28.0016 22.8397 28.0016 21C28.0016 19.1604 29.4949 17.6667 31.3349 17.6667C32.1316 17.6667 32.8632 17.9469 33.4366 18.4139L33.5016 17.8333ZM31.4182 23.1667C30.2683 23.1667 29.3349 22.1959 29.3349 21C29.3349 19.8042 30.2683 18.8334 31.4182 18.8334C32.5682 18.8334 33.5016 19.8042 33.5016 21C33.5016 22.1959 32.5682 23.1667 31.4182 23.1667Z" fill="white"/>
</svg>
