<svg width="40" height="40" viewBox="0 0 40 40" fill="none" xmlns="http://www.w3.org/2000/svg">
<rect width="40" height="40" rx="4" fill="#FF000C"/>
<path d="M21.4678 22.5704L28.5028 15.608V13.6267L19.5741 22.5581L21.4678 22.5704Z" fill="white"/>
<path d="M19.4546 22.6507H19.3382L28.6029 13.386L28.59 15.642L21.5066 22.6507H19.4546Z" fill="white"/>
<path d="M25.047 23.9148V26.3983H28.3764C29.0827 26.3983 29.6532 25.8361 29.6532 25.1402C29.6532 24.4442 29.0827 23.8791 28.3764 23.8791L25.047 23.9148ZM25.047 27.9389H24.7481H23.5105V24.3996C22.0677 26.5321 19.6046 27.9389 16.8064 27.9389C12.3571 27.9389 8.75 24.3847 8.75 20.0007C8.75 15.6167 12.3571 12.0625 16.8064 12.0625C20.0543 12.0625 22.8555 13.9571 24.1293 16.6904L22.7559 18.1091C21.9439 15.6316 19.5865 13.8411 16.8064 13.8411C13.3532 13.8411 10.5551 16.5982 10.5551 20.0007C10.5551 23.4032 13.3532 26.1603 16.8064 26.1603C19.4295 26.1603 21.6783 24.5661 22.605 22.3087H23.5166H24.5157H28.3734C29.0797 22.3087 29.6502 21.7466 29.6502 21.0506C29.6502 20.3546 29.0797 19.7895 28.3734 19.7895H25.6024L27.1992 18.2162H28.3734C29.9611 18.2162 31.25 19.4832 31.25 21.0506C31.25 21.8566 30.9089 22.5794 30.3626 23.0998C30.9089 23.6144 31.25 24.3401 31.25 25.1461C31.25 26.7105 29.9792 27.9449 28.3915 27.9449H25.047V27.9389Z" fill="white"/>
</svg>
