<svg width="40" height="40" viewBox="0 0 40 40" fill="none" xmlns="http://www.w3.org/2000/svg">
<rect width="40" height="40" rx="4" fill="url(#paint0_linear_17027_1012)"/>
<path d="M29.3135 13.6898C27.5898 10.8542 24.6986 8.74134 21.2699 8.1668C20.6027 8.03707 19.9541 8 19.2498 8C15.6172 8 12.411 9.61241 10.2611 12.17C9.85334 12.7075 9.76068 12.9114 10.2981 12.9114H24.365C24.5689 12.9114 24.8098 13.0411 24.9396 13.2079L26.8856 16.2103C27.0153 16.3771 27.0524 16.6551 27.0153 16.8775L25.162 25.7365C25.1249 25.9404 24.921 26.1072 24.7172 26.1072H21.5665C21.4182 26.1072 21.2329 26.033 21.1031 25.9404C21.0661 25.9033 17.1555 20.0097 17.1555 20.0097L15.9508 25.7736C15.9508 25.9404 15.747 26.1072 15.5431 26.1072H13.245C13.0411 26.1072 12.9114 25.9404 12.9484 25.7365L14.635 17.4891C14.672 17.2853 14.8759 17.1185 15.0798 17.1185H18.1749V17.1555C18.3787 17.1555 18.6197 17.2853 18.7494 17.4521L22.6229 23.2716L24.1426 15.6358H14.1902C11.021 15.6358 8 17.0814 8 21.4553C8 25.9033 12.5407 31.4263 19.2498 31.4263C21.1958 31.4263 22.9936 30.9815 24.606 30.1475C28.4053 28.2015 31 24.2538 31 19.7131C30.9629 17.5262 30.3884 15.469 29.3135 13.6898Z" fill="white"/>
<defs>
<linearGradient id="paint0_linear_17027_1012" x1="1.5" y1="39" x2="39" y2="1" gradientUnits="userSpaceOnUse">
<stop offset="0.21" stop-color="#E66124"/>
<stop offset="0.535" stop-color="#E86C24"/>
<stop offset="0.82" stop-color="#ED8722"/>
</linearGradient>
</defs>
</svg>
