<svg width="40" height="40" viewBox="0 0 40 40" fill="none" xmlns="http://www.w3.org/2000/svg">
<rect width="40" height="40" rx="4" fill="white"/>
<rect width="40" height="40" rx="4" fill="#0000FF"/>
<rect x="0.5" y="0.5" width="39" height="39" rx="3.5" stroke="white" stroke-opacity="0.01"/>
<path fill-rule="evenodd" clip-rule="evenodd" d="M30 11.175V13.4465C30 16.153 20.3087 15.9039 20.108 18.5105H19.8932C19.7055 15.9039 10.0013 16.1568 10.0013 13.4465V11.175H10.2199C10.2199 13.3529 19.9023 13.5894 19.9023 15.9292H20.1158C20.1158 13.5894 29.8032 13.3529 29.8032 11.175H30ZM29.7981 16.3288C29.7981 18.5055 20.1158 18.7433 20.1158 21.083H19.9023C19.9023 18.7433 10.2199 18.5055 10.2199 16.3288H10.0013V18.6003C10.0013 21.3107 19.7003 21.0577 19.8932 23.6682H20.108C20.3048 21.0577 30 21.3069 30 18.6003V16.3288H29.7981ZM29.7981 21.4827C29.7981 23.6593 20.1158 23.8971 20.1158 26.2407H19.901C19.901 23.8971 10.2186 23.6593 10.2186 21.4827H10V23.7542C10 26.4734 19.7042 26.2154 19.892 28.822H20.1068C20.3087 26.2154 29.9987 26.4608 29.9987 23.7542V21.4827H29.7981Z" fill="white"/>
</svg>
