<svg width="40" height="40" viewBox="0 0 40 40" fill="none" xmlns="http://www.w3.org/2000/svg">
<rect width="40" height="40" rx="4" fill="#00937B"/>
<path d="M31.3086 20.5228C31.3086 17.5026 30.1991 14.6672 28.165 12.4483C27.1172 11.3388 25.9461 10.4142 24.59 9.7362L24.2819 10.2293C25.0215 10.6608 25.6995 11.2155 26.3159 11.8319C28.4116 13.9892 29.5827 16.8246 29.6443 19.8448C29.6443 20.2763 29.6443 21.0159 29.5827 21.6323C29.2129 20.3379 28.5349 19.1668 27.6103 18.1806C27.3021 17.8108 26.9939 17.5026 26.5625 17.3177C26.5008 18.2422 26.3159 19.1668 26.0694 20.0914C26.4392 20.3379 26.7474 20.6461 27.0556 20.9543C27.8569 21.6939 28.35 22.7418 28.4116 23.8513C28.4116 24.406 28.165 24.9607 27.7336 25.3306C27.1172 25.8237 26.3775 26.0702 25.5763 26.0702C24.4051 26.0086 23.234 25.6388 22.2478 24.9607C23.7888 23.4198 24.8982 21.509 25.3913 19.4133C25.6379 18.4888 25.7612 17.5642 25.7612 16.578C25.7612 14.9754 25.3913 13.3728 24.59 11.9552C23.5422 9.98276 21.5082 8.75 19.2892 8.75C16.5155 8.81164 13.8651 10.0444 12.0159 12.0784C9.92026 14.1125 8.6875 16.9478 8.6875 19.9064C8.6875 20.3995 8.6875 20.8926 8.74914 21.3857H9.30388C9.30388 18.4271 10.475 15.6534 12.6323 13.6194C13.7418 12.5715 14.9746 11.647 16.3922 11.0306C15.406 11.9552 14.728 13.1879 14.3582 14.4823C14.2349 14.9138 14.1733 15.3452 14.1733 15.7767C15.0362 15.3452 15.8991 15.0371 16.8237 14.8521C16.947 13.5577 17.5017 12.3866 18.3646 11.4004C18.7961 10.969 19.3508 10.6608 19.9672 10.6608C20.9534 10.7224 21.8163 11.3388 22.2478 12.2017C22.8026 13.2496 23.0491 14.4823 22.9258 15.6534C20.8301 14.9754 18.6112 14.9754 16.5155 15.6534C14.728 16.0849 13.1254 17.0095 11.831 18.3039C10.475 19.5983 9.6737 21.3241 9.55043 23.1732C9.61207 25.0224 10.4134 26.7482 11.7694 27.981C13.9883 30.0767 16.8853 31.3094 19.9672 31.2478C22.3711 31.2478 24.6517 30.5081 26.6241 29.1521L26.5008 28.7823C24.9599 29.6452 23.234 30.0767 21.4465 30.0767C18.7345 30.1383 16.1457 29.2754 13.9883 27.6728C14.5431 27.8577 15.1595 27.981 15.7758 27.981C16.947 27.981 18.1181 27.7344 19.1659 27.2413C18.3646 26.6866 17.625 26.0702 17.0086 25.3922C16.2073 25.7004 15.2827 25.9469 14.4198 25.9469C13.5569 26.0086 12.7556 25.7004 12.1392 25.1457C11.7694 24.7758 11.5845 24.2827 11.5845 23.728C11.6461 22.6801 12.1392 21.6323 12.9405 20.9543C13.4336 20.3995 14.05 19.9681 14.728 19.6599C15.2827 21.7556 16.3922 23.728 17.9332 25.2689C19.7207 27.1181 22.1862 28.2275 24.775 28.3508C26.4392 28.4125 28.0418 27.7961 29.2129 26.6866C30.5689 24.9607 31.3086 22.7418 31.3086 20.5228V20.5228ZM22.7409 18.6737C22.1862 20.3995 21.2 21.9405 19.9056 23.2349C18.6728 21.8788 17.8715 20.2763 17.4401 18.4888C18.1797 18.3039 18.9194 18.2422 19.659 18.2422C20.7069 18.2422 21.7547 18.4271 22.7409 18.6737" fill="white"/>
</svg>
