<svg width="40" height="40" viewBox="0 0 40 40" fill="none" xmlns="http://www.w3.org/2000/svg">
<rect width="40" height="40" rx="4" fill="url(#paint0_linear_10305_6614)"/>
<rect x="0.5" y="0.5" width="39" height="39" rx="3.5" stroke="white" stroke-opacity="0.01"/>
<g clip-path="url(#clip0_10305_6614)">
<path d="M7.42961 10.7188H32.5708C33.0841 10.7188 33.5004 11.1345 33.5004 11.6471V28.3534C33.5004 28.8659 33.0841 29.2817 32.5708 29.2817H7.42961C6.91634 29.2817 6.5 28.8659 6.5 28.3534V11.6471C6.5 11.1345 6.91634 10.7188 7.42961 10.7188Z" fill="white"/>
<path d="M8.90417 26.8259V23.6248H9.89326C10.6123 23.6248 11.0749 23.8944 11.0749 24.4523C11.0749 24.7678 10.9282 24.9873 10.7224 25.1153C11.0202 25.2526 11.1943 25.5179 11.1943 25.8791C11.1943 26.524 10.7224 26.8259 9.98974 26.8259H8.90462H8.90417ZM9.5408 24.9556H10.0127C10.3012 24.9556 10.4246 24.8139 10.4246 24.5531C10.4246 24.2741 10.2003 24.1826 9.8981 24.1826H9.5408V24.9556ZM9.5408 26.268H9.93467C10.3193 26.268 10.5435 26.1721 10.5435 25.8703C10.5435 25.5685 10.351 25.4497 9.9893 25.4497H9.54036V26.2684L9.5408 26.268ZM12.4283 26.8808C11.8009 26.8808 11.485 26.5746 11.485 26.1628C11.485 25.7101 11.856 25.4448 12.4054 25.4404C12.542 25.4431 12.6781 25.455 12.8129 25.477V25.3674C12.8129 25.0885 12.6526 24.9561 12.3459 24.9561C12.1393 24.9534 11.934 24.9908 11.7415 25.0656L11.6269 24.5715C11.8238 24.4893 12.1397 24.4343 12.4191 24.4343C13.0923 24.4343 13.4266 24.7911 13.4266 25.4083V26.6798C13.239 26.7757 12.8865 26.8808 12.4283 26.8808ZM12.8129 26.3639V25.8747C12.7063 25.8509 12.597 25.8386 12.4878 25.8382C12.2772 25.8382 12.1124 25.9204 12.1124 26.1356C12.1124 26.3278 12.2499 26.4281 12.4926 26.4281C12.6032 26.4317 12.7129 26.4097 12.8134 26.3639H12.8129ZM13.8716 26.8259V24.6353C14.2007 24.5033 14.5519 24.4351 14.9065 24.4343C15.5753 24.4343 15.9599 24.7634 15.9599 25.3718V26.8259H15.3282V25.4176C15.3282 25.1021 15.1814 24.9556 14.9021 24.9556C14.7633 24.9539 14.6259 24.9816 14.499 25.0379V26.8259H13.8716ZM18.1681 24.5715L18.0491 25.07C17.8857 24.9992 17.7099 24.9605 17.5315 24.9556C17.1605 24.9556 16.9591 25.2161 16.9591 25.6463C16.9591 26.1175 17.1697 26.3595 17.5636 26.3595C17.7394 26.3547 17.9121 26.3142 18.072 26.2407L18.1729 26.7484C17.9654 26.8404 17.7403 26.8857 17.5134 26.8808C16.7534 26.8808 16.3137 26.4097 16.3137 25.6644C16.3137 24.9191 16.7486 24.4343 17.4768 24.4343C17.7143 24.4329 17.9496 24.4796 18.1681 24.5715ZM19.5334 26.8808C18.8281 26.8808 18.3884 26.3916 18.3884 25.6551C18.3884 24.9187 18.8281 24.4343 19.5334 24.4343C20.2388 24.4343 20.6736 24.9235 20.6736 25.6551C20.6736 26.3912 20.2432 26.8808 19.5334 26.8808ZM19.5334 26.3595C19.8586 26.3595 20.0282 26.0898 20.0282 25.6551C20.0282 25.2205 19.8586 24.9556 19.5334 24.9556C19.2083 24.9556 19.0342 25.2253 19.0342 25.6551C19.0342 26.0894 19.2127 26.3595 19.5334 26.3595ZM21.0393 26.8259V24.6353C21.3684 24.5033 21.7195 24.4351 22.0742 24.4343C22.743 24.4343 23.1276 24.7634 23.1276 25.3718V26.8259H22.4958V25.4176C22.4958 25.1021 22.3491 24.9556 22.0698 24.9556C21.931 24.9539 21.7935 24.9816 21.6667 25.0379V26.8259H21.0393ZM24.5528 26.8808C24.0079 26.8808 23.7285 26.5834 23.7285 25.9798V24.9921H23.4171V24.4893H23.7285V23.9816L24.3603 23.9494V24.4888H24.8687V24.9917H24.3603V25.9701C24.3603 26.2354 24.47 26.3586 24.6762 26.3586C24.7577 26.3586 24.8392 26.3494 24.919 26.3313L24.9511 26.8391C24.8203 26.8681 24.6868 26.8817 24.5528 26.8804V26.8808ZM26.1477 26.8808C25.5203 26.8808 25.2044 26.5746 25.2044 26.1628C25.2044 25.7101 25.5754 25.4448 26.1248 25.4404C26.2614 25.4431 26.3975 25.455 26.5323 25.477V25.3674C26.5323 25.0885 26.372 24.9561 26.0653 24.9561C25.8587 24.9534 25.6534 24.9908 25.4609 25.0656L25.3463 24.5715C25.5432 24.4893 25.8591 24.4343 26.1385 24.4343C26.8117 24.4343 27.146 24.7911 27.146 25.4083V26.6798C26.9584 26.7757 26.6055 26.8808 26.1477 26.8808ZM26.5323 26.3639V25.8747C26.4257 25.8509 26.3165 25.8386 26.2072 25.8382C25.9966 25.8382 25.8318 25.9204 25.8318 26.1356C25.8318 26.3278 25.9693 26.4281 26.212 26.4281C26.3222 26.4317 26.4319 26.4097 26.5328 26.3639H26.5323ZM29.3079 24.5715L29.189 25.07C29.0255 24.9992 28.8497 24.9605 28.6713 24.9556C28.3003 24.9556 28.099 25.2161 28.099 25.6463C28.099 26.1175 28.3096 26.3595 28.7035 26.3595C28.8793 26.3547 29.052 26.3142 29.2119 26.2407L29.3128 26.7484C29.1053 26.8404 28.8801 26.8857 28.6532 26.8808C27.8933 26.8808 27.4536 26.4097 27.4536 25.6644C27.4536 24.9191 27.8884 24.4343 28.6167 24.4343C28.8541 24.4329 29.0894 24.4796 29.3084 24.5715H29.3079ZM30.6975 26.8808C30.1525 26.8808 29.8732 26.5834 29.8732 25.9798V24.9921H29.5617V24.4893H29.8732V23.9816L30.505 23.9494V24.4888H31.0134V24.9917H30.505V25.9701C30.505 26.2354 30.6147 26.3586 30.8209 26.3586C30.9024 26.3586 30.9839 26.3494 31.0636 26.3313L31.0958 26.8391C30.9649 26.8681 30.8314 26.8817 30.6975 26.8804V26.8808Z" fill="#1E3764"/>
<path d="M13.3121 22.0242C16.656 22.0242 18.328 19.7981 20 17.5719H8.90417V22.0242H13.3121Z" fill="url(#paint1_linear_10305_6614)"/>
<path d="M26.6879 13.1196C23.3439 13.1196 21.672 15.3457 20 17.5719H31.0958V13.1196H26.6879Z" fill="url(#paint2_linear_10305_6614)"/>
</g>
<defs>
<linearGradient id="paint0_linear_10305_6614" x1="39" y1="1.5" x2="2" y2="38" gradientUnits="userSpaceOnUse">
<stop stop-color="#015BBA"/>
<stop offset="1" stop-color="#1E3865"/>
</linearGradient>
<linearGradient id="paint1_linear_10305_6614" x1="11.1484" y1="20.0035" x2="19.2628" y2="16.9855" gradientUnits="userSpaceOnUse">
<stop stop-color="#005AB9"/>
<stop offset="1" stop-color="#1E3764"/>
</linearGradient>
<linearGradient id="paint2_linear_10305_6614" x1="20.6719" y1="17.9577" x2="29.2878" y2="15.0141" gradientUnits="userSpaceOnUse">
<stop stop-color="#FBA900"/>
<stop offset="1" stop-color="#FFD800"/>
</linearGradient>
<clipPath id="clip0_10305_6614">
<rect width="27" height="18.5625" fill="white" transform="translate(6.5 10.7188)"/>
</clipPath>
</defs>
</svg>
