<svg width="40" height="40" viewBox="0 0 40 40" fill="none" xmlns="http://www.w3.org/2000/svg">
<rect x="0.5" y="0.5" width="39" height="39" rx="3.5" fill="white"/>
<rect x="0.5" y="0.5" width="39" height="39" rx="3.5" stroke="#DBD9D7"/>
<path fill-rule="evenodd" clip-rule="evenodd" d="M17.6344 20.7818H16.5255V20.3466C16.5255 19.7806 16.8489 19.6186 17.1278 19.6186C17.4356 19.6186 17.6754 19.7552 17.6754 19.7552L18.0529 18.8924C18.0529 18.8924 17.6702 18.6423 16.9745 18.6423C16.1924 18.6423 15.3024 19.0832 15.3024 20.4671V20.7818H13.446V20.3466C13.446 19.7806 13.7693 19.6186 14.0477 19.6186C14.2062 19.6186 14.4194 19.6555 14.5958 19.7552L14.9733 18.8924C14.748 18.7599 14.386 18.6423 13.895 18.6423C13.1128 18.6423 12.2229 19.0832 12.2229 20.4671V20.7818H11.5128V21.7259H12.2229V25.0613H13.446V21.7259H15.3024V25.0613H16.5255V21.7259H17.6344V20.7818ZM8.7049 24.2935C8.38329 24.2935 8.22306 24.1355 8.22306 23.8744C8.22306 23.3914 8.76369 23.226 9.75044 23.1217C9.75044 23.7678 9.31355 24.2935 8.7049 24.2935ZM9.13026 20.656C8.42536 20.656 7.61383 20.9885 7.17349 21.3396L7.57579 22.1862C7.92911 21.8629 8.50029 21.5868 9.01557 21.5868C9.50491 21.5868 9.77522 21.7505 9.77522 22.0796C9.77522 22.3021 9.59597 22.4139 9.25707 22.4577C7.99251 22.6226 7 22.9713 7 23.9465C7 24.7194 7.55043 25.1874 8.41038 25.1874C9.02364 25.1874 9.57004 24.8462 9.82998 24.3961V25.0612H10.9735V22.2744C10.9735 21.1234 10.1735 20.656 9.13026 20.656ZM20.6139 20.7818V25.0613H21.8381V22.9996C21.8381 22.0192 22.4312 21.7316 22.8451 21.7316C23.0064 21.7316 23.2243 21.7783 23.3684 21.8861L23.5915 20.7547C23.4024 20.674 23.2047 20.6561 23.0427 20.6561C22.4134 20.6561 22.018 20.9351 21.7569 21.5011V20.7818H20.6139ZM27.8832 21.4078C28.1351 21.0389 28.6187 20.6562 29.2659 20.6562C30.0481 20.6562 30.6953 21.1415 30.6953 22.1035V25.0614H29.4723V22.4902C29.4723 21.9236 29.1311 21.6885 28.8077 21.6885C28.4031 21.6885 27.9985 22.0585 27.9985 22.8585V25.0614H26.7754V22.4989C26.7754 21.915 26.4538 21.6885 26.104 21.6885C25.7172 21.6885 25.3034 22.0672 25.3034 22.8585V25.0614H24.0786V20.7819H25.2584V21.4291C25.4654 21.0159 25.9132 20.6562 26.5605 20.6562C27.1535 20.6562 27.6492 20.9311 27.8832 21.4078ZM19.5866 25.0615H18.3647V20.7819H19.5866V25.0615Z" fill="#060809"/>
<path fill-rule="evenodd" clip-rule="evenodd" d="M25.4933 14.8126C22.1896 14.8126 19.2449 17.106 18.4092 20.0547H19.6069C20.3049 17.8587 22.6743 15.9314 25.4933 15.9314C28.9199 15.9314 31.8813 18.54 31.8813 22.6011C31.8813 23.5129 31.7631 24.3348 31.5395 25.0611H32.7014L32.713 25.0213C32.9032 24.272 33 23.4582 33 22.6011C33 18.072 29.6997 14.8126 25.4933 14.8126Z" fill="#0FA0EA"/>
</svg>
