<svg width="40" height="40" viewBox="0 0 40 40" fill="none" xmlns="http://www.w3.org/2000/svg">
<rect width="40" height="40" rx="4" fill="#F36805"/>
<path d="M31.0742 17.0468V26.6445C31.0742 27.0361 30.9187 27.4117 30.6417 27.6886C30.3648 27.9655 29.9893 28.121 29.5977 28.121H10.4023C10.0107 28.121 9.63517 27.9655 9.35826 27.6886C9.08135 27.4117 8.92578 27.0361 8.92578 26.6445V17.0468C8.92578 16.6552 9.08135 16.2796 9.35826 16.0027C9.63517 15.7258 10.0107 15.5703 10.4023 15.5703H12.5581V16.3085C12.5628 16.5579 12.5975 16.8058 12.6615 17.0468C12.6615 17.1354 12.7058 17.224 12.7427 17.3348C12.7427 17.3348 12.8091 17.5193 12.8313 17.5562C13.1464 18.3831 13.7216 19.0853 14.4703 19.557C14.5777 19.6254 14.6668 19.719 14.7298 19.8296C14.7929 19.9403 14.8279 20.0646 14.832 20.1919V24.4296C14.832 24.6254 14.9098 24.8132 15.0483 24.9517C15.1867 25.0901 15.3745 25.1679 15.5703 25.1679H18.5234C18.7192 25.1679 18.907 25.0901 19.0455 24.9517C19.1839 24.8132 19.2617 24.6254 19.2617 24.4296V20.1107C19.2633 20.001 19.2893 19.8931 19.3379 19.7948C19.3864 19.6965 19.4562 19.6102 19.5423 19.5422C19.6467 20.0397 19.8924 20.4965 20.2498 20.858C20.6073 21.2194 21.0614 21.47 21.5578 21.5799L21.986 21.6611C21.9417 22.3994 21.8974 23.0712 21.8531 23.5658L21.7866 24.3706C21.7785 24.4724 21.7915 24.5748 21.8249 24.6713C21.8584 24.7678 21.9114 24.8563 21.9808 24.9312C22.0502 25.0062 22.1344 25.0659 22.2281 25.1066C22.3217 25.1474 22.4228 25.1682 22.5249 25.1679H25.478C25.664 25.1685 25.8434 25.0989 25.9803 24.973C26.1171 24.847 26.2014 24.6741 26.2163 24.4887L26.2754 23.8095C26.4009 22.2443 26.5781 18.8482 26.5707 15.5703H29.5977C29.7916 15.5703 29.9836 15.6085 30.1627 15.6827C30.3419 15.7569 30.5046 15.8656 30.6417 16.0027C30.7789 16.1398 30.8876 16.3026 30.9618 16.4818C31.036 16.6609 31.0742 16.8529 31.0742 17.0468ZM14.1528 16.9139L14.1971 17.0247C14.3833 17.4626 14.6724 17.849 15.0401 18.1511C15.4077 18.4532 15.8429 18.6619 16.3086 18.7596V23.6914H17.7852V18.7301C18.2228 18.6199 18.6294 18.4109 18.9736 18.1191C19.3179 17.8273 19.5907 17.4605 19.7711 17.0468L19.8154 16.9361C19.8154 16.877 19.8523 16.8253 19.8671 16.7663C19.9138 16.613 19.9386 16.454 19.9409 16.2938V16.2938C19.9409 16.2938 19.9409 16.2347 19.9409 16.2052V10.7567L18.4644 11.4949V16.2126C18.4611 16.2954 18.4462 16.3775 18.4201 16.4562C18.3912 16.5186 18.3455 16.5717 18.2882 16.6095C18.2308 16.6473 18.1639 16.6684 18.0952 16.6703C17.9973 16.6703 17.9034 16.6314 17.8342 16.5622C17.765 16.493 17.7261 16.3991 17.7261 16.3012V10.7567L16.2495 11.4949V16.3085C16.2476 16.4059 16.2081 16.4987 16.1393 16.5675C16.0705 16.6363 15.9777 16.6758 15.8804 16.6777C15.8104 16.6772 15.742 16.6567 15.6832 16.6188C15.6244 16.5809 15.5776 16.5271 15.5482 16.4636C15.5246 16.3845 15.5121 16.3025 15.5113 16.2199V10.7567L14.0347 11.4949V16.3085C14.0345 16.4684 14.0569 16.6275 14.1011 16.781C14.0938 16.8032 14.138 16.8549 14.1528 16.9139ZM20.9302 18.8999C20.6972 15.9874 21.362 13.0733 22.835 10.5499C22.9744 10.3135 23.1956 10.1363 23.4569 10.052C23.7181 9.96763 24.0011 9.98194 24.2525 10.0922C24.5478 10.2325 24.8948 10.5499 24.9908 11.7755C25.1695 15.7475 25.1079 19.7268 24.8062 23.6914H23.3296C23.3887 22.9531 23.4625 21.8087 23.5216 20.4355C22.9753 20.3396 22.0893 20.1845 21.8605 20.1328C21.5875 20.0653 21.3461 19.9058 21.1767 19.6814C21.0073 19.4569 20.9203 19.181 20.9302 18.8999ZM22.4068 18.7375L23.5807 18.9442C23.6471 16.781 23.6693 14.3521 23.5807 12.3587C22.6875 14.3615 22.2826 16.5477 22.3994 18.7375H22.4068Z" fill="white"/>
</svg>
