<svg width="40" height="40" viewBox="0 0 40 40" fill="none" xmlns="http://www.w3.org/2000/svg">
<rect width="40" height="40" rx="4" fill="#F36805"/>
<rect x="0.5" y="0.5" width="39" height="39" rx="3.5" stroke="white" stroke-opacity="0.01"/>
<path fill-rule="evenodd" clip-rule="evenodd" d="M20.0038 9.00366L28.342 12.9154C29.0773 13.261 29.5552 14.0551 29.5552 14.9448V16.9007H27.4229V19.0919L26.6876 20.4963L25.9523 21.9081V16.9007H22.9597V24.3934H24.6508L22.0478 29.4081L21.967 29.5625H10.4155L10.4449 26.5919C10.4449 25.4081 11.3935 24.4375 12.5773 24.4007V16.9007H10.4449V14.9448C10.4449 14.0551 10.9229 13.261 11.6582 12.9154L20.0038 9.00366ZM14.0405 24.3934H17.0332V16.9007H14.0405V24.3934ZM18.5037 24.3934H21.4964V16.9007H18.5037V24.3934Z" fill="white"/>
<path d="M27.0183 23.0625V26.3125H29.533V26.3566L28.2388 28.8272L27.9374 29.3933L27.8492 29.5625L27.1065 30.9816H27.0183V27.9375H24.4742L24.5403 27.8052L25.555 25.8639L25.9374 25.1287H25.9594V25.0846L26.3197 24.3934L26.6948 23.6801L27.0183 23.0625Z" fill="white"/>
</svg>
