<svg width="40" height="40" viewBox="0 0 40 40" fill="none" xmlns="http://www.w3.org/2000/svg">
<rect width="40" height="40" rx="4" fill="url(#paint0_linear_16658_453)"/>
<path fill-rule="evenodd" clip-rule="evenodd" d="M12.1088 8.33002C9.97763 8.33002 8.25 10.0576 8.25 12.1888V27.4713C8.25 29.6024 9.97763 31.33 12.1088 31.33H27.3912C29.5224 31.33 31.25 29.6024 31.25 27.4713V25.5951C30.8397 25.9873 30.3713 26.2821 29.8266 26.4435C29.2499 26.6143 28.6732 26.6998 28.0751 26.6998C27.6052 26.6998 27.1781 26.6357 26.7936 26.5289C26.3877 26.4221 26.046 26.2512 25.747 25.9949C25.448 25.76 25.213 25.461 25.0421 25.0979C24.8713 24.7348 24.7858 24.3076 24.7858 23.795C24.7858 23.2396 24.8926 22.7911 25.0848 22.428C25.2771 22.0649 25.5334 21.7872 25.8324 21.5736C26.1315 21.36 26.4946 21.2105 26.879 21.1037C27.2635 20.9969 27.6693 20.9115 28.0751 20.8474C28.4809 20.7834 28.8654 20.7406 29.2499 20.6979C29.6343 20.6552 29.9761 20.6125 30.2751 20.527C30.5741 20.4416 30.8091 20.3348 30.98 20.2067C31.1508 20.0572 31.2362 19.8436 31.2149 19.5872C31.2149 19.3096 31.1722 19.0746 31.0654 18.9038C30.98 18.7329 30.8518 18.6047 30.7023 18.5193C30.5528 18.4339 30.3605 18.3698 30.1683 18.3271C29.9547 18.3057 29.7411 18.2843 29.5062 18.2843C28.9935 18.2843 28.5663 18.3912 28.2673 18.6261C27.9683 18.861 27.7975 19.2241 27.7547 19.7581H25.0848C25.1703 19.1174 25.3198 18.6047 25.5975 18.1989C25.8752 17.7931 26.2169 17.4513 26.6441 17.195C27.0712 16.9387 27.5411 16.7679 28.0751 16.6611C28.6091 16.5543 29.143 16.5116 29.6771 16.5116C30.1683 16.5116 30.6596 16.5543 31.1508 16.6184C31.189 16.6233 31.2218 16.6284 31.25 16.6338V12.1888C31.25 10.0576 29.5224 8.33002 27.3912 8.33002H12.1088ZM14.8547 18.1989V13.0728H11.9071V26.4435H14.8547V20.6765H20.2585V26.4435H23.206V13.0728H20.2585V18.1989H14.8547Z" fill="white"/>
<path d="M31.25 21.7292C31.1438 21.8126 30.9973 21.895 30.8304 21.9367C30.6596 22.0008 30.4887 22.0435 30.2964 22.0862C30.1212 22.1252 29.9283 22.1464 29.7499 22.166L29.6984 22.1717C29.5916 22.1823 29.4848 22.1984 29.378 22.2144C29.2712 22.2304 29.1644 22.2464 29.0576 22.2571C29.0283 22.2636 28.9984 22.2702 28.9682 22.2768C28.8006 22.3134 28.6224 22.3523 28.4596 22.4066C28.2673 22.4707 28.0965 22.5561 27.947 22.6629C27.7975 22.7697 27.6906 22.8979 27.6052 23.0687C27.5198 23.2396 27.4771 23.4318 27.4771 23.6882C27.4771 23.9231 27.5198 24.1153 27.6052 24.2862C27.6906 24.4571 27.8188 24.5852 27.9683 24.6707C28.1178 24.7561 28.2887 24.8202 28.4809 24.8629C28.6732 24.9056 28.8867 24.927 29.1004 24.927C29.613 24.927 30.0188 24.8415 30.3178 24.6707C30.5955 24.4998 30.8091 24.2862 30.9586 24.0513C31.0867 23.8163 31.1722 23.56 31.2149 23.3037C31.22 23.2413 31.2252 23.1828 31.2301 23.1277C31.2379 23.0394 31.245 22.9602 31.25 22.8886V21.7292Z" fill="white"/>
<defs>
<linearGradient id="paint0_linear_16658_453" x1="34" y1="15" x2="12" y2="29.5" gradientUnits="userSpaceOnUse">
<stop stop-color="#008DC8"/>
<stop offset="1" stop-color="#0063A5"/>
</linearGradient>
</defs>
</svg>
