<svg width="40" height="40" viewBox="0 0 40 40" fill="none" xmlns="http://www.w3.org/2000/svg">
<rect x="0.5" y="0.5" width="39" height="39" rx="3.5" fill="white"/>
<rect x="0.5" y="0.5" width="39" height="39" rx="3.5" stroke="#DBD9D7"/>
<path d="M17.3609 22.3861C17.2735 22.4326 17.1751 22.4595 17.0706 22.4595C16.8285 22.4595 16.6182 22.3192 16.5077 22.1115L16.4654 22.014L14.7032 17.9387C14.6842 17.8944 14.6724 17.8443 14.6724 17.7955C14.6724 17.6077 14.8169 17.4555 14.9951 17.4555C15.0674 17.4555 15.1343 17.4808 15.1881 17.523L17.2677 19.0833C17.4196 19.188 17.6011 19.2494 17.7962 19.2494C17.9127 19.2494 18.0237 19.2266 18.1273 19.1868L27.9065 14.6C26.1536 12.4229 23.2667 11 19.9998 11C14.6538 11 10.3204 14.8058 10.3204 19.5008C10.3204 22.062 11.6242 24.3678 13.6649 25.9262C13.8286 26.0494 13.9358 26.2518 13.9358 26.4802C13.9358 26.5557 13.9204 26.6246 13.9017 26.6966C13.7387 27.3373 13.4778 28.3634 13.4657 28.4115C13.4454 28.4919 13.4136 28.5759 13.4136 28.66C13.4136 28.8479 13.558 29 13.7365 29C13.8064 29 13.8637 28.9725 13.9227 28.9367L16.0418 27.6473C16.2012 27.5506 16.3699 27.4903 16.556 27.4903C16.6548 27.4903 16.7504 27.5065 16.8403 27.5355C17.8289 27.8352 18.8955 28.0016 19.9999 28.0016C25.3456 28.0016 29.6796 24.1956 29.6796 19.5008C29.6796 18.0788 29.2797 16.7395 28.5769 15.5614L17.4318 22.343L17.3609 22.3861Z" fill="#1AAD19"/>
</svg>
