<svg width="40" height="40" viewBox="0 0 40 40" fill="none" xmlns="http://www.w3.org/2000/svg">
<rect x="0.5" y="0.5" width="39" height="39" rx="3.5" fill="white"/>
<rect x="0.5" y="0.5" width="39" height="39" rx="3.5" stroke="#DBD9D7"/>
<g clip-path="url(#clip0_13202_9703)">
<path d="M8.60001 12.7484H16.9279L21.1216 17.1079H13.2016L8.60001 12.7484Z" fill="#005D9D"/>
<path d="M20.4745 15.402L23.0721 12.7484H31.4L26.7984 17.1079H22.1155L20.4745 15.402Z" fill="#005D9D"/>
<path d="M22.1156 22.868L20.4745 24.5739L23.0721 27.2276H31.4L26.7984 22.868H22.1156Z" fill="#005D9D"/>
<path d="M21.1216 22.868H13.2016L8.60241 27.2252L16.9279 27.2276L21.1216 22.868Z" fill="#005D9D"/>
<path d="M9.66217 19.616H11.0907V17.9233H12.0708V22.0527H11.0907V20.487H9.66217V22.0527H8.6881V17.9233H9.66217V19.616Z" fill="#005D9D"/>
<path d="M16.6157 17.9233H17.5958V21.1816H19.1162V22.0527H16.6157V17.9233Z" fill="#005D9D"/>
<path d="M19.5708 22.0527H20.5626V17.9233H19.5708V22.0527Z" fill="#005D9D"/>
<path d="M23.948 18.7943H22.1016V19.616H23.6315V20.487H22.1016V22.0527H21.1217V17.9233H23.948V18.7943Z" fill="#005D9D"/>
<path fill-rule="evenodd" clip-rule="evenodd" d="M13.8071 17.9233L12.3884 22.0527H13.3956L13.6357 21.3023H15.0508L15.2909 22.0527H16.2981L14.8808 17.9233H13.8071ZM13.8965 20.487L14.3432 19.0906L14.79 20.487H13.8965Z" fill="#005D9D"/>
<path fill-rule="evenodd" clip-rule="evenodd" d="M30.0941 17.9233H31.206L29.8374 19.988L31.206 22.0527H30.0941L29.3043 20.8051L28.5145 22.0527H26.5508L26.3107 21.3023H24.8955L24.6555 22.0527H23.6482L25.067 17.9233H26.1407L27.505 21.8984L28.7712 19.988L27.4027 17.9233H28.5145L29.3043 19.1709L30.0941 17.9233ZM25.6031 19.0906L25.1564 20.487H26.0499L25.6031 19.0906Z" fill="#005D9D"/>
</g>
<defs>
<clipPath id="clip0_13202_9703">
<rect width="24" height="15.2727" fill="white" transform="translate(8 12.36)"/>
</clipPath>
</defs>
</svg>
