<svg width="40" height="40" viewBox="0 0 40 40" fill="none" xmlns="http://www.w3.org/2000/svg">
<rect width="40" height="40" rx="4" fill="#6461FC"/>
<rect x="0.5" y="0.5" width="39" height="39" rx="3.5" stroke="white" stroke-opacity="0.01"/>
<path fill-rule="evenodd" clip-rule="evenodd" d="M21.0253 16.1419L19.2981 16.5235V15.082L21.0253 14.7075V16.1419ZM24.617 16.9404C23.9427 16.9404 23.5092 17.2654 23.2683 17.4915L23.1789 17.0534H21.6651V25.2924L23.3853 24.9179L23.3922 22.9183C23.6399 23.102 24.0046 23.3634 24.6101 23.3634C25.8418 23.3634 26.9634 22.3459 26.9634 20.106C26.9565 18.0568 25.8212 16.9404 24.617 16.9404ZM24.2041 21.8089C23.7982 21.8089 23.5573 21.6605 23.3922 21.4768L23.3853 18.8553C23.5642 18.6504 23.8119 18.509 24.2041 18.509C24.8303 18.509 25.2638 19.2298 25.2638 20.1554C25.2638 21.1023 24.8372 21.8089 24.2041 21.8089ZM32.3857 20.1766C32.3857 18.3677 31.5325 16.9404 29.9017 16.9404C28.264 16.9404 27.2731 18.3677 27.2731 20.1625C27.2731 22.2894 28.4429 23.3634 30.1219 23.3634C30.9407 23.3634 31.56 23.1726 32.0279 22.9041V21.4909C31.56 21.7312 31.0233 21.8795 30.342 21.8795C29.6746 21.8795 29.0828 21.6393 29.0071 20.8055H32.3719C32.3719 20.7666 32.3744 20.6782 32.3772 20.5763L32.3773 20.5761C32.3811 20.4377 32.3857 20.2743 32.3857 20.1766ZM28.9865 19.5054C28.9865 18.7069 29.4612 18.3748 29.8947 18.3748C30.3145 18.3748 30.7617 18.7069 30.7617 19.5054H28.9865ZM19.298 17.0605H21.0251V23.2433H19.298V17.0605ZM17.3371 17.0605L17.4472 17.5834C17.8532 16.8203 18.6582 16.9757 18.8784 17.0605V18.6857C18.6651 18.608 17.977 18.509 17.5711 19.0531V23.2433H15.8508V17.0605H17.3371ZM14.0066 15.5272L12.3276 15.8946L12.3208 21.5545C12.3208 22.6003 13.0846 23.3705 14.1029 23.3705C14.6672 23.3705 15.08 23.2645 15.3071 23.1373V21.7029C15.0869 21.7947 13.9997 22.1198 13.9997 21.074V18.5656H15.3071V17.0605H13.9997L14.0066 15.5272ZM9.94003 18.4737C9.57534 18.4737 9.35515 18.5797 9.35515 18.8553C9.35515 19.1562 9.7341 19.2885 10.2042 19.4527C10.9707 19.7204 11.9794 20.0728 11.9837 21.3779C11.9837 22.6427 10.9997 23.3705 9.56846 23.3705C8.97669 23.3705 8.32988 23.2504 7.68995 22.9677V21.286C8.26795 21.611 8.99734 21.8513 9.56846 21.8513C9.95379 21.8513 10.229 21.7453 10.229 21.4203C10.229 21.087 9.81824 20.9346 9.3223 20.7507C8.56702 20.4706 7.61426 20.1173 7.61426 18.9401C7.61426 17.6894 8.54319 16.9404 9.94003 16.9404C10.5112 16.9404 11.0754 17.0323 11.6465 17.2654V18.926C11.1236 18.6362 10.463 18.4737 9.94003 18.4737Z" fill="white"/>
</svg>
