<svg xmlns="http://www.w3.org/2000/svg" width="40" height="40" fill="none"><rect width="40" height="40" fill="#f36805" rx="4"/><g fill="#fff" clip-path="url(#a)"><path fill-rule="evenodd" d="M26.645 13.747a2.22 2.22 0 0 1 2.074 1.373c.14.293.213.614.214.938v1.41h-6.349a.605.605 0 0 0-.605.598v7.612a.605.605 0 0 0 .605.605h5.537v.014h.783v1.477a2.26 2.26 0 0 1-2.26 2.26H11.142a2.26 2.26 0 0 1-2.26-2.26V16.058c.002-.325.075-.645.215-.938q.075-.179.184-.34l.06-.073.132-.178q.165-.19.362-.347c.378-.28.836-.433 1.307-.435zm-9.88 4.565a.55.55 0 0 0-.321.093c-2.22 1.367-3.434 3.595-3.485 3.713a.3.3 0 0 0-.016.093c0 .11.067.194.16.21l.64.127c.085.017.145.093.153.186 0 .118.127 2.632.278 3.282.017.092.119.16.211.16l4.717-.017a.21.21 0 0 0 .21-.16c.152-.657.27-3.167.28-3.282a.23.23 0 0 1 .15-.186l.642-.126c.093-.017.16-.118.16-.211 0-.017 0-.05-.017-.076-.017-.067-.354-.675-.979-1.452h.026a.2.2 0 0 1-.026-.067h.026a29 29 0 0 0-.185-1.595c-.017-.084-.094-.151-.195-.177l-.657-.076a.134.134 0 0 0-.136.136v.792s-.869-1.004-1.316-1.274a.57.57 0 0 0-.32-.093" clip-rule="evenodd"/><path d="M31.074 24.806h-7.618v-5.862h7.618zM20.695 9.605a2.214 2.214 0 0 1 2.893 1.203l.665 1.602H13.93z"/></g><defs><clipPath id="a"><path fill="#fff" d="M8.188 8.188h23.624v23.624H8.189z"/></clipPath></defs></svg>