<svg width="40" height="40" viewBox="0 0 40 40" fill="none" xmlns="http://www.w3.org/2000/svg">
<rect width="40" height="40" rx="4" fill="white"/>
<rect x="4.5" y="8.5" width="31" height="23" rx="3.5" fill="white"/>
<rect x="4.5" y="8.5" width="31" height="23" rx="3.5" stroke="black"/>
<path d="M12.7984 16.7269C13.0724 16.3923 13.2583 15.9431 13.2093 15.484C12.8082 15.5035 12.3187 15.7423 12.0354 16.0772C11.7809 16.3639 11.5557 16.832 11.6144 17.2718C12.0647 17.3099 12.5145 17.0521 12.7984 16.7269Z" fill="black"/>
<path d="M13.2042 17.3577C12.5503 17.3196 11.9944 17.7199 11.6821 17.7199C11.3697 17.7199 10.8915 17.3768 10.3744 17.3861C9.70123 17.3957 9.07664 17.7673 8.73506 18.3582C8.03248 19.5404 8.54965 21.294 9.23287 22.2569C9.56466 22.7332 9.96452 23.2577 10.4914 23.2389C10.9892 23.2198 11.1843 22.9242 11.7894 22.9242C12.3941 22.9242 12.5699 23.2389 13.0968 23.2293C13.6433 23.2198 13.9849 22.7528 14.3167 22.276C14.6973 21.7329 14.8532 21.2086 14.863 21.1798C14.8532 21.1703 13.8092 20.7793 13.7995 19.607C13.7897 18.6253 14.6191 18.1584 14.6582 18.1294C14.1898 17.4531 13.4579 17.3768 13.2042 17.3577Z" fill="black"/>
<path d="M18.8975 16.0292C20.3186 16.0292 21.3082 16.9855 21.3082 18.3779C21.3082 19.7753 20.2982 20.7366 18.8618 20.7366H17.2883V23.1795H16.1515V16.0292L18.8975 16.0292ZM17.2883 19.805H18.5928C19.5826 19.805 20.1459 19.2848 20.1459 18.3829C20.1459 17.4811 19.5826 16.9657 18.5979 16.9657H17.2883V19.805Z" fill="black"/>
<path d="M21.6052 21.698C21.6052 20.7861 22.3209 20.2262 23.5899 20.1569L25.0516 20.0726V19.6713C25.0516 19.0915 24.6506 18.7447 23.9807 18.7447C23.3461 18.7447 22.9502 19.0419 22.8539 19.5078H21.8185C21.8794 18.5662 22.7016 17.8725 24.0213 17.8725C25.3156 17.8725 26.1428 18.5415 26.1428 19.587V23.1795H25.0921V22.3223H25.0669C24.7573 22.9021 24.0822 23.2687 23.3818 23.2687C22.3362 23.2687 21.6052 22.6345 21.6052 21.698ZM25.0516 21.2272V20.816L23.737 20.8952C23.0822 20.9398 22.7117 21.2223 22.7117 21.6682C22.7117 22.1241 23.0975 22.4214 23.6863 22.4214C24.4526 22.4214 25.0516 21.906 25.0516 21.2272Z" fill="black"/>
<path d="M27.1348 25.0973V24.2301C27.2158 24.2499 27.3985 24.2499 27.49 24.2499C27.9975 24.2499 28.2716 24.0418 28.439 23.5066C28.439 23.4967 28.5356 23.1895 28.5356 23.1845L26.6069 17.9666H27.7944L29.1447 22.2084H29.1649L30.5152 17.9666H31.6724L29.6724 23.452C29.2158 24.7157 28.6879 25.122 27.5814 25.122C27.49 25.122 27.2158 25.1121 27.1348 25.0973Z" fill="black"/>
</svg>
