<svg width="40" height="40" viewBox="0 0 40 40" fill="none" xmlns="http://www.w3.org/2000/svg">
<rect width="40" height="40" rx="4" fill="#2D2341"/>
<rect x="0.5" y="0.5" width="39" height="39" rx="3.5" stroke="white" stroke-opacity="0.01"/>
<path d="M32.2555 17.56C32.6667 17.56 33 17.2267 33 16.8155C33 16.4043 32.6667 16.071 32.2555 16.071C31.8443 16.071 31.5109 16.4043 31.5109 16.8155C31.5109 17.2267 31.8443 17.56 32.2555 17.56Z" fill="#7887E6"/>
<path d="M32.2555 19.8909C32.6667 19.8909 33 19.5576 33 19.1464C33 18.7352 32.6667 18.4019 32.2555 18.4019C31.8443 18.4019 31.5109 18.7352 31.5109 19.1464C31.5109 19.5576 31.8443 19.8909 32.2555 19.8909Z" fill="#FF5073"/>
<path fill-rule="evenodd" clip-rule="evenodd" d="M8.89555 18.002H8.17314V19.8055H7V14.869H8.89555C10.026 14.869 10.5626 15.5271 10.5626 16.3998C10.5626 17.4083 9.84693 18.002 8.89555 18.002ZM8.71958 15.7273H8.17314V17.1433H8.76692C9.17751 17.1433 9.44765 16.8716 9.42346 16.3828C9.40494 16.0128 9.09004 15.7273 8.71958 15.7273ZM13.7991 19.805H12.6542H12.6537V19.6429C12.4253 19.7864 12.1263 19.8904 11.851 19.8904C11.1533 19.8904 10.6228 19.3645 10.6228 18.7383C10.6228 18.0972 11.0767 17.4031 12.6542 17.5153V17.2719C12.6542 16.993 12.4181 16.8999 12.1536 16.8999C11.7816 16.8999 11.3453 17.0646 11.1379 17.1577L10.823 16.5068C11.1662 16.2922 11.7245 16.0705 12.4325 16.0705C13.2768 16.0705 13.7991 16.4425 13.7991 17.2652V19.805ZM11.7667 18.7178C11.7667 18.9822 11.9601 19.1469 12.2462 19.1469C12.4253 19.1469 12.5899 19.0826 12.6964 19.0038V18.2382C12.0033 18.1235 11.7667 18.4173 11.7667 18.7178ZM25.1868 16.1564V16.0062C25.1868 15.1407 25.673 14.5757 26.5961 14.5757C26.804 14.5757 26.9825 14.6046 27.14 14.6473V15.4623C27.0473 15.434 26.9115 15.4124 26.804 15.4124C26.4531 15.4124 26.3244 15.6413 26.3244 15.9634V16.1564H27.1111V16.9364H26.3244V19.805H25.1868V16.9364H24.5786V16.1564H25.1868ZM21.2748 16.5073C21.618 16.2927 22.1762 16.071 22.8842 16.071C23.7286 16.071 24.2508 16.443 24.2503 17.2652V19.805H23.1055V19.6434C22.877 19.787 22.5781 19.8909 22.3028 19.8909C21.6051 19.8909 21.0746 19.365 21.0746 18.7389C21.0746 18.0977 21.5284 17.4036 23.106 17.5158V17.2724C23.106 16.9935 22.8698 16.9004 22.6054 16.9004C22.2333 16.9004 21.797 17.0651 21.5897 17.1582L21.2748 16.5073ZM22.6553 19.1469C22.8343 19.1469 22.9985 19.0826 23.106 19.0038H23.1055V18.2382C22.4124 18.1235 22.1757 18.4173 22.1757 18.7178C22.1757 18.9822 22.3692 19.1469 22.6553 19.1469ZM17.8691 16.1569L16.0203 20.8289H14.9311L15.4127 19.6336L13.8696 16.1569H15.0412L15.9447 18.337L16.7319 16.1569H17.8691ZM30.7669 17.9249V18.2099V18.2109H28.3949C28.4129 18.3982 28.4608 18.551 28.5328 18.6725C28.5333 18.673 28.5333 18.6735 28.5338 18.674C28.5457 18.6931 28.558 18.7116 28.5709 18.7291C28.5786 18.7399 28.5863 18.7497 28.5945 18.7599C28.5961 18.7619 28.5977 18.7638 28.5993 18.7658C28.6029 18.7702 28.6066 18.7747 28.6105 18.779C28.6244 18.7955 28.6393 18.8114 28.6547 18.8263L28.6563 18.8279C28.6944 18.8644 28.7371 18.8973 28.7844 18.9261C28.7849 18.9264 28.7853 18.9265 28.7856 18.9266C28.7859 18.9268 28.7862 18.9269 28.7865 18.9272C28.8076 18.94 28.8302 18.9519 28.8534 18.9632C28.8556 18.9642 28.8577 18.9652 28.8598 18.9662C28.862 18.9672 28.8641 18.9683 28.8662 18.9694C28.8801 18.9761 28.895 18.9822 28.91 18.9879C28.9233 18.993 28.9367 18.9977 28.9501 19.0023L28.9804 19.0116C28.9995 19.0167 29.0185 19.0218 29.0381 19.0265C29.0414 19.0272 29.0448 19.0279 29.0481 19.0285C29.0515 19.0292 29.0548 19.0298 29.0581 19.0306C29.0772 19.0347 29.0962 19.0378 29.1158 19.0409C29.1214 19.0419 29.1266 19.0429 29.1322 19.0435C29.1564 19.0465 29.1811 19.0491 29.2058 19.0507C29.2087 19.0509 29.2114 19.051 29.2142 19.0511C29.2174 19.0513 29.2205 19.0514 29.2238 19.0517C29.2501 19.0532 29.2763 19.0543 29.3036 19.0543C29.6144 19.0543 29.9612 18.9668 30.3033 18.7728L30.6223 19.4818C30.1176 19.8317 29.4626 19.8914 29.1317 19.8914C27.9442 19.8914 27.2002 19.1541 27.2002 18.0026C27.2002 16.8793 27.9874 16.071 29.0031 16.071C30.0188 16.071 30.7669 16.8551 30.7669 17.9249ZM29.6113 17.6089C29.568 17.1227 29.318 16.8721 29.0031 16.8721C28.6882 16.8721 28.4381 17.1222 28.3949 17.6089H29.6113ZM19.0895 19.061C19.426 19.061 19.6262 18.9606 19.6262 18.7605C19.6262 18.5466 19.353 18.4533 19.0246 18.3412C18.5297 18.1722 17.9094 17.9605 17.9097 17.2287C17.9097 16.4564 18.5961 16.07 19.4476 16.07C19.9128 16.07 20.3707 16.213 20.6712 16.3632L20.3491 17.1145C20.1201 17.0146 19.8052 16.9071 19.5048 16.9071C19.2187 16.9071 19.0468 17.0141 19.0468 17.186C19.0468 17.375 19.302 17.4603 19.6139 17.5646C20.1043 17.7285 20.735 17.9393 20.735 18.674C20.735 19.4613 20.0198 19.8904 19.1899 19.8904C18.7247 19.8904 18.2241 19.7834 17.795 19.5544L18.1598 18.8176C18.417 18.9467 18.7463 19.061 19.0895 19.061ZM23.1894 22.249V21.7684H22.983V21.6336H23.5536L23.5747 21.7684H23.3797V22.249H23.1894ZM24.2313 22.249L24.2081 21.8034L24.1922 21.8631L24.1922 21.8633C24.158 21.9919 24.1238 22.1203 24.0877 22.249H23.9205L23.8001 21.8034L23.7769 22.249H23.6066C23.6252 22.0448 23.6416 21.8384 23.6576 21.6342H23.8968L24.0059 22.0705L24.007 22.0658C24.0416 21.9213 24.0758 21.7787 24.1124 21.6342H24.3517L24.4006 22.249H24.2313ZM7.00515 21.8147V24.5603H7.65758V23.5575H8.05943C8.58889 23.5575 8.98663 23.2271 8.98663 22.6663C8.98663 22.1806 8.68819 21.8147 8.05943 21.8147H7.00515ZM8.35426 22.69C8.35426 22.9406 8.2071 23.08 7.98843 23.08H7.65809V22.2922H7.98843C8.22305 22.2922 8.35426 22.4553 8.35426 22.69ZM10.2323 24.3576L10.2683 24.5603V24.5608H10.8492V23.1484C10.8492 22.6905 10.559 22.4836 10.0893 22.4836C9.69514 22.4836 9.38488 22.6071 9.19398 22.7265L9.36893 23.0887C9.48418 23.0368 9.72704 22.9452 9.93389 22.9452C10.081 22.9452 10.2122 22.9966 10.2122 23.152V23.2873C9.36481 23.2714 9.08233 23.5616 9.08233 23.9995C9.08233 24.4054 9.40083 24.6082 9.71521 24.6082C9.9699 24.6082 10.1207 24.4811 10.2323 24.3576ZM10.0697 23.6768C10.1029 23.6768 10.1311 23.6801 10.1609 23.6834L10.1609 23.6834L10.1609 23.6834L10.161 23.6834C10.1774 23.6853 10.1943 23.6872 10.2128 23.6887V24.1142C10.1531 24.1579 10.0615 24.194 9.96219 24.194C9.80319 24.194 9.69566 24.1024 9.69566 23.9552C9.69566 23.7885 9.81503 23.6768 10.0697 23.6768ZM11.4662 25.4237L11.8006 24.5603H11.6097C11.5358 24.3279 11.4624 24.0955 11.3891 23.8632C11.2488 23.4191 11.1086 22.9752 10.965 22.531H11.6097L11.9915 24.035L12.4211 22.531H13.054C12.8707 23.0611 12.6898 23.5913 12.5093 24.1202L12.5093 24.1203L12.5093 24.1204L12.5092 24.1205L12.5092 24.1206C12.3605 24.5563 12.2122 24.9911 12.063 25.4242H11.4662V25.4237ZM14.204 21.8147V24.5603H15.903V24.0869H14.8564V21.8147H14.204ZM17.2681 24.5603L17.2321 24.3576C17.1204 24.4811 16.9696 24.6082 16.715 24.6082C16.4006 24.6082 16.0821 24.4054 16.0821 23.9995C16.0821 23.5616 16.3646 23.2714 17.212 23.2873V23.152C17.212 22.9966 17.0808 22.9452 16.9336 22.9452C16.7268 22.9452 16.4839 23.0368 16.3687 23.0887L16.1937 22.7265C16.3846 22.6071 16.6949 22.4836 17.089 22.4836C17.5588 22.4836 17.849 22.6905 17.849 23.1484V24.5608H17.2681V24.5603ZM17.1607 23.6834L17.1607 23.6834C17.1309 23.6801 17.1026 23.6768 17.0695 23.6768C16.8148 23.6768 16.6954 23.7885 16.6954 23.9552C16.6954 24.1024 16.8029 24.194 16.9619 24.194C17.0612 24.194 17.1528 24.1579 17.2125 24.1142V23.6887C17.194 23.6872 17.1771 23.6853 17.1607 23.6834L17.1607 23.6834ZM18.3743 24.0072C18.3743 24.5366 18.7525 24.5603 18.9434 24.5603V24.5613H19.3972V24.1353H19.2223C19.0828 24.1353 19.0072 24.0715 19.0072 23.8647V22.9652H19.3972V22.5315H19.0072V21.9264L18.3743 22.1451V22.531H18.0641V22.9647H18.3743V24.0072ZM21.4183 24.409C21.2912 24.5048 20.9604 24.6082 20.6342 24.6082C19.9735 24.6082 19.5598 24.1981 19.5598 23.5575C19.5598 22.9328 19.9977 22.4831 20.5626 22.4831C20.9964 22.4831 21.426 22.7178 21.426 23.434V23.6727H20.2246C20.2565 24.0072 20.4592 24.1425 20.7299 24.1425C20.9331 24.1425 21.1636 24.0592 21.2393 24.0113L21.4183 24.409ZM20.8415 23.3388C20.8415 23.064 20.7222 22.9287 20.5549 22.9287C20.38 22.9287 20.2488 23.0682 20.2246 23.3388H20.8415ZM21.6848 22.531V24.5603H22.3213V23.2472C22.433 23.1356 22.612 23.0682 22.7793 23.0682C22.8189 23.0682 22.9022 23.0682 22.9383 23.0759V22.4831C22.664 22.4831 22.4212 22.6504 22.2899 22.9009V22.531H21.6848Z" fill="white"/>
</svg>
