<svg width="40" height="40" viewBox="0 0 40 40" fill="none" xmlns="http://www.w3.org/2000/svg">
<rect x="0.5" y="0.5" width="39" height="39" rx="3.5" fill="white"/>
<rect x="0.5" y="0.5" width="39" height="39" rx="3.5" stroke="#DBD9D7"/>
<path d="M24.7688 16.8587C24.7688 16.8587 24.7337 16.7975 24.7337 16.7713C24.6375 15.66 24.48 14.925 24.48 14.925C24.4538 14.8025 24.3487 14.7063 24.2175 14.6888L23.3337 14.5838C23.3337 14.5838 23.3163 14.5838 23.3075 14.5838C23.2025 14.5838 23.1237 14.6713 23.1237 14.7675V15.0737C23.1237 15.0737 23.1237 15.0825 23.115 15.0825C22.5812 14.6013 21.9863 14.1463 21.33 13.735C21.2075 13.6475 21.0588 13.6037 20.8925 13.6037C20.7263 13.6037 20.5775 13.6563 20.455 13.735C17.4013 15.6163 15.7212 18.6875 15.6512 18.8537C15.6337 18.8887 15.625 18.9325 15.625 18.985C15.625 19.125 15.7213 19.2475 15.8525 19.2825L16.7363 19.4487C16.85 19.4837 16.9463 19.58 16.955 19.7025C16.955 19.86 17.13 23.325 17.34 24.2262C17.375 24.3575 17.4887 24.4538 17.6287 24.4538C18.145 24.445 18.6087 24.4362 19.1162 24.4275C19.1162 24.4275 19.1425 24.4275 19.1512 24.4275C19.2037 24.4275 19.2475 24.3838 19.2475 24.3313C19.23 24.025 19.1863 23.3337 19.1425 22.6075C19.1425 22.59 19.1425 22.5637 19.1425 22.5462C19.1425 22.485 19.1075 22.4237 19.055 22.3975C18.7925 22.24 18.6088 21.96 18.5913 21.6275C18.5475 20.4113 18.5213 19.0025 18.5913 17.9087C18.5913 17.8212 18.67 17.7425 18.7663 17.7425C18.8625 17.7425 18.9413 17.8212 18.95 17.9175C18.95 17.9175 18.95 17.9263 18.95 17.935C18.9063 18.67 18.9063 19.5363 18.915 20.3938C18.915 20.5075 19.0113 20.6038 19.125 20.6038C19.2387 20.6038 19.335 20.5075 19.335 20.3938C19.3175 19.5363 19.3262 18.6613 19.37 17.9263C19.37 17.8388 19.4487 17.76 19.545 17.76C19.6412 17.76 19.72 17.8388 19.7287 17.935C19.7287 17.935 19.7287 17.9437 19.7287 17.9525C19.685 18.6787 19.685 19.545 19.6937 20.3938C19.6937 20.5075 19.79 20.6038 19.9038 20.595C20.0175 20.595 20.1138 20.4988 20.105 20.385C20.0875 19.5275 20.0962 18.6613 20.14 17.9263C20.14 17.8388 20.2188 17.76 20.315 17.76C20.4113 17.76 20.49 17.8388 20.4987 17.935C20.4987 17.935 20.4987 17.9437 20.4987 17.9525C20.4375 19.02 20.455 20.3763 20.4987 21.5663V21.575C20.4987 21.575 20.4987 21.5837 20.4987 21.5925C20.4987 21.5925 20.4987 21.5925 20.4987 21.6012C20.4987 21.925 20.3325 22.2137 20.0875 22.38C20.0438 22.415 20.0175 22.4587 20.0088 22.52C20.0088 22.52 19.9825 22.7038 20.07 23.5875C20.105 23.9725 20.14 24.2437 20.1488 24.3575C20.1488 24.4012 20.1925 24.4362 20.2363 24.4362C20.2625 24.4362 20.2888 24.4362 20.3238 24.4362C20.49 24.4362 20.665 24.4362 20.8487 24.4362H20.9187C21.1462 24.4362 21.365 24.4362 21.575 24.4362H22.0738C22.1175 24.4362 22.1612 24.4012 22.17 24.3575C22.2837 23.2987 22.31 22.7038 22.31 22.7038C22.31 22.6513 22.2663 22.6075 22.2138 22.5987L21.61 22.5113C21.5138 22.4938 21.4612 22.4325 21.435 22.3625C21.4262 22.3188 21.435 22.2663 21.435 22.2663C21.68 18.74 22.8438 17.55 22.8438 17.55C22.8787 17.515 22.8962 17.4975 22.8962 17.4975C22.9312 17.4713 22.9663 17.4625 23.01 17.4625C23.0888 17.4625 23.1587 17.515 23.185 17.585C23.185 17.585 23.1937 17.6113 23.2025 17.6725C23.2987 18.7838 23.255 20.6738 23.1937 22.1438C23.1412 23.395 23.08 24.375 23.08 24.375C23.08 24.375 23.115 24.4538 23.15 24.4538C23.4825 24.4538 23.8062 24.4625 24.1475 24.4713C24.2875 24.4713 24.41 24.375 24.4362 24.2438C24.6462 23.3425 24.8125 19.8775 24.8213 19.72C24.8388 19.5975 24.9263 19.4925 25.04 19.4663L25.9238 19.3C26.055 19.265 26.1513 19.1512 26.1513 19.0025C26.1513 18.9587 26.1425 18.915 26.125 18.8713C26.09 18.7838 25.635 17.935 24.7775 16.8763L24.7688 16.8587Z" fill="#242E30"/>
<path d="M32.25 19.125C32.25 12.8512 27.1488 7.75 20.875 7.75C17.8825 7.75 15.17 8.9225 13.1312 10.8125H13.1225L12.9212 10.9963C12.86 11.0575 12.8075 11.11 12.7463 11.1712L11.0837 12.8337C8.93125 14.9775 7.75 17.8387 7.75 20.875C7.75 23.9113 8.93125 26.7638 11.0837 28.9163C13.2275 31.06 16.0887 32.25 19.125 32.25C22.1613 32.25 25.0138 31.0688 27.1663 28.9163L28.9688 27.1137C30.9987 25.0487 32.2588 22.2312 32.2588 19.1162L32.25 19.125ZM12.3175 27.6825C10.4975 25.8625 9.5 23.4475 9.5 20.8838C9.5 20.6038 9.5175 20.3237 9.54375 20.0525C9.99 25.6087 14.435 30.0362 20 30.465C17.2525 30.71 14.4263 29.7913 12.3263 27.6913L12.3175 27.6825ZM20.875 28.75C15.5637 28.75 11.25 24.4363 11.25 19.125C11.25 16.5175 12.2912 14.155 13.98 12.4225L14.1725 12.23C15.905 10.5412 18.2675 9.5 20.875 9.5C26.1863 9.5 30.5 13.8137 30.5 19.125C30.5 24.4363 26.1863 28.75 20.875 28.75Z" fill="#242E30"/>
</svg>
