<svg width="40" height="40" viewBox="0 0 40 40" fill="none" xmlns="http://www.w3.org/2000/svg">
<rect width="40" height="40" rx="4" fill="#F36805"/>
<rect x="0.5" y="0.5" width="39" height="39" rx="3.5" stroke="white" stroke-opacity="0.01"/>
<path d="M8.92578 18.1543V25.9062C8.92578 26.4937 9.15913 27.057 9.57449 27.4724C9.98986 27.8877 10.5532 28.1211 11.1406 28.1211H28.8594C29.4468 28.1211 30.0101 27.8877 30.4255 27.4724C30.8409 27.057 31.0742 26.4937 31.0742 25.9062V18.1543H8.92578ZM17.0469 23.6914H12.6172V22.2148H17.0469V23.6914ZM26.1204 24.2156C25.9395 24.2163 25.7607 24.1778 25.5962 24.1026C25.4318 24.0273 25.2857 23.9173 25.168 23.78C24.9994 23.9745 24.7754 24.1128 24.5261 24.1764C24.2767 24.24 24.0138 24.2259 23.7727 24.136C23.5316 24.046 23.3237 23.8845 23.1769 23.6731C23.0302 23.4617 22.9515 23.2105 22.9515 22.9531C22.9515 22.6958 23.0302 22.4446 23.1769 22.2332C23.3237 22.0217 23.5316 21.8602 23.7727 21.7703C24.0138 21.6803 24.2767 21.6662 24.5261 21.7298C24.7754 21.7935 24.9994 21.9318 25.168 22.1262C25.3065 21.9664 25.4829 21.844 25.6811 21.7701C25.8793 21.6963 26.0928 21.6734 26.3022 21.7036C26.5115 21.7338 26.7099 21.8161 26.8791 21.9429C27.0483 22.0697 27.183 22.2371 27.2707 22.4295C27.3584 22.6219 27.3964 22.8333 27.3811 23.0443C27.3659 23.2552 27.2978 23.4589 27.1833 23.6367C27.0688 23.8145 26.9115 23.9607 26.7257 24.0618C26.54 24.163 26.3318 24.2159 26.1204 24.2156V24.2156ZM8.92578 15.9395V14.0938C8.92578 13.5063 9.15913 12.943 9.57449 12.5276C9.98986 12.1123 10.5532 11.8789 11.1406 11.8789H28.8594C29.4468 11.8789 30.0101 12.1123 30.4255 12.5276C30.8409 12.943 31.0742 13.5063 31.0742 14.0938V15.9395H8.92578Z" fill="white"/>
</svg>
