<svg width="40" height="40" viewBox="0 0 40 40" fill="none" xmlns="http://www.w3.org/2000/svg">
<rect width="40" height="40" rx="4" fill="#0079BE"/>
<rect x="0.5" y="0.5" width="39" height="39" rx="3.5" stroke="white" stroke-opacity="0.01"/>
<path fill-rule="evenodd" clip-rule="evenodd" d="M18.5456 27.25H21.1417C25.1941 27.25 28.4234 24.035 28.55 20.0635V20.0004C28.4867 15.9659 25.1941 12.6879 21.1417 12.7509H18.229C14.3665 12.877 11.3272 16.155 11.4538 20.0635C11.4538 23.9719 14.6198 27.187 18.5456 27.25ZM12.7202 20.0004C12.7202 16.7224 15.4429 14.0117 18.7355 14.0117C22.0281 14.0117 24.7509 16.7224 24.7509 20.0004C24.7509 23.2785 22.0281 25.9892 18.7355 25.9892C15.4429 25.9892 12.7202 23.2785 12.7202 20.0004ZM19.6853 24.035V16.0289C21.9015 16.5963 23.2945 18.8027 22.7247 21.0091C22.3447 22.522 21.205 23.6567 19.6853 24.035ZM14.8097 18.9918C14.2399 21.1982 15.5696 23.4676 17.7858 24.035V16.0289C16.3294 16.4072 15.1897 17.5419 14.8097 18.9918Z" fill="white"/>
</svg>
