<svg width="40" height="40" viewBox="0 0 40 40" fill="none" xmlns="http://www.w3.org/2000/svg">
<rect width="40" height="40" rx="4" fill="url(#paint0_linear_18315_1105)"/>
<path d="M14.4 15.1C14.4 15.657 14.1787 16.1911 13.7849 16.5849C13.3911 16.9788 12.857 17.2 12.3 17.2C11.743 17.2 11.2089 16.9788 10.8151 16.5849C10.4212 16.1911 10.2 15.657 10.2 15.1C10.2 14.543 10.4212 14.0089 10.8151 13.6151C11.2089 13.2212 11.743 13 12.3 13C12.857 13 13.3911 13.2212 13.7849 13.6151C14.1787 14.0089 14.4 14.543 14.4 15.1Z" fill="url(#paint1_linear_18315_1105)"/>
<path d="M30.9848 26.9023H34L30.3774 22.0054L33.6623 17.7977H30.9275L27.7017 22.0316V13.0028H25.3604V26.9023H27.7017L27.6999 22.0434L30.9848 26.9023ZM20.9443 17.7961H23.285V26.9007H20.9443V17.7961ZM16.5265 13H18.8672V26.9007H16.5265V13ZM10.4409 17.7052C9.70808 17.7041 8.98648 17.8937 8.34099 18.2568V13.0003H6V22.3514C5.99977 23.2706 6.25997 24.1692 6.74771 24.9336C7.23545 25.698 7.92882 26.2939 8.74013 26.6458C9.55143 26.9978 10.4442 27.09 11.3056 26.9109C12.167 26.7318 12.9583 26.2893 13.5795 25.6395C14.2006 24.9896 14.6237 24.1616 14.7952 23.2601C14.9667 22.3586 14.8789 21.4241 14.5429 20.5748C14.207 19.7256 13.6379 18.9996 12.9078 18.4888C12.1776 17.978 11.3191 17.7053 10.4409 17.7052ZM10.4409 24.5882C10.0183 24.5882 9.60517 24.457 9.25377 24.2113C8.90237 23.9655 8.62849 23.6163 8.46675 23.2076C8.30501 22.799 8.26267 22.3493 8.3451 21.9155C8.42753 21.4816 8.63101 21.0831 8.92983 20.7703C9.22864 20.4576 9.60936 20.2445 10.0239 20.1582C10.4383 20.0719 10.868 20.1161 11.2584 20.2853C11.6489 20.4546 11.9827 20.7412 12.2175 21.1089C12.4523 21.4767 12.5777 21.909 12.5778 22.3514C12.5779 22.6451 12.5227 22.936 12.4153 23.2074C12.308 23.4788 12.1506 23.7255 11.9522 23.9332C11.7537 24.1409 11.5181 24.3057 11.2588 24.4181C10.9995 24.5305 10.7216 24.5883 10.4409 24.5882Z" fill="white"/>
<defs>
<linearGradient id="paint0_linear_18315_1105" x1="21.5" y1="40" x2="21.5" y2="-2.36389e-07" gradientUnits="userSpaceOnUse">
<stop stop-color="#5A5A5A"/>
<stop offset="0.15" stop-color="#484848"/>
<stop offset="0.52" stop-color="#212121"/>
<stop offset="0.82" stop-color="#080808"/>
<stop offset="1"/>
</linearGradient>
<linearGradient id="paint1_linear_18315_1105" x1="10.8145" y1="16.5855" x2="13.7855" y2="13.6145" gradientUnits="userSpaceOnUse">
<stop stop-color="#E52F08"/>
<stop offset="1" stop-color="#E94F96"/>
</linearGradient>
</defs>
</svg>
