<svg width="40" height="40" viewBox="0 0 40 40" fill="none" xmlns="http://www.w3.org/2000/svg">
<rect x="0.5" y="0.5" width="39" height="39" rx="3.5" fill="white"/>
<rect x="0.5" y="0.5" width="39" height="39" rx="3.5" stroke="#DBD9D7"/>
<path d="M19.9979 9L19.8504 9.50131V24.0482L19.9979 24.1954L26.7504 20.204L19.9979 9Z" fill="#353535"/>
<path d="M19.998 9L13.2455 20.204L19.998 24.1955V17.1349V9Z" fill="#8C8C8C"/>
<path d="M19.9979 25.4739L19.9148 25.5753V30.7572L19.9979 31L26.7544 21.4846L19.9979 25.4739Z" fill="#3D3D3B"/>
<path d="M19.998 30.9999V25.4739L13.2455 21.4845L19.998 30.9999Z" fill="#8C8C8C"/>
<path d="M19.9979 24.1954L26.7503 20.2041L19.9979 17.1349V24.1954Z" fill="#151515"/>
<path d="M13.2455 20.2041L19.9979 24.1954V17.1349L13.2455 20.2041Z" fill="#383838"/>
</svg>
