<svg width="40" height="40" viewBox="0 0 40 40" fill="none" xmlns="http://www.w3.org/2000/svg">
<rect width="40" height="40" rx="4" fill="#A5A8A9"/>
<rect x="0.5" y="0.5" width="39" height="39" rx="3.5" stroke="white" stroke-opacity="0.01"/>
<path fill-rule="evenodd" clip-rule="evenodd" d="M29.935 20C29.935 25.487 25.487 29.935 20 29.935C14.5131 29.935 10.065 25.487 10.065 20C10.065 14.5131 14.5131 10.065 20 10.065C25.487 10.065 29.935 14.5131 29.935 20ZM17.3031 20.7377L18.7037 15.4843H21.7391L20.6884 19.5704L22.0895 18.9867L21.7391 20.2707L20.338 20.7377L19.6377 23.3061H24.6579L24.1908 25.1736H16.1353L16.9527 22.0216L15.7854 22.4886L16.1353 21.2047L17.3031 20.7377Z" fill="white"/>
</svg>
