<svg width="40" height="40" viewBox="0 0 40 40" fill="none" xmlns="http://www.w3.org/2000/svg">
<rect width="40" height="40" rx="4" fill="black"/>
<rect x="0.5" y="0.5" width="39" height="39" rx="3.5" stroke="white" stroke-opacity="0.01"/>
<path fill-rule="evenodd" clip-rule="evenodd" d="M20 25.0994C18.8159 26.0975 17.28 26.7 15.6017 26.7C11.8568 26.7 8.82101 23.7003 8.82101 20C8.82101 16.2997 11.8568 13.3 15.6017 13.3C17.28 13.3 18.8159 13.9025 20 14.9005C21.184 13.9025 22.72 13.3 24.3983 13.3C28.1431 13.3 31.179 16.2997 31.179 20C31.179 23.7003 28.1431 26.7 24.3983 26.7C22.72 26.7 21.184 26.0975 20 25.0994Z" fill="#ED0006"/>
<path fill-rule="evenodd" clip-rule="evenodd" d="M20 25.0994C21.4579 23.8705 22.3824 22.0419 22.3824 20C22.3824 17.958 21.4579 16.1294 20 14.9005C21.184 13.9025 22.72 13.3 24.3983 13.3C28.1432 13.3 31.179 16.2997 31.179 20C31.179 23.7003 28.1432 26.7 24.3983 26.7C22.72 26.7 21.184 26.0975 20 25.0994Z" fill="#F9A000"/>
<path fill-rule="evenodd" clip-rule="evenodd" d="M20 25.0994C21.4579 23.8705 22.3824 22.042 22.3824 20C22.3824 17.9581 21.4579 16.1295 20 14.9006C18.5421 16.1295 17.6176 17.9581 17.6176 20C17.6176 22.042 18.5421 23.8705 20 25.0994Z" fill="#FF5E00"/>
</svg>
