<svg width="40" height="40" viewBox="0 0 40 40" fill="none" xmlns="http://www.w3.org/2000/svg">
<rect x="0.5" y="0.5" width="39" height="39" rx="3.5" fill="white"/>
<rect x="0.5" y="0.5" width="39" height="39" rx="3.5" stroke="#DBD9D7"/>
<path d="M20.0108 13.1667C21.1945 13.1667 22.3782 13.4711 23.4249 14.0268L22.1564 16.1747C21.5151 15.8509 20.7816 15.6667 20.0108 15.6667C19.2058 15.6667 18.4555 15.8528 17.8087 16.1809L16.5833 14.0094C17.6217 13.4647 18.8044 13.1667 20.0108 13.1667Z" fill="#01A2E9"/>
<path d="M22.5833 20C22.5833 21.4267 21.4267 22.5833 20 22.5833C18.5733 22.5833 17.4167 21.4267 17.4167 20C17.4167 18.5733 18.5733 17.4167 20 17.4167C21.4267 17.4167 22.5833 18.5733 22.5833 20Z" fill="#01A2E9"/>
<path fill-rule="evenodd" clip-rule="evenodd" d="M31.25 20C31.25 26.2132 26.2132 31.25 20 31.25C13.7868 31.25 8.75 26.2132 8.75 20C8.75 13.7868 13.7868 8.75 20 8.75C26.2132 8.75 31.25 13.7868 31.25 20ZM28.75 20C28.75 24.3936 25.5117 28.0309 21.2917 28.6553V26.6942C24.5625 26.0852 26.9583 23.1985 26.9583 19.7291C26.9583 19.0253 26.8457 18.363 26.6407 17.75C26.32 17.25 25.816 17.0972 25.6042 17.0833C24.9583 17.0208 24.5486 17.4375 24.4583 17.6042C24.2292 17.875 24.1875 18.3056 24.2083 18.5C24.4083 18.9667 24.4583 19.5139 24.4583 19.7291C24.4583 22.319 22.4735 24.3125 20 24.3125C17.5265 24.3125 15.5417 22.319 15.5417 19.7291C15.5417 19.4444 15.5833 18.8 15.75 18.5C15.7917 18.2569 15.7333 17.675 15.1667 17.2917C14.9444 17.1389 14.3542 16.925 13.7708 17.2917C13.654 17.3542 13.3998 17.5542 13.318 17.8542C13.1389 18.4378 13.0417 19.065 13.0417 19.7291C13.0417 23.1985 15.4375 26.0852 18.7083 26.6942V28.6553C14.4883 28.0309 11.25 24.3936 11.25 20C11.25 15.1675 15.1675 11.25 20 11.25C24.8325 11.25 28.75 15.1675 28.75 20Z" fill="#01A2E9"/>
</svg>
