<svg width="40" height="40" viewBox="0 0 40 40" fill="none" xmlns="http://www.w3.org/2000/svg">
<rect x="0.5" y="0.5" width="39" height="39" rx="3.5" fill="white"/>
<rect x="0.5" y="0.5" width="39" height="39" rx="3.5" stroke="#DBD9D7"/>
<path d="M14.6519 21.6956C14.6519 21.6453 15.014 20.4906 15.339 19.9482C15.5247 19.6262 15.6639 19.2873 15.7475 18.9314C15.8248 18.5467 15.8083 18.1513 15.6993 17.7731C15.5902 17.3949 15.3913 17.0433 15.1165 16.7432C14.8418 16.4431 14.498 16.2019 14.1096 16.0368C13.7211 15.8716 13.2976 15.7865 12.8691 15.7876C11.6621 15.7876 10.6222 16.4655 10.1765 17.4315C10.0567 16.9391 9.99756 16.436 10.0001 15.9317C10.0186 12.6269 12.9249 10 16.5367 10C20.0372 10 22.897 12.5167 23.0641 15.6774C23.1384 17.0333 22.5998 18.2789 21.8199 19.4059C20.7707 20.8634 19.5915 22.2362 19.5915 24.0665C19.5915 26.7188 21.4949 28.9813 24.1133 29.7439C23.4169 29.9134 22.6834 30.0151 21.922 29.9982C17.948 29.9643 14.6612 27.0493 14.494 23.414C14.4755 22.8209 14.5312 22.2531 14.6519 21.7023C14.6519 21.7023 14.6519 21.7458 14.6519 21.6956ZM26.1189 18.6517C26.1189 18.3297 25.8403 18.0586 25.4875 18.0586C25.1161 18.0586 24.8375 18.3297 24.8375 18.6517C24.8375 18.9738 25.1161 19.2449 25.4875 19.2449C25.831 19.2449 26.1189 18.9738 26.1189 18.6517ZM27.9944 25.5409C27.9387 24.5241 28.5887 23.6174 29.545 23.2107V23.1852C29.2665 23.1344 28.9879 23.1005 28.7094 23.1005C26.3138 23.1005 24.3733 24.88 24.3733 27.0662C24.3733 27.9136 24.6704 28.7186 25.1811 29.3542C26.5225 28.7874 27.6524 27.8741 28.4308 26.7273C28.1709 26.3883 28.013 25.9646 27.9944 25.5409ZM28.9044 16.152C29.0715 15.7622 29.1643 15.33 29.1643 14.8809C29.1643 14.2369 28.9786 13.6437 28.6351 13.1268C28.5161 13.9235 28.1632 14.676 27.6138 15.3046C27.6138 15.3215 27.6138 15.3385 27.5859 15.3554L26.8431 15.0165C26.6574 14.9318 26.4717 14.847 26.3138 14.7453C25.6453 14.3894 25.1439 13.8132 24.9397 13.1099C24.819 13.4912 24.754 13.8895 24.754 14.3132C24.754 15.6944 25.4968 16.9146 26.6295 17.6688C26.8709 17.8383 27.0938 18.0077 27.3073 18.2026C28.143 18.9653 28.7929 19.8974 29.1829 20.9143C29.5729 20.4397 29.8329 19.8635 29.9536 19.2449C29.9814 19.0331 30 18.8212 30 18.6263C30 17.5502 29.6843 16.8045 28.8858 16.1689" fill="#EF533D"/>
</svg>
