<svg width="40" height="40" viewBox="0 0 40 40" fill="none" xmlns="http://www.w3.org/2000/svg">
<rect width="40" height="40" rx="4" fill="#F36805"/>
<rect x="0.5" y="0.5" width="39" height="39" rx="3.5" stroke="white" stroke-opacity="0.01"/>
<path fill-rule="evenodd" clip-rule="evenodd" d="M11.2598 11.1406H28.8457L31.4961 13.7911V26.2089L28.8457 28.8594H11.2598L8.60938 26.2089V13.7911L11.2598 11.1406ZM25.6953 14.832H27.1718V11.8789H25.6953V14.832ZM20.2988 18.0136C20.8626 18.5774 21.5358 19.0197 22.277 19.3134C22.4147 19.3678 22.5329 19.4624 22.6161 19.5848C22.6994 19.7073 22.7439 19.8519 22.7439 20C22.7439 20.1481 22.6994 20.2927 22.6161 20.4152C22.5329 20.5376 22.4147 20.6322 22.277 20.6866C21.5358 20.9803 20.8626 21.4226 20.2988 21.9864C19.7351 22.5502 19.2927 23.2234 18.999 23.9646C18.9446 24.1023 18.8501 24.2204 18.7276 24.3037C18.6052 24.387 18.4605 24.4315 18.3124 24.4315C18.1644 24.4315 18.0197 24.387 17.8973 24.3037C17.7748 24.2204 17.6803 24.1023 17.6258 23.9646C17.3322 23.2234 16.8898 22.5502 16.3261 21.9864C15.7623 21.4226 15.0891 20.9803 14.3479 20.6866C14.2102 20.6322 14.092 20.5376 14.0087 20.4152C13.9255 20.2927 13.881 20.1481 13.881 20C13.881 19.8519 13.9255 19.7073 14.0087 19.5848C14.092 19.4624 14.2102 19.3678 14.3479 19.3134C15.0891 19.0197 15.7623 18.5774 16.3261 18.0136C16.8898 17.4499 17.3322 16.7766 17.6258 16.0354C17.6803 15.8977 17.7748 15.7796 17.8973 15.6963C18.0197 15.613 18.1644 15.5685 18.3124 15.5685C18.4605 15.5685 18.6052 15.613 18.7276 15.6963C18.8501 15.7796 18.9446 15.8977 18.999 16.0354C19.2927 16.7766 19.7351 17.4499 20.2988 18.0136ZM25.6953 25.168H27.1718V28.1211H25.6953V25.168ZM27.1718 20.7383H25.6953V23.6914H27.1718V20.7383ZM25.6953 16.3086H27.1718V19.2617H25.6953V16.3086Z" fill="white"/>
<path d="M16.2157 20C17.0512 20.5475 17.7649 21.2612 18.3124 22.0967C18.8599 21.2612 19.5736 20.5475 20.4091 20C19.5736 19.4525 18.8599 18.7388 18.3124 17.9033C17.7649 18.7388 17.0512 19.4525 16.2157 20Z" fill="white"/>
</svg>
