<svg width="40" height="40" viewBox="0 0 40 40" fill="none" xmlns="http://www.w3.org/2000/svg">
<rect width="40" height="40" rx="4" fill="white"/>
<rect width="40" height="40" rx="4" fill="#009DDF"/>
<rect x="0.5" y="0.5" width="39" height="39" rx="3.5" stroke="white" stroke-opacity="0.01"/>
<path d="M18.7163 10.6089C18.1829 10.5533 17.8605 10.6089 17.6827 10.6423C17.4938 10.6756 17.227 10.7423 16.927 10.9646C16.8714 11.009 16.7825 11.0868 16.7047 11.2091C17.3493 10.8868 18.3162 11.2758 18.6719 11.6647C19.0942 12.1315 19.072 12.9429 19.0053 13.4096C18.9386 13.9209 18.6052 15.299 17.0492 15.5658C16.4824 15.6658 14.9153 15.6102 14.6153 14.2765C15.0932 14.3432 15.5822 13.7764 15.2154 13.2541C14.8598 12.7317 13.9706 12.7539 13.3483 12.9206C12.5814 13.1318 11.9479 13.932 11.67 14.4877C11.3255 15.1879 11.081 16.1659 11.0365 16.9328C10.981 17.7775 10.9921 18.7222 11.0476 19.4223C11.1254 20.3003 11.3255 21.2006 11.6256 21.9786C11.9257 22.7677 12.2813 23.4567 12.6592 24.1791L12.6925 24.2458C12.7036 24.2347 12.7592 24.1791 12.8148 24.1125C12.9704 23.9346 13.3149 23.5234 13.4483 23.3345C13.5816 23.1455 14.0262 22.3676 14.1485 22.0897C14.7375 22.4787 14.8375 22.7454 14.8598 23.1233C14.882 23.5345 14.5375 24.4459 13.9929 25.4128C13.9595 25.4684 13.9151 25.5573 13.8706 25.624C13.904 25.5906 13.9484 25.5462 14.0484 25.435C14.1707 25.3017 14.6375 24.7904 15.0932 24.1347C15.5488 23.479 16.1823 22.4342 16.5269 21.5007C16.9937 21.6896 17.1937 21.9563 17.316 22.212C17.4827 22.5676 17.3493 23.3345 16.8714 24.4681C16.538 25.2572 16.0712 25.9907 15.5266 26.7576C15.4599 26.8465 15.371 26.9799 15.3043 27.0577L15.471 27.191C16.0823 27.6578 16.8158 28.1691 17.516 28.5803C18.2718 29.0137 19.2387 29.4805 19.9944 29.6584C20.7502 29.4805 21.7171 29.0137 22.4729 28.5803C23.1619 28.1802 23.9066 27.6689 24.5179 27.191L24.6846 27.0577C24.629 26.9799 24.529 26.8465 24.4623 26.7576C23.9288 25.9907 23.462 25.2572 23.1286 24.4681C22.6396 23.3345 22.5062 22.5565 22.684 22.212C22.8063 21.9563 23.0063 21.7007 23.4731 21.5007C23.8177 22.4342 24.4512 23.479 24.9068 24.1347C25.3625 24.7793 25.8293 25.3017 25.9516 25.435C26.0516 25.5462 26.096 25.5906 26.1294 25.624C26.096 25.5462 26.0405 25.4684 26.0071 25.4128C25.4625 24.4459 25.118 23.5345 25.1402 23.1233C25.1625 22.7343 25.2625 22.4787 25.8515 22.0897C25.9849 22.3676 26.4184 23.1455 26.5517 23.3345C26.6851 23.5234 27.0296 23.9346 27.1852 24.1125C27.2408 24.1791 27.2964 24.2347 27.3075 24.2458L27.3408 24.1791C27.7187 23.4567 28.0743 22.7677 28.3744 21.9786C28.6634 21.2006 28.8746 20.3003 28.9524 19.4223C29.0079 18.7222 29.019 17.7775 28.9635 16.9328C28.919 16.1659 28.6745 15.1879 28.33 14.4877C28.0632 13.932 27.4186 13.1429 26.6517 12.9206C26.0182 12.7428 25.1402 12.7206 24.7846 13.2541C24.4178 13.7875 24.918 14.3543 25.3847 14.2765C25.2403 14.9434 24.629 15.5991 23.362 15.5991C22.773 15.5991 21.9839 15.2657 21.6171 14.6544C21.1392 13.8431 21.1614 13.0318 21.0947 12.3427C21.0503 11.9648 21.028 11.5758 20.9058 11.2091C20.7835 10.8423 20.5501 10.5978 20.2056 10.4978C19.9166 10.4089 19.6833 10.3755 19.3276 10.3422H19.2053C18.9386 10.3311 18.7719 10.42 18.7163 10.6089Z" fill="white"/>
</svg>
