<svg width="40" height="40" viewBox="0 0 40 40" fill="none" xmlns="http://www.w3.org/2000/svg">
<rect x="0.5" y="0.5" width="39" height="39" rx="3.5" fill="white"/>
<rect x="0.5" y="0.5" width="39" height="39" rx="3.5" stroke="#DBD9D7"/>
<path fill-rule="evenodd" clip-rule="evenodd" d="M16.5376 17.633H10.3671H10.2646C10.7358 11.5725 13.1975 9.73929 19.6103 9.6656C19.709 9.66498 19.805 9.66498 19.9024 9.66498H20.0757C20.1735 9.66498 20.2692 9.66498 20.3682 9.6656C21.1804 9.67491 21.9287 9.71276 22.6183 9.78336C22.5677 9.78506 22.5182 9.78677 22.4625 9.79282C22.4109 9.79794 22.3462 9.80179 22.2698 9.80633C21.511 9.85146 19.5976 9.96525 17.8469 12.0802C16.8119 13.3318 16.7093 17.633 16.7093 17.633H16.5376ZM16.081 25.0075C15.3575 25.9123 14.316 25.8515 14.3014 25.8506V29.5281C11.7247 28.4878 10.5632 26.3187 10.2604 22.3191C10.2238 21.8372 10.2019 21.4137 10.1882 21.0627L16.7095 21.0602L16.7051 21.4487L16.7051 21.4488C16.6974 22.1195 16.6825 23.4228 16.6842 23.4663C16.6891 23.6573 16.6409 24.3081 16.081 25.0075ZM24.6829 10.1468C27.9598 11.0195 29.3791 13.2005 29.7179 17.6812C29.8234 19.0729 29.8113 19.9999 29.8113 19.9999C29.8113 19.9999 29.8236 20.9274 29.7181 22.319C29.2568 28.4182 26.7978 30.2606 20.3683 30.3346C20.2693 30.3352 19.7091 30.3352 19.6104 30.3346C18.4952 30.3215 17.503 30.254 16.6165 30.1222C16.6203 30.1221 16.6242 30.1221 16.628 30.1221C16.6551 30.1218 16.6818 30.1216 16.7094 30.1197C17.8728 30.053 19.4924 29.1557 20.4563 27.0685C20.8774 26.1558 20.9905 24.5264 20.9905 24.5264V21.061H20.9908V21.0601H24.5123H24.6832V17.6327H24.5123H20.9911C20.9911 17.6327 20.9911 17.6326 20.991 17.6324C20.991 17.6323 20.9909 17.6321 20.9908 17.6321C20.9908 17.6321 20.9892 17.6285 20.988 17.622L20.9871 17.6175C20.9861 17.6147 20.9854 17.6118 20.9845 17.6085C20.9835 17.6044 20.9823 17.5998 20.9805 17.5942C20.9802 17.5914 20.9793 17.5869 20.979 17.5833C20.9764 17.5734 20.974 17.5638 20.9722 17.5506C20.9712 17.5474 20.9707 17.5435 20.9701 17.5395C20.9698 17.5369 20.9694 17.5342 20.9689 17.5317C20.9664 17.5188 20.9644 17.5058 20.9624 17.4904C20.9609 17.4844 20.9604 17.4769 20.9599 17.4698C20.9598 17.4682 20.9597 17.4665 20.9596 17.465C20.9571 17.4487 20.9554 17.4332 20.9534 17.4145C20.9531 17.4107 20.953 17.4067 20.9528 17.4026C20.9526 17.3967 20.9524 17.3907 20.9518 17.3851C20.9516 17.3812 20.9513 17.3773 20.9511 17.3734C20.95 17.3576 20.949 17.3416 20.9487 17.3238C20.9486 17.3185 20.9486 17.3129 20.9486 17.3073C20.9486 17.3017 20.9486 17.2961 20.9484 17.2907C20.9484 17.283 20.9483 17.2753 20.9481 17.2675C20.9478 17.2518 20.9475 17.2358 20.9484 17.2186C20.9484 17.2126 20.9488 17.2062 20.9492 17.1997C20.9495 17.1946 20.9498 17.1895 20.95 17.1846C20.9506 17.1572 20.9517 17.1298 20.9546 17.0994C20.9549 17.095 20.9554 17.0904 20.956 17.0856C20.9565 17.0805 20.9571 17.0752 20.9574 17.0701C20.9604 17.0369 20.9642 17.0034 20.9694 16.9677C20.9697 16.9643 20.9704 16.9608 20.971 16.9574C20.9717 16.954 20.9723 16.9506 20.9726 16.9474C20.9788 16.9071 20.9855 16.8661 20.9943 16.823C20.9943 16.822 20.9947 16.8206 20.995 16.8192C21.0573 16.5196 21.1911 16.1509 21.459 15.733C22.1795 14.6119 24.2256 14.6647 24.618 14.6855C24.6591 14.688 24.6822 14.6897 24.6829 14.6897V10.1468ZM16.4863 30.1007L16.4862 30.1007C16.5058 30.1011 16.5257 30.1015 16.5456 30.1015C16.5257 30.1015 16.5061 30.1011 16.4866 30.1007L16.4863 30.1007Z" fill="#659AD2"/>
</svg>
