<svg width="40" height="40" viewBox="0 0 40 40" fill="none" xmlns="http://www.w3.org/2000/svg">
<rect width="40" height="40" rx="4" fill="#F36805"/>
<rect x="0.5" y="0.5" width="39" height="39" rx="3.5" stroke="white" stroke-opacity="0.01"/>
<g clip-path="url(#clip0_10305_6573)">
<path d="M12.6172 22.2148H17.0469V23.6914H12.6172V22.2148ZM31.0742 14.0938V25.9062C31.0742 26.4937 30.8409 27.057 30.4255 27.4724C30.0101 27.8877 29.4468 28.1211 28.8594 28.1211H11.1406C10.5532 28.1211 9.98986 27.8877 9.57449 27.4724C9.15913 27.057 8.92578 26.4937 8.92578 25.9062V14.0938C8.92578 13.5063 9.15913 12.943 9.57449 12.5276C9.98986 12.1123 10.5532 11.8789 11.1406 11.8789H28.8594C29.4468 11.8789 30.0101 12.1123 30.4255 12.5276C30.8409 12.943 31.0742 13.5063 31.0742 14.0938V14.0938ZM10.4023 14.0938V15.9395H29.5977V14.0938C29.5977 13.8979 29.5199 13.7102 29.3814 13.5717C29.243 13.4333 29.0552 13.3555 28.8594 13.3555H11.1406C10.9448 13.3555 10.757 13.4333 10.6186 13.5717C10.4801 13.7102 10.4023 13.8979 10.4023 14.0938V14.0938ZM29.5977 25.9062V18.1543H10.4023V25.9062C10.4023 26.1021 10.4801 26.2898 10.6186 26.4283C10.757 26.5667 10.9448 26.6445 11.1406 26.6445H28.8594C29.0552 26.6445 29.243 26.5667 29.3814 26.4283C29.5199 26.2898 29.5977 26.1021 29.5977 25.9062ZM26.1204 21.6907C25.9395 21.6899 25.7607 21.7285 25.5962 21.8037C25.4318 21.8789 25.2857 21.989 25.168 22.1262C24.9994 21.9318 24.7754 21.7935 24.5261 21.7298C24.2767 21.6662 24.0138 21.6803 23.7727 21.7703C23.5316 21.8602 23.3237 22.0217 23.1769 22.2332C23.0302 22.4446 22.9515 22.6958 22.9515 22.9531C22.9515 23.2105 23.0302 23.4617 23.1769 23.6731C23.3237 23.8845 23.5316 24.046 23.7727 24.136C24.0138 24.2259 24.2767 24.24 24.5261 24.1764C24.7754 24.1128 24.9994 23.9745 25.168 23.78C25.3065 23.9398 25.4829 24.0623 25.6811 24.1361C25.8793 24.21 26.0928 24.2328 26.3022 24.2027C26.5115 24.1725 26.7099 24.0902 26.8791 23.9633C27.0483 23.8365 27.183 23.6692 27.2707 23.4768C27.3584 23.2843 27.3964 23.0729 27.3811 22.862C27.3659 22.6511 27.2978 22.4473 27.1833 22.2695C27.0688 22.0917 26.9115 21.9456 26.7257 21.8444C26.54 21.7433 26.3318 21.6904 26.1204 21.6907V21.6907Z" fill="white"/>
</g>
<defs>
<clipPath id="clip0_10305_6573">
<rect width="23.625" height="23.625" fill="white" transform="translate(8.1875 8.1875)"/>
</clipPath>
</defs>
</svg>
