<svg width="40" height="40" viewBox="0 0 40 40" fill="none" xmlns="http://www.w3.org/2000/svg">
<rect x="0.5" y="0.5" width="39" height="39" rx="3.5" fill="white"/>
<rect x="0.5" y="0.5" width="39" height="39" rx="3.5" stroke="#DBD9D7"/>
<path fill-rule="evenodd" clip-rule="evenodd" d="M30.4595 20.5008C30.8897 20.8121 31.3333 21.0404 31.3333 21.5355C31.3333 21.6793 31.1466 21.8216 30.7313 21.8216C30.4161 21.8216 30.0726 21.7356 29.9142 21.5073C29.7858 21.3368 29.9725 21.11 29.8575 20.941C29.7708 20.7987 29.5707 20.8684 29.4407 20.7987C29.2839 20.7128 29.2704 20.6431 29.1688 20.4296C29.0553 20.1746 28.6669 19.7492 28.2083 19.2956C27.8214 18.9131 27.4062 18.7145 27.2195 18.7293C27.0895 18.7426 27.0462 18.7426 26.9177 18.7426C26.5876 18.7426 26.3008 19.0554 25.8272 19.2526C25.4986 19.3949 25.3119 19.4794 25.0968 19.509L25.0251 19.5935L25.4553 19.5802C25.8556 19.5802 26.3874 19.5224 26.7878 19.5224C27.206 19.5224 27.4062 19.8915 27.5645 20.274C27.8797 21.0537 28.3532 22.1744 28.9119 23.1098C29.1838 23.5501 29.4138 23.8347 29.4138 24.3743C29.4138 24.5448 29.3989 24.7716 29.1688 24.7716C28.8537 24.7716 28.0515 24.4454 28.0515 24.0897C28.0515 23.8199 28.2666 23.7057 28.2666 23.4359C28.2666 23.2669 28.0082 23.2951 27.9514 23.1394C27.7497 22.3034 27.5063 21.4792 27.0327 20.9825C26.7878 20.7276 26.7594 20.6134 26.5159 20.6134C26.3874 20.6134 26.2575 20.6431 26.1424 20.6861C25.4837 20.9262 24.6098 21.6511 23.5208 21.9772C23.1041 22.1047 23.0324 21.8631 22.6037 21.9491H22.632C22.2855 22.0187 22.0136 22.2174 21.5401 22.3449C20.8813 22.5302 19.749 22.6147 18.8453 22.502C18.2015 22.416 17.368 22.2885 17.0094 22.3034C16.7376 23.0831 16.149 24.1045 15.2901 24.5032C14.8315 24.7004 14.6881 24.9835 14.8315 25.4935C15.0033 26.1309 15.5769 26.5994 15.8772 27.1389C16.149 27.6059 16.5942 28.3441 17.0662 28.5843C17.5397 28.8259 17.828 29.1802 17.828 29.4767C17.828 29.619 17.7698 29.7035 17.6264 29.7035H16.6808C16.5359 29.7035 16.4642 29.619 16.4358 29.5612C16.3074 29.321 16.3925 29.0942 16.2222 28.8822C16.0923 28.7266 15.9922 28.7681 15.8338 28.6421C15.547 28.3723 15.7621 28.2167 15.547 27.8742C14.945 26.9403 14.6881 26.7135 14.1862 26.0464C13.8994 25.6921 13.5558 25.5217 13.5558 25.0547C13.5558 24.4884 14.1279 24.3891 14.1145 23.8199C13.741 24.0897 13.3108 24.3031 12.6506 24.3891C12.5639 24.4024 12.3354 24.5729 12.2353 24.6871C12.0053 24.9124 11.9201 25.1392 11.8902 25.4801C11.8185 26.2451 11.6617 27.0248 11.7618 27.7897C11.8902 28.2878 11.9769 28.4568 12.3922 28.7266C12.6506 28.8956 12.9523 29.1372 12.9807 29.4915C12.9807 29.5894 12.9523 29.7035 12.8074 29.7035H11.7902C11.6901 29.7035 11.6049 29.6323 11.5751 29.576C11.46 29.3774 11.5317 29.2365 11.4899 29.0097C11.3883 28.5428 10.858 28.5709 10.858 28.0892C10.858 27.9454 10.9447 27.7616 10.9596 27.4636C10.988 26.8128 11.1882 25.7633 10.988 24.4884C10.9014 23.7487 11.6751 23.7205 12.077 23.0683C12.3205 22.6992 12.2488 22.8563 12.3922 22.5865C12.5356 22.3034 12.5072 22.1047 12.4937 21.9342C12.4937 21.7208 12.2771 21.2657 12.422 20.3451C12.4788 19.933 12.679 19.5224 12.9523 19.1681C12.9523 19.1533 12.9523 19.0969 12.8657 19.0969C12.4639 19.1266 12.4639 19.0258 12.192 19.0258C11.9336 19.0258 11.7334 19.2392 11.6901 19.3519C11.5616 19.2956 11.5049 19.1533 11.5049 19.0688C11.5049 18.9265 11.5317 18.799 11.6751 18.6582C11.7334 18.6018 11.6751 18.5722 11.6049 18.5722C11.2883 18.5722 10.988 18.9546 10.9163 19.2244C10.7296 19.1963 10.7161 18.9546 10.6295 18.9546C10.5443 18.9546 10.4861 19.0836 10.4861 19.2111C10.4861 20.1183 11.9769 20.317 11.9769 21.5073C11.9769 22.8845 10.2994 22.5998 10.2994 23.0964C10.2994 23.1958 10.3711 23.2803 10.501 23.3381C10.4428 23.4656 10.2994 23.5219 10.1425 23.5219C9.76908 23.5219 9.49721 23.2536 9.49721 22.8845C9.49721 22.1329 10.5145 22.1181 10.5145 21.5503C10.5145 21.2805 10.3427 21.1945 10.1843 21.0685C9.2104 20.3866 8.66666 19.7062 8.66666 18.587C8.66666 17.3818 9.51065 16.4583 10.6161 16.4583C12.2204 16.4583 12.2637 18.289 13.7276 18.4447C14.2713 18.0771 14.9167 17.8636 15.547 17.8636C16.4941 17.8636 16.9094 18.1052 17.9132 18.1052C18.3165 18.1052 18.9902 17.9911 19.7924 17.453C20.0926 17.2543 20.2226 17.2128 20.4944 16.9697C21.1248 16.4301 21.7134 15.3821 21.7134 14.6305V14.672C21.7134 14.4318 21.6551 14.2895 21.5401 14.2895C21.1965 14.2895 20.8963 14.6023 20.5512 14.9284C20.3361 15.1552 20.6662 15.2546 20.1793 15.5229C20.0075 15.6089 19.8058 15.4517 19.6206 15.4517C19.2322 15.4517 19.0604 14.9996 19.0604 14.6023C19.0604 14.4037 19.2188 14.3459 19.3039 14.162C19.5056 13.7796 19.4906 13.6388 19.6773 13.2548C19.7924 12.9998 19.9925 12.8294 19.9791 12.6455C19.9791 12.5759 19.9208 12.5314 19.9208 12.4617C19.9208 12.0763 20.4377 11.8213 20.4377 11.4389C20.4377 11.2269 20.1927 11.1276 20.1359 10.9571C20.0792 10.7866 20.1225 10.7451 20.1225 10.7451C20.1359 10.7155 20.1643 10.7021 20.1927 10.7021C20.3944 10.7021 20.481 10.9141 20.6662 11.0282C20.6812 10.7733 20.5945 10.7155 20.5945 10.5316C20.5945 10.4323 20.5811 10.2767 20.6812 10.2767C20.8096 10.2767 20.7947 10.4471 20.9097 10.5316C21.0531 10.6443 21.1831 10.631 21.3399 10.7303C21.5401 10.8578 21.6551 11.0698 21.7268 11.0846C21.927 11.1127 21.9852 10.8711 21.8852 10.7303C22.1137 10.7155 22.3437 10.9008 22.6455 10.9008C23.119 10.9008 23.2774 11.0282 23.3625 11.0979C23.6642 11.3544 23.721 11.5515 24.0511 11.5515C24.2229 11.5515 24.3096 11.4107 24.3514 11.3544C24.5814 11.5234 24.5964 11.9488 24.3514 12.3031C24.4515 12.604 24.8817 12.6307 25.0833 12.773C25.2835 12.9153 25.2551 12.985 25.3985 13.071C25.5136 13.1421 25.6136 13.1273 25.6988 13.071C25.8004 13.4668 25.4553 13.8226 25.04 13.8789C25.055 14.3888 25.5987 14.7001 25.8422 14.8291C25.6988 15.1404 25.4404 15.2397 25.2118 15.2961C25.2835 15.6089 25.6271 16.0625 25.4553 16.4731C25.2984 16.4019 25.0684 16.4731 25.0684 16.6999C25.0684 16.9549 25.3985 17.0853 25.055 17.2691C24.8966 17.3536 24.8667 17.5804 25.1536 17.7939C25.527 17.6946 25.8855 17.7079 26.3008 17.7079C26.5592 17.7079 26.9028 17.6368 27.1328 17.6368C27.5645 17.6368 27.8214 17.8073 28.1381 18.1482C28.9268 18.9976 29.6424 19.8915 30.4595 20.5008Z" fill="#231F20"/>
<path fill-rule="evenodd" clip-rule="evenodd" d="M9.12376 18.0207C9.2104 17.284 9.92742 16.6717 10.6146 16.6717C11.3032 16.6717 11.7902 17.0853 11.9485 17.5241C12.0053 17.7228 11.8619 17.6516 11.7902 17.6368C11.6333 17.5953 11.4899 17.5804 11.3166 17.5804C10.6728 17.5804 10.5578 17.9214 10.3995 17.9214C10.3427 17.9214 10.3292 17.8784 10.3292 17.8502C10.3292 17.6798 10.5429 17.5671 10.5429 17.4381C10.5429 17.3685 10.501 17.2973 10.3143 17.2973C9.66899 17.2973 9.3538 18.2327 9.18202 18.2327C9.11032 18.2327 9.11032 18.1482 9.12376 18.0207Z" fill="#6D6E70"/>
<path fill-rule="evenodd" clip-rule="evenodd" d="M21.21 12.6604C20.838 12.5314 20.6513 12.7879 20.4362 13.1421C20.1778 13.5528 20.0926 13.7796 20.0209 14.1902C19.9492 14.6438 20.236 14.758 20.0493 14.9003C19.8491 15.0559 19.7909 14.9996 19.8626 14.8573C19.9492 14.6586 19.9358 14.374 19.6908 14.46C19.4622 14.5312 19.2606 14.5163 19.3472 14.4037C19.4189 14.2762 19.519 14.2199 19.6475 13.8226C19.7909 13.4386 19.8626 13.326 20.1643 12.7879C20.3361 12.4617 20.0926 12.4899 20.1494 12.2898C20.2061 12.1341 20.3944 11.9488 20.5079 11.7932C20.6364 11.6523 20.7663 11.5945 20.8664 11.6227C20.9814 11.6523 20.9665 11.7517 20.9247 11.9918C20.8664 12.2186 20.8948 12.3179 21.0815 12.3906C21.2832 12.4751 21.3534 12.73 21.21 12.6604Z" fill="#6D6E70"/>
<path fill-rule="evenodd" clip-rule="evenodd" d="M28.6819 24.2453C28.6819 24.1178 28.8253 23.9192 28.8686 23.6212C29.0254 23.7487 29.1405 24.0481 29.1405 24.2453C29.1405 24.3313 29.127 24.4321 29.0553 24.4321C28.9537 24.4321 28.6819 24.3461 28.6819 24.2453Z" fill="#6D6E70"/>
<path fill-rule="evenodd" clip-rule="evenodd" d="M30.6313 20.9114C30.8613 20.9825 31.1182 21.2805 31.1182 21.451C31.1182 21.5355 30.9464 21.5785 30.8314 21.5785C30.6313 21.5785 30.7896 21.2094 30.6313 20.9114Z" fill="#6D6E70"/>
<path fill-rule="evenodd" clip-rule="evenodd" d="M22.6604 16.9549C23.9496 15.7363 24.3798 13.2266 22.9756 12.3031C22.7037 12.1193 22.4722 12.0481 22.4722 12.0066C22.4722 11.9636 22.6739 11.9636 22.9189 12.063C25.0251 12.9583 24.5814 15.5095 23.8779 17.198C23.7061 17.6234 23.8779 17.496 24.323 18.0059C24.8966 18.6433 24.6815 19.3104 24.6248 19.4512C24.4799 19.7922 24.5814 18.4462 22.9607 17.7079C22.4289 17.4678 22.2287 17.3685 22.6604 16.9549Z" fill="#6D6E70"/>
<path fill-rule="evenodd" clip-rule="evenodd" d="M17.2246 29.4619C17.0528 29.4619 17.0378 29.0379 16.9945 28.8674C17.1528 28.9386 17.3396 29.0527 17.4397 29.2217C17.4815 29.2929 17.5397 29.4619 17.4247 29.4619H17.2246Z" fill="#6D6E70"/>
<path fill-rule="evenodd" clip-rule="evenodd" d="M12.307 29.4619C12.1352 29.4619 12.1054 29.0527 12.062 28.8822C12.2204 28.9534 12.4205 29.0527 12.5221 29.2217C12.5639 29.2929 12.6506 29.4619 12.5356 29.4619H12.307Z" fill="#6D6E70"/>
<path fill-rule="evenodd" clip-rule="evenodd" d="M17.6548 19.6929C17.6264 19.4661 18.0148 19.4512 18.0148 19.2244C18.0148 19.1118 17.6398 18.8138 16.7226 18.8138C15.4619 18.8138 14.5731 19.2526 13.756 20.019C13.1973 20.5423 13.0659 21.1382 12.9075 21.1382C12.8508 21.1382 12.8224 21.1249 12.8074 20.9692C12.6924 19.9627 13.5274 18.2327 15.7621 18.2327C16.5075 18.2327 17.2096 18.4729 18.0282 18.4729C18.4151 18.4729 19.3756 18.2609 20.006 17.8206C20.1359 17.7228 20.4362 17.5241 20.5363 17.453C20.608 17.4248 20.5796 17.4945 20.5363 17.5804C20.4078 17.7924 20.2793 17.9066 20.1494 18.0474C19.9492 18.2609 19.7192 18.587 19.6475 18.8983C19.4906 19.5654 19.3472 19.7625 18.4584 19.8619C17.8714 19.933 17.6548 19.7625 17.6548 19.6929Z" fill="#6D6E70"/>
</svg>
