<svg width="40" height="40" viewBox="0 0 40 40" fill="none" xmlns="http://www.w3.org/2000/svg">
<rect x="0.5" y="0.5" width="39" height="39" rx="3.5" fill="white"/>
<rect x="0.5" y="0.5" width="39" height="39" rx="3.5" stroke="#DBD9D7"/>
<path fill-rule="evenodd" clip-rule="evenodd" d="M26.3046 28.228C26.6056 28.1828 26.9249 28.1895 27.1657 27.9688C28.1822 28.1243 29.2138 27.8735 30.013 27.3134C30.4343 26.974 30.8138 26.5795 31.1215 26.1498C31.3923 25.7702 31.6046 25.4175 31.7434 24.9928C31.8471 24.7303 31.9273 24.4594 31.9892 24.1786C32.2801 22.8594 32.1263 21.3848 31.6966 20.1308C31.618 19.8984 31.5277 19.6727 31.4308 19.457C30.8941 18.3502 30.1651 17.1548 29.0399 16.4542C28.4062 16.0597 27.8244 15.4494 27.4666 14.8174C27.2727 14.6419 27.0854 14.4111 26.8346 14.3693C26.9032 14.483 26.9784 14.5934 26.9985 14.7255L26.9834 14.7439C26.7159 14.7522 26.5069 14.6101 26.3247 14.4396L26.5253 14.2573C26.4484 14.2189 26.3615 14.2038 26.2779 14.1838C25.5088 14.0968 24.8768 14.4513 24.1946 14.6218L24.1846 14.6603C24.6026 14.8458 24.6912 15.3073 24.9353 15.6199C24.9955 15.5481 25.0992 15.5999 25.1828 15.5932C25.3048 15.5999 25.4185 15.6885 25.5372 15.6567C25.5405 15.5547 25.4837 15.4745 25.4653 15.3825C25.5372 15.3491 25.6241 15.3792 25.7061 15.3825C25.9268 15.5113 26.2795 15.3591 26.4183 15.6567C26.1675 15.6718 25.9301 15.7253 25.6944 15.7821C25.7094 15.8774 25.8047 15.9527 25.798 16.048C25.5957 15.9644 25.3834 15.9109 25.1577 15.8858L25.146 15.9192C25.4319 16.2536 25.8231 16.4526 26.2244 16.5696C26.7995 16.7034 27.3061 16.4292 27.8612 16.5245C29.2255 17.1481 30.3908 18.5759 30.8974 19.9302C30.9225 19.9954 30.9459 20.0606 30.9693 20.1275C31.394 21.3647 31.4742 22.8845 31.0496 24.1752C30.8239 24.7119 30.5747 25.2185 30.1751 25.6549C30.0247 25.8405 29.8575 26.006 29.6752 26.1464C29.1034 26.5912 28.3996 26.7868 27.6723 26.5878C27.6271 26.5561 27.5352 26.5494 27.5502 26.4691C27.5753 26.3638 27.5987 26.2551 27.6204 26.1448C27.7408 25.5261 27.796 24.8758 27.7642 24.2254C27.7642 24.197 27.7642 24.1702 27.7625 24.1418C27.7224 23.1971 27.5335 22.3495 27.1874 21.5319C26.965 21.0638 26.6992 20.5521 26.3665 20.094C25.9686 19.5473 25.4753 19.0742 24.8417 18.8384C24.4538 18.7348 23.9739 18.7164 23.6797 19.039C23.4707 19.223 23.3838 19.4687 23.4139 19.7396C23.0862 19.9469 22.7183 20.0589 22.3171 20.0924C22.2184 20.1007 22.1181 20.1375 22.0161 20.1358C21.9191 20.1408 21.8255 20.1358 21.7319 20.1241C21.2504 20.0656 20.7622 19.8048 20.391 19.5072C20.3826 19.3099 20.3726 19.1226 20.3642 18.9137C20.1519 18.8033 19.9764 18.5943 19.9613 18.3469L19.9797 18.3285C20.1018 18.3669 20.2088 18.4271 20.3191 18.4907C20.2689 18.1947 20.2121 17.9005 20.065 17.643C19.9279 17.5861 19.7908 17.5393 19.662 17.4708C19.5132 17.3721 19.4179 17.1932 19.3962 17.0294C19.53 17.1581 19.7607 17.113 19.8643 17.2501C19.6854 16.7217 19.6821 16.1165 19.3878 15.6333C19.239 15.2755 18.8511 15.1117 18.5836 14.8509C18.48 14.7255 18.4399 14.5499 18.2526 14.5298C18.1005 14.4914 18.0887 14.3209 18.062 14.2105C18.1573 14.2222 18.2359 14.2857 18.3161 14.3008C18.0954 13.7156 17.9015 13.0652 17.3029 12.6924L17.201 12.7576C16.9686 12.791 16.7211 12.8078 16.4887 12.8144C16.5924 12.6623 16.7746 12.5971 16.9184 12.5285C16.7512 12.4031 16.6124 12.3731 16.4034 12.3396C16.2814 12.46 16.0624 12.5219 15.9052 12.557L15.8851 12.5419C15.8818 12.4048 15.85 12.2376 16.0557 12.2025C15.8567 12.1072 15.529 12.1457 15.3267 12.2025C15.2699 12.3513 15.106 12.4834 15.1177 12.6606C15.0007 12.7827 14.9171 12.9465 14.7934 13.0335C14.79 12.7409 14.9154 12.47 14.9672 12.2226C14.7967 12.2878 14.6212 12.3781 14.454 12.4583C14.1848 12.3028 13.8989 12.1473 13.6096 12.0286C13.5829 12.0169 13.526 12.0069 13.5377 12.0554C13.7852 12.2343 13.6899 12.5687 13.7166 12.8228L13.5612 12.6941C13.4842 12.5001 13.2652 12.3597 13.2268 12.1473C12.9676 12.1975 12.8021 12.266 12.5613 12.368L12.5279 12.3864C12.7068 12.3864 12.8589 12.5269 12.9459 12.6673C12.675 12.6824 12.4359 12.5754 12.1684 12.5486C12.1417 12.5219 12.1183 12.4918 12.0765 12.4951C11.9427 12.5453 11.829 12.6389 11.712 12.7308C11.4495 12.99 11.182 13.2759 11.0566 13.617C11.1452 13.632 11.2556 13.6287 11.3191 13.6805C11.1753 13.7674 11.0482 13.9162 10.9078 13.9998C10.8576 14.1971 10.866 14.4228 10.8543 14.6385C10.744 14.8057 10.5951 14.9545 10.5233 15.1418C10.2875 15.9058 10.2257 16.7535 10.2608 17.6212C10.1839 17.6948 10.0852 17.74 10.0133 17.7968L10.0217 18.5726H10.0401C10.0735 18.4104 10.2691 18.3184 10.3862 18.2081H10.4246C10.4062 18.3836 10.3828 18.5575 10.3795 18.7364L10.1588 18.9187C9.93808 19.1126 10.1237 19.4052 10.1053 19.6493C10.1203 19.7128 10.132 19.8081 10.1772 19.8249C10.2039 19.7296 10.2875 19.661 10.341 19.5774C10.4363 19.5557 10.5199 19.4788 10.6069 19.4671C10.5567 19.6577 10.4932 19.8432 10.4162 20.0255C10.3795 20.0489 10.3377 20.0823 10.3009 20.1208C10.2624 20.1626 10.2307 20.2094 10.2223 20.2612C10.3945 21.1624 10.6637 22.0519 10.9713 22.9012C10.7623 23.2557 10.6436 23.672 10.4698 24.0381C10.4447 24.0883 10.4229 24.1418 10.4012 24.1936C10.2257 24.6367 10.1722 25.1299 9.9548 25.5546C9.86619 25.4944 9.77089 25.4476 9.67391 25.4058C9.26262 25.2687 8.78612 25.3556 8.48517 25.6716C8.21766 25.6214 7.94346 25.6683 7.73447 25.8087C7.584 25.9207 7.46864 26.0561 7.40176 26.215C7.35662 26.3253 7.33488 26.4457 7.34157 26.5778C7.17103 26.6948 7.07908 26.8771 7.02223 27.061C6.94198 27.4723 7.08744 27.8986 7.32318 28.2146H26.3046V28.228Z" fill="white"/>
<path fill-rule="evenodd" clip-rule="evenodd" d="M23.7834 19.6743C23.78 19.773 23.7064 19.8833 23.7717 19.9669C23.8636 19.8632 24.0158 19.8683 24.1378 19.8231C24.4755 19.793 24.7999 19.8983 25.1159 19.9753C25.0373 19.8499 24.9821 19.7094 24.8952 19.5941C24.7196 19.5489 24.4538 19.6693 24.4237 19.4118C24.3167 19.3199 24.1478 19.3851 24.0392 19.3918C23.9322 19.4687 23.8452 19.5623 23.7834 19.6726V19.6743Z" fill="white"/>
<path fill-rule="evenodd" clip-rule="evenodd" d="M12.145 16.3906C12.145 16.3906 12.1417 16.3873 12.14 16.3873C12.14 16.3873 12.14 16.389 12.14 16.3906H12.145Z" fill="white"/>
<path fill-rule="evenodd" clip-rule="evenodd" d="M13.5294 19.7713L13.7585 19.5506C13.7785 19.5506 13.7919 19.5539 13.8036 19.5706L13.7852 19.992C13.8956 20.0956 14.0327 20.1291 14.1764 20.1374C14.1881 20.0237 14.2751 19.9435 14.3252 19.8448C14.367 19.7646 14.3403 19.6476 14.4239 19.589L14.4506 19.6158C14.4774 19.7412 14.4707 19.8816 14.5359 19.992C14.5443 20.0522 14.5543 20.1291 14.5627 20.1826C14.7299 20.1909 14.882 20.1441 15.0124 20.0839C15.004 19.9401 15.0542 19.8214 15.0759 19.6877C15.1111 19.6425 15.0341 19.5589 15.1294 19.5623C15.1829 19.676 15.2782 19.7947 15.3317 19.9151C15.5524 19.691 15.6444 19.3984 15.6979 19.0941C15.6344 19.0055 15.5341 19.0055 15.4571 18.9487C14.8101 18.7397 13.9792 18.6979 13.3538 19.0206C13.3137 19.2797 13.3672 19.5656 13.5311 19.7696L13.5294 19.7713Z" fill="white"/>
<path fill-rule="evenodd" clip-rule="evenodd" d="M7.47699 26.9104C7.45358 27.2047 7.47699 27.4789 7.49538 27.7681C7.55724 27.8634 7.66759 27.9738 7.77626 27.9821L7.79633 27.7882C7.84147 27.5174 7.69768 27.2298 7.84983 27.0024C7.95683 27.0358 8.06217 27.0893 8.15412 27.1395C8.19926 26.8887 8.13573 26.5961 7.89497 26.444L7.47699 26.9121V26.9104Z" fill="white"/>
<path fill-rule="evenodd" clip-rule="evenodd" d="M8.4183 26.4992C8.2695 26.9439 8.15915 27.494 8.33972 27.9621C8.44171 27.8936 8.54871 27.8284 8.63899 27.7347C8.6206 27.3769 8.57044 26.9941 8.78445 26.6981C8.97004 26.755 9.0971 26.9339 9.169 27.1094C9.29439 26.9489 9.33786 26.7282 9.2877 26.5159C9.29606 26.3487 9.10379 26.3872 9.01351 26.3186C9.0436 26.1782 9.04026 26.0143 9.18906 25.9357L8.73262 25.9809C8.61559 26.1481 8.48518 26.3119 8.41997 26.5025L8.4183 26.4992Z" fill="white"/>
<path fill-rule="evenodd" clip-rule="evenodd" d="M9.35793 27.8133C9.37799 27.8484 9.35792 27.9086 9.39638 27.9169C9.45322 27.5976 9.71238 27.3903 9.85449 27.1094C9.92304 27.0141 9.91802 26.8803 10.0284 26.8084C10.1772 26.8084 10.2842 26.9154 10.428 26.9272C10.4731 26.9606 10.4046 26.9907 10.4012 27.0291C10.3711 27.2883 10.2725 27.5023 10.2909 27.7681H10.3176C10.5199 27.5558 10.657 27.3251 10.8058 27.081L10.8326 26.8653C10.866 26.6061 10.5851 26.4389 10.4029 26.3336L10.5667 26.1246L10.3377 26.0444C10.0702 26.0711 9.83108 26.1815 9.64382 26.3905C9.4131 26.8168 9.37464 27.2967 9.3596 27.8133H9.35793Z" fill="white"/>
<path fill-rule="evenodd" clip-rule="evenodd" d="M10.3828 25.5562C10.4697 25.5829 10.55 25.511 10.6369 25.5495C10.988 25.6782 11.3542 25.812 11.6167 26.1046L11.9293 26.8987L12.0848 26.4089L11.9812 26.143C11.8942 25.9524 11.6535 25.9675 11.4896 25.9608C11.4211 25.8855 11.493 25.7969 11.5164 25.725C11.595 25.4559 11.2639 25.4692 11.1318 25.3606C11.1402 25.1967 10.9412 25.2535 10.8309 25.2385L10.7924 25.1934C10.7707 25.1599 10.7139 25.1599 10.6821 25.185C10.6737 25.1733 10.6587 25.1666 10.667 25.1465L10.5818 25.1666C10.4647 25.2703 10.3845 25.4024 10.3811 25.5578L10.3828 25.5562Z" fill="white"/>
<path fill-rule="evenodd" clip-rule="evenodd" d="M10.6035 24.6818C10.6152 24.7302 10.6453 24.7804 10.6838 24.8105C10.856 24.7654 11.0182 24.6483 11.2171 24.7185C11.4729 24.9426 11.7388 25.1783 12.0481 25.3004L12.1584 25.2803C12.227 25.3037 12.3022 25.3071 12.349 25.384C12.3908 25.4876 12.2855 25.5478 12.2504 25.6314C12.4226 25.7568 12.354 25.9825 12.461 26.133L12.7352 25.7685C12.6717 25.608 12.7386 25.3355 12.4878 25.3204C12.4042 25.2786 12.3473 25.195 12.3507 25.0997C12.1868 24.9509 11.9862 24.8874 11.8207 24.7353C11.6869 24.6283 11.6083 24.4644 11.4361 24.426C11.3191 24.3624 11.1904 24.3273 11.0516 24.2972C10.7958 24.2588 10.7724 24.5631 10.6052 24.6818H10.6035Z" fill="white"/>
<path fill-rule="evenodd" clip-rule="evenodd" d="M10.9697 23.9311L11.0165 24.0029C11.2071 23.9912 11.3793 23.9076 11.5649 23.911C11.6903 23.9879 11.8541 23.9846 11.9829 24.0481C12.0865 24.1885 12.1969 24.349 12.3473 24.4443C12.6566 24.4895 12.8272 24.8205 12.9342 25.0646V24.9459C12.9793 24.7837 12.9308 24.5915 12.869 24.4443C12.7921 24.3674 12.6834 24.3173 12.6031 24.2504C12.5881 24.2019 12.5998 24.1785 12.6149 24.1317C12.4961 24.0063 12.3223 23.9377 12.1768 23.8391C11.9745 23.5465 11.5866 23.6268 11.2773 23.5465L10.9697 23.9311Z" fill="white"/>
<path fill-rule="evenodd" clip-rule="evenodd" d="M10.963 21.1406C10.9964 21.2593 11.0382 21.4064 11.0599 21.5318C11.1669 21.2961 11.3776 21.1907 11.5632 20.9968C11.4562 20.9232 11.3241 20.8898 11.2054 20.8664V20.8597C11.1218 20.9433 10.9914 21.0269 10.9613 21.1406H10.963Z" fill="white"/>
<path fill-rule="evenodd" clip-rule="evenodd" d="M11.6551 22.3929L11.8257 22.2174C11.9979 22.0418 12.1383 21.8412 12.1651 21.6155C12.043 21.5436 11.8842 21.5921 11.7655 21.6339C11.722 21.8813 11.6585 22.1254 11.6551 22.3912V22.3929Z" fill="white"/>
<path fill-rule="evenodd" clip-rule="evenodd" d="M11.7806 22.9295C12.0431 22.9446 12.2989 22.9981 12.5129 22.851L12.7252 22.1655C12.6567 22.1621 12.5881 22.132 12.5246 22.1538C12.3841 22.4664 12.1016 22.774 11.7822 22.9295H11.7806Z" fill="white"/>
<path fill-rule="evenodd" clip-rule="evenodd" d="M11.8575 20.5019C12.028 20.7527 12.3139 21.0353 12.6082 21.1139C12.5747 20.7945 12.3005 20.5738 12.1584 20.2996L12.1501 20.2077C12.0397 20.1007 11.906 20.0288 11.7923 19.9719C11.7739 20.1558 11.824 20.3297 11.8575 20.5019Z" fill="white"/>
<path fill-rule="evenodd" clip-rule="evenodd" d="M12.7854 22.9596C12.9877 22.9948 13.2033 22.9596 13.3906 22.9011C13.6615 22.8376 13.8103 22.54 13.9005 22.3093H13.5611L13.195 22.6671C13.0512 22.744 12.9124 22.8577 12.7837 22.9596H12.7854Z" fill="white"/>
<path fill-rule="evenodd" clip-rule="evenodd" d="M12.7453 20.1558C12.8021 20.4518 12.9275 20.7226 13.0997 20.9784L13.1449 20.4116L12.7453 20.1575V20.1558Z" fill="white"/>
<path fill-rule="evenodd" clip-rule="evenodd" d="M13.9925 21.6354C14.0159 21.4448 13.9357 21.2241 13.9139 21.0302C13.7986 20.9533 13.6381 20.9617 13.521 20.8864C13.5277 21.1874 13.7635 21.4415 13.9925 21.6354Z" fill="white"/>
<path fill-rule="evenodd" clip-rule="evenodd" d="M13.6464 23.5682C13.8872 23.4913 14.1179 23.4077 14.3386 23.2857C14.479 23.0851 14.693 22.9011 14.7231 22.6654C14.5476 22.7139 14.3954 22.6587 14.2316 22.739C14.133 22.9179 14.0711 23.1202 13.8805 23.2489C13.8504 23.3776 13.71 23.4663 13.6447 23.5682H13.6464Z" fill="white"/>
<path fill-rule="evenodd" clip-rule="evenodd" d="M14.0193 24.0364L14.3052 24.4092C14.4573 24.4594 14.6479 24.4426 14.7817 24.3557L14.678 24.0163C14.4774 24.0932 14.2366 24.0698 14.0193 24.0364Z" fill="white"/>
<path fill-rule="evenodd" clip-rule="evenodd" d="M14.4958 21.3429L14.6061 21.8462C14.8719 21.6288 14.9271 21.3128 14.9204 20.9785C14.7683 21.154 14.678 21.2593 14.4958 21.3429Z" fill="white"/>
<path fill-rule="evenodd" clip-rule="evenodd" d="M15.2465 22.2291C15.2498 22.301 15.2699 22.3695 15.3117 22.4264C15.6076 22.5317 15.6394 22.8945 15.9136 23.0316C16.0925 23.1118 16.2981 23.0115 16.4536 22.9396C16.3349 22.8059 16.2011 22.7139 16.0875 22.5735C16.0072 22.54 15.927 22.4899 15.932 22.3912L15.2465 22.2291Z" fill="white"/>
<path fill-rule="evenodd" clip-rule="evenodd" d="M15.4822 24.0247C15.6126 24.1735 15.7865 24.2487 15.9704 24.2905C15.9403 24.2487 15.9905 24.2905 15.9972 24.2638L15.7681 23.7622C15.6544 23.7656 15.5357 23.789 15.4304 23.7806C15.4371 23.8642 15.4571 23.9461 15.4839 24.023L15.4822 24.0247Z" fill="white"/>
<path fill-rule="evenodd" clip-rule="evenodd" d="M15.8851 21.6806C15.7781 21.4332 15.733 21.1339 15.7029 20.8597C15.5892 20.9968 15.4705 21.0837 15.3635 21.2242C15.3133 21.505 15.7163 21.5753 15.8851 21.6806Z" fill="white"/>
<path fill-rule="evenodd" clip-rule="evenodd" d="M16.3499 21.4231C16.487 21.602 16.788 21.5402 16.9569 21.4867C16.8766 21.3496 16.6191 21.2693 16.5723 21.1222C16.5456 20.8597 16.4937 20.6056 16.4085 20.3648C16.2747 20.6875 16.1142 21.072 16.3499 21.4231Z" fill="white"/>
<path fill-rule="evenodd" clip-rule="evenodd" d="M16.589 22.229C16.9702 22.5066 17.3431 22.8292 17.8764 22.7122C17.9149 22.6855 17.9801 22.6888 17.9868 22.6403C17.8296 22.5417 17.6641 22.4648 17.5036 22.3745L17.3213 22.1086H17.2377C17.0321 22.1772 16.8097 22.2039 16.5907 22.2307L16.589 22.229Z" fill="white"/>
<path fill-rule="evenodd" clip-rule="evenodd" d="M16.5974 25.3154H16.6241C16.8532 25.1332 17.124 25.0713 17.3932 24.9961C17.4668 25.0228 17.42 25.1031 17.4852 25.1332C17.649 25.0646 17.848 25.0797 18.0152 25.0228C18.2175 25.0312 18.3813 25.0346 18.5452 25.1215C18.6739 25.292 18.918 25.2736 19.0869 25.3873L19.0601 25.1215C18.7057 24.7069 18.154 24.6768 17.644 24.6834L17.6323 24.6299C17.5103 24.6299 17.3732 24.6567 17.2595 24.7102C17.0956 24.7169 16.9401 24.7971 16.783 24.8473C16.7094 24.9928 16.6526 25.1666 16.5991 25.3154H16.5974Z" fill="white"/>
<path fill-rule="evenodd" clip-rule="evenodd" d="M16.9034 20.639C17.0522 20.833 17.2728 20.9818 17.5236 20.9316C17.3949 20.8062 17.2461 20.6725 17.2377 20.4936C17.2762 20.1542 16.9034 20.1291 16.7194 19.9536C16.7796 20.1826 16.7729 20.4367 16.9017 20.639H16.9034Z" fill="white"/>
<path fill-rule="evenodd" clip-rule="evenodd" d="M16.8649 25.9875H16.9101C17.1124 25.8605 17.4049 25.9574 17.6039 25.8237C17.7143 25.7668 17.7209 25.919 17.7978 25.9608C17.9834 26.0745 18.0068 26.4172 18.2693 26.337C18.5853 26.5008 18.5051 26.8854 18.5168 27.1662L18.8094 26.984C18.7826 26.8352 18.8662 26.6563 18.7709 26.5276C18.699 26.3654 18.5017 26.3487 18.4064 26.2166C18.5201 26.0226 18.2626 25.9324 18.2075 25.7902L18.2225 25.7702L18.6255 25.8237C18.7642 25.9073 18.8127 26.0594 18.8545 26.1999C19.1705 26.2534 19.2474 26.6112 19.3578 26.8385C19.423 26.6831 19.4497 26.5142 19.5132 26.3637C19.5166 26.2383 19.3494 26.2383 19.2658 26.1815C19.2424 25.9875 19.1555 25.8036 18.9849 25.6866C18.6338 25.5996 18.3262 25.4057 17.9416 25.4057L17.6206 25.5043C17.4451 25.5461 17.2595 25.4926 17.1257 25.6147C16.9268 25.6297 16.9117 25.8471 16.8632 25.9875H16.8649Z" fill="white"/>
<path fill-rule="evenodd" clip-rule="evenodd" d="M17.0655 24.4209L17.1391 24.4544C17.2946 24.3808 17.4517 24.2989 17.6156 24.237C17.8697 24.1651 18.0687 24.4544 18.2827 24.2721C18.3629 24.2153 18.4298 24.2989 18.4917 24.344C18.5836 24.5112 18.796 24.4995 18.9565 24.5463C18.8762 24.329 18.7776 24.0331 18.5 23.9979C18.3897 23.9495 18.2593 23.9528 18.1539 23.8876C17.8614 23.5649 17.6708 24.1534 17.3498 24.0096C17.2361 24.1367 17.0956 24.2537 17.0672 24.4209H17.0655Z" fill="white"/>
<path fill-rule="evenodd" clip-rule="evenodd" d="M17.1391 26.2734C17.2611 26.3754 17.3865 26.551 17.5755 26.5276C17.8129 26.6379 17.7142 26.9489 17.843 27.1127L17.9801 26.9907L17.9684 26.984L17.9884 26.9656L17.9968 26.9773C18.0352 26.862 17.9817 26.6613 17.9165 26.5276C17.8296 26.4674 17.7259 26.5309 17.6423 26.4741C17.6306 26.352 17.5537 26.2918 17.4668 26.2149C17.4049 26.1698 17.3263 26.23 17.2578 26.2266L17.1391 26.2734Z" fill="white"/>
<path fill-rule="evenodd" clip-rule="evenodd" d="M17.6156 21.6355C17.741 21.8445 17.9851 21.9749 18.179 22.1187C18.3379 22.1923 18.5485 22.209 18.7191 22.1722C18.5552 22.0385 18.4064 21.888 18.2693 21.7275C18.2158 21.6523 18.2041 21.557 18.1322 21.4884C17.9517 21.5235 17.751 21.5185 17.6139 21.6372L17.6156 21.6355Z" fill="white"/>
<path fill-rule="evenodd" clip-rule="evenodd" d="M17.8246 20.2745C18.0001 20.4902 18.271 20.4032 18.5184 20.4116V20.3849L18.1372 20.0638C18.0302 20.099 17.9165 20.1926 17.8246 20.2728V20.2745Z" fill="white"/>
<path fill-rule="evenodd" clip-rule="evenodd" d="M10.8141 16.6866L11.0348 17.3721C11.0315 16.9842 11.2104 16.6615 11.1719 16.2653L11.3358 16.0212L10.988 16.1282C10.8961 16.3037 10.8208 16.4793 10.8141 16.6883V16.6866Z" fill="white"/>
<path fill-rule="evenodd" clip-rule="evenodd" d="M10.963 15.4995L11.2639 15.3239V14.8792C11.1385 14.9561 11.0683 15.0849 10.9713 15.1885L10.9646 15.4995H10.963Z" fill="white"/>
<path fill-rule="evenodd" clip-rule="evenodd" d="M17.1391 16.1917C17.0655 16.287 16.9568 16.3104 16.8649 16.3288C17.0237 16.0362 17.1006 15.6282 16.9752 15.2972C17.0588 15.2671 17.1508 15.2521 17.231 15.2069L17.2227 15.2002L17.4333 15.0163C17.7109 14.8257 17.6039 14.4646 17.7075 14.1954C17.5704 13.9814 17.5286 13.7239 17.3297 13.545L17.3414 13.5383C17.1842 13.341 16.9033 13.3628 16.6893 13.2641C16.4085 13.1688 16.1911 13.3628 15.9888 13.4932C15.9019 13.5082 15.9554 13.6219 15.8601 13.6186C15.8066 13.759 15.7414 13.9112 15.7046 14.0667C15.3267 14.0132 14.9204 14.055 14.6195 14.269C14.459 14.1519 14.265 14.1285 14.0778 14.075C13.9407 14.0483 13.7852 14.0984 13.6865 14.0215C13.5428 13.8593 13.511 13.5617 13.2635 13.5199C13.1766 13.4898 13.1582 13.3945 13.1582 13.3109C12.9944 13.2842 12.8489 13.209 12.6884 13.1738C12.446 13.0635 12.252 13.239 12.0681 13.3561C11.9879 13.3912 11.8976 13.4012 11.8207 13.448C11.6836 13.6604 11.5532 13.8777 11.4662 14.1135C11.493 14.3074 11.5766 14.4796 11.6769 14.6418C11.7638 14.8892 12.038 15.0832 12.2704 15.1818C12.1601 15.558 12.1601 16.0078 12.2704 16.3873C12.2704 16.3873 12.2637 16.3923 12.2637 16.3906L12.252 16.4007C12.2152 16.4007 12.1768 16.4074 12.1467 16.3906H12.1417C12.1952 16.7535 12.3657 17.0711 12.6433 17.3453C12.7419 17.3804 12.7202 17.4975 12.762 17.5744C12.7887 17.6078 12.7921 17.6797 12.7804 17.7115C12.1868 17.6931 11.6568 17.8402 11.182 18.1111C11.0599 18.1712 11.1134 18.3401 11.1034 18.4571C11.4378 18.2365 11.8006 18.0726 12.2002 18.0007C12.3707 17.989 12.5664 17.9472 12.7302 17.9924L12.7486 18.3201C12.2955 18.5558 11.8006 18.6929 11.4111 19.0808C11.4194 19.1978 11.396 19.3349 11.4311 19.4352L11.7772 19.1527C12.1116 18.8985 12.4627 18.6812 12.8472 18.5407C12.9509 18.6628 13.0579 18.7915 13.195 18.8668C13.4274 18.718 13.6782 18.6093 13.9457 18.5407C14.0861 18.4571 14.3102 18.5324 14.4021 18.3652L14.4673 18.0191C14.4556 18.0107 14.4489 17.9974 14.4289 18.0007C14.25 17.8971 14.133 17.7198 14.148 17.5092C14.0878 17.5393 14.0193 17.5593 13.9457 17.5627C13.8838 17.5476 13.8287 17.5326 13.8019 17.4707C13.7986 17.3938 13.7601 17.2801 13.8354 17.2233C14.0828 17.0711 14.4038 17.0628 14.7148 17.0862C14.9472 17.1163 15.2832 17.1046 15.3618 17.3788C15.3518 17.459 15.3585 17.5459 15.2782 17.5994C15.1946 17.6446 15.0993 17.5961 15.0224 17.561C14.9622 17.7466 14.8586 17.9572 14.6496 18.0174L14.6763 18.2381C14.7031 18.3368 14.7098 18.5006 14.8669 18.4655C15.2281 18.5525 15.5474 18.7397 15.8651 18.9403C15.9721 18.8333 16.0557 18.7113 16.1309 18.6009C16.6944 18.7915 17.1826 19.2129 17.6474 19.6058L17.6674 19.2864C17.226 18.8952 16.7345 18.6177 16.2229 18.4003C16.2429 18.2966 16.2647 18.198 16.268 18.0893C16.8733 18.1228 17.4484 18.31 17.9483 18.6026L17.9399 18.3284C17.415 18.0475 16.8398 17.8603 16.2112 17.8536C16.1878 17.8185 16.1811 17.77 16.1844 17.7349C16.4887 17.6847 16.7061 17.3704 16.7796 17.0962C16.9351 16.9173 17.1608 16.7234 17.1073 16.4575C17.114 16.4358 17.1224 16.4124 17.1291 16.389C17.1491 16.3221 17.1658 16.2519 17.1441 16.19L17.1391 16.1917Z" fill="white"/>
<path fill-rule="evenodd" clip-rule="evenodd" d="M17.6691 17.1698L17.9817 17.0711L18.0152 16.8956C18.1038 16.6414 17.9165 16.4508 17.8246 16.2485L17.6691 17.1698Z" fill="white"/>
<path fill-rule="evenodd" clip-rule="evenodd" d="M18.4566 18.3752C18.6054 18.5374 18.7491 18.8016 19.0133 18.7213C18.9932 18.611 18.9331 18.5207 18.8946 18.4221C18.8261 18.3418 18.8026 18.1127 18.6655 18.1947C18.5619 18.1261 18.5368 18.0108 18.4716 17.9205C18.4415 18.0609 18.4599 18.2365 18.4566 18.3769V18.3752Z" fill="white"/>
<path fill-rule="evenodd" clip-rule="evenodd" d="M18.5101 19.4904C18.5669 19.5706 18.5836 19.6743 18.6388 19.7462C18.7425 19.8147 18.8946 19.803 19.02 19.7913C19.1337 19.7646 19.2073 19.89 19.3126 19.8181C19.1805 19.7345 19.1003 19.5823 18.9732 19.472C18.8244 19.3533 18.6656 19.4569 18.5084 19.4904H18.5101Z" fill="white"/>
<path fill-rule="evenodd" clip-rule="evenodd" d="M18.7124 21.2593C18.9749 21.4148 19.3093 21.5686 19.6604 21.5151C19.6988 21.495 19.764 21.5001 19.7707 21.4532C19.5534 21.3763 19.326 21.1607 19.0986 21.1138C18.9732 20.9199 18.8094 21.164 18.6489 21.1473C18.6522 21.1924 18.6973 21.2275 18.7141 21.2576L18.7124 21.2593Z" fill="white"/>
<path fill-rule="evenodd" clip-rule="evenodd" d="M19.5032 24.6182L19.5601 24.7402C19.6169 25.1365 19.8677 25.501 19.7306 25.934C19.8443 26.0143 19.8794 26.1463 19.9513 26.2533H19.9697C20.0566 25.9223 19.9964 25.5795 19.9513 25.2485C19.9847 24.9476 19.6804 24.7737 19.5015 24.6165L19.5032 24.6182Z" fill="white"/>
<path fill-rule="evenodd" clip-rule="evenodd" d="M19.5701 20.7226C19.769 20.8748 20.085 20.8898 20.3124 20.8146C20.1686 20.7343 20.0081 20.6474 19.8894 20.5404L19.5701 20.7226Z" fill="white"/>
<path fill-rule="evenodd" clip-rule="evenodd" d="M20.5081 21.8913C20.488 22.0518 20.595 22.1838 20.7104 22.2641C20.7522 22.1688 20.8207 22.0885 20.8274 21.9832C20.794 21.8194 20.702 21.6722 20.5532 21.5619C20.5265 21.6672 20.4964 21.7692 20.5081 21.8929V21.8913Z" fill="white"/>
<path fill-rule="evenodd" clip-rule="evenodd" d="M20.5214 23.6251C20.4947 23.804 20.692 23.8274 20.7756 23.9261C20.8441 24.0097 20.7304 24.0665 20.7304 24.1468C20.8742 24.3323 20.9595 24.5463 20.9595 24.7938C21.0163 24.5614 21.1049 24.3407 21.135 24.1016C21.12 23.9344 20.8541 23.9679 20.8943 23.7823C20.9695 23.5917 20.8792 23.4061 20.8291 23.2356C20.814 23.2088 20.7789 23.1553 20.7505 23.1703C20.6803 23.3258 20.5097 23.4362 20.5214 23.6268V23.6251Z" fill="white"/>
<path fill-rule="evenodd" clip-rule="evenodd" d="M21.0431 22.7189L21.2404 23.1034C21.329 23.0934 21.3841 23.0081 21.4527 22.9479C21.5062 22.7874 21.3658 22.6854 21.324 22.555C21.2888 22.463 21.324 22.3427 21.2587 22.2624C21.2103 22.2323 21.1517 22.1822 21.0949 22.1972L21.0431 22.7189Z" fill="white"/>
<path fill-rule="evenodd" clip-rule="evenodd" d="M21.2972 21.7091C21.4527 21.8044 21.6316 21.9415 21.7152 22.1087C21.8489 22.4966 22.063 22.8477 22.2184 23.2239C22.2753 23.4864 22.3221 23.7204 22.394 23.9796C22.4207 24.0465 22.4057 24.1802 22.5127 24.1702C22.5428 23.8809 22.5996 23.6034 22.6047 23.3025C22.5094 23.1771 22.384 23.1236 22.2653 23.0467V23.0199C22.2803 22.9547 22.3338 22.8795 22.4141 22.8912C22.4475 22.8527 22.5512 22.8143 22.506 22.7457C22.3071 22.5484 22.3188 22.2073 22.0028 22.1455C21.8924 22.1003 21.8657 21.9866 21.8556 21.8796C21.7068 21.7542 21.4861 21.7125 21.2989 21.7091H21.2972Z" fill="white"/>
<path fill-rule="evenodd" clip-rule="evenodd" d="M21.4794 23.7705C21.6734 23.9478 21.6065 24.2069 21.5898 24.4477C21.5597 24.5931 21.7419 24.5079 21.8005 24.5848C21.9175 24.7603 21.8489 25.0145 21.8071 25.2051C21.9108 25.0479 22.0278 24.9108 22.1081 24.7403C22.1047 24.6751 22.1867 24.645 22.185 24.5647C22.2184 24.4544 22.0897 24.5045 22.0362 24.4911C21.991 24.4794 21.9409 24.4493 21.9559 24.3892C22.0546 24.1986 21.9643 23.9712 21.9258 23.7806C21.8807 23.6234 21.9459 23.4161 21.8723 23.279C21.7503 23.4462 21.3892 23.4846 21.4794 23.7705Z" fill="white"/>
<path fill-rule="evenodd" clip-rule="evenodd" d="M21.8339 21.0687C22.1733 21.4114 22.4207 21.7559 22.7869 22.0869C22.7952 21.9398 22.7752 21.801 22.7685 21.6572C22.715 21.5552 22.6163 21.4783 22.5328 21.4031C22.2636 21.3763 22.1215 21.0135 21.8356 21.0704L21.8339 21.0687Z" fill="white"/>
<path fill-rule="evenodd" clip-rule="evenodd" d="M22.7217 22.8811C22.73 22.9145 22.7451 22.9446 22.7601 22.9797C22.9089 23.2238 23.0494 23.4746 23.153 23.7371C23.1229 23.4562 23.3135 23.1051 23.0611 22.8894C23.0276 22.7975 22.9123 22.8292 22.8404 22.8359L22.7217 22.8811Z" fill="white"/>
<path fill-rule="evenodd" clip-rule="evenodd" d="M23.6345 25.6615C23.7415 25.7099 23.8786 25.623 23.9806 25.5628C24.0759 25.5394 24.1562 25.5929 24.2281 25.6431C24.2582 25.7033 24.2281 25.7601 24.2381 25.8186C24.4672 25.8838 24.6912 25.9674 24.8935 26.0995L24.957 26.036C24.9721 25.8721 24.8434 25.7551 24.7213 25.6631C24.641 25.6163 24.5223 25.6431 24.4672 25.5712C24.5056 25.511 24.5056 25.419 24.5006 25.3505C24.3752 25.3505 24.295 25.312 24.1913 25.2518C24.1278 25.2334 24.0693 25.1799 24.0158 25.2518C23.8251 25.3822 23.8151 25.5712 23.6312 25.6631L23.6345 25.6615Z" fill="white"/>
<path fill-rule="evenodd" clip-rule="evenodd" d="M23.9021 20.873C23.9974 20.8463 24.096 20.8195 24.1762 20.751C24.4304 20.5186 24.7999 20.6741 25.0975 20.6707C25.0406 20.5671 24.9604 20.4651 24.8885 20.3781C24.7815 20.3364 24.6828 20.2862 24.5608 20.2862C24.3016 20.134 24.1278 20.3899 23.9288 20.5136C23.8753 20.6172 23.8502 20.7694 23.9021 20.8714V20.873Z" fill="white"/>
<path fill-rule="evenodd" clip-rule="evenodd" d="M23.9087 21.6556C23.9087 21.6456 23.9087 21.6322 23.9205 21.6289C23.9539 21.6589 23.9171 21.7308 23.974 21.7459C24.0726 21.6974 24.1646 21.6289 24.2548 21.5636C24.5106 21.5636 24.6628 21.3162 24.9136 21.3162C25.3316 21.3914 25.7479 21.475 26.1124 21.6807C26.0856 21.4332 25.8733 21.2092 25.6559 21.0989C25.5339 21.0571 25.4386 21.1223 25.35 21.1908C25.0941 21.3513 25.2279 20.9584 25.049 20.9517C24.8166 21.0253 24.5758 21.1039 24.3184 21.0821C24.1662 21.139 24.0592 21.2794 23.8887 21.2644C23.8803 21.3898 23.8619 21.5419 23.9071 21.6556H23.9087Z" fill="white"/>
<path fill-rule="evenodd" clip-rule="evenodd" d="M24.0843 22.5049C24.1629 22.5885 24.2966 22.5734 24.412 22.5885L24.743 22.4598C24.7464 22.3996 24.6444 22.3828 24.6661 22.316C24.7581 22.2123 24.8835 22.2859 24.9972 22.2424C25.1577 22.2207 25.3215 22.0602 25.4803 22.1789C25.477 22.1973 25.4887 22.224 25.4737 22.2424C25.4235 22.3611 25.5071 22.433 25.5991 22.4781C25.7863 22.5133 25.9602 22.6838 26.1474 22.6069C26.1291 22.4514 26.0873 22.3076 26.0488 22.1588C25.8933 22.1321 25.783 22.0033 25.6375 21.9498C25.5723 22.01 25.4887 22.0568 25.4085 22.0485C25.1159 21.9799 24.7648 21.7977 24.4688 21.9849C24.3618 22.1137 24.1712 22.0752 24.0274 22.1321C24.0358 22.2625 24.0508 22.3879 24.086 22.5066L24.0843 22.5049Z" fill="white"/>
<path fill-rule="evenodd" clip-rule="evenodd" d="M24.2097 24.7671C24.1863 24.8323 24.1227 24.9393 24.2398 24.9694C24.4839 24.9777 24.7965 24.8523 24.9871 25.0413C25.0507 25.0914 25.0206 25.1934 25.0172 25.2586L25.3366 25.5245C25.3667 25.3639 25.4235 25.2202 25.4285 25.048C25.4018 24.9259 25.3416 24.8089 25.2346 24.7286C25.0239 24.7286 24.9019 24.4828 24.6778 24.5146C24.5608 24.4879 24.4571 24.5915 24.3384 24.5915C24.2849 24.645 24.2548 24.7102 24.2097 24.7671Z" fill="white"/>
<path fill-rule="evenodd" clip-rule="evenodd" d="M24.3017 22.973C24.3502 23.075 24.4087 23.2422 24.504 23.2539C24.728 23.1553 25.0557 23.0934 25.3082 23.2004C25.3918 23.2155 25.3918 23.3108 25.3734 23.3726C25.5021 23.4479 25.6593 23.508 25.7964 23.5933L25.7579 23.3659C25.7496 23.1185 25.4369 23.0951 25.4185 22.851C25.1627 22.7674 24.8785 22.7406 24.6076 22.8058C24.519 22.8861 24.3936 22.8744 24.2866 22.8978C24.2799 22.9279 24.2983 22.9463 24.3017 22.973Z" fill="white"/>
<path fill-rule="evenodd" clip-rule="evenodd" d="M24.3668 24.2053C24.5156 24.1635 24.6093 23.9996 24.7698 23.9846C25.0139 23.9879 25.2312 24.0866 25.3834 24.2956C25.4753 24.3557 25.4569 24.5129 25.574 24.5129C25.5405 24.3257 25.6007 24.1551 25.594 23.9645C25.4335 23.6987 25.039 23.9043 24.8902 23.5917L24.6093 23.6101C24.407 23.6602 24.4605 23.896 24.4337 24.0548C24.4103 24.105 24.3652 24.1417 24.3702 24.2036L24.3668 24.2053Z" fill="white"/>
<path fill-rule="evenodd" clip-rule="evenodd" d="M25.7629 25.8688C25.8816 26.1046 26.1408 26.2835 26.1675 26.5543C26.2294 26.4808 26.2712 26.3988 26.313 26.3186C26.3097 26.2417 26.221 26.2417 26.1859 26.1815C26.1525 26.0828 26.206 25.9959 26.221 25.9073C26.1726 25.7669 26.0538 25.6331 25.9201 25.5495L25.7646 25.8688H25.7629Z" fill="white"/>
<path fill-rule="evenodd" clip-rule="evenodd" d="M26.2327 25.2686L26.5069 25.6414C26.624 25.4542 26.624 25.1817 26.5788 24.956C26.5521 24.9142 26.5019 24.8456 26.435 24.8757C26.3314 24.9827 26.3163 25.1449 26.2344 25.2686H26.2327Z" fill="white"/>
<path fill-rule="evenodd" clip-rule="evenodd" d="M25.1159 14.8558C25.2145 14.906 25.3098 14.9511 25.4285 14.9578C25.5088 14.916 25.6125 14.8859 25.7111 14.9127C25.8515 15.0046 26.0237 14.8943 26.1859 14.901C26.0421 14.7639 25.8783 14.6803 25.7111 14.6017C25.4971 14.6468 25.3266 14.799 25.1159 14.8558Z" fill="white"/>
<path fill-rule="evenodd" clip-rule="evenodd" d="M26.6055 15.2136C26.8062 15.232 26.9516 15.4109 27.0887 15.5597C27.2609 15.5865 27.3897 15.7069 27.4917 15.8339L27.4265 15.6316C27.3813 15.4293 27.2559 15.2738 27.1255 15.115C26.9433 15.1267 26.7627 15.1417 26.6039 15.2136H26.6055Z" fill="white"/>
<path fill-rule="evenodd" clip-rule="evenodd" d="M12.3942 13.5433L12.5045 13.555C12.8021 13.7038 13.2819 13.7791 13.3087 14.2088C13.0094 14.3275 12.7185 14.488 12.4794 14.7304C12.2972 14.5432 11.926 14.6468 11.8658 14.3191C11.9227 14.0115 12.033 13.6236 12.3942 13.5433Z" fill="#FF6600"/>
<path fill-rule="evenodd" clip-rule="evenodd" d="M12.6801 15.4728C13.0261 15.4427 13.3605 15.4912 13.72 15.4611C13.8069 15.4995 13.8989 15.5748 13.9407 15.6634C13.929 16.0747 13.8036 16.4659 13.7852 16.8889C13.6297 16.9541 13.4776 17.0828 13.4391 17.255C13.2987 17.2968 13.1716 17.3804 13.0345 17.4456C12.9726 17.3169 12.9843 17.123 13.093 17.016C13.2418 16.807 13.6264 16.8555 13.5946 16.5244C13.6932 16.3639 13.5979 16.1583 13.603 15.9911C13.5645 15.8657 13.5261 16.0329 13.4659 16.0295C13.3438 16.0563 13.2184 16.063 13.1131 16.0028C13.0328 15.9175 12.9342 15.8506 12.9108 15.7369C12.8038 15.6834 12.6784 15.5998 12.6249 15.4895L12.6817 15.4744L12.6801 15.4728Z" fill="#FF6600"/>
<path fill-rule="evenodd" clip-rule="evenodd" d="M13.0997 17.9539C13.2619 17.9757 13.4341 17.9038 13.5762 17.984C13.5461 18.0375 13.4659 18.0592 13.4007 18.076L13.1448 18.1947C13.0495 18.1713 13.103 18.0191 13.0997 17.9556V17.9539Z" fill="#FF6600"/>
<path fill-rule="evenodd" clip-rule="evenodd" d="M13.7651 14.7772C13.929 14.7237 14.1045 14.615 14.2784 14.6668C14.153 14.7922 14.0544 14.9561 13.9591 15.1082L13.4374 15.0965C13.4943 14.9594 13.6381 14.8457 13.7651 14.7772Z" fill="#FF6600"/>
<path fill-rule="evenodd" clip-rule="evenodd" d="M15.2933 14.6518C15.509 14.6134 15.4989 14.8959 15.6962 14.9076C15.7313 14.9528 15.7798 14.9946 15.7614 15.0631C15.6477 15.1083 15.4805 15.0865 15.3501 15.1166C15.1796 15.0213 15.2899 14.7254 15.0191 14.7438C15.004 14.722 14.9739 14.6752 15.0124 14.6602C15.096 14.6301 15.2063 14.6418 15.295 14.6535L15.2933 14.6518Z" fill="#FF6600"/>
<path fill-rule="evenodd" clip-rule="evenodd" d="M15.1562 15.6717C15.2515 15.538 15.3969 15.5279 15.5324 15.4995L16.5188 15.5179C16.5606 15.5564 16.4804 15.5898 16.4804 15.6366C16.4185 15.6935 16.3316 15.7085 16.278 15.762C16.1493 15.7653 16.1593 15.9175 16.0691 15.9827C15.9286 16.1231 15.723 16.0596 15.5591 16.0362C15.5023 15.9944 15.4371 15.9376 15.4103 15.8724L15.3652 15.9175C15.422 16.1315 15.407 16.3672 15.4488 16.5829L15.6845 16.7401C15.6879 17.0895 16.0992 16.9942 16.2797 17.1898C16.2379 17.3152 16.1543 17.4222 16.064 17.5292C15.9186 17.3888 15.7547 17.2968 15.5809 17.2366C15.5658 17.031 15.3418 16.9106 15.2147 16.807C15.1813 16.4341 15.1729 16.0529 15.1127 15.6918L15.1579 15.6734L15.1562 15.6717Z" fill="#FF6600"/>
<path fill-rule="evenodd" clip-rule="evenodd" d="M15.514 18.0174H15.9721L15.9152 18.2565L15.4571 18.0626C15.4471 18.0241 15.4872 18.0141 15.514 18.0174Z" fill="#FF6600"/>
<path fill-rule="evenodd" clip-rule="evenodd" d="M16.3365 13.7089L16.676 13.6019C16.8699 13.6922 17.0538 13.8075 17.231 13.9363C17.3715 14.1954 17.3481 14.5448 17.2845 14.8341C17.1809 14.9494 16.9568 14.8341 16.8732 15.0163H16.8582C16.7328 14.6585 16.375 14.3392 16.044 14.1753C16.0975 13.9931 16.1543 13.8142 16.3365 13.7089Z" fill="#FF6600"/>
<path fill-rule="evenodd" clip-rule="evenodd" d="M24.2782 28.2012H26.3096C26.6106 28.156 26.9299 28.1627 27.1707 27.942C28.1872 28.0992 29.2188 27.8467 30.0197 27.2883C30.441 26.9472 30.8205 26.5543 31.1265 26.1246C31.3973 25.7451 31.6097 25.3923 31.7484 24.9677C31.8504 24.7052 31.9323 24.4343 31.9942 24.1534C32.2851 22.8359 32.133 21.3613 31.7033 20.1057C31.623 19.8733 31.5344 19.6476 31.4358 19.4336C30.8991 18.3267 30.1701 17.1313 29.0449 16.4308C28.4113 16.0362 27.8294 15.4259 27.4716 14.7939C27.2777 14.6184 27.0904 14.386 26.8396 14.3442C26.9082 14.4579 26.9834 14.5682 27.0035 14.702L26.9884 14.7204C26.7226 14.7287 26.5119 14.5866 26.3297 14.4161L26.532 14.2339C26.4551 14.1954 26.3682 14.1803 26.2846 14.162C25.5155 14.075 24.8835 14.4278 24.2013 14.6L24.1896 14.6385C24.6076 14.824 24.6962 15.2855 24.9403 15.5981C25.0022 15.5246 25.1042 15.5781 25.1878 15.5714C25.3098 15.5798 25.4235 15.6667 25.5406 15.6366C25.5439 15.5346 25.4887 15.4544 25.4687 15.3641C25.5405 15.329 25.6292 15.3607 25.7094 15.3641C25.9301 15.4928 26.2846 15.3407 26.4217 15.6366C26.1709 15.6516 25.9335 15.7052 25.6977 15.762C25.7128 15.8573 25.8081 15.9342 25.8014 16.0278C25.5991 15.9426 25.3867 15.8907 25.161 15.864L25.151 15.8974C25.4369 16.2318 25.8281 16.4308 26.2277 16.5478C26.8029 16.6816 27.3095 16.4074 27.8645 16.5027C29.2288 17.1263 30.3942 18.5541 30.9008 19.9084C30.9258 19.9736 30.9492 20.0388 30.9727 20.1057C31.3973 21.3429 31.4776 22.8644 31.0529 24.1534C30.8272 24.6901 30.5781 25.1967 30.1785 25.6331C30.028 25.8187 29.8608 25.9842 29.6786 26.1246C29.1068 26.5694 28.4029 26.765 27.6756 26.566C27.6305 26.5359 27.5385 26.5276 27.5536 26.449C27.5786 26.3437 27.602 26.235 27.6238 26.1263C27.7442 25.5077 27.7993 24.8573 27.7676 24.2069C27.7676 24.1785 27.7659 24.1501 27.7642 24.1233C27.7241 23.1787 27.5352 22.331 27.1891 21.5134C26.9667 21.0453 26.7025 20.5337 26.3682 20.0756C25.9702 19.5289 25.477 19.0557 24.8434 18.82C24.4555 18.7163 23.9739 18.6979 23.6814 19.0223C23.4707 19.2045 23.3838 19.452 23.4139 19.7211C23.0862 19.9285 22.7183 20.0421 22.3171 20.0756C22.2184 20.0839 22.1181 20.1191 22.0161 20.1191C21.9191 20.1241 21.8238 20.1191 21.7319 20.1073C21.2487 20.0488 20.7605 19.7897 20.391 19.4904C20.3826 19.2931 20.3709 19.1059 20.3642 18.8985C20.1519 18.7882 19.9764 18.5775 19.9613 18.3318L19.9814 18.3134C20.1034 18.3518 20.2104 18.412 20.3191 18.4772C20.2689 18.1813 20.2121 17.887 20.065 17.6295C19.9279 17.5727 19.7891 17.5276 19.6604 17.4573C19.5116 17.3587 19.4163 17.1798 19.3945 17.0159C19.5266 17.1464 19.759 17.0995 19.8627 17.2366C19.6838 16.7083 19.6804 16.1031 19.3862 15.6199C19.2374 15.2621 18.8495 15.0982 18.582 14.8357C18.4783 14.7104 18.4382 14.5365 18.2509 14.5164C18.0988 14.478 18.0871 14.3074 18.0603 14.1971C18.1556 14.2088 18.2359 14.2723 18.3161 14.2874C18.0954 13.7005 17.9015 13.0518 17.3029 12.679L17.1993 12.7425C16.9669 12.7776 16.7194 12.7926 16.487 12.7993C16.5907 12.6472 16.7729 12.582 16.9167 12.5134C16.7479 12.388 16.6108 12.3579 16.4018 12.3228C16.2797 12.4449 16.0607 12.5051 15.9035 12.5402L15.8851 12.5251C15.8818 12.388 15.85 12.2208 16.0557 12.1857C15.8584 12.0904 15.5307 12.1289 15.3284 12.1857C15.2715 12.3345 15.1094 12.4666 15.1194 12.6422C15.0024 12.7642 14.9188 12.9281 14.7967 13.015C14.7934 12.7224 14.9171 12.4516 14.9706 12.2041C14.8001 12.2677 14.6245 12.3596 14.4573 12.4399C14.1865 12.2844 13.9022 12.1272 13.613 12.0102C13.5862 11.9985 13.5294 11.9868 13.5394 12.0369C13.7869 12.2158 13.6916 12.5502 13.7183 12.806L13.5628 12.6773C13.4859 12.4833 13.2669 12.3429 13.2284 12.1289C12.9693 12.179 12.8038 12.2476 12.563 12.3496L12.5296 12.368C12.7085 12.368 12.8606 12.5084 12.9476 12.6489C12.6767 12.6639 12.4376 12.5569 12.1718 12.5318C12.145 12.5051 12.1233 12.475 12.0798 12.4783C11.9461 12.5285 11.8324 12.6238 11.7137 12.7141C11.4512 12.9715 11.1837 13.2591 11.0583 13.6002C11.1469 13.6152 11.2572 13.6119 11.3208 13.6654C11.177 13.7523 11.0499 13.9011 10.9095 13.9847C10.861 14.182 10.8677 14.4077 10.856 14.6234C10.7456 14.7906 10.5968 14.9394 10.5249 15.125C10.2892 15.8891 10.2273 16.7384 10.2624 17.6061C10.1855 17.678 10.0869 17.7248 10.015 17.7817L10.0233 18.5575H10.0417C10.0768 18.3936 10.2708 18.3033 10.3878 18.193H10.4263C10.4079 18.3685 10.3845 18.5424 10.3811 18.7213L10.1604 18.9036C9.93975 19.0975 10.127 19.3901 10.1069 19.6325C10.122 19.6977 10.1337 19.793 10.1805 19.8081C10.2073 19.7128 10.2909 19.6442 10.3427 19.5606C10.438 19.5372 10.5216 19.462 10.6085 19.4503C10.56 19.6409 10.4948 19.8265 10.4179 20.0087C10.3811 20.0321 10.3393 20.0656 10.3026 20.104C10.2641 20.1458 10.2323 20.1943 10.2257 20.2461C10.3962 21.1473 10.6654 22.0368 10.9747 22.8861C10.764 23.2389 10.647 23.6569 10.4714 24.0213C10.4463 24.0732 10.4246 24.125 10.4029 24.1768C10.2273 24.6199 10.1738 25.1131 9.95647 25.5395C9.86953 25.4776 9.77423 25.4325 9.67558 25.3907C9.26262 25.2536 8.78779 25.3422 8.48684 25.6565C8.21933 25.6063 7.94513 25.6531 7.73614 25.7936C7.58567 25.9073 7.4703 26.0427 7.40343 26.2015C7.35829 26.3119 7.33655 26.4323 7.34491 26.5627C7.1727 26.6814 7.08242 26.8636 7.02557 27.0459C6.94532 27.4572 7.08911 27.8852 7.32652 28.1995H24.2766L24.2782 28.2012Z" fill="white"/>
<path fill-rule="evenodd" clip-rule="evenodd" d="M31.7033 20.1057C31.623 19.8733 31.5344 19.6476 31.4358 19.4336C30.8991 18.3267 30.1701 17.1313 29.0449 16.4308C28.4113 16.0362 27.8294 15.4259 27.4716 14.7939C27.2777 14.6184 27.0904 14.386 26.8396 14.3442C26.9082 14.4579 26.9834 14.5682 27.0035 14.702L26.9884 14.7204C26.7226 14.7287 26.5119 14.5866 26.3297 14.4161L26.532 14.2339C26.4551 14.1954 26.3682 14.1803 26.2846 14.162C25.5155 14.075 24.8835 14.4278 24.2013 14.6L24.1896 14.6385C24.6076 14.824 24.6962 15.2855 24.9403 15.5981C25.0022 15.5246 25.1042 15.5781 25.1878 15.5714C25.3098 15.5798 25.4235 15.6667 25.5406 15.6366C25.5439 15.5346 25.4887 15.4544 25.4687 15.3641C25.5405 15.329 25.6292 15.3607 25.7094 15.3641C25.9301 15.4928 26.2846 15.3407 26.4217 15.6366C26.1709 15.6516 25.9335 15.7052 25.6977 15.762C25.7128 15.8573 25.8081 15.9342 25.8014 16.0278C25.5991 15.9426 25.3867 15.8907 25.161 15.864L25.151 15.8974C25.4369 16.2318 25.8281 16.4308 26.2277 16.5478C26.8029 16.6816 27.3095 16.4074 27.8645 16.5027C29.2288 17.1263 30.3942 18.5541 30.9008 19.9084C30.9258 19.9736 30.9492 20.0388 30.9727 20.1057C31.3973 21.3429 31.4776 22.8644 31.0529 24.1534C30.8272 24.6901 30.5781 25.1967 30.1785 25.6331C30.028 25.8187 29.8608 25.9842 29.6786 26.1246C29.1068 26.5694 28.4029 26.765 27.6756 26.566C27.6305 26.5359 27.5385 26.5276 27.5536 26.449C27.5786 26.3437 27.602 26.235 27.6238 26.1263C27.7442 25.5077 27.7993 24.8573 27.7676 24.2069C27.7676 24.1785 27.7659 24.1501 27.7642 24.1233C27.7241 23.1787 27.5352 22.331 27.1891 21.5134C26.9667 21.0453 26.7025 20.5337 26.3682 20.0756C25.9702 19.5289 25.477 19.0557 24.8434 18.82C24.4555 18.7163 23.9739 18.6979 23.6814 19.0223C23.4707 19.2045 23.3838 19.452 23.4139 19.7211C23.0862 19.9285 22.7183 20.0421 22.3171 20.0756C22.2184 20.0839 22.1181 20.1191 22.0161 20.1191C21.9191 20.1241 21.8238 20.1191 21.7319 20.1073C21.2487 20.0488 20.7605 19.7897 20.391 19.4904C20.3826 19.2931 20.3709 19.1059 20.3642 18.8985C20.1519 18.7882 19.9764 18.5775 19.9613 18.3318L19.9814 18.3134C20.1034 18.3518 20.2104 18.412 20.3191 18.4772C20.2689 18.1813 20.2121 17.887 20.065 17.6295C19.9279 17.5727 19.7891 17.5276 19.6604 17.4573C19.5116 17.3587 19.4163 17.1798 19.3945 17.0159C19.5266 17.1464 19.759 17.0995 19.8627 17.2366C19.6838 16.7083 19.6804 16.1031 19.3862 15.6199C19.2374 15.2621 18.8495 15.0982 18.582 14.8357C18.4783 14.7104 18.4382 14.5365 18.2509 14.5164C18.0988 14.478 18.0871 14.3074 18.0603 14.1971C18.1556 14.2088 18.2359 14.2723 18.3161 14.2874C18.0954 13.7005 17.9015 13.0518 17.3029 12.679L17.1993 12.7425C16.9669 12.7776 16.7194 12.7926 16.487 12.7993C16.5907 12.6472 16.7729 12.582 16.9167 12.5134C16.7479 12.388 16.6108 12.3579 16.4018 12.3228C16.2797 12.4449 16.0607 12.5051 15.9035 12.5402L15.8851 12.5251C15.8818 12.388 15.85 12.2208 16.0557 12.1857C15.8584 12.0904 15.5307 12.1289 15.3284 12.1857C15.2715 12.3345 15.1094 12.4666 15.1194 12.6422C15.0024 12.7642 14.9188 12.9281 14.7967 13.015C14.7934 12.7224 14.9171 12.4516 14.9706 12.2041C14.8001 12.2677 14.6245 12.3596 14.4573 12.4399C14.1865 12.2844 13.9022 12.1272 13.613 12.0102C13.5862 11.9985 13.5294 11.9868 13.5394 12.0369C13.7869 12.2158 13.6916 12.5502 13.7183 12.806L13.5628 12.6773C13.4859 12.4833 13.2669 12.3429 13.2284 12.1289C12.9693 12.179 12.8038 12.2476 12.563 12.3496L12.5296 12.368C12.7085 12.368 12.8606 12.5084 12.9476 12.6489C12.6767 12.6639 12.4376 12.5569 12.1718 12.5318C12.145 12.5051 12.1233 12.475 12.0798 12.4783C11.9461 12.5285 11.8324 12.6238 11.7137 12.7141C11.4512 12.9715 11.1837 13.2591 11.0583 13.6002C11.1469 13.6152 11.2572 13.6119 11.3208 13.6654C11.177 13.7523 11.0499 13.9011 10.9095 13.9847C10.861 14.182 10.8677 14.4077 10.856 14.6234C10.7456 14.7906 10.5968 14.9394 10.5249 15.125C10.2892 15.8891 10.2273 16.7384 10.2624 17.6061C10.1855 17.678 10.0869 17.7248 10.015 17.7817L10.0233 18.5575H10.0417C10.0768 18.3936 10.2708 18.3033 10.3878 18.193H10.4263C10.4079 18.3685 10.3845 18.5424 10.3811 18.7213L10.1604 18.9036C9.93975 19.0975 10.127 19.3901 10.1069 19.6325C10.122 19.6977 10.1337 19.793 10.1805 19.8081C10.2073 19.7128 10.2909 19.6442 10.3427 19.5606C10.438 19.5372 10.5216 19.462 10.6085 19.4503C10.56 19.6409 10.4948 19.8265 10.4179 20.0087C10.3811 20.0321 10.3393 20.0656 10.3026 20.104C10.2641 20.1458 10.2323 20.1943 10.2257 20.2461C10.3962 21.1473 10.6654 22.0368 10.9747 22.8861C10.764 23.2389 10.647 23.6569 10.4714 24.0213C10.4463 24.0732 10.4246 24.125 10.4029 24.1768C10.2273 24.6199 10.1738 25.1131 9.95647 25.5395C9.86953 25.4776 9.77423 25.4325 9.67558 25.3907C9.26262 25.2536 8.78779 25.3422 8.48684 25.6565C8.21933 25.6063 7.94513 25.6531 7.73614 25.7936C7.58567 25.9073 7.4703 26.0427 7.40343 26.2015C7.35829 26.3119 7.33655 26.4323 7.34491 26.5627C7.1727 26.6814 7.08242 26.8636 7.02557 27.0459C6.94532 27.4572 7.08911 27.8852 7.32652 28.1995H14.056C13.9574 28.0825 13.8654 27.9186 13.7969 27.7782C13.6531 27.5608 13.7518 27.2532 13.7367 27.0024C13.8738 26.7265 14.0126 26.4473 14.1697 26.1781C14.2015 26.123 14.2333 26.0711 14.265 26.0176L14.5743 25.8989C14.7382 25.8989 14.8753 25.7802 15.0308 25.822C15.2398 26.031 15.2398 25.613 15.4421 25.5946C15.9136 25.5344 16.3817 25.5796 16.6492 25.9792C16.6492 26.0327 16.7345 26.0327 16.7144 26.0828C16.6526 26.1012 16.5957 26.0628 16.5322 26.0628C16.2429 25.9909 15.9035 25.807 15.6176 25.9708C15.6059 26.0394 15.5926 26.1079 15.5775 26.1765C15.5625 26.25 15.5508 26.3202 15.5441 26.3888C15.7297 26.4423 15.8868 26.5761 16.0273 26.7198C16.1226 26.5343 16.3249 26.4507 16.5038 26.3888C16.6592 26.4222 16.8315 26.4273 16.9619 26.5259C17.2026 26.7466 17.0839 27.1228 17.0605 27.4053C17.2762 27.5274 17.5169 27.5959 17.7376 27.713C17.634 27.8049 17.4986 27.8434 17.3732 27.8885L17.007 27.815C16.9652 27.7849 16.8916 27.7849 16.8766 27.7314C16.7545 27.8601 16.6057 28.0323 16.5305 28.1995H21.7469C21.6784 28.044 21.5981 27.922 21.5028 27.7782C21.3958 27.5491 21.4393 27.2381 21.4259 26.994L21.9141 26.2517C22.18 26.2484 22.4826 26.148 22.7702 26.1982C22.7852 26.1915 22.7986 26.1848 22.812 26.1765C22.9323 26.0929 22.9691 25.9006 23.148 25.9257C23.4674 25.8387 23.7115 25.9842 23.9522 26.128C23.9439 26.1464 23.9372 26.1631 23.9271 26.1781C23.8268 26.3386 23.6379 26.1597 23.5008 26.2082C23.4439 26.2684 23.5275 26.342 23.5392 26.4105C23.5894 26.4791 23.4891 26.4707 23.4557 26.4824C23.3754 26.4941 23.2885 26.4741 23.2266 26.4105C23.2115 26.3905 23.2232 26.3687 23.1932 26.3654C23.1246 26.4791 23.0243 26.5827 22.9992 26.7115C23.0862 26.7951 23.2049 26.8787 23.2467 26.9857C23.3336 27.1111 23.1781 27.2064 23.148 27.3167C23.1363 27.3385 23.1012 27.3385 23.0912 27.3167C23.0109 27.2716 22.9424 27.1562 22.8554 27.1863C22.7785 27.5257 22.8822 27.8634 22.837 28.2028C22.9858 28.238 23.1597 28.1945 23.3202 28.2028L23.3854 27.4873C23.454 27.0241 23.7282 26.6346 24.0525 26.2801C24.402 26.041 24.6277 26.5125 24.8852 26.6764C24.9269 26.6847 24.9119 26.7299 24.9303 26.7566C24.9269 26.8335 24.8467 26.8636 24.7932 26.887C24.6327 26.9439 24.5157 26.7683 24.4153 26.6663C24.32 26.77 24.2782 26.9054 24.1679 26.9857L24.2063 26.9974C24.3334 27.1228 24.4538 27.2565 24.4822 27.4237C24.4672 27.5759 24.3903 27.723 24.2532 27.7999C24.1512 27.6244 24.0676 27.4304 23.999 27.2515C24.0024 27.2599 23.994 27.2632 23.9873 27.2716C23.7767 27.3284 23.7215 27.5642 23.6864 27.7548C23.6981 27.942 23.5576 28.0173 23.5944 28.2028H26.3096C26.6106 28.1577 26.9299 28.1644 27.1707 27.9437C28.1872 28.1009 29.2188 27.8484 30.0197 27.29C30.441 26.9489 30.8205 26.556 31.1265 26.1263C31.3973 25.7468 31.6097 25.394 31.7484 24.9693C31.8504 24.7068 31.9323 24.436 31.9942 24.1551C32.2834 22.8376 32.1313 21.363 31.7033 20.109V20.1057Z" fill="#FF6600"/>
<path fill-rule="evenodd" clip-rule="evenodd" d="M14.2266 27.1663C14.3754 27.071 14.6145 27.0476 14.6496 26.8269C14.5894 26.7817 14.5359 26.7232 14.4673 26.7082L14.3119 26.7533C14.3236 26.6614 14.3737 26.5594 14.4038 26.4607L14.9054 26.2969C14.8368 26.5243 14.8101 26.8102 14.7867 27.0727C14.8318 27.4605 14.8903 27.8752 15.0876 28.1979H14.5459C14.4857 27.8401 14.1112 27.5809 14.2266 27.1629V27.1663Z" fill="#FF6600"/>
<path fill-rule="evenodd" clip-rule="evenodd" d="M15.3969 26.7098H15.427L15.7915 27.0408L15.845 27.0291C15.8149 27.417 15.7965 27.7982 15.7915 28.2011H15.3953C15.315 27.825 15.1813 27.4287 15.1963 27.0224C15.2649 26.9188 15.31 26.79 15.3953 26.7098H15.3969Z" fill="#FF6600"/>
<path fill-rule="evenodd" clip-rule="evenodd" d="M16.2112 27.076C16.2847 26.9807 16.3148 26.8202 16.4586 26.8018C16.5623 26.8052 16.6576 26.8202 16.7345 26.8921C16.8682 27.0593 16.7378 27.2733 16.6893 27.4405C16.6358 27.6946 16.5439 27.9605 16.4603 28.2012H16.0757L16.2128 27.076H16.2112Z" fill="#FF6600"/>
<path fill-rule="evenodd" clip-rule="evenodd" d="M21.9877 26.9573C22.0713 27.0643 22.0981 27.2081 22.2235 27.3034C22.3338 27.1512 22.3606 26.9155 22.3071 26.7215L22.1967 26.6112C22.3372 26.5778 22.486 26.5661 22.6264 26.5393C22.5645 26.7416 22.4508 26.9239 22.4709 27.1596C22.4742 27.5023 22.5311 27.8451 22.5629 28.2012H22.1449C21.9927 27.8668 21.8406 27.5475 21.8523 27.1596C21.8974 27.091 21.9292 27.0108 21.9894 26.9573H21.9877Z" fill="#FF6600"/>
<path fill-rule="evenodd" clip-rule="evenodd" d="M23.79 19.6492C23.7867 19.7479 23.7131 19.8582 23.7783 19.9418C23.8703 19.8382 24.0224 19.8432 24.1445 19.7964C24.4839 19.7663 24.8066 19.8716 25.1226 19.9485C25.0423 19.8231 24.9888 19.6827 24.9019 19.5673C24.7263 19.5222 24.4605 19.6425 24.4304 19.3834C24.3234 19.2931 24.1562 19.3566 24.0459 19.365C23.9389 19.4402 23.8519 19.5355 23.79 19.6459V19.6492Z" fill="white"/>
<path fill-rule="evenodd" clip-rule="evenodd" d="M12.15 16.3639C12.15 16.3639 12.1467 16.3622 12.145 16.3606C12.145 16.3606 12.145 16.3622 12.145 16.3639H12.15Z" fill="white"/>
<path fill-rule="evenodd" clip-rule="evenodd" d="M13.5344 19.7445L13.7635 19.5238C13.7835 19.5238 13.7986 19.5272 13.8086 19.5422L13.7902 19.9652C13.9005 20.0689 14.036 20.1023 14.1814 20.1107C14.1931 19.997 14.2801 19.9167 14.3302 19.8181C14.372 19.7378 14.3453 19.6208 14.4289 19.564L14.4556 19.5907C14.4824 19.7161 14.474 19.8566 14.5392 19.9669C14.5476 20.0271 14.5576 20.104 14.5643 20.1575C14.7332 20.1659 14.8853 20.119 15.0141 20.0589C15.0057 19.9151 15.0559 19.7964 15.0776 19.6643C15.1127 19.6191 15.0358 19.5339 15.1311 19.5389C15.1846 19.6526 15.2799 19.7713 15.3334 19.8933C15.5541 19.6693 15.646 19.3767 15.6979 19.0707C15.6343 18.9838 15.534 18.9838 15.4571 18.927C14.8101 18.718 13.9808 18.6762 13.3555 18.9989C13.3137 19.2563 13.3672 19.5422 13.531 19.7479L13.5344 19.7445Z" fill="white"/>
<path fill-rule="evenodd" clip-rule="evenodd" d="M7.48202 26.8837C7.45861 27.1763 7.48202 27.4521 7.50041 27.7414C7.56227 27.8367 7.67262 27.947 7.78297 27.9537L7.80136 27.7598C7.8465 27.4906 7.70271 27.203 7.85486 26.9756C7.96186 27.0091 8.06887 27.0626 8.15915 27.1127C8.20429 26.8619 8.13909 26.5677 7.9 26.4155L7.48202 26.8853V26.8837Z" fill="white"/>
<path fill-rule="evenodd" clip-rule="evenodd" d="M8.42331 26.4725C8.27451 26.9172 8.16416 27.4656 8.34305 27.9354C8.44671 27.8669 8.55204 27.8016 8.644 27.7063C8.62561 27.3486 8.57545 26.9674 8.78946 26.6697C8.97505 26.7266 9.10211 26.9055 9.174 27.081C9.30107 26.9222 9.34287 26.6998 9.29271 26.4892C9.30107 26.322 9.11047 26.3604 9.01851 26.2919C9.04861 26.1515 9.04527 25.9876 9.19407 25.9073L8.73763 25.9525C8.61892 26.1197 8.49018 26.2835 8.42498 26.4741L8.42331 26.4725Z" fill="white"/>
<path fill-rule="evenodd" clip-rule="evenodd" d="M9.36462 27.7865C9.38301 27.82 9.36462 27.8818 9.40307 27.8902C9.45992 27.5709 9.71907 27.3635 9.85951 27.081C9.92806 26.9874 9.92471 26.8536 10.0351 26.7817C10.1839 26.7817 10.2909 26.8887 10.4347 26.9004C10.4798 26.9355 10.4112 26.9656 10.4079 27.0041C10.3778 27.2632 10.2792 27.4772 10.2976 27.7431H10.3243C10.5266 27.5291 10.6637 27.3 10.8125 27.0559L10.8393 26.8402C10.8744 26.5811 10.5935 26.4139 10.4096 26.3069L10.5734 26.0979L10.3444 26.0176C10.0785 26.0444 9.83777 26.1547 9.65219 26.3637C9.41979 26.7884 9.38301 27.2699 9.36796 27.7882L9.36462 27.7865Z" fill="white"/>
<path fill-rule="evenodd" clip-rule="evenodd" d="M10.3895 25.5294C10.4764 25.5562 10.5567 25.4843 10.6436 25.5211C10.9947 25.6515 11.3592 25.7836 11.6234 26.0761L11.936 26.872L12.0915 26.3804L11.9879 26.1146C11.8993 25.924 11.6602 25.939 11.4963 25.9324C11.4278 25.8554 11.4997 25.7685 11.5231 25.6966C11.6033 25.4258 11.2723 25.4408 11.1385 25.3305C11.1469 25.1683 10.9479 25.2235 10.8376 25.2084L10.7991 25.1633C10.7757 25.1282 10.7189 25.1282 10.6888 25.1549C10.6821 25.1432 10.667 25.1365 10.6737 25.1165L10.5901 25.1348C10.4714 25.2385 10.3912 25.3706 10.3878 25.5278L10.3895 25.5294Z" fill="white"/>
<path fill-rule="evenodd" clip-rule="evenodd" d="M10.6085 24.655C10.6202 24.7035 10.6503 24.7537 10.6888 24.7838C10.861 24.7386 11.0248 24.6199 11.2221 24.6918C11.4779 24.9159 11.7438 25.1516 12.0531 25.2736L12.1634 25.2553C12.232 25.277 12.3072 25.282 12.3523 25.3589C12.3941 25.4626 12.2888 25.5211 12.2537 25.6064C12.4242 25.7318 12.3574 25.9558 12.4627 26.1079L12.7369 25.7435C12.6733 25.583 12.7402 25.3104 12.4911 25.2937C12.4058 25.2519 12.3507 25.1683 12.3523 25.073C12.1885 24.9242 11.9879 24.8607 11.824 24.7069C11.6903 24.6015 11.61 24.4377 11.4395 24.3992C11.3208 24.334 11.192 24.3006 11.0549 24.2705C10.7991 24.232 10.7757 24.5363 10.6085 24.655Z" fill="white"/>
<path fill-rule="evenodd" clip-rule="evenodd" d="M10.9747 23.9043L11.0198 23.9779C11.2104 23.9662 11.3809 23.8826 11.5682 23.8859C11.6936 23.9612 11.8574 23.9578 11.9862 24.023C12.0898 24.1635 12.2002 24.3223 12.3507 24.4176C12.66 24.4627 12.8305 24.7955 12.9375 25.0379V24.9209C12.9827 24.757 12.9342 24.5664 12.874 24.4176C12.7971 24.3424 12.6867 24.2922 12.6065 24.2253C12.5914 24.1752 12.6031 24.1518 12.6182 24.1066C12.4995 23.9812 12.3256 23.9127 12.1801 23.8124C11.9778 23.5198 11.5899 23.6 11.2823 23.5198L10.9747 23.9043Z" fill="white"/>
<path fill-rule="evenodd" clip-rule="evenodd" d="M10.968 21.1138C11.0014 21.2325 11.0432 21.3797 11.0666 21.5067C11.1736 21.271 11.3826 21.164 11.5699 20.97C11.4629 20.8982 11.3291 20.863 11.2121 20.8413V20.8329C11.1285 20.9165 10.9981 21.0001 10.968 21.1138Z" fill="white"/>
<path fill-rule="evenodd" clip-rule="evenodd" d="M11.6602 22.3661L11.8307 22.1905C12.0029 22.015 12.1434 21.8127 12.1701 21.5887C12.0481 21.5168 11.8892 21.5669 11.7705 21.6087C11.7287 21.8545 11.6635 22.0986 11.6602 22.3661Z" fill="white"/>
<path fill-rule="evenodd" clip-rule="evenodd" d="M11.7856 22.9028C12.0481 22.9179 12.3039 22.9714 12.5179 22.8226L12.7319 22.1388C12.6633 22.1354 12.5931 22.1037 12.5296 22.1271C12.3891 22.4381 12.1066 22.7474 11.7872 22.9028H11.7856Z" fill="white"/>
<path fill-rule="evenodd" clip-rule="evenodd" d="M11.8625 20.4752C12.033 20.726 12.3206 21.0069 12.6132 21.0871C12.5797 20.7678 12.3055 20.5471 12.1634 20.2729L12.1551 20.1809C12.0447 20.0739 11.911 20.002 11.7973 19.9452C11.7789 20.1274 11.829 20.3013 11.8625 20.4735V20.4752Z" fill="white"/>
<path fill-rule="evenodd" clip-rule="evenodd" d="M12.7921 22.9329C12.9944 22.9664 13.2117 22.9329 13.3973 22.8761C13.6682 22.8109 13.817 22.5149 13.9073 22.2825H13.5679L13.2034 22.6403C13.0596 22.7156 12.9225 22.8309 12.7921 22.9329Z" fill="white"/>
<path fill-rule="evenodd" clip-rule="evenodd" d="M12.7503 20.1291C12.8071 20.4267 12.9342 20.6959 13.1047 20.9517L13.1498 20.3849L12.7503 20.1308V20.1291Z" fill="white"/>
<path fill-rule="evenodd" clip-rule="evenodd" d="M13.9992 21.6087C14.0226 21.4181 13.9424 21.1974 13.9206 21.0035C13.8069 20.9266 13.6464 20.9349 13.5277 20.8597C13.5361 21.159 13.7701 21.4148 13.9992 21.6087Z" fill="white"/>
<path fill-rule="evenodd" clip-rule="evenodd" d="M13.6531 23.5415C13.8922 23.4663 14.1246 23.381 14.347 23.2606C14.4874 23.0583 14.6997 22.8761 14.7315 22.6403C14.556 22.6888 14.4038 22.632 14.24 22.7122C14.1413 22.8911 14.0795 23.0934 13.8889 23.2222C13.8588 23.3509 13.7183 23.4378 13.6531 23.5415Z" fill="white"/>
<path fill-rule="evenodd" clip-rule="evenodd" d="M14.0243 24.0096L14.3102 24.3824C14.4623 24.4309 14.6529 24.4176 14.7867 24.3289L14.6847 23.9912C14.4824 24.0664 14.2416 24.0447 14.0243 24.0096Z" fill="white"/>
<path fill-rule="evenodd" clip-rule="evenodd" d="M14.5008 21.3162L14.6112 21.8178C14.877 21.6021 14.9322 21.2861 14.9255 20.9517C14.7733 21.1273 14.6847 21.2326 14.5008 21.3162Z" fill="white"/>
<path fill-rule="evenodd" clip-rule="evenodd" d="M15.2515 22.2023C15.2548 22.2758 15.2732 22.3427 15.315 22.3996C15.6126 22.5066 15.6427 22.8677 15.9169 23.0048C16.0958 23.0851 16.3014 22.9864 16.4569 22.9128C16.3399 22.7791 16.2061 22.6888 16.0924 22.5484C16.0122 22.5149 15.9319 22.4648 15.937 22.3661L15.2515 22.2023Z" fill="white"/>
<path fill-rule="evenodd" clip-rule="evenodd" d="M15.4872 23.9979C15.616 24.1451 15.7915 24.222 15.9738 24.2638C15.9437 24.222 15.9938 24.2638 16.0005 24.237L15.7714 23.7338C15.6578 23.7371 15.539 23.7605 15.432 23.7538C15.4404 23.8374 15.4588 23.921 15.4855 23.9979H15.4872Z" fill="white"/>
<path fill-rule="evenodd" clip-rule="evenodd" d="M15.8918 21.6556C15.7848 21.4081 15.7414 21.1072 15.7096 20.8347C15.5959 20.9718 15.4772 21.0587 15.3702 21.1991C15.32 21.48 15.723 21.5486 15.8918 21.6556Z" fill="white"/>
<path fill-rule="evenodd" clip-rule="evenodd" d="M16.3549 21.3964C16.4937 21.5753 16.793 21.5151 16.9602 21.4616C16.8799 21.3245 16.6225 21.2442 16.5756 21.0971C16.5489 20.8346 16.4954 20.5788 16.4118 20.3397C16.278 20.6624 16.1175 21.0469 16.3533 21.3964H16.3549Z" fill="white"/>
<path fill-rule="evenodd" clip-rule="evenodd" d="M16.5957 22.2023C16.9769 22.4798 17.3497 22.8042 17.8831 22.6855C17.9215 22.6587 17.9868 22.6621 17.9934 22.6136C17.838 22.5149 17.6708 22.438 17.5103 22.3477L17.328 22.0819H17.2444C17.0388 22.1505 16.8181 22.1772 16.5974 22.204L16.5957 22.2023Z" fill="white"/>
<path fill-rule="evenodd" clip-rule="evenodd" d="M16.6041 25.287H16.6308C16.8599 25.1048 17.1291 25.0429 17.3999 24.9677C17.4735 24.9944 17.4267 25.0747 17.4919 25.1048C17.6557 25.0362 17.853 25.0513 18.0202 24.9944C18.2225 25.0011 18.3864 25.0061 18.5502 25.0931C18.6806 25.2653 18.923 25.2452 19.0919 25.3589L19.0652 25.0931C18.7124 24.6784 18.159 24.6484 17.649 24.6567L17.6373 24.6032C17.5153 24.6032 17.3782 24.63 17.2645 24.6835C17.1006 24.6918 16.9452 24.7704 16.788 24.8206C16.7144 24.966 16.6576 25.1416 16.6041 25.2887V25.287Z" fill="white"/>
<path fill-rule="evenodd" clip-rule="evenodd" d="M16.91 20.6123C17.0588 20.8062 17.2795 20.955 17.5303 20.9065C17.4016 20.7795 17.2528 20.6474 17.2444 20.4685C17.2829 20.1291 16.91 20.1023 16.7261 19.9285C16.788 20.1575 16.7796 20.4117 16.9083 20.614L16.91 20.6123Z" fill="white"/>
<path fill-rule="evenodd" clip-rule="evenodd" d="M16.8699 25.9607H16.915C17.1157 25.8353 17.4099 25.9306 17.6072 25.7985C17.7176 25.7417 17.7259 25.8938 17.8012 25.9356C17.9884 26.0493 18.0118 26.3921 18.2743 26.3118C18.5903 26.4757 18.5101 26.8586 18.5218 27.1411L18.8144 26.9589C18.7876 26.8101 18.8712 26.6312 18.7759 26.5024C18.704 26.3386 18.505 26.3235 18.4097 26.1915C18.5251 25.9975 18.266 25.9056 18.2108 25.7651L18.2258 25.7467L18.6288 25.8002C18.7659 25.8838 18.816 26.036 18.8578 26.1764C19.1738 26.2299 19.2491 26.5877 19.3594 26.8151C19.4246 26.6596 19.4514 26.4907 19.5149 26.3403C19.5182 26.2149 19.351 26.2149 19.2675 26.158C19.2457 25.9641 19.1571 25.7818 18.9866 25.6648C18.6355 25.5762 18.3278 25.3839 17.9433 25.3839L17.6239 25.4826C17.4484 25.5244 17.2611 25.4709 17.1291 25.5929C16.9301 25.608 16.915 25.8253 16.8666 25.9657L16.8699 25.9607Z" fill="white"/>
<path fill-rule="evenodd" clip-rule="evenodd" d="M17.0722 24.3942L17.1458 24.4293C17.3013 24.3574 17.4584 24.2738 17.6223 24.2119C17.8764 24.1401 18.0754 24.4293 18.2894 24.2454C18.3679 24.1885 18.4382 24.2721 18.4984 24.3189C18.5903 24.4861 18.8043 24.4744 18.9632 24.5196C18.8829 24.3039 18.7843 24.0063 18.505 23.9729C18.3947 23.9244 18.2643 23.9277 18.159 23.8625C17.8664 23.5398 17.6758 24.1283 17.3548 23.9846C17.2411 24.11 17.1006 24.2287 17.0739 24.3942H17.0722Z" fill="white"/>
<path fill-rule="evenodd" clip-rule="evenodd" d="M17.1441 26.2467C17.2662 26.3504 17.3916 26.5242 17.5822 26.5008C17.8179 26.6112 17.7192 26.9238 17.848 27.0877L17.9851 26.9656L17.9734 26.9573L17.9918 26.9389L18.0001 26.9489C18.0386 26.8352 17.9851 26.6346 17.9199 26.5008C17.8329 26.4406 17.731 26.5042 17.6457 26.4473C17.634 26.3253 17.5587 26.2651 17.4701 26.1899C17.4083 26.143 17.3297 26.2049 17.2595 26.1999L17.1424 26.2467H17.1441Z" fill="white"/>
<path fill-rule="evenodd" clip-rule="evenodd" d="M17.6206 21.6087C17.746 21.8177 17.9901 21.9481 18.1841 22.0919C18.3446 22.1638 18.5536 22.1839 18.7241 22.1454C18.5602 22.0117 18.4114 21.8595 18.2743 21.7007C18.2208 21.6238 18.2091 21.5285 18.1372 21.4616C17.9583 21.4967 17.756 21.4917 17.6189 21.6104L17.6206 21.6087Z" fill="white"/>
<path fill-rule="evenodd" clip-rule="evenodd" d="M17.8313 20.2478C18.0068 20.4652 18.2777 20.3765 18.5235 20.3849V20.3582L18.1423 20.0388C18.0353 20.0723 17.9216 20.1676 17.8296 20.2478H17.8313Z" fill="white"/>
<path fill-rule="evenodd" clip-rule="evenodd" d="M10.8209 16.6599L11.0416 17.3454C11.0382 16.9575 11.2171 16.6331 11.1787 16.2385L11.3425 15.9944L10.9964 16.1014C10.9045 16.277 10.8292 16.4509 10.8225 16.6615L10.8209 16.6599Z" fill="white"/>
<path fill-rule="evenodd" clip-rule="evenodd" d="M10.968 15.4727L11.2689 15.2972V14.8524C11.1419 14.9277 11.075 15.0581 10.9763 15.1601L10.9697 15.4727H10.968Z" fill="white"/>
<path fill-rule="evenodd" clip-rule="evenodd" d="M17.1458 16.165C17.0739 16.2603 16.9636 16.2837 16.8716 16.3021C17.0321 16.0095 17.1074 15.6032 16.982 15.2705C17.0656 15.2404 17.1575 15.2253 17.2361 15.1802L17.2277 15.1718L17.4367 14.9896C17.7143 14.799 17.6073 14.4379 17.7109 14.1687C17.5738 13.9564 17.532 13.6972 17.3347 13.5183L17.3464 13.5099C17.191 13.3127 16.9084 13.3344 16.6961 13.2357C16.4135 13.1404 16.1962 13.3344 15.9938 13.4631C15.9069 13.4782 15.9604 13.5919 15.8651 13.5885C15.8116 13.729 15.7464 13.8811 15.7079 14.0383C15.3318 13.9848 14.9238 14.0266 14.6229 14.2406C14.4624 14.1219 14.2684 14.1001 14.0828 14.0466C13.9457 14.0199 13.7902 14.0684 13.6916 13.9931C13.5478 13.831 13.516 13.5334 13.2686 13.4916C13.1817 13.4615 13.1633 13.3662 13.1633 13.2826C12.9994 13.2558 12.854 13.1789 12.6951 13.1455C12.451 13.0351 12.2571 13.2107 12.0748 13.3277C11.9946 13.3611 11.9026 13.3728 11.8274 13.418C11.6903 13.632 11.5616 13.8477 11.4729 14.0834C11.4997 14.2774 11.5833 14.4479 11.6836 14.6117C11.7705 14.8592 12.0447 15.0531 12.2771 15.1518C12.1668 15.528 12.1668 15.976 12.2771 16.3572C12.2771 16.3572 12.2705 16.3623 12.2705 16.3606L12.2588 16.3723C12.2236 16.3723 12.1835 16.379 12.1534 16.3606H12.1484C12.2036 16.7234 12.3741 17.0427 12.65 17.3153C12.7486 17.3487 12.7269 17.4674 12.767 17.5426C12.7938 17.5778 12.7971 17.6496 12.7871 17.6797C12.1919 17.6614 11.6635 17.8102 11.187 18.0793C11.065 18.1395 11.1185 18.3067 11.1068 18.4254C11.4428 18.2047 11.804 18.0409 12.2036 17.969C12.3741 17.959 12.5681 17.9155 12.7336 17.9606L12.752 18.2883C12.2989 18.5241 11.804 18.6612 11.4161 19.0491C11.4228 19.1661 11.4011 19.3032 11.4345 19.4018L11.7823 19.1209C12.1166 18.8651 12.4677 18.6495 12.8523 18.509C12.9559 18.6311 13.063 18.7598 13.2001 18.8367C13.4324 18.6879 13.6832 18.5776 13.9507 18.509C14.0912 18.4254 14.3169 18.5007 14.4072 18.3335L14.4707 17.9874C14.4607 17.979 14.4523 17.964 14.4323 17.9673C14.2534 17.8637 14.1347 17.6864 14.1514 17.4774C14.0895 17.5075 14.0226 17.5276 13.9491 17.5293C13.8889 17.5142 13.8304 17.4992 13.8053 17.4373C13.8019 17.3621 13.7635 17.2467 13.8404 17.1915C14.0878 17.0394 14.4072 17.031 14.7198 17.0544C14.9522 17.0845 15.2866 17.0728 15.3669 17.347C15.3552 17.4273 15.3635 17.5142 15.2833 17.5677C15.1997 17.6129 15.1044 17.5644 15.0275 17.5293C14.9673 17.7165 14.8636 17.9255 14.6546 17.9857L14.6814 18.2064C14.7081 18.305 14.7148 18.4689 14.872 18.4338C15.2331 18.5224 15.5541 18.708 15.8701 18.9086C15.9771 18.8033 16.0607 18.6812 16.136 18.5692C16.7011 18.7598 17.1876 19.1828 17.6524 19.574L17.6708 19.2547C17.2294 18.8618 16.7379 18.5859 16.2279 18.3686C16.248 18.2649 16.2697 18.1663 16.2747 18.0559C16.88 18.091 17.4551 18.2766 17.9534 18.5692L17.945 18.295C17.42 18.0141 16.8449 17.8269 16.2162 17.8202C16.1928 17.7867 16.1861 17.7366 16.1895 17.7015C16.4938 17.653 16.7111 17.337 16.783 17.0628C16.9402 16.8839 17.1642 16.69 17.1107 16.4241C17.1174 16.4024 17.1257 16.379 17.1324 16.3556C17.1525 16.2904 17.1692 16.2201 17.1475 16.1583L17.1458 16.165Z" fill="white"/>
<path fill-rule="evenodd" clip-rule="evenodd" d="M17.6741 17.143L17.9867 17.0444L18.0219 16.8705C18.1088 16.6147 17.9232 16.4258 17.8313 16.2234L17.6758 17.1447L17.6741 17.143Z" fill="white"/>
<path fill-rule="evenodd" clip-rule="evenodd" d="M18.4633 18.3485C18.6121 18.5124 18.7558 18.7749 19.02 18.6946C18.9999 18.5843 18.9398 18.4923 18.9013 18.3937C18.8328 18.3134 18.8093 18.086 18.6722 18.1663C18.5686 18.0977 18.5435 17.984 18.4783 17.8921C18.4482 18.0325 18.4666 18.2081 18.4633 18.3485Z" fill="white"/>
<path fill-rule="evenodd" clip-rule="evenodd" d="M18.5151 19.4637C18.5719 19.5439 18.5886 19.6459 18.6438 19.7195C18.7475 19.788 18.8996 19.7763 19.025 19.7646C19.1387 19.7379 19.2106 19.8633 19.3176 19.7914C19.1839 19.7078 19.1053 19.5556 18.9799 19.4453C18.8311 19.3283 18.6706 19.4302 18.5151 19.4654V19.4637Z" fill="white"/>
<path fill-rule="evenodd" clip-rule="evenodd" d="M18.7174 21.2326C18.9799 21.3881 19.3143 21.5402 19.6654 21.4867C19.7039 21.4683 19.7691 21.4716 19.7757 21.4265C19.5584 21.3496 19.331 21.1339 19.102 21.0871C18.9766 20.8932 18.8127 21.1373 18.6522 21.1205C18.6556 21.1657 18.7007 21.1991 18.7174 21.2309V21.2326Z" fill="white"/>
<path fill-rule="evenodd" clip-rule="evenodd" d="M19.5082 24.5915L19.5651 24.7135C19.6236 25.1098 19.8727 25.4742 19.7356 25.9073C19.8493 25.9875 19.8844 26.1213 19.9563 26.2266H19.9747C20.0616 25.8956 20.0014 25.5528 19.9563 25.2218C19.9897 24.9208 19.6855 24.7469 19.5066 24.5898L19.5082 24.5915Z" fill="white"/>
<path fill-rule="evenodd" clip-rule="evenodd" d="M19.5751 20.6959C19.7724 20.848 20.0884 20.863 20.3174 20.7878C20.1736 20.7076 20.0131 20.6206 19.8944 20.5136L19.5751 20.6959Z" fill="white"/>
<path fill-rule="evenodd" clip-rule="evenodd" d="M20.5147 21.8629C20.4963 22.0234 20.6017 22.1555 20.717 22.2357C20.7588 22.1404 20.8274 22.0602 20.8341 21.9549C20.8006 21.791 20.7087 21.6422 20.5599 21.5319C20.5331 21.6389 20.503 21.7409 20.5147 21.8629Z" fill="white"/>
<path fill-rule="evenodd" clip-rule="evenodd" d="M20.5264 23.5983C20.4997 23.7772 20.697 23.8006 20.7806 23.8993C20.8491 23.9829 20.7354 24.0397 20.7354 24.12C20.8809 24.3055 20.9645 24.5179 20.9645 24.767C21.0213 24.5346 21.1083 24.3139 21.14 24.0748C21.125 23.9076 20.8591 23.9411 20.8993 23.7555C20.9762 23.5649 20.8842 23.3793 20.8341 23.2071C20.819 23.1803 20.7839 23.1268 20.7555 23.1436C20.6869 23.299 20.5147 23.4094 20.5264 23.6V23.5983Z" fill="white"/>
<path fill-rule="evenodd" clip-rule="evenodd" d="M21.0481 22.6938L21.2454 23.0783C21.3323 23.0666 21.3892 22.983 21.4577 22.9228C21.5112 22.7623 21.3691 22.6603 21.329 22.5299C21.2939 22.438 21.329 22.3176 21.2638 22.2373C21.2136 22.2072 21.1568 22.1571 21.0999 22.1721L21.0464 22.6938H21.0481Z" fill="white"/>
<path fill-rule="evenodd" clip-rule="evenodd" d="M21.3022 21.6807C21.4594 21.776 21.6383 21.9131 21.7219 22.0803C21.8556 22.4681 22.068 22.8176 22.2234 23.1938C22.2803 23.4563 22.3271 23.6903 22.399 23.9495C22.4257 24.018 22.4107 24.1518 22.5177 24.1401C22.5478 23.8508 22.6046 23.5733 22.6097 23.2723C22.5144 23.1469 22.389 23.0934 22.2703 23.0182V22.9915C22.2853 22.9279 22.3388 22.851 22.4191 22.8627C22.4525 22.8243 22.5562 22.7875 22.511 22.7173C22.3121 22.52 22.3238 22.1789 22.0094 22.1187C21.8991 22.0736 21.8723 21.9582 21.8606 21.8529C21.7118 21.7258 21.4911 21.6857 21.3039 21.6807H21.3022Z" fill="white"/>
<path fill-rule="evenodd" clip-rule="evenodd" d="M21.4861 23.7438C21.6801 23.9227 21.6115 24.1819 21.5965 24.421C21.5664 24.5664 21.7486 24.4812 21.8055 24.5581C21.9242 24.7336 21.8556 24.9877 21.8138 25.1783C21.9175 25.0212 22.0345 24.8858 22.1148 24.7136C22.1114 24.65 22.195 24.6183 22.1917 24.538C22.2251 24.4277 22.0964 24.4778 22.0429 24.4661C21.9977 24.4544 21.9476 24.4243 21.9643 24.3624C22.0629 24.1718 21.971 23.9445 21.9342 23.7539C21.8891 23.5984 21.9543 23.3877 21.8807 23.2506C21.7586 23.4195 21.3958 23.4563 21.4895 23.7422L21.4861 23.7438Z" fill="white"/>
<path fill-rule="evenodd" clip-rule="evenodd" d="M21.8389 21.042C22.1783 21.3847 22.4257 21.7291 22.7919 22.0602C22.8002 21.9114 22.7802 21.7743 22.7735 21.6305C22.72 21.5268 22.6213 21.4516 22.5361 21.3747C22.2652 21.3479 22.1248 20.9851 21.8389 21.042Z" fill="white"/>
<path fill-rule="evenodd" clip-rule="evenodd" d="M22.7267 22.8543C22.735 22.8894 22.7501 22.9195 22.7651 22.953C22.9139 23.1971 23.0544 23.4479 23.158 23.7104C23.1279 23.4295 23.3169 23.0784 23.0661 22.8627C23.0326 22.7707 22.9189 22.8025 22.8454 22.8092L22.7267 22.8543Z" fill="white"/>
<path fill-rule="evenodd" clip-rule="evenodd" d="M23.6412 25.6331C23.7482 25.6832 23.8853 25.5946 23.9873 25.5344C24.0826 25.511 24.1629 25.5645 24.2348 25.6147C24.2649 25.6749 24.2348 25.7334 24.2465 25.7902C24.4755 25.8538 24.6996 25.939 24.9002 26.0711L24.9637 26.0059C24.9788 25.8421 24.85 25.725 24.728 25.6331C24.6494 25.5879 24.529 25.6147 24.4739 25.5428C24.5123 25.4826 24.5123 25.3907 24.5073 25.3221C24.3819 25.3221 24.3017 25.2836 24.1997 25.2235C24.1345 25.2051 24.0776 25.1499 24.0241 25.2235C23.8335 25.3522 23.8235 25.5428 23.6396 25.6348L23.6412 25.6331Z" fill="white"/>
<path fill-rule="evenodd" clip-rule="evenodd" d="M23.9071 20.8463C24.0024 20.8195 24.101 20.7928 24.1813 20.7242C24.4371 20.4918 24.8066 20.649 25.1042 20.644C25.0473 20.5403 24.9654 20.4383 24.8935 20.3514C24.7865 20.3096 24.6879 20.2611 24.5658 20.2611C24.3067 20.109 24.1328 20.3648 23.9338 20.4885C23.8803 20.5922 23.8536 20.7426 23.9071 20.8463Z" fill="white"/>
<path fill-rule="evenodd" clip-rule="evenodd" d="M23.9137 21.6305C23.9137 21.6188 23.9137 21.6071 23.9255 21.6037C23.9606 21.6338 23.9221 21.7074 23.979 21.7225C24.0776 21.6723 24.1696 21.6037 24.2598 21.5402C24.5156 21.5402 24.6678 21.2928 24.9186 21.2928C25.3382 21.3697 25.7529 21.4533 26.1174 21.6572C26.0906 21.4115 25.8766 21.1858 25.6609 21.0754C25.5389 21.0336 25.4436 21.0988 25.3566 21.1674C25.1025 21.3279 25.2346 20.935 25.0557 20.9283C24.8233 21.0002 24.5825 21.0804 24.3234 21.057C24.1712 21.1155 24.0642 21.2543 23.8937 21.2393C23.887 21.3663 23.8686 21.5185 23.9121 21.6322L23.9137 21.6305Z" fill="white"/>
<path fill-rule="evenodd" clip-rule="evenodd" d="M24.0893 22.4781C24.1695 22.5634 24.3016 22.5467 24.417 22.5634L24.748 22.433C24.7514 22.3728 24.6494 22.3577 24.6711 22.2892C24.7631 22.1855 24.8868 22.2591 25.0022 22.2173C25.161 22.1939 25.3249 22.0351 25.4854 22.1521C25.4803 22.1721 25.492 22.1972 25.477 22.2173C25.4285 22.336 25.5104 22.4079 25.6024 22.453C25.7897 22.4865 25.9635 22.6587 26.1508 22.5818C26.1324 22.4263 26.0906 22.2825 26.0521 22.1337C25.8967 22.1069 25.7846 21.9782 25.6408 21.9247C25.5773 21.9849 25.492 22.0317 25.4118 22.0233C25.1192 21.9548 24.7681 21.7726 24.4705 21.9581C24.3635 22.0886 24.1729 22.0501 24.0291 22.1069C24.0375 22.2357 24.0525 22.3627 24.0876 22.4798L24.0893 22.4781Z" fill="white"/>
<path fill-rule="evenodd" clip-rule="evenodd" d="M24.2164 24.7403C24.193 24.8055 24.1294 24.9108 24.2465 24.9426C24.4906 24.9493 24.8016 24.8239 24.9922 25.0145C25.0574 25.0647 25.0256 25.1666 25.0223 25.2318L25.3416 25.4977C25.3717 25.3372 25.4302 25.1934 25.4335 25.0212C25.4068 24.8991 25.3449 24.7821 25.2396 24.7018C25.0289 24.7018 24.9086 24.4561 24.6828 24.4862C24.5658 24.4594 24.4622 24.5647 24.3434 24.5647C24.2916 24.6182 24.2598 24.6835 24.2147 24.7403H24.2164Z" fill="white"/>
<path fill-rule="evenodd" clip-rule="evenodd" d="M24.3066 22.9463C24.3551 23.05 24.4137 23.2171 24.509 23.2272C24.733 23.1285 25.0624 23.0683 25.3131 23.1753C25.3967 23.1904 25.3967 23.2857 25.3784 23.3459C25.5071 23.4211 25.6643 23.483 25.8014 23.5666L25.7629 23.3375C25.7545 23.0901 25.4436 23.0683 25.4235 22.8242C25.1677 22.7406 24.8835 22.7139 24.6126 22.7791C24.5257 22.8594 24.3986 22.8477 24.2933 22.8711C24.2849 22.9012 24.3033 22.9212 24.3083 22.9463H24.3066Z" fill="white"/>
<path fill-rule="evenodd" clip-rule="evenodd" d="M24.3718 24.1785C24.5206 24.1367 24.6159 23.9729 24.7765 23.9578C25.0206 23.9612 25.2379 24.0615 25.39 24.2705C25.482 24.3307 25.4619 24.4862 25.5807 24.4862C25.5455 24.3006 25.6074 24.1301 25.599 23.9378C25.4402 23.6719 25.044 23.8776 24.8952 23.5649L24.6143 23.5833C24.412 23.6335 24.4655 23.8692 24.4387 24.0297C24.4153 24.0782 24.3702 24.1167 24.3735 24.1769L24.3718 24.1785Z" fill="white"/>
<path fill-rule="evenodd" clip-rule="evenodd" d="M25.7696 25.8438C25.8866 26.0795 26.1475 26.2584 26.1725 26.5276C26.2327 26.4557 26.2762 26.3721 26.3163 26.2919C26.313 26.2166 26.2244 26.2166 26.1909 26.1548C26.1558 26.0561 26.2093 25.9692 26.2244 25.8806C26.1742 25.7401 26.0555 25.6064 25.9234 25.5228L25.7679 25.8421L25.7696 25.8438Z" fill="white"/>
<path fill-rule="evenodd" clip-rule="evenodd" d="M26.2377 25.2419L26.5119 25.6147C26.629 25.4291 26.629 25.1549 26.5838 24.9292C26.5571 24.8874 26.5069 24.8189 26.4401 24.849C26.3364 24.9543 26.3213 25.1181 26.2377 25.2402V25.2419Z" fill="white"/>
<path fill-rule="evenodd" clip-rule="evenodd" d="M25.1226 14.829C25.2212 14.8792 25.3165 14.9243 25.4352 14.9327C25.5138 14.8909 25.6174 14.8591 25.7161 14.8875C25.8565 14.9795 26.0287 14.8692 26.1926 14.8758C26.0471 14.7387 25.8833 14.6551 25.7161 14.5749C25.5021 14.62 25.3315 14.7722 25.1209 14.829H25.1226Z" fill="white"/>
<path fill-rule="evenodd" clip-rule="evenodd" d="M26.6106 15.1868C26.8129 15.2052 26.9584 15.3841 27.0938 15.5329C27.2643 15.5596 27.3947 15.6817 27.4967 15.8071L27.4332 15.6064C27.388 15.4041 27.261 15.2486 27.1322 15.0881C26.95 15.0998 26.7694 15.1166 26.6106 15.1868Z" fill="white"/>
<path fill-rule="evenodd" clip-rule="evenodd" d="M12.4009 13.5182L12.5112 13.53C12.8071 13.6788 13.287 13.754 13.3154 14.1837C13.0145 14.3024 12.7252 14.4612 12.4845 14.7053C12.3022 14.5197 11.9327 14.6217 11.8708 14.294C11.9294 13.9847 12.038 13.5968 12.4009 13.5182Z" fill="#FF6600"/>
<path fill-rule="evenodd" clip-rule="evenodd" d="M12.6868 15.4476C13.0328 15.4175 13.3689 15.466 13.7267 15.4359C13.8136 15.4744 13.9056 15.5496 13.9474 15.6365C13.9357 16.0478 13.8103 16.4391 13.7919 16.8621C13.6364 16.9256 13.4826 17.056 13.4441 17.2266C13.3037 17.2684 13.1766 17.3519 13.0395 17.4172C12.9793 17.2884 12.991 17.0945 13.098 16.9875C13.2468 16.7785 13.6314 16.827 13.6013 16.4959C13.6999 16.3371 13.6046 16.1314 13.608 15.9642C13.5695 15.8388 13.5311 16.006 13.4709 16.0027C13.3488 16.0294 13.2234 16.0361 13.1164 15.9759C13.0362 15.8924 12.9375 15.8238 12.9141 15.7101C12.8071 15.6566 12.6817 15.573 12.6282 15.4627L12.6851 15.4493L12.6868 15.4476Z" fill="#FF6600"/>
<path fill-rule="evenodd" clip-rule="evenodd" d="M13.1047 17.9271C13.2669 17.9505 13.4391 17.8769 13.5812 17.9572C13.5511 18.0107 13.4709 18.0324 13.4057 18.0492L13.1499 18.1662C13.0546 18.1445 13.1081 17.9906 13.1047 17.9271Z" fill="#FF6600"/>
<path fill-rule="evenodd" clip-rule="evenodd" d="M13.7718 14.7505C13.9357 14.697 14.1112 14.5883 14.2851 14.6401C14.1597 14.7655 14.061 14.9294 13.9657 15.0815L13.4441 15.0698C13.501 14.9327 13.6464 14.819 13.7718 14.7505Z" fill="#FF6600"/>
<path fill-rule="evenodd" clip-rule="evenodd" d="M15.2983 14.6251C15.5156 14.5867 15.5039 14.8692 15.7012 14.8793C15.7363 14.9244 15.7865 14.9662 15.7664 15.0347C15.6511 15.0799 15.4839 15.0581 15.3551 15.0882C15.1829 14.9929 15.295 14.697 15.0241 14.7154C15.0091 14.692 14.979 14.6469 15.0157 14.6318C15.0993 14.6017 15.2114 14.6134 15.2983 14.6251Z" fill="#FF6600"/>
<path fill-rule="evenodd" clip-rule="evenodd" d="M15.1612 15.6433C15.2565 15.5096 15.402 15.4995 15.5391 15.4728L16.5255 15.4912C16.5673 15.5296 16.4871 15.5647 16.4871 15.6099C16.4269 15.6667 16.3383 15.6834 16.2847 15.7353C16.156 15.7386 16.166 15.8908 16.0758 15.956C15.9353 16.0964 15.728 16.0312 15.5658 16.0095C15.509 15.9677 15.4438 15.9108 15.417 15.8456L15.3719 15.8908C15.4287 16.1048 15.4137 16.3405 15.4571 16.5562L15.6929 16.7117C15.6962 17.0611 16.1075 16.9658 16.2864 17.1598C16.2446 17.2852 16.161 17.3922 16.0691 17.4992C15.9253 17.3587 15.7598 17.2668 15.5859 17.2066C15.5708 17.0026 15.3451 16.8805 15.2214 16.7769C15.1863 16.404 15.1796 16.0228 15.1177 15.6617L15.1629 15.6416L15.1612 15.6433Z" fill="#FF6600"/>
<path fill-rule="evenodd" clip-rule="evenodd" d="M15.519 17.9907H15.9771L15.9203 18.2298L15.4622 18.0359C15.4521 17.9974 15.4922 17.9874 15.5207 17.9907H15.519Z" fill="#FF6600"/>
<path fill-rule="evenodd" clip-rule="evenodd" d="M16.3416 13.6821L16.681 13.5751C16.8749 13.6654 17.0572 13.7808 17.2361 13.9095C17.3765 14.1687 17.3548 14.5181 17.2896 14.8073C17.1859 14.921 16.9619 14.8073 16.8783 14.9896H16.8632C16.7378 14.6318 16.38 14.3125 16.049 14.1486C16.1025 13.9664 16.1593 13.7875 16.3416 13.6805V13.6821Z" fill="#FF6600"/>
</svg>
