<svg width="40" height="40" viewBox="0 0 40 40" fill="none" xmlns="http://www.w3.org/2000/svg">
<rect x="0.5" y="0.5" width="39" height="39" rx="3.5" fill="white"/>
<rect x="0.5" y="0.5" width="39" height="39" rx="3.5" stroke="#DBD9D7"/>
<path fill-rule="evenodd" clip-rule="evenodd" d="M9.4247 21.7737C9.13764 21.0226 8.86279 20.3524 8.76506 20.1618C8.58794 19.7978 8.27644 19.4338 7.82447 19.3587C7.83058 19.3587 7.86722 19.3529 7.89165 19.3529C8.72231 19.2431 9.08267 18.6654 9.08267 18.0818C9.08267 17.5792 8.78949 16.7934 7.43357 16.7934H6.02268C5.92496 16.7934 5.83334 16.8685 5.83334 16.961V21.8141C5.83334 21.9066 5.92496 21.9817 6.02268 21.9817H6.41358C6.5113 21.9817 6.5907 21.9066 6.5907 21.8141V19.6475H6.97549C7.5313 19.6475 7.78172 19.9711 7.97106 20.3062C8.19704 20.7048 8.35584 21.2653 8.56961 21.8661C8.60015 21.9644 8.67345 21.9875 8.76506 21.9875H9.30254C9.44913 21.9817 9.47356 21.895 9.4247 21.7737V21.7737ZM7.32974 19.0293H6.59681V17.4232H7.42136C8.0077 17.4232 8.31309 17.7525 8.31309 18.1743C8.30698 18.7058 7.93441 19.0293 7.32974 19.0293ZM10.8661 18.1974C9.96829 18.1974 9.36362 18.9311 9.36362 20.0982C9.36362 21.3635 9.99272 22.0221 11.1104 22.0221C11.5868 22.0221 11.8617 21.9528 12.1243 21.843C12.2159 21.8026 12.2648 21.7275 12.2282 21.635L12.1365 21.3866C12.106 21.2999 12.0388 21.2422 11.9167 21.2768C11.6785 21.3404 11.4586 21.4097 11.1471 21.4097C10.4142 21.4097 10.1698 21.0111 10.1332 20.2889H12.1671C12.2648 20.2889 12.3442 20.2137 12.3442 20.1213C12.3503 18.7 11.6968 18.1974 10.8661 18.1974V18.1974ZM10.1393 19.7573C10.2187 18.9542 10.5913 18.7636 10.8906 18.7636C11.3975 18.7636 11.5746 19.2662 11.5929 19.7573H10.1393ZM14.6774 21.323H13.9994C13.7062 21.323 13.578 21.2768 13.578 21.1151C13.578 21.0284 13.6452 20.9475 13.7246 20.8782C13.8528 20.9071 13.9872 20.9244 14.1216 20.9244C15.0255 20.9244 15.6057 20.4044 15.6057 19.5551C15.6057 19.2951 15.4836 19.0351 15.3126 18.8156L15.5813 18.7867C15.679 18.7809 15.7462 18.7231 15.7462 18.6249V18.4227C15.7462 18.3245 15.679 18.2436 15.5691 18.2436H14.6285C14.4575 18.2436 14.2926 18.2031 14.1216 18.2031C13.2481 18.2031 12.6557 18.6885 12.6557 19.5551C12.6557 20.0635 12.8817 20.4506 13.242 20.676C13.0466 20.8435 12.8817 21.0457 12.8817 21.3173C12.8817 21.7621 13.297 21.9181 13.7795 21.9181H14.5735C15.0133 21.9181 15.1843 22.0857 15.1843 22.4035C15.1843 22.7443 14.7934 22.9523 14.2926 22.9523C13.9078 22.9523 13.4864 22.883 13.4192 22.4728C13.4008 22.3746 13.3398 22.3168 13.242 22.311L12.8328 22.2937C12.7351 22.2937 12.6557 22.363 12.6557 22.4555V22.4612C12.6618 23.2932 13.4864 23.5416 14.2743 23.5416C15.0255 23.5416 15.8989 23.2181 15.8989 22.3226C15.8928 21.687 15.4164 21.323 14.6774 21.323V21.323ZM14.1277 18.7289C14.5247 18.7289 14.8545 18.8618 14.8545 19.5378C14.8545 20.2311 14.5063 20.3813 14.1277 20.3813C13.7368 20.3813 13.407 20.26 13.407 19.5378C13.407 18.856 13.7368 18.7289 14.1277 18.7289ZM17.0838 16.9379C17.0838 16.6779 16.8639 16.4583 16.583 16.4583C16.3081 16.4583 16.076 16.6663 16.076 16.9321V16.9379C16.076 17.2094 16.2959 17.4232 16.583 17.4232C16.8639 17.4232 17.0838 17.2094 17.0838 16.9379V16.9379ZM16.9556 21.8084V18.4111C16.9556 18.3187 16.8639 18.2436 16.7784 18.2436H16.412C16.3142 18.2436 16.2226 18.3187 16.2226 18.4111V21.8084C16.2226 21.9008 16.3142 21.9759 16.412 21.9759H16.7784C16.8639 21.9817 16.9556 21.9008 16.9556 21.8084ZM18.9161 18.1974C17.9389 18.1974 17.322 18.9253 17.322 20.1098C17.322 21.3057 17.9328 22.0164 18.9161 22.0164C19.9056 22.0164 20.498 21.2884 20.498 20.1098C20.498 18.9311 19.8934 18.1974 18.9161 18.1974V18.1974ZM19.7224 20.1098C19.7224 21.0457 19.4109 21.427 18.8978 21.427C18.3909 21.427 18.0794 21.0399 18.0794 20.1098C18.0794 19.1911 18.3909 18.7925 18.8978 18.7925C19.4109 18.7925 19.7224 19.1911 19.7224 20.1098ZM23.2771 19.22C23.9367 19.0351 24.2177 18.648 24.2177 18.0703C24.2177 17.3076 23.668 16.7819 22.7213 16.7819H21.1394C21.0416 16.7819 20.95 16.857 20.95 16.9494V21.8026C20.95 21.895 21.0416 21.9701 21.1394 21.9701H22.8068C23.8329 21.9701 24.4559 21.4386 24.4559 20.5084C24.4498 19.844 24.0589 19.3067 23.2771 19.22V19.22ZM21.7074 17.4001H22.5747C23.1549 17.4001 23.442 17.6774 23.442 18.1743C23.442 18.6538 23.1305 18.9542 22.5197 18.9542H21.7135V17.4001H21.7074ZM23.6313 20.4391C23.6313 21.0053 23.2954 21.3404 22.7335 21.3404H21.7074V19.5262H22.5808C23.2404 19.5262 23.6313 19.9133 23.6313 20.4391V20.4391ZM27.6563 21.8084L27.6075 21.583C27.5586 21.3519 27.5647 21.1439 27.5647 20.9533V19.6129C27.5647 18.9889 27.4609 18.2031 26.1599 18.2031C25.8118 18.2031 25.4087 18.2898 25.1705 18.3476C25.0727 18.3707 25.03 18.4458 25.0544 18.5498L25.1216 18.8329C25.146 18.9311 25.2254 18.9889 25.3354 18.9542C25.5553 18.9022 25.7996 18.8213 26.1172 18.8213C26.6974 18.8213 26.8257 19.0293 26.8257 19.48V19.6649L25.9278 19.7169C25.2682 19.7631 24.7063 20.0866 24.7063 20.9128C24.7063 21.6062 25.1033 22.0164 25.7568 22.0164C26.2088 22.0164 26.6302 21.8604 26.8806 21.4848L26.9356 21.8257C26.9539 21.9355 27.0272 21.9817 27.125 21.9817H27.4975C27.6136 21.9759 27.6685 21.9066 27.6563 21.8084V21.8084ZM26.8318 20.7395C26.8318 21.0226 26.4959 21.4502 25.9767 21.4502C25.6774 21.4502 25.4636 21.2826 25.4636 20.9071C25.4636 20.3293 25.824 20.1906 26.3187 20.1733L26.8318 20.156V20.7395ZM30.869 21.8084V19.1622C30.869 18.5845 30.4781 18.1974 29.8673 18.1974C29.4337 18.1974 29.0916 18.3534 28.7496 18.7289L28.6702 18.3823C28.6458 18.284 28.5908 18.2436 28.4748 18.2436H28.2305C28.1327 18.2436 28.0411 18.3129 28.0411 18.4054V21.8084C28.0411 21.9008 28.1327 21.9759 28.2305 21.9759H28.603C28.7008 21.9759 28.7802 21.9008 28.7802 21.8084V19.7111C28.7802 19.1969 29.1649 18.7982 29.6597 18.7982C29.9956 18.7982 30.1239 18.96 30.1239 19.3182V21.8084C30.1239 21.9008 30.2155 21.9759 30.3132 21.9759H30.6858C30.7835 21.9759 30.869 21.9008 30.869 21.8084V21.8084ZM34.1428 21.7737L32.8052 19.844L33.8984 18.4342C33.9656 18.3476 33.9229 18.2436 33.8068 18.2436H33.2877C33.1716 18.2436 33.0983 18.2956 33.0495 18.3765L32.06 19.8035V16.6721C32.06 16.5796 31.9867 16.5045 31.889 16.5045H31.5164C31.4187 16.5045 31.3393 16.5739 31.3393 16.6663V21.8141C31.3393 21.9066 31.4187 21.9817 31.5164 21.9817H31.8829C31.9806 21.9817 32.06 21.9066 32.06 21.8141V19.9711L33.2449 21.8373C33.2999 21.9297 33.3732 21.9817 33.4648 21.9817H34.045C34.155 21.9759 34.1977 21.8604 34.1428 21.7737V21.7737Z" fill="#CA031A"/>
</svg>
