<svg width="40" height="40" viewBox="0 0 40 40" fill="none" xmlns="http://www.w3.org/2000/svg">
<rect x="0.5" y="0.5" width="39" height="39" rx="3.5" fill="white"/>
<rect x="0.5" y="0.5" width="39" height="39" rx="3.5" stroke="#DBD9D7"/>
<g clip-path="url(#clip0_10170_4638)">
<path d="M8.75 11.4826V28.5174C8.75 29.3328 9.41155 30 10.2201 30H20.3124C27.9423 30 31.25 25.6931 31.25 19.9778C31.25 14.2921 27.9423 10 20.3124 10H10.2201C9.41155 10 8.75 10.6672 8.75 11.4826Z" fill="white"/>
<path d="M15.5051 14.1808V26.7679H20.9372C25.8694 26.7679 28.0084 23.9585 28.0084 19.9851C28.0084 16.1823 25.8694 13.232 20.9372 13.232H16.446C15.9241 13.232 15.5051 13.6619 15.5051 14.1808Z" fill="#CC0066"/>
<path d="M20.3124 28.6434H11.5359C10.7567 28.6434 10.1245 28.0059 10.1245 27.2201V12.7872C10.1245 12.0015 10.7567 11.364 11.5359 11.364H20.3124C28.6406 11.364 29.8828 16.768 29.8828 19.9852C29.8828 25.5671 26.4795 28.6434 20.3124 28.6434ZM11.5359 11.8384C11.014 11.8384 10.595 12.2609 10.595 12.7872V27.2201C10.595 27.7465 11.014 28.169 11.5359 28.169H20.3124C26.1781 28.169 29.4124 25.2631 29.4124 19.9852C29.4124 12.8984 23.7083 11.8384 20.3124 11.8384H11.5359Z" fill="black"/>
<path d="M17.4163 18.2876C17.6074 18.2876 17.7838 18.3173 17.9529 18.3766C18.1219 18.4359 18.2616 18.5323 18.3866 18.6509C18.5042 18.7769 18.5997 18.9325 18.6732 19.1105C18.7394 19.2958 18.7761 19.5108 18.7761 19.7628C18.7761 19.9852 18.7467 20.1853 18.6953 20.3706C18.6365 20.556 18.5556 20.7191 18.4454 20.8525C18.3351 20.9859 18.1954 21.0897 18.0264 21.1712C17.8573 21.2454 17.6589 21.2898 17.431 21.2898H16.1446V18.2802H17.4163V18.2876ZM17.3722 20.7413C17.4677 20.7413 17.5559 20.7265 17.6515 20.6968C17.7397 20.6672 17.8206 20.6153 17.8867 20.5411C17.9529 20.467 18.0117 20.3781 18.0558 20.2595C18.0999 20.1408 18.1219 20.0074 18.1219 19.8369C18.1219 19.6887 18.1072 19.5478 18.0778 19.4292C18.0484 19.3106 17.997 19.1994 17.9308 19.1179C17.8647 19.0363 17.7765 18.9622 17.6662 18.9177C17.5559 18.8732 17.4236 18.851 17.2619 18.851H16.7915V20.7487H17.3722V20.7413Z" fill="white"/>
<path d="M21.4297 18.2876V18.8436H19.8567V19.4885H21.3047V20H19.8567V20.7339H21.4664V21.2898H19.2025V18.2802H21.4297V18.2876Z" fill="white"/>
<path d="M23.6789 18.2876L24.7962 21.2972H24.1126L23.8848 20.6301H22.7675L22.5323 21.2972H21.8707L22.9953 18.2876H23.6789ZM23.7157 20.1334L23.3408 19.0289H23.3335L22.9439 20.1334H23.7157Z" fill="white"/>
<path d="M25.8621 18.2876V20.7413H27.3175V21.2972H25.2079V18.2876H25.8621Z" fill="white"/>
<path d="M13.0501 21.1787C13.8092 21.1787 14.4246 20.558 14.4246 19.7925C14.4246 19.0269 13.8092 18.4062 13.0501 18.4062C12.2909 18.4062 11.6755 19.0269 11.6755 19.7925C11.6755 20.558 12.2909 21.1787 13.0501 21.1787Z" fill="black"/>
<path d="M14.0865 26.768C12.9325 26.768 12.0063 25.8265 12.0063 24.6701V23.0319C12.0063 22.4537 12.4694 21.9792 13.0501 21.9792C13.6234 21.9792 14.0938 22.4463 14.0938 23.0319V26.768H14.0865Z" fill="black"/>
</g>
<defs>
<clipPath id="clip0_10170_4638">
<rect width="22.5" height="20" fill="white" transform="translate(8.75 10)"/>
</clipPath>
</defs>
</svg>
