<svg width="40" height="40" viewBox="0 0 40 40" fill="none" xmlns="http://www.w3.org/2000/svg">
<rect width="40" height="40" rx="4" fill="#F36805"/>
<rect x="0.5" y="0.5" width="39" height="39" rx="3.5" stroke="white" stroke-opacity="0.01"/>
<path d="M24.2527 12.4105L23.5883 10.8084C23.4769 10.5384 23.3133 10.2931 23.1068 10.0865C22.9002 9.88001 22.6549 9.71637 22.3849 9.60504C21.8435 9.38149 21.2356 9.38149 20.6942 9.60504L13.9316 12.4105H24.2527Z" fill="white"/>
<path d="M28.1213 26.2828H22.5842C22.4237 26.2828 22.2697 26.219 22.1561 26.1055C22.0426 25.992 21.9788 25.838 21.9788 25.6774V18.0657C21.9808 17.9065 22.0454 17.7544 22.1587 17.6424C22.272 17.5305 22.4249 17.4677 22.5842 17.4677H28.9334V16.0576C28.9316 15.7332 28.8585 15.4131 28.7193 15.12C28.5508 14.7097 28.263 14.3594 27.8931 14.1146C27.5232 13.8698 27.0883 13.7416 26.6448 13.7468H11.1409C10.67 13.7494 10.2123 13.902 9.8341 14.1824C9.70293 14.2865 9.58182 14.4027 9.47234 14.5294L9.33945 14.7066L9.28039 14.7804C9.20737 14.887 9.14552 15.0008 9.09582 15.12C8.95663 15.4131 8.88354 15.7332 8.88171 16.0576V27.7741C8.88171 28.3733 9.11973 28.9479 9.5434 29.3716C9.96707 29.7953 10.5417 30.0333 11.1409 30.0333H26.6448C27.2439 30.0333 27.8185 29.7953 28.2422 29.3716C28.6659 28.9479 28.9039 28.3733 28.9039 27.7741V26.2976H28.1213V26.2828Z" fill="white"/>
<path d="M23.4554 18.9443V24.8063H31.0744V18.9443H23.4554Z" fill="white"/>
</svg>
