<svg width="40" height="40" viewBox="0 0 40 40" fill="none" xmlns="http://www.w3.org/2000/svg">
<rect width="40" height="40" rx="4" fill="black"/>
<rect x="0.5" y="0.5" width="39" height="39" rx="3.5" stroke="white" stroke-opacity="0.01"/>
<path d="M25.9776 20.3581C26.6176 20.372 27.2611 20.3298 27.8985 20.38C28.544 20.5004 28.6996 21.4776 28.1261 21.7976C27.7348 22.0084 27.27 21.8761 26.8458 21.9133H25.9776V20.3581ZM28.2685 18.5977C28.4107 19.0996 27.9269 19.5501 27.4436 19.481H25.9776C25.9879 19.0078 25.9575 18.4941 25.9925 18.0458C26.5798 18.0623 27.1725 18.012 27.7564 18.0721C28.0072 18.1351 28.2172 18.3413 28.2685 18.5977ZM31.7966 11.1556C31.8239 12.1139 31.8005 13.123 31.8084 14.1008C31.8065 18.0763 31.8122 22.0517 31.8052 26.0275C31.7795 27.5174 30.4591 28.812 28.9795 28.8418C27.4984 28.8478 26.0172 28.8427 24.5359 28.8443V22.8342C26.1498 22.8259 27.7645 22.8511 29.3777 22.8216C30.1261 22.7746 30.9459 22.2808 30.9807 21.4572C31.0688 20.6301 30.289 20.058 29.5486 19.9677C29.264 19.9603 29.2723 19.8847 29.5486 19.8517C30.2548 19.6991 30.8093 18.9682 30.6015 18.2363C30.4245 17.4665 29.5736 17.1685 28.8658 17.17C27.4227 17.1602 25.9794 17.1686 24.5362 17.1658C24.5456 16.0437 24.5168 14.9205 24.5517 13.7993C24.6661 12.3363 26.0197 11.1298 27.4785 11.1559C28.9181 11.1557 30.3574 11.1557 31.7966 11.1557V11.1556Z" fill="white"/>
<path d="M8.22808 13.9508C8.26494 12.4632 9.591 11.1792 11.0687 11.1575C12.5443 11.1529 14.0201 11.1568 15.4956 11.1555C15.4916 16.1326 15.5036 21.1102 15.4895 26.087C15.4327 27.5565 14.1211 28.816 12.6595 28.842C11.1811 28.8474 9.70261 28.8428 8.22419 28.8442V22.6315C9.66022 22.9707 11.1661 23.1151 12.6311 22.8901C13.5068 22.7492 14.4649 22.3192 14.7614 21.4107C14.9796 20.6335 14.8568 19.8157 14.8892 19.018V17.1657H12.3539C12.3425 18.3908 12.3772 19.618 12.3356 20.8416C12.2672 21.5937 11.5224 22.0716 10.8131 22.0461C9.93338 22.0554 8.19013 21.4085 8.19013 21.4085C8.18575 19.1132 8.21565 16.2387 8.22808 13.951V13.9508Z" fill="white"/>
<path d="M16.4411 17.913C16.3076 17.9413 16.4143 17.4584 16.3801 17.2752C16.3892 16.117 16.3611 14.9575 16.3956 13.8001C16.5097 12.3309 17.8737 11.1214 19.3384 11.1557H23.6519C23.6479 16.1328 23.6598 21.1104 23.6458 26.0872C23.5889 27.5567 22.2772 28.8162 20.8156 28.8422C19.3372 28.8478 17.8586 28.8431 16.3801 28.8445V22.0376C17.3898 22.8661 18.7622 22.995 20.0202 22.9973C20.9686 22.997 21.9114 22.8507 22.8324 22.632V21.385C21.7945 21.9023 20.5744 22.2308 19.4239 21.9336C18.6213 21.7339 18.0387 20.9582 18.0516 20.1299C17.9587 19.2686 18.4636 18.3592 19.31 18.1031C20.3609 17.7741 21.5063 18.0258 22.4914 18.4535C22.7025 18.564 22.9167 18.7011 22.8323 18.3483V17.3681C21.1848 16.9761 19.4314 16.8319 17.7762 17.2583C17.2971 17.3935 16.8303 17.5985 16.4411 17.9131V17.913Z" fill="white"/>
</svg>
