<svg width="40" height="40" viewBox="0 0 40 40" fill="none" xmlns="http://www.w3.org/2000/svg">
<rect width="40" height="40" rx="4" fill="#001920"/>
<path d="M6.125 20C6.125 27.663 12.337 33.875 20 33.875C27.663 33.875 33.875 27.663 33.875 20C33.875 12.337 27.663 6.125 20 6.125C12.337 6.125 6.125 12.337 6.125 20Z" fill="#001920"/>
<path d="M20.8978 27.9577C21.4283 23.5503 23.8768 21.0202 28.1618 20.1632C28.1618 19.6327 28.1618 19.1022 28.1618 18.5308C25.754 18.1636 23.3871 18.3676 20.9794 18.8981C20.9794 16.5312 20.9794 14.2867 20.9794 12.0422C20.2857 12.0422 19.6735 12.0422 19.1022 12.0422C18.5717 16.4088 16.164 18.9797 11.879 19.8367C11.879 20.3672 11.879 20.8977 11.879 21.4691C14.2868 21.8364 16.6537 21.6323 19.0614 21.1018C19.0614 23.4687 19.0614 25.7132 19.0614 27.9577C19.7143 27.9577 20.2857 27.9577 20.8978 27.9577Z" fill="#80DAFF"/>
</svg>
