<svg width="40" height="40" viewBox="0 0 40 40" fill="none" xmlns="http://www.w3.org/2000/svg">
<rect x="0.5" y="0.5" width="39" height="39" rx="3.5" fill="white"/>
<rect x="0.5" y="0.5" width="39" height="39" rx="3.5" stroke="#DBD9D7"/>
<g clip-path="url(#clip0_13202_9697)">
<path d="M35.3854 17.7405H24.3697V22.2502H35.3854V17.7405ZM35.2657 17.8542V22.1339H24.4866V17.8542H35.2657Z" fill="#03426A"/>
<path d="M4.6165 22.2502H23.8934V17.7405H4.6165V22.2502Z" fill="#03426A"/>
<path d="M35.2657 17.8542V22.1339H24.4866V17.8542H35.2657Z" fill="white"/>
<path d="M11.2733 20.2997C11.2733 20.7434 11.0282 20.9625 10.4795 20.9625H9.61607V19.3015H10.4516C11.1145 19.3015 11.2733 19.6153 11.2733 19.9589V20.2997ZM11.627 20.2862V20.0021C11.627 19.0959 10.8917 19.0607 10.3987 19.0607H9.25955V21.2087H10.4962C11.4683 21.2087 11.627 20.6974 11.627 20.2862Z" fill="white"/>
<path d="M13.5545 20.6785C13.5545 20.8029 13.5433 20.9165 13.3957 20.9679C13.3093 21.0004 13.1868 21.0112 12.9807 21.0112C12.7746 21.0112 12.652 20.9923 12.5796 20.9463C12.5295 20.9165 12.51 20.8678 12.51 20.765C12.51 20.6352 12.5434 20.5621 12.6075 20.5324C12.6715 20.5026 12.7523 20.4972 13.003 20.4972H13.5545V20.6785ZM13.8887 21.2087V20.3647C13.8887 20.205 13.8887 20.0941 13.8748 20.013C13.858 19.9291 13.8302 19.8696 13.7606 19.8182C13.599 19.6965 13.2035 19.6938 13.0085 19.6938C12.8609 19.6938 12.4598 19.71 12.3122 19.8317C12.2621 19.8723 12.2509 19.921 12.2509 19.9805C12.2509 20.0184 12.2565 20.0698 12.2593 20.1374H12.5852C12.5907 20.0995 12.5991 20.0076 12.6353 19.9697C12.6799 19.9291 12.7551 19.9129 12.9779 19.9129C13.2341 19.9129 13.4124 19.921 13.4876 19.9616C13.5572 19.9994 13.5545 20.0806 13.5545 20.1428V20.2889H12.8024C12.5991 20.2889 12.3651 20.2943 12.237 20.4647C12.1785 20.5378 12.1535 20.6325 12.1535 20.7542C12.1535 21.1113 12.3791 21.2303 12.9584 21.2303C13.2592 21.2303 13.457 21.1843 13.5767 21.0842L13.6074 21.2087H13.8887Z" fill="white"/>
<path d="M15.9052 21.2087V20.3863C15.9052 20.1022 15.8913 20.0427 15.8217 19.9913C15.7548 19.9426 15.6211 19.9129 15.4178 19.9129C15.2395 19.9129 15.0557 19.9345 14.883 19.9805V21.2087H14.5516V19.7046H14.8496L14.8719 19.8128C14.9387 19.7776 14.9889 19.7505 15.0585 19.7316C15.1699 19.6991 15.3092 19.6829 15.4958 19.6829C15.7075 19.6829 15.8718 19.7154 15.9971 19.7695C16.1197 19.8209 16.1865 19.9183 16.2116 20.0319C16.2283 20.1104 16.2367 20.178 16.2367 20.3484V21.2087H15.9052Z" fill="white"/>
<path d="M18.3646 21.1167C18.2114 21.1925 17.9608 21.2249 17.6349 21.2249C17.4093 21.2249 17.2227 21.2087 17.0778 21.1708C16.9218 21.1357 16.8439 21.0653 16.8355 20.9355C16.8299 20.8678 16.8355 20.8083 16.8439 20.7272H17.1642C17.1753 20.8029 17.1753 20.8273 17.1781 20.8435C17.1892 20.9138 17.1837 20.9517 17.27 20.9788C17.3536 21.0031 17.4873 21.0139 17.6572 21.0139C17.8688 21.0139 18.0165 20.9923 18.1139 20.949C18.1836 20.9192 18.217 20.8651 18.217 20.7623C18.217 20.6433 18.1919 20.5946 18.0638 20.5757C18.0248 20.5676 17.9858 20.5676 17.944 20.5648C17.9218 20.5621 17.8493 20.5621 17.7324 20.5594C17.6767 20.5594 17.6126 20.554 17.5374 20.5513C17.2059 20.5351 16.855 20.5216 16.855 20.1455C16.855 19.8047 17.0695 19.6856 17.6599 19.6856C17.8103 19.6856 17.9942 19.6965 18.1056 19.71C18.2337 19.7262 18.3312 19.7479 18.4008 19.7857C18.4788 19.829 18.5039 19.8967 18.5039 20.0157C18.5039 20.0481 18.5039 20.0806 18.4983 20.132H18.1752L18.1613 20.0644C18.1446 19.9832 18.139 19.967 18.1112 19.9481C18.0638 19.9129 17.9218 19.8967 17.7212 19.8967C17.5207 19.8967 17.4065 19.9048 17.3146 19.9372C17.2282 19.967 17.1892 20.0211 17.1892 20.1293C17.1892 20.2023 17.2171 20.2564 17.2533 20.2808C17.3396 20.3322 17.7964 20.3268 17.9524 20.3295C18.1195 20.3322 18.2281 20.3457 18.3228 20.3782C18.4927 20.435 18.5596 20.5432 18.5596 20.7623C18.5596 20.9382 18.5011 21.0491 18.3646 21.1167Z" fill="white"/>
<path d="M20.409 21.2087L19.6096 20.4972H19.4926V21.2087H19.1584V19.0607H19.4926V20.2835H19.6096L20.2725 19.7046H20.6625L19.8909 20.3674L20.8519 21.2087H20.409Z" fill="white"/>
<path d="M22.5007 20.3105H21.434C21.4451 20.1212 21.4869 20.0373 21.5621 19.9832C21.6401 19.9291 21.7821 19.902 21.991 19.902C22.2807 19.902 22.4172 19.9643 22.4673 20.0941C22.4868 20.1482 22.5007 20.1996 22.5007 20.3105ZM22.8071 20.738H22.4785C22.4673 20.784 22.4617 20.9003 22.4172 20.9436C22.3671 20.9923 22.2668 21.0139 21.9994 21.0139C21.7348 21.0139 21.59 20.9787 21.5148 20.9057C21.4591 20.8516 21.4256 20.738 21.4256 20.5621V20.5216H22.8155C22.8183 20.4485 22.8238 20.4296 22.8238 20.3701C22.8238 20.1212 22.7876 19.9832 22.6762 19.8777C22.5509 19.7506 22.3086 19.6883 21.9743 19.6883C21.5482 19.6883 21.2864 19.783 21.1777 19.9913C21.1137 20.1104 21.0775 20.2781 21.0775 20.4864C21.0775 20.8137 21.1666 21.0193 21.3644 21.1221C21.4869 21.187 21.6986 21.2249 21.9688 21.2276C22.1944 21.2276 22.3754 21.2168 22.5732 21.16C22.7653 21.1005 22.8127 20.995 22.8127 20.9057C22.8127 20.8841 22.8127 20.811 22.8071 20.738Z" fill="white"/>
<path d="M27.1967 19.6018C27.1967 19.9183 27.0129 19.9832 26.6341 19.9832H25.7957V19.3015H26.6759C27.0129 19.3015 27.1967 19.3312 27.1967 19.6018ZM27.634 20.6027C27.634 20.3376 27.478 20.1428 27.1048 20.086V20.0806C27.3945 20.0076 27.5504 19.8615 27.5504 19.6315C27.5504 19.2528 27.361 19.0607 26.8235 19.0607H25.4392V21.2087H26.8792C27.3638 21.2087 27.634 20.995 27.634 20.6027ZM27.2775 20.6271C27.2775 20.9327 27.0547 20.9625 26.7093 20.9625H25.7957V20.2267H26.7538C27.1633 20.2267 27.2775 20.3538 27.2775 20.6271Z" fill="#03426A"/>
<path d="M29.4416 20.6785C29.4416 20.8029 29.4333 20.9165 29.2857 20.9679C29.1993 21.0004 29.0768 21.0112 28.8707 21.0112C28.6646 21.0112 28.542 20.9923 28.4696 20.9463C28.4195 20.9165 28.4 20.8678 28.4 20.765C28.4 20.6352 28.4334 20.5621 28.5002 20.5324C28.5615 20.5026 28.6423 20.4972 28.8957 20.4972H29.4416V20.6785ZM29.7787 21.2087V20.3647C29.7787 20.205 29.7787 20.0941 29.7647 20.013C29.748 19.9291 29.7202 19.8696 29.6505 19.8182C29.489 19.6965 29.0935 19.6938 28.8985 19.6938C28.7509 19.6938 28.3498 19.71 28.2022 19.8317C28.1521 19.8723 28.1409 19.921 28.1409 19.9805C28.1409 20.0184 28.1465 20.0698 28.1493 20.1374H28.4752C28.4835 20.0995 28.4891 20.0076 28.5253 19.9697C28.5699 19.9291 28.6451 19.9129 28.8679 19.9129C29.1241 19.9129 29.3024 19.921 29.3776 19.9616C29.4472 19.9994 29.4416 20.0806 29.4416 20.1428V20.2889H28.6924C28.4891 20.2889 28.2551 20.2943 28.127 20.4647C28.0713 20.5378 28.0434 20.6325 28.0434 20.7542C28.0434 21.1113 28.269 21.2303 28.8484 21.2303C29.152 21.2303 29.3469 21.1843 29.4667 21.0842L29.4974 21.2087H29.7787Z" fill="#03426A"/>
<path d="M31.7116 21.2087V20.3863C31.7116 20.1022 31.6977 20.0427 31.6281 19.9913C31.5612 19.9426 31.4276 19.9129 31.2242 19.9129C31.046 19.9129 30.8621 19.9345 30.6895 19.9805V21.2087H30.358V19.7046H30.656L30.6811 19.8128C30.7452 19.7776 30.7953 19.7505 30.8677 19.7316C30.9763 19.6991 31.1156 19.6829 31.3022 19.6829C31.5139 19.6829 31.6782 19.7154 31.8036 19.7695C31.9261 19.8209 31.993 19.9183 32.0208 20.0319C32.0375 20.1104 32.0431 20.178 32.0431 20.3484V21.2087H31.7116Z" fill="#03426A"/>
<path d="M33.873 21.2087L33.0736 20.4972H32.9539V21.2087H32.6224V19.0607H32.9539V20.2835H33.0736L33.7365 19.7046H34.1237L33.3522 20.3674L34.3131 21.2087H33.873Z" fill="#03426A"/>
</g>
<defs>
<clipPath id="clip0_13202_9697">
<rect width="32" height="4.92308" fill="white" transform="translate(4 17.54)"/>
</clipPath>
</defs>
</svg>
