<svg width="40" height="40" viewBox="0 0 40 40" fill="none" xmlns="http://www.w3.org/2000/svg">
<rect width="40" height="40" rx="4" fill="#F36805"/>
<rect x="0.5" y="0.5" width="39" height="39" rx="3.5" stroke="white" stroke-opacity="0.01"/>
<path d="M16.3085 23.6914V28.8594H11.8789V17.2979C10.7641 18.3093 10.0036 19.0329 9.98147 19.055L8.96265 17.9919C9.20628 17.7852 15.0609 12.1373 18.7523 9.98152C19.0816 9.79873 19.447 9.69036 19.8228 9.66406H20H20.1033C20.497 9.67196 20.8835 9.77049 21.2329 9.95199C24.9243 12.1225 30.8305 17.7409 31.0373 17.9771L30.0184 19.0402C30.0184 19.0402 29.2359 18.302 28.121 17.2831V20.7383H19.2617C18.4785 20.7383 17.7273 21.0494 17.1735 21.6032C16.6197 22.1571 16.3085 22.9082 16.3085 23.6914V23.6914ZM17.7851 25.9062H30.3359V28.8594C30.3359 29.251 30.1803 29.6266 29.9034 29.9035C29.6265 30.1804 29.2509 30.3359 28.8593 30.3359H19.2617C18.8701 30.3359 18.4945 30.1804 18.2176 29.9035C17.9407 29.6266 17.7851 29.251 17.7851 28.8594V25.9062ZM20 28.8594H22.2148V27.3828H20V28.8594ZM28.8593 22.2148H19.2617C18.8701 22.2148 18.4945 22.3704 18.2176 22.6473C17.9407 22.9242 17.7851 23.2998 17.7851 23.6914V24.4297H30.3359V23.6914C30.3359 23.2998 30.1803 22.9242 29.9034 22.6473C29.6265 22.3704 29.2509 22.2148 28.8593 22.2148Z" fill="white"/>
</svg>
