<svg width="40" height="40" viewBox="0 0 40 40" fill="none" xmlns="http://www.w3.org/2000/svg">
<rect width="40" height="40" rx="4" fill="#117ACA"/>
<path d="M17.0138 9.5C16.6041 9.5 16.2722 9.8319 16.2722 10.2412V15.4394H30.0033L23.7502 9.50048L17.0138 9.5Z" fill="white"/>
<path d="M30.5057 17.0119C30.5057 16.6017 30.1762 16.2713 29.7641 16.2713H24.5673V30.0029L30.5033 23.7469L30.5057 17.0119Z" fill="white"/>
<path d="M22.9928 30.5C23.4016 30.5 23.7335 30.1676 23.7335 29.7574V24.5611H10.0019L16.256 30.499L22.9928 30.5Z" fill="white"/>
<path d="M9.5 22.989C9.5 23.3988 9.8319 23.7326 10.2426 23.7326H15.4384V10L9.50096 16.2541L9.5 22.989Z" fill="white"/>
</svg>
