<svg width="40" height="40" viewBox="0 0 40 40" fill="none" xmlns="http://www.w3.org/2000/svg">
<rect x="0.5" y="0.5" width="39" height="39" rx="3.5" fill="white"/>
<rect x="0.5" y="0.5" width="39" height="39" rx="3.5" stroke="#DBD9D7"/>
<path d="M20.4933 16.5771H17.7983V23.2785H19.218V21.0527H20.4933C21.8889 21.0527 22.8755 20.1143 22.8755 18.8149C22.8755 17.5155 21.9009 16.5771 20.4933 16.5771ZM20.3609 19.8376H19.218V17.7923H20.3609C20.9866 17.7923 21.4197 18.1893 21.4197 18.8149C21.4197 19.4405 20.9866 19.8376 20.3609 19.8376Z" fill="#242E30"/>
<path d="M13.9363 17.684C13.9363 17.684 13.9002 17.6359 13.9002 17.5998C13.8159 16.6012 13.6716 15.6146 13.6716 15.6146C13.6475 15.5063 13.5513 15.4221 13.4309 15.398L12.6128 15.3018C12.5166 15.3018 12.4444 15.374 12.4444 15.4702V16.4568C12.4444 16.4568 11.3616 15.2055 10.8081 14.8687C10.6998 14.7965 10.5555 14.7484 10.4111 14.7484C10.2667 14.7484 10.1344 14.7844 10.0141 14.8687C7.25891 16.5651 5.74297 19.3443 5.68281 19.4887C5.67078 19.5248 5.65875 19.5609 5.65875 19.609C5.65875 19.7413 5.74297 19.8496 5.86328 19.8737L6.65735 20.0301C6.76563 20.0541 6.83781 20.1504 6.84985 20.2587C6.84985 20.403 7.00625 23.5312 7.19875 24.3373C7.22281 24.4576 7.34313 24.5418 7.46344 24.5418L13.3347 24.5177C13.467 24.5177 13.5633 24.4335 13.5994 24.3132C13.7919 23.4951 13.9363 20.3669 13.9483 20.2346C13.9603 20.1263 14.0445 20.0301 14.1408 20.006L14.9348 19.8496C15.0552 19.8255 15.1394 19.7052 15.1394 19.5849C15.1394 19.5609 15.1394 19.5248 15.1153 19.4887C15.0913 19.4044 14.6702 18.6465 13.9002 17.684H13.9363Z" fill="#242E30"/>
<path d="M25.9194 18.069C24.9088 18.069 24.1869 18.4299 23.8019 18.8991L24.62 19.6932C24.8486 19.4405 25.2817 19.2601 25.7991 19.2601C26.4247 19.2601 26.8819 19.5488 26.8819 20.1744V20.2587L25.5584 20.3188C24.1748 20.391 23.4891 20.9444 23.4891 21.8588C23.4891 22.8334 24.2831 23.3988 25.39 23.3988C26.0878 23.3988 26.6413 23.1462 26.942 22.7251H26.9661V23.2665H28.2173V20.0782C28.2173 18.9112 27.4233 18.0449 25.9314 18.0449L25.9194 18.069ZM26.8819 21.4016C26.8819 22.0152 26.3405 22.4363 25.6306 22.4363C25.1734 22.4363 24.8125 22.2438 24.8125 21.8468C24.8125 21.4859 25.1373 21.2813 25.7028 21.2452L26.8819 21.173V21.4016Z" fill="#242E30"/>
<path d="M31.6342 21.6663H31.6102L30.2987 18.1893H28.8309L30.8762 23.3026C30.6236 23.856 30.4311 24.0605 29.8777 24.0605C29.7092 24.0605 29.5408 24.0365 29.4325 24.0124V25.1915C29.5889 25.2276 29.8175 25.2516 29.998 25.2516C31.2853 25.2516 31.7666 24.5659 32.2959 23.2665L34.3413 18.1773H32.9216L31.6102 21.6543L31.6342 21.6663Z" fill="#242E30"/>
</svg>
