<svg width="40" height="40" viewBox="0 0 40 40" fill="none" xmlns="http://www.w3.org/2000/svg">
<path d="M36 0H4C1.79086 0 0 1.79086 0 4V36C0 38.2091 1.79086 40 4 40H36C38.2091 40 40 38.2091 40 36V4C40 1.79086 38.2091 0 36 0Z" fill="white"/>
<path d="M36 0H4C1.79086 0 0 1.79086 0 4V36C0 38.2091 1.79086 40 4 40H36C38.2091 40 40 38.2091 40 36V4C40 1.79086 38.2091 0 36 0Z" fill="#02296A"/>
<path d="M36 0.5H4C2.067 0.5 0.5 2.067 0.5 4V36C0.5 37.933 2.067 39.5 4 39.5H36C37.933 39.5 39.5 37.933 39.5 36V4C39.5 2.067 37.933 0.5 36 0.5Z" stroke="white" stroke-opacity="0.01"/>
<path d="M23.4224 24.9744H22.073V20.5938H23.5007C24.3611 20.5938 24.9283 21.024 24.9283 21.7281C24.9283 22.1583 24.6741 22.5494 24.2634 22.6863C24.7523 22.7645 25.0847 23.1947 25.0847 23.6836C25.0652 24.4464 24.4785 24.9744 23.4224 24.9744ZM23.442 21.1999H22.8553V22.4125H23.3833C23.7744 22.4125 24.0874 22.1778 24.0874 21.7866C24.0874 21.3955 23.8527 21.1999 23.442 21.1999ZM23.442 23.0383H22.8553V24.3486H23.4811C23.9113 24.3486 24.2438 24.153 24.2438 23.6836C24.2243 23.2534 23.9113 23.0383 23.442 23.0383ZM28.1356 24.0749V22.7645C28.1356 22.0018 27.7445 21.6497 26.8449 21.6497C26.4537 21.6497 26.0821 21.7281 25.7106 21.865L25.691 21.8844L25.7692 22.5494L25.8279 22.5299C26.1017 22.3539 26.4342 22.2757 26.7666 22.2757C27.2164 22.2757 27.3924 22.432 27.3924 22.8427V22.9993C26.219 22.9993 25.515 23.4491 25.515 24.1922C25.515 24.7202 25.867 25.0331 26.4342 25.0331C26.8449 25.0526 27.2164 24.857 27.4511 24.505C27.4316 24.6419 27.4316 24.7985 27.4316 24.9354V24.9939H28.1747V24.9548C28.1356 24.7006 28.1356 24.3682 28.1356 24.0749ZM26.6297 24.4464C26.4342 24.4659 26.2581 24.329 26.2386 24.1334C26.2386 24.1139 26.2386 24.1139 26.2386 24.0943C26.2386 23.7423 26.6297 23.5663 27.3924 23.5467V23.5663C27.3729 23.9966 27.0991 24.4464 26.6297 24.4464ZM30.5606 21.6693C30.1304 21.6497 29.7197 21.8649 29.5046 22.2169C29.5241 22.0604 29.5241 21.904 29.5241 21.7671V21.7281H28.8005V24.9939H29.5632V23.4294C29.5632 22.784 29.8957 22.3147 30.3455 22.3147C30.6584 22.3147 30.7953 22.4907 30.7953 22.9014V24.9939H31.5385V22.7255C31.5385 22.041 31.206 21.6693 30.5606 21.6693ZM33.6897 23.2339C33.7093 23.2144 34.0026 22.8427 34.296 22.4711C34.472 22.256 34.6675 22.0213 34.8827 21.7475H33.9831C33.8266 21.9627 33.6701 22.1582 33.5332 22.3342C33.2986 22.6471 33.0639 22.96 33.0052 23.0383V20.5938H32.2425V24.9939H33.0052V23.4685C33.0639 23.5467 33.3181 23.9379 33.5724 24.3095C33.7288 24.5246 33.8657 24.7593 34.0417 25.0135H35C34.7653 24.7006 34.5502 24.4072 34.3546 24.153C34.0417 23.7032 33.7093 23.2535 33.6897 23.2339Z" fill="white"/>
<path d="M19.6871 16.4085C19.5306 16.4672 19.3937 16.5846 19.296 16.7019C19.2568 16.7606 19.2177 16.8192 19.1786 16.8975C19.1199 17.0344 19.0026 17.1321 18.8657 17.1321H18.1617C17.9661 17.1321 17.8096 16.9757 17.8096 16.7801C17.8096 16.5846 17.9465 16.4281 18.1421 16.4281H18.7288L17.927 15.6263C17.7901 15.4894 17.7901 15.2743 17.927 15.1374C18.0639 15.0005 18.279 15.0005 18.4159 15.1374L19.2177 15.9392V15.372C19.2177 15.1765 19.3742 15.02 19.5502 15.02C19.5502 15.02 19.5502 15.02 19.5698 15.02C19.7653 15.02 19.9218 15.1765 19.9218 15.372V16.0761C19.9218 16.2325 19.824 16.3499 19.6871 16.4085Z" fill="white"/>
<path d="M19.5698 19.3616C19.3937 19.3812 19.2373 19.2443 19.2373 19.0683C19.2373 19.0487 19.2373 19.0291 19.2373 19.0291V18.462L18.4355 19.2638C18.2986 19.4007 18.0639 19.4007 17.927 19.2638C17.7901 19.1269 17.7901 18.9118 17.927 18.7554L18.7288 17.9535H18.1812C17.9857 17.9535 17.8292 17.7971 17.8292 17.6015C17.8292 17.4059 17.9857 17.2495 18.1812 17.2495H18.8853C19.0222 17.2495 19.1591 17.3277 19.2177 17.4646C19.296 17.6797 19.472 17.8753 19.7066 17.9535C19.8631 17.9926 19.9413 18.1295 19.9413 18.286V18.99C19.9218 19.2052 19.7653 19.3616 19.5698 19.3616Z" fill="white"/>
<path d="M21.8188 17.9731L21.2516 17.9535L22.0535 18.7554C22.1904 18.8922 22.1904 19.1074 22.0535 19.2638C21.9166 19.4007 21.7014 19.4007 21.5645 19.2638L20.7627 18.462V19.0096C20.7627 19.2052 20.6063 19.3616 20.4302 19.3616H20.4107C20.2151 19.3616 20.0587 19.2052 20.0587 19.0096V18.3251C20.0587 18.1687 20.1565 18.0513 20.2934 17.9926C20.4498 17.934 20.5867 17.8362 20.6845 17.6993C20.7236 17.6406 20.7627 17.5819 20.8018 17.5037C20.8605 17.3668 20.9778 17.2886 21.1343 17.269H21.8188C22.0143 17.269 22.1708 17.4255 22.1708 17.6211C22.1708 17.8166 22.0143 17.9731 21.8383 17.9731C21.8383 17.9731 21.8383 17.9731 21.8188 17.9731Z" fill="white"/>
<path d="M21.8188 17.1321H21.1147C20.9778 17.1321 20.8409 17.0539 20.7823 16.917C20.7236 16.7606 20.6258 16.6237 20.4889 16.5259C20.4302 16.4868 20.3716 16.4477 20.2934 16.4085C20.1565 16.3499 20.0587 16.2325 20.0587 16.0761V15.372C20.0587 15.1765 20.2151 15.02 20.3911 15.02C20.5867 15.02 20.7432 15.1569 20.7432 15.3525C20.7432 15.3525 20.7432 15.3525 20.7432 15.372V15.9392L21.545 15.1374C21.6819 15.0005 21.897 15.0005 22.0339 15.1374C22.1708 15.2743 22.1708 15.4894 22.0339 15.6458L21.2321 16.4477H21.8188C22.0143 16.4477 22.1708 16.6041 22.1708 16.7997C22.1708 16.9561 22.0143 17.1321 21.8188 17.1321Z" fill="white"/>
<path d="M7.71838 20.5938V23.1556C7.71838 23.3121 7.71838 23.4685 7.69883 23.625C7.64016 24.1726 7.36636 24.4072 6.74055 24.4072C6.1734 24.4072 5.89961 24.1921 5.82138 23.7619C5.78227 23.5859 5.76271 23.4099 5.76271 23.2339V20.5938H5V23.2925C5 23.5076 5.01956 23.7229 5.05867 23.938C5.21512 24.6616 5.74316 25.0527 6.68188 25.0527C7.71838 25.0527 8.30509 24.6225 8.44198 23.8011C8.46154 23.586 8.4811 23.3903 8.4811 23.1752V20.5938H7.71838Z" fill="white"/>
<path d="M9.94785 20.5938H9.18514V24.9939H9.94785V20.5938Z" fill="white"/>
<path d="M11.8449 23.0578C11.5124 22.9209 11.3168 22.8231 11.3168 22.5885C11.3168 22.3147 11.5711 22.2365 11.8644 22.2365C12.0795 22.2365 12.2947 22.2756 12.4902 22.3342V21.6889C12.2751 21.6497 12.0404 21.6302 11.8253 21.6302C11.043 21.6302 10.5346 22.0018 10.5346 22.608C10.5346 23.1947 10.9061 23.3903 11.395 23.5859C11.7275 23.7228 11.9426 23.801 11.9426 24.0357C11.9426 24.2703 11.7666 24.3877 11.395 24.3877C11.1408 24.3877 10.867 24.3486 10.6323 24.2508L10.5541 24.9158C10.8083 24.9745 11.0821 25.0135 11.3364 25.0135C12.1773 25.0135 12.7249 24.6419 12.7249 23.977C12.7053 23.3903 12.2751 23.2338 11.8449 23.0578Z" fill="white"/>
<path d="M14.2308 20.5741L13.4876 20.7892V21.728H12.8814V22.3538H13.4876V24.0161C13.4876 24.7593 13.7419 25.0331 14.4068 25.0331C14.6219 25.0331 14.837 25.0135 15.0522 24.9548H15.0717V24.3095C14.9153 24.3486 14.7784 24.3681 14.6219 24.3681C14.3481 24.3681 14.2503 24.2899 14.2503 23.801V22.3342H15.0913V21.7084H14.2503V20.5741H14.2308Z" fill="white"/>
<path d="M18.2008 23.4294L18.2203 23.0774C18.2203 22.1778 17.7314 21.6693 16.8905 21.6693C15.9909 21.6693 15.4042 22.3342 15.4042 23.3707C15.4042 24.4855 15.9322 25.0331 16.9687 25.0331C17.3598 25.0331 17.7314 24.9744 18.103 24.8179L18.0443 24.2117L17.9857 24.2312C17.6923 24.3681 17.399 24.4268 17.0665 24.4268C16.8123 24.4464 16.5776 24.3681 16.382 24.1921C16.206 23.977 16.1278 23.7228 16.1473 23.449V23.4294H18.2008ZM16.8514 22.2364C17.0078 22.2364 17.1643 22.2951 17.2816 22.4125C17.399 22.5298 17.4576 22.7058 17.4576 22.8818H16.1864C16.2647 22.4907 16.4993 22.2364 16.8514 22.2364Z" fill="white"/>
<path d="M19.5111 22.2364C19.5306 22.08 19.5502 21.9235 19.5502 21.7671V21.728H18.8266V24.9939H19.5893V23.6641C19.5893 23.0774 19.7067 22.7058 19.9218 22.5298C20.0391 22.432 20.176 22.3929 20.3129 22.3929C20.3911 22.3929 20.4694 22.4125 20.5476 22.4125L20.5671 21.6497C20.5085 21.6497 20.4694 21.6497 20.4107 21.6497C20 21.6693 19.648 21.904 19.5111 22.2364Z" fill="white"/>
</svg>
