<svg width="40" height="40" viewBox="0 0 40 40" fill="none" xmlns="http://www.w3.org/2000/svg">
<rect width="40" height="40" rx="4" fill="#9EC602"/>
<rect x="0.5" y="0.5" width="39" height="39" rx="3.5" stroke="white" stroke-opacity="0.01"/>
<path d="M8.60867 17.92C8.60867 17.92 8.64117 17.8875 8.65742 17.855C8.77117 17.4325 9.06367 17.205 9.48617 17.1887C10.2824 17.1562 11.0949 17.1075 11.8912 17.2212C12.8174 17.3675 13.2724 17.855 13.4024 18.7975C13.4512 19.1712 13.4512 19.545 13.3699 19.9187C13.1912 20.7637 12.6224 21.2512 11.7124 21.3325C11.0462 21.3975 10.3799 21.3487 9.69742 21.365C9.55117 21.365 9.50242 21.3975 9.50242 21.56C9.50242 22.1125 9.50242 22.665 9.50242 23.2175C9.50242 23.3962 9.53492 23.6075 9.32367 23.6887C9.07992 23.7862 8.77117 23.7212 8.60867 23.5425V17.92ZM9.51867 19.3825C9.51867 19.7237 9.51867 20.065 9.51867 20.4062C9.51867 20.5037 9.53492 20.5525 9.64867 20.5525C10.2987 20.5525 10.9324 20.5687 11.5824 20.52C12.1837 20.4712 12.4924 20.1462 12.5249 19.545C12.5249 19.3825 12.5249 19.22 12.5249 19.0575C12.4924 18.4075 12.1674 18.0662 11.5174 18.05C10.9812 18.0337 10.4449 18.05 9.90867 18.05C9.63242 18.05 9.53492 18.1475 9.53492 18.44C9.53492 18.765 9.53492 19.09 9.53492 19.3987L9.51867 19.3825Z" fill="white"/>
<path d="M29.9287 14.3287C30.0749 14.605 29.9937 14.8975 29.9774 15.19C29.9774 15.2712 29.8799 15.2875 29.8149 15.2875C29.6199 15.2875 29.4249 15.2875 29.2299 15.2875C29.1487 15.2875 29.0674 15.2875 29.0674 15.19C29.0674 14.8975 28.9862 14.605 29.1162 14.3287H29.9449H29.9287Z" fill="white"/>
<path d="M29.0187 18.6187C29.0187 19.3662 29.0187 20.13 29.0187 20.8775C29.0187 21.235 29.0349 21.5925 28.9537 21.9337C28.7749 22.7625 28.2549 23.2987 27.4749 23.575C26.5162 23.9 25.5412 23.9 24.5824 23.6075C23.5424 23.2987 22.9737 22.535 22.9574 21.4137C22.9249 20.2112 22.9574 19.0087 22.9574 17.79C22.9574 17.3837 23.1037 17.2375 23.4937 17.1887C23.7862 17.1562 24.0949 17.1562 24.4037 17.205C24.6637 17.2537 24.7612 17.3512 24.8099 17.6112C24.8262 17.7087 24.8262 17.8062 24.8262 17.9037C24.8262 19.0087 24.8262 20.0975 24.8262 21.2025C24.8262 21.8525 25.0699 22.0962 25.7037 22.1775C25.9149 22.1937 26.1099 22.1937 26.3049 22.1775C26.8574 22.1125 27.1337 21.8362 27.1337 21.2837C27.1337 20.6175 27.1337 19.9675 27.1337 19.3012C27.1337 18.83 27.1337 18.3425 27.1337 17.8712C27.1337 17.3675 27.2799 17.2212 27.7837 17.1887C27.8812 17.1887 27.9624 17.1887 28.0599 17.1887C28.0599 17.4975 28.0599 17.8062 28.0599 18.0987C28.0599 18.6187 28.0762 18.635 28.5799 18.635C28.7099 18.635 28.8399 18.635 28.9699 18.635L29.0187 18.6187Z" fill="white"/>
<path d="M20.2599 23.7862C20.2599 23.7862 20.1624 23.7862 20.1137 23.7862C19.5124 23.8837 19.1062 23.6562 18.8949 23.0875C18.7162 22.6325 18.6187 22.145 18.4887 21.6737C18.2612 20.8612 18.0499 20.065 17.8224 19.2525C17.8062 19.1712 17.7737 19.09 17.7737 19.0087C17.7737 18.9112 17.8062 18.8462 17.8874 18.7975C18.1962 18.635 18.5862 18.7975 18.6837 19.1225C18.9112 19.935 19.1387 20.7637 19.3499 21.5762C19.4474 21.95 19.5449 22.3237 19.6587 22.6975C19.7399 22.9575 19.8537 23.0225 20.0974 23.0387C20.4062 23.0387 20.5362 22.9412 20.6337 22.5512C20.8449 21.6737 21.0562 20.7962 21.2674 19.9187C21.3324 19.6587 21.3974 19.3825 21.4624 19.1225C21.5437 18.7975 21.9824 18.635 22.2749 18.8137C22.4049 18.895 22.3887 19.025 22.3562 19.155C22.2262 19.7075 22.0799 20.26 21.9499 20.8125C21.6899 21.8525 21.4299 22.8762 21.1699 23.9162C21.0887 24.2575 20.9587 24.5825 20.7637 24.875C20.3737 25.4762 19.7887 25.7362 19.0899 25.6875C18.9924 25.6875 18.9437 25.6387 18.8949 25.5737C18.8624 25.5087 18.8462 25.4437 18.8299 25.3787C18.7487 25.0537 18.7974 24.9887 19.1224 24.9237C19.8212 24.81 20.1299 24.5175 20.2924 23.8187L20.2599 23.7862Z" fill="white"/>
<path d="M17.4487 21.2187C17.4487 21.7062 17.4974 22.1937 17.3999 22.665C17.3024 23.12 17.0424 23.445 16.6037 23.5912C15.8562 23.8675 15.0924 23.9 14.3449 23.64C13.6949 23.4287 13.3699 22.8925 13.3862 22.1937C13.4187 21.4787 13.7437 21.04 14.4424 20.8612C14.7349 20.78 15.0274 20.7475 15.3199 20.7475C15.6774 20.7475 16.0349 20.7475 16.4087 20.7475C16.5549 20.7475 16.6037 20.6987 16.5874 20.5525C16.5874 20.4062 16.5874 20.26 16.5874 20.1137C16.5712 19.7725 16.4087 19.5612 16.0837 19.4637C15.6287 19.3175 15.1574 19.3662 14.7024 19.415C14.5399 19.415 14.3774 19.4637 14.2149 19.4962C14.0199 19.5287 13.9224 19.4475 13.8899 19.2525C13.8574 18.8462 13.9224 18.7487 14.3287 18.6837C15.0112 18.57 15.6937 18.5375 16.3599 18.7325C17.0587 18.9275 17.4162 19.3662 17.4487 20.0975C17.4487 20.4712 17.4487 20.845 17.4487 21.2187ZM16.5874 21.95V21.8362C16.5874 21.4625 16.5874 21.4625 16.2137 21.4625C15.7587 21.4625 15.2874 21.43 14.8487 21.5275C14.4587 21.625 14.2799 21.8525 14.2799 22.2587C14.2799 22.6487 14.4749 22.8762 14.8487 22.9737C15.1412 23.055 15.4499 23.0387 15.7424 23.0062C16.3924 22.925 16.5874 22.6975 16.5874 22.0475C16.5874 22.015 16.5874 21.9825 16.5874 21.95Z" fill="white"/>
<path d="M28.0924 17.1562C28.0924 17.1562 28.0924 17.0425 28.0924 16.9775C28.0924 16.7987 28.1899 16.7012 28.3687 16.7012C28.8074 16.7012 29.2624 16.7012 29.7012 16.7012C29.8962 16.7012 29.9774 16.815 29.9937 17.01C29.9937 17.4487 29.9937 17.8712 29.9937 18.31C29.9937 18.5212 29.8799 18.6187 29.6687 18.6187C29.4574 18.6187 29.2299 18.6187 29.0187 18.6187C29.0187 18.31 29.0187 18.0012 29.0187 17.6762C29.0187 17.3837 28.8724 17.2375 28.5799 17.1887C28.4174 17.1562 28.2549 17.1725 28.0924 17.1562Z" fill="white"/>
<path d="M31.3912 16.0187C31.3912 16.1812 31.3912 16.3275 31.3912 16.49C31.3912 16.6362 31.3262 16.7175 31.1799 16.7175C30.8549 16.7175 30.5462 16.7175 30.2212 16.7175C30.0749 16.7175 29.9937 16.6362 29.9937 16.4737C29.9937 16.165 29.9937 15.84 29.9937 15.5312C29.9937 15.3687 30.0749 15.2875 30.2374 15.2875C30.5462 15.2875 30.8549 15.2875 31.1637 15.2875C31.3099 15.2875 31.3912 15.3525 31.3912 15.515C31.3912 15.6775 31.3912 15.84 31.3912 16.0025V16.0187Z" fill="white"/>
</svg>
