<svg width="40" height="40" viewBox="0 0 40 40" fill="none" xmlns="http://www.w3.org/2000/svg">
<rect width="40" height="40" rx="4" fill="black"/>
<path d="M12.1699 12.0011H18.7589C19.6787 12.0011 20.2508 12.7728 20.0362 13.7228L16.9685 27.2809C16.752 28.2276 15.8311 29 14.9107 29H8.32229C7.4038 29 6.83044 28.2276 7.04501 27.2809L10.114 13.7228C10.3285 12.7728 11.249 12.0011 12.1699 12.0011Z" fill="#E21836"/>
<path d="M18.2103 12H25.7875C26.7071 12 26.2925 12.7717 26.0761 13.7217L23.0089 27.2798C22.7937 28.2265 22.8609 28.9989 21.9393 28.9989H14.3621C13.4405 28.9989 12.8702 28.2265 13.0867 27.2798L16.1537 13.7217C16.3715 12.7717 17.29 12 18.2103 12Z" fill="#00447C"/>
<path d="M25.4871 12H32.0762C32.9973 12 33.5693 12.7717 33.353 13.7217L30.2858 27.2798C30.0693 28.2265 29.1478 28.9989 28.2269 28.9989H21.6408C20.7193 28.9989 20.1477 28.2265 20.3636 27.2798L23.4312 13.7217C23.6458 12.7717 24.5656 12 25.4871 12Z" fill="#007B84"/>
<path d="M13.8904 16.3449C13.2128 16.3521 13.0127 16.3449 12.9488 16.3294C12.9242 16.4496 12.4657 18.6227 12.4657 18.6227C12.3672 19.0619 12.2956 19.3751 12.0523 19.5773C11.9141 19.6948 11.7529 19.7515 11.566 19.7515C11.2655 19.7515 11.0904 19.5979 11.061 19.3066L11.0554 19.2066C11.0554 19.2066 11.1469 18.6182 11.1469 18.6149C11.1469 18.6149 11.6268 16.6363 11.7127 16.3747C11.7172 16.3598 11.7185 16.3521 11.7197 16.3449C10.7856 16.3534 10.62 16.3449 10.6086 16.3294C10.6023 16.3507 10.5792 16.4734 10.5792 16.4734L10.0892 18.7035L10.0471 18.8926L9.96571 19.5113C9.96571 19.6948 10.0007 19.8446 10.0704 19.9712C10.2937 20.3728 10.9305 20.433 11.2907 20.433C11.7548 20.433 12.1902 20.3315 12.4844 20.1461C12.9952 19.8355 13.1288 19.3499 13.248 18.9184L13.3032 18.6971C13.3032 18.6971 13.7975 16.642 13.8815 16.3747C13.8847 16.3598 13.886 16.3521 13.8904 16.3449ZM15.5723 18.0027C15.4531 18.0027 15.2354 18.0325 15.0398 18.1312C14.9688 18.1687 14.9016 18.212 14.8308 18.2552L14.8947 18.0176L14.8597 17.9776C14.4449 18.0641 14.3521 18.0757 13.9689 18.1312L13.9367 18.1532C13.8922 18.5329 13.8527 18.8185 13.6878 19.5649C13.625 19.84 13.5598 20.1178 13.4944 20.3922L13.5121 20.4271C13.9048 20.4058 14.0239 20.4058 14.3652 20.4116L14.3928 20.3806C14.4362 20.152 14.4418 20.0984 14.5379 19.6353C14.583 19.4158 14.6771 18.9334 14.7235 18.7616C14.8088 18.7209 14.893 18.6809 14.9733 18.6809C15.1645 18.6809 15.1413 18.8527 15.1339 18.9211C15.1257 19.036 15.056 19.4113 14.9845 19.7336L14.9368 19.9415C14.9036 20.0951 14.8671 20.2444 14.8339 20.3967L14.8483 20.4271C15.2354 20.4058 15.3534 20.4058 15.6839 20.4116L15.7228 20.3806C15.7825 20.0235 15.8001 19.928 15.9061 19.408L15.9594 19.1691C16.063 18.7016 16.115 18.4645 16.0366 18.2714C15.9537 18.055 15.7549 18.0027 15.5723 18.0027ZM17.4512 18.4923C17.2455 18.5329 17.1143 18.56 16.9839 18.5776C16.8546 18.5989 16.7285 18.6182 16.5297 18.6467L16.514 18.6614L16.4995 18.6731C16.4788 18.8256 16.4643 18.9573 16.4369 19.1122C16.4136 19.2724 16.3778 19.4545 16.3195 19.716C16.2743 19.9162 16.2511 19.986 16.2254 20.0564C16.2003 20.1268 16.1727 20.1953 16.1219 20.3922L16.1338 20.4104L16.1438 20.4271C16.3296 20.418 16.4512 20.4115 16.5761 20.4104C16.7009 20.4058 16.8302 20.4104 17.0303 20.4115L17.0478 20.3968L17.0666 20.3806C17.0955 20.2031 17.0998 20.1553 17.1175 20.0687C17.135 19.9757 17.1652 19.8471 17.2392 19.5036C17.2743 19.3422 17.3133 19.1813 17.3496 19.0167C17.3873 18.8527 17.4268 18.6911 17.4644 18.5298L17.4588 18.5103L17.4512 18.4923ZM17.4556 17.8322C17.2687 17.7187 16.9406 17.7547 16.7197 17.9116C16.4996 18.0654 16.4745 18.2836 16.6608 18.3987C16.8445 18.5091 17.1739 18.4762 17.3928 18.318C17.6125 18.1609 17.64 17.9447 17.4556 17.8322ZM18.5862 20.4627C18.9644 20.4627 19.3521 20.3554 19.6439 20.037C19.8685 19.7787 19.9714 19.3945 20.0071 19.2363C20.1232 18.7119 20.0327 18.467 19.9192 18.3179C19.7467 18.0906 19.4419 18.0177 19.1257 18.0177C18.9355 18.0177 18.4826 18.037 18.1288 18.3728C17.8747 18.615 17.7573 18.9437 17.6865 19.2588C17.615 19.5798 17.5328 20.1578 18.0491 20.3729C18.2085 20.4433 18.4381 20.4627 18.5862 20.4627ZM18.5566 19.2827C18.6439 18.8856 18.7468 18.5523 19.0095 18.5523C19.2154 18.5523 19.2304 18.8003 19.1388 19.1988C19.1225 19.2872 19.0473 19.616 18.9456 19.7561C18.8746 19.8594 18.7906 19.9221 18.6978 19.9221C18.6702 19.9221 18.5059 19.9221 18.5033 19.6709C18.502 19.5469 18.5266 19.4203 18.5566 19.2827ZM20.9525 20.4116L20.9821 20.3807C21.024 20.152 21.0309 20.0983 21.1237 19.6354C21.1701 19.4158 21.2662 18.9334 21.3113 18.7616C21.3968 18.7208 21.4795 18.6808 21.5623 18.6808C21.7523 18.6808 21.7292 18.8526 21.7217 18.921C21.7147 19.0361 21.645 19.4112 21.5723 19.7334L21.5272 19.9414C21.4926 20.0952 21.4551 20.2443 21.4218 20.3967L21.4363 20.4271C21.8246 20.4058 21.9381 20.4058 22.2706 20.4116L22.3107 20.3807C22.369 20.0234 22.3848 19.9279 22.494 19.4081L22.546 19.169C22.6501 18.7015 22.7028 18.4646 22.6257 18.2714C22.5404 18.055 22.3403 18.0028 22.1603 18.0028C22.0409 18.0028 21.822 18.0324 21.6275 18.1313C21.558 18.1688 21.4883 18.2119 21.4199 18.2552L21.4795 18.0177L21.4475 17.9775C21.0328 18.0641 20.9381 18.0757 20.5554 18.1313L20.526 18.1532C20.4795 18.533 20.4418 18.8184 20.2769 19.565C20.2141 19.8401 20.1489 20.1178 20.0837 20.3923L20.1012 20.4271C20.4945 20.4058 20.6119 20.4058 20.9525 20.4116ZM23.8057 20.4271C23.8301 20.3044 23.9764 19.5773 23.9764 19.5773C23.9764 19.5773 24.0999 19.0438 24.1075 19.0244C24.1075 19.0244 24.1464 18.9689 24.1852 18.9469H24.2424C24.7819 18.9469 25.391 18.9469 25.8685 18.5853C26.1934 18.3373 26.4155 17.9711 26.5146 17.5261C26.5403 17.417 26.5593 17.2872 26.5593 17.1574C26.5593 16.9869 26.526 16.8183 26.43 16.6865C26.1865 16.3359 25.7016 16.3294 25.1419 16.3268L24.866 16.3294C24.1496 16.3385 23.8623 16.3359 23.7442 16.321C23.7343 16.3747 23.7155 16.4703 23.7155 16.4703L23.4588 17.6967C23.4588 17.6967 22.8447 20.2999 22.8158 20.4226C23.4413 20.4148 23.6978 20.4148 23.8057 20.4271ZM24.2813 18.252C24.2813 18.252 24.5541 17.0301 24.5528 17.0347L24.5617 16.9721L24.5655 16.9243L24.6746 16.9359C24.6746 16.9359 25.2373 16.9856 25.2505 16.9869C25.4726 17.0754 25.5642 17.3034 25.5002 17.601C25.4419 17.8729 25.2706 18.1016 25.0504 18.212C24.8691 18.3056 24.647 18.3134 24.4181 18.3134H24.27L24.2813 18.252ZM25.9802 19.3054C25.9081 19.6218 25.8252 20.1998 26.339 20.4058C26.5028 20.4775 26.6496 20.4989 26.7988 20.4911C26.9563 20.4823 27.1023 20.401 27.2376 20.2839C27.2253 20.332 27.2131 20.3802 27.2009 20.4284L27.2242 20.4594C27.5938 20.4433 27.7084 20.4433 28.1088 20.4465L28.1451 20.418C28.2036 20.0642 28.2587 19.7207 28.4106 19.0438C28.4846 18.7196 28.5585 18.3986 28.6345 18.0757L28.6226 18.0401C28.2092 18.119 28.0987 18.1358 27.7011 18.1939L27.6709 18.2192C27.6668 18.2521 27.6627 18.2837 27.6588 18.3152C27.597 18.2124 27.5074 18.1246 27.3691 18.0699C27.1923 17.9983 26.7769 18.0905 26.4199 18.4252C26.1691 18.6641 26.0486 18.9914 25.9802 19.3054ZM26.8484 19.3247C26.9369 18.9347 27.0386 18.6047 27.302 18.6047C27.4685 18.6047 27.5562 18.7629 27.5384 19.0327C27.5242 19.1 27.509 19.171 27.4908 19.2511C27.4645 19.367 27.4359 19.4819 27.4081 19.597C27.3798 19.6757 27.3469 19.7499 27.3108 19.7994C27.243 19.8982 27.0818 19.9596 26.9889 19.9596C26.9626 19.9596 26.8001 19.9596 26.7945 19.7129C26.7932 19.5901 26.8177 19.4636 26.8484 19.3247ZM31.3823 18.037L31.3504 17.9994C30.9413 18.0847 30.8673 18.0983 30.4915 18.1505L30.4638 18.179C30.4625 18.1836 30.4614 18.1907 30.4595 18.1972L30.4582 18.1907C30.1784 18.8552 30.1866 18.7118 29.9589 19.2349C29.9576 19.2111 29.9576 19.1962 29.9563 19.1709L29.8993 18.037L29.8635 17.9994C29.435 18.0847 29.4249 18.0983 29.0292 18.1505L28.9983 18.179C28.994 18.1925 28.994 18.2074 28.9914 18.2236L28.994 18.2294C29.0435 18.4896 29.0316 18.4316 29.0812 18.8423C29.1043 19.0438 29.1352 19.2465 29.1583 19.4456C29.1973 19.7787 29.2192 19.9427 29.2669 20.4511C28.9996 20.9051 28.9363 21.0768 28.679 21.4753L28.6808 21.4792L28.4997 21.7742C28.4789 21.8053 28.4601 21.8266 28.4338 21.8357C28.4049 21.8504 28.3673 21.853 28.3151 21.853H28.2147L28.0655 22.3639L28.5774 22.373C28.8779 22.3717 29.0667 22.227 29.1684 22.0326L29.4903 21.4649H29.4851L29.519 21.4248C29.7355 20.9451 31.3823 18.037 31.3823 18.037ZM25.9802 24.7463H25.763L26.5667 22.01H26.8333L26.9179 21.7281L26.9261 22.0416C26.9162 22.2354 27.0642 22.4071 27.4532 22.3787H27.9031L28.0579 21.8518H27.8886C27.7913 21.8518 27.7462 21.8265 27.7518 21.7723L27.7436 21.4534H26.9106V21.455C26.6412 21.4608 25.8369 21.4816 25.6741 21.5263C25.477 21.5785 25.2693 21.7323 25.2693 21.7323L25.3509 21.4501H24.5717L24.4093 22.01L23.5949 24.7882H23.4369L23.2819 25.3113H24.834L24.7819 25.4857H25.5467L25.5975 25.3113H25.812L25.9802 24.7463ZM25.3434 22.566C25.2186 22.6016 24.9864 22.7094 24.9864 22.7094L25.1929 22.01H25.812L25.6627 22.5196C25.6627 22.5196 25.4714 22.5311 25.3434 22.566ZM25.3553 23.5651C25.3553 23.5651 25.1608 23.5902 25.0328 23.62C24.9067 23.6593 24.6703 23.7833 24.6703 23.7833L24.8836 23.0555H25.5059L25.3553 23.5651ZM25.0084 24.7528H24.3873L24.5673 24.1386H25.1865L25.0084 24.7528ZM26.504 23.0555H27.3992L27.2706 23.4844H26.3635L26.2273 23.9533H27.021L26.42 24.8244C26.3779 24.8884 26.3402 24.911 26.2983 24.929C26.2562 24.951 26.2009 24.9768 26.137 24.9768H25.9168L25.7655 25.4903H26.3415C26.6408 25.4903 26.8177 25.3501 26.9482 25.1661L27.3603 24.5855L27.4488 25.175C27.4676 25.2855 27.5447 25.3501 27.5969 25.3752C27.6546 25.405 27.7141 25.4561 27.7983 25.4637C27.8886 25.4677 27.9538 25.4708 27.9971 25.4708H28.2801L28.45 24.8961H28.3384C28.2743 24.8961 28.164 24.8851 28.1452 24.8644C28.1264 24.8393 28.1264 24.8006 28.1163 24.7417L28.0265 24.1508H27.6589L27.8201 23.9533H28.7255L28.8647 23.4844H28.0265L28.1571 23.0555H28.9927L29.1477 22.5267H26.6564L26.504 23.0555ZM18.9431 24.8722L19.152 24.1567H20.0108L20.1677 23.6245H19.3081L19.4394 23.1841H20.2793L20.4349 22.6687H18.3333L18.1809 23.1841H18.6583L18.531 23.6245H18.0522L17.8935 24.1658H18.3709L18.0924 25.1124C18.0548 25.2377 18.11 25.2855 18.1451 25.3437C18.1809 25.4004 18.2172 25.438 18.2987 25.4593C18.3829 25.4786 18.4406 25.4902 18.5189 25.4902H19.4871L19.6595 24.9006L19.2304 24.9613C19.1475 24.9613 18.918 24.9511 18.9431 24.8722ZM19.0416 21.4468L18.824 21.8517C18.7774 21.9402 18.7355 21.9951 18.6977 22.0204C18.6645 22.0417 18.5986 22.0506 18.5032 22.0506H18.3897L18.2379 22.5686H18.615C18.7963 22.5686 18.9356 22.5001 19.0021 22.4659C19.0735 22.4266 19.0923 22.449 19.1476 22.3942L19.2749 22.2806H20.4525L20.6088 21.7413H19.7468L19.8973 21.4468H19.0416ZM20.78 24.8826C20.7599 24.8528 20.7744 24.8004 20.8051 24.6913L21.1269 23.5947H22.2719C22.4387 23.5922 22.5592 23.5902 22.6376 23.5845C22.7217 23.5754 22.8133 23.5444 22.913 23.4889C23.0159 23.4307 23.0686 23.3694 23.1131 23.2989C23.1627 23.2287 23.2424 23.0749 23.3108 22.8378L23.7154 21.4501L22.5272 21.4572C22.5272 21.4572 22.1614 21.5127 22.0003 21.5741C21.8378 21.6425 21.6055 21.8336 21.6055 21.8336L21.7128 21.4532H20.9788L19.9513 24.9613C19.9149 25.0975 19.8904 25.1964 19.8848 25.2557C19.8829 25.3197 19.9632 25.3831 20.0152 25.4308C20.0767 25.4786 20.1676 25.4708 20.2548 25.4786C20.3466 25.4857 20.477 25.4902 20.657 25.4902H21.221L21.3942 24.8884L20.8892 24.9375C20.8353 24.9375 20.7962 24.9077 20.78 24.8826ZM21.3346 22.854H22.5372L22.4607 23.1007C22.45 23.1065 22.4243 23.0885 22.3019 23.1034H21.2605L21.3346 22.854ZM21.5755 22.0267H22.7882L22.701 22.3238C22.701 22.3238 22.1294 22.3181 22.0379 22.3354C21.6351 22.4072 21.3998 22.6287 21.3998 22.6287L21.5755 22.0267ZM22.4877 23.9267C22.4777 23.9636 22.462 23.9861 22.44 24.003C22.4155 24.0192 22.376 24.0249 22.3171 24.0249H22.1457L22.1558 23.7245H21.4431L21.4142 25.1931C21.4131 25.2991 21.423 25.3604 21.4983 25.4096C21.5737 25.4709 21.8057 25.4787 22.1181 25.4787H22.5647L22.726 24.9289L22.3372 24.9509L22.2079 24.9587C22.1902 24.9509 22.1733 24.9438 22.1546 24.9245C22.1382 24.9078 22.1106 24.918 22.1151 24.8121L22.1181 24.4356L22.5259 24.4183C22.7461 24.4183 22.8402 24.3445 22.9205 24.2743C22.9971 24.207 23.0221 24.1296 23.051 24.0249L23.1195 23.6916H22.5591L22.4877 23.9267Z" fill="#FEFEFE"/>
</svg>
