<svg width="40" height="40" viewBox="0 0 40 40" fill="none" xmlns="http://www.w3.org/2000/svg">
<rect width="40" height="40" rx="4" fill="#1677FF"/>
<rect x="0.5" y="0.5" width="39" height="39" rx="3.5" stroke="white" stroke-opacity="0.01"/>
<path d="M11.8796 16.47H7.12156C6.50193 16.47 6 16.9765 6 17.6008V22.3992C6 23.0234 6.50193 23.53 7.12156 23.53H11.8796C12.4992 23.53 13.0005 23.0234 13.0005 22.3992V17.6008C13.0012 16.9759 12.4992 16.47 11.8796 16.47Z" fill="white"/>
<path d="M11.7639 20.9033C11.4841 20.8087 11.1078 20.6639 10.6892 20.5112C10.9405 20.0701 11.1416 19.5681 11.2738 19.0226H9.8937V18.5213H11.584V18.2416H9.8937V17.4057H9.20397C9.08295 17.4057 9.08295 17.5261 9.08295 17.5261V18.2409H7.3735V18.5206H9.08295V19.0219H7.67108V19.3016H10.4089C10.309 19.6495 10.1741 19.9768 10.0147 20.2737C9.1266 19.9781 8.1783 19.7388 7.58313 19.8862C7.20222 19.9808 6.95688 20.1494 6.81272 20.3267C6.15142 21.1381 6.62557 22.3707 8.02223 22.3707C8.84819 22.3707 9.64373 21.9065 10.2601 21.1414C11.1799 21.5871 13.0005 22.3529 13.0005 22.3529V21.2617C13.0011 21.2617 12.7723 21.2432 11.7639 20.9033ZM7.89196 21.8992C6.8028 21.8992 6.48075 21.0342 7.01904 20.5608C7.19892 20.4007 7.52692 20.3227 7.7015 20.3055C8.34825 20.2413 8.94739 20.49 9.65431 20.8378C9.15768 21.4912 8.52482 21.8992 7.89196 21.8992Z" fill="#1677FF"/>
<path d="M21.2012 17.5036C21.2012 17.8686 21.4684 18.1146 21.8407 18.1146C22.213 18.1146 22.4802 17.8686 22.4802 17.5036C22.4802 17.1451 22.213 16.8925 21.8407 16.8925C21.4684 16.8925 21.2012 17.1451 21.2012 17.5036Z" fill="#1677FF"/>
<path d="M20.5267 17.0466H19.4171V22.1743H20.5267V17.0466Z" fill="white"/>
<path d="M17.4715 17.2225H15.9823L14.3178 22.175H15.3435L15.6245 21.2055H17.3875L17.6547 22.175H18.968L17.4715 17.2225ZM15.856 20.3974L16.5159 18.1146H16.5437L17.1686 20.3974H15.856Z" fill="white"/>
<path d="M22.3955 18.4095H21.2859V22.175H22.3955V18.4095Z" fill="white"/>
<path d="M33.9934 18.4168L34 18.4095H32.9538L32.2932 20.6996H32.2582L31.4996 18.4095H30.2564L31.7523 22.1889L31.1273 23.3408V23.3686H32.1034L33.9934 18.4168Z" fill="white"/>
<path d="M25.1564 18.3322C24.7491 18.3322 24.433 18.487 24.0746 18.7819V18.4096H22.9649V23.3687H24.0746V22.1393C24.2855 22.1955 24.4819 22.224 24.7206 22.224C25.7113 22.224 26.6034 21.4932 26.6034 20.1938C26.6034 19.0279 25.9573 18.3322 25.1564 18.3322ZM24.4535 21.5283C24.3272 21.5283 24.2075 21.5144 24.0739 21.4721V19.4353C24.306 19.2739 24.4951 19.1965 24.7339 19.1965C25.1485 19.1965 25.4785 19.5265 25.4785 20.2295C25.4792 21.1282 24.9944 21.5283 24.4535 21.5283Z" fill="white"/>
<path d="M30.0382 21.2333V19.6601C30.0382 18.8031 29.5323 18.3322 28.6402 18.3322C28.0708 18.3322 27.678 18.4307 26.9612 18.6483L27.1576 19.5126C27.8109 19.2177 28.0986 19.0914 28.4008 19.0914C28.7658 19.0914 28.9279 19.3513 28.9279 19.752V19.7798C27.6562 20.0185 27.2627 20.1521 27.0174 20.3981C26.8348 20.5806 26.7575 20.8405 26.7575 21.1427C26.7575 21.8662 27.3196 22.2524 27.846 22.2524C28.2394 22.2524 28.5555 22.1049 28.9841 21.7815L29.0614 22.175H30.1711L30.0382 21.2333ZM28.9285 21.2618C28.6336 21.4231 28.465 21.4866 28.2685 21.4866C28.0014 21.4866 27.8327 21.3107 27.8327 21.0303C27.8327 20.9252 27.8539 20.8194 27.9379 20.7354C28.0715 20.6018 28.3314 20.5033 28.9285 20.3631V21.2618Z" fill="white"/>
</svg>
