<svg width="40" height="40" viewBox="0 0 40 40" fill="none" xmlns="http://www.w3.org/2000/svg">
<rect width="40" height="40" rx="4" fill="#F36805"/>
<rect x="0.5" y="0.5" width="39" height="39" rx="3.5" stroke="white" stroke-opacity="0.01"/>
<path d="M32.2451 19.125C32.2451 12.8512 27.1439 7.75 20.8701 7.75C17.8776 7.75 15.1651 8.9225 13.1264 10.8125H13.1176L12.9164 10.9963C12.8551 11.0575 12.8026 11.11 12.7414 11.1712L11.0789 12.8337C8.92637 14.9775 7.74512 17.8387 7.74512 20.875C7.74512 23.9113 8.92637 26.7638 11.0789 28.9163C13.2226 31.06 16.0839 32.25 19.1201 32.25C22.1564 32.25 25.0089 31.0688 27.1614 28.9163L28.9639 27.1137C30.9939 25.0487 32.2539 22.2312 32.2539 19.1162L32.2451 19.125ZM12.3126 27.6825C10.4926 25.8625 9.49512 23.4475 9.49512 20.8838C9.49512 20.6038 9.51262 20.3237 9.53887 20.0525C9.98512 25.6087 14.4301 30.0362 19.9951 30.465C17.2476 30.71 14.4214 29.7913 12.3214 27.6913L12.3126 27.6825ZM25.9101 19.2738L25.0264 19.44C24.9126 19.475 24.8164 19.5712 24.8076 19.6937C24.8076 19.8512 24.6326 23.3162 24.4226 24.2175C24.3876 24.3487 24.2739 24.445 24.1339 24.445C23.7926 24.445 23.4601 24.4275 23.1364 24.4275C23.1364 24.4275 23.0664 24.3925 23.0664 24.3575C23.0664 24.3575 23.1276 23.3775 23.1801 22.1263C23.2414 20.6563 23.2939 18.7662 23.1889 17.655C23.1889 17.5937 23.1714 17.5675 23.1714 17.5675C23.1451 17.4975 23.0751 17.445 22.9964 17.445C22.9526 17.445 22.9176 17.4625 22.8826 17.48C22.8826 17.48 22.8564 17.4975 22.8301 17.5325C22.8301 17.5325 21.6664 18.7225 21.4214 22.2487C21.4214 22.2487 21.4214 22.3013 21.4214 22.345C21.4389 22.415 21.5001 22.4763 21.5964 22.4938L22.2001 22.5813C22.2526 22.5813 22.2964 22.6337 22.2964 22.6862C22.2964 22.6862 22.2701 23.2812 22.1564 24.34C22.1564 24.3837 22.1126 24.4187 22.0601 24.4187H21.5614C21.3514 24.4187 21.1326 24.4187 20.9051 24.4187H20.8351C20.6514 24.4187 20.4764 24.4187 20.3101 24.4187C20.3101 24.4187 20.2576 24.4187 20.2226 24.4187C20.1789 24.4187 20.1351 24.3837 20.1351 24.34C20.1176 24.2175 20.0914 23.955 20.0564 23.57C19.9776 22.6862 19.9951 22.5025 19.9951 22.5025C19.9951 22.4413 20.0301 22.3975 20.0739 22.3625C20.3189 22.1875 20.4851 21.9075 20.4851 21.5837C20.4851 21.5837 20.4851 21.5837 20.4851 21.575C20.4851 21.575 20.4851 21.5663 20.4851 21.5575V21.5488C20.4414 20.3588 20.4239 19.0113 20.4851 17.935C20.4851 17.935 20.4851 17.9262 20.4851 17.9175C20.4851 17.8212 20.4064 17.7425 20.3014 17.7425C20.2051 17.7425 20.1351 17.8212 20.1264 17.9087C20.0826 18.6437 20.0739 19.51 20.0914 20.3675C20.0914 20.4813 20.0039 20.5775 19.8901 20.5775C19.7764 20.5775 19.6801 20.49 19.6801 20.3763C19.6626 19.5275 19.6714 18.6613 19.7151 17.935C19.7151 17.935 19.7151 17.9262 19.7151 17.9175C19.7151 17.8212 19.6364 17.7425 19.5314 17.7425C19.4351 17.7425 19.3651 17.8212 19.3564 17.9087C19.3126 18.6437 19.3039 19.5188 19.3214 20.3763C19.3214 20.49 19.2339 20.5863 19.1114 20.5863C18.9976 20.5863 18.9014 20.4988 18.9014 20.3763C18.8839 19.5188 18.8926 18.6525 18.9364 17.9175C18.9364 17.9175 18.9364 17.9088 18.9364 17.9C18.9364 17.8038 18.8576 17.725 18.7526 17.725C18.6564 17.725 18.5864 17.8038 18.5776 17.8913C18.5076 18.9938 18.5339 20.3938 18.5776 21.61C18.5951 21.9338 18.7789 22.2225 19.0414 22.38C19.0939 22.415 19.1289 22.4675 19.1289 22.5287C19.1289 22.5462 19.1289 22.5725 19.1289 22.59C19.1639 23.3162 19.2076 24.0075 19.2339 24.3138C19.2339 24.3663 19.1901 24.4187 19.1376 24.4187H19.1026C18.5951 24.4187 18.1226 24.4362 17.6151 24.445C17.4751 24.445 17.3526 24.3487 17.3264 24.2175C17.1164 23.3162 16.9501 19.8512 16.9414 19.6937C16.9239 19.5712 16.8364 19.4662 16.7226 19.44L15.8389 19.2738C15.7076 19.2388 15.6114 19.125 15.6114 18.9762C15.6114 18.9325 15.6201 18.8888 15.6376 18.845C15.6989 18.6788 17.3876 15.6075 20.4414 13.7262C20.5639 13.6387 20.7126 13.595 20.8789 13.595C21.0451 13.595 21.1939 13.6475 21.3164 13.7262C21.9814 14.1375 22.5764 14.6012 23.1014 15.0737C23.1014 15.0737 23.1101 15.0737 23.1101 15.065V14.7588C23.1101 14.6538 23.1976 14.575 23.2939 14.575C23.2939 14.575 23.3114 14.575 23.3201 14.575L24.2039 14.68C24.3264 14.6975 24.4401 14.785 24.4664 14.9162C24.4664 14.9162 24.6239 15.6513 24.7201 16.7625C24.7201 16.7625 24.7376 16.8237 24.7551 16.85C25.6039 17.9087 26.0676 18.7575 26.1026 18.845C26.1201 18.88 26.1289 18.9237 26.1289 18.9762C26.1289 19.1162 26.0326 19.2388 25.9014 19.2738H25.9101Z" fill="white"/>
</svg>
