<svg width="40" height="40" viewBox="0 0 40 40" fill="none" xmlns="http://www.w3.org/2000/svg">
<rect width="40" height="40" rx="4" fill="url(#paint0_linear_10305_6332)"/>
<rect x="0.5" y="0.5" width="39" height="39" rx="3.5" stroke="white" stroke-opacity="0.01"/>
<path fill-rule="evenodd" clip-rule="evenodd" d="M16.3558 29.5924L16.7009 27.3271L15.9322 27.3085H12.2617L14.8126 10.5912C14.8205 10.5406 14.8462 10.4936 14.8837 10.4602C14.9214 10.4267 14.9695 10.4084 15.0198 10.4084H21.2088C23.2637 10.4084 24.6816 10.8502 25.4218 11.7225C25.7689 12.1316 25.9899 12.5593 26.0969 13.0298C26.2091 13.5237 26.211 14.1135 26.1016 14.8331L26.0936 14.8855V15.3466L26.4407 15.5499C26.7329 15.7101 26.9652 15.8935 27.1434 16.1035C27.4402 16.4534 27.6322 16.8981 27.7134 17.4252C27.7973 17.9673 27.7696 18.6126 27.6322 19.3431C27.4739 20.1832 27.2179 20.9151 26.8721 21.5137C26.5542 22.0654 26.1491 22.5231 25.668 22.8777C25.2087 23.2146 24.6631 23.4704 24.0462 23.6341C23.4483 23.795 22.7667 23.8762 22.0191 23.8762H21.5374C21.1931 23.8762 20.8586 24.0043 20.596 24.2341C20.3326 24.4687 20.1585 24.7893 20.1051 25.1398L20.0687 25.3438L19.4589 29.3369L19.4314 29.4834C19.424 29.5298 19.4114 29.5529 19.393 29.5686C19.3765 29.5829 19.3529 29.5924 19.3298 29.5924H16.3558Z" fill="#28356A"/>
<path fill-rule="evenodd" clip-rule="evenodd" d="M26.7697 14.9387C26.7514 15.0608 26.7301 15.1855 26.7065 15.3137C25.8903 19.645 23.0978 21.1414 19.5315 21.1414H17.7157C17.2795 21.1414 16.9119 21.4686 16.8441 21.9133L15.6511 29.7349C15.6069 30.027 15.8246 30.29 16.1096 30.29H19.3303C19.7116 30.29 20.0356 30.0037 20.0956 29.6149L20.1272 29.4459L20.7336 25.4685L20.7726 25.2503C20.8319 24.8603 21.1567 24.5737 21.538 24.5737H22.0196C25.1399 24.5737 27.5827 23.2644 28.2966 19.4752C28.5948 17.8924 28.4404 16.5707 27.6513 15.6411C27.4125 15.3609 27.1162 15.1282 26.7697 14.9387Z" fill="#ADD0E6"/>
<path fill-rule="evenodd" clip-rule="evenodd" d="M25.9155 14.5869C25.7907 14.5493 25.6621 14.5153 25.5301 14.4845C25.3974 14.4545 25.2616 14.428 25.1217 14.4047C24.6321 14.3229 24.0956 14.2841 23.521 14.2841H18.67C18.5504 14.2841 18.4369 14.312 18.3355 14.3624C18.1116 14.4736 17.9455 14.6925 17.9052 14.9605L16.8732 21.7164L16.8436 21.9133C16.9114 21.4686 17.279 21.1414 17.7152 21.1414H19.5311C23.0974 21.1414 25.8898 19.6443 26.706 15.3138C26.7304 15.1856 26.7509 15.0608 26.7692 14.9388C26.5627 14.8255 26.3391 14.7286 26.0983 14.6461C26.0388 14.6257 25.9774 14.606 25.9155 14.5869Z" fill="#E6EFF6"/>
<path fill-rule="evenodd" clip-rule="evenodd" d="M17.9055 14.9606C17.9458 14.6926 18.1119 14.4737 18.3357 14.3632C18.4379 14.3126 18.5507 14.2847 18.6703 14.2847H23.5212C24.0958 14.2847 24.6324 14.3237 25.122 14.4055C25.2619 14.4286 25.3977 14.4553 25.5304 14.4853C25.6624 14.5159 25.791 14.5501 25.9158 14.5875C25.9777 14.6066 26.039 14.6265 26.0991 14.6462C26.3399 14.7287 26.5637 14.8263 26.7702 14.9388C27.013 13.3382 26.7682 12.2484 25.9309 11.2615C25.0077 10.175 23.3418 9.71002 21.2099 9.71002H15.0206C14.5852 9.71002 14.2137 10.0373 14.1464 10.4827L11.5685 27.372C11.5177 27.7061 11.767 28.0075 12.0931 28.0075H15.914L17.9055 14.9606Z" fill="white"/>
<defs>
<linearGradient id="paint0_linear_10305_6332" x1="2" y1="1.5" x2="37.5" y2="37.5" gradientUnits="userSpaceOnUse">
<stop stop-color="#00286C"/>
<stop offset="1" stop-color="#0099DC"/>
</linearGradient>
</defs>
</svg>
