<svg width="40" height="40" viewBox="0 0 40 40" fill="none" xmlns="http://www.w3.org/2000/svg">
<rect x="0.5" y="0.5" width="39" height="39" rx="3.5" fill="white"/>
<rect x="0.5" y="0.5" width="39" height="39" rx="3.5" stroke="#DBD9D7"/>
<g clip-path="url(#clip0_13202_9736)">
<path d="M28.8575 14.86C27.0336 14.86 25.3494 15.8252 24.4308 17.3962C25.3761 19.0071 25.3761 20.9975 24.4308 22.6084C25.8687 25.0515 29.0173 25.8702 31.467 24.4324C33.91 22.9945 34.7288 19.8459 33.2909 17.3962C32.3656 15.8252 30.6815 14.86 28.8575 14.86Z" fill="#243887"/>
<path d="M24.4308 17.3895C22.9929 14.9399 19.8443 14.1277 17.3946 15.5656C16.6424 16.0116 16.0167 16.6373 15.5707 17.3895C16.5159 19.0005 16.5159 20.9908 15.5707 22.6018C17.0085 25.0515 20.1572 25.8636 22.6069 24.4257C23.3591 23.9797 23.9915 23.354 24.4308 22.6018C23.4855 20.9975 23.4855 19.0005 24.4308 17.3895Z" fill="#0968B2"/>
<path d="M15.5707 17.3895C14.1328 14.9399 10.9842 14.1277 8.53451 15.5656C6.08482 17.0035 5.2727 20.1521 6.71056 22.6018C8.14841 25.0515 11.2971 25.8636 13.7467 24.4257C14.4989 23.9797 15.1313 23.354 15.5707 22.6018C14.6254 20.9975 14.6254 19.0005 15.5707 17.3895Z" fill="#37BDED"/>
<path d="M15.5707 17.3895C16.5159 19.0005 16.5159 20.9908 15.5707 22.6018C14.6254 20.9975 14.6254 19.0005 15.5707 17.3895Z" fill="#025D9E"/>
<path d="M15.5707 22.6018C14.6254 20.9908 14.6254 19.0005 15.5707 17.3895C16.5159 19.0005 16.5159 20.9975 15.5707 22.6018ZM15.5707 17.3962C14.6254 19.0005 14.6254 20.9975 15.5707 22.6018C16.5159 20.9975 16.5159 19.0005 15.5707 17.3962Z" fill="#5E5E5E"/>
<path d="M24.4308 22.6018C25.3761 20.9908 25.3761 19.0005 24.4308 17.3895C23.4855 19.0005 23.4855 20.9975 24.4308 22.6018Z" fill="#1D335A"/>
<path d="M13.0744 18.2017H11.5766V22.7815H10.5448V18.2017H9.08036V17.2631H13.0677L13.0744 18.2017Z" fill="white"/>
<path d="M27.0735 17.2631H29.004C29.7362 17.2697 29.9359 17.2764 30.2022 17.3563C30.9145 17.5826 31.3072 18.3415 31.0809 19.0537C31.0476 19.1602 30.9944 19.2667 30.9344 19.3666C30.768 19.5863 30.5217 19.7261 30.2488 19.766C30.9411 19.8858 31.4337 20.5116 31.3871 21.2172C31.4337 21.8496 31.0409 22.4354 30.4418 22.6484C30.089 22.7749 29.8161 22.7815 29.1904 22.7815H27.0735V17.2631ZM28.092 18.1085V19.4864H28.4115C28.6978 19.4864 28.9108 19.4864 29.0373 19.4798C29.2769 19.4997 29.5166 19.4598 29.7429 19.3733C30.0558 19.2268 30.1955 18.8607 30.0558 18.5412C30.0025 18.4213 29.9093 18.3215 29.7895 18.2549C29.5698 18.1284 29.4633 18.1218 28.7111 18.1151H28.092V18.1085ZM28.092 20.2586V21.8895H29.0772C29.6896 21.8895 29.8494 21.8895 30.1157 21.7031C30.2821 21.5633 30.3753 21.3437 30.3686 21.124C30.3686 20.9775 30.3353 20.8377 30.2688 20.7113C30.0158 20.2653 29.4433 20.2586 29.0905 20.2586H28.092Z" fill="white"/>
<path d="M20.53 19.513L19.9641 19.3866C19.4649 19.2934 18.959 19.2002 18.959 18.7342C18.959 18.3148 19.4382 18.0685 19.9908 18.0685C20.5566 18.0552 21.0891 18.3481 21.382 18.8407L22.1941 18.1884C21.7015 17.5027 20.8961 17.11 20.0507 17.1432C18.7659 17.1432 17.8872 17.8089 17.8872 18.8474C17.8739 19.4465 18.2467 19.9857 18.8125 20.1854C19.0388 20.2653 19.2652 20.3318 19.5048 20.3784L20.1638 20.5182C20.3768 20.5582 20.5899 20.6181 20.8029 20.6913C21.0492 20.7579 21.2156 20.9775 21.2156 21.2305C21.2156 21.5167 21.0292 21.7763 20.7496 21.8562C20.5632 21.9228 20.3635 21.9561 20.1572 21.9494C19.0588 21.9494 18.6328 21.3836 18.4797 21.1506L17.6476 21.7897C17.9738 22.2689 18.4597 22.6151 19.0189 22.7615C19.3384 22.8481 19.6646 22.888 19.9974 22.888C21.1623 22.888 22.3206 22.3821 22.3206 21.1306C22.3073 19.9724 21.2689 19.6662 20.53 19.513Z" fill="white"/>
</g>
<defs>
<clipPath id="clip0_13202_9736">
<rect width="28" height="11.2" fill="white" transform="translate(6 14.4)"/>
</clipPath>
</defs>
</svg>
