<svg width="40" height="40" viewBox="0 0 40 40" fill="none" xmlns="http://www.w3.org/2000/svg">
<rect x="0.5" y="0.5" width="39" height="39" rx="3.5" fill="white"/>
<rect x="0.5" y="0.5" width="39" height="39" rx="3.5" stroke="#DBD9D7"/>
<path d="M31.875 25.3886H27.5917V26.4048H29.1301V30.748H30.3426V26.4048H31.8747L31.875 25.3886ZM12.4147 25.3886H8.125V26.4048H9.66346V30.748H10.876V26.4048H12.4144L12.4147 25.3886ZM24.8144 25.2205C23.465 25.2205 22.7151 26.0747 22.7151 27.3112V30.7483H23.9146V27.2854C23.9146 26.7482 24.2342 26.334 24.8275 26.334C25.4207 26.334 25.7336 26.8259 25.7336 27.2854V30.7483H26.9331V27.3112C26.9398 26.0747 26.1639 25.2205 24.8144 25.2205ZM20.2901 25.3886V30.748H21.4896V25.3886H20.2901ZM16.2221 27.5117L16.2611 27.7512L17.3889 30.748H17.8779L19.4099 25.3886H18.2298L17.4996 28.2044L17.454 28.5086L17.3953 28.2044L16.4174 25.3886H16.0262L15.0483 28.2044L14.9897 28.5086L14.9506 28.2044L14.2204 25.3886H13.0339L14.566 30.748H15.055L16.1828 27.7512L16.2221 27.5117Z" fill="black"/>
<path d="M25.8872 19.3177C25.8872 19.4876 25.7658 19.6933 25.6162 19.7782L20.3793 22.7817C20.2294 22.8667 19.9868 22.8667 19.8369 22.7817L14.6 19.7782C14.4501 19.6933 14.329 19.4879 14.329 19.3177V13.3107C14.329 13.1407 14.4504 12.9351 14.6 12.8501L19.8369 9.84662C19.9868 9.76166 20.2294 9.76166 20.3793 9.84662L25.6162 12.8501C25.7661 12.9351 25.8872 13.1405 25.8872 13.3107V19.3177Z" fill="black"/>
<path d="M22.8407 16.3283L21.4708 18.3188L20.7716 17.2563L21.5777 16.0593C21.7276 15.8467 22.0485 15.2589 21.6776 14.4584C21.3778 13.8066 20.7286 13.495 20.1578 13.495C19.5869 13.495 18.9662 13.7853 18.6309 14.4584C18.2527 15.2306 18.581 15.8326 18.7236 16.0382C18.7236 16.0382 19.173 16.69 19.5442 17.2425L20.1508 18.1137L21.0641 19.5023C21.0713 19.5095 21.214 19.729 21.4708 19.729C21.7133 19.729 21.8632 19.5095 21.8847 19.4882L24.025 16.343H22.8407V16.3283ZM20.1508 16.3778C20.1508 16.3778 19.7941 15.8395 19.5585 15.4639C19.3087 15.0601 19.5869 14.4582 20.1508 14.4582C20.7143 14.4582 20.9926 15.0604 20.7431 15.4639C20.5148 15.8395 20.1508 16.3778 20.1508 16.3778Z" fill="url(#paint0_radial_10170_5604)"/>
<path d="M18.8376 18.2551L17.4961 16.385C17.4961 16.385 17.1394 15.8467 16.9038 15.4711C16.6539 15.0673 16.9322 14.4653 17.4961 14.4653C17.5675 14.4653 17.6317 14.4725 17.6959 14.4936L18.1668 13.6364C17.9527 13.5442 17.7174 13.4947 17.5033 13.4947C16.9325 13.4947 16.3118 13.785 15.9765 14.4581C15.5983 15.2303 15.9266 15.8323 16.0692 16.0379L18.4166 19.4879C18.4381 19.5161 18.5877 19.7359 18.8376 19.7359C19.0874 19.7359 19.23 19.5233 19.2515 19.4951L19.958 18.4254L19.3514 17.54L18.8376 18.2551Z" fill="url(#paint1_radial_10170_5604)"/>
<defs>
<radialGradient id="paint0_radial_10170_5604" cx="0" cy="0" r="1" gradientUnits="userSpaceOnUse" gradientTransform="translate(13.4569 11.6195) scale(26.9057 23.7511)">
<stop stop-color="#FFCC00"/>
<stop offset="0.09157" stop-color="#FFC800"/>
<stop offset="0.1739" stop-color="#FFBD00"/>
<stop offset="0.2528" stop-color="#FFAB00"/>
<stop offset="0.3295" stop-color="#FF9100"/>
<stop offset="0.4046" stop-color="#FF7000"/>
<stop offset="0.4786" stop-color="#FF4700"/>
<stop offset="0.5503" stop-color="#FF1800"/>
<stop offset="0.5822" stop-color="#FF0000"/>
<stop offset="1" stop-color="#FF0000"/>
</radialGradient>
<radialGradient id="paint1_radial_10170_5604" cx="0" cy="0" r="1" gradientUnits="userSpaceOnUse" gradientTransform="translate(15.9022 14.4012) scale(5.78591 8.68614)">
<stop stop-color="#00B4E6"/>
<stop offset="0.201" stop-color="#00B0E3"/>
<stop offset="0.3898" stop-color="#01A5DB"/>
<stop offset="0.5737" stop-color="#0292CD"/>
<stop offset="0.7546" stop-color="#0377BA"/>
<stop offset="0.9316" stop-color="#0455A1"/>
<stop offset="1" stop-color="#054696"/>
</radialGradient>
</defs>
</svg>
