<svg width="40" height="40" viewBox="0 0 40 40" fill="none" xmlns="http://www.w3.org/2000/svg">
<rect width="40" height="40" rx="4" fill="#172B85"/>
<rect x="0.5" y="0.5" width="39" height="39" rx="3.5" stroke="white" stroke-opacity="0.01"/>
<path fill-rule="evenodd" clip-rule="evenodd" d="M14.0502 23.8487H11.9905L10.4459 17.7828C10.3726 17.5038 10.217 17.2571 9.98799 17.1409C9.41656 16.8487 8.78689 16.6162 8.09998 16.4989V16.2653H11.4181C11.876 16.2653 12.2195 16.6162 12.2767 17.0236L13.0781 21.3991L15.1368 16.2653H17.1393L14.0502 23.8487ZM18.2842 23.8487H16.3389L17.9407 16.2653H19.886L18.2842 23.8487ZM22.4027 18.3662C22.4599 17.9577 22.8034 17.7242 23.2041 17.7242C23.8338 17.6656 24.5197 17.7828 25.0921 18.074L25.4355 16.4413C24.8631 16.2077 24.2334 16.0905 23.662 16.0905C21.774 16.0905 20.4002 17.1409 20.4002 18.5987C20.4002 19.7077 21.3733 20.2901 22.0602 20.6409C22.8034 20.9907 23.0896 21.2242 23.0323 21.574C23.0323 22.0987 22.4599 22.3322 21.8885 22.3322C21.2016 22.3322 20.5147 22.1573 19.886 21.8652L19.5425 23.4989C20.2295 23.7901 20.9726 23.9073 21.6595 23.9073C23.7765 23.965 25.0921 22.9156 25.0921 21.3405C25.0921 19.3569 22.4027 19.2407 22.4027 18.3662ZM31.9 23.8487L30.3554 16.2653H28.6964C28.3529 16.2653 28.0095 16.4989 27.895 16.8487L25.0348 23.8487H27.0373L27.437 22.7407H29.8975L30.1264 23.8487H31.9ZM28.9826 18.3075L29.554 21.1656H27.9522L28.9826 18.3075Z" fill="white"/>
</svg>
