<svg width="40" height="40" viewBox="0 0 40 40" fill="none" xmlns="http://www.w3.org/2000/svg">
<rect width="40" height="40" rx="4" fill="#F36805"/>
<rect x="0.5" y="0.5" width="39" height="39" rx="3.5" stroke="white" stroke-opacity="0.01"/>
<g clip-path="url(#clip0_10305_6138)">
<path d="M21.4333 19.3134C20.6921 19.0197 20.0189 18.5774 19.4551 18.0136C18.8914 17.4499 18.449 16.7766 18.1554 16.0354C18.1009 15.8977 18.0064 15.7796 17.8839 15.6963C17.7615 15.613 17.6168 15.5685 17.4688 15.5685C17.3207 15.5685 17.176 15.613 17.0536 15.6963C16.9311 15.7796 16.8366 15.8977 16.7821 16.0354C16.4885 16.7766 16.0461 17.4499 15.4824 18.0136C14.9186 18.5774 14.2454 19.0197 13.5042 19.3134C13.3665 19.3678 13.2483 19.4624 13.165 19.5848C13.0818 19.7073 13.0373 19.8519 13.0373 20C13.0373 20.1481 13.0818 20.2927 13.165 20.4152C13.2483 20.5376 13.3665 20.6322 13.5042 20.6866C14.2454 20.9803 14.9186 21.4226 15.4824 21.9864C16.0461 22.5501 16.4885 23.2234 16.7821 23.9646C16.8366 24.1023 16.9311 24.2204 17.0536 24.3037C17.176 24.387 17.3207 24.4315 17.4688 24.4315C17.6168 24.4315 17.7615 24.387 17.8839 24.3037C18.0064 24.2204 18.1009 24.1023 18.1554 23.9646C18.449 23.2234 18.8914 22.5501 19.4551 21.9864C20.0189 21.4226 20.6921 20.9803 21.4333 20.6866C21.571 20.6322 21.6892 20.5376 21.7724 20.4152C21.8557 20.2927 21.9002 20.1481 21.9002 20C21.9002 19.8519 21.8557 19.7073 21.7724 19.5848C21.6892 19.4624 21.571 19.3678 21.4333 19.3134ZM17.4688 22.0967C16.9213 21.2612 16.2075 20.5475 15.372 20C16.2075 19.4525 16.9213 18.7388 17.4688 17.9033C18.0162 18.7388 18.73 19.4525 19.5655 20C18.73 20.5475 18.0162 21.2612 17.4688 22.0967ZM28.8457 11.1406H11.2598L8.60938 13.7911V26.2089L11.2598 28.8594H28.8457L31.4961 26.2089V13.7911L28.8457 11.1406ZM30.0195 25.6036L28.2403 27.3828H26.3281V25.168H24.8516V27.3828H11.8652L10.0859 25.6036V14.3964L11.8652 12.6172H24.8516V14.832H26.3281V12.6172H28.2403L30.0195 14.3964V25.6036ZM24.8516 20.7383H26.3281V23.6914H24.8516V20.7383ZM24.8516 16.3086H26.3281V19.2617H24.8516V16.3086Z" fill="white"/>
</g>
<defs>
<clipPath id="clip0_10305_6138">
<rect width="23.625" height="23.625" fill="white" transform="translate(8.1875 8.1875)"/>
</clipPath>
</defs>
</svg>
