<svg width="40" height="40" viewBox="0 0 40 40" fill="none" xmlns="http://www.w3.org/2000/svg">
<rect x="0.5" y="0.5" width="39" height="39" rx="3.5" fill="white"/>
<rect x="0.5" y="0.5" width="39" height="39" rx="3.5" stroke="#DBD9D7"/>
<g clip-path="url(#clip0_10170_5618)">
<mask id="mask0_10170_5618" style="mask-type:alpha" maskUnits="userSpaceOnUse" x="8" y="8" width="24" height="24">
<path d="M28.1216 8.85712H11.8784C10.2098 8.85712 8.85714 10.2098 8.85714 11.8784V28.1216C8.85714 29.7902 10.2098 31.1428 11.8784 31.1428H28.1216C29.7902 31.1428 31.1429 29.7902 31.1429 28.1216V11.8784C31.1429 10.2098 29.7902 8.85712 28.1216 8.85712Z" fill="white"/>
</mask>
<g mask="url(#mask0_10170_5618)">
<path d="M0.267632 6.96722H38.6667V33.5945H0.267632V6.96722Z" fill="url(#paint0_linear_10170_5618)"/>
</g>
<mask id="mask1_10170_5618" style="mask-type:alpha" maskUnits="userSpaceOnUse" x="8" y="8" width="24" height="24">
<path d="M28.1216 8.85712H11.8784C10.2098 8.85712 8.85714 10.2098 8.85714 11.8784V28.1216C8.85714 29.7902 10.2098 31.1428 11.8784 31.1428H28.1216C29.7902 31.1428 31.1429 29.7902 31.1429 28.1216V11.8784C31.1429 10.2098 29.7902 8.85712 28.1216 8.85712Z" fill="white"/>
</mask>
<g mask="url(#mask1_10170_5618)">
<path d="M53.4234 7.63715L38.2672 33.8873C37.4209 35.3534 35.8566 36.2567 34.1637 36.2567C32.4708 36.2567 30.9066 35.3534 30.0603 33.8873L19.6504 15.8703L24.4188 7.63715H53.4234Z" fill="url(#paint1_linear_10170_5618)"/>
</g>
<mask id="mask2_10170_5618" style="mask-type:alpha" maskUnits="userSpaceOnUse" x="8" y="8" width="24" height="24">
<path d="M28.1216 8.85712H11.8784C10.2098 8.85712 8.85714 10.2098 8.85714 11.8784V28.1216C8.85714 29.7902 10.2098 31.1428 11.8784 31.1428H28.1216C29.7902 31.1428 31.1429 29.7902 31.1429 28.1216V11.8784C31.1429 10.2098 29.7902 8.85712 28.1216 8.85712Z" fill="white"/>
</mask>
<g mask="url(#mask2_10170_5618)">
<path d="M24.4186 7.63696L19.6506 15.8703L14.9056 7.63696H24.4186Z" fill="url(#paint2_linear_10170_5618)"/>
</g>
<mask id="mask3_10170_5618" style="mask-type:alpha" maskUnits="userSpaceOnUse" x="8" y="8" width="24" height="24">
<path d="M28.1216 8.85712H11.8784C10.2098 8.85712 8.85714 10.2098 8.85714 11.8784V28.1216C8.85714 29.7902 10.2098 31.1428 11.8784 31.1428H28.1216C29.7902 31.1428 31.1429 29.7902 31.1429 28.1216V11.8784C31.1429 10.2098 29.7902 8.85712 28.1216 8.85712Z" fill="white"/>
</mask>
<g mask="url(#mask3_10170_5618)">
<path d="M14.9056 7.63715L19.6506 15.8703L14.8925 24.099C14.1173 25.4404 12.6856 26.2665 11.1363 26.2665C9.58699 26.2665 8.15528 25.4404 7.38003 24.099L-2.1241 7.63715H14.9056Z" fill="url(#paint3_linear_10170_5618)"/>
</g>
<mask id="mask4_10170_5618" style="mask-type:alpha" maskUnits="userSpaceOnUse" x="8" y="8" width="24" height="24">
<path d="M28.1216 8.85712H11.8784C10.2098 8.85712 8.85714 10.2098 8.85714 11.8784V28.1216C8.85714 29.7902 10.2098 31.1428 11.8784 31.1428H28.1216C29.7902 31.1428 31.1429 29.7902 31.1429 28.1216V11.8784C31.1429 10.2098 29.7902 8.85712 28.1216 8.85712Z" fill="white"/>
</mask>
<g mask="url(#mask4_10170_5618)">
<path d="M9.797 46.5583H29.2703C30.2897 46.5583 31.2317 46.0144 31.7415 45.1315C32.2512 44.2486 32.2511 43.1609 31.7414 42.278L22.0047 25.4138C21.495 24.5309 20.553 23.987 19.5335 23.987C18.5141 23.987 17.5721 24.5309 17.0623 25.4138L7.32571 42.278C6.81592 43.1609 6.81591 44.2487 7.32567 45.1316C7.83542 46.0145 8.7775 46.5583 9.797 46.5583Z" fill="url(#paint4_linear_10170_5618)"/>
</g>
<mask id="mask5_10170_5618" style="mask-type:alpha" maskUnits="userSpaceOnUse" x="8" y="8" width="24" height="24">
<path d="M28.1216 8.85712H11.8784C10.2098 8.85712 8.85714 10.2098 8.85714 11.8784V28.1216C8.85714 29.7902 10.2098 31.1428 11.8784 31.1428H28.1216C29.7902 31.1428 31.1429 29.7902 31.1429 28.1216V11.8784C31.1429 10.2098 29.7902 8.85712 28.1216 8.85712Z" fill="white"/>
</mask>
<g mask="url(#mask5_10170_5618)">
<path d="M-16.3938 47.2175H8.25555C9.54601 47.2175 10.7385 46.5291 11.3837 45.4115C12.0289 44.2939 12.0288 42.917 11.3835 41.7995L-0.941135 20.4527C-1.58633 19.3352 -2.77871 18.6467 -4.06911 18.6467C-5.35951 18.6467 -6.55189 19.3352 -7.19709 20.4527L-19.5217 41.7995C-20.167 42.917 -20.1669 44.2939 -19.5217 45.4114C-18.8765 46.529 -17.684 47.2175 -16.3936 47.2175H-16.3938Z" fill="url(#paint5_linear_10170_5618)"/>
</g>
<path d="M26.4723 12.7304H12.7587C12.0408 12.7304 11.3773 13.1134 11.0183 13.7351C10.6593 14.3569 10.6593 15.123 11.0183 15.7447L17.8753 27.6211C18.2342 28.2428 18.8976 28.6258 19.6155 28.6258C20.3334 28.6258 20.9968 28.2428 21.3557 27.6211L28.2127 15.7447C28.5717 15.123 28.5717 14.3569 28.2127 13.7351C27.8537 13.1134 27.1902 12.7304 26.4723 12.7304Z" fill="white"/>
<path d="M27.1162 15.209C26.2678 16.6812 25.4176 18.1513 24.5658 19.6191C24.422 19.8781 24.1481 20.0378 23.8519 20.0352C23.5557 20.0325 23.2847 19.8681 23.1455 19.6066C22.3033 18.1418 21.4629 16.6768 20.6241 15.2115C20.4686 14.9612 20.4611 14.6462 20.6045 14.3887C20.7479 14.1312 21.0197 13.9718 21.3144 13.9722C21.6091 13.9727 21.8804 14.133 22.023 14.3909C22.6177 15.4159 23.2037 16.4436 23.7945 17.4715C23.8122 17.5017 23.8324 17.532 23.8652 17.5851C24.0786 17.2176 24.278 16.8716 24.4787 16.5256C24.8904 15.8162 25.2982 15.1054 25.7123 14.3984C25.8529 14.1393 26.123 13.977 26.4178 13.9744C26.7125 13.9718 26.9855 14.1293 27.1306 14.3859C27.2758 14.6424 27.2703 14.9575 27.1162 15.2088V15.209ZM22.8841 22.5244C22.3337 23.4864 21.7768 24.4434 21.2226 25.4029C20.9297 25.9106 20.6368 26.4174 20.3438 26.9232C19.984 27.5418 19.2304 27.5454 18.8729 26.9271C18.0373 25.4749 17.204 24.022 16.3731 22.5684C16.1792 22.259 16.2154 21.8583 16.4615 21.5886C16.6945 21.3196 17.0807 21.2436 17.3983 21.4043C17.5423 21.477 17.6644 21.5869 17.7518 21.7225C18.3451 22.7313 18.9236 23.749 19.5067 24.764C19.5384 24.817 19.5698 24.8688 19.6116 24.9406C19.7858 24.6401 19.9488 24.3612 20.1104 24.0809C20.5598 23.3057 21.0055 22.5279 21.46 21.7552C21.586 21.5199 21.8205 21.3623 22.086 21.3345C22.3516 21.3067 22.6137 21.4123 22.7857 21.6166C23.0072 21.8678 23.0466 22.2313 22.8841 22.5242V22.5244ZM14.6396 19.6496C14.1357 18.7706 13.6315 17.8918 13.127 17.0132C12.7899 16.4276 12.4503 15.843 12.1182 15.2545C11.9705 15.0049 11.9674 14.6955 12.1101 14.4431C12.2528 14.1906 12.5195 14.0337 12.8095 14.0315C13.0994 14.0294 13.3684 14.1824 13.5148 14.4327C14.1056 15.4553 14.6943 16.4784 15.2811 17.5019C15.3024 17.541 15.3265 17.579 15.3606 17.6369C15.6698 17.1016 15.9653 16.5915 16.2608 16.0814C16.5813 15.5286 16.8984 14.973 17.2228 14.4213C17.4512 14.0357 17.9489 13.9082 18.3345 14.1366C18.7201 14.365 18.8476 14.8627 18.6192 15.2483C17.8402 16.598 17.06 17.9472 16.2785 19.2959C16.2078 19.4159 16.1396 19.5384 16.0676 19.6584C15.9242 19.9199 15.6491 20.0816 15.351 20.0798C15.0528 20.0779 14.7797 19.9128 14.6396 19.6496Z" fill="#273680"/>
</g>
<defs>
<linearGradient id="paint0_linear_10170_5618" x1="27.0203" y1="19.5406" x2="-1.35713" y2="25.3241" gradientUnits="userSpaceOnUse">
<stop offset="0.002" stop-color="#81CFF4"/>
<stop offset="0.467" stop-color="#0998D5"/>
<stop offset="1" stop-color="#273680"/>
</linearGradient>
<linearGradient id="paint1_linear_10170_5618" x1="33.571" y1="6.04184" x2="38.6227" y2="19.1993" gradientUnits="userSpaceOnUse">
<stop stop-color="#0998D5"/>
<stop offset="1" stop-color="#273680"/>
</linearGradient>
<linearGradient id="paint2_linear_10170_5618" x1="21.1622" y1="14.7227" x2="20.0903" y2="7.89975" gradientUnits="userSpaceOnUse">
<stop stop-color="#E20E7E"/>
<stop offset="0.005" stop-color="#E20E7E"/>
<stop offset="1" stop-color="#6E237F"/>
</linearGradient>
<linearGradient id="paint3_linear_10170_5618" x1="14.7034" y1="21.7128" x2="7.86611" y2="6.33797" gradientUnits="userSpaceOnUse">
<stop stop-color="#FABE03"/>
<stop offset="0.47" stop-color="#EE8906"/>
<stop offset="1" stop-color="#E64516"/>
</linearGradient>
<linearGradient id="paint4_linear_10170_5618" x1="936.172" y1="2296.75" x2="1092.65" y2="3342.41" gradientUnits="userSpaceOnUse">
<stop stop-color="#97C02B"/>
<stop offset="0.998" stop-color="#06863B"/>
<stop offset="1" stop-color="#06863B"/>
</linearGradient>
<linearGradient id="paint5_linear_10170_5618" x1="5.17092" y1="29.0052" x2="2.23085" y2="33.6727" gradientUnits="userSpaceOnUse">
<stop stop-color="#EE8906"/>
<stop offset="1" stop-color="#E64516"/>
</linearGradient>
<clipPath id="clip0_10170_5618">
<rect width="22.2857" height="22.2857" fill="white" transform="translate(8.85714 8.85712)"/>
</clipPath>
</defs>
</svg>
