<svg width="40" height="40" viewBox="0 0 40 40" fill="none" xmlns="http://www.w3.org/2000/svg">
<rect x="0.5" y="0.5" width="39" height="39" rx="3.5" fill="white"/>
<rect x="0.5" y="0.5" width="39" height="39" rx="3.5" stroke="#DBD9D7"/>
<g clip-path="url(#clip0_10170_5415)">
<path d="M21.2625 10.9708C21.3511 10.9339 21.447 10.9118 21.543 10.9118C21.639 10.9118 21.735 10.9339 21.8236 10.9708C22.0081 11.0446 22.1484 11.1849 22.2222 11.3695L22.6504 12.4105H24.2451L23.5807 10.8084C23.1156 9.67883 21.8162 9.13988 20.6866 9.61238L13.9313 12.4105H17.7926L21.2625 10.9708Z" fill="#242E30"/>
<path d="M28.158 26.2828H27.4197V27.7741C27.4197 28.1802 27.0875 28.5124 26.6815 28.5124H11.1406C10.7346 28.5124 10.4024 28.1802 10.4024 27.7741V15.969C10.4024 15.7623 10.491 15.5703 10.6312 15.4374C10.6903 15.3857 10.7494 15.3414 10.8232 15.3045C10.8379 15.3045 10.8453 15.2898 10.8527 15.2824C10.9413 15.2455 11.0373 15.2233 11.1406 15.2233H26.6815C27.0875 15.2233 27.4197 15.5555 27.4197 15.9616V17.4677H28.9406V16.0576C28.9406 15.718 28.8594 15.4005 28.7265 15.12C28.3943 14.3152 27.6043 13.7541 26.6815 13.7541H11.1406C10.6386 13.7541 10.1883 13.9239 9.81173 14.2045C9.67884 14.3079 9.5681 14.4186 9.46474 14.5441C9.42045 14.5958 9.37615 14.6548 9.33185 14.7139C9.31709 14.7361 9.29494 14.7582 9.28017 14.7804C9.20634 14.8837 9.14728 14.9945 9.0956 15.1126C8.96271 15.4005 8.8815 15.718 8.8815 16.0502V27.7667C8.8815 29.0144 9.89295 30.0259 11.1406 30.0259H26.6815C27.9292 30.0259 28.9406 29.0144 28.9406 27.7667V26.2754H28.158V26.2828Z" fill="#242E30"/>
<path d="M23.4626 18.9443V24.8062H31.0816V18.9443H23.4626ZM24.9391 20.4208H29.6051V23.3296H24.9391V20.4208Z" fill="#242E30"/>
</g>
<defs>
<clipPath id="clip0_10170_5415">
<rect width="23.625" height="23.625" fill="white" transform="translate(8.1875 8.1875)"/>
</clipPath>
</defs>
</svg>
