<svg width="40" height="40" viewBox="0 0 40 40" fill="none" xmlns="http://www.w3.org/2000/svg">
<rect x="0.5" y="0.5" width="39" height="39" rx="3.5" fill="white"/>
<rect x="0.5" y="0.5" width="39" height="39" rx="3.5" stroke="#DBD9D7"/>
<path fill-rule="evenodd" clip-rule="evenodd" d="M14.8958 24.6433C15.0702 24.5526 15.3669 24.4337 15.681 24.4337C16.4022 24.4337 16.792 24.9206 16.792 25.8268C16.792 26.8854 16.2687 27.4007 15.4252 27.4007C15.1167 27.4007 14.6398 27.3045 14.2907 27.1231V23.1711L14.8958 23.0295V24.6433ZM14.89 26.9136C15.076 26.9929 15.2797 27.0042 15.4252 27.0042C15.8557 27.0042 16.1814 26.7438 16.1814 25.8268C16.1814 25.1075 15.9138 24.8754 15.5241 24.8754C15.2913 24.8754 15.1227 24.9376 14.89 25.0622V26.9136ZM8.69442 24.5072H8.73517L9.52611 27.3328H10.1543L11.0968 23.3181H10.4161L9.82282 26.3135H9.78228L8.97354 23.3181H8.45585L7.69968 26.3135H7.65894L7.00739 23.3181H6.35596L7.29834 27.3328H7.92642L8.69442 24.5072ZM13.6744 27.1401V26.7098C13.3545 26.8967 13.0637 27.0042 12.7497 27.0042C12.1505 27.0042 11.8655 26.704 11.8655 26.0246H13.7617V25.8152C13.7617 24.8924 13.3137 24.4337 12.5868 24.4337C11.7143 24.4337 11.2663 25.0566 11.2663 25.9171C11.2663 26.8118 11.6677 27.4008 12.6448 27.4008C13.0637 27.4008 13.4127 27.2875 13.6744 27.1401ZM13.2091 25.6454H11.8773C11.9411 25.0793 12.2143 24.8131 12.5694 24.8131C12.8835 24.8131 13.1803 25.0507 13.2091 25.6454ZM19.468 26.4834H19.4388L18.1358 23.3181H17.432V27.3328H17.9555V24.4903H18.0078L19.1946 27.3328H19.5667L20.7535 24.4223H20.8059V27.3328H21.4341V23.3181H20.7127L19.468 26.4834ZM22.0741 25.9171C22.0741 24.9262 22.6325 24.4337 23.4003 24.4337C24.1682 24.4337 24.7267 24.9262 24.7267 25.9171C24.7267 26.8855 24.1973 27.4008 23.4003 27.4008C22.6033 27.4008 22.0741 26.8855 22.0741 25.9171ZM24.1158 25.9171C24.1158 25.1528 23.7957 24.8302 23.4003 24.8302C23.0163 24.8302 22.6847 25.1528 22.6847 25.9171C22.6847 26.6931 22.9874 27.0042 23.4003 27.0042C23.8132 27.0042 24.1158 26.6931 24.1158 25.9171ZM26.7622 24.4337C26.0936 24.4337 25.5408 24.6998 25.2791 24.8527V27.3328H25.8841V25.0905C26.0644 24.9888 26.3611 24.8866 26.5939 24.8866C26.8905 24.8866 27.1171 24.9659 27.1171 25.4133V27.3328H27.7221V25.2829C27.7221 24.6998 27.4606 24.4337 26.7622 24.4337ZM30.6712 26.7098V27.1401C30.4095 27.2875 30.0607 27.4008 29.6416 27.4008C28.6646 27.4008 28.2632 26.8118 28.2632 25.9171C28.2632 25.0566 28.7112 24.4337 29.5836 24.4337C30.3109 24.4337 30.7589 24.8924 30.7589 25.8152V26.0246H28.8625C28.8625 26.704 29.1475 27.0042 29.7466 27.0042C30.0607 27.0042 30.3515 26.8967 30.6712 26.7098ZM28.8741 25.6454H30.2061C30.1772 25.0507 29.8803 24.8131 29.5662 24.8131C29.2113 24.8131 28.9382 25.0793 28.8741 25.6454ZM33.644 24.53H33.0216L32.3582 26.6135H32.3236L31.579 24.53H30.9391L32.056 27.3611C31.9162 27.7799 31.6721 28.086 31.2766 28.086V28.55C31.9452 28.55 32.3001 28.1426 32.5911 27.3611L33.644 24.53Z" fill="#0068A3"/>
<path fill-rule="evenodd" clip-rule="evenodd" d="M19.61 11.45C20.4105 11.45 21.1686 11.6315 21.8438 11.9536C21.9499 12.0026 22.0556 12.0565 22.1617 12.116L21.6924 12.5248L20.9872 11.8151L19.7971 12.8484L19.0902 12.0974L16.8733 14.0426L18.2946 15.5672L17.736 16.0454L19.1359 17.5724L18.5807 18.0494L20.5811 20.2168L21.7685 19.1527L22.7952 20.293C22.5909 20.4475 22.3685 20.5929 22.1234 20.7273C21.3811 21.1394 20.523 21.3753 19.61 21.3753C16.802 21.3753 14.5117 19.1458 14.5117 16.4128C14.5117 13.6793 16.802 11.45 19.61 11.45ZM18.6808 16.099L19.8932 15.0363L20.9848 16.2167L19.7726 17.279L18.6808 16.099ZM20.7553 17.0757L19.5429 18.1381L20.6348 19.3185L21.8471 18.2558L20.7553 17.0757ZM17.8134 14.0838L19.0257 13.0214L20.1171 14.2015L18.9047 15.2639L17.8134 14.0838ZM20.9474 12.7152L20.0381 13.5119L20.8567 14.3973L21.766 13.6002L20.9474 12.7152ZM21.6536 17.1619L22.5632 16.3649L23.3818 17.2502L22.4725 18.047L21.6536 17.1619ZM23.3626 18.1526L22.4535 18.9497L23.2721 19.8345L24.1814 19.0376L23.3626 18.1526ZM22.8197 14.8524L23.4258 14.3212L23.9715 14.9112L23.3657 15.4424L22.8197 14.8524ZM22.6514 12.5681L22.0452 13.0992L22.5909 13.6893L23.1972 13.1581L22.6514 12.5681ZM23.5946 16.6055L24.2008 16.0742L24.7466 16.6642L24.1404 17.1954L23.5946 16.6055ZM21.7853 14.4947L20.8762 15.2918L21.695 16.1766L22.6039 15.3797L21.7853 14.4947Z" fill="#0068A3"/>
</svg>
