<svg width="40" height="40" viewBox="0 0 40 40" fill="none" xmlns="http://www.w3.org/2000/svg">
<rect width="40" height="40" rx="4" fill="#FC401D"/>
<rect x="0.5" y="0.5" width="39" height="39" rx="3.5" stroke="white" stroke-opacity="0.01"/>
<g clip-path="url(#clip0_10305_6101)">
<path fill-rule="evenodd" clip-rule="evenodd" d="M20.1129 16.6509C20.7278 16.6537 21.3422 16.6452 21.9565 16.6553C22.5776 16.666 23.2345 16.8072 23.7138 17.226C24.1241 17.5791 24.3259 18.1239 24.3404 18.6559C24.3584 19.1738 24.2614 19.7242 23.9346 20.1407C23.642 20.5353 23.1762 20.7612 22.7071 20.8705C22.2407 20.9781 21.7587 20.9579 21.2839 20.9607C21.2811 21.7545 21.2856 22.5482 21.2816 23.3419C20.8926 23.3419 20.5031 23.343 20.1141 23.3407C20.1118 21.111 20.1141 18.8812 20.1129 16.6509ZM21.2833 17.5623C21.2833 18.3935 21.2833 19.2242 21.2833 20.0555C21.7525 20.0471 22.2699 20.1149 22.6835 19.8425C23.0737 19.5947 23.1841 19.0891 23.1555 18.6564C23.1448 18.2938 22.9941 17.8991 22.6555 17.7243C22.2368 17.4905 21.7413 17.5785 21.2833 17.5623ZM26.0674 16.6503C25.4789 18.8812 24.8847 21.1104 24.2984 23.3419C24.6314 23.3419 24.9643 23.3424 25.2967 23.3419C25.4239 22.857 25.5456 22.3705 25.6711 21.8856C26.3555 21.8851 27.0399 21.8845 27.7243 21.8856C27.8443 22.3716 27.9676 22.8564 28.0876 23.3424C28.4917 23.3424 28.8958 23.343 29.3005 23.3424C28.7137 21.1126 28.1274 18.8818 27.5388 16.6525C27.0483 16.6514 26.5579 16.6531 26.0674 16.6514V16.6503ZM26.7008 17.8801C26.9676 18.9103 27.2294 19.9423 27.4889 20.9742C26.9603 20.9725 26.4318 20.9759 25.9032 20.9725C26.1717 19.9423 26.4357 18.9115 26.7008 17.8801ZM28.9211 16.652C29.3364 16.6497 29.7523 16.6514 30.1682 16.6514C30.6234 17.583 31.0757 18.5163 31.537 19.4451C31.9911 18.5118 32.4574 17.5847 32.9126 16.6514C33.2747 16.6497 33.6373 16.652 34 16.6503C33.3548 17.9339 32.6878 19.2074 32.0482 20.4938C32.0398 21.4428 32.0494 22.3923 32.0438 23.3413C31.6564 23.3413 31.2697 23.3424 30.8824 23.3413C30.8779 22.3918 30.8885 21.4428 30.8779 20.4938C30.2383 19.2074 29.5623 17.9384 28.9211 16.652Z" fill="white"/>
<path fill-rule="evenodd" clip-rule="evenodd" d="M11.0357 14.4532C12.307 14.317 13.6186 14.6583 14.6797 15.3674C15.7054 16.0591 16.5008 17.0938 16.8781 18.2748C17.2295 19.3488 17.2441 20.5265 16.9145 21.6077C16.539 22.8841 15.6769 24.0057 14.5524 24.7131C13.5822 25.3302 12.4146 25.634 11.2678 25.5684C9.98639 25.4944 8.73025 24.9743 7.79473 24.0909C6.80652 23.1879 6.16472 21.916 6.03412 20.5837C5.93266 19.73 6.06102 18.8567 6.35137 18.0501C6.79923 16.8477 7.67702 15.8108 8.79023 15.1729C9.47463 14.7732 10.2476 14.526 11.0357 14.4532Z" fill="white"/>
<path fill-rule="evenodd" clip-rule="evenodd" d="M13.1809 16.856C13.1377 16.8997 13.1136 16.958 13.0862 17.0124C12.6854 17.9232 12.2913 18.8369 11.8816 19.7444C11.8351 19.8492 11.8009 19.9591 11.7678 20.0689C12.149 20.0863 12.5301 20.0785 12.9118 20.074C12.9746 19.9434 13.0419 19.815 13.0979 19.6805C13.5043 18.7349 13.9376 17.7999 14.3361 16.8515C13.9516 16.8515 13.5654 16.8358 13.1809 16.856ZM8.81439 16.851C9.21573 16.8482 9.61819 16.842 10.0195 16.8526C10.57 18.0426 11.1142 19.236 11.6602 20.4288C11.8552 20.8671 12.0879 21.3038 12.1316 21.7903C12.196 22.3615 12.1518 22.9383 12.1658 23.5117C11.7807 23.5537 11.39 23.5481 11.0044 23.5167C10.9859 22.9231 11.0044 22.329 10.9971 21.7354C10.9988 21.6407 10.9707 21.5493 10.9309 21.4647C10.2252 19.9271 9.51225 18.3924 8.81439 16.851Z" fill="#FC401D"/>
</g>
<defs>
<clipPath id="clip0_10305_6101">
<rect width="28" height="11.1534" fill="white" transform="translate(6 14.4233)"/>
</clipPath>
</defs>
</svg>
