<svg width="17" height="16" viewBox="0 0 17 16" fill="none" xmlns="http://www.w3.org/2000/svg">
<path d="M8.45398 7.72881C8.45398 8.16631 8.16523 8.51631 7.81523 8.51631C7.46523 8.51631 7.17648 8.16631 7.17648 7.72881C7.17648 7.29131 7.46523 6.94131 7.81523 6.94131C8.16523 6.94131 8.45398 7.29131 8.45398 7.72881Z" fill="#242E30"/>
<path d="M10.4752 10.0651V10.0913H10.449C10.449 10.0913 10.4752 10.1438 10.4752 10.1701C10.5277 10.2926 10.554 10.4326 10.554 10.5726C10.554 11.2726 9.99398 11.8326 9.29398 11.8326C9.04898 11.8326 8.79523 11.7538 8.59398 11.6226C8.39273 11.7626 8.15648 11.8326 7.89398 11.8326C7.19398 11.8326 6.63398 11.2726 6.63398 10.5726C6.63398 10.4326 6.66898 10.3013 6.71273 10.1701L6.74773 10.0913V10.0651C6.97523 9.47006 7.70148 9.02381 8.60273 9.02381C9.50398 9.02381 10.2477 9.47006 10.4665 10.0651H10.4752Z" fill="#242E30"/>
<path d="M6.38023 9.65381C6.73023 9.65381 7.01898 9.30381 7.01898 8.86631C7.01898 8.42881 6.73898 8.07881 6.38023 8.07881C6.02148 8.07881 5.74148 8.42881 5.74148 8.86631C5.74148 9.30381 6.02148 9.65381 6.38023 9.65381Z" fill="#242E30"/>
<path d="M10.0902 7.72881C10.0902 8.16631 9.80148 8.51631 9.45148 8.51631C9.10148 8.51631 8.81273 8.16631 8.81273 7.72881C8.81273 7.29131 9.10148 6.94131 9.45148 6.94131C9.80148 6.94131 10.0902 7.29131 10.0902 7.72881Z" fill="#242E30"/>
<path d="M10.8952 8.08756C10.5452 8.08756 10.2565 8.43756 10.2565 8.87506C10.2565 9.31256 10.5452 9.66256 10.8952 9.66256C11.2452 9.66256 11.534 9.31256 11.534 8.87506C11.534 8.43756 11.2452 8.08756 10.8952 8.08756Z" fill="#242E30"/>
<path d="M11.7965 2.21631H5.47898C4.33273 2.21631 3.39648 3.15256 3.39648 4.29881V13.7838H13.879V4.29881C13.879 3.15256 12.9427 2.21631 11.7965 2.21631ZM5.47898 3.54631H11.7965C12.2077 3.54631 12.549 3.88756 12.549 4.29881V4.99881H4.72648V4.29881C4.72648 3.88756 5.06773 3.54631 5.47898 3.54631ZM4.72648 12.4538V6.31131H12.549V12.4538H4.72648Z" fill="#242E30"/>
</svg>
