<svg width="16" height="16" viewBox="0 0 16 16" fill="none" xmlns="http://www.w3.org/2000/svg">
<path d="M5.63737 8.78758C5.63737 9.09383 5.43612 9.33883 5.19112 9.33883C4.94612 9.33883 4.74487 9.09383 4.74487 8.78758C4.74487 8.48133 4.94612 8.23633 5.19112 8.23633C5.43612 8.23633 5.63737 8.48133 5.63737 8.78758Z" fill="#242E30"/>
<path d="M7.05486 10.4325V10.45H7.03736C7.04611 10.4675 7.05486 10.485 7.05486 10.5025C7.08986 10.59 7.10736 10.6862 7.10736 10.7825C7.10736 11.2725 6.71361 11.6662 6.22361 11.6662C6.04861 11.6662 5.87361 11.6137 5.73361 11.5175C5.59361 11.6137 5.42736 11.6662 5.24361 11.6662C4.75361 11.6662 4.35986 11.2725 4.35986 10.7825C4.35986 10.6862 4.38611 10.59 4.41236 10.5025L4.43861 10.45V10.4325C4.59611 10.0125 5.11236 9.69751 5.74236 9.69751C6.37236 9.69751 6.89736 10.0125 7.05486 10.4325Z" fill="#242E30"/>
<path d="M4.17623 10.1437C4.42269 10.1437 4.62248 9.89695 4.62248 9.59251C4.62248 9.28806 4.42269 9.04126 4.17623 9.04126C3.92977 9.04126 3.72998 9.28806 3.72998 9.59251C3.72998 9.89695 3.92977 10.1437 4.17623 10.1437Z" fill="#242E30"/>
<path d="M6.78361 8.78758C6.78361 9.09383 6.58236 9.33883 6.33736 9.33883C6.09236 9.33883 5.89111 9.09383 5.89111 8.78758C5.89111 8.48133 6.09236 8.23633 6.33736 8.23633C6.58236 8.23633 6.78361 8.48133 6.78361 8.78758Z" fill="#242E30"/>
<path d="M7.3525 9.04126C7.1075 9.04126 6.90625 9.28626 6.90625 9.59251C6.90625 9.89876 7.1075 10.1437 7.3525 10.1437C7.5975 10.1437 7.79875 9.89876 7.79875 9.59251C7.79875 9.28626 7.5975 9.04126 7.3525 9.04126Z" fill="#242E30"/>
<path fill-rule="evenodd" clip-rule="evenodd" d="M14.2212 8.21885C13.8799 8.5601 13.4162 8.72635 12.9437 8.70011V8.70885C14.0112 9.10261 14.7812 10.1176 14.7812 11.3251C14.7812 12.8651 13.5299 14.1251 11.9812 14.1251C11.2549 14.1251 10.6074 13.8451 10.1087 13.3988V14.1251H1.41992V4.6926C1.41992 3.54636 2.35617 2.61011 3.50242 2.61011H8.02617C9.17242 2.61011 10.1087 3.53761 10.1087 4.68386C10.1787 4.57011 10.2662 4.45636 10.3624 4.36011C11.0012 3.72136 12.1212 3.72136 12.7599 4.36011C13.0312 4.63136 13.1887 4.9726 13.2324 5.34885C13.5912 5.3926 13.9412 5.54136 14.2212 5.82136C14.8774 6.48636 14.8774 7.5626 14.2212 8.21885ZM11.1849 5.62886C11.3162 6.2851 11.1499 6.8976 10.7299 7.3176L10.7212 7.30885L10.1087 7.85135V9.07635L11.2462 7.8601C11.6749 7.43135 12.2874 7.25636 12.9437 7.38761C13.0662 7.41385 13.1974 7.3701 13.2849 7.2826C13.4337 7.13385 13.4249 6.88886 13.2849 6.74885C13.1449 6.60886 12.8912 6.60886 12.7512 6.74885C12.4974 7.00261 12.0774 7.00261 11.8237 6.74885C11.5699 6.49511 11.5699 6.07511 11.8237 5.82136C11.9724 5.67261 11.9724 5.43636 11.8237 5.28761C11.6837 5.14761 11.4299 5.14761 11.2899 5.28761C11.2024 5.37511 11.1587 5.50635 11.1849 5.62886ZM8.02617 3.92261H3.50242C3.07367 3.92261 2.73242 4.2726 2.73242 4.6926V5.34885H8.79617V4.6926C8.79617 4.26385 8.44617 3.92261 8.02617 3.92261ZM2.73242 6.66135V12.8126H8.79617V6.66135H2.73242ZM10.4849 11.3251C10.4849 12.1476 11.1499 12.8126 11.9724 12.8126C12.7949 12.8126 13.4599 12.1476 13.4599 11.3251C13.4599 10.5026 12.7949 9.8376 11.9724 9.8376C11.1499 9.8376 10.4849 10.5026 10.4849 11.3251Z" fill="#242E30"/>
</svg>
