<svg width="16" height="16" viewBox="0 0 16 16" fill="none" xmlns="http://www.w3.org/2000/svg">
<path d="M12.594 1.88379H10.2314C9.39145 1.88379 8.7002 2.57504 8.7002 3.41504V12.585C8.7002 13.425 9.39145 14.1163 10.2314 14.1163H12.594C13.434 14.1163 14.1252 13.425 14.1252 12.585V3.41504C14.1252 2.57504 13.434 1.88379 12.594 1.88379ZM12.8127 12.585C12.8127 12.7075 12.7164 12.8038 12.594 12.8038H10.2314C10.1089 12.8038 10.0127 12.7075 10.0127 12.585V3.41504C10.0127 3.29254 10.1089 3.19629 10.2314 3.19629H12.594C12.7164 3.19629 12.8127 3.29254 12.8127 3.41504V12.585Z" fill="#242E30"/>
<path d="M5.76875 1.88379H3.40625C2.56625 1.88379 1.875 2.57504 1.875 3.41504V12.585C1.875 13.425 2.56625 14.1163 3.40625 14.1163H5.76875C6.60875 14.1163 7.3 13.425 7.3 12.585V3.41504C7.3 2.57504 6.60875 1.88379 5.76875 1.88379ZM5.9875 12.585C5.9875 12.7075 5.89125 12.8038 5.76875 12.8038H3.40625C3.28375 12.8038 3.1875 12.7075 3.1875 12.585V3.41504C3.1875 3.29254 3.28375 3.19629 3.40625 3.19629H5.76875C5.89125 3.19629 5.9875 3.29254 5.9875 3.41504V12.585Z" fill="#242E30"/>
</svg>
