<svg width="32" height="32" viewBox="0 0 32 32" fill="none" xmlns="http://www.w3.org/2000/svg">
<path d="M12.3422 4.6687H7.29346C5.84971 4.6687 4.66846 5.84995 4.66846 7.2937V24.7412C4.66846 26.185 5.84971 27.3662 7.29346 27.3662H12.3422C13.786 27.3662 14.9672 26.185 14.9672 24.7412V7.2937C14.9672 5.84995 13.786 4.6687 12.3422 4.6687ZM13.2172 24.7412C13.2172 25.2225 12.8235 25.6162 12.3422 25.6162H7.29346C6.81221 25.6162 6.41846 25.2225 6.41846 24.7412V7.2937C6.41846 6.81245 6.81221 6.4187 7.29346 6.4187H12.3422C12.8235 6.4187 13.2172 6.81245 13.2172 7.2937V24.7412Z" fill="#242E30"/>
<path d="M24.6884 4.6687H19.6396C18.1959 4.6687 17.0146 5.84995 17.0146 7.2937V24.7412C17.0146 26.185 18.1959 27.3662 19.6396 27.3662H24.6884C26.1321 27.3662 27.3134 26.185 27.3134 24.7412V7.2937C27.3134 5.84995 26.1321 4.6687 24.6884 4.6687ZM25.5634 24.7412C25.5634 25.2225 25.1696 25.6162 24.6884 25.6162H19.6396C19.1584 25.6162 18.7646 25.2225 18.7646 24.7412V7.2937C18.7646 6.81245 19.1584 6.4187 19.6396 6.4187H24.6884C25.1696 6.4187 25.5634 6.81245 25.5634 7.2937V24.7412Z" fill="#242E30"/>
</svg>
