<svg width="16" height="16" viewBox="0 0 16 16" fill="none" xmlns="http://www.w3.org/2000/svg">
<path d="M5.76875 1.88379H3.40625C2.56625 1.88379 1.875 2.57504 1.875 3.41504V12.585C1.875 13.425 2.56625 14.1163 3.40625 14.1163H5.76875C6.60875 14.1163 7.3 13.425 7.3 12.585V3.41504C7.3 2.57504 6.60875 1.88379 5.76875 1.88379ZM5.9875 12.585C5.9875 12.7075 5.89125 12.8038 5.76875 12.8038H3.40625C3.28375 12.8038 3.1875 12.7075 3.1875 12.585V3.41504C3.1875 3.29254 3.28375 3.19629 3.40625 3.19629H5.76875C5.89125 3.19629 5.9875 3.29254 5.9875 3.41504V12.585Z" fill="#242E30"/>
</svg>
