<svg width="16" height="16" viewBox="0 0 16 16" fill="none" xmlns="http://www.w3.org/2000/svg">
<g clip-path="url(#clip0_10833_378)">
<path d="M13.145 2.8375C10.7825 0.475003 6.93253 0.475003 4.57003 2.8375C4.43878 2.96875 4.31628 3.1 4.20253 3.24C3.94003 3.45875 3.60753 3.80875 3.19628 4.255C3.06503 4.40375 2.94253 4.52625 2.86378 4.605C0.501283 6.9675 0.492533 10.8088 2.84628 13.1625C4.01878 14.335 5.56753 14.9213 7.10753 14.9213C8.64753 14.9213 10.2225 14.3263 11.4038 13.145L12.8388 11.71L12.8213 11.6925C12.9263 11.5963 13.04 11.5088 13.145 11.4038C15.5075 9.04125 15.5075 5.19125 13.145 2.82875V2.8375ZM12.2175 3.765C14.0725 5.62 14.0725 8.63 12.2175 10.485C10.3625 12.34 7.35253 12.34 5.49753 10.485C3.64253 8.63 3.64253 5.62 5.49753 3.765C7.35253 1.91 10.3625 1.91 12.2175 3.765ZM3.77378 12.2438C2.36503 10.835 2.05003 8.74375 2.80253 7.01125C2.76753 8.60375 3.35378 10.205 4.57003 11.4213C5.78628 12.6375 7.30878 13.1975 8.85753 13.1975C8.92753 13.1975 9.00628 13.1975 9.07628 13.1888C7.32628 13.985 5.20003 13.6875 3.77378 12.2525V12.2438Z" fill="#252F31"/>
<path d="M11.6138 6.81875C11.6138 6.81875 11.3688 6.34625 10.94 5.82125C10.9313 5.8125 10.9225 5.795 10.9225 5.7775C10.8963 5.47125 10.8525 5.15625 10.7913 4.85C10.7913 4.815 10.765 4.78875 10.7475 4.77125C10.73 4.75375 10.695 4.73625 10.66 4.73625L10.2138 4.68375C10.2138 4.68375 10.2138 4.68375 10.205 4.68375C10.1788 4.68375 10.1525 4.6925 10.135 4.71C10.1175 4.7275 10.1088 4.75375 10.1088 4.78V4.9375C9.82877 4.68375 9.53127 4.45625 9.21627 4.26375C9.15502 4.22 9.07627 4.19375 8.99752 4.19375C8.91877 4.19375 8.84002 4.22 8.77877 4.26375C7.25627 5.20875 6.41627 6.74875 6.38127 6.8275C6.37252 6.845 6.36377 6.87125 6.36377 6.88875C6.36377 6.92375 6.37252 6.95875 6.39877 6.985C6.41627 7.01125 6.45127 7.02875 6.47752 7.0375L6.91502 7.125C6.91502 7.125 6.96752 7.15125 6.98502 7.16875C7.00252 7.195 7.02002 7.22125 7.02002 7.2475C7.02002 7.32625 7.10752 9.0675 7.21252 9.51375C7.21252 9.54875 7.23877 9.575 7.26502 9.5925C7.29127 9.61 7.32627 9.6275 7.36127 9.6275C7.61502 9.6275 7.85127 9.61875 8.10502 9.61H8.12252C8.12252 9.61 8.13127 9.61 8.14002 9.61H9.57502H10.0825C10.0825 9.61 10.0913 9.61 10.1 9.61C10.2663 9.61 10.4238 9.61 10.5988 9.61875C10.5988 9.61875 10.6688 9.61 10.695 9.58375C10.7213 9.56625 10.7388 9.53125 10.7475 9.505C10.8525 9.05 10.9313 7.3175 10.94 7.23875C10.94 7.2125 10.9575 7.1775 10.975 7.16C10.9925 7.13375 11.0188 7.11625 11.0538 7.11625L11.4913 7.02875C11.4913 7.02875 11.5525 7.0025 11.57 6.97625C11.5875 6.95 11.605 6.915 11.605 6.88C11.605 6.8625 11.605 6.83625 11.5875 6.81875H11.6138Z" fill="#252F31"/>
</g>
<defs>
<clipPath id="clip0_10833_378">
<rect width="14" height="14" fill="white" transform="translate(1 1)"/>
</clipPath>
</defs>
</svg>
