<?xml version="1.0" encoding="UTF-8"?>
<svg id="Grid" xmlns="http://www.w3.org/2000/svg" viewBox="0 0 32 32">
  <path class="cls-1" d="M26.5,11.62h-4.46l-5.35-6.68h-1.37l-5.36,6.68h-4.46c-.7,0-1.36.28-1.86.77-.49.49-.77,1.16-.77,1.86v10.5c0,.7.28,1.36.77,1.86.49.49,1.16.77,1.86.77h21c.7,0,1.36-.28,1.86-.77.49-.49.77-1.16.77-1.86v-10.5c0-.7-.28-1.36-.77-1.86-.49-.49-1.16-.77-1.86-.77ZM16,6.9l3.79,4.73h-7.58l3.79-4.73ZM27.38,24.75c0,.23-.09.45-.26.62s-.39.26-.62.26H5.5c-.23,0-.45-.09-.62-.26-.16-.16-.26-.39-.26-.62v-10.5c0-.23.09-.45.26-.62.16-.16.39-.26.62-.26h21c.23,0,.45.09.62.26s.26.39.26.62v10.5Z"/>
</svg>