<?xml version="1.0" encoding="UTF-8"?>
<svg id="Grid" xmlns="http://www.w3.org/2000/svg" viewBox="0 0 16 16">
  <path class="cls-1" d="M13.25,4.72h-2.13l-2.62-3.26h-1.01l-2.62,3.26h-2.12c-.41,0-.79.16-1.08.45-.29.29-.45.67-.45,1.08v5.25c0,.41.16.79.45,1.08.29.29.67.45,1.08.45h10.5c.41,0,.79-.16,1.08-.45.29-.29.45-.67.45-1.08v-5.25c0-.41-.16-.79-.45-1.08-.29-.29-.67-.45-1.08-.45ZM8,2.97l1.44,1.75h-2.89l1.44-1.75ZM13.47,11.5c0,.06-.02.11-.06.15-.04.04-.1.06-.15.06H2.75c-.06,0-.11-.02-.15-.06-.04-.04-.06-.1-.06-.15v-5.25c0-.06.02-.11.06-.15.04-.04.1-.06.15-.06h10.5c.06,0,.11.02.15.06.04.04.06.1.06.15v5.25Z"/>
</svg>