<?xml version="1.0" encoding="UTF-8"?>
<svg id="Grid" xmlns="http://www.w3.org/2000/svg" viewBox="0 0 32 32">
  <defs>
    <style>
      .cls-1 {
        fill: #242e30;
      }
    </style>
  </defs>
  <path class="cls-1" d="M26.7,11.4h-4.5l-5.4-6.7h-1.4l-5.4,6.7h-4.5c-.7,0-1.4.3-1.9.8s-.8,1.2-.8,1.9v10.5c0,.7.3,1.4.8,1.9s1.2.8,1.9.8h21c.7,0,1.4-.3,1.9-.8s.8-1.2.8-1.9v-10.5c0-.7-.3-1.4-.8-1.9s-1.2-.8-1.9-.8h.2ZM16.2,6.7l3.8,4.7h-7.6s3.8-4.7,3.8-4.7ZM27.6,24.6c0,.2,0,.5-.3.6s-.4.3-.6.3H5.7c-.2,0-.5,0-.6-.3-.2-.2-.3-.4-.3-.6v-10.5c0-.2,0-.5.3-.6.2-.2.4-.3.6-.3h21c.2,0,.5,0,.6.3s.3.4.3.6v10.5Z"/>
</svg>