<svg width="32" height="24" viewBox="0 0 32 24" fill="none" xmlns="http://www.w3.org/2000/svg">
<rect width="32" height="24" rx="4" fill="#F36805"/>
<rect x="0.5" y="0.5" width="31" height="23" rx="3.5" stroke="white" stroke-opacity="0.01"/>
<path d="M22.2241 5.77431C19.2959 2.84606 14.5288 2.84606 11.6005 5.77431L9.77431 7.60054C6.84606 10.5288 6.84606 15.2959 9.77431 18.2241C11.2416 19.6914 13.1623 20.4219 15.083 20.4219C17.0036 20.4219 18.9306 19.6914 20.3916 18.2241C20.4923 18.1234 20.6561 17.9722 20.845 17.7959C21.4873 17.1976 21.9974 16.7128 22.243 16.3727C25.1461 13.4444 25.1398 8.69627 22.2178 5.78061L22.2241 5.77431ZM16.9155 4.83601C18.515 4.83601 20.1145 5.44685 21.3362 6.66224C23.7733 9.0993 23.7733 13.0666 21.3362 15.5037C18.8991 17.9407 14.9318 17.9407 12.4948 15.5037C10.0577 13.0666 10.0577 9.0993 12.4948 6.66224C13.7164 5.44056 15.316 4.83601 16.9155 4.83601ZM10.6685 17.3299C8.74155 15.4029 8.34482 12.525 9.46575 10.195C9.20756 12.4054 9.91286 14.7039 11.6005 16.3979C13.0678 17.8652 14.9885 18.5957 16.9092 18.5957C17.2051 18.5957 17.5011 18.5705 17.7971 18.539C15.4671 19.6599 12.5892 19.2632 10.6622 17.3362L10.6685 17.3299Z" fill="white"/>
<path d="M20.0966 10.827C20.0786 10.7728 19.7959 10.2495 19.2665 9.59376C19.2545 9.57571 19.2424 9.55766 19.2424 9.53962C19.2124 9.15462 19.1582 8.77563 19.086 8.39665C19.08 8.36055 19.0559 8.32446 19.0319 8.3004C19.0018 8.27633 18.9657 8.25829 18.9296 8.25227L18.3822 8.1861H18.3702C18.3401 8.1861 18.31 8.19813 18.2859 8.22219C18.2619 8.24626 18.2499 8.27032 18.2499 8.30641V8.49891C17.907 8.1861 17.54 7.90938 17.149 7.66274C17.0708 7.6086 16.9745 7.57852 16.8783 7.57852C16.782 7.57852 16.6858 7.6086 16.6076 7.66274C14.7247 8.82977 13.69 10.7247 13.6479 10.833C13.6359 10.857 13.6299 10.8871 13.6299 10.9112C13.6299 10.9533 13.6419 10.9954 13.672 11.0255C13.696 11.0556 13.7321 11.0796 13.7742 11.0916L14.3156 11.1939C14.3517 11.2059 14.3818 11.224 14.4059 11.2541C14.4299 11.2841 14.442 11.3202 14.448 11.3563C14.448 11.4526 14.5563 13.6002 14.6826 14.1596C14.6946 14.2017 14.7187 14.2378 14.7488 14.2619C14.7788 14.2859 14.8209 14.298 14.8631 14.298C15.1819 14.292 15.4706 14.2859 15.7834 14.2799H15.8075C15.8075 14.2799 15.8256 14.2799 15.8316 14.2799C15.8376 14.2799 15.8436 14.2739 15.8496 14.2679C15.8496 14.2679 15.8616 14.2559 15.8616 14.2499C15.8616 14.2438 15.8616 14.2318 15.8616 14.2258C15.8496 14.0393 15.8195 13.6062 15.8015 13.155C15.8015 13.143 15.8015 13.1309 15.8015 13.1189C15.8015 13.1009 15.7955 13.0828 15.7834 13.0648C15.7714 13.0467 15.7594 13.0347 15.7474 13.0227C15.6631 12.9745 15.597 12.9024 15.5488 12.8241C15.5007 12.7399 15.4706 12.6497 15.4646 12.5534C15.4345 11.8015 15.4225 10.9292 15.4646 10.2495C15.4646 10.2194 15.4766 10.1953 15.5007 10.1773C15.5188 10.1592 15.5488 10.1472 15.5789 10.1472C15.609 10.1472 15.6331 10.1592 15.6511 10.1773C15.6691 10.1953 15.6812 10.2254 15.6812 10.2495C15.6571 10.7127 15.6511 11.2481 15.6631 11.7774C15.6631 11.7955 15.6631 11.8135 15.6752 11.8256C15.6812 11.8436 15.6932 11.8556 15.7052 11.8677C15.7173 11.8797 15.7293 11.8917 15.7474 11.8977C15.7654 11.9038 15.7774 11.9098 15.7955 11.9038C15.8135 11.9038 15.8316 11.9038 15.8436 11.8917C15.8616 11.8857 15.8737 11.8737 15.8857 11.8616C15.8977 11.8496 15.9098 11.8376 15.9158 11.8195C15.9218 11.8015 15.9278 11.7895 15.9218 11.7714C15.9098 11.236 15.9158 10.7006 15.9399 10.2434C15.9399 10.2134 15.9519 10.1893 15.9759 10.1652C15.994 10.1472 16.0241 10.1352 16.0541 10.1352C16.0842 10.1352 16.1083 10.1472 16.1324 10.1713C16.1504 10.1893 16.1624 10.2194 16.1624 10.2495C16.1384 10.7127 16.1324 11.242 16.1444 11.7714C16.1444 11.8075 16.1564 11.8376 16.1865 11.8616C16.2106 11.8857 16.2466 11.8977 16.2767 11.8977C16.3128 11.8977 16.3429 11.8857 16.367 11.8556C16.391 11.8316 16.4031 11.7955 16.4031 11.7654C16.391 11.236 16.397 10.6946 16.4211 10.2434C16.4211 10.2134 16.4331 10.1893 16.4572 10.1652C16.4752 10.1472 16.5053 10.1352 16.5354 10.1352C16.5655 10.1352 16.5895 10.1472 16.6136 10.1713C16.6316 10.1893 16.6437 10.2194 16.6437 10.2495C16.6076 10.9232 16.6196 11.7594 16.6437 12.4933C16.6437 12.4933 16.6437 12.5053 16.6437 12.5113C16.6437 12.6136 16.6196 12.7099 16.5775 12.7941C16.5354 12.8783 16.4692 12.9505 16.391 13.0046C16.379 13.0166 16.367 13.0287 16.3549 13.0407C16.3489 13.0527 16.3429 13.0708 16.3429 13.0888C16.3429 13.0888 16.3309 13.2031 16.379 13.7506C16.4031 13.9912 16.4211 14.1536 16.4271 14.2318C16.4271 14.2438 16.4331 14.2559 16.4452 14.2679C16.4572 14.2799 16.4692 14.2799 16.4813 14.2799H16.5294C16.6316 14.2799 16.7399 14.2799 16.8542 14.2799H16.8963H17.3054H17.6122C17.6122 14.2799 17.6423 14.2799 17.6483 14.2679C17.6603 14.2559 17.6663 14.2438 17.6663 14.2318C17.7385 13.5761 17.7566 13.2091 17.7566 13.2091C17.7566 13.1911 17.7506 13.1791 17.7385 13.167C17.7265 13.155 17.7145 13.149 17.6964 13.149L17.3234 13.0949C17.3234 13.0949 17.2753 13.0828 17.2573 13.0648C17.2392 13.0467 17.2272 13.0287 17.2152 13.0046C17.2152 12.9866 17.2091 12.9685 17.2152 12.9445C17.3656 10.7608 18.0814 10.0209 18.0814 10.0209C18.0934 10.0088 18.1055 9.9968 18.1175 9.99079C18.1356 9.97876 18.1596 9.96673 18.1837 9.96673C18.2077 9.96673 18.2318 9.97274 18.2499 9.98477C18.2679 9.9968 18.2859 10.0149 18.292 10.0389C18.292 10.057 18.298 10.075 18.304 10.0931C18.3641 10.7788 18.3341 11.9459 18.298 12.8602C18.2679 13.6363 18.2258 14.2438 18.2258 14.2438C18.2258 14.2438 18.2258 14.2559 18.2258 14.2619C18.2258 14.2619 18.2258 14.2739 18.2378 14.2739C18.2378 14.2739 18.2499 14.2799 18.2499 14.2859C18.2499 14.2859 18.2619 14.2859 18.2679 14.2859C18.4724 14.2859 18.6709 14.292 18.8875 14.298C18.9296 14.298 18.9717 14.2859 19.0018 14.2619C19.0319 14.2378 19.0559 14.2017 19.068 14.1596C19.1943 13.6002 19.2966 11.4526 19.3026 11.3563C19.3026 11.3202 19.3206 11.2841 19.3447 11.2541C19.3688 11.224 19.3988 11.2059 19.4349 11.1939L19.9763 11.0916C20.0184 11.0796 20.0545 11.0556 20.0786 11.0255C20.1027 10.9954 20.1207 10.9533 20.1207 10.9112C20.1207 10.8871 20.1147 10.857 20.1027 10.833L20.0966 10.827Z" fill="white"/>
</svg>
