<svg width="32" height="24" viewBox="0 0 32 24" fill="none" xmlns="http://www.w3.org/2000/svg">
<rect x="0.5" y="0.5" width="31" height="23" rx="3.5" fill="white"/>
<rect x="0.5" y="0.5" width="31" height="23" rx="3.5" stroke="#DBD9D7"/>
<path d="M11.7486 6.50288C11.7083 6.50864 11.6651 6.5144 11.6247 6.52016C11.2215 6.56913 10.8586 6.71891 10.5302 6.95509C10.4611 7.00406 10.3977 7.0559 10.3257 7.11063C10.3199 7.09623 10.3142 7.08183 10.3142 7.07031C10.3027 6.99254 10.2911 6.91189 10.2767 6.83412C10.2566 6.70162 10.1903 6.64402 10.0578 6.64402H9.7266C9.52786 6.64402 9.49041 6.68146 9.49041 6.8802V12.9087C9.49041 12.9376 9.49041 12.9664 9.49329 12.9952C9.49905 13.0816 9.5509 13.1363 9.63443 13.1392C9.83605 13.1421 10.0406 13.1421 10.2422 13.1392C10.3257 13.1392 10.3776 13.0816 10.3862 12.9952C10.3891 12.9664 10.3891 12.9376 10.3891 12.9087V10.8234C10.4208 10.8493 10.438 10.8637 10.4524 10.8781C10.968 11.3073 11.5614 11.4484 12.2094 11.3217C12.797 11.2065 13.206 10.8464 13.471 10.3164C13.6727 9.91608 13.7562 9.48979 13.7677 9.04622C13.7821 8.55368 13.7331 8.06978 13.5344 7.61181C13.2896 7.04726 12.8834 6.6757 12.2699 6.54897C12.1778 6.5288 12.0827 6.52016 11.9877 6.50576C11.907 6.50288 11.8292 6.50288 11.7486 6.50288ZM10.3833 7.70974C10.3833 7.66654 10.3948 7.64061 10.4323 7.61469C10.8269 7.34106 11.2618 7.19704 11.7457 7.23449C12.1749 7.26617 12.5263 7.47643 12.7106 7.98049C12.823 8.28869 12.8518 8.60841 12.8518 8.931C12.8518 9.23056 12.8287 9.52435 12.7365 9.81239C12.5407 10.4259 12.0914 10.6592 11.5095 10.6333C11.1063 10.616 10.7549 10.4605 10.4323 10.2329C10.3977 10.207 10.3833 10.184 10.3833 10.1379C10.3862 9.73174 10.3833 9.32849 10.3833 8.92236C10.3833 8.51912 10.3862 8.11587 10.3833 7.70974ZM16.3082 6.50288C16.2794 6.50576 16.2506 6.51152 16.2246 6.5144C15.9424 6.5288 15.6659 6.56337 15.3922 6.6325C15.2165 6.67858 15.0466 6.74195 14.8766 6.79956C14.7729 6.83412 14.7211 6.90901 14.724 7.02134C14.7269 7.11639 14.7211 7.21144 14.724 7.30649C14.7269 7.44475 14.7845 7.48219 14.9198 7.44763C15.1445 7.39002 15.3692 7.32666 15.5967 7.28345C15.951 7.2172 16.3082 7.1884 16.6682 7.24313C16.8554 7.27193 17.0311 7.32666 17.1521 7.48508C17.2587 7.62333 17.299 7.78751 17.3048 7.95745C17.3134 8.19652 17.3105 8.43559 17.3134 8.67465C17.3134 8.68618 17.3105 8.70058 17.3076 8.71498C17.2932 8.7121 17.2817 8.71498 17.2702 8.7121C16.9678 8.64009 16.6624 8.58824 16.3485 8.57096C16.023 8.55368 15.7004 8.57384 15.3893 8.6833C15.0178 8.81291 14.7182 9.03758 14.5425 9.4005C14.4071 9.68277 14.387 9.98233 14.4302 10.2848C14.4878 10.688 14.6894 10.9991 15.0466 11.1978C15.3893 11.3879 15.7609 11.411 16.1382 11.3534C16.5732 11.2871 16.9591 11.1028 17.299 10.8234C17.3105 10.8119 17.3249 10.8032 17.3451 10.7917C17.3624 10.9012 17.3768 11.0048 17.3969 11.1085C17.4142 11.1978 17.4689 11.2554 17.5525 11.2583C17.708 11.2612 17.8664 11.2612 18.022 11.2583C18.0997 11.2554 18.1516 11.2036 18.1602 11.1229C18.1631 11.097 18.1631 11.0682 18.1631 11.0423V7.98913C18.1631 7.86528 18.1573 7.74143 18.1372 7.61757C18.0825 7.24601 17.924 6.94069 17.5899 6.74195C17.3969 6.62673 17.1838 6.56913 16.962 6.53744C16.8583 6.52304 16.7546 6.5144 16.6509 6.5C16.5386 6.50288 16.4234 6.50288 16.3082 6.50288ZM17.3163 10.1811C17.3163 10.2185 17.3048 10.2444 17.2731 10.2675C16.9505 10.5008 16.5962 10.6563 16.1958 10.6967C16.0317 10.7139 15.8675 10.7082 15.7119 10.6448C15.5305 10.5728 15.4124 10.4461 15.3548 10.2617C15.2972 10.0774 15.2972 9.88728 15.3519 9.70293C15.4239 9.46387 15.5938 9.32849 15.8243 9.2536C16.0576 9.17871 16.2995 9.16719 16.5386 9.19023C16.7805 9.2104 17.0167 9.25648 17.2587 9.28817C17.3048 9.29393 17.3192 9.31697 17.3192 9.36305C17.3163 9.50131 17.3192 9.63669 17.3192 9.77494C17.3163 9.91032 17.3134 10.0457 17.3163 10.1811ZM20.9974 10.3597C20.6258 9.33137 20.2542 8.30021 19.8827 7.27193C19.8251 7.10775 19.7617 6.94645 19.7012 6.78515C19.6695 6.70162 19.609 6.6469 19.5169 6.6469C19.298 6.64402 19.079 6.64114 18.8573 6.64402C18.7853 6.64402 18.7507 6.70162 18.7651 6.77363C18.7795 6.83412 18.7968 6.89173 18.8198 6.94933C19.3844 8.3463 19.9518 9.74614 20.5221 11.1402C20.5711 11.2583 20.5826 11.3591 20.5279 11.4801C20.4328 11.6904 20.3579 11.9122 20.26 12.1224C20.1736 12.3096 20.0296 12.4508 19.8222 12.5055C19.6753 12.5458 19.5284 12.5516 19.3786 12.5372C19.3066 12.5314 19.2346 12.5141 19.1626 12.5084C19.0646 12.5026 19.0157 12.5458 19.0128 12.6466C19.0099 12.7417 19.0099 12.8367 19.0128 12.9318C19.0157 13.0902 19.0704 13.1622 19.2259 13.1881C19.3872 13.2169 19.5514 13.2429 19.7127 13.2457C20.2053 13.2573 20.597 13.0585 20.8505 12.6294C20.9513 12.4594 21.0434 12.2808 21.1154 12.0994C21.7981 10.3769 22.4721 8.65161 23.149 6.92629C23.1691 6.87444 23.1864 6.8226 23.195 6.76787C23.2066 6.68722 23.1691 6.64114 23.0885 6.64114C22.8984 6.63826 22.7054 6.64114 22.5153 6.64114C22.4087 6.64114 22.3338 6.68722 22.2935 6.79091C22.2791 6.83124 22.2618 6.86868 22.2474 6.90901C21.9133 7.86816 21.5792 8.82731 21.2451 9.78934C21.1731 9.99673 21.0982 10.207 21.0233 10.4288C21.0118 10.3971 21.006 10.3798 20.9974 10.3597Z" fill="#333E47"/>
<path d="M7.19769 13.9975C7.26394 13.8765 7.34747 13.8564 7.47709 13.9255C7.77664 14.0868 8.07043 14.2539 8.37575 14.4065C9.54805 14.9941 10.7722 15.4319 12.0453 15.7401C12.6473 15.8841 13.2522 15.9993 13.8657 16.08C14.773 16.201 15.686 16.2528 16.602 16.2298C17.1032 16.2182 17.6043 16.1779 18.1026 16.1203C19.7272 15.9273 21.2969 15.5212 22.8062 14.8875C22.8898 14.853 22.9762 14.8299 23.0683 14.853C23.2613 14.9048 23.3276 15.1122 23.1864 15.2533C23.1058 15.334 23.005 15.4002 22.9099 15.4665C22.0257 16.0742 21.0607 16.5149 20.0411 16.8462C19.3325 17.0737 18.6125 17.2436 17.878 17.3531C17.371 17.428 16.8583 17.4798 16.3456 17.4914C16.3226 17.4914 16.2967 17.4971 16.2736 17.5H15.6659C15.6428 17.4971 15.6169 17.4914 15.5939 17.4914C15.4902 17.4856 15.3865 17.4827 15.2857 17.4798C14.7989 17.4597 14.315 17.4049 13.834 17.3272C13.0448 17.1976 12.2728 16.9988 11.5182 16.7252C9.95993 16.1606 8.56297 15.3253 7.32443 14.2193C7.27258 14.1732 7.23802 14.1098 7.19769 14.0551V13.9975ZM24.8023 13.9082C24.7735 13.7642 24.664 13.7095 24.5402 13.6691C24.3443 13.6029 24.1398 13.5741 23.9353 13.5568C23.558 13.5251 23.1807 13.5424 22.8062 13.6115C22.3943 13.6893 22.0026 13.8218 21.6541 14.0609C21.6138 14.0897 21.5734 14.1214 21.5475 14.1617C21.5274 14.1934 21.5216 14.2423 21.5331 14.2769C21.5446 14.3201 21.5936 14.3316 21.6368 14.3287C21.657 14.3287 21.68 14.3287 21.7002 14.3259C21.9248 14.3028 22.1466 14.2769 22.3713 14.2539C22.6997 14.2222 23.0309 14.202 23.3593 14.2279C23.4975 14.2366 23.6386 14.2683 23.774 14.3057C23.9209 14.346 23.9872 14.4555 23.9929 14.6053C24.0044 14.8357 23.9526 15.0575 23.8921 15.2764C23.774 15.7199 23.6041 16.1491 23.437 16.5754C23.4255 16.6042 23.414 16.633 23.4082 16.6618C23.3938 16.7453 23.4428 16.8001 23.5263 16.7799C23.5753 16.7684 23.63 16.7425 23.6646 16.7079C23.7913 16.584 23.9209 16.4602 24.0304 16.3219C24.3991 15.8496 24.6151 15.3052 24.7418 14.7205C24.7649 14.6168 24.7821 14.5102 24.8023 14.4065V13.9082Z" fill="#F79C34"/>
</svg>
