<svg width="32" height="24" viewBox="0 0 32 24" fill="none" xmlns="http://www.w3.org/2000/svg">
<rect x="0.5" y="0.5" width="31" height="23" rx="3.5" fill="white"/>
<rect x="0.5" y="0.5" width="31" height="23" rx="3.5" stroke="#DBD9D7"/>
<path fill-rule="evenodd" clip-rule="evenodd" d="M6.62674 9L4 14.9864H7.14458L7.53441 14.0319H8.42549L8.81533 14.9864H12.2766V14.2579L12.5851 14.9864H14.3755L14.6839 14.2425V14.9864H21.8825L22.7578 14.0567L23.5774 14.9864L27.2747 14.9941L24.6397 12.0099L27.2747 9H23.6347L22.7827 9.91252L21.9889 9H14.1578L13.4853 10.5451L12.7971 9H9.65909V9.70371L9.31001 9H6.62674ZM7.23519 9.85009H8.76801L10.5103 13.9095V9.85009H12.1895L13.5352 12.7607L14.7755 9.85009H16.4462V14.1458H15.4296L15.4213 10.7797L13.9392 14.1458H13.0298L11.5393 10.7797V14.1458H9.44794L9.05145 13.1827H6.90936L6.51369 14.1449H5.39314L7.23519 9.85009ZM21.5101 9.85009H17.3763V14.1432H21.4461L22.7578 12.7204L24.0221 14.1432H25.3438L23.4228 12.0091L25.3438 9.85009H24.0795L22.7744 11.2566L21.5101 9.85009ZM7.98086 10.5769L7.27513 12.2925H8.68577L7.98086 10.5769ZM18.3971 11.5237V10.7395V10.7387H20.9765L22.1019 11.9928L20.9266 13.2538H18.3971V12.3977H20.6523V11.5237H18.3971Z" fill="#1F72CD"/>
</svg>
