<svg width="32" height="24" viewBox="0 0 32 24" fill="none" xmlns="http://www.w3.org/2000/svg">
<rect x="0.5" y="0.5" width="31" height="23" rx="3.5" fill="white"/>
<rect x="0.5" y="0.5" width="31" height="23" rx="3.5" stroke="#DBD9D7"/>
<g clip-path="url(#clip0_10207_11498)">
<path d="M3.42961 2.71875H28.5708C29.0841 2.71875 29.5004 3.13451 29.5004 3.64705V20.3534C29.5004 20.8659 29.0841 21.2817 28.5708 21.2817H3.42961C2.91634 21.2817 2.5 20.8659 2.5 20.3534V3.64705C2.5 3.13451 2.91634 2.71875 3.42961 2.71875Z" fill="white"/>
<path d="M4.9042 18.8259V15.6248H5.89328C6.61229 15.6248 7.07489 15.8945 7.07489 16.4523C7.07489 16.7678 6.92818 16.9873 6.72244 17.1153C7.02026 17.2526 7.19429 17.5179 7.19429 17.8791C7.19429 18.5241 6.72244 18.8259 5.98977 18.8259H4.90464H4.9042ZM5.54082 16.9556H6.01268C6.30125 16.9556 6.42461 16.814 6.42461 16.5531C6.42461 16.2741 6.20036 16.1826 5.89813 16.1826H5.54082V16.9556ZM5.54082 18.268H5.9347C6.31931 18.268 6.54357 18.1721 6.54357 17.8703C6.54357 17.5685 6.35104 17.4497 5.98933 17.4497H5.54038V18.2684L5.54082 18.268ZM8.42833 18.8809C7.80096 18.8809 7.48507 18.5747 7.48507 18.1629C7.48507 17.7101 7.85603 17.4449 8.40542 17.4405C8.542 17.4431 8.67814 17.455 8.81295 17.477V17.3674C8.81295 17.0885 8.65258 16.9561 8.34594 16.9561C8.13932 16.9534 7.93401 16.9908 7.74148 17.0656L7.62693 16.5715C7.82387 16.4893 8.13976 16.4343 8.41908 16.4343C9.09227 16.4343 9.42667 16.7911 9.42667 17.4083V18.6798C9.23898 18.7757 8.88653 18.8809 8.42833 18.8809ZM8.81295 18.3639V17.8747C8.70633 17.8509 8.59707 17.8386 8.48781 17.8382C8.27722 17.8382 8.11244 17.9204 8.11244 18.1356C8.11244 18.3278 8.2499 18.4282 8.49266 18.4282C8.60324 18.4317 8.71294 18.4097 8.81339 18.3639H8.81295ZM9.87164 18.8259V16.6353C10.2008 16.5034 10.5519 16.4352 10.9065 16.4343C11.5753 16.4343 11.96 16.7634 11.96 17.3718V18.8259H11.3282V17.4176C11.3282 17.1021 11.1815 16.9556 10.9021 16.9556C10.7634 16.9539 10.6259 16.9816 10.499 17.0379V18.8259H9.87164ZM14.1681 16.5715L14.0491 17.07C13.8857 16.9992 13.7099 16.9605 13.5315 16.9556C13.1605 16.9556 12.9592 17.2161 12.9592 17.6464C12.9592 18.1175 13.1698 18.3595 13.5636 18.3595C13.7394 18.3547 13.9121 18.3142 14.0721 18.2407L14.1729 18.7484C13.9654 18.8404 13.7403 18.8857 13.5134 18.8809C12.7534 18.8809 12.3137 18.4097 12.3137 17.6644C12.3137 16.9191 12.7486 16.4343 13.4768 16.4343C13.7143 16.433 13.9496 16.4796 14.1681 16.5715ZM15.5334 18.8809C14.8281 18.8809 14.3884 18.3916 14.3884 17.6552C14.3884 16.9187 14.8281 16.4343 15.5334 16.4343C16.2388 16.4343 16.6736 16.9235 16.6736 17.6552C16.6736 18.3912 16.2432 18.8809 15.5334 18.8809ZM15.5334 18.3595C15.8586 18.3595 16.0282 18.0898 16.0282 17.6552C16.0282 17.2205 15.8586 16.9556 15.5334 16.9556C15.2083 16.9556 15.0343 17.2253 15.0343 17.6552C15.0343 18.0894 15.2127 18.3595 15.5334 18.3595ZM17.0393 18.8259V16.6353C17.3684 16.5034 17.7196 16.4352 18.0742 16.4343C18.743 16.4343 19.1276 16.7634 19.1276 17.3718V18.8259H18.4958V17.4176C18.4958 17.1021 18.3491 16.9556 18.0698 16.9556C17.931 16.9539 17.7936 16.9816 17.6667 17.0379V18.8259H17.0393ZM20.5529 18.8809C20.0079 18.8809 19.7286 18.5835 19.7286 17.9798V16.9921H19.4171V16.4893H19.7286V15.9816L20.3603 15.9495V16.4888H20.8688V16.9917H20.3603V17.9702C20.3603 18.2355 20.47 18.3586 20.6762 18.3586C20.7577 18.3586 20.8392 18.3494 20.919 18.3314L20.9511 18.8391C20.8203 18.8681 20.6868 18.8817 20.5529 18.8804V18.8809ZM22.1477 18.8809C21.5204 18.8809 21.2045 18.5747 21.2045 18.1629C21.2045 17.7101 21.5754 17.4449 22.1248 17.4405C22.2614 17.4431 22.3975 17.455 22.5324 17.477V17.3674C22.5324 17.0885 22.372 16.9561 22.0653 16.9561C21.8587 16.9534 21.6534 16.9908 21.4609 17.0656L21.3463 16.5715C21.5433 16.4893 21.8592 16.4343 22.1385 16.4343C22.8117 16.4343 23.1461 16.7911 23.1461 17.4083V18.6798C22.9584 18.7757 22.6055 18.8809 22.1477 18.8809ZM22.5324 18.3639V17.8747C22.4257 17.8509 22.3165 17.8386 22.2072 17.8382C21.9966 17.8382 21.8318 17.9204 21.8318 18.1356C21.8318 18.3278 21.9693 18.4282 22.2121 18.4282C22.3222 18.4317 22.4319 18.4097 22.5328 18.3639H22.5324ZM25.308 16.5715L25.189 17.07C25.0256 16.9992 24.8498 16.9605 24.6713 16.9556C24.3004 16.9556 24.099 17.2161 24.099 17.6464C24.099 18.1175 24.3096 18.3595 24.7035 18.3595C24.8793 18.3547 25.052 18.3142 25.2119 18.2407L25.3128 18.7484C25.1053 18.8404 24.8802 18.8857 24.6533 18.8809C23.8933 18.8809 23.4536 18.4097 23.4536 17.6644C23.4536 16.9191 23.8884 16.4343 24.6167 16.4343C24.8542 16.433 25.0894 16.4796 25.3084 16.5715H25.308ZM26.6975 18.8809C26.1525 18.8809 25.8732 18.5835 25.8732 17.9798V16.9921H25.5617V16.4893H25.8732V15.9816L26.505 15.9495V16.4888H27.0134V16.9917H26.505V17.9702C26.505 18.2355 26.6147 18.3586 26.8209 18.3586C26.9024 18.3586 26.9839 18.3494 27.0636 18.3314L27.0958 18.8391C26.9649 18.8681 26.8315 18.8817 26.6975 18.8804V18.8809Z" fill="#1E3764"/>
<path d="M9.31212 14.0242C12.6561 14.0242 14.328 11.7981 16 9.5719H4.9042V14.0242H9.31212Z" fill="url(#paint0_linear_10207_11498)"/>
<path d="M22.6879 5.11957C19.3439 5.11957 17.672 7.34573 16 9.57189H27.0958V5.11957H22.6879Z" fill="url(#paint1_linear_10207_11498)"/>
</g>
<defs>
<linearGradient id="paint0_linear_10207_11498" x1="7.14847" y1="12.0035" x2="15.2628" y2="8.98548" gradientUnits="userSpaceOnUse">
<stop stop-color="#005AB9"/>
<stop offset="1" stop-color="#1E3764"/>
</linearGradient>
<linearGradient id="paint1_linear_10207_11498" x1="16.6719" y1="9.95773" x2="25.2878" y2="7.01409" gradientUnits="userSpaceOnUse">
<stop stop-color="#FBA900"/>
<stop offset="1" stop-color="#FFD800"/>
</linearGradient>
<clipPath id="clip0_10207_11498">
<rect width="27" height="18.5625" fill="white" transform="translate(2.5 2.71875)"/>
</clipPath>
</defs>
</svg>
