<svg width="32" height="24" viewBox="0 0 32 24" fill="none" xmlns="http://www.w3.org/2000/svg">
<rect x="0.5" y="0.5" width="31" height="23" rx="3.5" fill="white"/>
<rect x="0.5" y="0.5" width="31" height="23" rx="3.5" stroke="#DBD9D7"/>
<g clip-path="url(#clip0_13183_8882)">
<path fill-rule="evenodd" clip-rule="evenodd" d="M24 4.94V6.7572C24 8.92245 16.2469 8.72312 16.0864 10.8084H15.9146C15.7644 8.72312 8.00103 8.92548 8.00103 6.7572V4.94H8.17595C8.17595 6.68232 15.9218 6.87153 15.9218 8.74336H16.0926C16.0926 6.87153 23.8426 6.68232 23.8426 4.94H24ZM23.8385 9.06309C23.8385 10.8044 16.0926 10.9946 16.0926 12.8664H15.9218C15.9218 10.9946 8.17595 10.8044 8.17595 9.06309H8.00103V10.8803C8.00103 13.0486 15.7603 12.8462 15.9146 14.9346H16.0864C16.2439 12.8462 24 13.0455 24 10.8803V9.06309H23.8385ZM23.8385 13.1862C23.8385 14.9275 16.0926 15.1177 16.0926 16.9926H15.9208C15.9208 15.1177 8.17492 14.9275 8.17492 13.1862H8V15.0034C8 17.1787 15.7633 16.9723 15.9136 19.0576H16.0854C16.2469 16.9723 23.999 17.1686 23.999 15.0034V13.1862H23.8385Z" fill="#0000FF"/>
</g>
<defs>
<clipPath id="clip0_13183_8882">
<rect width="16" height="16" fill="white" transform="translate(8 4)"/>
</clipPath>
</defs>
</svg>
