<svg width="32" height="24" viewBox="0 0 32 24" fill="none" xmlns="http://www.w3.org/2000/svg">
<rect width="32" height="24" rx="4" fill="white"/>
<rect width="32" height="24" rx="4" fill="#273879"/>
<rect x="0.5" y="0.5" width="31" height="23" rx="3.5" stroke="white" stroke-opacity="0.01"/>
<g clip-path="url(#clip0_13202_9284)">
<path d="M17.5631 7.15234C17.5632 6.93656 17.52 6.72295 17.436 6.5242C17.352 6.32544 17.2289 6.14559 17.0741 5.99529C16.9193 5.84498 16.7358 5.7273 16.5347 5.64922C16.3335 5.57114 16.1187 5.53425 15.903 5.54074C15.4724 5.54074 15.0594 5.7118 14.7549 6.01631C14.4504 6.32081 14.2793 6.73382 14.2793 7.16445C14.2793 7.59509 14.4504 8.00809 14.7549 8.3126C15.0594 8.61711 15.4724 8.78819 15.903 8.78819C16.1208 8.79477 16.3376 8.75714 16.5404 8.67757C16.7432 8.598 16.9277 8.47813 17.0829 8.32523C17.238 8.17233 17.3606 7.98957 17.4431 7.78798C17.5257 7.58639 17.5665 7.37015 17.5631 7.15234Z" fill="white"/>
<path d="M17.5631 16.8462C17.5665 16.6284 17.5257 16.4121 17.4431 16.2106C17.3606 16.009 17.238 15.8262 17.0829 15.6733C16.9277 15.5204 16.7432 15.4005 16.5404 15.321C16.3376 15.2414 16.1208 15.2038 15.903 15.2103C15.4724 15.2103 15.0594 15.3814 14.7549 15.6859C14.4504 15.9904 14.2793 16.4034 14.2793 16.8341C14.2793 17.2647 14.4504 17.6777 14.7549 17.9822C15.0594 18.2867 15.4724 18.4578 15.903 18.4578C16.1187 18.4643 16.3335 18.4274 16.5347 18.3493C16.7358 18.2712 16.9193 18.1535 17.0741 18.0032C17.2289 17.8529 17.352 17.6731 17.436 17.4743C17.52 17.2756 17.5632 17.062 17.5631 16.8462Z" fill="white"/>
<path d="M9.74744 11.9993C9.74905 11.7856 9.70815 11.5737 9.62713 11.376C9.5461 11.1783 9.42655 10.9986 9.27545 10.8475C9.12436 10.6964 8.94472 10.5769 8.747 10.4959C8.54927 10.4148 8.3374 10.3739 8.12372 10.3756C7.69308 10.3756 7.28008 10.5466 6.97557 10.8511C6.67107 11.1556 6.5 11.5686 6.5 11.9993C6.5 12.4299 6.67107 12.8429 6.97557 13.1474C7.28008 13.4519 7.69308 13.623 8.12372 13.623C8.3374 13.6246 8.54927 13.5837 8.747 13.5027C8.94472 13.4216 9.12436 13.3021 9.27545 13.151C9.42655 12.9999 9.5461 12.8203 9.62713 12.6226C9.70815 12.4248 9.74905 12.213 9.74744 11.9993Z" fill="white"/>
<path d="M25.5 11.9993C25.5 11.6781 25.4047 11.3642 25.2263 11.0972C25.0479 10.8302 24.7943 10.6221 24.4976 10.4992C24.2009 10.3763 23.8744 10.3441 23.5595 10.4067C23.2445 10.4694 22.9552 10.624 22.7281 10.8511C22.501 11.0782 22.3464 11.3675 22.2837 11.6825C22.2211 11.9975 22.2532 12.324 22.3761 12.6206C22.499 12.9173 22.7071 13.1709 22.9741 13.3493C23.2412 13.5278 23.5551 13.623 23.8762 13.623C24.0899 13.6246 24.3018 13.5837 24.4995 13.5027C24.6972 13.4216 24.8769 13.3021 25.028 13.151C25.1791 12.9999 25.2986 12.8203 25.3796 12.6226C25.4607 12.4248 25.5016 12.2129 25.5 11.9993Z" fill="white"/>
<path d="M23.2825 9.12747V6.08601L16.0121 10.4967L8.7417 6.06178V9.10323L13.4796 11.9993L8.63265 14.8953V17.9367L15.903 13.5018L23.2461 17.9367V14.9074L18.3992 12.0114L23.2825 9.12747Z" fill="white"/>
</g>
<defs>
<clipPath id="clip0_13202_9284">
<rect width="20" height="14" fill="white" transform="translate(6 5)"/>
</clipPath>
</defs>
</svg>
