<svg width="32" height="24" viewBox="0 0 32 24" fill="none" xmlns="http://www.w3.org/2000/svg">
<rect x="0.5" y="0.5" width="31" height="23" rx="3.5" fill="white"/>
<rect x="0.5" y="0.5" width="31" height="23" rx="3.5" stroke="#DBD9D7"/>
<g clip-path="url(#clip0_13183_8903)">
<path d="M14.9279 4.11191C14.48 4.06526 14.2095 4.11191 14.0602 4.1399C13.9016 4.16789 13.6776 4.22388 13.4257 4.41048C13.3791 4.4478 13.3044 4.51311 13.2391 4.61575C13.7803 4.34517 14.592 4.67173 14.8906 4.99829C15.2451 5.39016 15.2265 6.07127 15.1705 6.46315C15.1145 6.89234 14.8346 8.0493 13.5284 8.27322C13.0525 8.3572 11.7369 8.31055 11.485 7.19091C11.8862 7.24689 12.2968 6.77105 11.9889 6.33252C11.6903 5.894 10.9439 5.91266 10.4214 6.05261C9.77758 6.22989 9.24575 6.90167 9.01249 7.36819C8.72326 7.95599 8.51799 8.77706 8.48067 9.42085C8.43402 10.13 8.44335 10.923 8.49 11.5108C8.55531 12.2479 8.72326 13.0037 8.97517 13.6568C9.22709 14.3193 9.52566 14.8977 9.84289 15.5042L9.87088 15.5602C9.88021 15.5509 9.92686 15.5042 9.97352 15.4482C10.1041 15.2989 10.3934 14.9537 10.5053 14.7951C10.6173 14.6365 10.9905 13.9834 11.0932 13.7501C11.5877 14.0767 11.6716 14.3006 11.6903 14.6178C11.709 14.963 11.4197 15.7281 10.9625 16.5399C10.9345 16.5865 10.8972 16.6612 10.8599 16.7171C10.8879 16.6892 10.9252 16.6518 11.0092 16.5585C11.1118 16.4466 11.5037 16.0174 11.8862 15.4669C12.2688 14.9164 12.8006 14.0393 13.0898 13.2556C13.4817 13.4142 13.6497 13.6381 13.7523 13.8527C13.8922 14.1513 13.7803 14.7951 13.3791 15.7468C13.0992 16.4092 12.7073 17.025 12.2501 17.6688C12.1941 17.7435 12.1195 17.8554 12.0635 17.9208L12.2035 18.0327C12.7166 18.4246 13.3324 18.8538 13.9202 19.199C14.5547 19.5629 15.3664 19.9548 16.0009 20.104C16.6353 19.9548 17.4471 19.5629 18.0815 19.199C18.66 18.8631 19.2852 18.4339 19.7983 18.0327L19.9383 17.9208C19.8916 17.8554 19.8076 17.7435 19.7517 17.6688C19.3038 17.025 18.9119 16.4092 18.632 15.7468C18.2215 14.7951 18.1095 14.142 18.2588 13.8527C18.3615 13.6381 18.5294 13.4235 18.9213 13.2556C19.2105 14.0393 19.7423 14.9164 20.1249 15.4669C20.5074 16.008 20.8993 16.4466 21.0019 16.5585C21.0859 16.6518 21.1232 16.6892 21.1512 16.7171C21.1232 16.6518 21.0766 16.5865 21.0486 16.5399C20.5914 15.7281 20.3022 14.963 20.3208 14.6178C20.3395 14.2913 20.4234 14.0767 20.918 13.7501C21.0299 13.9834 21.3938 14.6365 21.5058 14.7951C21.6177 14.9537 21.907 15.2989 22.0376 15.4482C22.0842 15.5042 22.1309 15.5509 22.1402 15.5602L22.1682 15.5042C22.4854 14.8977 22.784 14.3193 23.0359 13.6568C23.2785 13.0037 23.4558 12.2479 23.5211 11.5108C23.5678 10.923 23.5771 10.13 23.5304 9.42085C23.4931 8.77706 23.2878 7.95599 22.9986 7.36819C22.7747 6.90167 22.2335 6.23922 21.5897 6.05261C21.0579 5.90333 20.3208 5.88467 20.0222 6.33252C19.7143 6.78038 20.1342 7.25622 20.5261 7.19091C20.4048 7.75073 19.8916 8.30122 18.828 8.30122C18.3335 8.30122 17.671 8.02131 17.3631 7.50814C16.9619 6.82703 16.9806 6.14592 16.9246 5.56744C16.8873 5.25021 16.8686 4.92365 16.766 4.61575C16.6633 4.30785 16.4674 4.10258 16.1782 4.01861C15.9356 3.94397 15.7396 3.91598 15.4411 3.88798H15.3384C15.1145 3.87865 14.9746 3.9533 14.9279 4.11191Z" fill="#009DDF"/>
</g>
<defs>
<clipPath id="clip0_13183_8903">
<rect width="15.1111" height="17" fill="white" transform="translate(8.45 3.5)"/>
</clipPath>
</defs>
</svg>
