<svg width="32" height="24" viewBox="0 0 32 24" fill="none" xmlns="http://www.w3.org/2000/svg">
<rect width="32" height="24" rx="4" fill="#3A84EF"/>
<rect x="0.5" y="0.5" width="31" height="23" rx="3.5" stroke="white" stroke-opacity="0.01"/>
<path d="M10.4981 10.7053C10.832 10.652 11.0588 10.3429 11.0046 10.0147C10.9504 9.68662 10.6357 9.4638 10.3018 9.51705C9.96782 9.5703 9.74103 9.87946 9.79523 10.2076C9.84943 10.5357 10.1641 10.7585 10.4981 10.7053Z" fill="white"/>
<path d="M26.1715 11.0688C26.5055 11.0156 26.7323 10.7064 26.6781 10.3783C26.6239 10.0502 26.3092 9.82739 25.9752 9.88064C25.6413 9.93389 25.4145 10.243 25.4687 10.5712C25.5229 10.8993 25.8375 11.1221 26.1715 11.0688Z" fill="white"/>
<path d="M9.04313 12.3406C8.97035 12.2239 8.87547 12.1171 8.76124 12.0238C8.64794 11.9315 8.50607 11.86 8.33841 11.812L8.3117 11.8039V11.7387L8.33104 11.7279C8.55305 11.6057 8.72255 11.431 8.83678 11.2075C8.95101 10.983 9.00904 10.7468 9.00904 10.506C9.00904 10.2599 8.9593 10.0408 8.86165 9.85439C8.76401 9.66794 8.62675 9.50956 8.45264 9.38466C8.27762 9.25885 8.06574 9.16201 7.82254 9.09775C7.57751 9.03259 7.30299 9 7.00544 9C7.00544 9 5.73327 9 5 9V14.8304C5.73327 14.8314 7.00544 14.8241 7.00544 14.8241C7.29838 14.8241 7.58488 14.7924 7.85755 14.73C8.12838 14.6684 8.37066 14.5689 8.57608 14.434C8.77967 14.301 8.94548 14.1227 9.068 13.9064C9.19052 13.6901 9.25224 13.4204 9.25224 13.1036C9.25224 12.9751 9.23566 12.8438 9.2025 12.7126C9.17025 12.5832 9.1159 12.4574 9.04313 12.3406ZM6.22888 10.1648H6.99715C7.2035 10.1648 7.3555 10.2191 7.44946 10.3259C7.54158 10.4318 7.58856 10.5585 7.58856 10.7042C7.58856 10.8545 7.54342 10.9902 7.45499 11.1061C7.36379 11.2256 7.21824 11.2862 7.02202 11.2862H6.22888V10.1648ZM7.65581 13.4629C7.5425 13.595 7.37208 13.662 7.14823 13.662H6.22888V12.3678H7.15652C7.37945 12.3678 7.54895 12.432 7.65949 12.5578C7.76819 12.6827 7.82347 12.8339 7.82347 13.0067C7.82347 13.1787 7.76727 13.3326 7.65581 13.4629Z" fill="white"/>
<path d="M11.149 13.7507C11.0744 13.7507 11.0136 13.691 11.0136 13.6177V11.1142H9.78561C9.78561 11.1568 9.78561 13.4919 9.78561 13.4919C9.78561 13.7932 9.8243 14.034 9.9026 14.2123C9.98091 14.3906 10.0822 14.5282 10.2075 14.6232C10.3328 14.7182 10.4747 14.7798 10.6322 14.8078C10.7814 14.8341 11.1904 14.8332 11.4134 14.8332V13.7525C11.4115 13.7525 11.4097 13.7525 11.4078 13.7525H11.149V13.7507Z" fill="white"/>
<path d="M22.2337 12.3343C22.1444 12.0935 22.0219 11.889 21.8671 11.7197C21.7123 11.5505 21.5299 11.4211 21.3217 11.3306C21.1136 11.24 20.8879 11.1948 20.6456 11.1948C20.442 11.1948 20.2734 11.221 20.1399 11.2735C20.0063 11.326 19.8985 11.3858 19.8165 11.4518C19.7207 11.527 19.6415 11.612 19.5788 11.7062H19.4904C19.4195 11.5197 19.3016 11.3649 19.1735 11.2681C19.0455 11.1704 18.8999 11.107 18.7369 11.0789C18.584 11.0518 18.3122 11.0491 18.1482 11.0518V12.1668C18.2459 12.1695 18.3619 12.175 18.4135 12.1949V16.4053H19.6719V14.5816C19.7401 14.6675 19.8248 14.7436 19.9261 14.8105C20.0081 14.8676 20.115 14.921 20.2458 14.9716C20.3766 15.0214 20.5295 15.0468 20.7036 15.0468C20.9505 15.0468 21.1762 15.0006 21.3798 14.9074C21.5834 14.8142 21.7575 14.6838 21.903 14.5146C22.0486 14.3453 22.1628 14.1444 22.2448 13.9109C22.3268 13.6774 22.3682 13.4204 22.3682 13.1398C22.3682 12.8429 22.3231 12.575 22.2337 12.3343ZM20.9026 13.7625C20.769 13.9272 20.594 14.0096 20.3757 14.0096C20.279 14.0096 20.185 13.9915 20.0956 13.9562C20.0063 13.92 19.9271 13.8666 19.8589 13.7951C19.7907 13.7236 19.7364 13.6321 19.6949 13.5226C19.6535 13.4122 19.6332 13.2837 19.6332 13.1353C19.6332 13.0113 19.6489 12.8936 19.6802 12.7841C19.7115 12.6737 19.7576 12.5768 19.8184 12.4936C19.8792 12.4094 19.9538 12.3433 20.044 12.2926C20.1334 12.242 20.2366 12.2175 20.3527 12.2175C20.5608 12.2175 20.7377 12.2935 20.8833 12.4465C21.0288 12.5995 21.1016 12.8194 21.1016 13.1063C21.1034 13.3787 21.0362 13.5977 20.9026 13.7625Z" fill="white"/>
<path d="M17.6867 11.813C17.6231 11.6365 17.5375 11.4935 17.4288 11.384C17.3201 11.2744 17.1911 11.1957 17.0437 11.1486C16.8954 11.1007 16.737 11.0771 16.5675 11.0771C16.4265 11.0771 16.2948 11.0952 16.1713 11.1305C16.0479 11.1658 15.9346 11.2138 15.8333 11.2735C15.731 11.3333 15.6407 11.4002 15.5606 11.4736C15.4924 11.536 15.4362 11.6003 15.3911 11.6645H15.3358C15.24 11.4726 15.1064 11.3269 14.9351 11.2301C14.7536 11.1278 14.5436 11.0762 14.3059 11.0762C14.1604 11.0762 14.0286 11.098 13.9098 11.1405C13.791 11.183 13.686 11.2355 13.5938 11.298C13.5017 11.3595 13.4225 11.4292 13.3571 11.5052C13.3083 11.5622 13.2604 11.6156 13.2208 11.6645H13.1839C13.1839 11.5369 13.1839 11.1921 13.1839 11.1133H11.9863C11.9854 11.1242 11.9863 14.8304 11.9863 14.8304H13.2447V13.2837C13.2447 13.1552 13.2558 13.0266 13.2769 12.8981C13.2991 12.7696 13.3359 12.6538 13.3893 12.5515C13.4428 12.4492 13.5155 12.365 13.6077 12.2981C13.6998 12.2311 13.8186 12.1886 13.9642 12.1985C14.0858 12.2067 14.2553 12.3234 14.2553 12.6628V14.8314H15.5136V13.2846C15.5136 13.1461 15.5256 13.0122 15.5505 12.8809C15.5744 12.7497 15.6149 12.6348 15.6702 12.5343C15.7255 12.4347 15.8001 12.3533 15.8922 12.2917C15.9843 12.2302 16.0986 12.1985 16.234 12.1985C16.4459 12.1985 16.5251 12.4546 16.5251 12.6628V14.8314H17.7834V12.4565C17.7816 12.2039 17.7503 11.9894 17.6867 11.813Z" fill="white"/>
<path d="M24.7679 18.0588C23.5372 18.0588 22.5359 17.075 22.5359 15.8658H23.762C23.762 16.4107 24.2134 16.8542 24.7679 16.8542C25.3225 16.8542 25.7739 16.4107 25.7739 15.8658H27C26.9991 17.075 25.9987 18.0588 24.7679 18.0588Z" fill="white"/>
<path d="M25.4598 13.3063C25.4598 13.6801 25.1502 13.9842 24.7698 13.9842C24.3893 13.9842 24.0817 13.6801 24.0817 13.3063V10.3413C24.0817 10.0399 24.043 9.79918 23.9647 9.62088C23.8864 9.44258 23.785 9.30501 23.6597 9.20998C23.5345 9.11495 23.3926 9.0534 23.2351 9.02535C23.0858 8.9991 22.2872 9 22.0642 9V10.0807C22.0661 10.0807 22.4576 10.0807 22.4594 10.0807H22.7192C22.7938 10.0807 22.8546 10.1404 22.8546 10.2137V13.3045C22.8546 14.3426 23.7141 15.187 24.7707 15.187C25.8273 15.187 26.6868 14.3426 26.6868 13.3045V12.6673H25.4598V13.3063Z" fill="white"/>
</svg>
