<svg width="32" height="24" viewBox="0 0 32 24" fill="none" xmlns="http://www.w3.org/2000/svg">
<rect width="32" height="24" rx="4" fill="#F7931A"/>
<rect x="0.5" y="0.5" width="31" height="23" rx="3.5" stroke="white" stroke-opacity="0.01"/>
<path fill-rule="evenodd" clip-rule="evenodd" d="M23.935 12C23.935 16.3824 20.3824 19.935 16 19.935C11.6176 19.935 8.065 16.3824 8.065 12C8.065 7.61762 11.6176 4.065 16 4.065C20.3824 4.065 23.935 7.61762 23.935 12ZM17.9064 9.05187C19.0101 9.43091 19.8176 9.99847 19.6592 11.0547C19.5441 11.8282 19.1138 12.2023 18.5419 12.3332C19.3264 12.7401 19.5938 13.5121 19.3454 14.4457C18.8737 15.7892 17.7524 15.9023 16.2611 15.6215L15.899 17.0658L15.0249 16.8485L15.382 15.4236C15.1554 15.3675 14.9237 15.3075 14.6852 15.2435L14.3265 16.6753L13.4534 16.458L13.815 15.0108L12.0542 14.5683L12.4885 13.5711C12.4885 13.5711 13.1331 13.7412 13.1241 13.7288C13.3717 13.7899 13.4817 13.6291 13.5251 13.5224L14.5063 9.60257C14.5173 9.41751 14.453 9.18433 14.0989 9.09602C14.1123 9.0866 13.4638 8.93875 13.4638 8.93875L13.6964 8.00852L15.4597 8.44362L15.8183 7.0128L16.692 7.2301L16.3408 8.63264C16.5759 8.68573 16.812 8.73981 17.0417 8.79686L17.3903 7.40325L18.2645 7.62055L17.9064 9.05187ZM15.8147 11.4387C16.4102 11.5965 17.7059 11.94 17.9318 11.0393C18.1622 10.1178 16.9033 9.83946 16.2869 9.70318C16.2171 9.68774 16.1555 9.67412 16.1052 9.6616L15.6699 11.401C15.7114 11.4113 15.7601 11.4242 15.8147 11.4387ZM15.14 14.2392C15.8532 14.4271 17.4131 14.8379 17.6613 13.8454C17.9153 12.8306 16.403 12.4926 15.665 12.3277L15.665 12.3277C15.5825 12.3092 15.5098 12.293 15.4502 12.2782L14.9701 14.1952C15.0189 14.2073 15.076 14.2223 15.14 14.2392L15.14 14.2392Z" fill="white"/>
</svg>
