<svg width="32" height="24" viewBox="0 0 32 24" fill="none" xmlns="http://www.w3.org/2000/svg">
<rect x="0.5" y="0.5" width="31" height="23" rx="3.5" fill="white"/>
<rect x="0.5" y="0.5" width="31" height="23" rx="3.5" stroke="#DBD9D7"/>
<path fill-rule="evenodd" clip-rule="evenodd" d="M6.78557 13.2283C6.61933 13.3233 6.44234 13.3707 6.25471 13.3707H6.10992C6.07231 13.3707 6.0186 13.3674 5.86348 13.3392L6.38796 11.042C6.48445 10.9527 6.58853 10.8948 6.7092 10.8668C6.82987 10.8389 6.90758 10.8313 6.98274 10.8313C7.2132 10.8313 7.39153 10.9002 7.47738 11.051C7.56312 11.2017 7.60607 11.4111 7.60607 11.679C7.60607 11.8968 7.57114 12.1062 7.50151 12.3072C7.43175 12.5081 7.3366 12.6881 7.216 12.8473C7.09533 13.0064 6.95175 13.1335 6.78557 13.2283ZM7.96808 9.92886C7.78027 9.83398 7.55783 9.78647 7.30039 9.78647C7.17699 9.78647 7.06173 9.80045 6.95455 9.82835C6.84718 9.85637 6.74608 9.89249 6.6389 9.94271L7.13154 7.785L5.88469 7.98597L4.4931 14.0741C4.64859 14.1524 4.81343 14.2137 4.98781 14.2583C5.16201 14.303 5.32691 14.3364 5.48246 14.3588C5.63794 14.3811 5.77611 14.3936 5.89678 14.3965C6.01745 14.3993 6.1019 14.4007 6.15015 14.4007C6.52546 14.4007 6.8741 14.3266 7.19582 14.1788C7.51761 14.0309 7.79637 13.83 8.03243 13.5759C8.26836 13.3218 8.45471 13.0231 8.59148 12.6798C8.72825 12.3364 8.7966 11.9721 8.7966 11.5869C8.7966 11.3357 8.76701 11.1012 8.70808 10.8835C8.64902 10.6657 8.55788 10.476 8.43459 10.314C8.31119 10.1522 8.15571 10.0238 7.96808 9.92886ZM11.2658 9.24906L11.449 8.44679H10.2546L10.0714 9.24906H11.2658ZM12.9941 13.3374C12.8402 13.3374 12.7193 13.3146 12.6315 13.2688C12.5434 13.223 12.4816 13.1586 12.446 13.0756C12.4101 12.9928 12.3965 12.894 12.4047 12.7795C12.413 12.6652 12.4336 12.5422 12.4666 12.4105L12.8293 10.8313H14.1895L14.4368 9.78427H13.0683L13.3816 8.45394L12.1038 8.65996L11.2959 12.2131C11.23 12.5049 11.1915 12.7825 11.1805 13.0456C11.1694 13.3089 11.2079 13.542 11.2959 13.7451C11.3838 13.9483 11.5321 14.1085 11.7411 14.2257C11.9499 14.3429 12.2439 14.4016 12.6232 14.4016C12.887 14.4016 13.115 14.3787 13.3074 14.333C13.3273 14.3282 13.3575 14.3206 13.3771 14.3157L13.6258 13.2325C13.5423 13.2621 13.4583 13.282 13.3775 13.2988C13.2538 13.3246 13.1261 13.3374 12.9941 13.3374ZM27.5069 9.78571H26.3126L25.6178 12.8286H25.619L25.5236 13.2471C25.4569 13.2666 25.3906 13.2841 25.3247 13.2978C25.2011 13.3236 25.0733 13.3365 24.9414 13.3365C24.7874 13.3365 24.6665 13.3137 24.5786 13.2678C24.4907 13.2221 24.4289 13.1577 24.3932 13.0747C24.3574 12.9918 24.3437 12.8931 24.352 12.7786C24.3602 12.6642 24.3808 12.5412 24.4138 12.4095L24.7765 10.8304L25.0156 9.7833L25.0156 9.78299H23.7955L23.2431 12.2122C23.1772 12.504 23.1387 12.7816 23.1278 13.0447C23.1166 13.3079 23.1552 13.5411 23.2431 13.7441C23.331 13.9473 23.4794 14.1076 23.6883 14.2248C23.8971 14.3419 24.1912 14.4007 24.5704 14.4007C24.8342 14.4007 25.0622 14.3778 25.2547 14.332L25.2621 14.3302L25.2775 14.3263L25.277 14.3285C25.2235 14.5792 25.1152 14.7824 24.9414 14.941C24.7675 15.0998 24.5094 15.1792 24.1671 15.1792C24.021 15.1792 23.8882 15.1701 23.7679 15.1528L23.5329 16.1825C23.6919 16.2039 23.8681 16.215 24.0628 16.215C24.4265 16.215 24.7449 16.1717 25.0177 16.0855C25.2905 15.9991 25.5244 15.8683 25.7197 15.6928C25.9149 15.5174 26.0781 15.2974 26.2092 15.033C26.3402 14.7684 26.4459 14.4553 26.5261 14.0932L27.3526 10.4762L27.3496 10.4749L27.5069 9.78571ZM21.6486 10.8313C21.0917 10.8313 20.9853 10.8313 20.7571 10.9546C20.5951 11.042 20.461 11.1734 20.3433 11.3267C20.2254 11.4801 20.1331 11.6571 20.0662 11.8578C19.9991 12.0587 19.9657 12.2677 19.9657 12.4852C19.9657 12.7528 20.0085 12.9649 20.0943 13.1209C20.1798 13.2771 20.3379 13.3551 20.5683 13.3551C20.6914 13.3551 20.8026 13.3301 20.9017 13.2798C21.0008 13.2297 21.1066 13.146 21.2191 13.0289C21.2298 12.8896 21.2472 12.7432 21.2713 12.5898C21.2933 12.4496 21.3208 12.3187 21.3459 12.1992L21.3528 12.166L21.6486 10.8313ZM22.4966 12.3848C22.4215 12.7027 22.4001 13.0219 22.4323 13.3426C22.4645 13.6633 22.5823 14.1547 22.6972 14.4007H21.5413C21.4361 14.2154 21.4129 14.1035 21.3968 14.0262C21.3913 13.9997 21.3866 13.9773 21.3798 13.9574C21.2298 14.0857 21.0637 14.1916 20.8817 14.2752C20.6995 14.3588 20.496 14.4007 20.271 14.4007C20.0031 14.4007 19.7741 14.3518 19.5841 14.2543C19.3938 14.1568 19.2385 14.0257 19.1181 13.8612C18.9975 13.6968 18.9104 13.5044 18.857 13.2841C18.8033 13.0638 18.7766 12.8282 18.7766 12.5772C18.7766 12.1925 18.8421 11.83 18.9734 11.4899C19.1046 11.1498 19.2868 10.8528 19.5198 10.599C19.7528 10.3453 20.3151 9.78578 21.2378 9.78578L23.0908 9.78571L22.4966 12.3848ZM15.848 13.3731C15.7131 13.3731 15.5999 13.3619 15.5083 13.3394L16.0866 10.8313C16.0866 10.8313 16.3809 10.8313 16.5581 10.832C16.8115 10.8331 16.9912 10.9226 17.0937 11.0911C17.196 11.2594 17.2473 11.4645 17.2473 11.7058C17.2473 11.9529 17.2135 12.1787 17.1462 12.3836C17.0787 12.5886 16.9845 12.764 16.8631 12.9099C16.7418 13.056 16.5948 13.1696 16.4223 13.251C16.2497 13.3324 16.0583 13.3731 15.848 13.3731ZM18.2503 12.7373C18.3797 12.3977 18.4444 12.023 18.4444 11.6131C18.4444 11.3605 18.4106 11.1235 18.3433 10.9016C18.2758 10.6799 18.172 10.4862 18.0319 10.3206C17.8916 10.155 17.7124 10.0245 17.494 9.929C17.2756 9.83361 17.0154 9.78585 16.7135 9.78585L16.2978 9.78583L15.1184 9.78585L13.7288 15.874H14.9259L15.2899 14.3499C15.4731 14.3836 15.6565 14.4004 15.8399 14.4004C16.2173 14.4004 16.5665 14.3316 16.8874 14.1941C17.2081 14.0566 17.4831 13.8644 17.7124 13.6172C17.9416 13.3704 18.1209 13.077 18.2503 12.7373ZM8.89325 14.4016L9.94768 9.78305H11.1421L10.0877 14.4016H8.89325Z" fill="#002855"/>
</svg>
