<svg width="32" height="24" viewBox="0 0 32 24" fill="none" xmlns="http://www.w3.org/2000/svg">
<rect width="32" height="24" rx="4" fill="black"/>
<rect x="0.5" y="0.5" width="31" height="23" rx="3.5" stroke="white" stroke-opacity="0.01"/>
<path d="M4.78013 12.7245H5.34422C5.7803 12.7245 5.99633 12.5804 5.99633 12.3084C5.99633 12.0403 5.76429 11.8923 5.31222 11.8923H4.78413V12.7245H4.78013ZM4.78013 10.7121V11.4842H5.27621C5.64827 11.4842 5.83631 11.3442 5.83631 11.0962C5.83631 10.8401 5.63627 10.7081 5.26821 10.7081C5.26421 10.7081 4.78013 10.7121 4.78013 10.7121ZM4 13.1445V12.7285H4.32805V10.7201H4V10.3041H5.32422C5.93232 10.3041 6.30038 10.5801 6.30038 11.0682C6.30038 11.3882 6.11635 11.5803 5.87631 11.6763C6.21237 11.7683 6.46041 12.0083 6.46041 12.3364C6.46041 12.8565 6.05634 13.1445 5.39623 13.1445C5.39223 13.1445 4 13.1445 4 13.1445ZM8.84881 11.6603C8.7968 11.4922 8.67678 11.3962 8.51675 11.3962C8.13669 11.3962 7.77663 11.6723 7.77663 12.1884V12.7285H8.50875V13.1445H6.88048V12.7285H7.34456V11.4762H6.9805V11.0602H7.77663V11.4122C7.91265 11.1682 8.1807 10.9922 8.54076 10.9922C8.94482 10.9922 9.19687 11.2242 9.27288 11.5523L8.84881 11.6603ZM11.0692 12.2964C10.9292 12.2444 10.7211 12.2084 10.5331 12.2084C10.257 12.2084 9.993 12.2964 9.993 12.5444C9.993 12.7285 10.161 12.8165 10.3891 12.8165C10.7091 12.8165 11.0692 12.6444 11.0692 12.3484V12.2964ZM11.0692 11.9243V11.8083C11.0692 11.5123 10.8331 11.3922 10.5731 11.3922C10.3331 11.3922 10.125 11.4882 9.95699 11.6403L9.66894 11.3282C9.86898 11.1482 10.145 10.9802 10.5731 10.9802C11.1012 10.9802 11.5093 11.2562 11.5093 11.7883V12.7205H11.8133V13.1365H11.0652V12.9205C10.9532 13.1005 10.6451 13.2125 10.3451 13.2125C9.90898 13.2125 9.53692 12.9885 9.53692 12.5564C9.53292 12.0403 10.041 11.8403 10.5051 11.8403C10.7411 11.8403 10.9252 11.8843 11.0692 11.9243ZM13.1575 10H13.6416V10.6401H13.1575V10ZM14.4537 12.7245V13.1405H12.3334V12.7245H13.2135V11.4722H12.5414V11.0562H13.6456V12.7285H14.4537V12.7245ZM14.9738 12.7245H15.2939V11.4722H14.9938V11.0562H15.726V11.3242C15.854 11.1202 16.118 10.9882 16.4461 10.9882C16.9142 10.9882 17.2502 11.2842 17.2502 11.7563V12.7285H17.5703V13.1445H16.4821V12.7285H16.8141V11.8763C16.8141 11.5163 16.5901 11.4082 16.3901 11.4082C16.062 11.4082 15.73 11.6523 15.73 12.0323V12.7285H16.062V13.1445H14.9738V12.7245ZM18.1624 11.4682H17.6183V11.0522H18.1624V10.296H18.5984V11.0522H19.6226V11.4682H18.5984V12.3484C18.5984 12.6724 18.8265 12.8085 19.0825 12.8085C19.3266 12.8085 19.5346 12.6684 19.6906 12.5164L19.9827 12.8165C19.7866 13.0245 19.4986 13.2125 19.0865 13.2125C18.5584 13.2125 18.1664 12.9205 18.1664 12.3644V11.4682M22.3511 11.6603C22.2991 11.4922 22.179 11.3962 22.019 11.3962C21.6389 11.3962 21.2789 11.6723 21.2789 12.1884V12.7285H22.007V13.1445H20.3787V12.7285H20.8428V11.4762H20.4827V11.0602H21.2789V11.4122C21.4149 11.1682 21.6829 10.9922 22.043 10.9922C22.4471 10.9922 22.6991 11.2242 22.7751 11.5523L22.3511 11.6603ZM23.5193 11.8803H24.8115C24.7475 11.5803 24.4834 11.3802 24.1874 11.3802C23.8473 11.3802 23.5913 11.5883 23.5193 11.8803ZM25.2675 12.8245C25.0515 13.0525 24.6674 13.2125 24.2354 13.2125C23.5313 13.2125 23.0352 12.7405 23.0352 12.1004C23.0352 11.4562 23.5113 10.9882 24.1794 10.9882C24.8395 10.9882 25.3036 11.4922 25.3036 12.1764V12.2524H23.4952C23.5713 12.6004 23.8593 12.8125 24.2394 12.8125C24.5554 12.8125 24.8275 12.6844 24.9755 12.5244C24.9755 12.5284 25.2675 12.8245 25.2675 12.8245ZM26.2157 11.8803H27.5079C27.4439 11.5803 27.1799 11.3802 26.8838 11.3802C26.5438 11.3802 26.2917 11.5883 26.2157 11.8803ZM27.964 12.8245C27.748 13.0525 27.3639 13.2125 26.9318 13.2125C26.2277 13.2125 25.7316 12.7405 25.7316 12.1004C25.7316 11.4562 26.2077 10.9882 26.8758 10.9882C27.5359 10.9882 28 11.4922 28 12.1764V12.2524H26.1917C26.2677 12.6004 26.5558 12.8125 26.9358 12.8125C27.2519 12.8125 27.5239 12.6844 27.6719 12.5244L27.964 12.8245Z" fill="white"/>
<path d="M15.774 14.9968L15.6619 15.2089H15.5219L16.022 14.2727H16.146L16.3501 15.2089H16.214L16.166 14.9968H15.774ZM16.062 14.4487L15.83 14.8888H16.15L16.062 14.4487ZM24.3154 15.1329C24.3674 15.1329 24.4034 15.1249 24.4354 15.1049C24.4674 15.0848 24.4914 15.0648 24.5034 15.0368C24.5154 15.0088 24.5274 14.9768 24.5274 14.9488C24.5274 14.9208 24.5194 14.8968 24.5034 14.8808C24.4914 14.8608 24.4634 14.8448 24.4234 14.8248L24.3074 14.7728C24.2434 14.7448 24.1914 14.7128 24.1634 14.6768C24.1354 14.6408 24.1234 14.5968 24.1234 14.5488C24.1234 14.4928 24.1354 14.4487 24.1634 14.4047C24.1914 14.3647 24.2274 14.3287 24.2794 14.3087C24.3314 14.2847 24.3874 14.2767 24.4514 14.2767C24.5074 14.2767 24.5514 14.2847 24.5954 14.3007C24.6354 14.3127 24.6714 14.3367 24.7035 14.3647L24.6834 14.4887C24.6154 14.4247 24.5354 14.3927 24.4434 14.3927C24.3874 14.3927 24.3434 14.4047 24.3034 14.4327C24.2634 14.4607 24.2474 14.4968 24.2474 14.5408C24.2474 14.5648 24.2554 14.5888 24.2754 14.6008C24.2954 14.6208 24.3274 14.6368 24.3714 14.6608L24.4874 14.7128C24.5474 14.7448 24.5954 14.7768 24.6154 14.8088C24.6434 14.8448 24.6514 14.8888 24.6514 14.9368C24.6514 14.9928 24.6394 15.0488 24.6154 15.0928C24.5914 15.1369 24.5514 15.1809 24.4994 15.2089C24.4434 15.2409 24.3754 15.2569 24.2914 15.2569C24.1754 15.2569 24.0833 15.2289 24.0193 15.1689L24.0433 15.0328C24.1274 15.0968 24.2154 15.1329 24.3154 15.1329ZM25.3236 14.6088C25.3716 14.6608 25.3876 14.7208 25.3876 14.7968C25.3876 14.8248 25.3876 14.8448 25.3836 14.8608C25.3796 14.8808 25.3756 14.8968 25.3716 14.9208H24.8635C24.8595 14.9888 24.8755 15.0408 24.9155 15.0768C24.9515 15.1129 25.0035 15.1329 25.0675 15.1329C25.1155 15.1329 25.1555 15.1289 25.1915 15.1129C25.2275 15.1049 25.2675 15.0848 25.3036 15.0608L25.2835 15.1609C25.2155 15.2089 25.1315 15.2289 25.0395 15.2289C24.9795 15.2289 24.9235 15.2169 24.8795 15.1889C24.8315 15.1609 24.7995 15.1249 24.7795 15.0768C24.7595 15.0288 24.7435 14.9768 24.7435 14.9208C24.7435 14.8648 24.7555 14.8048 24.7835 14.7408C24.8115 14.6808 24.8595 14.6248 24.9115 14.5848C24.9715 14.5448 25.0395 14.5208 25.1275 14.5208C25.2115 14.5368 25.2755 14.5568 25.3236 14.6088ZM24.9675 14.6928C24.9275 14.7288 24.8915 14.7768 24.8795 14.8288H25.2715V14.8008C25.2715 14.7488 25.2595 14.7128 25.2315 14.6808C25.2035 14.6528 25.1675 14.6408 25.1155 14.6408C25.0595 14.6368 25.0075 14.6568 24.9675 14.6928ZM25.8036 14.6608C25.7516 14.6608 25.7076 14.6808 25.6676 14.7168C25.6316 14.7528 25.6076 14.8088 25.5916 14.8848L25.5396 15.2169H25.4196L25.5196 14.5568H25.6356L25.6156 14.6688C25.6716 14.5888 25.7356 14.5528 25.8116 14.5528C25.8316 14.5528 25.8476 14.5528 25.8636 14.5568L25.8436 14.6648H25.8036M26.1677 15.2169H26.0517L25.8956 14.5608H26.0157L26.1317 15.0728L26.4037 14.5608H26.5278L26.1677 15.2169ZM26.6038 15.2169H26.4837L26.5838 14.5568H26.7038L26.6038 15.2169ZM26.6198 14.4287C26.6078 14.4167 26.5998 14.4007 26.5998 14.3807C26.5998 14.3567 26.6078 14.3407 26.6278 14.3207C26.6478 14.3007 26.6638 14.2927 26.6878 14.2927C26.7078 14.2927 26.7198 14.2967 26.7358 14.3127C26.7478 14.3247 26.7558 14.3407 26.7558 14.3607C26.7558 14.3847 26.7478 14.4007 26.7278 14.4207C26.7078 14.4407 26.6918 14.4487 26.6678 14.4487C26.6478 14.4487 26.6318 14.4407 26.6198 14.4287ZM26.8878 15.2009C26.8398 15.1729 26.8078 15.1369 26.7878 15.0888C26.7678 15.0408 26.7518 14.9928 26.7518 14.9368C26.7518 14.8688 26.7638 14.8008 26.7998 14.7368C26.8318 14.6768 26.8798 14.6248 26.9398 14.5888C26.9998 14.5528 27.0758 14.5328 27.1519 14.5328C27.2319 14.5328 27.2959 14.5528 27.3479 14.5928L27.3279 14.7168C27.2799 14.6648 27.2199 14.6408 27.1479 14.6408C27.0958 14.6408 27.0518 14.6528 27.0078 14.6808C26.9678 14.7088 26.9318 14.7408 26.9118 14.7888C26.8878 14.8288 26.8798 14.8768 26.8798 14.9288C26.8798 14.9888 26.8998 15.0408 26.9318 15.0768C26.9638 15.1129 27.0158 15.1329 27.0718 15.1329C27.1079 15.1329 27.1479 15.1289 27.1839 15.1129C27.2199 15.1009 27.2519 15.0808 27.2799 15.0528L27.2599 15.1769C27.2239 15.2009 27.1919 15.2169 27.1519 15.2289C27.1159 15.2369 27.0758 15.2409 27.0398 15.2409C26.9798 15.2449 26.9278 15.2289 26.8878 15.2009ZM27.936 14.6088C27.984 14.6608 28 14.7208 28 14.7968C28 14.8248 28 14.8448 27.996 14.8608C27.992 14.8808 27.988 14.8968 27.984 14.9208H27.4759C27.4719 14.9888 27.4879 15.0408 27.5279 15.0768C27.5639 15.1129 27.6159 15.1329 27.6799 15.1329C27.728 15.1329 27.768 15.1289 27.804 15.1129C27.84 15.1049 27.88 15.0848 27.916 15.0608L27.896 15.1609C27.828 15.2089 27.744 15.2289 27.6519 15.2289C27.5919 15.2289 27.5359 15.2169 27.4919 15.1889C27.4439 15.1609 27.4119 15.1249 27.3919 15.0768C27.3719 15.0288 27.3559 14.9768 27.3559 14.9208C27.3559 14.8648 27.3679 14.8048 27.3959 14.7408C27.4239 14.6808 27.4719 14.6248 27.5239 14.5848C27.5839 14.5448 27.6519 14.5208 27.74 14.5208C27.832 14.5368 27.896 14.5568 27.936 14.6088ZM27.5799 14.6928C27.5399 14.7288 27.5039 14.7768 27.4919 14.8288H27.884V14.8008C27.884 14.7488 27.872 14.7128 27.844 14.6808C27.816 14.6528 27.78 14.6408 27.728 14.6408C27.6719 14.6368 27.6279 14.6568 27.5799 14.6928ZM21.4029 13.7966H20.8948C20.8588 13.7966 20.8308 13.8246 20.8268 13.8566L20.6188 15.1729C20.6148 15.2009 20.6308 15.2249 20.6588 15.2249H20.9228C20.9468 15.2249 20.9708 15.2049 20.9748 15.1849L21.0348 14.8128C21.0388 14.7808 21.0708 14.7528 21.1028 14.7528H21.2629C21.5989 14.7528 21.795 14.5928 21.847 14.2687C21.871 14.1247 21.847 14.0127 21.783 13.9407C21.7029 13.8406 21.5749 13.7966 21.4029 13.7966ZM21.4629 14.2767C21.4349 14.4607 21.2949 14.4607 21.1589 14.4607H21.0788L21.1349 14.1167C21.1389 14.0967 21.1589 14.0807 21.1749 14.0807H21.2109C21.3029 14.0807 21.3909 14.0807 21.4389 14.1327C21.4629 14.1647 21.4709 14.2127 21.4629 14.2767ZM17.7503 13.7966H17.2382C17.2022 13.7966 17.1742 13.8246 17.1702 13.8566L16.9622 15.1729C16.9582 15.2009 16.9742 15.2249 17.0022 15.2249H17.2462C17.2822 15.2249 17.3102 15.2009 17.3142 15.1649L17.3702 14.8128C17.3742 14.7808 17.4062 14.7528 17.4382 14.7528H17.5983C17.9343 14.7528 18.1304 14.5928 18.1824 14.2687C18.2064 14.1247 18.1824 14.0127 18.1184 13.9407C18.0543 13.8406 17.9223 13.7966 17.7503 13.7966ZM17.8103 14.2767C17.7823 14.4607 17.6423 14.4607 17.5062 14.4607H17.4262L17.4822 14.1167C17.4862 14.0967 17.5063 14.0807 17.5223 14.0807H17.5583C17.6503 14.0807 17.7383 14.0807 17.7863 14.1327C17.8183 14.1647 17.8223 14.2127 17.8103 14.2767ZM19.2825 14.2687H19.0385C19.0145 14.2687 19.0025 14.2807 18.9985 14.3047L18.9905 14.3727L18.9705 14.3487C18.9185 14.2687 18.7985 14.2487 18.6784 14.2487C18.4104 14.2487 18.1784 14.4527 18.1344 14.7408C18.1104 14.8848 18.1424 15.0248 18.2264 15.1169C18.3024 15.2049 18.4064 15.2409 18.5384 15.2409C18.7545 15.2409 18.8745 15.1009 18.8745 15.1009L18.8665 15.1689C18.8625 15.1969 18.8785 15.2209 18.9065 15.2209H19.1305C19.1665 15.2209 19.1945 15.1969 19.1985 15.1609L19.3346 14.3247C19.3306 14.2887 19.3106 14.2687 19.2825 14.2687ZM18.9425 14.7448C18.9185 14.8848 18.8065 14.9808 18.6664 14.9808C18.5984 14.9808 18.5384 14.9568 18.4984 14.9168C18.4624 14.8768 18.4464 14.8168 18.4624 14.7448C18.4864 14.6048 18.5984 14.5088 18.7345 14.5088C18.8025 14.5088 18.8585 14.5328 18.8945 14.5728C18.9345 14.6128 18.9505 14.6768 18.9425 14.7448ZM22.9352 14.2687H22.6911C22.6671 14.2687 22.6551 14.2807 22.6511 14.3047L22.6431 14.3727L22.6231 14.3487C22.5711 14.2687 22.4511 14.2487 22.3311 14.2487C22.063 14.2487 21.831 14.4527 21.787 14.7408C21.763 14.8848 21.795 15.0248 21.879 15.1169C21.955 15.2049 22.059 15.2409 22.191 15.2409C22.4071 15.2409 22.5271 15.1009 22.5271 15.1009L22.5191 15.1689C22.5151 15.1969 22.5311 15.2209 22.5591 15.2209H22.7831C22.8191 15.2209 22.8471 15.1969 22.8511 15.1609L22.9872 14.3247C22.9792 14.2887 22.9592 14.2687 22.9352 14.2687ZM22.5911 14.7448C22.5671 14.8848 22.4551 14.9808 22.3151 14.9808C22.247 14.9808 22.187 14.9568 22.147 14.9168C22.111 14.8768 22.095 14.8168 22.111 14.7448C22.135 14.6048 22.247 14.5088 22.3831 14.5088C22.4511 14.5088 22.5071 14.5328 22.5431 14.5728C22.5871 14.6128 22.6031 14.6768 22.5911 14.7448ZM20.5868 14.2687H20.3427C20.3187 14.2687 20.2947 14.2807 20.2827 14.3007L19.9467 14.8008L19.8026 14.3207C19.7946 14.2887 19.7666 14.2687 19.7346 14.2687H19.4946C19.4666 14.2687 19.4426 14.2967 19.4546 14.3247L19.7266 15.1209L19.4706 15.4809C19.4506 15.5089 19.4706 15.5489 19.5066 15.5489H19.7506C19.7746 15.5489 19.7986 15.5409 19.8106 15.5169L20.6308 14.3367C20.6428 14.3087 20.6228 14.2687 20.5868 14.2687ZM23.2232 13.8326L23.0152 15.1689C23.0112 15.1969 23.0272 15.2209 23.0552 15.2209H23.2672C23.3032 15.2209 23.3312 15.1969 23.3352 15.1609L23.5433 13.8446C23.5473 13.8166 23.5313 13.7926 23.5032 13.7926H23.2672C23.2432 13.7966 23.2272 13.8086 23.2232 13.8326Z" fill="white"/>
</svg>
