<svg width="32" height="24" viewBox="0 0 32 24" fill="none" xmlns="http://www.w3.org/2000/svg">
<rect width="32" height="24" rx="4" fill="url(#paint0_linear_18315_1087)"/>
<path d="M12 8.5C12 8.89782 11.842 9.27936 11.5607 9.56066C11.2794 9.84196 10.8978 10 10.5 10C10.1022 10 9.72064 9.84196 9.43934 9.56066C9.15804 9.27936 9 8.89782 9 8.5C9 8.10218 9.15804 7.72064 9.43934 7.43934C9.72064 7.15804 10.1022 7 10.5 7C10.8978 7 11.2794 7.15804 11.5607 7.43934C11.842 7.72064 12 8.10218 12 8.5Z" fill="url(#paint1_linear_18315_1087)"/>
<path d="M23.8463 16.9302H26L23.4125 13.4324L25.7588 10.4269H23.8054L21.5012 13.4512V7.00199H19.8289V16.9302H21.5012L21.5 13.4596L23.8463 16.9302ZM16.6745 10.4258H18.3465V16.9291H16.6745V10.4258ZM13.5189 7H15.1908V16.9291H13.5189V7ZM9.17208 10.3609C8.64863 10.3601 8.1332 10.4955 7.67214 10.7549V7.00022H6V13.6795C5.99983 14.3361 6.18569 14.978 6.53408 15.524C6.88247 16.07 7.37773 16.4956 7.95723 16.747C8.53674 16.9984 9.17446 17.0643 9.78974 16.9364C10.405 16.8084 10.9702 16.4924 11.4139 16.0282C11.8576 15.564 12.1598 14.9726 12.2823 14.3286C12.4048 13.6847 12.3421 13.0172 12.1021 12.4106C11.8621 11.804 11.4557 11.2854 10.9341 10.9206C10.4126 10.5557 9.79939 10.361 9.17208 10.3609ZM9.17208 15.2773C8.87021 15.2773 8.57512 15.1836 8.32412 15.0081C8.07312 14.8325 7.87749 14.5831 7.76196 14.2912C7.64643 13.9993 7.61619 13.6781 7.67507 13.3682C7.73395 13.0583 7.87929 12.7737 8.09273 12.5502C8.30617 12.3268 8.57812 12.1747 8.87418 12.113C9.17024 12.0513 9.47713 12.0829 9.75603 12.2038C10.0349 12.3247 10.2733 12.5294 10.4411 12.7921C10.6088 13.0548 10.6984 13.3636 10.6984 13.6795C10.6985 13.8894 10.6591 14.0972 10.5824 14.291C10.5057 14.4849 10.3933 14.661 10.2515 14.8094C10.1098 14.9578 9.94151 15.0755 9.75629 15.1558C9.57107 15.236 9.37255 15.2773 9.17208 15.2773Z" fill="white"/>
<defs>
<linearGradient id="paint0_linear_18315_1087" x1="16.5" y1="24" x2="16.5" y2="8.71587e-08" gradientUnits="userSpaceOnUse">
<stop stop-color="#5A5A5A"/>
<stop offset="0.15" stop-color="#484848"/>
<stop offset="0.5" stop-color="#333333"/>
<stop offset="0.82" stop-color="#080808"/>
<stop offset="1"/>
</linearGradient>
<linearGradient id="paint1_linear_18315_1087" x1="9.43891" y1="9.56109" x2="11.5611" y2="7.43891" gradientUnits="userSpaceOnUse">
<stop stop-color="#E52F08"/>
<stop offset="1" stop-color="#E94F96"/>
</linearGradient>
</defs>
</svg>
