<svg width="32" height="24" viewBox="0 0 32 24" fill="none" xmlns="http://www.w3.org/2000/svg">
<path d="M0 4C0 1.79086 1.79086 0 4 0H28C30.2091 0 32 1.79086 32 4V20C32 22.2091 30.2091 24 28 24H4C1.79086 24 0 22.2091 0 20V4Z" fill="white"/>
<path d="M13.4364 8.22797H11V18.08H13.4364V8.22797Z" fill="black"/>
<path d="M21.0769 8.79133C21.0769 6.70081 19.3745 5 17.2819 5H11V7.10396H16.9832C17.9302 7.10396 18.7147 7.84796 18.732 8.76237C18.7407 9.22023 18.5689 9.65234 18.2482 9.97907C17.9274 10.3059 17.4987 10.486 17.0413 10.486H14.7105C14.6278 10.486 14.5604 10.5533 14.5604 10.636V12.506C14.5604 12.5378 14.5703 12.5682 14.5887 12.5938L18.5433 18.08H21.4381L17.4743 12.5788C19.4705 12.4786 21.0769 10.8014 21.0769 8.79133Z" fill="black"/>
</svg>
