<svg width="32" height="24" viewBox="0 0 32 24" fill="none" xmlns="http://www.w3.org/2000/svg">
<rect width="32" height="24" rx="4" fill="#56A18D"/>
<path d="M11.9065 8.90551V13.1394C11.9065 13.5141 11.9154 13.7408 11.9333 13.9587H11.9154C11.8215 13.7091 11.7108 13.4905 11.5457 13.2058L8.97939 8.90551H7.80651V15.0944H8.72033V10.8602C8.72033 10.4854 8.7114 10.2588 8.69366 10.0408H8.7125C8.80627 10.2903 8.91696 10.5089 9.08224 10.7934L11.6477 15.0944H12.8082V8.90551H11.9065ZM22.3311 10.9768C21.5748 10.9768 21.0348 11.3181 20.7619 11.8234C20.7619 10.6293 21.1882 9.59 22.2015 9.59C22.8456 9.59 23.1012 9.95156 23.2377 10.5444L24.1758 10.3613C23.9557 9.33778 23.2885 8.84031 22.2081 8.84031C20.8507 8.84031 19.8351 9.85725 19.8351 12.1365C19.8351 14.1598 20.682 15.1598 22.1412 15.1598C23.3469 15.1598 24.25 14.3565 24.25 13.0327C24.25 11.9985 23.6849 10.9768 22.3311 10.9768ZM22.1435 14.412C21.3952 14.412 20.8771 13.7412 20.7875 12.8505C21.0148 12.0908 21.5187 11.7123 22.1146 11.7123C22.8806 11.7123 23.3128 12.2642 23.3128 13.0489C23.3128 13.8912 22.82 14.412 22.1435 14.412ZM15.6877 14.2926C16.1653 13.9706 16.8499 13.4357 17.1536 13.1388C17.4989 12.8018 18.4817 11.9355 18.4817 10.7006C18.4817 9.42404 17.6292 8.83977 16.4763 8.83977C15.0787 8.84031 14.3886 9.67962 14.3886 10.6398C14.3884 10.8046 14.4095 10.9688 14.4512 11.1286L15.4087 11.2184C15.3683 11.0439 15.3474 10.8657 15.3462 10.6868C15.3462 9.96766 15.8339 9.62354 16.4445 9.62354C17.0399 9.62354 17.4806 9.94901 17.4806 10.7317C17.4806 11.5271 17.0819 12.0693 16.4747 12.6624C15.8398 13.2822 14.8251 14.0217 14.3363 14.3618V15.0944H18.553V14.2926H15.6877ZM12.865 16.6981V17.5H7.75V16.6981H12.865ZM12.865 6.5V7.30188H7.75V6.5H12.865Z" fill="white"/>
</svg>
