<svg width="32" height="24" viewBox="0 0 32 24" fill="none" xmlns="http://www.w3.org/2000/svg">
<rect width="32" height="24" rx="4" fill="#F36805"/>
<rect x="0.5" y="0.5" width="31" height="23" rx="3.5" stroke="white" stroke-opacity="0.01"/>
<path fill-rule="evenodd" clip-rule="evenodd" d="M16.1324 11.9579C16.4031 11.5428 16.8181 11.2601 17.2994 11.1578C18.292 10.9473 19.2785 11.5849 19.4891 12.5835C19.5913 13.0648 19.5011 13.5581 19.2304 13.9731C18.9597 14.3882 18.5446 14.6709 18.0634 14.7732C17.9371 14.8033 17.8047 14.8153 17.6784 14.8153C17.3235 14.8153 16.9746 14.7131 16.6738 14.5145C16.2587 14.2438 15.976 13.8288 15.8737 13.3475C15.7714 12.8663 15.8617 12.373 16.1324 11.9579ZM17.8107 13.5941C17.9792 13.5581 18.1235 13.4618 18.2198 13.3174H18.2258C18.316 13.1731 18.3521 12.9986 18.316 12.8302C18.2499 12.5294 17.9852 12.3188 17.6844 12.3188C17.6423 12.3188 17.5942 12.3188 17.5521 12.3309C17.3836 12.367 17.2332 12.4632 17.143 12.6076C17.0528 12.752 17.0167 12.9264 17.0528 13.0948C17.0888 13.2633 17.1851 13.4077 17.3295 13.5039C17.4678 13.5941 17.6423 13.6302 17.8107 13.5941Z" fill="white"/>
<path d="M13.1426 12.8903L13.5155 14.0333C14.0088 13.8709 14.5202 13.7566 15.0375 13.6904L14.8811 12.4993C14.2976 12.5775 13.7141 12.7098 13.1486 12.8903H13.1426Z" fill="white"/>
<path d="M20.4756 13.4678L20.3132 12.2767C20.8305 12.2106 21.3418 12.0963 21.8351 11.9338L22.2081 13.0768C21.6486 13.2573 21.0651 13.3896 20.4756 13.4678Z" fill="white"/>
<path fill-rule="evenodd" clip-rule="evenodd" d="M23.309 8.74555L24.5362 14.5386C24.5904 14.7913 24.4761 15.0499 24.2535 15.1823C22.4488 16.229 20.3193 16.6862 18.2439 16.4576C16.4091 16.2591 14.5323 16.6561 12.9501 17.5765C12.8599 17.6306 12.7516 17.6607 12.6494 17.6607C12.5651 17.6607 12.4809 17.6427 12.4027 17.6066C12.2283 17.5284 12.1019 17.3659 12.0598 17.1795L11.8252 16.0786C11.6207 16.2531 11.4222 16.4335 11.2357 16.626C11.1214 16.7403 10.965 16.8065 10.8026 16.8065C10.7912 16.8065 10.7785 16.8051 10.7651 16.8037C10.7501 16.8021 10.7342 16.8005 10.7183 16.8005C10.5319 16.7704 10.3634 16.6501 10.2732 16.4816L7.52405 11.236C7.40374 11.0074 7.44585 10.7247 7.62631 10.5382C9.07608 9.04032 11.0191 8.02367 13.0885 7.68078C14.8932 7.38 16.5896 6.49571 17.8589 5.17828C17.9912 5.03992 18.1837 4.97977 18.3762 5.00383C18.5627 5.03391 18.7312 5.15422 18.8214 5.32266L20.7885 9.07641C21.354 8.88993 21.9014 8.6493 22.4187 8.34852C22.5872 8.25227 22.7917 8.24024 22.9662 8.31844C23.1406 8.39664 23.2669 8.55907 23.309 8.74555ZM10.8326 11.3864C10.7785 11.1338 10.8928 10.8751 11.1154 10.7427V10.7488C12.914 9.69602 15.0496 9.24485 17.143 9.47344C17.9551 9.56367 18.7793 9.52758 19.5854 9.38321L18.1236 6.59196C16.758 7.77703 15.0676 8.58313 13.281 8.87789C11.6087 9.15461 10.0326 9.93063 8.79936 11.0796L10.971 15.2244C11.1575 15.062 11.35 14.9056 11.5485 14.7612L10.8326 11.3864ZM13.0705 16.1508C14.7007 15.3748 16.5535 15.062 18.3702 15.2605L18.3762 15.2545C20.0486 15.4349 21.769 15.1161 23.2669 14.3401L22.2984 9.76219C21.9916 9.91258 21.6728 10.0329 21.354 10.1472C20.969 10.2856 20.578 10.3938 20.1749 10.4841C19.1402 10.7066 18.0694 10.7728 17.0167 10.6585C15.3263 10.472 13.5998 10.7909 12.1019 11.5669L12.6253 14.0513L12.89 15.2966L13.0705 16.1508Z" fill="white"/>
</svg>
