<svg width="32" height="24" viewBox="0 0 32 24" fill="none" xmlns="http://www.w3.org/2000/svg">
<rect width="32" height="24" rx="4" fill="#F36805"/>
<path d="M16.9133 4.56798C16.6301 4.41855 16.3147 4.34045 15.9945 4.34045C15.6744 4.34045 15.359 4.41855 15.0758 4.56798C12.3414 6.17579 8.0047 10.3594 7.82423 10.5125L8.57892 11.3C8.57892 11.3 9.15861 10.7531 9.98439 9.99845V18.5625H22.0156V9.99845C22.8414 10.7477 23.4047 11.2836 23.4211 11.3L24.2031 10.5125C23.9953 10.3594 19.6586 6.17579 16.9133 4.56798ZM11.8985 14.7344C11.7362 14.7344 11.5776 14.6863 11.4427 14.5961C11.3078 14.506 11.2027 14.3779 11.1406 14.228C11.0785 14.0781 11.0623 13.9132 11.0939 13.754C11.1256 13.5949 11.2037 13.4487 11.3184 13.334C11.4331 13.2193 11.5793 13.1412 11.7384 13.1095C11.8975 13.0779 12.0625 13.0941 12.2124 13.1562C12.3623 13.2183 12.4904 13.3234 12.5805 13.4583C12.6707 13.5932 12.7188 13.7518 12.7188 13.9141C12.7188 14.1316 12.6323 14.3403 12.4785 14.4941C12.3247 14.648 12.116 14.7344 11.8985 14.7344ZM14.6328 14.7344C14.4706 14.7344 14.312 14.6863 14.1771 14.5961C14.0422 14.506 13.937 14.3779 13.875 14.228C13.8129 14.0781 13.7966 13.9132 13.8283 13.754C13.8599 13.5949 13.9381 13.4487 14.0528 13.334C14.1675 13.2193 14.3137 13.1412 14.4728 13.1095C14.6319 13.0779 14.7969 13.0941 14.9467 13.1562C15.0966 13.2183 15.2248 13.3234 15.3149 13.4583C15.405 13.5932 15.4531 13.7518 15.4531 13.9141C15.4531 14.1316 15.3667 14.3403 15.2129 14.4941C15.059 14.648 14.8504 14.7344 14.6328 14.7344ZM17.3672 14.7344C17.205 14.7344 17.0464 14.6863 16.9115 14.5961C16.7766 14.506 16.6714 14.3779 16.6093 14.228C16.5472 14.0781 16.531 13.9132 16.5627 13.754C16.5943 13.5949 16.6724 13.4487 16.7872 13.334C16.9019 13.2193 17.048 13.1412 17.2072 13.1095C17.3663 13.0779 17.5312 13.0941 17.6811 13.1562C17.831 13.2183 17.9591 13.3234 18.0493 13.4583C18.1394 13.5932 18.1875 13.7518 18.1875 13.9141C18.1875 14.1316 18.1011 14.3403 17.9473 14.4941C17.7934 14.648 17.5848 14.7344 17.3672 14.7344ZM20.1016 14.7344C19.9393 14.7344 19.7807 14.6863 19.6458 14.5961C19.5109 14.506 19.4058 14.3779 19.3437 14.228C19.2816 14.0781 19.2654 13.9132 19.297 13.754C19.3287 13.5949 19.4068 13.4487 19.5215 13.334C19.6363 13.2193 19.7824 13.1412 19.9415 13.1095C20.1007 13.0779 20.2656 13.0941 20.4155 13.1562C20.5654 13.2183 20.6935 13.3234 20.7836 13.4583C20.8738 13.5932 20.9219 13.7518 20.9219 13.9141C20.9219 14.1316 20.8355 14.3403 20.6816 14.4941C20.5278 14.648 20.3191 14.7344 20.1016 14.7344V14.7344Z" fill="white"/>
</svg>
