<svg width="32" height="24" viewBox="0 0 32 24" fill="none" xmlns="http://www.w3.org/2000/svg">
<rect width="32" height="24" rx="4" fill="black"/>
<path d="M8.67493 6.91276C8.67493 5.49393 9.77719 4.34375 11.1369 4.34375H20.8874C22.2471 4.34375 23.3494 5.49393 23.3494 6.91276V17.0872C23.3494 18.5061 22.2471 19.6562 20.8874 19.6562H11.1369C9.77719 19.6562 8.67493 18.5061 8.67493 17.0872V6.91276Z" fill="url(#paint0_linear_16573_1059)"/>
<path d="M12.8888 7.50129V10.9141H16.3366V7.50129H18.2172V16.403H16.3366V12.5636H12.8888V16.403H11.0083V7.50129H12.8888ZM19.743 10.9141C19.9201 10.6439 20.1382 10.4164 20.4107 10.2457C20.6833 10.0751 20.9831 9.96134 21.3238 9.89024C21.6644 9.81914 22.0051 9.7907 22.3458 9.7907C22.6592 9.7907 22.9727 9.81914 23.2861 9.8618C23.5995 9.90446 23.3494 9.95833 23.3951 10.2135C23.3951 10.2524 23.3951 10.2986 23.3951 10.3837C23.3951 10.6943 23.3951 10.5301 23.3951 10.9141V12.1701C23.3951 12.5104 23.3951 12.5778 23.3951 12.9358V14.0959C23.3951 14.4209 23.3951 14.7222 23.3951 15.1476C23.3815 15.048 23.4088 15.9053 23.3951 15.7915C23.1226 16.0759 22.8092 16.2892 22.4412 16.403C22.0733 16.5167 21.7053 16.5736 21.3238 16.5736C21.024 16.5736 20.7514 16.531 20.5061 16.4599C20.2472 16.3888 20.0292 16.275 19.8384 16.1044C19.6476 15.9479 19.4977 15.7489 19.3887 15.5071C19.2796 15.2654 19.2251 14.981 19.2251 14.6397C19.2251 14.27 19.2933 13.9714 19.4159 13.7296C19.5386 13.4879 19.7021 13.303 19.8929 13.1608C20.0837 13.0186 20.3153 12.9191 20.5606 12.848C20.8059 12.7769 21.0648 12.72 21.3238 12.6773C21.5827 12.6347 21.828 12.6062 22.0733 12.5778C22.3186 12.5494 22.5366 12.5209 22.7274 12.4641C22.9182 12.4072 23.0681 12.3361 23.1771 12.2508C23.2861 12.1512 23.3406 12.009 23.327 11.8384C23.327 11.6535 23.2997 11.4971 23.2316 11.3833C23.1771 11.2696 23.0953 11.1843 22.9999 11.1274C22.9045 11.0705 22.7819 11.0278 22.6593 10.9994C22.523 10.9852 22.3867 10.971 22.2368 10.971C21.9097 10.971 21.6372 11.0421 21.4464 11.1985C21.2556 11.3549 21.1466 11.5966 21.1193 11.9521H19.4159C19.4704 11.5255 19.5658 11.1843 19.743 10.9141ZM23.0817 13.4026C22.9727 13.4452 22.8637 13.4737 22.741 13.5021C22.6184 13.5305 22.4821 13.5448 22.3594 13.559C22.2232 13.5732 22.0869 13.6016 21.9506 13.6159C21.828 13.6443 21.6917 13.6727 21.5691 13.7154C21.4464 13.7581 21.3374 13.8149 21.242 13.886C21.1466 13.9571 21.0785 14.0425 21.024 14.1562C20.9694 14.27 20.9422 14.398 20.9422 14.5686C20.9422 14.725 20.9694 14.853 21.024 14.9668C21.0785 15.0805 21.1602 15.1658 21.2556 15.2227C21.351 15.2796 21.46 15.3223 21.5827 15.3507C21.7053 15.3791 21.8416 15.3934 21.9779 15.3934C22.3049 15.3934 22.5639 15.3365 22.7546 15.2227C22.9318 15.109 23.0681 14.9668 23.1635 14.8103C23.2452 14.6539 23.2997 14.4833 23.327 14.3126C23.3406 14.142 23.3543 14.014 23.3543 13.9145V13.2604C23.2861 13.3172 23.1907 13.3741 23.0817 13.4026Z" fill="white"/>
<defs>
<linearGradient id="paint0_linear_16573_1059" x1="22.2157" y1="9.78819" x2="12.1253" y2="15.0977" gradientUnits="userSpaceOnUse">
<stop stop-color="#008DC8"/>
<stop offset="1" stop-color="#0063A5"/>
</linearGradient>
</defs>
</svg>
