<svg width="32" height="24" viewBox="0 0 32 24" fill="none" xmlns="http://www.w3.org/2000/svg">
<rect width="32" height="24" rx="4" fill="#000001"/>
<path fill-rule="evenodd" clip-rule="evenodd" d="M17.6276 7.41885C16.5425 7.38144 15.5323 7.94266 15.0459 8.91545H14.8588C14.4099 7.98008 13.4371 7.41885 12.4269 7.41885C11.4915 7.38144 10.5935 7.83042 10.0697 8.61613H9.88265L9.62075 7.56851H7.75V16.2114H10.0697V11.2726C10.0697 10.0753 10.8554 9.47668 11.6037 9.47668C12.3895 9.47668 13.0629 10.1127 13.0629 11.31V16.2114H15.3827V11.31C15.3827 10.1127 16.0935 9.47668 16.8793 9.47668C17.7024 9.47668 18.3759 10.0753 18.3759 11.2726V16.2114H20.6956V11.1978C20.6956 8.57872 19.4235 7.41885 17.6276 7.41885Z" fill="white"/>
<path fill-rule="evenodd" clip-rule="evenodd" d="M22.9031 16.3236C23.6514 16.3236 24.25 15.7249 24.25 14.9766C24.25 14.2283 23.6514 13.6297 22.9031 13.6297C22.1548 13.6297 21.5561 14.2283 21.5561 14.9766C21.5561 15.7249 22.1922 16.3236 22.9031 16.3236Z" fill="#FF788B"/>
</svg>
