<svg width="32" height="24" viewBox="0 0 32 24" fill="none" xmlns="http://www.w3.org/2000/svg">
<rect x="0.5" y="0.5" width="31" height="23" rx="3.5" fill="white"/>
<rect x="0.5" y="0.5" width="31" height="23" rx="3.5" stroke="#DBD9D7"/>
<path d="M9.00011 4.59076H14.7443C15.5461 4.59076 16.0448 5.26355 15.8578 6.0917L13.1835 17.9113C12.9947 18.7366 12.1919 19.4099 11.3895 19.4099H5.6459C4.84519 19.4099 4.34535 18.7366 4.53241 17.9113L7.20785 6.0917C7.3949 5.26355 8.19729 4.59076 9.00011 4.59076Z" fill="#E21836"/>
<path d="M14.266 4.59H20.8716C21.6733 4.59 21.3118 5.26278 21.1232 6.09094L18.4493 17.9105C18.2617 18.7358 18.3202 19.4092 17.5169 19.4092H10.9112C10.1078 19.4092 9.61066 18.7358 9.79939 17.9105L12.4732 6.09094C12.663 5.26278 13.4637 4.59 14.266 4.59Z" fill="#00447C"/>
<path d="M20.6097 4.59H26.3539C27.1569 4.59 27.6556 5.26278 27.467 6.09094L24.7931 17.9105C24.6043 18.7358 23.801 19.4092 22.9982 19.4092H17.2566C16.4533 19.4092 15.955 18.7358 16.1431 17.9105L18.8175 6.09094C19.0045 5.26278 19.8064 4.59 20.6097 4.59Z" fill="#007B84"/>
<path d="M10.5 8.3778C9.9093 8.384 9.73485 8.3778 9.67912 8.36425C9.6577 8.46904 9.25909 10.3619 9.25798 10.3634C9.17215 10.7464 9.1097 11.0194 8.89759 11.1956C8.77718 11.2981 8.63661 11.3475 8.47364 11.3475C8.21168 11.3475 8.05907 11.2137 8.03345 10.9597L8.02855 10.8725C8.02855 10.8725 8.10836 10.3596 8.10836 10.3567C8.10836 10.3567 8.52671 8.63176 8.60161 8.40375C8.60553 8.39077 8.60665 8.384 8.60763 8.3778C7.79334 8.38515 7.64899 8.3778 7.63905 8.36425C7.63359 8.38285 7.61342 8.48979 7.61342 8.48979L7.18626 10.4339L7.14957 10.5988L7.07859 11.1381C7.07859 11.2981 7.10911 11.4287 7.16987 11.5391C7.36449 11.8892 7.91962 11.9416 8.23367 11.9416C8.63829 11.9416 9.01786 11.8531 9.27436 11.6916C9.71959 11.4208 9.83607 10.9975 9.93996 10.6213L9.98812 10.4283C9.98812 10.4283 10.4191 8.6368 10.4923 8.40375C10.4951 8.39077 10.4962 8.384 10.5 8.3778ZM11.9663 9.82303C11.8624 9.82303 11.6725 9.84897 11.502 9.93501C11.4401 9.96773 11.3816 10.0055 11.3199 10.0431L11.3756 9.836L11.3451 9.80112C10.9834 9.8765 10.9025 9.88659 10.5684 9.93501L10.5404 9.95418C10.5016 10.2852 10.4672 10.5341 10.3234 11.1849C10.2687 11.4247 10.2118 11.6668 10.1548 11.9061L10.1702 11.9365C10.5126 11.9179 10.6164 11.9179 10.914 11.923L10.938 11.896C10.9758 11.6967 10.9807 11.65 11.0645 11.2463C11.1038 11.0549 11.1859 10.6343 11.2263 10.4846C11.3007 10.4491 11.374 10.4142 11.444 10.4142C11.6108 10.4142 11.5905 10.564 11.584 10.6237C11.5769 10.7238 11.5161 11.051 11.4538 11.3319L11.4123 11.5132C11.3833 11.6471 11.3515 11.7772 11.3225 11.91L11.3351 11.9365C11.6725 11.9179 11.7754 11.9179 12.0636 11.923L12.0975 11.896C12.1495 11.5847 12.1648 11.5014 12.2572 11.0481L12.3037 10.8398C12.394 10.4323 12.4394 10.2256 12.371 10.0572C12.2988 9.86857 12.1255 9.82303 11.9663 9.82303ZM13.6043 10.2498C13.4249 10.2852 13.3105 10.3089 13.1968 10.3241C13.0841 10.3427 12.9742 10.3596 12.8009 10.3844L12.7872 10.3972L12.7746 10.4074C12.7565 10.5403 12.7439 10.6552 12.72 10.7902C12.6997 10.9299 12.6684 11.0886 12.6176 11.3166C12.5783 11.4911 12.558 11.552 12.5356 11.6134C12.5137 11.6748 12.4897 11.7344 12.4454 11.9061L12.4558 11.9219L12.4645 11.9365C12.6264 11.9286 12.7324 11.9229 12.8414 11.9219C12.9501 11.9179 13.0629 11.9219 13.2373 11.9229L13.2526 11.9101L13.2689 11.896C13.2942 11.7412 13.2979 11.6995 13.3133 11.624C13.3286 11.543 13.3549 11.4309 13.4195 11.1314C13.45 10.9907 13.484 10.8505 13.5156 10.7069C13.5485 10.564 13.583 10.4232 13.6158 10.2825L13.6109 10.2655L13.6043 10.2498ZM13.6081 9.67439C13.4451 9.57537 13.1591 9.60679 12.9666 9.74357C12.7746 9.87761 12.7528 10.0679 12.9152 10.1682C13.0754 10.2644 13.3625 10.2358 13.5534 10.0978C13.7449 9.96091 13.7688 9.77239 13.6081 9.67439ZM14.5937 11.9675C14.9234 11.9675 15.2614 11.874 15.5158 11.5964C15.7115 11.3713 15.8013 11.0363 15.8324 10.8984C15.9336 10.4412 15.8548 10.2278 15.7558 10.0978C15.6054 9.89959 15.3397 9.83603 15.064 9.83603C14.8982 9.83603 14.5034 9.85289 14.1949 10.1456C13.9734 10.3568 13.8711 10.6433 13.8094 10.918C13.7471 11.1979 13.6754 11.7018 14.1255 11.8893C14.2644 11.9507 14.4646 11.9675 14.5937 11.9675ZM14.5679 10.9389C14.644 10.5927 14.7337 10.3021 14.9628 10.3021C15.1422 10.3021 15.1553 10.5183 15.0755 10.8657C15.0612 10.9428 14.9957 11.2294 14.907 11.3515C14.8451 11.4416 14.7719 11.4962 14.691 11.4962C14.6669 11.4962 14.5237 11.4962 14.5214 11.2773C14.5203 11.1692 14.5417 11.0588 14.5679 10.9389ZM16.6566 11.923L16.6824 11.8961C16.7189 11.6967 16.7249 11.6499 16.8058 11.2463C16.8463 11.0549 16.93 10.6344 16.9694 10.4846C17.0439 10.449 17.116 10.4141 17.1882 10.4141C17.3538 10.4141 17.3337 10.5639 17.3271 10.6236C17.3211 10.7239 17.2603 11.0509 17.1969 11.3318L17.1575 11.5131C17.1274 11.6471 17.0947 11.7771 17.0657 11.91L17.0783 11.9366C17.4168 11.918 17.5158 11.918 17.8056 11.923L17.8407 11.8961C17.8915 11.5846 17.9052 11.5013 18.0004 11.0482L18.0458 10.8397C18.1365 10.4322 18.1824 10.2256 18.1152 10.0573C18.0409 9.86861 17.8664 9.82307 17.7095 9.82307C17.6054 9.82307 17.4146 9.84887 17.245 9.93506C17.1844 9.96777 17.1237 10.0054 17.064 10.0432L17.116 9.83604L17.0881 9.80102C16.7266 9.87654 16.644 9.88663 16.3103 9.93506L16.2847 9.95422C16.2443 10.2853 16.2114 10.534 16.0676 11.1849C16.0128 11.4248 15.956 11.6669 15.8991 11.9061L15.9144 11.9366C16.2573 11.918 16.3596 11.918 16.6566 11.923ZM19.1439 11.9365C19.1652 11.8295 19.2916 11.1957 19.2928 11.1957C19.2928 11.1957 19.4004 10.7306 19.407 10.7137C19.407 10.7137 19.4409 10.6653 19.4748 10.6461H19.5246C19.9949 10.6461 20.526 10.6461 20.9422 10.3309C21.2254 10.1147 21.4191 9.79547 21.5055 9.40748C21.5279 9.31235 21.5444 9.19921 21.5444 9.08607C21.5444 8.93748 21.5154 8.79047 21.4317 8.6756C21.2194 8.3699 20.7967 8.36428 20.3088 8.36198C20.3073 8.36198 20.0683 8.36428 20.0683 8.36428C19.4437 8.37221 19.1932 8.36991 19.0903 8.35693C19.0816 8.40377 19.0652 8.48708 19.0652 8.48708C19.0652 8.48708 18.8415 9.55449 18.8415 9.55622C18.8415 9.55622 18.3061 11.8256 18.2809 11.9326C18.8262 11.9258 19.0498 11.9258 19.1439 11.9365ZM19.5585 10.0403C19.5585 10.0403 19.7964 8.9751 19.7953 8.97913L19.803 8.92451L19.8063 8.88285L19.9014 8.89294C19.9014 8.89294 20.392 8.93633 20.4035 8.93748C20.5971 9.01459 20.6769 9.21334 20.6212 9.47277C20.5703 9.70986 20.421 9.90918 20.229 10.0055C20.0709 10.087 19.8773 10.0938 19.6778 10.0938H19.5487L19.5585 10.0403ZM21.0396 10.9586C20.9767 11.2345 20.9045 11.7383 21.3524 11.9179C21.4952 11.9805 21.6231 11.9991 21.7532 11.9923C21.8905 11.9847 22.0178 11.9138 22.1357 11.8117C22.1251 11.8536 22.1144 11.8956 22.1038 11.9377L22.1241 11.9646C22.4462 11.9506 22.5462 11.9506 22.8953 11.9534L22.9269 11.9286C22.9779 11.6202 23.0259 11.3207 23.1583 10.7306C23.2229 10.448 23.2873 10.1681 23.3535 9.8866L23.3431 9.85561C22.9828 9.92436 22.8864 9.93906 22.5398 9.98965L22.5135 10.0117C22.51 10.0404 22.5063 10.0679 22.5029 10.0954C22.449 10.0058 22.3709 9.92926 22.2504 9.88156C22.0962 9.81915 21.7342 9.89957 21.4229 10.1913C21.2042 10.3995 21.0992 10.6849 21.0396 10.9586ZM21.7965 10.9755C21.8736 10.6355 21.9622 10.3478 22.1918 10.3478C22.337 10.3478 22.4135 10.4857 22.3979 10.721C22.3856 10.7796 22.3723 10.8414 22.3565 10.9113C22.3335 11.0124 22.3086 11.1125 22.2844 11.2129C22.2598 11.2815 22.2311 11.3462 22.1995 11.3893C22.1405 11.4755 21.9999 11.5289 21.919 11.5289C21.896 11.5289 21.7543 11.5289 21.7494 11.3139C21.7483 11.2068 21.7697 11.0965 21.7965 10.9755ZM25.749 9.85286L25.7211 9.82014C25.3645 9.89451 25.3 9.90633 24.9724 9.95188L24.9483 9.97667C24.9472 9.9807 24.9462 9.9869 24.9445 9.99252L24.9434 9.9869C24.6995 10.5661 24.7066 10.4412 24.5081 10.8972C24.507 10.8765 24.507 10.8635 24.5059 10.8414L24.4562 9.85286L24.4249 9.82014C24.0514 9.89451 24.0426 9.90633 23.6976 9.95188L23.6707 9.97667C23.6669 9.98848 23.6669 10.0015 23.6647 10.0156L23.6669 10.0206C23.71 10.2475 23.6997 10.1969 23.7429 10.5549C23.7631 10.7306 23.79 10.9073 23.8101 11.0808C23.8442 11.3712 23.8632 11.5142 23.9048 11.9574C23.6718 12.3532 23.6167 12.5029 23.3924 12.8503L23.3939 12.8537L23.236 13.1109C23.2179 13.138 23.2015 13.1565 23.1786 13.1645C23.1534 13.1773 23.1206 13.1796 23.0751 13.1796H22.9876L22.8575 13.625L23.3037 13.6329C23.5657 13.6317 23.7303 13.5056 23.819 13.3361L24.0995 12.8412H24.0951L24.1246 12.8063C24.3133 12.3881 25.749 9.85286 25.749 9.85286ZM21.0396 15.7019H20.8503L21.5509 13.3165H21.7833L21.8571 13.0707L21.8642 13.344C21.8555 13.5129 21.9846 13.6626 22.3237 13.6379H22.7159L22.8509 13.1785H22.7033C22.6184 13.1785 22.5791 13.1565 22.584 13.1092L22.5769 12.8312H21.8506V12.8326C21.6158 12.8377 20.9147 12.8558 20.7727 12.8947C20.6009 12.9403 20.4199 13.0743 20.4199 13.0743L20.491 12.8283H19.8117L19.6701 13.3165L18.9601 15.7384H18.8224L18.6873 16.1944H20.0403L19.9949 16.3464H20.6617L20.7059 16.1944H20.893L21.0396 15.7019ZM20.4844 13.8012C20.3756 13.8321 20.1732 13.9261 20.1732 13.9261L20.3532 13.3165H20.893L20.7628 13.7607C20.7628 13.7607 20.596 13.7707 20.4844 13.8012ZM20.4948 14.6721C20.4948 14.6721 20.3252 14.694 20.2136 14.72C20.1037 14.7543 19.8976 14.8624 19.8976 14.8624L20.0836 14.2279H20.6261L20.4948 14.6721ZM20.1924 15.7075H19.6509L19.8079 15.1721H20.3476L20.1924 15.7075ZM21.4962 14.2279H22.2766L22.1645 14.6018H21.3737L21.255 15.0105H21.9469L21.423 15.7699C21.3863 15.8257 21.3534 15.8455 21.3169 15.8612C21.2802 15.8803 21.232 15.9028 21.1763 15.9028H20.9843L20.8524 16.3505H21.3545C21.6155 16.3505 21.7697 16.2283 21.8835 16.0678L22.2427 15.5617L22.3199 16.0756C22.3363 16.1719 22.4035 16.2283 22.449 16.2502C22.4992 16.2761 22.5512 16.3206 22.6245 16.3273C22.7032 16.3307 22.7601 16.3335 22.7979 16.3335H23.0446L23.1927 15.8325H23.0954C23.0395 15.8325 22.9433 15.8228 22.927 15.8048C22.9106 15.7829 22.9106 15.7492 22.9018 15.6979L22.8235 15.1828H22.503L22.6436 15.0105H23.4328L23.5542 14.6018H22.8235L22.9373 14.2279H23.6658L23.8009 13.7669H21.6291L21.4962 14.2279ZM14.9048 15.8116L15.087 15.1878H15.8356L15.9724 14.7239H15.2231L15.3375 14.3399H16.0697L16.2054 13.8907H14.3732L14.2403 14.3399H14.6566L14.5456 14.7239H14.1282L13.9899 15.1958H14.406L14.1632 16.021C14.1304 16.1303 14.1786 16.1719 14.2091 16.2227C14.2403 16.2721 14.272 16.3048 14.3431 16.3234C14.4165 16.3403 14.4667 16.3504 14.5351 16.3504H15.379L15.5294 15.8364L15.1553 15.8893C15.0831 15.8893 14.883 15.8804 14.9048 15.8116ZM14.9907 12.8255L14.801 13.1785C14.7604 13.2556 14.7238 13.3034 14.6909 13.3255C14.6619 13.3441 14.6045 13.3518 14.5214 13.3518H14.4224L14.2901 13.8034H14.6188C14.7769 13.8034 14.8983 13.7437 14.9562 13.7139C15.0186 13.6796 15.0349 13.6992 15.0831 13.6513L15.1941 13.5523H16.2207L16.3569 13.0822H15.6055L15.7367 12.8255H14.9907ZM16.5062 15.8207C16.4887 15.7948 16.5013 15.7491 16.528 15.6539L16.8086 14.6979H17.8068C17.9522 14.6958 18.0572 14.6941 18.1256 14.689C18.1989 14.6811 18.2787 14.6541 18.3657 14.6057C18.4554 14.555 18.5013 14.5015 18.5401 14.4401C18.5834 14.3788 18.6528 14.2448 18.7125 14.0381L19.0652 12.8283L18.0294 12.8345C18.0294 12.8345 17.7104 12.8829 17.57 12.9364C17.4283 12.9961 17.2259 13.1627 17.2259 13.1627L17.3194 12.8311H16.6795L15.7838 15.8893C15.752 16.0081 15.7307 16.0943 15.7258 16.146C15.7241 16.2018 15.7941 16.257 15.8395 16.2986C15.8931 16.3403 15.9724 16.3335 16.0484 16.3403C16.1283 16.3465 16.242 16.3504 16.399 16.3504H16.8907L17.0416 15.8257L16.6014 15.8685C16.5544 15.8685 16.5203 15.8426 16.5062 15.8207ZM16.9897 14.0523H18.038L17.9714 14.2673C17.962 14.2723 17.9396 14.2566 17.8329 14.2696H16.9251L16.9897 14.0523ZM17.1997 13.331H18.2569L18.1809 13.59C18.1809 13.59 17.6826 13.585 17.6028 13.6001C17.2516 13.6627 17.0465 13.8558 17.0465 13.8558L17.1997 13.331ZM17.9949 14.9874C17.9862 15.0195 17.9725 15.0391 17.9533 15.0538C17.932 15.068 17.8976 15.073 17.8462 15.073H17.6968L17.7056 14.8111H17.0842L17.059 16.0914C17.0581 16.1838 17.0667 16.2373 17.1324 16.2801C17.1981 16.3335 17.4004 16.3403 17.6727 16.3403H18.0621L18.2026 15.8611L17.8637 15.8803L17.751 15.887C17.7356 15.8803 17.7209 15.8741 17.7045 15.8572C17.6902 15.8426 17.6661 15.8516 17.67 15.7592L17.6727 15.431L18.0282 15.4159C18.2201 15.4159 18.3022 15.3516 18.3722 15.2904C18.439 15.2317 18.4608 15.1642 18.486 15.073L18.5457 14.7824H18.0572L17.9949 14.9874Z" fill="#FEFEFE"/>
</svg>
