<svg width="32" height="24" viewBox="0 0 32 24" fill="none" xmlns="http://www.w3.org/2000/svg">
<rect x="0.5" y="0.5" width="31" height="23" rx="3.5" fill="white"/>
<rect x="0.5" y="0.5" width="31" height="23" rx="3.5" stroke="#DBD9D7"/>
<path fill-rule="evenodd" clip-rule="evenodd" d="M15.0209 18.3038H17.2237C20.6624 18.3038 23.4025 15.5757 23.51 12.2058V12.1523C23.4563 8.72882 20.6624 5.94727 17.2237 6.00076H14.7522C11.4748 6.10774 8.89578 8.8893 9.00324 12.2058C9.00324 15.5222 11.6897 18.2503 15.0209 18.3038ZM10.0778 12.1523C10.0778 9.3707 12.3881 7.07057 15.182 7.07057C17.9759 7.07057 20.2863 9.3707 20.2863 12.1523C20.2863 14.9338 17.9759 17.2339 15.182 17.2339C12.3881 17.2339 10.0778 14.9338 10.0778 12.1523ZM15.988 15.5757V8.78229C17.8685 9.26372 19.0505 11.1359 18.567 13.0081C18.2446 14.2919 17.2775 15.2548 15.988 15.5757ZM11.8509 11.2964C11.3673 13.1686 12.4956 15.0943 14.3761 15.5757V8.78229C13.1404 9.10324 12.1732 10.0661 11.8509 11.2964Z" fill="#0079BE"/>
</svg>
