<svg width="32" height="24" viewBox="0 0 32 24" fill="none" xmlns="http://www.w3.org/2000/svg">
<rect x="0.5" y="0.5" width="31" height="23" rx="3.5" fill="white"/>
<rect x="0.5" y="0.5" width="31" height="23" rx="3.5" stroke="#DBD9D7"/>
<path d="M7.78397 9.62487C8.04157 9.54043 8.31714 9.49459 8.60388 9.49459C9.85525 9.49459 10.8991 10.3664 11.1385 11.5244L12.9118 11.1698C12.5049 9.2016 10.731 7.72 8.60388 7.72C8.11687 7.72 7.6481 7.79781 7.2105 7.94114L7.78397 9.62487Z" fill="#FECA2F"/>
<path d="M5.67362 15.3289L6.73538 13.9583C6.26144 13.4791 5.96231 12.7794 5.96231 11.9995C5.96231 11.2202 6.26116 10.5205 6.73496 10.0416L5.67264 8.67114C4.86732 9.48538 4.35983 10.6748 4.35983 11.9995C4.35983 13.3249 4.86807 14.5147 5.67362 15.3289Z" fill="#1BA7DE"/>
<path d="M11.1391 12.4756C10.8988 13.6334 9.85564 14.5041 8.60538 14.5041C8.31852 14.5041 8.04241 14.4582 7.78479 14.3735L7.2105 16.0581C7.64877 16.2021 8.1177 16.28 8.60538 16.28C10.7306 16.28 12.5033 14.7994 12.9118 12.8319L11.1391 12.4756Z" fill="#EC412A"/>
<path fill-rule="evenodd" clip-rule="evenodd" d="M21.4436 8.67114V13.542L22.3179 13.8924L21.9043 14.8531L21.0396 14.5056C20.8452 14.4241 20.7136 14.3 20.6137 14.1597C20.5177 14.0162 20.4465 13.8201 20.4465 13.5554V8.67114H21.4436ZM14.8126 12.2913C14.8343 10.8984 16.0208 9.7865 17.4606 9.80784C18.6826 9.82637 19.6951 10.6538 19.961 11.7544L15.2347 13.7073C14.9602 13.3015 14.8041 12.8134 14.8126 12.2913ZM15.894 12.4866C15.8875 12.4282 15.8829 12.3682 15.8846 12.3078C15.8982 11.4871 16.5967 10.8323 17.445 10.8459C17.9067 10.8518 18.3167 11.0562 18.5939 11.3726L15.894 12.4866ZM18.4944 13.3909C18.2095 13.6588 17.8232 13.822 17.3967 13.8161C17.1044 13.8114 16.8335 13.7268 16.6032 13.5858L16.0322 14.4653C16.4233 14.7042 16.8843 14.8456 17.3814 14.8531C18.1049 14.8635 18.7644 14.5887 19.2439 14.135L18.4944 13.3909ZM25.0824 10.8458C24.9121 10.8458 24.7484 10.8724 24.5955 10.922L24.2553 9.93649C24.5149 9.85267 24.793 9.80714 25.0824 9.80714C26.3452 9.80714 27.3986 10.6743 27.6402 11.8263L26.587 12.0338C26.4451 11.3559 25.8254 10.8458 25.0824 10.8458ZM23.3533 14.2201L24.0649 13.4421C23.7471 13.1701 23.5469 12.7728 23.5469 12.33C23.5469 11.8877 23.7471 11.4906 24.0646 11.2188L23.3525 10.4408C22.8126 10.903 22.4724 11.5784 22.4724 12.33C22.4724 13.0825 22.8129 13.7577 23.3533 14.2201ZM25.0823 13.8148C25.8246 13.8148 26.4443 13.3051 26.587 12.6282L27.6398 12.8366C27.3971 13.9873 26.344 14.8533 25.0823 14.8533C24.7927 14.8533 24.5143 14.8077 24.2539 14.7234L24.5949 13.7382C24.7481 13.7877 24.9119 13.8148 25.0823 13.8148Z" fill="black"/>
</svg>
