<svg width="32" height="24" viewBox="0 0 32 24" fill="none" xmlns="http://www.w3.org/2000/svg">
<rect x="0.5" y="0.5" width="31" height="23" rx="3.5" fill="white"/>
<rect x="0.5" y="0.5" width="31" height="23" rx="3.5" stroke="#DBD9D7"/>
<path d="M21.145 14.2556C21.4042 14.5169 21.6162 14.7996 21.7683 15.1058C22.248 16.0781 22.0702 17.1511 21.1172 18.087C20.025 19.1599 18.1639 19.8195 16.003 19.8195C13.8421 19.8195 11.981 19.1599 10.8888 18.087C9.93577 17.1511 9.76016 16.0781 10.2377 15.1058C10.3877 14.8017 10.5975 14.519 10.8588 14.2556C10.5526 14.5511 10.3127 14.8124 10.0943 15.2493C9.62738 16.1831 9.77729 17.5194 10.7624 18.4874C11.8825 19.5882 13.6365 20.25 16.0223 20.25C18.4145 20.25 20.1685 19.5668 21.2414 18.4874C22.2951 17.4295 22.3358 16.0503 21.9032 15.2193C21.7211 14.8745 21.4813 14.5554 21.145 14.2556Z" fill="url(#paint0_linear_16587_6950)"/>
<path d="M19.3909 13.1313C18.378 12.7115 17.2001 12.4952 16.0029 12.4952C14.8057 12.4952 13.6257 12.7115 12.6148 13.1313C11.5076 13.5917 10.6489 14.2727 10.2377 15.1058C9.76016 16.0781 9.93577 17.1511 10.8888 18.087C11.981 19.1599 13.8421 19.8195 16.003 19.8195C18.1639 19.8195 20.025 19.1599 21.1172 18.087C22.0702 17.1511 22.2458 16.0781 21.7683 15.1058C21.3571 14.2727 20.4982 13.5896 19.3909 13.1313Z" fill="#F47920"/>
<path d="M16.2042 13.5982C16.005 13.1891 16.0457 12.8186 16.0864 12.4952C16.0586 12.4952 16.0307 12.4952 16.0029 12.4952C14.8057 12.4952 13.6257 12.7115 12.6148 13.1313C11.5076 13.5917 10.6489 14.2727 10.2377 15.1058C9.76016 16.0781 9.93577 17.1511 10.8888 18.087C10.9573 18.1533 11.0258 18.2176 11.0986 18.2797C15.1205 18.0442 17.2236 15.6905 16.2042 13.5982Z" fill="url(#paint1_linear_16587_6950)"/>
<path d="M13.4096 13.6688C14.1571 13.8594 14.8681 14.0843 15.5919 14.352C15.7354 13.9215 15.8875 13.4953 16.061 13.0756C16.2344 13.4953 16.3865 13.9215 16.53 14.352C17.2538 14.0843 17.952 13.868 18.6994 13.6774C18.1726 14.0072 17.7079 14.3477 17.2217 14.731C18.2112 14.8574 19.1363 15.0202 20.1086 15.2322C19.1385 15.2108 18.224 15.245 17.256 15.3071C17.9392 15.8854 18.5238 16.4465 19.1599 17.0761C18.2883 16.5793 17.4723 16.1616 16.5642 15.7333C16.3886 16.4915 16.2216 17.2539 16.061 18.0142C15.9003 17.2517 15.7526 16.5279 15.577 15.7697C14.6689 16.1981 13.8444 16.6071 12.9449 17.0825C13.581 16.4529 14.1828 15.9046 14.8659 15.3264C13.8958 15.2643 12.9685 15.2515 11.9747 15.2365C12.9406 15.0266 13.9172 14.8595 14.8981 14.7353C14.414 14.3541 13.9365 13.9986 13.4096 13.6688ZM16.0631 14.9945V13.3176C15.8939 13.7844 15.744 14.2556 15.6027 14.731C15.7547 14.8188 15.9089 14.9067 16.0631 14.9945ZM13.8465 13.853C14.4462 14.1164 15.0287 14.4141 15.6005 14.7332C15.4592 14.7482 15.3157 14.7632 15.1743 14.7782C14.7439 14.4526 14.3027 14.1421 13.8465 13.853ZM16.0631 14.9945C17.2174 14.9966 18.3696 15.0544 19.5175 15.1679C18.5088 14.9859 17.5301 14.8467 16.5193 14.7289C16.3672 14.8167 16.2152 14.9045 16.0631 14.9945ZM18.2775 13.853C17.6779 14.1164 17.0932 14.4141 16.5214 14.731C16.4979 14.6518 16.4743 14.5747 16.4507 14.4955C17.0504 14.2577 17.6586 14.0393 18.2775 13.853ZM16.001 14.9966C16.0246 15.8061 16.0545 16.6649 16.0631 17.4488C16.213 16.7249 16.3694 16.001 16.5364 15.2793C16.3801 15.1829 16.1616 15.0887 16.001 14.9966ZM18.6052 16.6649C17.9327 16.1788 17.2431 15.714 16.5364 15.2793C16.682 15.2686 16.8255 15.2579 16.9712 15.2472C17.5323 15.6991 18.0762 16.1745 18.6052 16.6649ZM16.0631 14.9945C14.9002 15.0116 13.9943 15.063 12.8614 15.1615C13.8401 15.1636 14.5982 15.2022 15.5919 15.2793C15.7483 15.1829 15.9046 15.0887 16.0631 14.9945ZM13.521 16.6649C14.1956 16.1788 14.8852 15.7162 15.5919 15.2793C15.6134 15.3692 15.6326 15.4592 15.6541 15.5491C14.9302 15.8982 14.2192 16.2709 13.521 16.6649Z" fill="white"/>
<path d="M16.061 13.1034C16.2344 13.5232 16.3865 13.9494 16.53 14.3798C17.2174 14.1271 17.9156 13.9087 18.6245 13.7266C18.6502 13.7116 18.6737 13.6945 18.6994 13.6795C17.9649 13.8658 17.241 14.0907 16.53 14.3541C16.3865 13.9237 16.2344 13.4975 16.061 13.0777C15.8875 13.4975 15.7354 13.9237 15.5919 14.3541C14.8681 14.0864 14.1571 13.8615 13.4096 13.6709C13.4353 13.6859 13.4589 13.7031 13.4846 13.7181C14.2063 13.9044 14.8938 14.1228 15.5919 14.382C15.7354 13.9494 15.8875 13.5232 16.061 13.1034Z" fill="#C9252C"/>
<path d="M14.8658 15.3286C14.1933 15.9004 13.5723 16.4637 12.9469 17.0847L13.0476 17.0291C13.6622 16.423 14.2062 15.9304 14.8679 15.3714L14.8658 15.3286Z" fill="#CB4D2C"/>
<path d="M16.0374 15.0094L16.0138 15.0244C15.8725 15.1079 15.7311 15.1936 15.5919 15.2814L15.5983 15.3092C15.7525 15.215 15.9067 15.1229 16.0631 15.0308L16.0631 14.9945L16.0374 15.0094Z" fill="#C4161C"/>
<path d="M15.6005 14.7332L15.5575 14.7375C15.429 14.7504 15.3028 14.7632 15.1743 14.7782C14.7439 14.4526 14.3027 14.1421 13.8465 13.853L13.8463 13.8873C14.3025 14.1764 14.7437 14.4869 15.1741 14.8125C15.3155 14.7975 15.459 14.7804 15.6003 14.7675C15.7395 14.8446 15.8702 14.9174 16.0072 14.9967H16.0629C15.9087 14.9067 15.7547 14.8188 15.6005 14.7332ZM13.5208 16.7035C14.219 16.3095 14.93 15.9368 15.6539 15.5899V15.5513C14.93 15.9004 14.2192 16.2709 13.521 16.6649L13.5208 16.7035Z" fill="#CB4D2C"/>
<path d="M16.5363 15.2771C16.3714 15.9903 16.2107 16.7292 16.063 17.4466V17.4745C16.2129 16.7506 16.3692 16.031 16.5363 15.3093C17.0181 15.607 17.7184 16.0653 18.6072 16.7056V16.6628C17.9326 16.1788 17.243 15.714 16.5363 15.2771ZM17.288 15.335L17.258 15.3093V15.3542C17.9176 15.9132 18.4445 16.4122 19.0591 17.0204C19.0805 17.0333 19.1405 17.0675 19.164 17.0804C18.5151 16.4358 17.9369 15.8875 17.288 15.335Z" fill="#A71C20"/>
<path d="M14.87 14.7418C13.8998 14.866 12.9339 15.0309 11.9766 15.2387C12.0237 15.2387 12.0816 15.2408 12.1287 15.2408C13.0453 15.0459 13.9705 14.8896 14.8999 14.7718V14.7375L14.87 14.7418ZM15.5919 15.2793C14.6818 15.2001 13.7756 15.1551 12.8633 15.1637V15.1915C13.7627 15.1851 14.6579 15.2279 15.5553 15.305L15.5919 15.2793Z" fill="#CB4D2C"/>
<path d="M17.2217 14.731C18.2112 14.8574 19.1363 15.0202 20.1086 15.2322C20.0594 15.23 19.995 15.2301 19.9457 15.2301C19.0184 15.0331 18.1596 14.8853 17.2216 14.7675L17.2217 14.731ZM16.0631 14.9945C17.2174 14.9966 18.3696 15.0544 19.5175 15.1679L19.5174 15.198C18.3866 15.0845 17.2515 15.0266 16.1143 15.0224C16.1058 15.0181 16.0951 15.0116 16.0865 15.0052L16.0631 14.9945ZM16.5191 14.7311C16.5341 14.7332 16.547 14.7354 16.5598 14.7354C17.1188 14.427 17.6884 14.1379 18.2731 13.8809V13.853C17.6756 14.1164 17.0931 14.412 16.5191 14.7311Z" fill="#A71C20"/>
<path d="M16.5191 14.7311C16.4956 14.6519 16.4721 14.5746 16.4486 14.4954V14.5232C16.47 14.5939 16.4914 14.6646 16.5107 14.7331C16.515 14.7331 16.517 14.7332 16.5191 14.7311Z" fill="#C4161C"/>
<path d="M16.1765 19.5968C16.1422 19.6225 16.0951 19.6482 16.063 19.6739C16.0287 19.6482 15.9816 19.6225 15.9474 19.5968C15.9474 19.282 15.9474 18.9693 15.9474 18.6545C15.9816 18.6309 16.0309 18.6074 16.063 18.5859C16.0973 18.6095 16.1422 18.6331 16.1744 18.6545L16.1765 19.5968ZM10.5869 17.3181L10.5312 17.4252C10.5654 17.438 10.6318 17.4595 10.6618 17.4723C10.9916 17.2967 11.3172 17.1211 11.6405 16.9519C11.6534 16.9026 11.6598 16.8748 11.6748 16.8362C11.6405 16.8277 11.6084 16.8191 11.5742 16.8105C11.2422 16.9754 10.9124 17.1446 10.5869 17.3181ZM10.3449 15.3864C10.3149 15.4099 10.2849 15.4335 10.2549 15.4592C10.272 15.4806 10.2892 15.5063 10.3042 15.5277C10.6104 15.4849 10.9188 15.4463 11.2272 15.4142C11.2551 15.3864 11.2915 15.3521 11.3172 15.3264C11.3 15.3071 11.2808 15.29 11.2636 15.2707C10.9574 15.3028 10.6511 15.3414 10.3449 15.3864ZM11.5249 13.8273L11.4307 13.8679C11.4328 13.8872 11.4371 13.9193 11.4392 13.9386C11.6662 13.9707 11.8911 14.0093 12.1181 14.0521C12.1481 14.035 12.1867 14.0114 12.2145 13.9964L12.2017 13.9365C11.9789 13.8958 11.7519 13.8572 11.5249 13.8273ZM18.4509 12.8678C18.4788 12.8678 18.5087 12.8678 18.5366 12.8678L18.5708 12.9021C18.4531 12.977 18.3353 13.0563 18.2218 13.1355C18.1918 13.1355 18.1618 13.1355 18.1318 13.1355L18.0975 13.097C18.2132 13.0199 18.331 12.9406 18.4509 12.8678ZM15.9816 12.5401L16.0459 12.5209L16.1123 12.5401L16.1144 12.8164C16.0908 12.825 16.0694 12.8314 16.0459 12.84C16.0245 12.8314 16.0009 12.825 15.9795 12.8164L15.9816 12.5401ZM13.5016 12.9085C13.5123 12.8978 13.538 12.8764 13.5487 12.8657L13.6365 12.8635C13.7565 12.9385 13.8743 13.0156 13.9899 13.097L13.9556 13.1355C13.9257 13.1355 13.8828 13.1441 13.8528 13.1419C13.7372 13.0606 13.6194 12.9835 13.5016 12.9085ZM12.7799 19.0207C12.7328 19.0314 12.6728 19.0314 12.6278 19.0421C12.6171 19.01 12.5936 18.9757 12.585 18.9436C12.8142 18.6695 13.0476 18.3953 13.2832 18.1255C13.3281 18.1148 13.3881 18.1062 13.4331 18.0955C13.4438 18.1234 13.4652 18.1726 13.4781 18.1983C13.2425 18.4724 13.009 18.7444 12.7799 19.0207ZM21.462 17.3181C21.4813 17.3524 21.4984 17.3888 21.5177 17.4252C21.4835 17.438 21.4171 17.4595 21.3871 17.4723C21.0573 17.2967 20.7317 17.1211 20.4084 16.9519C20.3955 16.9026 20.3891 16.8748 20.3741 16.8362C20.4084 16.8277 20.4405 16.8191 20.4748 16.8105C20.8046 16.9754 21.1344 17.1446 21.462 17.3181ZM21.704 15.3864C21.734 15.4099 21.764 15.4335 21.794 15.4592C21.7769 15.4806 21.7597 15.5063 21.7447 15.5277C21.4385 15.4849 21.1301 15.4463 20.8217 15.4142C20.7939 15.3864 20.7574 15.3521 20.7317 15.3264C20.7489 15.3071 20.7682 15.29 20.7853 15.2707C21.0915 15.3028 21.3978 15.3414 21.704 15.3864ZM20.5219 13.8273L20.6161 13.8679C20.614 13.8872 20.6097 13.9193 20.6075 13.9386C20.3805 13.9707 20.1557 14.0093 19.9286 14.0521C19.8987 14.035 19.8601 14.0114 19.8323 13.9964C19.8365 13.9772 19.8408 13.9579 19.8451 13.9365C20.07 13.8958 20.2949 13.8572 20.5219 13.8273ZM19.2669 19.0207C19.3054 19.0271 19.3718 19.0357 19.4189 19.0421C19.4339 19.01 19.4489 18.9779 19.4618 18.9436C19.2326 18.6695 18.9992 18.3953 18.7636 18.1255C18.7186 18.1148 18.6587 18.1062 18.6137 18.0955C18.603 18.1234 18.5816 18.1726 18.5687 18.1983C18.8043 18.4724 19.0377 18.7444 19.2669 19.0207Z" fill="white"/>
<path d="M10.5826 17.3738C10.574 17.3909 10.5611 17.4166 10.5526 17.4316C10.5461 17.4295 10.5397 17.4273 10.5312 17.4231C10.5504 17.3866 10.5676 17.3524 10.5868 17.316C10.9145 17.1425 11.2422 16.9733 11.5741 16.8084C11.6084 16.817 11.6405 16.8255 11.6748 16.8341C11.6684 16.8534 11.6619 16.8727 11.6555 16.8898C11.6298 16.8812 11.5934 16.8769 11.5656 16.8684C11.2357 17.0354 10.9102 17.2003 10.5826 17.3738ZM10.3534 15.4292C10.3363 15.442 10.2913 15.4742 10.2742 15.4892C10.2656 15.4785 10.2634 15.4742 10.2527 15.4592C10.2827 15.4356 10.3127 15.4099 10.3427 15.3864C10.6489 15.3414 10.9552 15.305 11.2614 15.2729C11.2786 15.2921 11.2979 15.3093 11.315 15.3285C11.3086 15.335 11.3021 15.3414 11.2957 15.3478C11.2871 15.3392 11.27 15.3243 11.2636 15.3178C10.9616 15.3478 10.6575 15.3842 10.3534 15.4292ZM11.4371 13.9151L11.4307 13.8679L11.5249 13.8273C11.7519 13.8594 11.9767 13.8958 12.2038 13.9386L12.2166 13.9986C12.2123 14.0007 11.754 13.9086 11.5291 13.8787L11.4371 13.9151Z" fill="#CC612C"/>
<path d="M18.5365 12.9149L18.5408 12.9192C18.5515 12.9128 18.5601 12.9064 18.5708 12.8999C18.5601 12.8892 18.5473 12.8764 18.5365 12.8657H18.4509C18.331 12.9406 18.2132 13.0177 18.0975 13.0991L18.1232 13.1291C18.2303 13.0541 18.3395 12.9835 18.4509 12.9149C18.4787 12.9149 18.5087 12.9149 18.5365 12.9149Z" fill="#A71C20"/>
<path d="M15.9816 12.5873L16.0458 12.568L16.1122 12.5873L16.1123 12.5401C16.0908 12.5337 16.0673 12.5273 16.0459 12.5209L15.9816 12.5401L15.9816 12.5873Z" fill="#B7161C"/>
<path d="M13.6385 12.9064C13.7499 12.9749 13.8548 13.052 13.9619 13.127L13.9899 13.097C13.8743 13.0156 13.7565 12.9385 13.6365 12.8635C13.6066 12.8635 13.5787 12.8635 13.5487 12.8657C13.538 12.8764 13.5123 12.8978 13.5016 12.9085L13.5315 12.9278C13.5336 12.9256 13.5507 12.9107 13.5529 12.9085C13.5807 12.9064 13.6086 12.9064 13.6385 12.9064Z" fill="#CB4D2C"/>
<path d="M13.4244 18.1362C13.4373 18.1533 13.4523 18.1919 13.4651 18.2133L13.478 18.2004C13.4737 18.1876 13.4458 18.1255 13.433 18.0976C13.388 18.1084 13.328 18.1169 13.2831 18.1276C13.0475 18.3975 12.814 18.6695 12.5849 18.9457C12.5892 18.9586 12.5977 18.9736 12.602 18.9843C12.7498 18.8087 13.0689 18.4275 13.3002 18.1619C13.3366 18.1512 13.3859 18.1448 13.4244 18.1362ZM21.4641 17.3738C21.4726 17.3909 21.4855 17.4166 21.4962 17.4316C21.5026 17.4295 21.509 17.4273 21.5176 17.423C21.4983 17.3866 21.4812 17.3524 21.4619 17.316C21.1343 17.1425 20.8066 16.9733 20.4746 16.8084C20.4404 16.817 20.4083 16.8255 20.374 16.8341C20.3804 16.8534 20.3868 16.8726 20.3911 16.8898C20.4168 16.8812 20.4532 16.8769 20.4811 16.8684C20.8109 17.0354 21.1364 17.2003 21.4641 17.3738ZM21.6932 15.4292C21.7104 15.442 21.7553 15.4742 21.7725 15.4891C21.781 15.4784 21.7833 15.4742 21.794 15.4592C21.764 15.4356 21.734 15.4099 21.704 15.3864C21.3978 15.3414 21.0914 15.305 20.7852 15.2728C20.768 15.2921 20.7488 15.3092 20.7316 15.3285C20.7381 15.3349 20.7445 15.3392 20.7509 15.3478C20.7595 15.3392 20.7766 15.3242 20.783 15.3178C21.0871 15.3478 21.387 15.3842 21.6932 15.4292ZM20.6096 13.9151L20.6161 13.8679C20.5861 13.8551 20.554 13.8401 20.5219 13.8273C20.2949 13.8594 20.0699 13.8958 19.8429 13.9386L19.83 13.9986C19.8343 14.0007 20.2926 13.9086 20.5175 13.8786L20.6096 13.9151ZM18.6221 18.1362C18.6093 18.1533 18.5943 18.1919 18.5814 18.2133C18.5772 18.209 18.5729 18.2047 18.5686 18.2004C18.5729 18.1876 18.6007 18.1255 18.6136 18.0976C18.6585 18.1084 18.7185 18.1169 18.7635 18.1276C18.9991 18.3975 19.2325 18.6716 19.4617 18.9457C19.4574 18.9586 19.4509 18.9714 19.4467 18.9843C19.2989 18.8087 18.9776 18.4275 18.7464 18.1619C18.7099 18.1512 18.6607 18.1448 18.6221 18.1362ZM16.155 18.6887L16.1765 19.5968L16.1744 18.6545C16.1401 18.6309 16.0951 18.6074 16.063 18.5859C16.0287 18.6095 15.9795 18.6331 15.9474 18.6545V19.5968L15.9687 18.6887C15.9965 18.6695 16.0372 18.6523 16.0629 18.6331C16.0886 18.6523 16.1271 18.6695 16.155 18.6887Z" fill="#A71C20"/>
<path d="M11.5012 15.2857C11.9103 13.4568 14.4481 12.9128 16.0414 12.9128C17.6348 12.9128 20.1705 13.4568 20.5817 15.2857C21.0914 17.5644 17.6926 18.4125 16.0436 18.4125C14.3945 18.4125 10.9915 17.5644 11.5012 15.2857ZM11.6661 15.2729C12.0516 13.5039 14.5059 12.9813 16.0393 12.9813C17.5706 12.9813 20.027 13.506 20.4125 15.275C20.8901 17.4638 17.6241 18.2712 16.0393 18.2712C14.4545 18.269 11.1907 17.4616 11.6661 15.2729Z" fill="#CB4D2C"/>
<path d="M11.5164 15.3414C11.9255 13.5125 14.3583 12.9599 16.0545 12.9599C17.7464 12.9599 20.1836 13.5125 20.5948 15.3436C21.1045 17.6201 17.7057 18.4704 16.0567 18.4704C14.4055 18.4682 11.0046 17.6201 11.5164 15.3414ZM11.6813 15.3286C12.0668 13.5596 14.5211 13.037 16.0545 13.037C17.5879 13.037 20.0422 13.5617 20.4277 15.3307C20.9053 17.5173 17.6415 18.3269 16.0545 18.3269C14.4697 18.3269 11.2037 17.5173 11.6813 15.3286Z" fill="white"/>
<path d="M18.2132 10.2679C18.2132 10.2679 18.0633 10.1308 18.0612 10.1244C18.0505 10.0773 18.104 10.013 18.1169 9.93164C18.1019 9.92521 18.0847 9.91879 18.0719 9.91236C18.0355 9.77316 18.0055 9.52473 18.0719 9.38981C18.104 9.32556 18.1426 9.23775 18.1212 9.1628C17.9969 8.73875 17.7528 8.36825 17.5793 7.96563C17.5322 7.8564 17.5408 7.77716 17.5344 7.6658C17.3994 7.51803 17.2452 7.13253 17.1703 6.89267C17.0139 7.28673 16.9111 7.74076 16.9111 7.84569C16.9111 8.28901 17.3609 8.50532 17.2045 9.24204C17.1746 9.38552 17.121 9.58255 17.0675 9.78387C17.1617 10.2979 17.1617 10.6705 17.2988 11.268C17.4915 11.4586 17.6521 11.7028 17.7378 12.0133C17.7913 12.206 17.952 12.6558 18.1597 12.7243C18.2882 12.7672 17.725 12.87 17.5643 12.6686C17.4101 12.4759 17.1446 12.3217 17.0204 12.1182C16.9197 11.9555 16.7655 11.6085 16.667 11.4436L16.5471 12.0754C16.712 12.75 16.6135 12.8999 16.4678 13.4482C16.4057 13.6859 15.926 12.5787 15.926 12.4909C15.926 12.251 15.911 12.1611 15.8553 11.9491C15.7547 11.7542 15.7654 11.4779 15.7804 11.2659C15.8039 10.9146 15.7996 10.2507 15.8146 10.0751C15.6947 9.77958 15.3842 9.24418 15.3542 8.94221C15.3071 8.47319 15.3863 7.99775 15.3199 7.52873C15.2385 7.76217 15.1529 8.05986 14.9708 8.23975C14.6988 8.5096 14.4461 8.80729 14.202 9.10069C14.1142 9.22276 14.1913 9.28058 14.0542 9.47547C13.9193 9.66608 13.9921 9.58041 13.9621 9.76245C13.9578 9.78815 13.9471 9.81171 13.93 9.82884C13.8572 9.88881 13.7801 9.94235 13.6773 9.89737C13.476 9.79672 13.4631 9.6468 13.4481 9.4562C13.4224 9.08998 13.6923 9.07285 13.8465 8.85012C14.1484 8.41537 14.3005 7.68507 14.6217 7.35526C14.641 7.29101 14.7181 7.05543 14.8616 6.70635C14.8659 6.27374 14.973 5.88825 15.4184 5.71049C15.6005 5.63768 15.8403 5.6184 15.8489 5.36783C15.851 5.33785 15.8446 5.26075 15.8253 5.23291C15.7525 5.17295 15.7011 5.17295 15.6647 5.13011C15.5919 5.03802 15.5319 4.44265 15.5405 4.4041C15.6433 3.9051 15.8853 3.73591 16.1916 3.75091C16.5535 3.76804 16.8405 3.94365 16.8255 4.4298C16.8126 4.82172 16.4079 5.32286 17.0139 5.51346C17.2452 5.58628 17.2881 5.53488 17.4872 5.73619C17.71 5.95892 17.7635 6.35726 17.8021 6.72562L18.0291 7.25246C18.4445 7.95278 18.2946 8.17551 18.4488 8.88867C18.4874 9.07285 18.5559 9.23561 18.5709 9.64038C18.5752 9.83312 18.4231 10.2614 18.2132 10.2679Z" fill="#FBB257"/>
<path d="M13.8722 9.74109C13.8914 9.55476 13.8636 9.56976 13.9835 9.39628C14.0949 9.23566 14.0413 9.15428 14.1377 9.01507C14.3776 8.71525 14.6046 8.41114 14.8744 8.13915C15.0543 7.95497 15.3006 7.34032 15.3584 7.12188C15.3691 7.08975 15.3863 7.07476 15.3948 7.1026C15.4334 7.51594 15.4912 7.86074 15.4762 8.26551C15.4462 9.11787 15.4677 9.02792 15.8232 9.82461C15.8532 9.50551 15.9303 9.04077 16.1166 8.88229C15.8981 9.7111 15.8853 10.8954 15.8617 11.2595C15.851 11.4437 15.7996 11.7371 15.8874 11.9063C15.9174 12.0219 15.9195 12.1954 15.9217 12.3282C15.9217 12.4096 15.9281 13.7845 15.9281 13.7845L15.7996 14.4227C15.7546 14.6069 15.5169 14.9174 15.3413 15.0138C15.2856 15.0438 15.155 15.1144 15.155 15.1765C15.155 15.2772 15.8039 15.4657 15.9538 15.2365C16.0652 15.0652 16.1573 14.9688 16.29 14.8424C16.4956 14.6454 16.2686 14.4441 16.2943 14.1785C16.3414 13.7159 16.5406 13.3155 16.6049 12.8786C16.6434 12.6151 16.637 12.3839 16.5171 12.084L16.6027 11.2488C16.6991 11.3923 16.789 11.6214 16.879 11.812C17.0418 12.1504 17.0439 12.1825 17.3245 12.461C17.4187 12.5552 17.5172 12.6644 17.5879 12.7779C17.7207 12.9878 17.8106 13.1955 17.7999 13.4461C17.7035 13.6217 17.6607 13.611 17.5365 13.7181C17.5408 13.7245 17.5022 13.8209 17.62 13.8209C18.0419 13.8209 17.9905 13.6003 18.1511 13.3133C18.2539 13.1291 18.5516 12.8464 18.2261 12.7501C18.1233 12.7201 18.029 12.658 17.9691 12.5595C17.7442 12.1825 17.7356 12.1932 17.6179 11.8463C17.5472 11.6364 17.4016 11.4672 17.2324 11.328C17.1274 11.0925 17.0867 10.9233 17.0525 10.6727C17.0075 10.3322 16.9754 10.088 16.9175 9.73894C17.0824 9.08361 17.1681 8.94654 16.8876 8.3169C16.8212 8.16913 16.7869 8.00851 16.7869 7.84789C16.7869 7.63801 16.9026 7.16899 17.0139 6.92485C17.0525 6.82633 17.1081 6.7321 17.1852 6.70212C17.2538 6.95697 17.4872 7.47739 17.6243 7.60588C17.6328 7.70868 17.6286 7.81148 17.6693 7.90785C17.8406 8.31905 18.0869 8.69383 18.2111 9.12644C18.2539 9.27635 18.1961 9.34703 18.1554 9.46696C18.1426 9.52478 18.1383 9.69183 18.164 9.81604L18.2218 9.84817C18.2111 9.88672 18.1854 9.99166 18.164 10.0388C18.1725 10.0966 18.2432 10.1309 18.2432 10.1309C18.3374 10.1094 18.4724 9.76893 18.4681 9.63186C18.4531 9.21425 18.3653 9.02792 18.3417 8.90371C18.2025 8.19483 18.2839 8.00209 17.8877 7.31676L17.6628 6.75994C17.635 6.47511 17.5215 5.82405 17.1553 5.70626C17.0932 5.68699 17.0311 5.6827 16.939 5.65272C16.4614 5.49852 16.4614 5.13016 16.592 4.72968C16.7077 4.37203 16.7227 3.95227 16.198 3.9073C15.8724 3.87945 15.7739 4.13645 15.7054 4.42985C15.7075 4.46198 15.7247 4.9417 15.7953 5.0445C15.9345 5.1473 16.0116 5.11731 16.0031 5.37645C15.9966 5.59276 15.8574 5.72125 15.669 5.78764C15.3627 5.89472 15.2085 5.95897 15.1036 6.27379C15.0715 6.37231 15.0436 6.5158 15.0436 6.72782V6.74281C14.9558 6.95911 14.8466 7.20754 14.7802 7.43884C14.4033 7.81576 14.217 8.67456 13.8379 9.03649C13.5852 9.27635 13.5081 9.29349 13.6002 9.66399C13.6087 9.70254 13.7308 9.79891 13.7565 9.81176C13.7736 9.82033 13.8743 9.7625 13.8722 9.74109Z" fill="url(#paint2_linear_16587_6950)"/>
<g opacity="0.45">
<path d="M21.4727 15.7205L20.7296 15.607L20.6311 15.5835C20.5068 15.5578 20.267 15.4228 20.1642 15.2622C20.0592 15.1016 19.8108 14.8253 19.6716 14.654C19.481 14.4163 19.0484 14.1978 18.9863 14.0993C18.922 14.0008 18.8192 13.8295 18.7893 13.7609C18.7614 13.6924 18.6929 13.6367 18.5815 13.6431C18.4702 13.6496 18.4595 13.6881 18.3631 13.6945C18.2667 13.701 18.1318 13.6796 18.1318 13.6796C18.074 13.6667 18.0333 13.6603 17.9926 13.6603C17.9326 13.7588 17.8427 13.8188 17.6199 13.8188C17.6049 13.8188 17.5921 13.8166 17.5814 13.8145C17.6049 13.8637 17.8105 13.8937 17.8448 13.8916C17.8791 13.8894 18.074 13.9451 18.1189 13.9515C18.2089 13.9687 18.1918 13.9365 18.3352 14.0201C18.573 14.1571 18.9285 14.5362 18.9991 14.8639C19.0377 15.0459 19.3482 15.3415 19.3868 15.5085C18.9713 15.4785 18.4166 15.2022 18.4166 15.2022L18.3481 15.168C18.3481 15.168 18.1018 15.0438 17.7227 15.0266C17.0074 14.9624 16.7354 14.866 16.6648 14.8425C16.517 14.7932 16.5384 14.7675 16.4185 14.7611C16.3949 14.7589 16.3735 14.7589 16.3542 14.7589C16.3392 14.7889 16.3178 14.8168 16.2921 14.8403C16.1593 14.9667 16.0673 15.063 15.9559 15.2344C15.9259 15.2815 15.8745 15.3093 15.8145 15.3265C15.9516 15.2943 16.2193 15.2237 16.2193 15.2237C16.472 15.1894 16.8554 15.3029 16.8554 15.3029C16.9967 15.3307 17.2323 15.4228 17.2323 15.4228C17.2323 15.4228 18.2517 15.7355 18.5023 15.9176C18.6672 16.0375 19.5131 16.3544 19.738 16.4315C19.9629 16.5086 20.5111 16.8063 20.5111 16.8063C20.6525 16.9263 21.4706 17.2839 21.6955 17.3589C21.9846 16.8577 22.0852 16.3459 22.0038 15.8276L21.4727 15.7205Z" fill="#4F264A"/>
<path d="M21.098 14.8724C21.0251 14.8724 20.9438 14.8917 20.9438 14.8917L20.7403 15.0116C20.7146 15.0544 20.8067 15.108 20.8067 15.108C20.8067 15.108 21.0637 15.1251 21.0615 15.1915C21.25 15.2922 21.6526 15.3029 21.8561 15.3136C21.8282 15.2429 21.7983 15.1744 21.764 15.108C21.7319 15.0416 21.6955 14.9773 21.6569 14.9131C21.6483 14.9067 21.4942 14.8638 21.098 14.8724ZM19.5838 17.3695C19.5838 17.3695 19.5346 17.3074 19.2754 17.3074C19.1105 17.3074 19.3461 17.6972 19.3461 17.6972C19.4939 17.7979 20.0293 17.9499 20.1428 17.9649C20.2542 17.9799 20.6289 18.0913 20.6289 18.0913C20.6289 18.0913 20.8238 18.117 21.023 18.1769C21.1686 18.0441 21.3057 17.8985 21.4278 17.7443C20.9759 17.7357 20.3334 17.7272 19.8472 17.4723C19.8001 17.3246 19.5838 17.3695 19.5838 17.3695Z" fill="#4F264A"/>
</g>
<defs>
<linearGradient id="paint0_linear_16587_6950" x1="9.83806" y1="11.9971" x2="22.1603" y2="11.9971" gradientUnits="userSpaceOnUse">
<stop stop-color="#CC612C"/>
<stop offset="1" stop-color="#743237"/>
</linearGradient>
<linearGradient id="paint1_linear_16587_6950" x1="7.63371" y1="14.2601" x2="22.3664" y2="12.5278" gradientUnits="userSpaceOnUse">
<stop stop-color="#FFDD7F"/>
<stop offset="1" stop-color="#F47920"/>
</linearGradient>
<linearGradient id="paint2_linear_16587_6950" x1="14.0186" y1="7.78798" x2="18.4282" y2="12.1977" gradientUnits="userSpaceOnUse">
<stop stop-color="#2A3795"/>
<stop offset="1" stop-color="#222A7E"/>
</linearGradient>
</defs>
</svg>
