<svg xmlns="http://www.w3.org/2000/svg" width="32" height="24" fill="none"><rect width="32" height="24" fill="#f36805" rx="4"/><g fill="#fff" clip-path="url(#a)"><path fill-rule="evenodd" d="M20.922 7.368a1.64 1.64 0 0 1 1.537 1.017c.103.217.157.455.158.695v1.044h-4.703a.45.45 0 0 0-.448.443v5.639a.45.45 0 0 0 .448.448h4.102v.01h.58v1.095a1.673 1.673 0 0 1-1.674 1.673H9.438a1.674 1.674 0 0 1-1.674-1.673v-8.68c.001-.24.056-.477.159-.694q.054-.132.136-.251l.044-.055.099-.131q.12-.141.267-.257c.28-.208.62-.321.969-.323zm-7.319 3.382a.4.4 0 0 0-.237.069c-1.644 1.012-2.544 2.662-2.581 2.75a.2.2 0 0 0-.013.068c0 .082.05.144.119.157l.475.094c.062.012.106.068.113.137 0 .087.093 1.95.206 2.431.012.069.087.119.156.119l3.494-.013c.08 0 .137-.05.156-.118.112-.487.2-2.346.206-2.431a.17.17 0 0 1 .113-.138l.474-.094c.07-.012.12-.087.12-.156 0-.012-.001-.037-.013-.056-.013-.05-.263-.5-.725-1.075h.018c0-.003-.018-.033-.018-.05h.018a21 21 0 0 0-.137-1.182c-.012-.062-.069-.112-.144-.13l-.487-.057c-.056 0-.1.044-.1.1v.587s-.644-.743-.975-.943a.43.43 0 0 0-.238-.07" clip-rule="evenodd"/><path d="M24.203 15.56H18.56v-4.342h5.643zM16.515 4.3a1.64 1.64 0 0 1 2.143.891l.492 1.187h-7.645z"/></g><defs><clipPath id="a"><path fill="#fff" d="M7.25 3.25h17.5v17.5H7.25z"/></clipPath></defs></svg>