<svg width="32" height="24" viewBox="0 0 32 24" fill="none" xmlns="http://www.w3.org/2000/svg">
<rect width="32" height="24" rx="4" fill="#F36805"/>
<rect x="0.5" y="0.5" width="31" height="23" rx="3.5" stroke="white" stroke-opacity="0.01"/>
<g clip-path="url(#clip0_10328_10657)">
<path d="M16.9352 5.31173C17.0008 5.28439 17.0719 5.26798 17.143 5.26798C17.2141 5.26798 17.2852 5.28439 17.3508 5.31173C17.4875 5.36642 17.5914 5.47032 17.6461 5.60704L17.9633 6.37814H19.1445L18.6523 5.19142C18.3078 4.3547 17.3453 3.95548 16.5086 4.30548L11.5047 6.37814H14.3648L16.9352 5.31173Z" fill="white"/>
<path d="M22.043 16.6539H21.4961V17.7586C21.4961 18.0594 21.25 18.3055 20.9492 18.3055H9.43751C9.13672 18.3055 8.89063 18.0594 8.89063 17.7586V9.01407C8.89063 8.86095 8.95626 8.71876 9.06016 8.62032C9.10391 8.58204 9.14766 8.54923 9.20235 8.52189C9.21329 8.52189 9.21876 8.51095 9.22422 8.50548C9.28985 8.47814 9.36094 8.46173 9.43751 8.46173H20.9492C21.25 8.46173 21.4961 8.70782 21.4961 9.0086V10.1242H22.6227V9.0797C22.6227 8.82814 22.5625 8.59298 22.4641 8.38517C22.218 7.78907 21.6328 7.37345 20.9492 7.37345H9.43751C9.06563 7.37345 8.73204 7.49923 8.45313 7.70704C8.35469 7.7836 8.27266 7.86564 8.1961 7.9586C8.16329 7.99689 8.13047 8.04064 8.09766 8.08439C8.08672 8.10079 8.07032 8.1172 8.05938 8.1336C8.00469 8.21017 7.96094 8.2922 7.92266 8.3797C7.82422 8.59298 7.76407 8.82814 7.76407 9.07423V17.7531C7.76407 18.6774 8.51329 19.4266 9.43751 19.4266H20.9492C21.8734 19.4266 22.6227 18.6774 22.6227 17.7531V16.6484H22.043V16.6539Z" fill="white"/>
<path d="M18.5648 11.218V15.5602H24.2086V11.218H18.5648ZM19.6586 12.3117H23.1148V14.4664H19.6586V12.3117Z" fill="white"/>
</g>
<defs>
<clipPath id="clip0_10328_10657">
<rect width="17.5" height="17.5" fill="white" transform="translate(7.25 3.25)"/>
</clipPath>
</defs>
</svg>
