<svg width="32" height="24" viewBox="0 0 32 24" fill="none" xmlns="http://www.w3.org/2000/svg">
<rect width="32" height="24" rx="4" fill="#00585A"/>
<path fill-rule="evenodd" clip-rule="evenodd" d="M18.0588 5.3175L17.4685 6.45417H17.21L17.7967 5.35417H17.1385V5.14333H18.0552L18.0588 5.3175ZM16.8433 6.06367C16.8426 6.12158 16.8298 6.1787 16.8059 6.23145C16.782 6.28419 16.7474 6.33142 16.7044 6.37017C16.6613 6.40891 16.6107 6.43832 16.5558 6.45657C16.5008 6.47481 16.4427 6.48148 16.385 6.47617C16.2896 6.47897 16.1948 6.45976 16.108 6.42002C16.0212 6.38027 15.9447 6.32107 15.8845 6.247L16.0458 6.09667C16.0856 6.15014 16.1373 6.19357 16.1968 6.22349C16.2563 6.25342 16.322 6.269 16.3887 6.269C16.4167 6.27177 16.4451 6.26877 16.472 6.26018C16.4989 6.25159 16.5238 6.2376 16.545 6.21905C16.5663 6.20051 16.5836 6.17781 16.5958 6.15235C16.608 6.12689 16.6149 6.09921 16.616 6.071V6.071C16.616 5.94083 16.4968 5.8675 16.3135 5.8675H16.2072L16.1705 5.7245L16.5243 5.345H15.9578V5.14333H16.8232V5.31567L16.4565 5.68233C16.6545 5.70983 16.8415 5.80883 16.8415 6.049L16.8433 6.06367ZM15.6572 5.3175L15.0668 6.45417H14.8083L15.395 5.35417H14.7387V5.14333H15.6553L15.6572 5.3175ZM14.3372 6.45417H14.1117V5.36883L13.8733 5.43483L13.8257 5.2515L14.1777 5.13783H14.3372V6.45417ZM19.0177 3.75H12.9823C12.9823 3.75 12.2783 3.75 12.2783 4.36233V19.6377C12.2783 19.6377 12.2783 20.25 12.9823 20.25H15.6113V17.4542C15.6132 17.4371 15.6132 17.4199 15.6113 17.4028C15.5967 17.3258 15.6003 17.2195 15.549 17.1883C15.461 17.1223 15.3657 17.0655 15.2795 17.005C14.9329 16.7766 14.6211 16.4993 14.3537 16.1818C14.053 15.7981 13.8504 15.347 13.7633 14.8673C13.7003 14.5362 13.736 14.1938 13.866 13.8828C13.9183 13.7742 13.9883 13.6751 14.0732 13.5895C14.1141 13.5448 14.1399 13.4882 14.1468 13.428C14.1537 13.3677 14.1414 13.3068 14.1117 13.254C14.0238 13.0813 13.952 12.9008 13.8972 12.715C13.8472 12.5362 13.8317 12.3496 13.8513 12.165C13.8712 11.9838 13.946 11.8129 14.0658 11.6755C14.1685 11.5673 14.2987 11.5508 14.3775 11.3785C14.276 11.08 14.2203 10.7678 14.2125 10.4527C14.2042 10.3142 14.2159 10.1753 14.2473 10.0402C14.3188 9.8 14.4875 9.745 14.614 9.6735C14.68 9.63867 14.7515 9.6185 14.8193 9.5855C14.8872 9.5525 14.9037 9.52317 14.9037 9.3765C14.9037 8.711 14.9917 8.08033 15.3437 7.75217C15.4235 7.67603 15.518 7.61681 15.6213 7.57806C15.7246 7.53931 15.8347 7.52183 15.945 7.52667C16.1749 7.51633 16.3998 7.59589 16.572 7.7485C16.9387 8.07667 17.0322 8.70733 17.0322 9.37283C17.0322 9.5195 17.0322 9.54517 17.122 9.58183C17.2118 9.6185 17.2668 9.635 17.3365 9.67167C17.4758 9.74133 17.6518 9.79633 17.727 10.0383C17.7599 10.1732 17.7722 10.3123 17.7637 10.4508C17.7554 10.7657 17.6985 11.0774 17.595 11.3748C17.6775 11.549 17.815 11.5582 17.9213 11.6737C18.0466 11.8078 18.1251 11.9789 18.145 12.1613C18.1653 12.3461 18.1485 12.5331 18.0955 12.7113C18.0417 12.9013 17.9692 13.0856 17.8792 13.2613C17.847 13.3131 17.8327 13.374 17.8387 13.4347C17.8447 13.4953 17.8705 13.5523 17.9122 13.5968C18.0009 13.6812 18.0741 13.7805 18.1285 13.8902C18.2657 14.1992 18.3035 14.5432 18.2367 14.8747C18.1433 15.3572 17.9303 15.8086 17.617 16.1873C17.3352 16.5071 17.0085 16.7844 16.6472 17.0105C16.5537 17.0728 16.4638 17.1315 16.3667 17.1938C16.3117 17.2323 16.3172 17.3313 16.3007 17.4083C16.2997 17.4254 16.2997 17.4426 16.3007 17.4597V20.25H19.0177C19.0177 20.25 19.7217 20.25 19.7217 19.6377V4.36233C19.7217 4.36233 19.7217 3.75 19.0177 3.75Z" fill="white"/>
</svg>
