<svg width="32" height="24" viewBox="0 0 32 24" fill="none" xmlns="http://www.w3.org/2000/svg">
<rect width="32" height="24" rx="4" fill="#B2FCE4"/>
<path d="M30.2539 10.1695L29.3623 9.65645L28.4708 9.11816C28.3339 9.0401 28.1789 8.99935 28.0213 9.00001C27.8637 9.00066 27.709 9.04269 27.5728 9.12189C27.4365 9.20109 27.3235 9.31467 27.2449 9.45129C27.1663 9.58791 27.125 9.74276 27.1251 9.90036V10.0097C27.125 10.0412 27.1327 10.0722 27.1473 10.1C27.162 10.1279 27.1832 10.1517 27.2092 10.1695L27.6297 10.405C27.6494 10.4167 27.6713 10.4243 27.6941 10.4273C27.7168 10.4302 27.7399 10.4285 27.762 10.4222C27.7841 10.4159 27.8046 10.4052 27.8223 10.3906C27.8401 10.3761 27.8547 10.3581 27.8652 10.3377C27.8727 10.3102 27.8727 10.2811 27.8652 10.2536V9.98447C27.8641 9.96127 27.8675 9.93807 27.8754 9.91621C27.8832 9.89434 27.8953 9.87424 27.9109 9.85706C27.9266 9.83987 27.9454 9.82593 27.9665 9.81604C27.9875 9.80615 28.0102 9.80051 28.0334 9.79943H28.1344L28.9754 10.2788L29.8165 10.7498C29.8574 10.7758 29.8865 10.8168 29.8975 10.864C29.9085 10.9112 29.9006 10.9608 29.8754 11.0022L29.8165 11.061L28.9754 11.5321L28.1344 12.0115C28.1145 12.0237 28.0924 12.0319 28.0694 12.0356C28.0464 12.0393 28.0228 12.0383 28.0001 12.0329C27.9775 12.0274 27.9561 12.0175 27.9373 12.0037C27.9184 11.9899 27.9025 11.9726 27.8905 11.9526C27.8819 11.9195 27.8819 11.8848 27.8905 11.8517V11.7171C27.8905 11.5595 27.8492 11.4046 27.7706 11.268C27.6921 11.1314 27.579 11.0178 27.4428 10.9386C27.3065 10.8594 27.1518 10.8174 26.9942 10.8167C26.8366 10.8161 26.6816 10.8568 26.5447 10.9349L25.6364 11.4564L24.7448 11.9694C24.539 12.0891 24.3884 12.2849 24.3255 12.5146C24.2625 12.7443 24.2923 12.9895 24.4084 13.1974C24.4858 13.3396 24.6026 13.4564 24.7448 13.5338L25.6364 14.0469L26.5447 14.5599C26.6816 14.638 26.8366 14.6787 26.9942 14.6781C27.1518 14.6774 27.3065 14.6354 27.4428 14.5562C27.579 14.477 27.6921 14.3634 27.7706 14.2268C27.8492 14.0902 27.8905 13.9353 27.8905 13.7777V13.6684C27.8905 13.6369 27.8828 13.6059 27.8682 13.5781C27.8535 13.5502 27.8323 13.5264 27.8063 13.5086L27.3858 13.2647C27.3661 13.2529 27.3442 13.2454 27.3214 13.2424C27.2987 13.2394 27.2756 13.2412 27.2535 13.2475C27.2315 13.2538 27.2109 13.2645 27.1932 13.279C27.1754 13.2936 27.1608 13.3116 27.1503 13.332C27.1428 13.3623 27.1428 13.3941 27.1503 13.4245V13.6936C27.1514 13.7168 27.148 13.74 27.1401 13.7619C27.1323 13.7837 27.1202 13.8038 27.1046 13.821C27.089 13.8382 27.0701 13.8522 27.0491 13.862C27.0281 13.8719 27.0053 13.8776 26.9821 13.8787C26.9489 13.8862 26.9144 13.8862 26.8812 13.8787L26.0401 13.3992L25.199 12.9282C25.1566 12.9081 25.1234 12.8725 25.1062 12.8288C25.089 12.785 25.0891 12.7364 25.1065 12.6927L25.1654 12.6339L26.0064 12.1629L26.8475 11.6834C26.8674 11.6712 26.8895 11.663 26.9125 11.6593C26.9355 11.6556 26.9591 11.6566 26.9817 11.662C27.0044 11.6675 27.0258 11.6774 27.0446 11.6912C27.0634 11.705 27.0794 11.7224 27.0914 11.7423C27.1 11.7754 27.1 11.8102 27.0914 11.8433V11.9778C27.0914 12.1354 27.1327 12.2903 27.2112 12.4269C27.2898 12.5635 27.4029 12.6771 27.5391 12.7563C27.6754 12.8355 27.8301 12.8775 27.9876 12.8782C28.1452 12.8788 28.3002 12.8381 28.4372 12.76L29.3455 12.2386L30.2371 11.7255C30.3376 11.6636 30.4249 11.5824 30.4938 11.4866C30.5627 11.3907 30.6119 11.2821 30.6385 11.1671C30.6651 11.0521 30.6686 10.9329 30.6488 10.8165C30.6289 10.7001 30.5862 10.5888 30.523 10.4891C30.4616 10.3616 30.3691 10.2517 30.2539 10.1695Z" fill="black"/>
<path d="M24.3831 10.3209L22.2889 14.644H21.4478L22.23 13.0292L21.002 10.3209H21.8936L22.6842 12.1292L23.5252 10.3209H24.3831Z" fill="black"/>
<path d="M3.44871 11.8517C3.44049 11.6874 3.38425 11.5291 3.28698 11.3964C3.1897 11.2638 3.05565 11.1625 2.90143 11.1053C2.7472 11.048 2.57957 11.0372 2.41928 11.0743C2.25899 11.1113 2.11309 11.1946 1.99963 11.3137C1.88617 11.4328 1.81014 11.5826 1.78095 11.7445C1.75176 11.9064 1.7707 12.0733 1.83541 12.2246C1.90012 12.3758 2.00776 12.5048 2.14502 12.5955C2.28228 12.6862 2.44312 12.7346 2.60763 12.7348C2.8307 12.7348 3.04463 12.6462 3.20237 12.4885C3.3601 12.3307 3.44871 12.1168 3.44871 11.8937V11.8517ZM3.44871 13.3909V12.9871C3.33003 13.1306 3.18089 13.2457 3.01212 13.3243C2.84336 13.4029 2.65921 13.4428 2.47306 13.4413C2.27534 13.437 2.08041 13.3937 1.89942 13.314C1.71843 13.2342 1.55492 13.1196 1.41823 12.9767C1.28155 12.8338 1.17436 12.6653 1.1028 12.4809C1.03124 12.2965 0.996707 12.0999 1.00117 11.9022V11.8517C0.993293 11.6506 1.02513 11.45 1.09486 11.2612C1.16459 11.0725 1.27084 10.8994 1.40755 10.7517C1.54425 10.6041 1.70873 10.4848 1.89156 10.4008C2.07439 10.3168 2.27199 10.2696 2.47306 10.2621C2.6559 10.2608 2.83673 10.3002 3.00253 10.3773C3.16833 10.4544 3.31497 10.5672 3.43189 10.7078V10.3209H4.18045V13.3909H3.44871Z" fill="black"/>
<path d="M7.88119 12.6927C7.61205 12.6927 7.54476 12.5918 7.54476 12.3395V11.0106H8.02417V10.3461H7.54476V9.57235H6.77097V10.3209H5.76167V10.0097C5.76167 9.75739 5.8626 9.65646 6.13175 9.65646H6.29996V9.05929H5.9383C5.29908 9.05929 4.99629 9.26956 4.99629 9.90037V10.3125H4.56734V11.0106H4.99629V13.4161H5.76167V11.0106H6.77097V12.5161C6.77097 13.1469 7.00647 13.4161 7.61204 13.4161H8.03258V12.6927H7.88119Z" fill="black"/>
<path d="M10.6568 11.5741C10.6317 11.3921 10.5391 11.2261 10.3972 11.1092C10.2554 10.9924 10.0749 10.9331 9.89138 10.9433C9.70738 10.9348 9.52673 10.9945 9.38397 11.1109C9.2412 11.2273 9.14636 11.3922 9.11759 11.5741H10.6568ZM9.126 12.0535C9.13899 12.2521 9.22881 12.4378 9.3764 12.5712C9.52399 12.7047 9.71775 12.7754 9.91661 12.7684C10.061 12.7702 10.2033 12.7347 10.33 12.6655C10.4567 12.5962 10.5634 12.4956 10.6399 12.3731H11.4305C11.3328 12.6974 11.1285 12.9792 10.8507 13.1731C10.5729 13.3669 10.2379 13.4614 9.89979 13.4413C9.49942 13.469 9.10441 13.3367 8.8016 13.0733C8.49879 12.8099 8.31294 12.4371 8.28492 12.0367V11.8517C8.28492 11.4301 8.4524 11.0257 8.75051 10.7276C9.04863 10.4295 9.45296 10.262 9.87456 10.262C10.2962 10.262 10.7005 10.4295 10.9986 10.7276C11.2967 11.0257 11.4642 11.4301 11.4642 11.8517C11.4726 11.9159 11.4726 11.9809 11.4642 12.0451L9.126 12.0535Z" fill="black"/>
<path d="M16.4097 11.8517C16.4042 11.6305 16.3117 11.4204 16.1524 11.2669C15.993 11.1134 15.7796 11.0289 15.5584 11.0317C15.3372 11.0344 15.1259 11.1243 14.9705 11.2817C14.815 11.4391 14.7278 11.6514 14.7278 11.8727C14.7278 12.0939 14.815 12.3063 14.9705 12.4637C15.1259 12.6211 15.3372 12.7109 15.5584 12.7137C15.7796 12.7165 15.993 12.6319 16.1524 12.4785C16.3117 12.325 16.4042 12.1149 16.4097 11.8937V11.8517ZM13.979 14.644V10.3209H14.7276V10.7162C14.8462 10.5728 14.9954 10.4576 15.1642 10.379C15.3329 10.3005 15.5171 10.2605 15.7032 10.262C15.9009 10.2653 16.0961 10.3075 16.2775 10.3862C16.4589 10.4649 16.623 10.5786 16.7605 10.7208C16.8979 10.8629 17.006 11.0307 17.0786 11.2147C17.1512 11.3986 17.1869 11.5951 17.1835 11.7928V11.8517C17.1914 12.0527 17.1596 12.2534 17.0898 12.4421C17.0201 12.6308 16.9138 12.804 16.7771 12.9516C16.6404 13.0993 16.476 13.2185 16.2931 13.3025C16.1103 13.3866 15.9127 13.4337 15.7116 13.4413C15.5354 13.4447 15.3606 13.4095 15.1993 13.3384C15.0381 13.2672 14.8943 13.1617 14.778 13.0292V14.644H13.979Z" fill="black"/>
<path d="M19.9086 11.8517C19.9003 11.6892 19.845 11.5327 19.7495 11.401C19.6539 11.2693 19.5223 11.1682 19.3705 11.1098C19.2186 11.0514 19.0531 11.0383 18.894 11.0721C18.7349 11.1059 18.5889 11.1851 18.4739 11.3001C18.3589 11.4151 18.2797 11.5611 18.2459 11.7202C18.2121 11.8793 18.2252 12.0448 18.2836 12.1967C18.342 12.3485 18.4431 12.4802 18.5748 12.5757C18.7065 12.6712 18.863 12.7265 19.0255 12.7348H19.0675C19.2906 12.7348 19.5045 12.6462 19.6623 12.4885C19.82 12.3307 19.9086 12.1168 19.9086 11.8937V11.8517ZM19.9086 13.3909V12.9871C19.792 13.1308 19.6445 13.2463 19.477 13.325C19.3095 13.4036 19.1264 13.4434 18.9414 13.4413C18.7437 13.438 18.5485 13.3958 18.3671 13.3171C18.1857 13.2384 18.0216 13.1247 17.8841 12.9826C17.7467 12.8404 17.6386 12.6726 17.566 12.4887C17.4934 12.3047 17.4577 12.1083 17.4611 11.9106V11.8517C17.4532 11.6506 17.485 11.45 17.5548 11.2612C17.6245 11.0725 17.7307 10.8994 17.8674 10.7517C18.0042 10.6041 18.1686 10.4848 18.3515 10.4008C18.5343 10.3168 18.7319 10.2696 18.933 10.2621C19.1146 10.2609 19.2942 10.3003 19.4586 10.3774C19.623 10.4546 19.7682 10.5674 19.8834 10.7078V10.3209H20.6404V13.3909H19.9086Z" fill="black"/>
<path d="M12.6165 10.6237C12.6864 10.511 12.7844 10.4184 12.9009 10.355C13.0174 10.2916 13.1483 10.2596 13.2809 10.262C13.394 10.2591 13.5062 10.2821 13.6089 10.3293V11.1199C13.445 11.0189 13.2546 10.9691 13.0622 10.9769C12.9299 11.0054 12.8131 11.0826 12.7352 11.1933C12.6573 11.304 12.6239 11.4399 12.6417 11.5741V13.3908H11.8595V10.3209H12.6165V10.6237Z" fill="black"/>
</svg>
