<svg width="32" height="24" viewBox="0 0 32 24" fill="none" xmlns="http://www.w3.org/2000/svg">
<path d="M28 0H4C1.79086 0 0 1.79086 0 4V20C0 22.2091 1.79086 24 4 24H28C30.2091 24 32 22.2091 32 20V4C32 1.79086 30.2091 0 28 0Z" fill="white"/>
<path d="M28 0H4C1.79086 0 0 1.79086 0 4V20C0 22.2091 1.79086 24 4 24H28C30.2091 24 32 22.2091 32 20V4C32 1.79086 30.2091 0 28 0Z" fill="#02296A"/>
<path d="M18.6239 15.8117H17.5893V12.4531H18.6838C19.3435 12.4531 19.7784 12.783 19.7784 13.3228C19.7784 13.6526 19.5834 13.9525 19.2686 14.0574C19.6434 14.1174 19.8983 14.4473 19.8983 14.8221C19.8833 15.4069 19.4335 15.8117 18.6239 15.8117ZM18.6389 12.9179H18.189V13.8475H18.5939C18.8937 13.8475 19.1336 13.6676 19.1336 13.3677C19.1336 13.0679 18.9537 12.9179 18.6389 12.9179ZM18.6389 14.3273H18.189V15.3319H18.6688C18.9987 15.3319 19.2536 15.1819 19.2536 14.8221C19.2386 14.4922 18.9987 14.3273 18.6389 14.3273ZM22.2373 15.122V14.1174C22.2373 13.5327 21.9374 13.2628 21.2477 13.2628C20.9478 13.2628 20.663 13.3228 20.3781 13.4277L20.3631 13.4427L20.4231 13.9525L20.4681 13.9375C20.678 13.8025 20.9329 13.7426 21.1877 13.7426C21.5326 13.7426 21.6675 13.8625 21.6675 14.1774V14.2973C20.7679 14.2973 20.2282 14.6422 20.2282 15.2119C20.2282 15.6168 20.498 15.8567 20.9329 15.8567C21.2477 15.8716 21.5326 15.7217 21.7125 15.4518C21.6975 15.5568 21.6975 15.6767 21.6975 15.7817V15.8267H22.2673V15.7967C22.2373 15.6018 22.2373 15.3469 22.2373 15.122ZM21.0828 15.4069C20.9329 15.4218 20.7979 15.3169 20.7829 15.167C20.7829 15.152 20.7829 15.152 20.7829 15.137C20.7829 14.8671 21.0828 14.7321 21.6675 14.7172V14.7321C21.6525 15.062 21.4426 15.4069 21.0828 15.4069ZM24.0965 13.2778C23.7666 13.2628 23.4518 13.4277 23.2868 13.6976C23.3018 13.5776 23.3018 13.4577 23.3018 13.3527V13.3228H22.7471V15.8267H23.3318V14.6272C23.3318 14.1324 23.5867 13.7726 23.9316 13.7726C24.1714 13.7726 24.2764 13.9075 24.2764 14.2224V15.8267H24.8462V14.0874C24.8462 13.5627 24.5913 13.2778 24.0965 13.2778ZM26.4954 14.4773C26.5104 14.4623 26.7353 14.1774 26.9602 13.8925C27.0952 13.7276 27.2451 13.5477 27.41 13.3378H26.7203C26.6004 13.5027 26.4804 13.6526 26.3755 13.7876C26.1956 14.0275 26.0156 14.2673 25.9707 14.3273V12.4531H25.3859V15.8267H25.9707V14.6572C26.0156 14.7172 26.2106 15.017 26.4055 15.3019C26.5254 15.4668 26.6304 15.6467 26.7653 15.8417H27.5C27.3201 15.6018 27.1552 15.3769 27.0052 15.1819C26.7653 14.8371 26.5104 14.4922 26.4954 14.4773Z" fill="white"/>
<path d="M15.7601 9.24453C15.6402 9.28951 15.5352 9.37947 15.4602 9.46943C15.4302 9.51441 15.4003 9.55939 15.3703 9.61937C15.3253 9.72432 15.2353 9.79929 15.1304 9.79929H14.5906C14.4407 9.79929 14.3207 9.67934 14.3207 9.52941C14.3207 9.37947 14.4257 9.25952 14.5756 9.25952H15.0254L14.4107 8.64479C14.3057 8.53984 14.3057 8.37491 14.4107 8.26995C14.5156 8.165 14.6806 8.165 14.7855 8.26995L15.4003 8.88469V8.44988C15.4003 8.29994 15.5202 8.17999 15.6552 8.17999C15.6552 8.17999 15.6551 8.17999 15.6701 8.17999C15.8201 8.17999 15.94 8.29994 15.94 8.44988V8.98964C15.94 9.10959 15.8651 9.19955 15.7601 9.24453Z" fill="white"/>
<path d="M15.6701 11.5085C15.5352 11.5235 15.4153 11.4186 15.4153 11.2836C15.4153 11.2687 15.4153 11.2537 15.4153 11.2537V10.8188L14.8005 11.4336C14.6956 11.5385 14.5156 11.5385 14.4107 11.4336C14.3057 11.3286 14.3057 11.1637 14.4107 11.0437L15.0254 10.429H14.6056C14.4557 10.429 14.3357 10.3091 14.3357 10.1591C14.3357 10.0092 14.4557 9.88925 14.6056 9.88925H15.1454C15.2503 9.88925 15.3553 9.94922 15.4003 10.0542C15.4602 10.2191 15.5952 10.369 15.7751 10.429C15.895 10.459 15.955 10.564 15.955 10.6839V11.2237C15.94 11.3886 15.8201 11.5085 15.6701 11.5085Z" fill="white"/>
<path d="M17.3944 10.444L16.9596 10.429L17.5743 11.0437C17.6793 11.1487 17.6793 11.3136 17.5743 11.4336C17.4694 11.5385 17.3044 11.5385 17.1995 11.4336L16.5847 10.8188V11.2387C16.5847 11.3886 16.4648 11.5085 16.3299 11.5085H16.3149C16.1649 11.5085 16.045 11.3886 16.045 11.2387V10.7139C16.045 10.5939 16.1199 10.504 16.2249 10.459C16.3449 10.414 16.4498 10.3391 16.5248 10.2341C16.5548 10.1891 16.5847 10.1441 16.6147 10.0842C16.6597 9.97921 16.7497 9.91924 16.8696 9.90424H17.3944C17.5443 9.90424 17.6643 10.0242 17.6643 10.1741C17.6643 10.3241 17.5443 10.444 17.4094 10.444C17.4094 10.444 17.4094 10.444 17.3944 10.444Z" fill="white"/>
<path d="M17.3944 9.79929H16.8546C16.7497 9.79929 16.6447 9.73931 16.5997 9.63436C16.5548 9.51441 16.4798 9.40946 16.3748 9.33449C16.3299 9.3045 16.2849 9.27452 16.2249 9.24453C16.1199 9.19955 16.045 9.10959 16.045 8.98964V8.44988C16.045 8.29994 16.1649 8.17999 16.2999 8.17999C16.4498 8.17999 16.5698 8.28495 16.5698 8.43488C16.5698 8.43488 16.5698 8.43488 16.5698 8.44988V8.88469L17.1845 8.26995C17.2894 8.165 17.4544 8.165 17.5593 8.26995C17.6643 8.37491 17.6643 8.53984 17.5593 8.65978L16.9446 9.27452H17.3944C17.5443 9.27452 17.6643 9.39446 17.6643 9.5444C17.6643 9.66435 17.5443 9.79929 17.3944 9.79929Z" fill="white"/>
<path d="M6.58409 12.4531V14.4173C6.58409 14.5372 6.58409 14.6572 6.5691 14.7771C6.52412 15.1969 6.31421 15.3769 5.83442 15.3769C5.39961 15.3769 5.1897 15.2119 5.12973 14.8821C5.09974 14.7471 5.08475 14.6122 5.08475 14.4773V12.4531H4.5V14.5222C4.5 14.6872 4.51499 14.8521 4.54498 15.017C4.66493 15.5718 5.06975 15.8716 5.78944 15.8716C6.58409 15.8716 7.0339 15.5418 7.13885 14.9121C7.15385 14.7471 7.16884 14.5972 7.16884 14.4323V12.4531H6.58409Z" fill="white"/>
<path d="M8.29335 12.4531H7.7086V15.8267H8.29335V12.4531Z" fill="white"/>
<path d="M9.74772 14.3423C9.49283 14.2374 9.34289 14.1624 9.34289 13.9825C9.34289 13.7726 9.53781 13.7126 9.76271 13.7126C9.92764 13.7126 10.0926 13.7426 10.2425 13.7876V13.2928C10.0776 13.2628 9.89765 13.2478 9.73273 13.2478C9.13299 13.2478 8.74316 13.5327 8.74316 13.9975C8.74316 14.4473 9.02803 14.5972 9.40287 14.7471C9.65776 14.8521 9.82269 14.9121 9.82269 15.092C9.82269 15.2719 9.68774 15.3619 9.40287 15.3619C9.20795 15.3619 8.99804 15.3319 8.81812 15.2569L8.75815 15.7667C8.95306 15.8117 9.16297 15.8417 9.35789 15.8417C10.0026 15.8417 10.4224 15.5568 10.4224 15.047C10.4074 14.5972 10.0776 14.4773 9.74772 14.3423Z" fill="white"/>
<path d="M11.5769 12.4381L11.0072 12.6031V13.3228H10.5424V13.8025H11.0072V15.077C11.0072 15.6467 11.2021 15.8567 11.7119 15.8567C11.8768 15.8567 12.0417 15.8417 12.2066 15.7967H12.2216V15.3019C12.1017 15.3319 11.9967 15.3469 11.8768 15.3469C11.6669 15.3469 11.5919 15.2869 11.5919 14.9121V13.7876H12.2366V13.3078H11.5919V12.4381H11.5769Z" fill="white"/>
<path d="M14.6206 14.6272L14.6356 14.3573C14.6356 13.6676 14.2608 13.2778 13.616 13.2778C12.9263 13.2778 12.4765 13.7876 12.4765 14.5822C12.4765 15.4368 12.8814 15.8567 13.676 15.8567C13.9759 15.8567 14.2608 15.8117 14.5456 15.6917L14.5007 15.2269L14.4557 15.2419C14.2308 15.3469 14.0059 15.3919 13.751 15.3919C13.5561 15.4069 13.3761 15.3469 13.2262 15.2119C13.0913 15.047 13.0313 14.8521 13.0463 14.6422V14.6272H14.6206ZM13.586 13.7126C13.706 13.7126 13.8259 13.7576 13.9159 13.8475C14.0059 13.9375 14.0508 14.0724 14.0508 14.2074H13.0763C13.1362 13.9075 13.3162 13.7126 13.586 13.7126Z" fill="white"/>
<path d="M15.6252 13.7126C15.6402 13.5926 15.6552 13.4727 15.6552 13.3527V13.3228H15.1004V15.8267H15.6851V14.8071C15.6851 14.3573 15.7751 14.0724 15.94 13.9375C16.03 13.8625 16.1349 13.8325 16.2399 13.8325C16.2999 13.8325 16.3598 13.8475 16.4198 13.8475L16.4348 13.2628C16.3898 13.2628 16.3598 13.2628 16.3149 13.2628C16 13.2778 15.7301 13.4577 15.6252 13.7126Z" fill="white"/>
</svg>
