<svg width="32" height="24" viewBox="0 0 32 24" fill="none" xmlns="http://www.w3.org/2000/svg">
<rect width="32" height="24" rx="4" fill="#F36805"/>
<rect x="0.5" y="0.5" width="31" height="23" rx="3.5" stroke="white" stroke-opacity="0.01"/>
<path d="M17.6783 12.3188C17.6362 12.3188 17.5881 12.3188 17.546 12.3308C17.3775 12.3669 17.2332 12.4632 17.1369 12.6076C17.0407 12.7519 17.0106 12.9264 17.0467 13.0948C17.0828 13.2633 17.179 13.4076 17.3234 13.5039C17.4678 13.6001 17.6422 13.6302 17.8047 13.5941C17.9731 13.558 18.1175 13.4618 18.2137 13.3174C18.31 13.173 18.34 12.9986 18.304 12.8301C18.2378 12.5294 17.9731 12.3188 17.6723 12.3188H17.6783Z" fill="white"/>
<path d="M17.6783 12.3188C17.6362 12.3188 17.5881 12.3188 17.546 12.3308C17.3775 12.3669 17.2332 12.4632 17.1369 12.6076C17.0407 12.7519 17.0106 12.9264 17.0467 13.0948C17.0828 13.2633 17.179 13.4076 17.3234 13.5039C17.4678 13.6001 17.6422 13.6302 17.8047 13.5941C17.9731 13.558 18.1175 13.4618 18.2137 13.3174C18.31 13.173 18.34 12.9986 18.304 12.8301C18.2378 12.5294 17.9731 12.3188 17.6723 12.3188H17.6783Z" fill="white"/>
<path d="M10.5078 9.70805C12.1862 8.7275 14.1112 8.21016 16.0783 8.21016C16.4753 8.21016 16.8783 8.23422 17.2754 8.27633C17.5401 8.30641 17.8048 8.31844 18.0694 8.31844C18.8033 8.31844 19.5192 8.19812 20.217 7.99359L18.8214 5.32867C18.7312 5.16023 18.5627 5.03992 18.3762 5.00984C18.1837 4.98578 17.9912 5.04594 17.8589 5.1843C16.5896 6.50172 14.8932 7.38601 13.0885 7.6868C11.0191 8.02969 9.07608 9.04633 7.62631 10.5442C7.44585 10.7307 7.40374 11.0134 7.52405 11.242L10.2732 16.4877C10.3634 16.6561 10.5319 16.7764 10.7183 16.8065C10.7304 16.8065 10.7364 16.8065 10.7484 16.8065L9.65358 11.6391C9.49116 10.8751 9.83405 10.0991 10.5078 9.70805Z" fill="white"/>
<path d="M24.5362 14.5386L23.309 8.73952C23.2909 8.64327 23.2488 8.55906 23.1887 8.48687C23.1827 8.47484 23.1646 8.47484 23.1586 8.46281C23.1045 8.40265 23.0443 8.34851 22.9661 8.31242C22.8819 8.27632 22.7916 8.25827 22.7014 8.26429C22.6894 8.26429 22.6834 8.26429 22.6713 8.26429C22.5871 8.27031 22.4969 8.29437 22.4187 8.33648C22.4187 8.33648 22.4187 8.33648 22.4127 8.33648C22.166 8.48085 21.9134 8.60718 21.6547 8.72148C21.6366 8.72749 21.6186 8.73952 21.6006 8.74554C20.4937 9.23882 19.2906 9.50351 18.0754 9.50351C17.7686 9.50351 17.4558 9.48546 17.149 9.45538C16.7941 9.41929 16.4391 9.39523 16.0842 9.39523C14.3457 9.39523 12.6132 9.85843 11.1213 10.7307C10.8988 10.863 10.7845 11.1217 10.8386 11.3744L12.0658 17.1674C12.1079 17.3539 12.2342 17.5163 12.4087 17.5945C12.4869 17.6306 12.5711 17.6487 12.6493 17.6487C12.7516 17.6487 12.8598 17.6186 12.9501 17.5644C12.9681 17.5524 12.9802 17.5464 12.9982 17.5404C13.1666 17.4441 13.3351 17.3539 13.5035 17.2697C13.5757 17.2336 13.6419 17.2035 13.7141 17.1734C13.8344 17.1193 13.9607 17.0651 14.087 17.011C14.1652 16.9809 14.2434 16.9509 14.3277 16.9208C14.448 16.8787 14.5743 16.8366 14.7006 16.7944C14.7788 16.7704 14.857 16.7463 14.9413 16.7223C15.0796 16.6862 15.212 16.6501 15.3503 16.62C15.4165 16.6019 15.4887 16.5839 15.5548 16.5719C15.7594 16.5298 15.9699 16.4937 16.1745 16.4636C16.1985 16.4636 16.2226 16.4636 16.2466 16.4576C16.4331 16.4335 16.6196 16.4155 16.8061 16.4094C16.8723 16.4094 16.9445 16.4094 17.0106 16.4034C17.1069 16.4034 17.2031 16.3914 17.2994 16.3914C17.3295 16.3914 17.3656 16.3914 17.3956 16.3914C17.6724 16.3914 17.9551 16.4094 18.2318 16.4395C18.5446 16.4756 18.8634 16.4876 19.1763 16.4937C19.3266 16.4937 19.477 16.4937 19.6214 16.4937C19.6996 16.4937 19.7718 16.4937 19.85 16.4876C20.0786 16.4756 20.3072 16.4516 20.5358 16.4275C20.5478 16.4275 20.5599 16.4275 20.5659 16.4275C20.8065 16.3974 21.0411 16.3553 21.2817 16.3072C21.3539 16.2951 21.4261 16.2711 21.4923 16.2591C21.6547 16.223 21.8231 16.1809 21.9856 16.1327C22.0698 16.1087 22.148 16.0846 22.2322 16.0605C22.3826 16.0124 22.539 15.9643 22.6834 15.9041C22.7616 15.8741 22.8458 15.844 22.924 15.8139C23.0804 15.7537 23.2368 15.6816 23.3932 15.6094C23.4594 15.5793 23.5256 15.5492 23.5917 15.5191C23.8083 15.4109 24.0249 15.3026 24.2354 15.1762C24.458 15.0439 24.5723 14.7852 24.5181 14.5326L24.5362 14.5386ZM13.5156 14.0333L13.1426 12.8903C13.7081 12.7098 14.2916 12.5775 14.8751 12.4993L15.0315 13.6904C14.5202 13.7566 14.0028 13.8769 13.5095 14.0333H13.5156ZM19.2304 13.9731C18.9597 14.3882 18.5446 14.6709 18.0634 14.7732C17.937 14.8033 17.8047 14.8153 17.6784 14.8153C17.3234 14.8153 16.9806 14.713 16.6738 14.5145C16.2587 14.2438 15.9759 13.8287 15.8737 13.3475C15.7714 12.8662 15.8616 12.373 16.1323 11.9579C16.4031 11.5428 16.8181 11.2601 17.2994 11.1578C18.292 10.9473 19.2785 11.5849 19.4891 12.5835C19.5913 13.0648 19.5011 13.558 19.2304 13.9731ZM20.4756 13.4738L20.3132 12.2827C20.8306 12.2166 21.3419 12.0962 21.8352 11.9398L22.2081 13.0828C21.6487 13.2633 21.0652 13.3956 20.4756 13.4738Z" fill="white"/>
</svg>
