<svg width="32" height="24" viewBox="0 0 32 24" fill="none" xmlns="http://www.w3.org/2000/svg">
<rect width="32" height="24" rx="4" fill="#F36805"/>
<rect x="0.5" y="0.5" width="31" height="23" rx="3.5" stroke="white" stroke-opacity="0.01"/>
<path d="M13.2656 14.7344V18.5625H9.98438V9.99844C9.15859 10.7477 8.59531 11.2836 8.57891 11.3L7.82422 10.5125C8.00469 10.3594 12.3414 6.17578 15.0758 4.57891C15.3197 4.4435 15.5904 4.36323 15.8688 4.34375H16H16.0766C16.3682 4.3496 16.6545 4.42258 16.9133 4.55703C19.6477 6.16484 24.0227 10.3266 24.1758 10.5016L23.4211 11.2891C23.4211 11.2891 22.8414 10.7422 22.0156 9.9875V12.5469H15.4531C14.873 12.5469 14.3166 12.7773 13.9063 13.1876C13.4961 13.5978 13.2656 14.1542 13.2656 14.7344V14.7344ZM14.3594 16.375H23.6563V18.5625C23.6563 18.8526 23.541 19.1308 23.3359 19.3359C23.1308 19.541 22.8526 19.6562 22.5625 19.6562H15.4531C15.163 19.6562 14.8848 19.541 14.6797 19.3359C14.4746 19.1308 14.3594 18.8526 14.3594 18.5625V16.375ZM16 18.5625H17.6406V17.4688H16V18.5625ZM22.5625 13.6406H15.4531C15.163 13.6406 14.8848 13.7559 14.6797 13.961C14.4746 14.1661 14.3594 14.4443 14.3594 14.7344V15.2812H23.6563V14.7344C23.6563 14.4443 23.541 14.1661 23.3359 13.961C23.1308 13.7559 22.8526 13.6406 22.5625 13.6406Z" fill="white"/>
</svg>
