<svg width="32" height="24" viewBox="0 0 32 24" fill="none" xmlns="http://www.w3.org/2000/svg">
<rect width="32" height="24" rx="4" fill="#F36805"/>
<rect x="0.5" y="0.5" width="31" height="23" rx="3.5" stroke="white" stroke-opacity="0.01"/>
<path d="M24.4185 11.3984C24.4185 7.08523 20.9114 3.57812 16.5982 3.57812C14.5409 3.57812 12.676 4.38422 11.2744 5.68359H11.2684L11.13 5.80992C11.0879 5.85203 11.0518 5.88812 11.0097 5.93023L9.86672 7.0732C8.38688 8.54703 7.57477 10.5141 7.57477 12.6016C7.57477 14.689 8.38688 16.6501 9.86672 18.1299C11.3405 19.6038 13.3077 20.4219 15.3951 20.4219C17.4825 20.4219 19.4436 19.6098 20.9234 18.1299L22.1627 16.8907C23.5583 15.471 24.4245 13.534 24.4245 11.3924L24.4185 11.3984ZM10.7149 17.2817C9.46367 16.0305 8.77789 14.3702 8.77789 12.6076C8.77789 12.4151 8.78992 12.2226 8.80797 12.0361C9.11477 15.856 12.1707 18.8999 15.9966 19.1947C14.1077 19.3631 12.1647 18.7315 10.7209 17.2877L10.7149 17.2817ZM20.0632 11.5007L19.4556 11.615C19.3774 11.6391 19.3113 11.7052 19.3052 11.7895C19.3052 11.8977 19.1849 14.2799 19.0405 14.8995C19.0165 14.9898 18.9383 15.0559 18.842 15.0559C18.6074 15.0559 18.3788 15.0439 18.1563 15.0439C18.1563 15.0439 18.1081 15.0198 18.1081 14.9958C18.1081 14.9958 18.1502 14.322 18.1863 13.4618C18.2284 12.4512 18.2645 11.1518 18.1923 10.3878C18.1923 10.3457 18.1803 10.3277 18.1803 10.3277C18.1623 10.2795 18.1141 10.2434 18.06 10.2434C18.0299 10.2434 18.0059 10.2555 17.9818 10.2675C17.9818 10.2675 17.9638 10.2795 17.9457 10.3036C17.9457 10.3036 17.1456 11.1217 16.9772 13.546C16.9772 13.546 16.9772 13.5821 16.9772 13.6122C16.9892 13.6603 17.0313 13.7024 17.0975 13.7145L17.5126 13.7746C17.5487 13.7746 17.5788 13.8107 17.5788 13.8468C17.5788 13.8468 17.5607 14.2559 17.4825 14.9837C17.4825 15.0138 17.4524 15.0379 17.4163 15.0379H17.0734C16.9291 15.0379 16.7787 15.0379 16.6223 15.0379H16.5741C16.4478 15.0379 16.3275 15.0379 16.2132 15.0379C16.2132 15.0379 16.1771 15.0379 16.153 15.0379C16.123 15.0379 16.0929 15.0138 16.0929 14.9837C16.0809 14.8995 16.0628 14.7191 16.0388 14.4544C15.9846 13.8468 15.9966 13.7205 15.9966 13.7205C15.9966 13.6784 16.0207 13.6483 16.0508 13.6242C16.2192 13.5039 16.3335 13.3114 16.3335 13.0888C16.3335 13.0888 16.3335 13.0888 16.3335 13.0828C16.3335 13.0828 16.3335 13.0768 16.3335 13.0708V13.0648C16.3034 12.2466 16.2914 11.3202 16.3335 10.5803C16.3335 10.5803 16.3335 10.5743 16.3335 10.5683C16.3335 10.5021 16.2794 10.448 16.2072 10.448C16.141 10.448 16.0929 10.5021 16.0869 10.5623C16.0568 11.0676 16.0508 11.6631 16.0628 12.2527C16.0628 12.3309 16.0027 12.397 15.9245 12.397C15.8463 12.397 15.7801 12.3369 15.7801 12.2587C15.768 11.6752 15.7741 11.0796 15.8041 10.5803C15.8041 10.5803 15.8041 10.5743 15.8041 10.5683C15.8041 10.5021 15.75 10.448 15.6778 10.448C15.6116 10.448 15.5635 10.5021 15.5575 10.5623C15.5274 11.0676 15.5214 11.6691 15.5334 12.2587C15.5334 12.3369 15.4733 12.403 15.3891 12.403C15.3109 12.403 15.2447 12.3429 15.2447 12.2587C15.2327 11.6691 15.2387 11.0736 15.2688 10.5683C15.2688 10.5683 15.2688 10.5623 15.2688 10.5563C15.2688 10.4901 15.2146 10.4359 15.1424 10.4359C15.0763 10.4359 15.0281 10.4901 15.0221 10.5502C14.974 11.3082 14.992 12.2707 15.0221 13.1069C15.0341 13.3295 15.1605 13.528 15.3409 13.6362C15.377 13.6603 15.4011 13.6964 15.4011 13.7385C15.4011 13.7505 15.4011 13.7686 15.4011 13.7806C15.4252 14.2799 15.4552 14.7552 15.4733 14.9657C15.4733 15.0018 15.4432 15.0379 15.4071 15.0379H15.383C15.0341 15.0379 14.7093 15.0499 14.3604 15.0559C14.2641 15.0559 14.1799 14.9898 14.1619 14.8995C14.0175 14.2799 13.9032 11.8977 13.8972 11.7895C13.8852 11.7052 13.825 11.633 13.7468 11.615L13.1392 11.5007C13.049 11.4766 12.9828 11.3984 12.9828 11.2962C12.9828 11.2661 12.9888 11.236 13.0009 11.2059C13.043 11.0916 14.204 8.98016 16.3034 7.6868C16.3877 7.62664 16.4899 7.59656 16.6042 7.59656C16.7185 7.59656 16.8208 7.63266 16.905 7.6868C17.3622 7.96953 17.7713 8.28836 18.1322 8.6132C18.1322 8.6132 18.1382 8.6132 18.1382 8.60719V8.39664C18.1382 8.32445 18.1984 8.27031 18.2645 8.27031C18.2645 8.27031 18.2766 8.27031 18.2826 8.27031L18.8902 8.3425C18.9744 8.35453 19.0526 8.41469 19.0706 8.50492C19.0706 8.50492 19.1789 9.01023 19.2451 9.77422C19.2451 9.77422 19.2571 9.81633 19.2691 9.83437C19.8527 10.5623 20.1715 11.1458 20.1955 11.2059C20.2076 11.23 20.2136 11.2601 20.2136 11.2962C20.2136 11.3924 20.1474 11.4766 20.0572 11.5007H20.0632Z" fill="white"/>
</svg>
