<svg width="32" height="24" viewBox="0 0 32 24" fill="none" xmlns="http://www.w3.org/2000/svg">
<rect width="32" height="24" rx="4" fill="url(#paint0_linear_17027_1008)"/>
<path d="M23.0401 7.67597C21.8036 5.64172 19.7295 4.12601 17.2697 3.71384C16.7911 3.62077 16.3257 3.59418 15.8205 3.59418C13.2145 3.59418 10.9144 4.75091 9.37208 6.58572C9.07957 6.97129 9.01309 7.11755 9.39867 7.11755H19.4901C19.6364 7.11755 19.8092 7.21062 19.9023 7.33028L21.2983 9.48419C21.3914 9.60385 21.418 9.80328 21.3914 9.96283L20.0618 16.3182C20.0353 16.4644 19.889 16.5841 19.7427 16.5841H17.4825C17.3761 16.5841 17.2432 16.5309 17.1501 16.4644C17.1235 16.4379 14.3181 12.2098 14.3181 12.2098L13.4539 16.3448C13.4539 16.4644 13.3076 16.5841 13.1614 16.5841H11.5127C11.3664 16.5841 11.2734 16.4644 11.3 16.3182L12.5099 10.4016C12.5365 10.2553 12.6827 10.1357 12.829 10.1357H15.0494V10.1623C15.1956 10.1623 15.3685 10.2553 15.4615 10.375L18.2403 14.5499L19.3306 9.07202H12.1908C9.9172 9.07202 7.75 10.1091 7.75 13.2469C7.75 16.4379 11.0075 20.4 15.8205 20.4C17.2166 20.4 18.5062 20.0809 19.663 19.4826C22.3886 18.0865 24.25 15.2545 24.25 11.9971C24.2234 10.4282 23.8112 8.95236 23.0401 7.67597Z" fill="white"/>
<defs>
<linearGradient id="paint0_linear_17027_1008" x1="1.5" y1="23" x2="31" y2="1.5" gradientUnits="userSpaceOnUse">
<stop offset="0.21" stop-color="#E66124"/>
<stop offset="0.54" stop-color="#E86C24"/>
<stop offset="0.82" stop-color="#ED8722"/>
</linearGradient>
</defs>
</svg>
