<svg width="32" height="24" viewBox="0 0 32 24" fill="none" xmlns="http://www.w3.org/2000/svg">
<g clip-path="url(#clip0_10328_10833)">
<rect width="32" height="24" rx="4" fill="#FFCC00"/>
<path fill-rule="evenodd" clip-rule="evenodd" d="M4.85715 23.1429H27.1429V0.857147H4.85715V23.1429Z" fill="#FFCC00"/>
<path fill-rule="evenodd" clip-rule="evenodd" d="M21.9999 9.77143C22.2399 8.49429 22.5399 7.26857 22.7713 6.02572C22.7027 6.01715 22.6684 6 22.6341 6C21.0484 6 19.4541 6 17.8684 6C17.7141 6 17.6713 6.06858 17.637 6.21429C17.3113 7.73143 16.9856 9.25715 16.6599 10.7743C16.6513 10.8343 16.617 10.9629 16.617 10.9629H17.8856C17.9113 10.86 18.417 8.52857 18.6484 7.43143C18.6999 7.18286 18.7084 7.18286 18.9656 7.18286C19.6341 7.18286 21.1341 7.19143 21.237 7.2L20.4313 10.9714H24.2113C24.2113 11.04 23.9113 12.4286 23.7913 13.08C23.757 13.2771 23.6627 13.32 23.4827 13.32C22.3856 13.32 21.297 13.32 20.1999 13.32C19.9427 13.32 19.9427 13.32 19.8913 13.5771C19.677 14.58 19.4627 15.5743 19.2484 16.5771C19.1884 16.8686 19.1884 16.8686 18.897 16.8686H16.7199C16.3256 16.8686 16.317 16.8686 16.2313 17.2543C16.1713 17.5114 16.1199 17.7771 16.0599 18.06C16.1799 18.06 18.7427 18.0771 19.9513 18.0771C20.2084 18.0771 20.2084 18.0771 20.2684 17.8286C20.4227 17.1257 20.8856 14.9486 20.9799 14.5371H24.4427C24.8027 14.5371 24.7513 14.5629 24.8284 14.22C25.1199 12.8743 25.737 9.94286 25.7541 9.78858H21.9827L21.9999 9.77143Z" fill="#FF0000"/>
<path fill-rule="evenodd" clip-rule="evenodd" d="M6.34858 15.0943L5.71429 18.0514H14.4057L15.1 15.0943H6.34858Z" fill="white"/>
<path fill-rule="evenodd" clip-rule="evenodd" d="M11.9373 10.8429C11.6716 10.2 11.1316 9.87429 10.4716 9.80572C9.88015 9.74572 9.28015 9.76287 8.68015 9.75429C8.50873 9.75429 8.32873 9.75429 8.13158 9.75429C7.74587 11.5457 7.10301 14.4686 6.72587 16.2514H8.16587C8.22587 16.0029 8.47444 14.6057 8.52587 14.3657C8.56015 14.2114 8.62015 14.1514 8.77444 14.1514C9.07444 14.1514 9.38301 14.1514 9.68301 14.1343C10.5916 14.0743 11.2944 13.6543 11.7487 12.8657C12.1087 12.2229 12.2202 11.5372 11.9373 10.8429ZM9.54587 12.9514C9.31444 12.9686 9.08301 12.9514 8.82587 12.9514L9.20301 11.1343C9.22873 11.0143 9.28015 10.9372 9.42587 10.9457C9.63158 10.9629 9.8373 10.9457 10.043 10.9629C10.4116 10.9972 10.6344 11.2286 10.6602 11.5971C10.7202 12.36 10.3002 12.8743 9.5373 12.9429L9.54587 12.9514Z" fill="black"/>
<path fill-rule="evenodd" clip-rule="evenodd" d="M13.1802 9.78002H13.043L13.0259 9.86573C12.8288 10.7486 12.623 11.7172 12.443 12.6C12.2373 13.5686 11.8859 15.2657 11.6888 16.2514H13.1288C13.2745 15.5914 13.4716 14.64 13.6088 13.9886C13.6345 13.8857 13.6602 13.7914 13.6602 13.7914C13.7202 13.7914 14.9202 13.8 15.4002 13.7914L15.4173 13.6886C15.503 13.3457 15.563 13.0372 15.6488 12.6514H13.9259C14.0116 12.24 14.1059 11.4686 14.183 11.0914L14.2088 10.9457C14.7402 10.9457 15.5116 10.9457 16.0345 10.9457C16.0345 10.9457 16.0516 10.9029 16.0602 10.8514C16.1459 10.5172 16.223 10.1572 16.3002 9.82287V9.76287H13.1973L13.1802 9.78002Z" fill="black"/>
</g>
<rect x="0.5" y="0.5" width="31" height="23" rx="3.5" stroke="white" stroke-opacity="0.01"/>
<defs>
<clipPath id="clip0_10328_10833">
<rect width="32" height="24" rx="4" fill="white"/>
</clipPath>
</defs>
</svg>
