<svg width="32" height="24" viewBox="0 0 32 24" fill="none" xmlns="http://www.w3.org/2000/svg">
<rect width="32" height="24" rx="4" fill="#117ACA"/>
<path d="M13.6537 3.75C13.3318 3.75 13.071 4.01078 13.071 4.33234V8.41664H23.8598L18.9466 3.75038L13.6537 3.75Z" fill="white"/>
<path d="M24.2545 9.65224C24.2545 9.32993 23.9956 9.07027 23.6718 9.07027H19.5886V19.8594L24.2526 14.944L24.2545 9.65224Z" fill="white"/>
<path d="M18.3515 20.25C18.6727 20.25 18.9335 19.9888 18.9335 19.6665V15.5837H8.14435L13.0583 20.2492L18.3515 20.25Z" fill="white"/>
<path d="M7.75 14.3485C7.75 14.6705 8.01078 14.9327 8.33347 14.9327H12.4159V4.14287L7.75075 9.05677L7.75 14.3485Z" fill="white"/>
</svg>
