<svg width="32" height="24" viewBox="0 0 32 24" fill="none" xmlns="http://www.w3.org/2000/svg">
<rect width="32" height="24" rx="4" fill="#F36805"/>
<rect x="0.5" y="0.5" width="31" height="23" rx="3.5" stroke="white" stroke-opacity="0.01"/>
<path fill-rule="evenodd" clip-rule="evenodd" d="M16.0028 3.85455L22.1792 6.75216C22.7239 7.00815 23.0779 7.59638 23.0779 8.25542V9.70421H21.4984V11.3273L20.9538 12.3676L20.4091 13.4134V9.70421H18.1924V15.2543H19.445L17.5169 18.969L17.457 19.0833H8.90039L8.92217 16.8829C8.92217 16.006 9.62479 15.287 10.5017 15.2598V9.70421H8.92217V8.25542C8.92217 7.59638 9.2762 7.00815 9.82087 6.75216L16.0028 3.85455ZM11.5856 15.2543H13.8024V9.70421H11.5856V15.2543ZM14.8917 15.2543H17.1085V9.70421H14.8917V15.2543Z" fill="white"/>
<path d="M21.1987 14.2685V16.6759H23.0615V16.7086L22.1028 18.5386L21.8795 18.958L21.8142 19.0833L21.2641 20.1345H21.1987V17.8796H19.3142L19.3632 17.7816L20.1148 16.3436L20.3981 15.799H20.4144V15.7663L20.6813 15.2543L20.9591 14.726L21.1987 14.2685Z" fill="white"/>
</svg>
