<svg width="32" height="24" viewBox="0 0 32 24" fill="none" xmlns="http://www.w3.org/2000/svg">
<rect width="32" height="24" rx="4" fill="#F36805"/>
<rect x="0.5" y="0.5" width="31" height="23" rx="3.5" stroke="white" stroke-opacity="0.01"/>
<path fill-rule="evenodd" clip-rule="evenodd" d="M9.52578 5.4375H22.5523L24.5156 7.40078V16.5992L22.5523 18.5625H9.52578L7.5625 16.5992V7.40078L9.52578 5.4375ZM20.2187 8.17188H21.3125V5.98438H20.2187V8.17188ZM16.2214 10.5286C16.639 10.9462 17.1376 11.2739 17.6867 11.4914C17.7887 11.5317 17.8762 11.6018 17.9379 11.6925C17.9996 11.7832 18.0325 11.8903 18.0325 12C18.0325 12.1097 17.9996 12.2168 17.9379 12.3075C17.8762 12.3982 17.7887 12.4683 17.6867 12.5086C17.1376 12.7261 16.639 13.0538 16.2214 13.4714C15.8038 13.889 15.4761 14.3877 15.2586 14.9367C15.2182 15.0387 15.1482 15.1263 15.0575 15.1879C14.9668 15.2496 14.8596 15.2826 14.75 15.2826C14.6403 15.2826 14.5331 15.2496 14.4424 15.1879C14.3517 15.1263 14.2817 15.0387 14.2414 14.9367C14.0238 14.3877 13.6962 13.889 13.2786 13.4714C12.861 13.0538 12.3623 12.7261 11.8132 12.5086C11.7112 12.4683 11.6237 12.3982 11.562 12.3075C11.5004 12.2168 11.4674 12.1097 11.4674 12C11.4674 11.8903 11.5004 11.7832 11.562 11.6925C11.6237 11.6018 11.7112 11.5317 11.8132 11.4914C12.3623 11.2739 12.861 10.9462 13.2786 10.5286C13.6962 10.111 14.0238 9.61233 14.2414 9.06329C14.2817 8.96128 14.3517 8.87376 14.4424 8.81208C14.5331 8.7504 14.6403 8.71742 14.75 8.71742C14.8596 8.71742 14.9668 8.7504 15.0575 8.81208C15.1482 8.87376 15.2182 8.96128 15.2586 9.06329C15.4761 9.61233 15.8038 10.111 16.2214 10.5286ZM20.2187 15.8281H21.3125V18.0156H20.2187V15.8281ZM21.3125 12.5469H20.2187V14.7344H21.3125V12.5469ZM20.2187 9.26563H21.3125V11.4531H20.2187V9.26563Z" fill="white"/>
<path d="M13.1968 12C13.8157 12.4056 14.3444 12.9343 14.7499 13.5531C15.1555 12.9343 15.6842 12.4056 16.3031 12C15.6842 11.5945 15.1555 11.0658 14.7499 10.4469C14.3444 11.0658 13.8157 11.5945 13.1968 12Z" fill="white"/>
</svg>
