<svg width="32" height="24" viewBox="0 0 32 24" fill="none" xmlns="http://www.w3.org/2000/svg">
<rect width="32" height="24" rx="4" fill="#00937B"/>
<path d="M24.2929 12.3834C24.2929 10.1685 23.4793 8.0893 21.9877 6.46206C21.2193 5.64844 20.3605 4.97043 19.366 4.47322L19.14 4.83483C19.6824 5.15123 20.1797 5.55804 20.6317 6.01005C22.1685 7.59209 23.0273 9.67134 23.0725 11.8862C23.0725 12.2026 23.0725 12.745 23.0273 13.197C22.7561 12.2478 22.2589 11.389 21.5809 10.6658C21.3549 10.3946 21.1289 10.1685 20.8125 10.0329C20.7673 10.711 20.6317 11.389 20.4509 12.067C20.7221 12.2478 20.9481 12.4738 21.1741 12.6998C21.7617 13.2422 22.1233 14.0106 22.1685 14.8243C22.1685 15.2311 21.9877 15.6379 21.6713 15.9091C21.2193 16.2707 20.6769 16.4515 20.0892 16.4515C19.2304 16.4063 18.3716 16.1351 17.6484 15.6379C18.7784 14.5078 19.592 13.1066 19.9536 11.5698C20.1344 10.8918 20.2249 10.2137 20.2249 9.49053C20.2249 8.31531 19.9536 7.14008 19.366 6.10045C18.5976 4.65402 17.106 3.75 15.4787 3.75C13.4447 3.7952 11.5011 4.69922 10.145 6.19086C8.60818 7.68249 7.70416 9.76174 7.70416 11.9314C7.70416 12.293 7.70416 12.6546 7.74936 13.0162H8.15617C8.15617 10.8466 9.01499 8.81252 10.597 7.32088C11.4106 6.55246 12.3147 5.87445 13.3543 5.42244C12.6311 6.10045 12.1339 7.00448 11.8627 7.9537C11.7723 8.2701 11.7271 8.58651 11.7271 8.90292C12.3599 8.58651 12.9927 8.36051 13.6707 8.2249C13.7611 7.27568 14.1679 6.41686 14.8007 5.69364C15.1171 5.37724 15.5239 5.15123 15.976 5.15123C16.6992 5.19643 17.332 5.64844 17.6484 6.28126C18.0552 7.04968 18.236 7.9537 18.1456 8.81252C16.6088 8.31531 14.9815 8.31531 13.4447 8.81252C12.1339 9.12892 10.9586 9.80694 10.0094 10.7562C9.01499 11.7054 8.42738 12.971 8.33698 14.327C8.38218 15.6831 8.96979 16.9487 9.96421 17.8527C11.5915 19.3896 13.7159 20.2936 15.976 20.2484C17.7388 20.2484 19.4112 19.706 20.8577 18.7115L20.7673 18.4403C19.6372 19.0732 18.3716 19.3896 17.0608 19.3896C15.0719 19.4348 13.1735 18.8019 11.5915 17.6267C11.9983 17.7623 12.4503 17.8527 12.9023 17.8527C13.7611 17.8527 14.6199 17.6719 15.3883 17.3103C14.8007 16.9035 14.2583 16.4515 13.8063 15.9543C13.2187 16.1803 12.5407 16.3611 11.9079 16.3611C11.275 16.4063 10.6874 16.1803 10.2354 15.7735C9.96421 15.5023 9.82861 15.1407 9.82861 14.7339C9.87381 13.9654 10.2354 13.197 10.823 12.6998C11.1846 12.293 11.6367 11.9766 12.1339 11.7506C12.5407 13.2874 13.3543 14.7339 14.4843 15.8639C15.7951 17.2199 17.6032 18.0335 19.5016 18.1239C20.7221 18.1691 21.8973 17.7171 22.7561 16.9035C23.7505 15.6379 24.2929 14.0106 24.2929 12.3834V12.3834ZM18.01 11.0274C17.6032 12.293 16.88 13.423 15.9308 14.3722C15.0267 13.3778 14.4391 12.2026 14.1227 10.8918C14.6651 10.7562 15.2075 10.711 15.7499 10.711C16.5184 10.711 17.2868 10.8466 18.01 11.0274" fill="white"/>
</svg>
