<svg width="32" height="24" viewBox="0 0 32 24" fill="none" xmlns="http://www.w3.org/2000/svg">
<rect width="32" height="24" rx="4" fill="#E31F28"/>
<path d="M21.5036 11.5867L24.5126 15.2456C25.1379 14.3267 25.5 13.2116 25.5 12.0069C25.5 10.7406 25.0941 9.56669 24.4028 8.61974L21.5036 11.5867Z" fill="white"/>
<path d="M12.9732 8.30595C15.2196 8.30595 16.9148 8.8915 17.0903 10.8246L19.4547 8.30595H24.167C23.1384 7.07884 21.6216 6.29999 19.9237 6.29999H10.8722C9.17432 6.29999 7.64927 7.07884 6.62892 8.30595H12.9732Z" fill="white"/>
<path d="M9.27306 10.7462L8.4694 12.9987H11.7087C12.6633 12.9987 12.9568 12.5924 13.1707 11.8136C13.3847 11.0403 12.8498 10.7462 12.197 10.7462H9.27306Z" fill="white"/>
<path d="M19.4766 15.551L16.9751 12.3235C16.5115 14.5256 14.9975 15.551 12.1586 15.551H6.5C7.5231 16.8649 9.103 17.7054 10.8722 17.7054H19.921C21.6901 17.7054 23.2645 16.8593 24.2876 15.551H19.4766Z" fill="white"/>
</svg>
