<svg width="32" height="24" viewBox="0 0 32 24" fill="none" xmlns="http://www.w3.org/2000/svg">
<rect x="0.5" y="0.5" width="31" height="23" rx="3.5" fill="white"/>
<rect x="0.5" y="0.5" width="31" height="23" rx="3.5" stroke="#DBD9D7"/>
<path d="M12.078 13.2434C12.078 13.2065 12.3436 12.3597 12.5819 11.962C12.7181 11.7259 12.8202 11.4773 12.8815 11.2163C12.9382 10.9343 12.9261 10.6443 12.8461 10.3669C12.7662 10.0896 12.6203 9.83173 12.4188 9.61166C12.2173 9.3916 11.9652 9.21472 11.6803 9.09361C11.3955 8.9725 11.0849 8.91012 10.7707 8.9109C9.88553 8.9109 9.12292 9.40803 8.79609 10.1164C8.70827 9.75534 8.66487 9.38642 8.66672 9.01654C8.68034 6.59303 10.8116 4.66666 13.4603 4.66666C16.0273 4.66666 18.1244 6.51225 18.247 8.83012C18.3015 9.82438 17.9065 10.7379 17.3346 11.5643C16.5652 12.6332 15.7004 13.6398 15.7004 14.9821C15.7004 16.9271 17.0963 18.5863 19.0164 19.1456C18.5057 19.2698 17.9678 19.3444 17.4095 19.332C14.4952 19.3071 12.0848 17.1695 11.9623 14.5036C11.9487 14.0686 11.9895 13.6523 12.078 13.2484C12.078 13.2484 12.078 13.2803 12.078 13.2434ZM20.4872 11.0113C20.4872 10.7751 20.2829 10.5763 20.0242 10.5763C19.7518 10.5763 19.5475 10.7751 19.5475 11.0113C19.5475 11.2474 19.7518 11.4463 20.0242 11.4463C20.2761 11.4463 20.4872 11.2474 20.4872 11.0113ZM21.8626 16.0634C21.8217 15.3177 22.2984 14.6527 22.9997 14.3545V14.3358C22.7954 14.2985 22.5911 14.2737 22.3869 14.2737C20.6302 14.2737 19.2071 15.5786 19.2071 17.1819C19.2071 17.8033 19.425 18.3936 19.7995 18.8597C20.7832 18.4441 21.6117 17.7743 22.1826 16.9333C21.992 16.6848 21.8762 16.3741 21.8626 16.0634ZM22.5299 9.17811C22.6524 8.89226 22.7205 8.57534 22.7205 8.24599C22.7205 7.77372 22.5843 7.33873 22.3324 6.95967C22.2452 7.54392 21.9863 8.09575 21.5834 8.5567C21.5834 8.56912 21.5834 8.58155 21.563 8.59398L21.0183 8.34542C20.8821 8.28327 20.7459 8.22113 20.6302 8.14656C20.1399 7.88557 19.7722 7.46301 19.6224 6.94724C19.5339 7.22687 19.4862 7.51894 19.4862 7.82964C19.4862 8.84254 20.031 9.73738 20.8617 10.2904C21.0387 10.4147 21.2021 10.539 21.3587 10.6819C21.9715 11.2412 22.4482 11.9247 22.7341 12.6704C23.0201 12.3225 23.2108 11.8999 23.2993 11.4463C23.3197 11.2909 23.3333 11.1356 23.3333 10.9926C23.3333 10.2034 23.1018 9.65659 22.5163 9.19054" fill="#EF533D"/>
</svg>
