<svg width="32" height="24" viewBox="0 0 32 24" fill="none" xmlns="http://www.w3.org/2000/svg">
<rect x="0.5" y="0.5" width="31" height="23" rx="3.5" fill="white"/>
<rect x="0.5" y="0.5" width="31" height="23" rx="3.5" stroke="#DBD9D7"/>
<g clip-path="url(#clip0_10207_11393)">
<path d="M22.2579 12.0014H20.5039C20.3091 12.0014 20.1521 11.8457 20.1521 11.649C20.1521 11.4523 20.3091 11.2802 20.5039 11.2802H23.1727V9.9527H20.5039C19.5728 9.9527 18.815 10.7203 18.815 11.6572C18.815 12.5941 19.5728 13.3617 20.5039 13.3617H22.2335C22.4284 13.3617 22.5854 13.5174 22.5854 13.7141C22.5854 13.9108 22.4284 14.0555 22.2335 14.0555H18.5253C18.2114 14.6619 17.9055 15.1809 17.283 15.4404H22.2579C23.1727 15.4268 23.9225 14.6456 23.9225 13.7168C23.9225 12.7853 23.1727 12.015 22.2579 12.0014Z" fill="#71706F"/>
<path d="M15.5372 9.9527C14.0512 9.9527 12.8413 11.1819 12.8413 12.6897V18.3851H14.1865V15.4404H15.5344C17.0204 15.4404 18.2249 14.1948 18.2249 12.687C18.2276 11.1764 17.0231 9.9527 15.5372 9.9527ZM15.5372 14.0528H14.1865V12.6843C14.1865 11.9194 14.7901 11.2966 15.5372 11.2966C16.2842 11.2966 16.8932 11.9194 16.8932 12.6843C16.8932 13.4491 16.2842 14.0528 15.5372 14.0528Z" fill="#71706F"/>
<path d="M8.58366 15.4405C7.31152 15.4405 6.24237 14.5254 5.95276 13.3317C5.95276 13.3317 5.86885 12.9356 5.86885 12.6761C5.86885 12.4166 5.94734 12.0178 5.94734 12.0178C6.23967 10.8268 7.3061 9.93905 8.57554 9.93905C10.0696 9.93905 11.2958 11.1628 11.2958 12.6706V13.3344H7.32776C7.56324 13.796 8.03691 14.0555 8.58366 14.0555H12.1511L12.1565 10.1466C12.1565 9.56482 11.6855 9.08679 11.1063 9.08679H6.0502C5.47367 9.08679 5 9.54843 5 10.133V15.2356C5 15.8174 5.47367 16.3091 6.0502 16.3091H11.1063C11.6233 16.3091 12.0563 15.9349 12.1403 15.4432H8.58366V15.4405Z" fill="#B90466"/>
<path d="M8.57825 11.2338C8.0342 11.2338 7.56053 11.5698 7.32505 12.0041H9.83145C9.59597 11.5698 9.12229 11.2338 8.57825 11.2338Z" fill="#B90466"/>
<path d="M10.8681 7.42598C10.8681 6.18038 9.84227 5.17242 8.57825 5.17242C7.31422 5.17242 6.32357 6.15033 6.29109 7.36588V8.05697C6.29109 8.13892 6.35605 8.21814 6.43996 8.21814H7.28174C7.36294 8.21814 7.43602 8.13892 7.43602 8.05697V7.42598C7.43602 6.80318 7.94759 6.29784 8.58095 6.29784C9.21432 6.29784 9.72588 6.80318 9.72588 7.42598V8.05697C9.72588 8.13892 9.79085 8.21814 9.87475 8.21814H10.7165C10.7977 8.21814 10.8708 8.13892 10.8708 8.05697V7.42598H10.8681Z" fill="#B90466"/>
<path d="M17.0475 17.2023L16.9257 17.8989C16.8661 18.2512 16.6361 18.4124 16.3275 18.4124C16.065 18.4124 15.862 18.2403 15.9215 17.8989L16.0433 17.2023H16.2301L16.1083 17.8989C16.0704 18.1174 16.1678 18.2403 16.3492 18.2403C16.5305 18.2403 16.6983 18.1283 16.7362 17.8989L16.858 17.2023H17.0475ZM16.3086 16.9838C16.3086 17.0412 16.3519 17.0685 16.4006 17.0685C16.4601 17.0685 16.5251 17.0275 16.5251 16.9455C16.5251 16.8882 16.4872 16.8609 16.4385 16.8609C16.3762 16.8609 16.3086 16.8991 16.3086 16.9838ZM16.7146 16.9811C16.7146 17.0412 16.7606 17.0685 16.8093 17.0685C16.8607 17.0685 16.9311 17.0275 16.9311 16.9483C16.9311 16.8909 16.8905 16.8609 16.8445 16.8609C16.7849 16.8609 16.7146 16.8991 16.7146 16.9811Z" fill="#71706F"/>
<path d="M17.4995 17.2023L17.4156 17.6831C17.4887 17.5847 17.6348 17.5328 17.735 17.5328C17.9461 17.5328 18.0896 17.6585 18.0896 17.8879C18.0896 18.213 17.8649 18.4097 17.578 18.4097C17.467 18.4097 17.3723 18.3687 17.3127 18.2622L17.2803 18.3878H17.1152L17.3236 17.2023H17.4995ZM17.3696 18.0136C17.3615 18.1529 17.4535 18.243 17.5834 18.243C17.7485 18.243 17.9055 18.1146 17.9163 17.9207C17.9245 17.7787 17.8324 17.694 17.7052 17.694C17.5428 17.694 17.3777 17.8278 17.3696 18.0136Z" fill="#71706F"/>
<path d="M18.4333 18.0382C18.4279 18.1529 18.5172 18.2485 18.6688 18.2485C18.7527 18.2485 18.8637 18.2157 18.9259 18.1584L19.0207 18.2676C18.9178 18.3632 18.7662 18.4124 18.6363 18.4124C18.3954 18.4124 18.2547 18.2676 18.2547 18.0436C18.2547 17.7486 18.4847 17.5274 18.7798 17.5274C19.0504 17.5274 19.202 17.6913 19.11 18.0382H18.4333ZM18.9692 17.8934C18.9828 17.7486 18.8989 17.6885 18.7581 17.6885C18.6309 17.6885 18.5145 17.7486 18.4631 17.8934H18.9692Z" fill="#71706F"/>
<path d="M19.5755 17.5465L19.5674 17.6585C19.6486 17.552 19.7461 17.5274 19.8354 17.5274C19.9166 17.5274 19.9897 17.5574 20.0276 17.5984L19.922 17.7514C19.8841 17.7159 19.8462 17.6995 19.784 17.6995C19.6649 17.6995 19.5458 17.7732 19.5187 17.9289L19.4375 18.3824H19.2643L19.4131 17.5438H19.5755V17.5465Z" fill="#71706F"/>
<path d="M20.8693 17.5465L20.956 18.2103L21.2753 17.5465H21.4675L21.0317 18.3851H20.8287L20.7448 17.8333L20.6122 18.1065L20.466 18.3851H20.263L20.1169 17.5465H20.3118L20.3984 18.2103L20.7178 17.5465H20.8693Z" fill="#71706F"/>
<path d="M21.6922 18.0382C21.6868 18.1529 21.7761 18.2485 21.9277 18.2485C22.0116 18.2485 22.1225 18.2157 22.1848 18.1584L22.2795 18.2676C22.1767 18.3632 22.0251 18.4124 21.8952 18.4124C21.6543 18.4124 21.5135 18.2676 21.5135 18.0436C21.5135 17.7486 21.7436 17.5274 22.0386 17.5274C22.3093 17.5274 22.4609 17.6913 22.3689 18.0382H21.6922ZM22.2281 17.8934C22.2416 17.7486 22.1577 17.6885 22.017 17.6885C21.8898 17.6885 21.7734 17.7486 21.722 17.8934H22.2281Z" fill="#71706F"/>
<path d="M22.8479 17.5465L22.7018 18.3851H22.5285L22.6747 17.5465H22.8479ZM22.6937 17.3198C22.6937 17.3799 22.737 17.4099 22.7857 17.4099C22.8533 17.4099 22.9156 17.3662 22.9156 17.2815C22.9156 17.2242 22.875 17.1914 22.829 17.1914C22.764 17.1941 22.6937 17.2351 22.6937 17.3198Z" fill="#71706F"/>
<path d="M23.6193 17.7541C23.5652 17.694 23.4948 17.6749 23.4136 17.6749C23.2999 17.6749 23.216 17.7131 23.216 17.7869C23.216 17.8497 23.281 17.8743 23.3811 17.8825C23.5327 17.8961 23.7276 17.948 23.687 18.1638C23.6572 18.3195 23.503 18.4124 23.2864 18.4124C23.1511 18.4124 23.0212 18.3824 22.9318 18.2567L23.0455 18.1311C23.1078 18.2185 23.2187 18.254 23.3162 18.2567C23.4001 18.2567 23.4975 18.2267 23.5138 18.1474C23.53 18.071 23.4624 18.0436 23.3405 18.0327C23.1971 18.0191 23.0428 17.9672 23.0428 17.806C23.0428 17.5957 23.2675 17.5219 23.438 17.5219C23.5679 17.5219 23.6599 17.552 23.7384 17.6339L23.6193 17.7541Z" fill="#71706F"/>
<path d="M24.1715 17.5465L24.093 17.9972C24.0659 18.142 24.1309 18.2403 24.2771 18.2403C24.4151 18.2403 24.5315 18.1256 24.5532 17.9863L24.6289 17.5465H24.8022L24.656 18.3851H24.499L24.5098 18.2649C24.4124 18.3578 24.315 18.4042 24.1986 18.4042C23.9929 18.4042 23.8711 18.2567 23.9171 18.0027L23.9956 17.5492H24.1715V17.5465Z" fill="#71706F"/>
<path d="M25.5682 18.3851L25.6494 17.9371C25.6737 17.7923 25.625 17.6967 25.4653 17.6967C25.3273 17.6967 25.2109 17.8087 25.1865 17.948L25.1107 18.3878H24.9375L25.0837 17.5492H25.2434L25.2298 17.6721C25.3273 17.582 25.4274 17.5383 25.5357 17.5383C25.7387 17.5383 25.8713 17.6803 25.8253 17.9371L25.7441 18.3878H25.5682V18.3851Z" fill="#71706F"/>
<path d="M26.1582 18.4998C26.1474 18.6145 26.234 18.661 26.3802 18.661C26.5101 18.661 26.6481 18.59 26.6806 18.4042L26.705 18.2594C26.6292 18.366 26.4911 18.4097 26.3856 18.4097C26.1718 18.4097 26.0229 18.2813 26.0229 18.0491C26.0229 17.7186 26.2665 17.5274 26.5426 17.5274C26.659 17.5274 26.7645 17.5847 26.8024 17.6803L26.8322 17.5465H27L26.8538 18.4097C26.7997 18.7293 26.5642 18.8276 26.3504 18.8276C26.0933 18.8276 25.9525 18.702 25.9877 18.4998H26.1582ZM26.2069 18.0191C26.2069 18.1638 26.299 18.2485 26.4343 18.2485C26.7943 18.2485 26.8917 17.6913 26.5317 17.6913C26.3612 17.6913 26.2069 17.8197 26.2069 18.0191Z" fill="#71706F"/>
</g>
<defs>
<clipPath id="clip0_10207_11393">
<rect width="22" height="13.6552" fill="white" transform="translate(5 5.17242)"/>
</clipPath>
</defs>
</svg>
