<svg width="32" height="24" viewBox="0 0 32 24" fill="none" xmlns="http://www.w3.org/2000/svg">
<rect width="32" height="24" rx="4" fill="black"/>
<path d="M8.91164 4.50097H14.7255C15.5371 4.50097 16.0419 5.18192 15.8525 6.02013L13.1458 17.9832C12.9547 18.8185 12.1422 19.5 11.33 19.5H5.51673C4.70629 19.5 4.20039 18.8185 4.38972 17.9832L7.09763 6.02013C7.28695 5.18192 8.09908 4.50097 8.91164 4.50097Z" fill="#E21836"/>
<path d="M14.2414 4.5H20.9272C21.7387 4.5 21.3728 5.18095 21.1819 6.01916L18.4755 17.9822C18.2856 18.8175 18.3449 19.499 17.5318 19.499H10.8459C10.0328 19.499 9.5296 18.8175 9.72063 17.9822L12.4268 6.01916C12.619 5.18095 13.4294 4.5 14.2414 4.5Z" fill="#00447C"/>
<path d="M20.6622 4.5H26.4761C27.2888 4.5 27.7935 5.18095 27.6026 6.01916L24.8963 17.9822C24.7053 18.8175 23.8921 19.499 23.0796 19.499H17.2684C16.4553 19.499 15.9509 18.8175 16.1414 17.9822L18.8482 6.01916C19.0375 5.18095 19.849 4.5 20.6622 4.5Z" fill="#007B84"/>
<path d="M10.4297 8.33378C9.83187 8.34005 9.6553 8.33378 9.5989 8.32006C9.57722 8.42612 9.17264 10.3435 9.17264 10.3435C9.08577 10.7311 9.02257 11.0074 8.80788 11.1858C8.68601 11.2895 8.54373 11.3396 8.37879 11.3396C8.11365 11.3396 7.95919 11.204 7.93325 10.947L7.92829 10.8588C7.92829 10.8588 8.00907 10.3396 8.00907 10.3367C8.00907 10.3367 8.43249 8.59081 8.50831 8.36003C8.51228 8.3469 8.51341 8.34005 8.5144 8.33378C7.69022 8.34122 7.54412 8.33378 7.53406 8.32006C7.52853 8.33888 7.50813 8.44712 7.50813 8.44712L7.07577 10.4149L7.03865 10.5817L6.9668 11.1276C6.9668 11.2895 6.99769 11.4217 7.05919 11.5334C7.25617 11.8878 7.81804 11.9409 8.1359 11.9409C8.54544 11.9409 8.92961 11.8513 9.18922 11.6878C9.63985 11.4137 9.75775 10.9852 9.8629 10.6045L9.91165 10.4092C9.91165 10.4092 10.3478 8.59592 10.4219 8.36003C10.4248 8.3469 10.4259 8.34005 10.4297 8.33378ZM11.9138 9.79654C11.8087 9.79654 11.6165 9.8228 11.4439 9.90989C11.3813 9.943 11.322 9.98122 11.2595 10.0193L11.3159 9.80967L11.285 9.77437C10.919 9.85066 10.8371 9.86087 10.499 9.90989L10.4706 9.92929C10.4314 10.2644 10.3965 10.5163 10.251 11.1749C10.1956 11.4177 10.1381 11.6627 10.0804 11.9049L10.096 11.9357C10.4424 11.9169 10.5476 11.9169 10.8487 11.922L10.8731 11.8947C10.9114 11.6929 10.9163 11.6457 11.0011 11.2371C11.0409 11.0433 11.1239 10.6177 11.1649 10.4661C11.2401 10.4302 11.3144 10.3949 11.3852 10.3949C11.554 10.3949 11.5335 10.5465 11.5269 10.6069C11.5197 10.7083 11.4582 11.0394 11.3952 11.3237L11.3531 11.5072C11.3237 11.6428 11.2916 11.7745 11.2622 11.9088L11.275 11.9357C11.6165 11.9169 11.7207 11.9169 12.0123 11.922L12.0466 11.8947C12.0993 11.5796 12.1148 11.4953 12.2083 11.0365L12.2553 10.8257C12.3467 10.4132 12.3926 10.204 12.3235 10.0336C12.2504 9.84264 12.0749 9.79654 11.9138 9.79654ZM13.5717 10.2285C13.3902 10.2644 13.2744 10.2883 13.1593 10.3037C13.0452 10.3226 12.934 10.3396 12.7586 10.3647L12.7447 10.3777L12.7319 10.3881C12.7136 10.5226 12.7009 10.6388 12.6767 10.7755C12.6561 10.9169 12.6245 11.0775 12.5731 11.3082C12.5332 11.4849 12.5127 11.5465 12.49 11.6086C12.4679 11.6707 12.4435 11.7311 12.3988 11.9049L12.4093 11.9209L12.418 11.9357C12.582 11.9276 12.6893 11.9219 12.7995 11.9209C12.9096 11.9168 13.0237 11.9209 13.2003 11.9219L13.2157 11.909L13.2323 11.8947C13.2578 11.738 13.2616 11.6958 13.2772 11.6194C13.2927 11.5374 13.3193 11.4239 13.3846 11.1208C13.4155 10.9784 13.45 10.8365 13.482 10.6912C13.5153 10.5465 13.5501 10.404 13.5833 10.2616L13.5783 10.2444L13.5717 10.2285ZM13.5756 9.6461C13.4106 9.54588 13.1211 9.57768 12.9262 9.71612C12.732 9.85178 12.7099 10.0443 12.8742 10.1459C13.0364 10.2433 13.327 10.2143 13.5201 10.0747C13.714 9.9361 13.7382 9.74529 13.5756 9.6461ZM14.5731 11.9671C14.9068 11.9671 15.2489 11.8724 15.5064 11.5914C15.7045 11.3636 15.7954 11.0246 15.8268 10.885C15.9293 10.4222 15.8495 10.2062 15.7493 10.0746C15.5971 9.87403 15.3281 9.8097 15.0491 9.8097C14.8813 9.8097 14.4817 9.82676 14.1695 10.123C13.9453 10.3367 13.8418 10.6268 13.7793 10.9048C13.7162 11.1881 13.6436 11.6981 14.0992 11.8879C14.2398 11.95 14.4425 11.9671 14.5731 11.9671ZM14.547 10.9259C14.624 10.5755 14.7148 10.2815 14.9467 10.2815C15.1283 10.2815 15.1415 10.5003 15.0607 10.8518C15.0463 10.9299 14.98 11.22 14.8903 11.3436C14.8276 11.4348 14.7535 11.49 14.6716 11.49C14.6472 11.49 14.5023 11.4901 14.5 11.2685C14.4989 11.1591 14.5205 11.0473 14.547 10.9259ZM16.6611 11.922L16.6871 11.8947C16.7241 11.693 16.7302 11.6456 16.8121 11.2371C16.8531 11.0434 16.9378 10.6177 16.9776 10.4662C17.053 10.4301 17.126 10.3948 17.1991 10.3948C17.3668 10.3948 17.3464 10.5464 17.3397 10.6068C17.3336 10.7083 17.2721 11.0393 17.2079 11.3236L17.1681 11.5071C17.1376 11.6428 17.1045 11.7744 17.0751 11.9089L17.0879 11.9357C17.4305 11.9169 17.5307 11.9169 17.8241 11.922L17.8595 11.8947C17.9109 11.5795 17.9248 11.4952 18.0212 11.0365L18.0671 10.8256C18.1589 10.4131 18.2054 10.204 18.1374 10.0336C18.0621 9.84268 17.8856 9.79658 17.7267 9.79658C17.6214 9.79658 17.4283 9.82269 17.2567 9.90993C17.1953 9.94304 17.1338 9.98112 17.0734 10.0193L17.126 9.80971L17.0978 9.77426C16.7319 9.8507 16.6483 9.86091 16.3106 9.90993L16.2847 9.92933C16.2437 10.2644 16.2104 10.5162 16.0649 11.175C16.0095 11.4177 15.9519 11.6628 15.8944 11.9049L15.9099 11.9357C16.2569 11.9169 16.3605 11.9169 16.6611 11.922ZM19.1786 11.9356C19.2001 11.8274 19.3292 11.1858 19.3292 11.1858C19.3292 11.1858 19.4382 10.7151 19.4448 10.698C19.4448 10.698 19.4791 10.649 19.5134 10.6296H19.5639C20.0399 10.6296 20.5774 10.6296 20.9987 10.3106C21.2854 10.0918 21.4813 9.76865 21.5688 9.37595C21.5915 9.27967 21.6082 9.16516 21.6082 9.05064C21.6082 8.90024 21.5788 8.75145 21.4941 8.63519C21.2793 8.32578 20.8514 8.32009 20.3576 8.31776L20.1141 8.32009C19.482 8.32812 19.2285 8.32578 19.1243 8.31265C19.1155 8.36006 19.0989 8.44438 19.0989 8.44438L18.8725 9.52649C18.8725 9.52649 18.3306 11.8235 18.3051 11.9317C18.857 11.9248 19.0833 11.9248 19.1786 11.9356ZM19.5982 10.0165C19.5982 10.0165 19.8389 8.93832 19.8378 8.9424L19.8456 8.88711L19.849 8.84496L19.9452 8.85517C19.9452 8.85517 20.4418 8.89908 20.4534 8.90024C20.6494 8.97829 20.7301 9.17945 20.6737 9.44203C20.6223 9.682 20.4711 9.88374 20.2768 9.98119C20.1168 10.0638 19.9208 10.0706 19.7189 10.0706H19.5883L19.5982 10.0165ZM21.0972 10.9459C21.0336 11.2251 20.9605 11.7351 21.4138 11.9169C21.5583 11.9802 21.6879 11.999 21.8195 11.9921C21.9585 11.9844 22.0873 11.9126 22.2067 11.8094C22.1959 11.8518 22.1851 11.8943 22.1744 11.9369L22.1949 11.9641C22.521 11.95 22.6222 11.95 22.9754 11.9528L23.0075 11.9277C23.059 11.6155 23.1077 11.3124 23.2417 10.7151C23.307 10.4291 23.3722 10.1458 23.4392 9.86089L23.4288 9.82952C23.064 9.8991 22.9665 9.91398 22.6156 9.96519L22.589 9.98751C22.5855 10.0165 22.5818 10.0444 22.5784 10.0723C22.5238 9.98152 22.4447 9.90406 22.3227 9.85578C22.1667 9.79261 21.8002 9.87401 21.4852 10.1693C21.2639 10.3801 21.1576 10.6689 21.0972 10.9459ZM21.8633 10.963C21.9414 10.6189 22.0311 10.3277 22.2635 10.3277C22.4104 10.3277 22.4878 10.4673 22.4721 10.7054C22.4596 10.7647 22.4462 10.8273 22.4301 10.8981C22.4069 11.0003 22.3817 11.1017 22.3572 11.2032C22.3322 11.2727 22.3032 11.3382 22.2713 11.3818C22.2115 11.469 22.0692 11.5231 21.9873 11.5231C21.9641 11.5231 21.8207 11.5231 21.8157 11.3055C21.8146 11.1971 21.8362 11.0855 21.8633 10.963ZM25.8638 9.82674L25.8356 9.79362C25.4747 9.86889 25.4094 9.88086 25.0778 9.92695L25.0534 9.95204C25.0522 9.95613 25.0513 9.9624 25.0496 9.96809L25.0484 9.9624C24.8016 10.5487 24.8088 10.4222 24.6078 10.8838C24.6067 10.8628 24.6067 10.8496 24.6056 10.8273L24.5553 9.82674L24.5237 9.79362C24.1456 9.86889 24.1367 9.88086 23.7875 9.92695L23.7603 9.95204C23.7565 9.96401 23.7565 9.97713 23.7542 9.99143L23.7565 9.99654C23.8001 10.2261 23.7896 10.1749 23.8334 10.5373C23.8538 10.7151 23.881 10.894 23.9014 11.0696C23.9359 11.3635 23.9551 11.5083 23.9972 11.9568C23.7614 12.3574 23.7056 12.509 23.4786 12.8605L23.4801 12.864L23.3203 13.1243C23.302 13.1517 23.2854 13.1705 23.2622 13.1785C23.2367 13.1915 23.2035 13.1939 23.1575 13.1939H23.0689L22.9372 13.6446L23.3889 13.6526C23.654 13.6515 23.8207 13.5238 23.9104 13.3523L24.1943 12.8513H24.1898L24.2197 12.816C24.4107 12.3927 25.8638 9.82674 25.8638 9.82674ZM21.0972 15.7468H20.9056L21.6147 13.3324H21.85L21.9247 13.0836L21.9319 13.3602C21.9231 13.5312 22.0537 13.6828 22.397 13.6577H22.7939L22.9305 13.1928H22.7811C22.6953 13.1928 22.6554 13.1704 22.6604 13.1226L22.6532 12.8412H21.9181V12.8427C21.6805 12.8478 20.9708 12.8661 20.8271 12.9055C20.6532 12.9516 20.47 13.0873 20.47 13.0873L20.542 12.8383H19.8544L19.7112 13.3324L18.9926 15.7837H18.8531L18.7164 16.2452H20.0858L20.0399 16.3991H20.7147L20.7595 16.2452H20.9488L21.0972 15.7468ZM20.5353 13.823C20.4252 13.8543 20.2203 13.9494 20.2203 13.9494L20.4026 13.3324H20.9488L20.8171 13.782C20.8171 13.782 20.6483 13.7922 20.5353 13.823ZM20.5458 14.7045C20.5458 14.7045 20.3742 14.7267 20.2613 14.7529C20.15 14.7876 19.9414 14.897 19.9414 14.897L20.1296 14.2549H20.6787L20.5458 14.7045ZM20.2397 15.7525H19.6917L19.8506 15.2105H20.3969L20.2397 15.7525ZM21.5594 14.2549H22.3493L22.2358 14.6333H21.4354L21.3152 15.047H22.0156L21.4853 15.8156C21.4482 15.8721 21.4149 15.8921 21.3779 15.908C21.3408 15.9274 21.292 15.9501 21.2356 15.9501H21.0413L20.9078 16.4032H21.416C21.6801 16.4032 21.8362 16.2795 21.9514 16.1172L22.315 15.6048L22.3931 16.125C22.4097 16.2225 22.4777 16.2795 22.5237 16.3017C22.5746 16.3279 22.6272 16.373 22.7014 16.3797C22.7811 16.3832 22.8386 16.386 22.8769 16.386H23.1266L23.2765 15.8789H23.178C23.1215 15.8789 23.0241 15.8692 23.0075 15.8509C22.991 15.8288 22.991 15.7946 22.982 15.7427L22.9028 15.2213H22.5784L22.7207 15.047H23.5195L23.6424 14.6333H22.9028L23.018 14.2549H23.7553L23.8921 13.7882H21.6939L21.5594 14.2549ZM14.888 15.8578L15.0724 15.2265H15.8301L15.9685 14.7569H15.2101L15.3259 14.3683H16.067L16.2044 13.9136H14.35L14.2155 14.3683H14.6368L14.5244 14.7569H14.102L13.962 15.2345H14.3831L14.1374 16.0698C14.1042 16.1804 14.153 16.2225 14.1839 16.2739C14.2155 16.3239 14.2475 16.357 14.3195 16.3758C14.3937 16.3929 14.4446 16.4031 14.5138 16.4031H15.368L15.5202 15.8829L15.1415 15.9365C15.0684 15.9365 14.8659 15.9274 14.888 15.8578ZM14.9749 12.8354L14.7829 13.1927C14.7418 13.2707 14.7048 13.3192 14.6715 13.3415C14.6422 13.3603 14.5841 13.3682 14.4999 13.3682H14.3997L14.2658 13.8252H14.5986C14.7585 13.8252 14.8814 13.7648 14.9401 13.7346C15.0031 13.6999 15.0197 13.7197 15.0685 13.6713L15.1808 13.5711H16.2198L16.3577 13.0952H15.5972L15.73 12.8354H14.9749ZM16.5088 15.867C16.4911 15.8407 16.5039 15.7945 16.5309 15.6982L16.8149 14.7306H17.8252C17.9724 14.7284 18.0787 14.7267 18.1478 14.7216C18.2221 14.7136 18.3029 14.6863 18.3909 14.6373C18.4817 14.5859 18.5282 14.5318 18.5674 14.4697C18.6112 14.4077 18.6815 14.272 18.7419 14.0628L19.0989 12.8383L18.0505 12.8446C18.0505 12.8446 17.7277 12.8936 17.5855 12.9477C17.4421 13.0081 17.2372 13.1767 17.2372 13.1767L17.3319 12.8411H16.6843L15.7776 15.9364C15.7455 16.0566 15.7239 16.1439 15.719 16.1962C15.7173 16.2527 15.7881 16.3086 15.834 16.3507C15.8883 16.3929 15.9685 16.386 16.0455 16.3929C16.1264 16.3992 16.2414 16.4031 16.4003 16.4031H16.898L17.0507 15.8721L16.6052 15.9154C16.5576 15.9154 16.5232 15.8892 16.5088 15.867ZM16.9982 14.0771H18.0593L17.9918 14.2947C17.9823 14.2999 17.9597 14.284 17.8517 14.2971H16.9328L16.9982 14.0771ZM17.2107 13.3471H18.2808L18.2038 13.6093C18.2038 13.6093 17.6995 13.6042 17.6187 13.6195C17.2633 13.6828 17.0557 13.8783 17.0557 13.8783L17.2107 13.3471ZM18.0156 15.0236C18.0068 15.0561 17.9929 15.076 17.9735 15.0908C17.9519 15.1051 17.9171 15.1102 17.8651 15.1102H17.7139L17.7228 14.8452H17.0939L17.0684 16.141C17.0674 16.2345 17.0762 16.2886 17.1426 16.332C17.2091 16.3861 17.4139 16.3929 17.6895 16.3929H18.0836L18.2259 15.9079L17.8828 15.9273L17.7687 15.9342C17.7531 15.9273 17.7383 15.921 17.7217 15.904C17.7072 15.8892 17.6828 15.8983 17.6868 15.8048L17.6895 15.4726L18.0493 15.4573C18.2436 15.4573 18.3266 15.3922 18.3975 15.3302C18.4651 15.2709 18.4872 15.2026 18.5127 15.1102L18.5731 14.8162H18.0786L18.0156 15.0236Z" fill="#FEFEFE"/>
</svg>
