<svg width="32" height="24" viewBox="0 0 32 24" fill="none" xmlns="http://www.w3.org/2000/svg">
<rect x="0.5" y="0.5" width="31" height="23" rx="3.5" fill="white"/>
<rect x="0.5" y="0.5" width="31" height="23" rx="3.5" stroke="#DBD9D7"/>
<path fill-rule="evenodd" clip-rule="evenodd" d="M18.7846 9.56113L19.7393 4.66776C19.8541 4.1188 19.5383 3.56561 19.0091 3.40514C18.4184 3.25312 17.8236 3.60783 17.6718 4.20747L16.8068 7.25603L16.125 4.25396C16.0716 3.97525 15.9075 3.72611 15.6737 3.56564C15.4399 3.40517 15.1486 3.35028 14.8738 3.4094C14.3323 3.52764 13.9795 4.17795 14.1149 4.76914L14.5172 8.16966C14.1677 7.81104 13.7595 7.70057 13.2865 7.98265L13.225 8.02488C12.7939 8.32708 12.7062 8.94462 12.9832 9.50709C12.7539 9.52036 12.5298 9.61877 12.3594 9.7985L12.3184 9.84495C11.9204 10.2672 11.9984 10.9809 12.4948 11.4918L12.898 11.9055C12.9433 13.8178 14.4544 15.1572 16.2361 15.1572C16.2572 15.1572 16.2775 15.1543 16.2968 15.1487C18.7101 15.1239 19.7708 13.6442 19.9526 11.3989C20.01 10.6895 19.8828 10.2039 19.6162 9.9125C19.4685 9.75203 19.3126 9.67602 19.1937 9.65913L18.7846 9.56113ZM18.3526 9.45763L19.3044 4.57486C19.3701 4.25393 19.1855 3.93721 18.8901 3.84431C18.5455 3.75563 18.1927 3.971 18.0984 4.32994L16.9949 8.22337C16.9621 8.34583 16.839 8.4134 16.7201 8.37962C16.6256 8.35279 16.5648 8.2674 16.5602 8.17205L15.6901 4.34686C15.6573 4.18217 15.563 4.0386 15.4276 3.9457C15.2922 3.85279 15.124 3.82323 14.964 3.85702C14.6769 3.92036 14.4636 4.3173 14.5497 4.67202L14.5538 4.69736L15.051 8.91671L15.3638 9.39723C15.5004 9.20206 15.6973 9.08046 15.9324 9.02571C16.1293 8.98348 16.3304 8.9877 16.5232 9.02149C16.5712 9.02856 16.6078 9.03859 16.6281 9.04414C16.632 9.04522 16.6353 9.04614 16.638 9.04682L18.3526 9.45763ZM15.1672 9.91571L14.6777 9.16367C14.6609 9.1454 14.647 9.12428 14.6369 9.10107L14.4064 8.74698C14.1234 8.32047 13.8485 8.17267 13.5204 8.36692L13.4752 8.40071C13.2209 8.58229 13.1881 9.01301 13.4506 9.42685L14.4187 10.9091C14.591 11.1709 14.9356 11.2384 15.1899 11.0611L15.2392 11.0315C15.3072 10.9857 15.3635 10.9228 15.4039 10.8503C15.1608 10.594 15.1006 10.2771 15.1672 9.91571ZM15.8518 10.6541C15.8264 10.6143 15.7886 10.5825 15.742 10.5648C15.5571 10.3816 15.5498 10.1529 15.6371 9.85338C15.7027 9.63379 15.8299 9.51978 16.0309 9.47333C16.1622 9.44377 16.3057 9.44799 16.4452 9.47333C16.4609 9.47655 16.4748 9.47916 16.4866 9.48139C16.5058 9.485 16.5197 9.48761 16.5273 9.49022L19.1116 10.111L19.1608 10.1279C19.2019 10.1448 19.247 10.1785 19.2921 10.225C19.4644 10.415 19.5629 10.774 19.5136 11.3651C19.3454 13.4343 18.4102 14.7181 16.1868 14.6969C16.1743 14.6969 16.1621 14.698 16.1502 14.7C14.8026 14.663 13.6627 13.7572 13.3979 12.4185L13.7295 12.7587C14.1274 13.1514 14.755 13.143 15.1406 12.7376L15.1858 12.6911C15.4918 12.3624 15.5443 11.8781 15.3454 11.4951C15.3748 11.4788 15.4037 11.4608 15.432 11.4411L15.4812 11.4074C15.5927 11.3292 15.6863 11.2285 15.7582 11.1125C15.9079 11.1929 16.088 11.2633 16.3016 11.3229L16.9211 11.4707C16.4616 11.7368 16.1745 12.2308 16.1417 12.9867C16.1335 13.1134 16.2278 13.219 16.3509 13.2274C16.4739 13.2316 16.5765 13.1387 16.5847 13.012C16.6175 12.3279 16.8759 11.9606 17.2903 11.8001C17.5118 11.7156 17.7538 11.6988 17.9671 11.7199L18.0204 11.7283C18.3035 11.7832 18.3937 11.3483 18.1107 11.2807L16.4083 10.888C16.1626 10.8189 15.9811 10.7421 15.8518 10.6541ZM12.6793 10.1194C12.8496 9.936 13.1269 9.91389 13.3268 10.0569L14.0495 11.1666C14.2478 11.4647 14.5688 11.6228 14.8934 11.6169C15.0705 11.8381 15.0611 12.1652 14.8617 12.3744L14.8207 12.4209C14.6074 12.6447 14.2587 12.6489 14.0413 12.4293L12.8106 11.1751C12.4701 10.8246 12.425 10.3939 12.6383 10.1659L12.6793 10.1194ZM11.0385 19.4434C11.0385 20.1486 10.5052 20.63 9.80784 20.63C9.31968 20.63 8.90126 20.402 8.64282 20.0388L9.12278 19.5447C9.26635 19.7347 9.50428 19.9417 9.81604 19.9417C10.1073 19.9417 10.3083 19.7643 10.3083 19.4772C10.3083 19.1731 10.0704 19.0971 9.69708 18.9873C9.01202 18.7804 8.73307 18.413 8.73307 17.9358C8.73307 17.3362 9.1761 16.821 9.87347 16.821C10.3124 16.821 10.7185 17.0321 10.899 17.4418L10.3206 17.8176C10.2098 17.6318 10.0581 17.5093 9.85296 17.5093C9.61093 17.5093 9.45915 17.6782 9.45915 17.8936C9.45915 18.1512 9.68067 18.2314 10.0335 18.337C10.5872 18.5059 11.0385 18.7888 11.0385 19.4434ZM11.2886 19.2829C11.2886 20.0219 11.8875 20.63 12.6259 20.63C13.3643 20.63 13.9632 20.0219 13.9632 19.2829C13.9632 18.5439 13.3643 17.9358 12.6259 17.9358C11.8875 17.9358 11.2886 18.5439 11.2886 19.2829ZM12.6257 19.9544C12.9826 19.9544 13.2657 19.663 13.2657 19.2829C13.2657 18.9029 12.9826 18.6115 12.6257 18.6115C12.2647 18.6115 11.9858 18.9029 11.9858 19.2829C11.9858 19.6672 12.2688 19.9544 12.6257 19.9544ZM15.6902 16.8674V17.5431C15.3005 17.5262 15.0174 17.7289 15.0174 18.1765V18.451C15.1733 18.2821 15.3948 18.1976 15.6697 18.1976V18.8817C15.2841 18.8902 15.0174 19.1435 15.0174 19.4983V20.5624H14.3201V18.1343C14.3201 17.4502 14.7385 16.8674 15.5876 16.8674H15.6902ZM17.2121 20.63C16.4737 20.63 15.8748 20.0219 15.8748 19.2829C15.8748 18.5439 16.4737 17.9358 17.2121 17.9358C17.9505 17.9358 18.5494 18.5439 18.5494 19.2829C18.5494 20.0219 17.9505 20.63 17.2121 20.63ZM17.852 19.2829C17.852 19.663 17.573 19.9544 17.2121 19.9544C16.8552 19.9544 16.5721 19.6672 16.5721 19.2829C16.5721 18.9029 16.8552 18.6115 17.2121 18.6115C17.5689 18.6115 17.852 18.9029 17.852 19.2829ZM19.6036 18.299V18.0076H18.9268V20.5624H19.6241V19.3969C19.6241 18.9746 19.8662 18.7382 20.2846 18.7382V17.9696C19.9687 17.9569 19.7431 18.0667 19.6036 18.299ZM21.384 18.6326V19.2576C21.384 19.7052 21.6671 19.9037 22.0568 19.891V20.5667H21.9542C21.101 20.5667 20.6867 19.9839 20.6867 19.2999V17.1884H21.384V17.5896C21.384 17.9359 21.6589 18.1977 22.0363 18.2061V18.886C21.7573 18.886 21.5399 18.8016 21.384 18.6326ZM22.8895 20.6047C23.1439 20.6047 23.3572 20.3893 23.3572 20.1233C23.3572 19.8615 23.148 19.6419 22.8895 19.6419C22.6311 19.6419 22.4219 19.8572 22.4219 20.1233C22.4219 20.3893 22.6311 20.6047 22.8895 20.6047Z" fill="black"/>
</svg>
