<svg width="32" height="24" viewBox="0 0 32 24" fill="none" xmlns="http://www.w3.org/2000/svg">
<rect x="0.5" y="0.5" width="31" height="23" rx="3.5" fill="white"/>
<rect x="0.5" y="0.5" width="31" height="23" rx="3.5" stroke="#DBD9D7"/>
<path fill-rule="evenodd" clip-rule="evenodd" d="M7.91299 13.3564C7.69347 12.782 7.48329 12.2695 7.40856 12.1237C7.27311 11.8454 7.03491 11.567 6.68928 11.5096C6.69395 11.5096 6.72198 11.5052 6.74066 11.5052C7.37587 11.4212 7.65143 10.9794 7.65143 10.5332C7.65143 10.1488 7.42724 9.54794 6.39036 9.54794H5.31145C5.23672 9.54794 5.16666 9.60538 5.16666 9.67607V13.3873C5.16666 13.458 5.23672 13.5154 5.31145 13.5154H5.61037C5.6851 13.5154 5.74581 13.458 5.74581 13.3873V11.7305H6.04006C6.46509 11.7305 6.65659 11.9779 6.80138 12.2342C6.97419 12.539 7.09563 12.9676 7.2591 13.4271C7.28245 13.5022 7.3385 13.5199 7.40856 13.5199H7.81958C7.93167 13.5154 7.95035 13.4492 7.91299 13.3564V13.3564ZM6.31096 11.2578H5.75049V10.0295H6.38102C6.8294 10.0295 7.06293 10.2814 7.06293 10.6039C7.05826 11.0104 6.77335 11.2578 6.31096 11.2578ZM9.01526 10.6216C8.32867 10.6216 7.86628 11.1827 7.86628 12.0751C7.86628 13.0427 8.34736 13.5464 9.20208 13.5464C9.56639 13.5464 9.77657 13.4934 9.97741 13.4094C10.0475 13.3785 10.0848 13.3211 10.0568 13.2504L9.98675 13.0604C9.96339 12.9941 9.91202 12.9499 9.81861 12.9764C9.63645 13.025 9.46831 13.0781 9.23011 13.0781C8.66963 13.0781 8.4828 12.7732 8.45478 12.2209H10.0101C10.0848 12.2209 10.1455 12.1635 10.1455 12.0928C10.1502 11.0059 9.65046 10.6216 9.01526 10.6216V10.6216ZM8.45945 11.8145C8.52017 11.2003 8.80508 11.0545 9.03394 11.0545C9.4216 11.0545 9.55705 11.4389 9.57106 11.8145H8.45945ZM11.9297 13.0118H11.4113C11.1871 13.0118 11.089 12.9764 11.089 12.8527C11.089 12.7865 11.1404 12.7246 11.2011 12.6716C11.2992 12.6937 11.4019 12.7069 11.5047 12.7069C12.196 12.7069 12.6397 12.3093 12.6397 11.6598C12.6397 11.461 12.5463 11.2622 12.4155 11.0943L12.621 11.0722C12.6957 11.0678 12.7471 11.0236 12.7471 10.9485V10.7939C12.7471 10.7188 12.6957 10.6569 12.6116 10.6569H11.8924C11.7616 10.6569 11.6355 10.626 11.5047 10.626C10.8368 10.626 10.3838 10.9971 10.3838 11.6598C10.3838 12.0486 10.5566 12.3446 10.8321 12.5169C10.6827 12.6451 10.5566 12.7997 10.5566 13.0074C10.5566 13.3476 10.8742 13.4668 11.2431 13.4668H11.8503C12.1866 13.4668 12.3174 13.595 12.3174 13.838C12.3174 14.0986 12.0185 14.2577 11.6355 14.2577C11.3412 14.2577 11.019 14.2047 10.9676 13.891C10.9536 13.8159 10.9069 13.7717 10.8321 13.7673L10.5192 13.754C10.4445 13.754 10.3838 13.807 10.3838 13.8777V13.8822C10.3884 14.5184 11.019 14.7084 11.6215 14.7084C12.196 14.7084 12.8639 14.4609 12.8639 13.7761C12.8592 13.2901 12.4949 13.0118 11.9297 13.0118V13.0118ZM11.5094 11.028C11.813 11.028 12.0652 11.1296 12.0652 11.6466C12.0652 12.1767 11.799 12.2916 11.5094 12.2916C11.2105 12.2916 10.9582 12.1988 10.9582 11.6466C10.9582 11.1252 11.2105 11.028 11.5094 11.028ZM13.77 9.65839C13.77 9.45958 13.6018 9.29169 13.387 9.29169C13.1768 9.29169 12.9993 9.45074 12.9993 9.65398V9.65839C12.9993 9.86605 13.1674 10.0295 13.387 10.0295C13.6018 10.0295 13.77 9.86605 13.77 9.65839V9.65839ZM13.6719 13.3829V10.785C13.6719 10.7143 13.6018 10.6569 13.5364 10.6569H13.2562C13.1815 10.6569 13.1114 10.7143 13.1114 10.785V13.3829C13.1114 13.4536 13.1815 13.511 13.2562 13.511H13.5364C13.6018 13.5154 13.6719 13.4536 13.6719 13.3829ZM15.1711 10.6216C14.4238 10.6216 13.9521 11.1782 13.9521 12.084C13.9521 12.9985 14.4192 13.542 15.1711 13.542C15.9278 13.542 16.3808 12.9853 16.3808 12.084C16.3808 11.1827 15.9185 10.6216 15.1711 10.6216V10.6216ZM15.7877 12.084C15.7877 12.7997 15.5495 13.0913 15.1571 13.0913C14.7695 13.0913 14.5313 12.7953 14.5313 12.084C14.5313 11.3815 14.7695 11.0766 15.1571 11.0766C15.5495 11.0766 15.7877 11.3815 15.7877 12.084ZM18.506 11.4036C19.0104 11.2622 19.2253 10.9662 19.2253 10.5244C19.2253 9.94116 18.8049 9.5391 18.081 9.5391H16.8713C16.7965 9.5391 16.7265 9.59654 16.7265 9.66723V13.3785C16.7265 13.4492 16.7965 13.5066 16.8713 13.5066H18.1463C18.931 13.5066 19.4074 13.1001 19.4074 12.3888C19.4027 11.8807 19.1038 11.4698 18.506 11.4036V11.4036ZM17.3056 10.0118H17.9689C18.4126 10.0118 18.6321 10.2239 18.6321 10.6039C18.6321 10.9706 18.3939 11.2003 17.9268 11.2003H17.3103V10.0118H17.3056ZM18.7769 12.3358C18.7769 12.7688 18.52 13.025 18.0903 13.025H17.3056V11.6377H17.9735C18.478 11.6377 18.7769 11.9337 18.7769 12.3358V12.3358ZM21.8548 13.3829L21.8175 13.2106C21.7801 13.0339 21.7848 12.8748 21.7848 12.729V11.704C21.7848 11.2268 21.7054 10.626 20.7105 10.626C20.4443 10.626 20.136 10.6922 19.9539 10.7364C19.8791 10.7541 19.8465 10.8115 19.8651 10.8911L19.9165 11.1076C19.9352 11.1827 19.9959 11.2268 20.08 11.2003C20.2481 11.1606 20.435 11.0987 20.6778 11.0987C21.1215 11.0987 21.2196 11.2578 21.2196 11.6024V11.7438L20.533 11.7835C20.0286 11.8189 19.5989 12.0663 19.5989 12.6981C19.5989 13.2283 19.9025 13.542 20.4023 13.542C20.7479 13.542 21.0702 13.4227 21.2617 13.1355L21.3037 13.3962C21.3177 13.4801 21.3737 13.5154 21.4485 13.5154H21.7334C21.8221 13.511 21.8642 13.458 21.8548 13.3829V13.3829ZM21.2243 12.5655C21.2243 12.782 20.9674 13.109 20.5704 13.109C20.3415 13.109 20.1781 12.9809 20.1781 12.6937C20.1781 12.2519 20.4536 12.1458 20.832 12.1326L21.2243 12.1193V12.5655ZM24.3116 13.3829V11.3594C24.3116 10.9176 24.0127 10.6216 23.5456 10.6216C23.214 10.6216 22.9524 10.7408 22.6909 11.028L22.6301 10.7629C22.6115 10.6878 22.5694 10.6569 22.4807 10.6569H22.2939C22.2191 10.6569 22.1491 10.7099 22.1491 10.7806V13.3829C22.1491 13.4536 22.2191 13.511 22.2939 13.511H22.5788C22.6535 13.511 22.7142 13.4536 22.7142 13.3829V11.7791C22.7142 11.3859 23.0085 11.081 23.3868 11.081C23.6437 11.081 23.7418 11.2048 23.7418 11.4787V13.3829C23.7418 13.4536 23.8118 13.511 23.8865 13.511H24.1715C24.2462 13.511 24.3116 13.4536 24.3116 13.3829V13.3829ZM26.815 13.3564L25.7922 11.8807L26.6282 10.8027C26.6796 10.7364 26.6469 10.6569 26.5581 10.6569H26.1611C26.0724 10.6569 26.0164 10.6967 25.979 10.7585L25.2223 11.8498V9.45516C25.2223 9.38447 25.1663 9.32703 25.0916 9.32703H24.8067C24.7319 9.32703 24.6712 9.38005 24.6712 9.45074V13.3873C24.6712 13.458 24.7319 13.5154 24.8067 13.5154H25.0869C25.1616 13.5154 25.2223 13.458 25.2223 13.3873V11.9779L26.1285 13.405C26.1705 13.4757 26.2265 13.5154 26.2966 13.5154H26.7403C26.8244 13.511 26.8571 13.4227 26.815 13.3564V13.3564Z" fill="#CA031A"/>
</svg>
