<svg width="32" height="24" viewBox="0 0 32 24" fill="none" xmlns="http://www.w3.org/2000/svg">
<rect x="0.5" y="0.5" width="31" height="23" rx="3.5" fill="white"/>
<rect x="0.5" y="0.5" width="31" height="23" rx="3.5" stroke="#DBD9D7"/>
<path d="M27.1259 9.78463C27.4992 9.78463 27.8018 9.48197 27.8018 9.10862C27.8018 8.73528 27.4992 8.43262 27.1259 8.43262C26.7526 8.43262 26.45 8.73528 26.45 9.10862C26.45 9.48197 26.7526 9.78463 27.1259 9.78463Z" fill="#7887E6"/>
<path d="M27.1259 11.901C27.4992 11.901 27.8018 11.5983 27.8018 11.225C27.8018 10.8516 27.4992 10.549 27.1259 10.549C26.7526 10.549 26.45 10.8516 26.45 11.225C26.45 11.5983 26.7526 11.901 27.1259 11.901Z" fill="#FF5073"/>
<path fill-rule="evenodd" clip-rule="evenodd" d="M5.91899 10.186H5.26317V11.8234H4.19815V7.3413H5.91899C6.94524 7.3413 7.43244 7.93883 7.43244 8.73116C7.43244 9.64683 6.78269 10.186 5.91899 10.186ZM5.75924 8.12056H5.26317V9.40623H5.80222C6.17497 9.40623 6.42021 9.15956 6.39825 8.71574C6.38144 8.37984 6.09556 8.12056 5.75924 8.12056ZM10.3706 11.8229H9.33126H9.33079V11.6758C9.12339 11.8061 8.852 11.9005 8.60209 11.9005C7.96869 11.9005 7.48709 11.423 7.48709 10.8545C7.48709 10.2724 7.89909 9.64216 9.33126 9.744V9.52303C9.33126 9.26982 9.11685 9.18526 8.87675 9.18526C8.53903 9.18526 8.14292 9.33476 7.95467 9.41931L7.6688 8.82833C7.98037 8.63352 8.48718 8.43217 9.12993 8.43217C9.89646 8.43217 10.3706 8.76994 10.3706 9.51695V11.8229ZM8.52549 10.8358C8.52549 11.0759 8.70112 11.2254 8.96084 11.2254C9.12339 11.2254 9.27287 11.167 9.36956 11.0956V10.4004C8.74036 10.2962 8.52549 10.563 8.52549 10.8358ZM20.7087 8.51019V8.37377C20.7087 7.58797 21.1502 7.07501 21.9882 7.07501C22.1769 7.07501 22.339 7.10117 22.4819 7.13995V7.87996C22.3978 7.85427 22.2745 7.83464 22.1769 7.83464C21.8583 7.83464 21.7415 8.04254 21.7415 8.33499V8.51019H22.4557V9.21843H21.7415V11.8229H20.7087V9.21843H20.1566V8.51019H20.7087ZM17.1573 8.8288C17.4688 8.63399 17.9756 8.43263 18.6184 8.43263C19.3849 8.43263 19.859 8.7704 19.8586 9.51695V11.8229H18.8193V11.6763C18.6119 11.8066 18.3405 11.901 18.0906 11.901C17.4572 11.901 16.9756 11.4235 16.9756 10.855C16.9756 10.2729 17.3876 9.64263 18.8197 9.74447V9.5235C18.8197 9.27028 18.6053 9.18573 18.3652 9.18573C18.0275 9.18573 17.6314 9.33522 17.4431 9.41978L17.1573 8.8288ZM18.4105 11.2254C18.5731 11.2254 18.7221 11.167 18.8197 11.0956H18.8193V10.4004C18.1901 10.2962 17.9752 10.563 17.9752 10.8358C17.9752 11.0759 18.1508 11.2254 18.4105 11.2254ZM14.0654 8.51065L12.3871 12.7526H11.3982L11.8354 11.6674L10.4346 8.51065H11.4982L12.3184 10.4901L13.0331 8.51065H14.0654ZM25.7746 10.1159V10.3747V10.3756H23.6212C23.6375 10.5457 23.681 10.6844 23.7464 10.7947C23.7468 10.7952 23.7468 10.7956 23.7473 10.7961C23.758 10.8134 23.7693 10.8302 23.7809 10.8461C23.7879 10.8559 23.7949 10.8648 23.8024 10.8741C23.8039 10.8758 23.8053 10.8776 23.8068 10.8794C23.81 10.8834 23.8133 10.8875 23.8169 10.8914C23.8295 10.9063 23.8431 10.9208 23.8571 10.9344L23.8585 10.9358C23.893 10.9689 23.9318 10.9988 23.9748 11.025C23.9757 11.0255 23.9762 11.0255 23.9767 11.0259C23.9958 11.0376 24.0164 11.0484 24.0374 11.0586C24.0416 11.0605 24.0453 11.0624 24.0491 11.0643C24.0617 11.0703 24.0752 11.0759 24.0888 11.0811C24.1009 11.0857 24.113 11.0899 24.1251 11.0941L24.1252 11.0942L24.1528 11.1026C24.17 11.1072 24.1873 11.1119 24.2051 11.1161C24.2111 11.1175 24.2172 11.1184 24.2233 11.1198C24.2406 11.1236 24.2579 11.1264 24.2756 11.1292C24.2807 11.1301 24.2854 11.1311 24.2906 11.1315C24.3125 11.1343 24.3349 11.1367 24.3573 11.1381C24.3601 11.1383 24.3628 11.1384 24.3655 11.1385C24.3682 11.1386 24.3709 11.1388 24.3737 11.139C24.3975 11.1404 24.4213 11.1413 24.4461 11.1413C24.7282 11.1413 25.0431 11.0619 25.3537 10.8858L25.6433 11.5296C25.1851 11.8472 24.5904 11.9014 24.2901 11.9014C23.212 11.9014 22.5365 11.232 22.5365 10.1864C22.5365 9.16657 23.2512 8.43263 24.1733 8.43263C25.0954 8.43263 25.7746 9.14461 25.7746 10.1159ZM24.7254 9.82903C24.6862 9.38755 24.4592 9.16003 24.1733 9.16003C23.8874 9.16003 23.6604 9.38708 23.6212 9.82903H24.7254ZM15.1734 11.1474C15.4789 11.1474 15.6606 11.0563 15.6606 10.8746C15.6606 10.6804 15.4126 10.5957 15.1145 10.4939C14.6652 10.3405 14.1021 10.1482 14.1023 9.48379C14.1023 8.78255 14.7255 8.4317 15.4985 8.4317C15.9208 8.4317 16.3366 8.56157 16.6093 8.69799L16.3169 9.38007C16.1091 9.28944 15.8232 9.1918 15.5504 9.1918C15.2907 9.1918 15.1347 9.28897 15.1347 9.44501C15.1347 9.61664 15.3663 9.69408 15.6495 9.78875C16.0947 9.9376 16.6673 10.129 16.6673 10.7961C16.6673 11.5109 16.018 11.9005 15.2645 11.9005C14.8423 11.9005 14.3878 11.8033 13.9982 11.5954L14.3294 10.9264C14.5629 11.0437 14.8619 11.1474 15.1734 11.1474ZM18.8954 14.042V13.6057H18.7081V13.4833H19.2261L19.2453 13.6057H19.0682V14.042H18.8954ZM19.8413 14.042L19.8203 13.6375L19.8058 13.6918C19.7747 13.8086 19.7437 13.9252 19.711 14.042H19.5592L19.4499 13.6375L19.4288 14.042H19.2742C19.291 13.8566 19.306 13.6692 19.3205 13.4838H19.5377L19.6367 13.8799L19.6378 13.8755L19.6378 13.8755C19.6692 13.7443 19.7001 13.6149 19.7334 13.4838H19.9506L19.995 14.042H19.8413ZM4.20282 13.6478V16.1406H4.79512V15.2301H5.15994C5.6406 15.2301 6.00168 14.9302 6.00168 14.421C6.00168 13.9799 5.73075 13.6478 5.15994 13.6478H4.20282ZM5.4276 14.4424C5.4276 14.67 5.294 14.7966 5.09548 14.7966H4.79559V14.0813H5.09548C5.30848 14.0813 5.4276 14.2294 5.4276 14.4424ZM7.13256 15.9566L7.16526 16.1406V16.1411H7.69263V14.8587C7.69263 14.4429 7.42918 14.2551 7.0027 14.2551C6.64489 14.2551 6.36322 14.3672 6.18993 14.4756L6.34874 14.8045C6.45338 14.7573 6.67385 14.6742 6.86163 14.6742C6.99523 14.6742 7.11434 14.7209 7.11434 14.862V14.9848C6.34501 14.9703 6.08856 15.2338 6.08856 15.6314C6.08856 16 6.3777 16.1841 6.66311 16.1841C6.89433 16.1841 7.0312 16.0687 7.13256 15.9566ZM7.06773 15.3445C7.08266 15.3462 7.09803 15.3479 7.11481 15.3492V15.7356C7.06062 15.7753 6.97748 15.808 6.88733 15.808C6.74299 15.808 6.64536 15.7248 6.64536 15.5912C6.64536 15.4399 6.75373 15.3385 6.98495 15.3385C7.01505 15.3385 7.04068 15.3414 7.06773 15.3445ZM8.25269 16.9245L8.55632 16.1406H8.38302C8.31595 15.9296 8.24931 15.7186 8.18269 15.5076L8.18268 15.5076C8.05536 15.1045 7.92805 14.7014 7.79773 14.2981H8.38302L8.72962 15.6636L9.11966 14.2981H9.6942C9.52771 14.7794 9.36346 15.2609 9.19962 15.7413L9.19953 15.7415L9.1995 15.7416L9.19949 15.7416L9.19948 15.7417L9.19948 15.7417L9.19942 15.7418C9.06453 16.1373 8.92992 16.5319 8.79454 16.925H8.25269V16.9245ZM10.7382 13.6478V16.1406H12.2806V15.7108H11.3305V13.6478H10.7382ZM13.5199 16.1406L13.4872 15.9566C13.3858 16.0687 13.2489 16.1841 13.0177 16.1841C12.7323 16.1841 12.4432 16 12.4432 15.6314C12.4432 15.2338 12.6996 14.9703 13.4689 14.9848V14.862C13.4689 14.7209 13.3498 14.6742 13.2162 14.6742C13.0285 14.6742 12.808 14.7573 12.7033 14.8045L12.5445 14.4756C12.7178 14.3672 12.9995 14.2551 13.3573 14.2551C13.7838 14.2551 14.0472 14.4429 14.0472 14.8587V16.1411H13.5199V16.1406ZM13.4694 15.3492C13.4526 15.3479 13.4373 15.3462 13.4223 15.3445C13.3953 15.3414 13.3697 15.3385 13.3396 15.3385C13.1083 15.3385 13 15.4399 13 15.5912C13 15.7248 13.0976 15.808 13.2419 15.808C13.3321 15.808 13.4152 15.7753 13.4694 15.7356V15.3492ZM14.5242 15.6384C14.5242 16.1191 14.8675 16.1406 15.0408 16.1406V16.1415H15.4528V15.7547H15.294C15.1674 15.7547 15.0987 15.6968 15.0987 15.509V14.6924H15.4528V14.2985H15.0987V13.7491L14.5242 13.9477V14.2981H14.2425V14.6919H14.5242V15.6384ZM17.2876 16.0032C17.1722 16.0901 16.8719 16.184 16.5757 16.184C15.9759 16.184 15.6004 15.8117 15.6004 15.2301C15.6004 14.6629 15.9979 14.2546 16.5108 14.2546C16.9046 14.2546 17.2946 14.4676 17.2946 15.1179V15.3347H16.2039C16.2328 15.6384 16.4169 15.7613 16.6626 15.7613C16.8471 15.7613 17.0564 15.6856 17.125 15.6421L17.2876 16.0032ZM16.764 15.0315C16.764 14.782 16.6556 14.6592 16.5038 14.6592C16.345 14.6592 16.2258 14.7858 16.2039 15.0315H16.764ZM17.5296 14.298V16.1406H18.1074V14.9484C18.2087 14.847 18.3713 14.7858 18.5231 14.7858H18.5231C18.5591 14.7858 18.6347 14.7858 18.6674 14.7928V14.2546C18.4185 14.2546 18.198 14.4064 18.0789 14.6339V14.298H17.5296Z" fill="#2D2341"/>
</svg>
