<svg width="32" height="24" viewBox="0 0 32 24" fill="none" xmlns="http://www.w3.org/2000/svg">
<rect x="0.5" y="0.5" width="31" height="23" rx="3.5" fill="white"/>
<rect x="0.5" y="0.5" width="31" height="23" rx="3.5" stroke="#DBD9D7"/>
<path d="M19.2785 9.84039C19.2785 9.84039 19.2545 9.79828 19.2545 9.78023C19.1883 9.01625 19.08 8.51094 19.08 8.51094C19.062 8.42672 18.9898 8.36055 18.8995 8.34852L18.292 8.27633C18.292 8.27633 18.2799 8.27633 18.2739 8.27633C18.2017 8.27633 18.1476 8.33648 18.1476 8.40266V8.6132C18.1476 8.6132 18.1476 8.61922 18.1416 8.61922C17.7746 8.28836 17.3655 7.97555 16.9144 7.69281C16.8302 7.63266 16.7279 7.60258 16.6136 7.60258C16.4993 7.60258 16.397 7.63867 16.3128 7.69281C14.2134 8.98617 13.0584 11.0977 13.0102 11.212C12.9982 11.236 12.9922 11.2661 12.9922 11.3022C12.9922 11.3984 13.0584 11.4827 13.1486 11.5067L13.7562 11.621C13.8344 11.6451 13.9005 11.7112 13.9066 11.7955C13.9066 11.9037 14.0269 14.2859 14.1713 14.9055C14.1953 14.9958 14.2735 15.062 14.3698 15.062C14.7247 15.0559 15.0435 15.0499 15.3924 15.0439C15.3924 15.0439 15.4105 15.0439 15.4165 15.0439C15.4526 15.0439 15.4827 15.0138 15.4827 14.9777C15.4706 14.7672 15.4405 14.292 15.4105 13.7927C15.4105 13.7806 15.4105 13.7626 15.4105 13.7505C15.4105 13.7084 15.3864 13.6663 15.3503 13.6483C15.1698 13.54 15.0435 13.3475 15.0315 13.1189C15.0014 12.2827 14.9834 11.3142 15.0315 10.5623C15.0315 10.5021 15.0856 10.448 15.1518 10.448C15.218 10.448 15.2721 10.5021 15.2781 10.5683C15.2781 10.5683 15.2781 10.5743 15.2781 10.5803C15.248 11.0856 15.248 11.6812 15.2541 12.2707C15.2541 12.3489 15.3202 12.4151 15.3984 12.4151C15.4766 12.4151 15.5428 12.3489 15.5428 12.2707C15.5308 11.6812 15.5368 11.0796 15.5669 10.5743C15.5669 10.5141 15.621 10.46 15.6872 10.46C15.7534 10.46 15.8075 10.5141 15.8135 10.5803C15.8135 10.5803 15.8135 10.5863 15.8135 10.5923C15.7834 11.0916 15.7834 11.6872 15.7895 12.2707C15.7895 12.3489 15.8556 12.4151 15.9338 12.4091C16.012 12.4091 16.0782 12.3429 16.0722 12.2647C16.0602 11.6752 16.0662 11.0796 16.0962 10.5743C16.0962 10.5141 16.1504 10.46 16.2166 10.46C16.2827 10.46 16.3369 10.5141 16.3429 10.5803C16.3429 10.5803 16.3429 10.5863 16.3429 10.5923C16.3008 11.3262 16.3128 12.2587 16.3429 13.0768V13.0828C16.3429 13.0828 16.3429 13.0888 16.3429 13.0948C16.3429 13.0948 16.3429 13.0948 16.3429 13.1009C16.3429 13.3234 16.2286 13.522 16.0602 13.6362C16.0301 13.6603 16.012 13.6904 16.006 13.7325C16.006 13.7325 15.988 13.8588 16.0481 14.4664C16.0722 14.7311 16.0963 14.9176 16.1023 14.9958C16.1023 15.0259 16.1323 15.0499 16.1624 15.0499C16.1805 15.0499 16.1985 15.0499 16.2226 15.0499C16.3369 15.0499 16.4572 15.0499 16.5835 15.0499H16.6316C16.788 15.0499 16.9384 15.0499 17.0828 15.0499H17.4257C17.4558 15.0499 17.4859 15.0259 17.4919 14.9958C17.5701 14.2679 17.5881 13.8588 17.5881 13.8588C17.5881 13.8227 17.558 13.7927 17.522 13.7866L17.1069 13.7265C17.0407 13.7145 17.0046 13.6723 16.9866 13.6242C16.9805 13.5941 16.9866 13.558 16.9866 13.558C17.155 11.1337 17.9551 10.3156 17.9551 10.3156C17.9791 10.2916 17.9912 10.2795 17.9912 10.2795C18.0152 10.2615 18.0393 10.2555 18.0694 10.2555C18.1235 10.2555 18.1716 10.2916 18.1897 10.3397C18.1897 10.3397 18.1957 10.3577 18.2017 10.3998C18.2679 11.1638 18.2378 12.4632 18.1957 13.4738C18.1596 14.3341 18.1175 15.0078 18.1175 15.0078C18.1175 15.0078 18.1416 15.062 18.1656 15.062C18.3942 15.062 18.6168 15.068 18.8514 15.074C18.9477 15.074 19.0319 15.0078 19.0499 14.9176C19.1943 14.298 19.3086 11.9158 19.3146 11.8075C19.3266 11.7233 19.3868 11.6511 19.465 11.633L20.0726 11.5187C20.1628 11.4947 20.229 11.4165 20.229 11.3142C20.229 11.2841 20.223 11.2541 20.2109 11.224C20.1869 11.1638 19.8741 10.5803 19.2845 9.85242L19.2785 9.84039Z" fill="#242E30"/>
<path d="M24.4219 11.3984C24.4219 7.08523 20.9148 3.57812 16.6016 3.57812C14.5442 3.57812 12.6794 4.38422 11.2777 5.68359H11.2717L11.1334 5.80992C11.0912 5.85203 11.0552 5.88812 11.013 5.93023L9.87008 7.0732C8.39023 8.54703 7.57812 10.5141 7.57812 12.6016C7.57812 14.689 8.39023 16.6501 9.87008 18.1299C11.3439 19.6038 13.311 20.4219 15.3984 20.4219C17.4859 20.4219 19.447 19.6098 20.9268 18.1299L22.166 16.8907C23.5616 15.471 24.4279 13.534 24.4279 11.3924L24.4219 11.3984ZM10.7183 17.2817C9.46703 16.0305 8.78125 14.3702 8.78125 12.6076C8.78125 12.4151 8.79328 12.2226 8.81133 12.0361C9.11813 15.856 12.1741 18.8999 16 19.1947C14.1111 19.3631 12.168 18.7315 10.7243 17.2877L10.7183 17.2817ZM16.6016 18.0156C12.9501 18.0156 9.98438 15.0499 9.98438 11.3984C9.98438 9.60578 10.7002 7.98156 11.8612 6.79047L11.9936 6.65812C13.1847 5.49711 14.8089 4.78125 16.6016 4.78125C20.253 4.78125 23.2188 7.74695 23.2188 11.3984C23.2188 15.0499 20.253 18.0156 16.6016 18.0156Z" fill="#242E30"/>
</svg>
