<svg width="32" height="24" viewBox="0 0 32 24" fill="none" xmlns="http://www.w3.org/2000/svg">
<rect width="32" height="24" rx="4" fill="url(#paint0_linear_17041_41968)"/>
<rect x="0.5" y="0.5" width="31" height="23" rx="3.5" stroke="white" stroke-opacity="0.01"/>
<path d="M12.7742 3.5C13.0264 3.5 13.2741 3.56568 13.4923 3.6904C15.3129 4.83501 18.0478 7.57219 18.8423 8.36726C18.9649 8.49005 19.0413 8.56652 19.061 8.58365L18.4455 9.1535C18.4371 9.14111 18.01 8.7034 17.3862 8.09226V9.76307H10.5885C10.3126 9.76307 10.0888 9.98351 10.0888 10.2553V14.2367H8.17479V8.09226C7.54675 8.7034 7.10711 9.1535 7.10711 9.1535L6.5 8.58365C6.51975 8.5664 6.59707 8.48892 6.7212 8.36453C7.51815 7.56594 10.2448 4.8337 12.0561 3.6904C12.2743 3.56568 12.522 3.5 12.7742 3.5Z" fill="white"/>
<path d="M11.4858 10.6578H25.0003C25.2762 10.6578 25.5 10.8782 25.5 11.15V20.0078C25.5 20.2795 25.2762 20.5 25.0003 20.5H11.4858C11.2099 20.5 10.9861 20.2795 10.9861 20.0078V11.15C10.9861 10.8782 11.2099 10.6578 11.4858 10.6578Z" fill="white"/>
<path d="M12.2784 19.1979V17.5006H12.8101C13.1966 17.5006 13.4453 17.6436 13.4453 17.9394C13.4453 18.1067 13.3664 18.2231 13.2558 18.2909C13.4159 18.3637 13.5094 18.5044 13.5094 18.6959C13.5094 19.0379 13.2558 19.1979 12.862 19.1979H12.2784ZM12.6206 18.2063H12.8743C13.0294 18.2063 13.0957 18.1312 13.0957 17.9928C13.0957 17.8449 12.9752 17.7964 12.8127 17.7964H12.6206V18.2063ZM12.6206 18.9021H12.8324C13.0391 18.9021 13.1597 18.8513 13.1597 18.6912C13.1597 18.5312 13.0562 18.4682 12.8617 18.4682H12.6204L12.6206 18.9021ZM14.1728 19.227C13.8356 19.227 13.6658 19.0647 13.6658 18.8464C13.6658 18.6063 13.8652 18.4657 14.1605 18.4633C14.2339 18.4647 14.3071 18.471 14.3795 18.4827V18.4246C14.3795 18.2767 14.2933 18.2065 14.1285 18.2065C14.0174 18.2051 13.9071 18.2249 13.8036 18.2646L13.742 18.0026C13.8479 17.959 14.0177 17.9299 14.1678 17.9299C14.5297 17.9299 14.7094 18.119 14.7094 18.4463V19.1204C14.6086 19.1713 14.4191 19.227 14.1728 19.227ZM14.3795 18.953V18.6936C14.3222 18.681 14.2635 18.6744 14.2048 18.6742C14.0916 18.6742 14.003 18.7178 14.003 18.8319C14.003 18.9338 14.0769 18.987 14.2074 18.987C14.2668 18.9889 14.3256 18.9772 14.3795 18.953ZM14.9486 19.1979V18.0365C15.1256 17.9665 15.3143 17.9303 15.505 17.9299C15.8645 17.9299 16.0712 18.1043 16.0712 18.4269V19.1979H15.7316V18.4512C15.7316 18.284 15.6527 18.2063 15.5026 18.2063C15.428 18.2053 15.3541 18.22 15.2859 18.2499V19.1979H14.9486ZM17.2582 18.0026L17.1942 18.2669C17.1064 18.2294 17.0119 18.2088 16.916 18.2063C16.7166 18.2063 16.6083 18.3444 16.6083 18.5725C16.6083 18.8223 16.7215 18.9506 16.9333 18.9506C17.0277 18.9481 17.1206 18.9266 17.2066 18.8876L17.2608 19.1568C17.1492 19.2056 17.0282 19.2296 16.9063 19.227C16.4977 19.227 16.2614 18.9772 16.2614 18.5821C16.2614 18.1869 16.4951 17.9299 16.8866 17.9299C17.0142 17.9292 17.1407 17.9539 17.2582 18.0026ZM17.9921 19.227C17.6129 19.227 17.3766 18.9677 17.3766 18.5772C17.3766 18.1867 17.6129 17.9299 17.9921 17.9299C18.3713 17.9299 18.605 18.1892 18.605 18.5772C18.605 18.9674 18.3736 19.227 17.9921 19.227ZM17.9921 18.9506C18.1669 18.9506 18.2581 18.8076 18.2581 18.5772C18.2581 18.3467 18.1669 18.2063 17.9921 18.2063C17.8173 18.2063 17.7238 18.3493 17.7238 18.5772C17.7238 18.8074 17.8197 18.9506 17.9921 18.9506ZM18.8016 19.1979V18.0365C18.9785 17.9665 19.1672 17.9303 19.3579 17.9299C19.7174 17.9299 19.9241 18.1043 19.9241 18.4269V19.1979H19.5845V18.4512C19.5845 18.284 19.5057 18.2063 19.3555 18.2063C19.2809 18.2053 19.207 18.22 19.1388 18.2499V19.1979H18.8016ZM20.6903 19.227C20.3973 19.227 20.2472 19.0694 20.2472 18.7493V18.2256H20.0797V17.959H20.2472V17.6898L20.5868 17.6728V17.9588H20.8601V18.2254H20.5868V18.7442C20.5868 18.8848 20.6458 18.9502 20.7566 18.9502C20.8004 18.9502 20.8442 18.9453 20.8871 18.9357L20.9044 19.2049C20.834 19.2203 20.7623 19.2277 20.6903 19.227ZM21.5476 19.227C21.2104 19.227 21.0405 19.0647 21.0405 18.8464C21.0405 18.6063 21.24 18.4657 21.5353 18.4633C21.6087 18.4647 21.6819 18.471 21.7543 18.4827V18.4246C21.7543 18.2767 21.6681 18.2065 21.5033 18.2065C21.3922 18.2051 21.2819 18.2249 21.1784 18.2646L21.1168 18.0026C21.2227 17.959 21.3925 17.9299 21.5426 17.9299C21.9045 17.9299 22.0842 18.119 22.0842 18.4463V19.1204C21.9834 19.1713 21.7937 19.227 21.5476 19.227ZM21.7543 18.953V18.6936C21.697 18.681 21.6383 18.6744 21.5796 18.6742C21.4664 18.6742 21.3778 18.7178 21.3778 18.8319C21.3778 18.9338 21.4517 18.987 21.5822 18.987C21.6414 18.9889 21.7001 18.9772 21.7543 18.953ZM23.2464 18.0026L23.1824 18.2669C23.0945 18.2294 23.0001 18.2088 22.9041 18.2063C22.7047 18.2063 22.5965 18.3444 22.5965 18.5725C22.5965 18.8223 22.7097 18.9506 22.9214 18.9506C23.0159 18.9481 23.1088 18.9266 23.1947 18.8876L23.249 19.1568C23.1374 19.2056 23.0164 19.2296 22.8944 19.227C22.4859 19.227 22.2495 18.9772 22.2495 18.5821C22.2495 18.1869 22.4833 17.9299 22.8748 17.9299C23.0024 17.9292 23.1286 17.9539 23.2464 18.0026ZM23.9933 19.227C23.7004 19.227 23.5502 19.0694 23.5502 18.7493V18.2256H23.3828V17.959H23.5502V17.6898L23.8898 17.6728V17.9588H24.1631V18.2254H23.8898V18.7442C23.8898 18.8848 23.9488 18.9502 24.0596 18.9502C24.1034 18.9502 24.1472 18.9453 24.1901 18.9357L24.2074 19.2049C24.1371 19.2203 24.0653 19.2277 23.9933 19.227Z" fill="#1E3764"/>
<path d="M14.6479 16.652C16.4454 16.652 17.3441 15.4717 18.2429 14.2914H12.2784V16.652H14.6479Z" fill="url(#paint1_linear_17041_41968)"/>
<path d="M21.8379 11.9307C20.0404 11.9307 19.1417 13.111 18.2429 14.2914L24.2074 14.2914V11.9307H21.8379Z" fill="url(#paint2_linear_17041_41968)"/>
<defs>
<linearGradient id="paint0_linear_17041_41968" x1="30.5" y1="1.5" x2="2" y2="22" gradientUnits="userSpaceOnUse">
<stop stop-color="#025BB9"/>
<stop offset="1" stop-color="#1F3966"/>
</linearGradient>
<linearGradient id="paint1_linear_17041_41968" x1="13.9217" y1="16.0331" x2="25.4458" y2="13.4967" gradientUnits="userSpaceOnUse">
<stop stop-color="#005AB9"/>
<stop offset="1" stop-color="#1E3764"/>
</linearGradient>
<linearGradient id="paint2_linear_17041_41968" x1="18.6041" y1="14.496" x2="23.2221" y2="12.8964" gradientUnits="userSpaceOnUse">
<stop stop-color="#FBA900"/>
<stop offset="1" stop-color="#FFD800"/>
</linearGradient>
</defs>
</svg>
