<svg width="32" height="24" viewBox="0 0 32 24" fill="none" xmlns="http://www.w3.org/2000/svg">
<rect width="32" height="24" rx="4" fill="#EE293D"/>
<rect x="0.5" y="0.5" width="31" height="23" rx="3.5" stroke="white" stroke-opacity="0.01"/>
<path d="M4.5264 10.4617C4.31293 10.4617 4.29188 10.3924 4.29188 9.8872V9.80098C4.29188 9.29403 4.31293 9.2254 4.5264 9.2254H9.40768C9.62188 9.2254 9.64293 9.29403 9.64293 9.80029V9.88651C9.64293 10.3924 9.62151 10.4614 9.40768 10.4614H4.5264V10.4617ZM4.5264 8.23702C4.31293 8.23702 4.29188 8.16805 4.29188 7.66214V7.57592C4.29188 7.06828 4.31293 7 4.5264 7H9.40768C9.62188 7 9.64293 7.06897 9.64293 7.57592V7.66214C9.64293 8.16805 9.62151 8.23702 9.40768 8.23702H4.5264ZM5.25765 14.8439C5.25765 14.0066 5.69455 13.5462 6.35194 13.5462C6.60012 13.5462 6.79881 13.6138 7.04736 13.7293C7.13748 13.7721 7.21208 13.7548 7.33026 13.4931L7.41631 13.3151C7.50126 13.1006 7.50753 13.012 7.40449 12.9644C7.09981 12.7978 6.62819 12.6927 6.22083 12.6927C5.06006 12.6927 4.18182 13.5514 4.18182 14.8439C4.18182 16.1361 5.06006 16.9948 6.22046 16.9948C6.62819 16.9948 7.11052 16.89 7.41631 16.7224C7.51824 16.6758 7.5116 16.5862 7.42739 16.3717L7.34245 16.1837C7.22427 15.9216 7.1493 15.9068 7.05844 15.9475C6.80989 16.0637 6.60049 16.1313 6.35194 16.1313C5.69455 16.1313 5.25876 15.6809 5.25876 14.8439H5.25802H5.25765ZM19.0886 16.7969C19.0886 16.9107 19.0428 16.9417 18.6982 16.9417H18.6639C18.3009 16.9417 18.2503 16.9262 18.2218 16.8431C18.2028 16.7867 18.1876 16.7292 18.1764 16.671C17.9844 16.8855 17.7528 17 17.4001 17C16.5448 17 16.0307 16.4137 16.0307 15.4709C16.0307 14.4518 16.6027 13.8483 17.4511 13.8483C17.69 13.8483 17.9101 13.9173 18.08 14.0428V12.7185C18.08 12.6299 18.0911 12.593 18.5675 12.593H18.6019C19.0428 12.593 19.0882 12.6299 19.0882 12.7185V16.7969H19.0886ZM18.0804 14.7863C18.0221 14.7269 17.9513 14.6794 17.8723 14.647C17.7933 14.6146 17.708 14.5979 17.6217 14.598C17.242 14.598 17.0618 14.906 17.0618 15.4716C17.0618 15.7957 17.1353 16.0016 17.242 16.1096C17.338 16.221 17.4858 16.2568 17.628 16.2568C17.8034 16.2568 17.9389 16.2165 18.0017 16.1416C18.0575 16.0844 18.08 15.9958 18.08 15.7916V14.786L18.0807 14.7863H18.0804ZM24.228 16.8176C24.228 16.9055 24.1826 16.9417 23.7405 16.9417H23.7066C23.2309 16.9417 23.2209 16.9055 23.2209 16.8176V12.7185C23.2209 12.6299 23.2309 12.593 23.7062 12.593H23.7402C24.1819 12.593 24.2277 12.6299 24.2277 12.7185V16.8176H24.228ZM20.6811 15.7278C20.7372 16.0992 20.9862 16.2779 21.3773 16.2779C21.6783 16.2779 21.9601 16.2158 22.2895 16.0844C22.3582 16.0585 22.4199 16.0844 22.4926 16.2923L22.5443 16.4089C22.6171 16.6234 22.6108 16.671 22.5325 16.712C22.141 16.9159 21.7337 16.9993 21.2805 16.9993C20.2789 16.9993 19.6507 16.4303 19.6507 15.456C19.6507 14.5087 20.228 13.8483 21.2188 13.8483C22.199 13.8483 22.702 14.498 22.702 15.3981C22.702 15.6968 22.6743 15.7278 22.5609 15.7278H20.6811ZM21.6938 15.1474C21.6783 14.8343 21.5424 14.5611 21.2081 14.5611C20.9182 14.5611 20.7084 14.7646 20.6689 15.1474H21.6938ZM25.7969 15.7278C25.8523 16.0992 26.102 16.2779 26.4934 16.2779C26.7919 16.2779 27.0762 16.2158 27.4046 16.0844C27.4718 16.0585 27.5353 16.0844 27.6084 16.2923L27.6597 16.4089C27.7325 16.6234 27.7266 16.671 27.6487 16.712C27.2572 16.9159 26.8491 16.9993 26.3956 16.9993C25.3936 16.9993 24.7661 16.4303 24.7661 15.456C24.7661 14.5087 25.3423 13.8483 26.3335 13.8483C27.3144 13.8483 27.8182 14.498 27.8182 15.3981C27.8182 15.6968 27.7897 15.7278 27.6764 15.7278H25.7965H25.7969ZM26.8107 15.1474C26.7922 14.8343 26.6574 14.5611 26.3232 14.5611C26.0344 14.5611 25.8239 14.7646 25.7847 15.1474H26.8107ZM14.419 14.807C14.3679 14.7441 14.3021 14.6931 14.2265 14.6578C14.1509 14.6225 14.0677 14.6039 13.9832 14.6035C13.6035 14.6035 13.4229 14.9122 13.4229 15.4612C13.4229 15.9268 13.5573 16.2727 13.971 16.2727C14.1246 16.2727 14.2369 16.2361 14.317 16.162C14.3901 16.0896 14.419 15.9896 14.419 15.7709V14.807ZM15.4383 16.7969C15.4383 16.9107 15.3936 16.9417 15.0483 16.9417H15.0017C14.6398 16.9417 14.5888 16.9262 14.5608 16.8431C14.5413 16.7868 14.5262 16.7293 14.5153 16.671C14.3233 16.8855 14.0906 17 13.739 17C12.918 17 12.391 16.4234 12.391 15.4826C12.391 14.4359 13.0425 13.8483 13.8129 13.8483C14.1246 13.8483 14.3957 13.9697 14.5434 14.1421L14.5608 14.0111C14.5656 13.949 14.5837 13.9076 14.9559 13.9076H14.9962C15.3818 13.9076 15.4375 13.9328 15.4375 14.0283V16.7969H15.4383ZM10.7114 13.023C11.0903 13.023 11.1132 13.0275 11.1132 13.1427V13.9069H11.765C11.8551 13.9069 11.8832 13.9224 11.8832 14.2101V14.2525C11.8832 14.5394 11.8551 14.556 11.765 14.556H11.1132V15.9275C11.1132 16.1572 11.1579 16.2779 11.3843 16.2779C11.5024 16.2779 11.6059 16.2568 11.7078 16.2261C11.8149 16.1878 11.8555 16.2361 11.9286 16.4762L11.9456 16.5337C12.0247 16.7969 12.0014 16.8176 11.9006 16.8638C11.6967 16.9528 11.4242 17 11.1697 17C10.3657 17 10.1393 16.6234 10.1393 15.9682V14.556H9.75964C9.66361 14.556 9.63961 14.5387 9.63961 14.2525V14.2101C9.63961 13.9224 9.66324 13.9076 9.75964 13.9076H10.1844C10.2305 13.6617 10.3088 13.3155 10.3601 13.1427C10.3886 13.043 10.4056 13.023 10.7114 13.023ZM8.60478 13.9076C9.04685 13.9076 9.086 13.9431 9.086 14.0328V16.8176C9.086 16.9107 9.04685 16.9417 8.60478 16.9417H8.57597C8.08958 16.9417 8.0785 16.9107 8.0785 16.8176V14.0328C8.0785 13.9431 8.08958 13.9076 8.57597 13.9076H8.60478ZM8.57597 12.5464C8.89506 12.5464 9.12626 12.7765 9.12626 13.0379C9.12483 13.1034 9.10947 13.168 9.08107 13.2279C9.05266 13.2878 9.01178 13.3418 8.9608 13.3869C8.85739 13.4783 8.7189 13.5279 8.57597 13.5248C8.26057 13.5248 8.0268 13.2948 8.0268 13.0379C8.0268 12.7758 8.26057 12.5464 8.57597 12.5464Z" fill="white"/>
</svg>
