<svg width="32" height="24" viewBox="0 0 32 24" fill="none" xmlns="http://www.w3.org/2000/svg">
<rect x="0.5" y="0.5" width="31" height="23" rx="3.5" fill="white"/>
<rect x="0.5" y="0.5" width="31" height="23" rx="3.5" stroke="#DBD9D7"/>
<path d="M17.1628 11.0212V7.62406L18.0498 7.41405V7.85884C18.0498 7.85884 18.2792 7.27333 18.812 7.13727C18.976 7.09599 19.0586 7.12076 19.0586 7.12076V7.98735C18.899 7.98954 18.7412 8.02245 18.5941 8.08428C18.2652 8.21388 18.1001 8.49748 18.1001 8.92826V10.804L17.1628 11.0212ZM12.4884 12.1258C12.4884 12.1258 12.3448 11.9104 12.3448 11.145V9.45382L11.8882 9.56152V8.86544L12.3451 8.75774V7.99812L13.2882 7.77555V8.53338L13.9545 8.37542V9.07186L13.2882 9.23017V10.9533C13.2882 11.7363 13.4961 11.8867 13.4961 11.8867L12.4884 12.1258ZM14.0529 10.105C14.0529 9.50085 14.139 9.06037 14.3235 8.7222C14.5429 8.32085 14.9037 8.05951 15.4285 7.93997C16.4627 7.70483 16.8357 8.31727 16.821 9.13791C16.8163 9.4312 16.8174 9.57444 16.8174 9.57444L14.9952 10.0027V10.0322C14.9952 10.6065 15.1158 10.8783 15.4791 10.8007C15.7929 10.7347 15.8801 10.538 15.9049 10.2953C15.9092 10.2554 15.9106 10.156 15.9106 10.156L16.7646 9.95138C16.7646 9.95138 16.7668 10.0214 16.7646 10.0993C16.7568 10.4256 16.662 11.2348 15.4755 11.5148C14.3519 11.7815 14.0518 11.0951 14.0518 10.105H14.0529ZM15.4651 8.57251C15.1632 8.64107 15.0049 8.93724 14.9984 9.42797L15.9153 9.20971C15.9171 9.18745 15.9171 9.13791 15.9171 9.06181C15.9153 8.69169 15.8008 8.4964 15.4655 8.57251H15.4651ZM22.2486 8.11839C22.2127 7.08378 22.4812 6.26242 23.6353 6.00036C24.372 5.83307 24.6509 6.02405 24.7923 6.20893C24.9284 6.38555 24.9808 6.62356 24.9808 6.95706V7.01881L24.0769 7.2342V7.10819C24.0769 6.71331 23.9692 6.56253 23.682 6.63433C23.3406 6.72013 23.2027 7.04394 23.2027 7.68868V7.98915C23.2027 8.6443 23.2925 8.94442 23.6856 8.86185C24.0273 8.79005 24.074 8.49137 24.0805 8.22859C24.0805 8.18731 24.083 8.0552 24.083 8.0552L24.9855 7.84268V7.98305C24.983 8.84175 24.5303 9.3831 23.6816 9.58054C22.5138 9.85481 22.2848 9.17884 22.2489 8.11839H22.2486ZM19.1264 9.56654C19.1264 8.77964 19.5881 8.53086 20.282 8.24403C20.9056 7.98592 20.9189 7.85776 20.9217 7.63375C20.925 7.44528 20.8377 7.28338 20.5268 7.36272C20.2414 7.43451 20.1657 7.64201 20.1506 7.80714C20.1454 7.86514 20.1435 7.92339 20.1449 7.98161L19.27 8.18803C19.2641 8.01367 19.2845 7.83941 19.3303 7.67109C19.4703 7.20045 19.8857 6.88383 20.6015 6.71833C21.532 6.50294 21.8425 6.91219 21.844 7.54759V9.05211C21.844 9.77978 21.979 9.88604 21.979 9.88604L21.1199 10.0896C21.0724 9.99026 21.0337 9.88695 21.0043 9.78086C21.0043 9.78086 20.8165 10.2544 20.1682 10.4073C19.4861 10.5674 19.1271 10.1459 19.1271 9.5669L19.1264 9.56654ZM20.9167 8.49245C20.7718 8.59398 20.6189 8.68343 20.4594 8.7599C20.1722 8.90026 20.0433 9.07258 20.0433 9.33823C20.0433 9.56834 20.1869 9.71983 20.4454 9.65521C20.7236 9.58557 20.9167 9.32602 20.9167 8.96596V8.49245ZM7.55876 14.5069C7.46072 14.5067 7.36455 14.4801 7.28038 14.4299C7.1962 14.3796 7.12712 14.3076 7.08042 14.2214C7.03372 14.1352 7.01113 14.038 7.01501 13.94C7.01889 13.8421 7.04911 13.747 7.10248 13.6647L7.10823 13.6572L7.11864 13.6547L8.40023 13.3521V14.326L8.38012 14.3307C8.08934 14.4007 7.74184 14.48 7.67004 14.4947C7.63328 14.503 7.59571 14.5071 7.55804 14.5069H7.55876ZM7.55876 15.753C7.41473 15.753 7.27657 15.6959 7.17456 15.5942C7.07255 15.4925 7.01501 15.3546 7.01453 15.2106C7.01396 15.1054 7.04456 15.0025 7.10248 14.9147L7.10823 14.9051L7.11864 14.9029L8.40023 14.6003V15.5742L8.38012 15.5796C8.08934 15.6492 7.74184 15.73 7.67004 15.744C7.63315 15.7512 7.59563 15.7548 7.55804 15.7548L7.55876 15.753ZM7.55876 17.0012C7.41439 17.0011 7.27596 16.9437 7.17391 16.8415C7.07186 16.7394 7.01453 16.601 7.01453 16.4566C7.01396 16.3515 7.04456 16.2485 7.10248 16.1608L7.10823 16.1507L8.40058 15.8463V16.8203L8.38048 16.8253C8.07355 16.8992 7.73215 16.9764 7.6704 16.9904C7.63348 16.9975 7.59599 17.0011 7.5584 17.0012" fill="#231F20"/>
<path d="M7.40797 13.3133L7.40762 7.86423L8.40093 7.62946V13.0782L7.40797 13.3133Z" fill="#231F20"/>
<path d="M9.88249 12.8499C9.87862 12.6899 9.81234 12.5378 9.69781 12.426C9.58327 12.3142 9.42957 12.2516 9.26952 12.2516C9.10947 12.2516 8.95577 12.3142 8.84123 12.426C8.7267 12.5378 8.66042 12.6899 8.65655 12.8499V17.9432C8.65731 18.3831 8.83235 18.8047 9.14335 19.1158C9.45434 19.4268 9.87593 19.602 10.3158 19.6028C10.7796 19.6028 12.0504 19.6007 12.0504 19.6007V15.1065C12.0507 14.9744 12.0182 14.8443 11.956 14.7277C11.8938 14.6112 11.8038 14.5118 11.6939 14.4384L10.1474 13.388V15.7732C10.1484 15.791 10.1456 15.8089 10.1395 15.8256C10.1333 15.8424 10.1237 15.8578 10.1114 15.8707C10.0991 15.8837 10.0843 15.894 10.0679 15.9011C10.0514 15.9081 10.0337 15.9118 10.0159 15.9118C9.99798 15.9118 9.98028 15.9081 9.96385 15.9011C9.94743 15.894 9.93261 15.8837 9.9203 15.8707C9.90799 15.8578 9.89845 15.8424 9.89226 15.8256C9.88607 15.8089 9.88335 15.791 9.88429 15.7732C9.88429 15.7477 9.88106 13.1647 9.88106 12.8499H9.88249ZM10.7103 9.05003C10.5225 9.09343 10.3463 9.17683 10.1936 9.29454C10.041 9.41225 9.9155 9.5615 9.82577 9.7321V9.3505L8.93153 9.5623V12.0081C9.08838 11.9462 9.25928 11.9288 9.42537 11.9579C9.59147 11.987 9.7463 12.0614 9.8728 12.1729V10.5933C9.8728 10.2153 10.0616 9.91303 10.3302 9.8538C10.533 9.80929 10.7017 9.8818 10.7017 10.2419V12.5462L11.6433 12.3251V9.88791C11.6433 9.29665 11.4164 8.88274 10.71 9.05003H10.7103ZM24.4003 5.56246C24.2851 5.56253 24.1724 5.52843 24.0766 5.46447C23.9807 5.40051 23.906 5.30956 23.8618 5.20312C23.8177 5.09669 23.806 4.97954 23.8285 4.86651C23.8509 4.75347 23.9063 4.64962 23.9877 4.56809C24.0692 4.48656 24.1729 4.431 24.286 4.40845C24.399 4.3859 24.5161 4.39737 24.6226 4.4414C24.7291 4.48543 24.8201 4.56005 24.8842 4.65583C24.9483 4.7516 24.9825 4.86423 24.9826 4.97946C24.9823 5.13377 24.9209 5.28168 24.8117 5.39076C24.7026 5.49984 24.5546 5.56119 24.4003 5.56138V5.56246ZM24.4003 4.4697C24.2996 4.4697 24.2011 4.49957 24.1174 4.55553C24.0336 4.61149 23.9683 4.69102 23.9297 4.78408C23.8912 4.87714 23.8811 4.97955 23.9007 5.07835C23.9203 5.17716 23.9688 5.26793 24.04 5.33918C24.1112 5.41044 24.2019 5.45898 24.3007 5.47868C24.3995 5.49837 24.5019 5.48834 24.595 5.44984C24.6881 5.41134 24.7677 5.3461 24.8237 5.26238C24.8797 5.17865 24.9097 5.0802 24.9097 4.97946C24.9095 4.84439 24.8558 4.71489 24.7603 4.61934C24.6649 4.5238 24.5354 4.46999 24.4003 4.4697Z" fill="#231F20"/>
<path d="M24.1882 4.63297H24.4395C24.5396 4.63297 24.619 4.68286 24.619 4.81533C24.619 4.90759 24.578 4.97867 24.5005 4.99088C24.5723 4.99806 24.6082 5.03683 24.6114 5.13698C24.6114 5.18186 24.6136 5.23786 24.6157 5.28058C24.6157 5.29278 24.6188 5.30479 24.6247 5.31547C24.6306 5.32614 24.6391 5.33514 24.6495 5.34161H24.5217C24.5088 5.3232 24.502 5.30123 24.5023 5.27878C24.498 5.23607 24.4987 5.19622 24.4973 5.14452C24.4973 5.06698 24.4718 5.03288 24.3935 5.03288H24.3034V5.34161H24.1896L24.1882 4.63297ZM24.3924 4.94959C24.4079 4.95102 24.4235 4.94899 24.438 4.94366C24.4526 4.93832 24.4658 4.92981 24.4766 4.91874C24.4875 4.90767 24.4957 4.89433 24.5008 4.87967C24.5059 4.86501 24.5076 4.84941 24.5059 4.834C24.5059 4.75825 24.4736 4.71876 24.3982 4.71876H24.3034V4.94959H24.3924Z" fill="#231F20"/>
</svg>
