<svg width="32" height="24" viewBox="0 0 32 24" fill="none" xmlns="http://www.w3.org/2000/svg">
<path d="M0 4C0 1.79086 1.79086 0 4 0H28C30.2091 0 32 1.79086 32 4V20C32 22.2091 30.2091 24 28 24H4C1.79086 24 0 22.2091 0 20V4Z" fill="black"/>
<path d="M28.2153 11.1041V10.2886H27.2413V9.22528H26.2993V13.1018C26.2993 13.458 26.3889 13.7294 26.5657 13.9086C26.7423 14.088 27.0175 14.1789 27.3838 14.1789H28.2153V13.3633H27.6069C27.4745 13.3633 27.3795 13.3342 27.3246 13.2768C27.2741 13.2242 27.2413 13.0914 27.2413 12.9384V11.1041H28.2153Z" fill="white"/>
<path d="M15.1626 10.2885L14.1886 13.1226L13.2147 10.2885H12.2251L13.6311 14.1455H14.7462L16.1522 10.2885H15.1626Z" fill="white"/>
<path d="M21.529 8.88998H20.587V14.1455H21.529V8.88998Z" fill="white"/>
<path d="M24.7639 12.2207C24.7639 12.4649 24.7269 12.6773 24.6539 12.8521C24.5815 13.0259 24.4778 13.1591 24.3457 13.248C24.2135 13.3369 24.051 13.382 23.8628 13.382C23.5935 13.382 23.3903 13.2935 23.2588 13.119C23.126 12.9427 23.0587 12.6755 23.0587 12.3248V10.2886H22.1167V12.4289C22.1167 12.7622 22.1584 13.0448 22.2407 13.269C22.3229 13.4938 22.436 13.6766 22.5767 13.8124C22.7173 13.948 22.8814 14.0459 23.0646 14.1036C23.2469 14.1609 23.4428 14.19 23.6472 14.19C23.9418 14.19 24.1855 14.1366 24.3715 14.0312C24.5412 13.9348 24.6833 13.8222 24.7947 13.6958L24.8791 14.1454H25.7059V10.2886H24.7639V12.2207Z" fill="white"/>
<path d="M19.1472 10.492C18.8504 10.3274 18.4979 10.244 18.0997 10.244C17.7063 10.244 17.3552 10.3274 17.0559 10.4919C16.7562 10.6569 16.5208 10.8898 16.356 11.1843C16.1915 11.4785 16.1082 11.8272 16.1082 12.2207C16.1082 12.6093 16.1915 12.9556 16.356 13.2498C16.5207 13.5442 16.7562 13.7771 17.0559 13.942C17.3552 14.1066 17.7064 14.1899 18.0997 14.1899C18.4979 14.1899 18.8504 14.1066 19.1472 13.942C19.4444 13.7771 19.6786 13.5442 19.8433 13.2498C20.0078 12.9554 20.0913 12.6092 20.0913 12.2207C20.0913 11.8274 20.0078 11.4787 19.8433 11.1843C19.6785 10.8898 19.4444 10.6568 19.1472 10.492ZM18.6496 13.2478C18.4978 13.3466 18.3128 13.3968 18.0997 13.3968C17.8915 13.3968 17.7077 13.3467 17.5534 13.2478C17.3988 13.1488 17.2776 13.0091 17.1931 12.8325C17.1081 12.6558 17.065 12.45 17.065 12.2207C17.065 11.9867 17.1081 11.7797 17.1931 11.6053C17.2776 11.4311 17.3989 11.2914 17.5536 11.1899C17.7079 11.0886 17.8916 11.0372 18.0997 11.0372C18.3127 11.0372 18.4976 11.0886 18.6494 11.1898C18.8017 11.2913 18.9218 11.4311 19.0065 11.6054C19.0914 11.7801 19.1345 11.9872 19.1345 12.2207C19.1345 12.4494 19.0914 12.6553 19.0065 12.8325C18.9218 13.0092 18.8017 13.1489 18.6496 13.2478Z" fill="white"/>
<path d="M5.20153 10.187H4.2226V14.1455H5.20153V10.187Z" fill="white"/>
<path d="M8.27155 10.4134C8.27155 9.57348 7.58755 8.89011 6.74676 8.89011H4.22272V9.73547H6.62675C7.00725 9.73547 7.32244 10.0344 7.3294 10.4018C7.33288 10.5858 7.26384 10.7594 7.135 10.8907C7.0061 11.022 6.83389 11.0944 6.65008 11.0944H5.71359C5.68034 11.0944 5.65327 11.1214 5.65327 11.1547V11.906C5.65327 11.9188 5.65722 11.931 5.66465 11.9413L7.25356 14.1456H8.41666L6.82406 11.9352C7.6261 11.895 8.27155 11.2211 8.27155 10.4134Z" fill="white"/>
<path d="M11.2816 10.4695C10.9996 10.3199 10.6648 10.244 10.2864 10.244C9.9076 10.244 9.56888 10.3275 9.27966 10.4921C8.98997 10.6569 8.76206 10.8899 8.6023 11.1845C8.44271 11.4785 8.36182 11.8296 8.36182 12.2282C8.36182 12.6167 8.44395 12.9629 8.60604 13.2571C8.76849 13.5521 9.0028 13.7838 9.30235 13.9458C9.60134 14.1079 9.95997 14.19 10.3682 14.19C10.6921 14.19 10.9829 14.1293 11.2326 14.0096C11.4824 13.8895 11.6863 13.726 11.8388 13.5236C11.9836 13.3312 12.0812 13.1136 12.129 12.877L12.1342 12.8517H11.1974L11.193 12.8669C11.1414 13.0434 11.0414 13.1829 10.8955 13.2816C10.7389 13.3876 10.5466 13.4415 10.3237 13.4415C10.1349 13.4415 9.96433 13.401 9.81684 13.3212C9.67007 13.2419 9.55531 13.1284 9.47582 12.9839C9.39602 12.8388 9.35062 12.6643 9.34091 12.4662V12.4353H12.1705L12.1736 12.418C12.1835 12.3637 12.1899 12.3077 12.1926 12.2515C12.1949 12.1966 12.1963 12.1419 12.1963 12.0866C12.1913 11.7129 12.1077 11.3842 11.9481 11.1095C11.7878 10.8346 11.5636 10.6192 11.2816 10.4695ZM10.9384 11.1959C11.0993 11.3313 11.1994 11.5238 11.2362 11.7683H9.37343C9.39473 11.6097 9.44741 11.4723 9.53017 11.3595C9.61698 11.2413 9.72821 11.1484 9.86079 11.0834C9.99353 11.0182 10.1393 10.9851 10.2939 10.9851C10.5552 10.9851 10.7721 11.056 10.9384 11.1959Z" fill="white"/>
</svg>
