<svg width="32" height="24" viewBox="0 0 32 24" fill="none" xmlns="http://www.w3.org/2000/svg">
<rect width="32" height="24" rx="4" fill="#E10A0A"/>
<path d="M7.92944 9.24344C7.5731 9.24344 7.26954 9.4458 7.01878 9.85751L6.2665 11.0996C6.2665 10.5135 6.12132 10.0529 5.83096 9.71795C5.52741 9.36904 5.09188 9.18761 4.64315 9.20855C4.18782 9.18761 3.75228 9.36904 3.44213 9.72493C3.14518 10.0669 3 10.5274 3 11.1136V14.6515H3.47513V11.1206C3.45533 10.7368 3.56751 10.3669 3.78528 10.0669C4.00305 9.80867 4.3132 9.66213 4.64315 9.67608C4.9731 9.66213 5.28325 9.80169 5.50102 10.0669C5.72538 10.3669 5.83096 10.7437 5.81117 11.1206V11.7625L4.99289 13.0605C4.88071 13.221 4.78832 13.3954 4.71574 13.5838C4.66294 13.7234 4.64315 13.8699 4.64315 14.0165C4.63655 14.2189 4.71574 14.4142 4.85431 14.5538C5.01269 14.7003 5.21726 14.7771 5.42183 14.7701C5.65279 14.7841 5.88376 14.6864 6.04873 14.505C6.20711 14.3026 6.29289 14.0514 6.2797 13.7862V11.9091L7.38832 10.1087C7.5401 9.85751 7.71827 9.73191 7.91624 9.73191C8.03503 9.72493 8.14721 9.77378 8.2264 9.87147C8.30558 9.97614 8.35178 10.1157 8.33858 10.2483V14.6585H8.81371V10.2343C8.8269 9.97614 8.74112 9.71795 8.57614 9.52256C8.40457 9.32717 8.1736 9.22948 7.92944 9.24344ZM5.83096 13.7443C5.83756 13.8979 5.80457 14.0444 5.72538 14.177C5.65939 14.2817 5.54721 14.3375 5.42843 14.3305C5.33604 14.3375 5.24365 14.3026 5.17766 14.2328C5.11168 14.156 5.08528 14.0584 5.08528 13.9607C5.08528 13.863 5.10508 13.7583 5.13807 13.6676C5.19086 13.535 5.25685 13.4094 5.32944 13.2908L5.82437 12.4743V13.7443H5.83096Z" fill="white"/>
<path d="M14.3569 10.5623C13.664 9.27135 12.1132 8.81777 10.8858 9.55047C10.2061 9.95521 9.74416 10.674 9.62538 11.4904C9.46041 12.6209 9.88934 13.8071 10.8396 14.3933C11.7964 14.9725 12.9843 14.8539 13.8223 14.1002C14.7528 13.2349 14.9508 11.6858 14.3569 10.5623ZM12.8325 10.9112C12.8325 10.9182 12.8325 10.8903 12.8391 10.8903C12.8259 10.8763 12.8853 10.8275 12.8919 10.8205C12.9711 10.7647 12.9711 10.8135 13.0239 10.8345C13.0239 10.8345 13.0305 10.8484 13.0239 10.8484C12.9975 10.8973 12.8391 11.0787 12.8259 10.9182L12.8325 10.9112ZM12.7269 11.7067C12.7335 11.6928 12.7335 11.5951 12.7401 11.5951C12.7467 11.5881 12.7467 11.5741 12.7467 11.5602C12.7467 11.5462 12.7467 11.5392 12.7533 11.5253C12.7533 11.5253 12.7533 11.5253 12.7533 11.5183C12.7533 11.5113 12.7533 11.4974 12.7599 11.4904V11.4834C12.7599 11.4764 12.7599 11.4764 12.7599 11.4695C12.7599 11.4695 12.7599 11.4695 12.7599 11.4625C12.7599 11.4555 12.7599 11.4416 12.7599 11.4346C12.7599 11.4276 12.7599 11.4136 12.7599 11.4067V11.3997C12.7599 11.3997 12.7599 11.3997 12.7599 11.3927V11.3787C12.7599 11.3648 12.7599 11.3508 12.7665 11.3299V11.3229C12.7731 11.309 12.7731 11.288 12.7797 11.2741C12.7929 11.2392 12.8127 11.2113 12.8391 11.1903L12.8523 11.1834C12.8589 11.1834 12.8721 11.1764 12.8787 11.1764C12.8853 11.1764 12.8919 11.1764 12.9051 11.1764C12.9249 11.1834 12.9315 11.1834 12.9381 11.2043V11.2252C12.9381 11.2252 12.9381 11.2252 12.9447 11.2252V11.2392C12.9447 11.2392 12.9447 11.2392 12.9447 11.2462C12.9447 11.2531 12.9447 11.2531 12.9447 11.2601V11.2671C12.9447 11.2671 12.9447 11.2671 12.9447 11.2741V11.288C12.9513 11.288 12.9381 11.302 12.9381 11.302C12.9381 11.302 12.9381 11.302 12.9447 11.302V11.309L12.9381 11.3159C12.9381 11.3159 12.9447 11.3229 12.9381 11.3229V11.3299C12.9381 11.3369 12.9315 11.3369 12.9315 11.3369H12.9381C12.9381 11.3369 12.9381 11.3369 12.9381 11.3439C12.9381 11.3439 12.9447 11.3578 12.9381 11.3508C12.9381 11.3439 12.9381 11.3648 12.9381 11.3578C12.9381 11.3648 12.9381 11.3578 12.9315 11.3648V11.3857C12.9315 11.3857 12.9315 11.4136 12.9315 11.4067C12.9315 11.4067 12.9315 11.4067 12.9315 11.4136C12.9249 11.4206 12.9249 11.4346 12.9315 11.4346C12.9315 11.4416 12.9249 11.4764 12.9315 11.4764C12.9249 11.4764 12.9315 11.5183 12.9315 11.5183C12.9315 11.5253 12.9315 11.5323 12.9315 11.5392C12.9249 11.5392 12.9249 11.5392 12.9315 11.5462C12.9315 11.5672 12.9315 11.5881 12.9315 11.609C12.9249 11.609 12.9249 11.602 12.9183 11.602C12.9183 11.609 12.9315 11.623 12.9315 11.63C12.9249 11.6369 12.9183 11.609 12.9183 11.6369C12.9183 11.6579 12.9117 11.6788 12.9183 11.6997V11.7067C12.9183 11.7067 12.9183 11.7067 12.9183 11.7137C12.9183 11.7277 12.9315 11.7835 12.9183 11.7905C12.9117 11.8602 12.8061 11.9091 12.7533 11.9021C12.7533 11.8951 12.7269 11.8672 12.7269 11.8463C12.7137 11.8184 12.7203 11.7625 12.7269 11.7067ZM11.7437 11.7277C11.7503 11.7207 11.803 11.7067 11.8096 11.7067C11.8096 11.7067 11.8096 11.6997 11.803 11.7067C11.803 11.6997 11.803 11.6997 11.8096 11.6997C11.8162 11.6997 11.8228 11.6997 11.8228 11.6928C11.8294 11.6928 11.8294 11.6928 11.836 11.6858H11.8426C11.8426 11.6858 11.8426 11.6858 11.8492 11.6858C11.8492 11.6928 11.8492 11.6928 11.8558 11.6858C11.8558 11.6858 11.8624 11.6788 11.869 11.6788C11.902 11.6579 11.9416 11.6928 11.9482 11.7277L11.9548 11.7346V11.7416C11.9548 11.7416 11.9482 11.7695 11.9548 11.7695C11.9548 11.7835 11.9416 11.7974 11.935 11.8044C11.9284 11.8044 11.9218 11.8184 11.9152 11.8253C11.902 11.8323 11.8822 11.8602 11.869 11.8672C11.8624 11.8742 11.8624 11.8742 11.8558 11.8742C11.8558 11.8742 11.8492 11.8742 11.8492 11.8812H11.8426L11.836 11.8882H11.8294C11.8294 11.8951 11.7964 11.937 11.7898 11.944C11.7832 11.944 11.7766 11.9649 11.7832 11.9719C11.7766 11.9858 11.7701 11.9789 11.7766 11.9858C11.7701 12.0068 11.7635 12.0347 11.7569 12.0486C11.7569 12.0486 11.7635 12.0556 11.7569 12.0556C11.7569 12.0556 11.7503 12.0696 11.7569 12.0696C11.7569 12.0766 11.7569 12.0766 11.7569 12.0835C11.7569 12.1045 11.7569 12.1254 11.7503 12.1533V12.1603C11.7371 12.1743 11.7503 12.2022 11.7437 12.2231C11.7437 12.244 11.7437 12.265 11.7437 12.2859C11.7437 12.2859 11.7503 12.3138 11.7437 12.3138C11.7371 12.3417 11.7371 12.3696 11.7371 12.3976C11.7305 12.3976 11.6843 12.4743 11.6711 12.4813H11.6645L11.6381 12.4953C11.6381 12.4953 11.6381 12.4953 11.6315 12.4953C11.6315 12.5022 11.6117 12.5022 11.6051 12.5022C11.5985 12.5022 11.5919 12.5022 11.5853 12.5022C11.5787 12.5022 11.5787 12.4953 11.5721 12.4953C11.5721 12.4953 11.5721 12.4953 11.5655 12.4953C11.5391 12.4255 11.5655 12.3627 11.5523 12.2999C11.5589 12.258 11.5589 12.2161 11.5523 12.1812C11.5457 12.1812 11.5523 12.1743 11.5523 12.1743V12.1673C11.5523 12.1673 11.5457 12.1533 11.5523 12.1533C11.5589 12.1394 11.5589 12.1254 11.5589 12.1045C11.5457 12.0975 11.5787 11.937 11.5655 11.93C11.5655 11.9091 11.5655 11.8463 11.5787 11.8253C11.5523 11.7765 11.6711 11.7207 11.6909 11.7137C11.6975 11.7137 11.7041 11.7137 11.7107 11.7067C11.7305 11.7277 11.7371 11.7277 11.7437 11.7277ZM11.0046 12.2789C10.9914 12.2789 10.998 12.3068 10.998 12.3068C11.0046 12.3068 11.0046 12.3138 10.998 12.3138C10.9914 12.3348 10.9848 12.3557 10.9848 12.3766C10.9848 12.3976 10.9716 12.4185 10.9914 12.4255V12.4324C10.9914 12.4464 10.9914 12.4673 10.9848 12.4813C10.9782 12.4883 10.9848 12.5022 10.9716 12.5162C10.9716 12.5162 10.965 12.5232 10.9716 12.5232C10.9716 12.5301 10.965 12.5301 10.965 12.5371C10.965 12.5371 10.9518 12.6557 10.965 12.6557H10.9584C10.9584 12.6627 10.9584 12.6627 10.9584 12.6697V12.6767C10.9584 12.6837 10.9584 12.6837 10.9584 12.6837C10.9518 12.7046 10.9452 12.7255 10.9452 12.7465C10.9386 12.7534 10.9386 12.7814 10.9386 12.7883C10.932 12.8162 10.9452 12.8442 10.932 12.8721C10.9254 12.879 10.9254 12.893 10.9254 12.9C10.9254 12.9139 10.9254 12.9349 10.9188 12.9488C10.9122 12.9628 10.9188 12.9837 10.9122 12.9977C10.9122 13.0047 10.9122 13.0047 10.9122 13.0116C10.9122 13.0186 10.9122 13.0186 10.9122 13.0256C10.9056 13.0605 10.899 13.0954 10.899 13.1233C10.8858 13.1791 10.8726 13.228 10.8792 13.2838C10.866 13.3117 10.8594 13.3326 10.8594 13.3605L10.8462 13.3745C10.8594 13.3675 10.8132 13.4024 10.8132 13.4024C10.8132 13.4164 10.7406 13.4024 10.734 13.4024C10.734 13.4024 10.734 13.4024 10.7274 13.3954C10.7208 13.3885 10.7142 13.3815 10.701 13.3745C10.701 13.3396 10.6746 13.3047 10.6746 13.2768C10.6746 13.2628 10.6746 13.2559 10.668 13.2419C10.668 13.2349 10.668 13.228 10.6614 13.221C10.6614 13.214 10.6614 13.207 10.6614 13.2C10.6482 13.1791 10.6548 13.1372 10.6482 13.1163C10.6482 13.1163 10.6482 13.1163 10.6482 13.1093C10.6482 13.0465 10.635 12.9837 10.6152 12.9209H10.6086C10.6152 12.893 10.6152 12.8721 10.6086 12.8442C10.6086 12.8372 10.6086 12.8232 10.602 12.8162V12.8093C10.5954 12.8093 10.5954 12.7744 10.5954 12.7674C10.5888 12.7395 10.5822 12.7046 10.5822 12.6767C10.5822 12.6697 10.5822 12.6627 10.5822 12.6627C10.5426 12.6209 10.5822 12.3348 10.5294 12.3138C10.5228 12.2929 10.5294 12.2789 10.5228 12.258C10.5162 12.258 10.5228 12.251 10.5162 12.251C10.5162 12.251 10.5162 12.251 10.5162 12.244C10.5228 12.244 10.4964 12.0556 10.4898 12.0417C10.4898 12.0417 10.4898 12.0486 10.4832 12.0417C10.4964 12.0138 10.4569 11.9928 10.4701 11.9649C10.4701 11.9649 10.4701 11.8882 10.4305 11.9021C10.4305 11.9091 10.4305 11.9161 10.4239 11.923L10.4173 11.93C10.4239 11.937 10.4041 11.944 10.4041 11.937V11.951C10.4107 11.951 10.3975 11.9649 10.3975 11.9649C10.3975 11.9789 10.3909 11.9928 10.3843 12.0068L10.3777 12.0138C10.3579 12.0277 10.3711 12.0766 10.3579 12.0835C10.3513 12.0905 10.3579 12.0975 10.3579 12.1045L10.3513 12.1115V12.1184C10.3579 12.1324 10.3117 12.2231 10.3051 12.2371C10.3315 12.2999 10.1995 12.3138 10.1731 12.2929C10.1005 12.2371 10.1929 12.1882 10.1731 12.1254C10.1797 12.1115 10.1863 12.0905 10.1929 12.0766C10.1995 12.0347 10.2127 11.9998 10.2325 11.9649C10.2259 11.9649 10.2919 11.8323 10.2787 11.8184C10.3051 11.7207 10.3447 11.4067 10.4569 11.3648C10.5558 11.3229 10.5822 11.4276 10.602 11.4974C10.6416 11.5113 10.6152 11.7346 10.6416 11.7625H10.6482C10.6482 11.7905 10.6482 11.8184 10.6548 11.8463C10.6614 11.8812 10.6614 11.923 10.6746 11.9579C10.6812 11.9579 10.6878 12.0207 10.6944 12.0277C10.6812 12.0417 10.734 12.1184 10.7142 12.1394C10.7274 12.1673 10.734 12.2022 10.734 12.2301C10.7406 12.2301 10.7406 12.3278 10.7406 12.3348C10.7472 12.3348 10.7472 12.3278 10.7472 12.3348C10.7472 12.3348 10.7472 12.3557 10.7406 12.3557C10.7406 12.4045 10.7472 12.4534 10.7538 12.4953C10.7736 12.5022 10.767 12.5301 10.767 12.5511C10.7736 12.5511 10.7736 12.5511 10.7736 12.5511C10.767 12.565 10.7802 12.5511 10.7802 12.5511V12.5441C10.7868 12.4185 10.8132 12.2999 10.8264 12.1812C10.8198 12.0835 10.8396 11.9928 10.8792 11.9021C10.833 11.8323 10.932 11.609 10.9584 11.5392C10.9782 11.4695 10.998 11.3997 11.0112 11.3299C11.0244 11.2741 11.031 11.1136 11.0772 11.0717C11.0574 11.0368 11.1168 10.9321 11.1299 10.9042C11.1695 10.7856 11.2091 10.674 11.2487 10.5553C11.2685 10.5065 11.3477 10.1576 11.4071 10.1366C11.4071 10.1087 11.4401 10.1017 11.4467 10.0738C11.4467 10.0738 11.4467 10.0669 11.4533 10.0669C11.4335 10.018 11.6315 9.99708 11.6645 10.0459C11.7107 10.0878 11.6843 10.1436 11.7107 10.1855C11.6975 10.1994 11.6975 10.2343 11.6843 10.2553C11.6843 10.2553 11.6843 10.2553 11.6777 10.2622C11.6711 10.2692 11.6711 10.2692 11.6711 10.2762C11.6711 10.2762 11.6711 10.2762 11.6645 10.2762C11.6513 10.2762 11.6645 10.3041 11.6513 10.3041C11.6447 10.3111 11.6447 10.3111 11.6381 10.3181C11.6381 10.3181 11.6315 10.3181 11.6315 10.325C11.6315 10.325 11.6315 10.325 11.6315 10.332C11.6315 10.332 11.6117 10.346 11.6117 10.353C11.6051 10.3599 11.5985 10.3599 11.5919 10.3599C11.5853 10.3669 11.5787 10.3809 11.5721 10.3879C11.5721 10.3879 11.5721 10.3879 11.5721 10.3948C11.5589 10.3948 11.5193 10.4786 11.5061 10.4855L11.4995 10.4925C11.4929 10.4925 11.4929 10.4995 11.4929 10.4995C11.4863 10.4995 11.4863 10.5065 11.4863 10.5135C11.4731 10.5135 11.4599 10.5623 11.4533 10.5693C11.4533 10.5902 11.4269 10.6042 11.4269 10.6251C11.4203 10.6321 11.4071 10.6879 11.4005 10.6879C11.3939 10.6949 11.3939 10.7088 11.3873 10.7158C11.3873 10.7158 11.3873 10.7228 11.3807 10.7228C11.3675 10.7437 11.3609 10.7647 11.3543 10.7856C11.3609 10.7926 11.3411 10.8414 11.3345 10.8414C11.3345 10.8484 11.3213 10.8693 11.3213 10.8763C11.3213 10.8763 11.2751 11.0368 11.2949 10.967C11.2817 11.0159 11.2355 11.0857 11.2421 11.1345C11.2355 11.1624 11.2289 11.1903 11.2289 11.2183C11.1827 11.3508 11.1497 11.4764 11.1102 11.602V11.609C11.097 11.63 11.0904 11.6579 11.0838 11.6788C11.0838 11.7067 11.064 11.7277 11.064 11.7556C11.0574 11.7556 11.0574 11.7625 11.064 11.7625C11.0574 11.7625 11.0574 11.7974 11.0508 11.8044C11.031 11.8533 11.0244 11.9091 11.0178 11.9649C11.031 11.9649 11.0112 11.9858 11.0112 11.9858C11.0112 11.9858 10.998 12.0766 10.998 12.0835C11.0244 12.1882 11.0178 12.2301 11.0046 12.2789ZM11.3807 12.3557C11.3675 12.3906 11.3675 12.4324 11.3675 12.4743C11.3675 12.4883 11.3675 12.5022 11.3609 12.5162C11.3675 12.5232 11.3609 12.5301 11.3675 12.5371C11.3675 12.5511 11.3675 12.5581 11.3609 12.565C11.3543 12.5999 11.3609 12.6488 11.3543 12.6627C11.3543 12.6627 11.3477 12.6627 11.3477 12.6557C11.2949 12.7046 11.2553 12.7465 11.1893 12.7186L11.1761 12.6767C11.1893 12.6069 11.1893 12.5371 11.1827 12.4673C11.1893 12.4324 11.1893 12.4045 11.1959 12.3696C11.1959 12.3627 11.1959 12.3557 11.1959 12.3487C11.1959 12.3348 11.1959 12.3278 11.1959 12.3138C11.2025 12.2789 11.2091 12.244 11.2025 12.2091C11.1827 12.2022 11.2223 12.0905 11.2091 12.0696C11.2223 12.0696 11.2355 11.9719 11.2619 11.9579C11.2619 11.951 11.2751 11.944 11.2817 11.944C11.3675 11.8184 11.3939 11.9858 11.4269 11.9789C11.4269 11.9858 11.4071 11.9719 11.4137 11.9998C11.4269 12.1184 11.4137 12.244 11.3807 12.3557ZM11.4137 11.6369C11.4071 11.6369 11.4071 11.6439 11.4005 11.6439C11.4005 11.6509 11.3939 11.6439 11.3939 11.6509H11.3873C11.3873 11.6509 11.3807 11.6509 11.3873 11.6579C11.3873 11.6579 11.3873 11.6579 11.3807 11.6579C11.3741 11.6579 11.3741 11.6579 11.3741 11.6649C11.3675 11.6718 11.3609 11.6649 11.3609 11.6649C11.3543 11.6649 11.3543 11.6649 11.3477 11.6649H11.3411C11.3345 11.6579 11.3279 11.6649 11.3213 11.6509C11.3147 11.6509 11.3147 11.6509 11.3147 11.6439C11.3147 11.63 11.3081 11.623 11.3081 11.609C11.3081 11.5113 11.4137 11.4764 11.4797 11.4555C11.4863 11.4555 11.4929 11.4834 11.4929 11.4834C11.4929 11.4904 11.4995 11.4904 11.4995 11.4974C11.4995 11.5044 11.4995 11.5183 11.4995 11.5253V11.5323C11.4929 11.5462 11.4863 11.5532 11.4797 11.5672L11.4467 11.602C11.4401 11.602 11.4269 11.616 11.4269 11.616C11.4203 11.623 11.4137 11.63 11.4137 11.6369ZM14.1061 11.4904C14.0995 11.4974 14.0929 11.5044 14.0929 11.5183C14.0929 11.5183 14.0929 11.5253 14.0863 11.5253C14.0863 11.5253 14.0863 11.5462 14.0797 11.5392C14.0797 11.5462 14.0533 11.5741 14.0467 11.5811C14.0203 11.609 13.7827 11.7416 13.7629 11.7137C13.7563 11.7137 13.6904 11.7486 13.6904 11.7486C13.6376 11.7835 13.5782 11.8114 13.5188 11.8393C13.5122 11.8463 13.499 11.8533 13.4858 11.8602C13.4858 11.8672 13.466 11.8672 13.4594 11.8742C13.4594 11.8742 13.4528 11.8742 13.4528 11.8812C13.4462 11.8812 13.4462 11.8812 13.4396 11.8882C13.4066 11.9091 13.3736 11.93 13.3406 11.944C13.3274 11.951 13.3142 11.9579 13.3076 11.9649C13.301 11.9649 13.2944 11.9649 13.2944 11.9719C13.2746 11.9789 13.2548 11.9928 13.235 12.0068C13.235 12.0068 13.2284 12.0068 13.2284 12.0138C13.2218 12.0207 13.2152 12.0207 13.2086 12.0277C13.2086 12.0417 12.9117 12.2091 12.8853 12.2301C12.8589 12.2371 12.8325 12.258 12.8127 12.2789L12.8061 12.2859C12.8061 12.2929 12.7863 12.2999 12.7863 12.2999C12.7863 12.3138 12.7467 12.3138 12.7467 12.3278L12.6741 12.3766C12.6741 12.3766 12.6675 12.3766 12.6675 12.3836C12.6543 12.3906 12.6411 12.3976 12.6345 12.4045C12.6279 12.4045 12.6279 12.4115 12.6213 12.4115H12.6147C12.6147 12.4115 12.6147 12.4115 12.6147 12.4185C12.6147 12.4185 12.6081 12.4185 12.6081 12.4255C12.5949 12.4324 12.5751 12.4464 12.5685 12.4604C12.5685 12.4604 12.5685 12.4604 12.5619 12.4604V12.4673C12.5619 12.4673 12.5619 12.4743 12.5553 12.4743C12.5487 12.4743 12.5487 12.4743 12.5487 12.4813C12.5487 12.4883 12.5487 12.5022 12.5487 12.5092C12.5487 12.5092 12.5553 12.5581 12.5487 12.565C12.5487 12.565 12.5421 12.6418 12.5421 12.6488V12.6557H12.5487C12.5355 12.6627 12.5487 12.7116 12.5421 12.7325C12.5421 12.7325 12.5421 12.7325 12.5421 12.7395V12.7534C12.5421 12.7534 12.5421 12.7534 12.5421 12.7604C12.5355 12.7744 12.5487 12.8023 12.5421 12.8093V12.8162C12.5421 12.8162 12.5487 12.8162 12.5421 12.8232V12.8302H12.5355V12.8372C12.5355 12.8302 12.5421 12.8442 12.5421 12.8442V12.8581C12.5421 12.8651 12.5421 12.879 12.5421 12.886C12.5421 12.893 12.5421 12.886 12.5421 12.893C12.5421 12.9 12.5421 12.907 12.5421 12.907C12.5421 12.9139 12.5421 12.9209 12.5421 12.9279C12.5487 12.9349 12.5421 12.9419 12.5421 12.9488V12.9558C12.5421 12.9628 12.5421 12.9558 12.5421 12.9628C12.5421 12.9628 12.5553 12.9907 12.5421 12.9977V13.0256C12.5421 13.0256 12.5421 13.0326 12.5487 13.0326C12.5487 13.0326 12.5487 13.0395 12.5421 13.0395C12.5619 13.0535 12.5355 13.0535 12.5355 13.0605V13.0675C12.5355 13.0744 12.5355 13.0814 12.5355 13.0884C12.5355 13.0954 12.5355 13.0954 12.5355 13.0954C12.5289 13.0954 12.5619 13.1023 12.5421 13.1093C12.5289 13.1163 12.5355 13.1372 12.5289 13.1512C12.5289 13.1512 12.5355 13.1721 12.5355 13.1861C12.5421 13.1931 12.5421 13.2 12.5421 13.207C12.5487 13.214 12.5487 13.207 12.5487 13.207V13.214C12.5487 13.207 12.5289 13.2838 12.5421 13.2628C12.5421 13.2628 12.5157 13.2768 12.5289 13.2908L12.5421 13.2838C12.5355 13.2977 12.5421 13.2908 12.5487 13.2977C12.5421 13.3047 12.5223 13.3256 12.5421 13.3396V13.3466H12.5487C12.5487 13.3466 12.5487 13.3466 12.5487 13.3536C12.5553 13.3466 12.5619 13.3536 12.5553 13.3536C12.5553 13.3605 12.5421 13.3885 12.5553 13.3815C12.5553 13.3954 12.5553 13.4024 12.5553 13.4164C12.5619 13.4164 12.5619 13.4164 12.5619 13.4233V13.4373C12.5619 13.4233 12.5553 13.4513 12.5553 13.4513C12.5553 13.4513 12.5553 13.4513 12.5553 13.4582C12.5619 13.4513 12.5553 13.4722 12.5553 13.4722C12.5553 13.4722 12.5619 13.4722 12.5619 13.4792C12.5619 13.4792 12.5619 13.4792 12.5685 13.4792C12.5685 13.4792 12.5817 13.4722 12.5751 13.4792C12.5751 13.4792 12.5751 13.4792 12.5817 13.4792C12.5817 13.4861 12.5817 13.4931 12.5817 13.4931C12.5883 13.5001 12.5883 13.5071 12.5883 13.5141C12.5883 13.5141 12.5883 13.5141 12.5883 13.521C12.5883 13.521 12.5883 13.521 12.5949 13.521C12.5949 13.528 12.5949 13.528 12.5949 13.521V13.528C12.5883 13.535 12.5817 13.542 12.5883 13.549C12.5883 13.549 12.5619 13.5559 12.5751 13.5559C12.5751 13.549 12.5817 13.549 12.5817 13.5559C12.5751 13.5629 12.5685 13.5559 12.5685 13.5629C12.5685 13.5629 12.5685 13.5629 12.5685 13.5699C12.5619 13.5769 12.5685 13.6118 12.5817 13.5838C12.5883 13.5838 12.5817 13.5978 12.5817 13.5978C12.5817 13.5908 12.5817 13.5908 12.5883 13.5978L12.5949 13.6048C12.5949 13.6048 12.5817 13.6048 12.5817 13.6118C12.5817 13.6118 12.6015 13.6187 12.5949 13.6187C12.5949 13.6187 12.6147 13.6257 12.6015 13.6327C12.6015 13.6187 12.5949 13.6327 12.6015 13.6327C12.6015 13.6327 12.5949 13.6397 12.5949 13.6327C12.6015 13.6397 12.6015 13.6397 12.5949 13.6397C12.6015 13.6536 12.5817 13.6397 12.5817 13.6397C12.5883 13.6466 12.5817 13.6397 12.5883 13.6466L12.5949 13.6536C12.5949 13.6536 12.5817 13.6676 12.5883 13.6676C12.5883 13.6676 12.5949 13.6676 12.5949 13.6746H12.6015V13.6885C12.6081 13.6885 12.6081 13.6955 12.6147 13.6885V13.6955C12.6081 13.6955 12.6081 13.7094 12.6015 13.7094C12.6015 13.7094 12.6081 13.7094 12.6081 13.7164L12.6015 13.7234C12.6015 13.7374 12.6015 13.7374 12.6147 13.7374L12.6015 13.7443C12.5223 13.8281 12.4365 13.856 12.3838 13.7234C12.3838 13.7792 12.3706 13.6536 12.3706 13.6536V13.6187C12.3772 13.5769 12.3772 13.535 12.3772 13.4931C12.3772 13.4513 12.3838 13.0884 12.3904 13.0884C12.3904 13.0814 12.3904 13.0744 12.3904 13.0675C12.3904 13.0605 12.3904 13.0535 12.3904 13.0535C12.3838 12.9977 12.3838 12.9419 12.3904 12.886C12.4036 12.879 12.3838 12.7255 12.3904 12.7046C12.397 12.7046 12.3838 12.6069 12.3904 12.5999C12.3574 12.6209 12.2848 12.7116 12.2452 12.7046C12.2518 12.7116 12.1858 12.7395 12.1858 12.7534C12.166 12.7604 12.1462 12.8023 12.1264 12.8023C12.1198 12.8023 12.1198 12.8023 12.1198 12.8093C12.034 12.9279 11.8756 12.9977 11.7766 13.1093C11.7569 13.1233 11.6447 13.214 11.6447 13.2419C11.5853 13.2628 11.5127 13.3815 11.4731 13.4233C11.4665 13.4303 11.4203 13.4722 11.4269 13.4792C11.4203 13.4931 11.4071 13.5001 11.4005 13.5071C11.3807 13.535 11.2289 13.6676 11.2355 13.6885C11.1234 13.7723 11.1102 13.6327 11.0706 13.5769C11.0706 13.5769 11.0772 13.5699 11.0706 13.5699C11.0772 13.4792 11.1893 13.4024 11.2487 13.3536C11.3213 13.2908 11.3939 13.1721 11.4797 13.1442C11.4797 13.1442 11.5061 13.1233 11.4995 13.1233C11.5061 13.1023 11.6051 13.0326 11.6051 13.0326C11.6117 13.0256 11.6645 12.9907 11.6579 12.9767C11.6645 12.9767 11.6909 12.9558 11.6909 12.9488C11.6909 12.9488 11.6909 12.9488 11.6975 12.9488C11.6975 12.9419 11.7107 12.9419 11.7107 12.9349C11.7898 12.9209 11.8558 12.7814 11.935 12.7465C11.9482 12.7395 11.9614 12.7186 11.9746 12.7186C11.9812 12.7186 11.9878 12.7046 11.9944 12.7046C11.9944 12.6906 12.0274 12.6906 12.0274 12.6767C12.0208 12.6767 12.0538 12.6557 12.0604 12.6557C12.067 12.6557 12.133 12.6069 12.133 12.5999C12.1396 12.5999 12.1594 12.579 12.1594 12.579C12.1792 12.572 12.1924 12.5581 12.2056 12.5441C12.2518 12.5232 12.2914 12.4534 12.3442 12.4394C12.3442 12.4255 12.397 12.3976 12.4102 12.3906C12.4102 12.3836 12.4102 12.3836 12.4102 12.3766V12.3557C12.4102 12.3557 12.4036 12.3487 12.4102 12.3487C12.4102 12.3278 12.4102 12.2999 12.4036 12.2789C12.397 12.2789 12.397 12.2789 12.3904 12.2859C12.3706 12.2999 12.3574 12.3068 12.3376 12.3208C12.3376 12.3278 12.3046 12.3278 12.3046 12.3348C12.3046 12.3417 12.2716 12.3417 12.2914 12.3417H12.2716C12.265 12.3348 12.265 12.3348 12.265 12.3417C12.2584 12.3487 12.2122 12.3487 12.2122 12.3487C12.2056 12.3487 12.2056 12.3487 12.199 12.3487C12.1792 12.3487 12.1594 12.3417 12.1462 12.3417C12.133 12.3348 12.1198 12.3278 12.1132 12.3208C12.1 12.2999 12.0934 12.2859 12.0802 12.272L12.067 12.1882C12.0604 12.1603 12.0802 12.0347 12.0604 12.0207C12.0538 11.9998 12.0868 11.9021 12.0736 11.8951C12.067 11.8882 12.0802 11.8533 12.0802 11.8463C12.0802 11.8463 12.1 11.7556 12.1 11.7416C12.1132 11.7137 12.1264 11.6858 12.1396 11.6579L12.1594 11.616C12.1792 11.5811 12.2056 11.5532 12.2386 11.5323C12.2386 11.5253 12.2452 11.5253 12.2452 11.5253C12.2518 11.5253 12.2584 11.5183 12.265 11.5113H12.2716C12.3046 11.4834 12.3574 11.4834 12.3904 11.5113C12.3904 11.5183 12.397 11.5253 12.3904 11.5323C12.3904 11.5392 12.3904 11.5392 12.3838 11.5462C12.397 11.5462 12.3706 11.5811 12.3772 11.5811C12.3772 11.5741 12.364 11.5951 12.3706 11.5951V11.602C12.3706 11.602 12.3706 11.602 12.364 11.602C12.364 11.609 12.3574 11.616 12.3574 11.616C12.3574 11.616 12.3508 11.616 12.3508 11.623C12.3508 11.63 12.3442 11.63 12.3376 11.63C12.331 11.623 12.3244 11.6579 12.3244 11.6509C12.3244 11.6579 12.3178 11.6579 12.3178 11.6579C12.3112 11.6579 12.3112 11.6649 12.3112 11.6718V11.6788C12.3112 11.6788 12.3112 11.6858 12.3046 11.6858C12.3046 11.6788 12.298 11.6997 12.298 11.6997V11.7067L12.2914 11.7137C12.2716 11.7207 12.2584 11.8602 12.2452 11.8602C12.2452 11.8602 12.2452 11.8882 12.2518 11.8882C12.2584 11.8951 12.2584 11.9091 12.2518 11.9161C12.2452 11.9719 12.2188 12.0696 12.2518 12.1184C12.2782 12.1603 12.3376 12.1812 12.3706 12.1254C12.3904 12.1115 12.4629 11.93 12.4299 11.9091C12.4431 11.8742 12.4234 11.8184 12.4431 11.7905C12.4431 11.7835 12.4431 11.7765 12.4431 11.7765C12.4431 11.6579 12.4563 11.5392 12.4827 11.4276C12.4893 11.4136 12.5025 11.4067 12.5091 11.3997H12.5157C12.5223 11.3439 12.6279 11.4206 12.6411 11.4346C12.6411 11.4346 12.6279 11.4764 12.6345 11.4764C12.6345 11.4904 12.6345 11.4974 12.6345 11.5113C12.6279 11.5113 12.6345 11.609 12.6345 11.616C12.6213 11.616 12.6411 11.616 12.6345 11.623C12.6279 11.63 12.6345 11.6439 12.6345 11.6369C12.6411 11.6369 12.6279 11.6439 12.6279 11.6439C12.6213 11.7067 12.6147 11.7625 12.6147 11.8253C12.6147 11.8393 12.6147 11.8533 12.6147 11.8742C12.6081 11.8951 12.6081 11.923 12.6081 11.944C12.6081 11.9579 12.5949 11.9858 12.6081 11.9928C12.6081 11.9858 12.6081 12.0835 12.6081 12.0766C12.6015 12.0835 12.6081 12.0975 12.6081 12.1045C12.6081 12.1045 12.6081 12.1045 12.6015 12.1045V12.1184C12.6015 12.1184 12.5949 12.1254 12.6015 12.1254C12.6015 12.1533 12.6147 12.2371 12.5949 12.251V12.258C12.6015 12.258 12.6081 12.251 12.6147 12.251C12.6873 12.1952 12.7599 12.1394 12.8457 12.0975C12.8457 12.0905 12.8985 12.0626 12.8985 12.0626C12.9249 12.0207 13.0107 11.9998 13.0503 11.9719C13.0503 11.9719 13.0503 11.9719 13.0569 11.9719C13.0569 11.9719 13.0569 11.9719 13.0635 11.9649C13.1624 11.937 13.2284 11.8393 13.3208 11.8044C13.3208 11.7974 13.367 11.7835 13.367 11.7765C13.4132 11.7137 13.5386 11.7207 13.5518 11.63C13.5518 11.609 13.5188 11.5323 13.5122 11.5044C13.5056 11.4416 13.532 11.3718 13.5254 11.309C13.5188 11.288 13.5386 11.2462 13.532 11.2183C13.4924 11.1973 13.5518 11.1345 13.5188 11.1136C13.466 11.0647 13.4462 11.1345 13.4 11.1485C13.4 11.1415 13.334 11.2601 13.3406 11.2392C13.3406 11.2392 13.3406 11.2392 13.3406 11.2462H13.334C13.334 11.2531 13.334 11.2601 13.334 11.2671C13.334 11.2741 13.334 11.2741 13.3274 11.2811C13.3274 11.2811 13.3274 11.309 13.3208 11.302V11.3159C13.3208 11.3229 13.3208 11.3229 13.3142 11.3299C13.3208 11.3299 13.3208 11.3299 13.3274 11.3369C13.3208 11.3439 13.3208 11.3578 13.3142 11.3648C13.3208 11.3718 13.3208 11.3857 13.3142 11.3927C13.3208 11.3997 13.3076 11.3927 13.3076 11.3997C13.3076 11.3997 13.3142 11.3997 13.3142 11.4067H13.3076V11.4206C13.3076 11.4136 13.3208 11.4416 13.3208 11.4346C13.3208 11.4416 13.3274 11.4695 13.3142 11.4625C13.3142 11.4346 13.3142 11.4695 13.3076 11.4695C13.3076 11.4764 13.301 11.4764 13.3142 11.4834C13.3142 11.4834 13.3142 11.4834 13.3142 11.4904H13.3076C13.301 11.5183 13.301 11.5532 13.3142 11.5532C13.3142 11.5602 13.3142 11.5811 13.3142 11.5881C13.301 11.5951 13.3076 11.5881 13.3142 11.5951C13.301 11.616 13.3142 11.63 13.3076 11.6369C13.3076 11.6509 13.3142 11.6579 13.3142 11.6718C13.3076 11.6718 13.3076 11.6928 13.301 11.6928C13.301 11.6997 13.2944 11.7067 13.2944 11.7137C13.2944 11.7207 13.2878 11.7416 13.2878 11.7346C13.2878 11.7346 13.2812 11.7416 13.2812 11.7346C13.2746 11.7905 13.1426 11.8044 13.1228 11.7486C13.1228 11.6997 13.1228 11.6579 13.1228 11.609C13.1228 11.602 13.1228 11.5951 13.1228 11.5951C13.1228 11.5881 13.1228 11.5811 13.1228 11.5741C13.1228 11.5602 13.1162 11.4485 13.1294 11.4346V11.4276C13.1228 11.4206 13.1294 11.3997 13.1294 11.3927C13.1096 11.295 13.1294 11.1903 13.1756 11.1066C13.2152 11.0647 13.2482 11.0647 13.301 11.0508C13.3472 11.0368 13.4066 11.0089 13.4528 11.0019C13.499 10.9182 13.5914 10.8833 13.6838 10.9042L13.7036 10.9252C13.7102 10.9182 13.7168 10.9461 13.7168 10.9531C13.7168 10.9531 13.7299 10.974 13.7365 10.988H13.7299C13.7299 10.981 13.7497 11.0857 13.7299 11.0717L13.7365 11.0996C13.7431 11.0996 13.7365 11.1066 13.7431 11.0996C13.7431 11.0926 13.7299 11.1275 13.7365 11.1206C13.7365 11.1275 13.7365 11.1415 13.7431 11.1485C13.7431 11.1485 13.7431 11.1485 13.7431 11.1554C13.7365 11.1554 13.7365 11.1554 13.7299 11.1554C13.7299 11.1694 13.7299 11.1834 13.7365 11.1973C13.7299 11.1903 13.7299 11.302 13.7299 11.309C13.7299 11.3159 13.7299 11.3229 13.7299 11.3229C13.7234 11.3369 13.7497 11.3578 13.7365 11.3718C13.7365 11.3857 13.7168 11.4555 13.7365 11.4695C13.7365 11.4695 13.7299 11.4764 13.7365 11.4764C13.7365 11.4764 13.7563 11.5044 13.7365 11.5044C13.7365 11.5113 13.7431 11.5113 13.7431 11.5044C13.7431 11.5044 13.7431 11.5044 13.7497 11.5113C13.7497 11.5113 13.7497 11.5113 13.7497 11.5183C13.7431 11.5253 13.7695 11.5462 13.7761 11.5462C13.7827 11.5462 13.8355 11.5462 13.8355 11.5323C13.9477 11.5044 13.8553 11.5183 13.8751 11.5113C13.8883 11.5044 13.9015 11.5044 13.9081 11.4904C13.9081 11.4904 13.9147 11.4904 13.9147 11.4834C13.9345 11.4764 13.9477 11.4695 13.9675 11.4555C13.9807 11.4485 13.9939 11.4416 14.0137 11.4346C14.0203 11.4067 14.1127 11.4346 14.1259 11.4346C14.1259 11.4346 14.1259 11.4346 14.1259 11.4276H14.1325C14.1325 11.4346 14.1391 11.4346 14.1391 11.4346C14.1523 11.4346 14.1589 11.4764 14.1721 11.4764C14.1721 11.4764 14.1853 11.5183 14.1787 11.5183C14.0995 11.4834 14.0995 11.4834 14.1061 11.4904Z" fill="white"/>
<path d="M29 9.3202C28.7756 10.0808 28.4853 10.8275 28.1487 11.5462C27.832 12.2301 27.4624 12.886 27.0467 13.5141L26.2812 14.6445H25.7071L26.7102 13.207L24.7503 9.3202H25.2914L27.0137 12.7395C27.3173 12.2301 27.5944 11.6997 27.832 11.1485C28.0959 10.5553 28.3203 9.94125 28.5117 9.31322H29V9.3202ZM19.2533 14.2049H19.0091L17.0756 9.86449C16.8975 9.45278 16.6269 9.25041 16.2574 9.25041C16.0462 9.24344 15.835 9.32717 15.6832 9.48767C15.5381 9.64817 15.4589 9.87147 15.4655 10.0948V14.6515H15.9406V10.1087C15.934 10.011 15.967 9.91334 16.0264 9.83658C16.0792 9.7668 16.1584 9.73191 16.2442 9.73191C16.3893 9.73191 16.5213 9.85751 16.6335 10.1087L18.6528 14.6515H19.7284V9.32717H19.2533V14.2049ZM23.998 12.1812V11.7207H21.2066V9.79471H24.2025V9.3202H20.7315V14.6445H24.2223V14.17H21.2V12.1812H23.998Z" fill="white"/>
</svg>
