<svg width="32" height="24" viewBox="0 0 32 24" fill="none" xmlns="http://www.w3.org/2000/svg">
<rect width="32" height="24" rx="4" fill="#FF6600"/>
<rect x="0.5" y="0.5" width="31" height="23" rx="3.5" stroke="white" stroke-opacity="0.01"/>
<g clip-path="url(#clip0_10328_10955)">
<path d="M25.965 14.4842C25.9977 14.2764 25.9977 14.0706 25.9977 13.9328C25.9304 13.8648 25.8285 13.8289 25.7612 13.8289C25.7612 13.727 25.7265 13.5871 25.7612 13.4492C25.8266 13.4492 25.9631 13.4832 25.9631 13.4492C25.9631 13.2414 25.9285 13.0356 25.8958 12.9317C25.8266 12.8978 25.7265 12.8618 25.6246 12.8278C25.6246 12.7239 25.5919 12.622 25.5573 12.5521C25.6592 12.5181 25.7265 12.5181 25.7939 12.5181C25.7939 12.5181 25.7265 12.2084 25.6939 12.0686C25.6246 12.0346 25.5246 12.0346 25.4573 12.0346C25.4227 11.9667 25.39 11.8967 25.3554 11.7928C25.4227 11.7589 25.4919 11.7589 25.5573 11.7249C25.49 11.5531 25.4554 11.4831 25.3881 11.3792H25.1515C25.1188 11.3113 25.0842 11.2414 25.0842 11.1734C25.1188 11.1375 25.1842 11.1035 25.2188 11.0695C25.1842 10.9676 25.1169 10.8637 25.0496 10.7938C24.9822 10.7938 24.9149 10.8277 24.8476 10.7938C24.8149 10.7938 24.713 10.6559 24.7457 10.6559C24.7784 10.586 24.8476 10.552 24.8803 10.518C24.7784 10.3802 24.7457 10.2763 24.6438 10.2083C24.5764 10.2083 24.5091 10.2083 24.4418 10.2423C24.4418 10.2423 24.3745 10.1384 24.3399 10.1044C24.2379 10.1044 24.4072 9.93261 24.4072 9.93261C24.3053 9.79474 24.2052 9.69084 24.0706 9.55297C24.0014 9.55297 23.9341 9.62091 23.9014 9.62091C23.9014 9.62091 23.7667 9.51701 23.7667 9.48304C23.7667 9.4151 23.9014 9.37914 23.9014 9.37914C23.9014 9.37914 23.6648 9.1034 23.4956 8.9995C23.4283 9.03347 23.3956 9.03347 23.3263 9.03347C23.2263 8.92957 23.0898 8.86164 23.0898 8.86164C23.0898 8.86164 23.1917 8.7917 23.1917 8.75774C23.0224 8.65384 22.9551 8.5859 22.8205 8.482C22.6859 8.41407 22.6186 8.31016 22.5512 8.20626C22.3147 7.82663 22.0108 7.27516 21.2684 7.17126C21.2684 7.17126 21.4377 7.41303 21.5396 7.58486C21.5396 7.60751 21.4947 7.61883 21.405 7.61883H21.1684C21.1011 7.51493 21.0665 7.48096 21.0319 7.41103C20.9646 7.27316 20.9319 7.23919 20.8626 7.16926C20.728 7.06536 20.0529 7.445 19.4779 7.58286C19.6144 7.7547 19.7491 7.8586 19.7817 7.92653C19.951 8.09837 20.1876 8.41007 20.3549 8.65184C20.3895 8.61787 20.4241 8.5839 20.4914 8.54794C20.9319 8.48 20.9319 8.3761 20.9319 8.3761C20.9319 8.3761 20.5934 8.09837 20.828 8.09837C20.828 8.09837 20.9972 8.13234 21.0646 8.0644C21.2338 8.03043 21.4358 7.99447 21.5377 8.0644C21.6723 8.1683 21.7396 8.30617 21.8416 8.41007C21.7742 8.41007 21.7069 8.3761 21.6396 8.3761C21.4377 8.34014 21.2338 8.3761 21.0646 8.41007C21.0646 8.41007 21.3357 8.65184 21.4011 8.75574C21.3357 8.72177 21.1319 8.75574 21.1319 8.75574C21.0299 8.7897 20.8953 8.82367 20.8626 8.82367C20.7626 8.85764 20.6607 8.82367 20.5934 8.85764C20.728 8.92557 21.3377 9.16734 21.6396 9.16734C21.9089 9.16734 22.0781 9.13138 22.3147 9.02947C22.3474 8.99551 22.4147 8.96154 22.4493 8.99551C22.5839 9.02947 22.6513 9.06544 22.7186 9.13337C23.5975 9.68684 24.5764 10.9976 24.8803 11.6869C25.1842 12.3423 25.3515 13.0676 25.3515 13.7569C25.3861 14.688 25.0823 15.5852 24.4745 16.3804C24.136 16.828 23.4956 17.2076 22.8205 17.2776C23.0224 17.5193 23.1244 17.899 23.2263 18.2446C23.2263 18.2446 23.4629 18.2107 23.5975 18.1407C23.5975 17.865 23.4283 17.5553 23.4283 17.4854C23.4283 17.4854 23.6302 17.3475 23.7994 17.3475C23.8321 17.4514 23.9341 17.6232 24.0706 17.865C24.2052 17.7951 24.3072 17.7271 24.4072 17.6232C24.4072 17.4514 24.3053 17.2436 24.2379 17.0378C24.4745 16.9339 24.6091 16.8999 24.6091 16.8999C24.6764 17.0038 24.8457 17.1077 24.8784 17.2116C24.8784 17.2116 25.0476 17.0398 25.115 16.866C25.0457 16.7281 24.9457 16.6242 24.8784 16.4863L25.1476 16.1766C25.1476 16.1766 25.3169 16.3145 25.3842 16.3844C25.4861 16.2465 25.5862 16.1087 25.6208 15.9348C25.4515 15.763 25.3842 15.763 25.3515 15.6591C25.4188 15.5552 25.4534 15.4173 25.5208 15.3134C25.6227 15.3474 25.69 15.4173 25.7573 15.4513C25.8227 15.3134 25.892 15.1056 25.892 14.9678C25.8227 14.8978 25.7227 14.8639 25.6554 14.7959C25.6881 14.6241 25.7227 14.4503 25.7227 14.4503C25.7227 14.4503 25.892 14.4842 25.9593 14.4842H25.965ZM14.7563 7.13529C14.7563 7.23919 14.7909 7.34309 14.8255 7.445C14.9928 7.5489 15.1967 7.61683 15.1967 7.61683C15.2294 7.51293 15.1621 7.40903 15.1621 7.30713C15.0967 7.06536 14.9928 6.82359 14.9601 6.54786V6.40999C14.8255 6.34205 14.689 6.30609 14.5197 6.23815C14.5197 6.23815 14.5197 6.44596 14.587 6.54986C14.6543 6.72169 14.7563 6.99743 14.7563 7.13529ZM14.8909 7.99647C14.9255 8.0664 14.9928 8.0664 15.0601 8.10037C15.1275 8.1683 15.1948 8.20427 15.2967 8.2722C15.4313 8.41007 15.4986 8.5839 15.6679 8.71977C15.7352 8.75374 15.7698 8.7897 15.8025 8.7897C15.8352 8.7897 15.9718 8.8936 16.0045 8.92757C16.0045 8.65184 15.9025 8.44404 15.8352 8.30617C15.8352 8.2722 15.8006 8.23823 15.7333 8.20227C15.6313 8.09837 15.5313 7.99447 15.4967 7.99447C15.3948 7.89057 15.3275 7.78867 15.2275 7.68477C15.1255 7.68477 15.0582 7.78867 14.9909 7.82263C14.9582 7.89057 14.8236 7.9605 14.889 7.99447L14.8909 7.99647ZM15.4313 8.82567C15.3986 8.82567 15.2967 8.7917 15.1602 8.75774H14.9909C15.0236 8.86164 15.1255 8.96554 15.1602 9.03347C15.1602 9.06744 15.1602 9.17134 15.1948 9.24127C15.2621 9.24127 15.3621 9.27524 15.4313 9.3112C15.4659 9.3112 15.6679 9.34517 15.7352 9.4151C15.8025 9.4151 16.0391 9.69084 16.0737 9.72481C16.1737 9.79474 16.2756 9.86267 16.343 9.82871C16.4103 9.82871 16.343 9.72481 16.343 9.69084C16.2083 9.48304 16.1064 9.1054 16.0737 9.1054C15.9718 9.07143 15.9045 9.1054 15.7698 9.03547C15.7025 8.96753 15.5006 8.86363 15.4313 8.82767V8.82567ZM21.3415 15.8649C21.4415 15.8989 21.5088 16.1406 21.5761 16.2106C21.6781 16.3484 21.6435 15.9688 21.6108 15.9009C21.6108 15.8669 21.6108 15.5912 21.5435 15.5912C21.5088 15.5572 21.4761 15.4533 21.4415 15.4193C21.4069 15.5232 21.4415 15.5912 21.4415 15.6951C21.4415 15.765 21.3069 15.8329 21.3415 15.8669V15.8649ZM9.69039 6.47992C9.92696 6.34205 10.3328 6.10029 10.4674 5.96242C10.502 6.03235 10.9078 6.27412 11.0751 6.37602C11.2098 6.47992 11.3444 6.51389 11.479 6.58382C11.5463 6.48192 11.6137 6.37602 11.681 6.13625C11.7829 6.20619 11.9175 6.20619 12.0175 6.24015C12.0175 6.37802 12.0175 6.51589 12.0522 6.65575C12.0522 6.72369 12.1195 6.68972 12.2541 6.62179C12.456 6.55385 12.658 6.51789 12.7599 6.48392C12.9946 6.34605 13.1311 6.07032 13.3331 6.07032C13.5023 6.07032 13.8062 6.17422 13.8735 6.24215C13.9754 6.27812 14.0427 6.31208 14.1447 6.31208C14.2793 6.31208 14.3812 6.17422 14.4812 6.10428C14.1774 5.89848 13.8408 5.69068 13.5023 5.55281C13.3004 5.72465 13.1638 5.86252 13.0638 5.86252C12.9638 5.86252 13.0292 5.65671 13.0292 5.51685C12.9272 5.51685 12.8599 5.51685 12.7599 5.48288C12.6926 5.72465 12.658 6.03635 12.4907 6.10428C12.4233 6.13825 12.3887 6.13825 12.356 6.13825V5.86252C12.356 5.82855 12.4907 5.58678 12.458 5.55281C12.458 5.55281 12.1541 5.62075 12.0868 5.65671C12.0522 5.69068 11.8502 5.79458 11.8156 5.79458C11.8156 5.79458 11.7137 5.76061 11.681 5.76061C11.579 5.69268 11.5117 5.69268 11.4117 5.62275C11.2771 6.03635 11.2425 6.14025 11.2425 6.07231C11.2425 6.07231 10.7693 5.76261 10.602 5.55481C10.1616 5.62275 10.1616 5.69268 9.7904 5.83055C9.65578 5.96841 9.45383 6.14025 9.31728 6.34805C9.24997 6.48592 9.18265 6.55585 9.11534 6.69172L9.45191 6.82959C9.48653 6.79562 9.65385 6.55385 9.68847 6.48592L9.69039 6.47992ZM17.1526 12.1725C17.22 12.2404 17.2546 12.3803 17.2873 12.62C17.3219 12.7579 17.3892 12.7919 17.4565 12.9997C17.5585 12.9317 17.7277 12.9657 17.7277 12.9657C17.7277 12.7939 17.6258 12.62 17.6258 12.5861C17.5912 12.5161 17.4911 12.3083 17.4565 12.2404C17.4911 12.2404 17.5912 12.3783 17.7604 12.3783C17.795 12.3783 17.897 12.4122 17.9623 12.3783C17.9623 12.3783 18.0624 12.4482 18.0624 12.5161C18.1297 12.62 18.1297 12.688 18.1643 12.7919C18.2297 12.7919 18.2643 12.7919 18.2989 12.7579C18.4335 12.7579 18.5009 12.7239 18.5009 12.7239C18.4682 12.656 18.4335 12.5861 18.4335 12.5161C18.3989 12.4482 18.3335 12.2744 18.3335 12.2744L18.9413 12.1705C18.9413 12.0666 18.9086 11.9287 18.8067 11.8588C18.5028 11.9627 18.1662 11.9966 17.9296 11.9966C17.5912 11.9966 17.2546 11.9267 16.7815 11.7209C16.7468 11.7888 16.7815 11.9267 16.7815 11.9267C16.9834 12.1005 16.9834 11.9966 17.1526 12.1685V12.1725ZM16.0372 10.1704C16.1045 10.4461 16.2064 10.7918 16.241 11.2054C16.241 11.3093 16.2064 11.4132 16.241 11.5171L16.7122 11.6889C16.7122 11.6889 16.6468 11.2753 16.5776 10.7918C16.5103 10.3782 16.4757 10.2403 16.3757 10.0665C16.3083 10.1004 16.2737 10.1004 16.2064 10.1004C16.1045 10.1344 16.0372 10.1684 16.0372 10.1684V10.1704ZM21.1357 11.619C20.6972 11.1714 20.2241 10.8937 19.751 10.8937C19.3471 10.8937 19.0413 11.2034 19.0413 11.5151C19.0413 12.7579 19.5144 13.5511 19.8183 14.2405C19.9183 14.4123 19.9529 14.5502 19.9529 14.724C19.9875 15.1736 19.6163 16.0008 19.3798 16.4484C19.3471 16.4144 19.1778 16.3804 19.0413 16.3804C18.7047 16.3804 18.5682 16.6202 18.5009 16.828C18.3989 16.828 18.3335 16.7601 18.2297 16.7601C17.8258 16.7261 17.4873 17.1037 17.4873 17.5193C17.4873 17.9669 17.5873 18.2087 17.7566 18.5204H18.095C18.0604 18.4165 17.9604 17.899 17.9258 17.7611C17.8931 17.5553 17.9604 17.4154 18.0604 17.3115C18.1951 17.1037 18.5336 17.1737 18.5336 17.1737C18.4335 17.3455 18.297 17.6212 18.297 17.897C18.3316 18.0708 18.3643 18.3465 18.4662 18.5184H18.7355C18.8009 18.3106 18.7355 18.1387 18.7355 17.9649C18.7355 17.863 18.7355 17.7591 18.7682 17.6552C18.7682 17.5873 18.9374 17.7931 18.9374 17.7931C18.9374 17.7931 19.0721 17.6212 19.0721 17.4834C19.0721 17.3795 18.8701 17.4154 18.8374 17.3115C18.8028 17.2076 18.9047 16.9659 18.9047 16.9659C19.1067 16.828 19.2759 16.862 19.3432 16.862C19.4433 16.862 19.4779 16.8959 19.6125 16.8959C19.7125 16.8959 19.7471 16.6901 19.7471 16.5862C19.7798 16.6202 19.8818 16.6901 19.9164 16.6901C20.0183 16.7241 20.051 16.7241 20.1529 16.7581C20.2876 16.826 20.4241 16.8959 20.5587 17.0338V16.9998C20.5241 16.862 20.5914 16.6901 20.4914 16.6202C20.4914 16.6202 20.3222 16.4823 20.1876 16.4124C20.1202 16.3445 20.0183 16.3445 19.9856 16.2745C19.951 16.2406 19.951 16.2046 19.951 16.1367C19.951 16.0687 19.9856 15.9648 20.0183 15.9648C20.0856 15.9308 20.1202 15.9648 20.2549 16.0328C20.3895 16.1027 20.5241 16.2066 20.6261 16.2745C20.6261 16.2745 20.6588 16.3425 20.6588 16.3085C20.7934 16.2406 20.7934 16.2046 20.7934 15.9988C20.6588 15.825 20.7934 15.791 20.5914 15.6531C20.5241 15.6531 20.1529 15.5152 20.1529 15.5152C20.1529 15.4453 20.2549 15.2735 20.2549 15.2735C20.2895 15.2395 20.3549 15.2395 20.3895 15.3074C20.5914 15.4453 20.7261 15.4453 20.9299 15.5152C20.9626 15.4113 20.9626 15.3434 20.8953 15.2735C20.8261 15.1696 20.7261 15.0657 20.6588 15.0317C20.5241 14.9977 20.4568 14.9638 20.3549 14.9278C20.3549 14.8239 20.3222 14.72 20.2876 14.5821C20.2876 14.5122 20.3549 14.5482 20.4222 14.5482C20.5568 14.5142 21.13 14.72 21.13 14.72C21.13 14.5821 21.0953 14.4782 21.028 14.4103C20.9607 14.3404 20.8934 14.2724 20.7241 14.2025C20.4876 14.1326 20.2856 14.1685 20.1164 14.0646C19.9818 13.9268 19.9471 13.8928 19.9145 13.7549C20.0164 13.721 20.1837 13.687 20.2856 13.687C20.4549 13.687 20.5568 13.653 20.7588 13.721C20.8242 13.7549 21.0626 13.9627 21.1646 13.9627C21.1646 13.9627 21.0973 13.687 21.028 13.5831C20.928 13.5831 20.7588 13.3753 20.6915 13.3413C20.353 13.2035 20.2856 13.2734 20.0837 13.3074C19.9837 13.3413 19.8818 13.3074 19.7798 13.3074C19.7471 13.2394 19.8471 13.1355 19.8144 13.0656C19.8144 13.0316 19.6779 12.9957 19.6779 12.9277C19.6779 12.9277 20.2183 12.8578 20.4222 12.8938C20.4895 12.9277 20.6915 13.0676 20.7607 13.0676C20.7607 13.0676 20.8261 12.8258 20.7261 12.618C20.5587 12.5841 20.3895 12.618 20.2529 12.5841C20.1183 12.5501 19.9837 12.5841 19.8818 12.5841C19.7798 12.5841 19.6779 12.5501 19.5779 12.5501C19.5106 12.4462 19.4759 12.3423 19.4759 12.2404C19.4759 12.2404 20.3203 12.2064 20.3876 12.1725C20.353 12.1365 20.2856 12.1045 20.2529 12.0346C20.1183 11.7928 20.0164 11.7589 19.8471 11.7589C19.7452 11.7589 19.5106 11.8628 19.374 11.8268C19.374 11.5511 19.5086 11.3093 19.7106 11.3093C20.1164 11.3093 20.5203 11.4811 20.8588 11.8608C21.7031 12.7579 22.1416 14.4483 22.1416 15.6571C22.1416 16.2086 22.0743 16.7261 22.007 17.1397C22.1089 17.1737 22.1743 17.1737 22.2762 17.1737C22.3782 16.7601 22.4782 16.2066 22.4782 15.6891C22.4782 13.9288 21.8704 12.4462 21.128 11.617L21.1357 11.619ZM14.6543 8.99751C14.6216 9.03147 14.587 9.10141 14.587 9.13537C14.5197 9.23927 14.4197 9.30921 14.4851 9.41311C14.5197 9.55097 14.5197 9.68884 14.6216 9.79274C14.7236 9.89664 14.8582 9.86068 14.9928 9.96458C14.9928 9.96458 14.8909 9.51501 14.8255 9.30921C14.7909 9.17134 14.7236 9.10141 14.6563 8.9995L14.6543 8.99751ZM18.8067 13.3453C18.774 13.2414 18.672 13.2075 18.6047 13.1375C18.6047 13.1375 18.1662 12.9657 18.0989 12.9657C18.0316 12.9997 18.2681 13.1375 18.3008 13.2075C18.4355 13.3453 18.774 13.657 18.774 13.657L18.8067 13.3473V13.3453ZM15.6006 11.0675C15.7025 11.0675 15.7698 11.1355 15.8371 11.1355C15.8371 11.0336 15.8025 10.9636 15.7698 10.8597C15.7352 10.6879 15.6679 10.584 15.6333 10.4801C15.6333 10.3762 15.6333 10.3082 15.6006 10.2383C15.5679 10.2383 15.5333 10.2383 15.4986 10.2043C15.3967 10.2043 15.2621 10.1704 15.2621 10.1704C15.2621 10.2743 15.2967 10.4461 15.2967 10.55C15.2967 10.584 15.4313 10.8957 15.4659 10.9297C15.5006 10.9996 15.5333 11.0336 15.6006 11.0675ZM21.4761 16.6921C21.4761 16.6581 21.3742 16.5882 21.3415 16.5882C21.3415 16.5542 21.3069 16.4144 21.2723 16.3804C21.205 16.3464 21.205 16.3105 21.1376 16.3105C21.1376 16.3445 21.1376 16.3804 21.103 16.4484C21.103 16.5163 21.0357 16.5523 21.0703 16.6202C21.103 16.6901 21.1376 16.6901 21.205 16.7241C21.2377 16.7581 21.3415 17.0338 21.3742 17.0698C21.4088 17.0358 21.4088 16.828 21.4761 16.6901V16.6921ZM18.8778 14.7939C19.0124 14.69 19.0451 14.4842 19.0798 14.3803C19.1144 14.2764 19.0451 14.0706 19.0124 14.0007C18.9124 14.0007 18.8451 13.9308 18.7759 13.9308C18.7066 13.9308 18.6759 13.7589 18.5739 13.7929C18.6086 13.8628 18.6759 14.2065 18.7086 14.2764C18.7432 14.3104 18.8778 14.5522 18.8778 14.7939ZM22.4897 17.7611C22.4897 17.7611 22.4551 17.865 22.4224 17.9329C22.3551 18.1068 22.3224 18.1747 22.3224 18.2786C22.4224 18.3485 22.457 18.3126 22.5916 18.3126C22.6589 18.3126 22.7263 18.3485 22.7609 18.3485C22.8282 18.3126 22.7609 18.2446 22.7609 18.2107C22.7263 18.2107 22.5916 17.899 22.4916 17.7611H22.4897ZM16.7834 12.654C16.7834 12.654 16.3776 12.4122 16.3103 12.3083C16.2423 12.3083 16.175 12.343 16.1083 12.4122C16.041 12.4122 16.0064 12.4482 15.9737 12.5161C16.0756 12.5861 16.1083 12.62 16.2103 12.688C16.2449 12.7219 16.2776 12.7219 16.3795 12.688H16.6507C16.7161 12.688 16.7853 12.7219 16.7853 12.654H16.7834ZM15.8718 11.8947C15.8391 11.8268 15.7698 11.6869 15.7371 11.653C15.7044 11.585 15.6698 11.5151 15.6352 11.4811C15.6025 11.4472 15.4679 11.4811 15.4006 11.4811C15.3332 11.4811 15.2986 11.4811 15.2313 11.5151C15.2986 11.583 15.3659 11.8248 15.4006 11.8248C15.4333 11.8927 15.4333 11.9287 15.5025 11.9627C15.6717 11.9966 15.8064 11.9627 15.9756 12.0306C16.0429 11.9267 15.9083 11.9267 15.8737 11.8927L15.8718 11.8947ZM18.4374 14.6201C18.4374 14.5162 18.4028 14.4123 18.3374 14.3444C18.3028 14.2405 18.2701 14.1026 18.2701 14.0347C18.2354 13.9667 18.1008 13.7589 18.0335 13.655C17.9662 13.5871 17.9662 13.4133 17.9316 13.3094L17.5258 13.3773C17.7296 13.653 17.8989 13.9288 17.9989 14.2065C18.0335 14.3104 18.3374 15.3454 18.3374 15.3454C18.4374 15.3114 18.3028 14.7919 18.3374 14.758C18.3701 14.69 18.3701 14.6541 18.4374 14.6201ZM17.12 13.4133C17.12 13.1036 17.0526 13.1036 16.918 12.9637C16.918 12.9637 16.8161 13.1715 16.7488 13.2734C16.8834 13.4113 16.918 13.5831 16.918 13.5831C17.0526 13.4452 17.0526 13.4792 17.12 13.4113V13.4133ZM21.8473 18.1407H21.6781C21.6108 18.1068 21.5762 18.1068 21.5435 18.1407C21.4415 18.2446 21.4415 18.4165 21.3742 18.5204H21.78C21.8473 18.4504 21.9146 18.4165 21.9146 18.2786C21.9146 18.2446 21.9146 18.1747 21.8473 18.1407ZM17.5258 14.1725C17.5258 14.1725 17.4584 14.0347 17.4584 14.0007C17.4258 13.9308 17.3911 13.8269 17.2892 13.7929C17.2892 13.7589 17.2546 13.9308 17.2219 14.0007C17.1873 14.0686 17.1873 14.0347 17.12 14.1725C17.1873 14.2764 17.2219 14.3444 17.2892 14.4483C17.2892 14.4822 17.3911 14.6201 17.3911 14.6201C17.3911 14.6201 17.5258 14.3444 17.5258 14.2744V14.1705V14.1725ZM11.1117 11.0655C11.2136 11.0655 11.3156 10.9636 11.4156 10.9277C11.6175 10.8597 11.7867 10.7898 11.9887 10.7558C12.0579 10.7199 12.0579 10.6519 12.0579 10.582C12.081 10.5367 12.0925 10.4794 12.0925 10.4101C12.0925 10.3762 11.9579 10.3422 11.8887 10.2023C11.8214 10.0984 11.8887 9.99455 11.8541 9.99455C11.7541 10.0625 11.6175 10.1324 11.5848 9.99455C11.5502 9.89065 11.5502 9.75278 11.6521 9.71881C11.9887 9.58095 12.3618 9.58095 12.6984 9.71881C12.7657 9.71881 12.7984 9.78875 12.7984 9.85668C12.8311 9.92461 12.7984 9.99455 12.7311 10.0645C12.6291 10.0984 12.5272 9.96058 12.5272 10.0645C12.5272 10.1684 12.4599 10.3062 12.2906 10.3762C12.2579 10.4101 12.2906 10.514 12.3253 10.6179C12.3253 10.6519 12.3253 10.7199 12.358 10.7199C12.4926 10.7558 12.6965 10.7898 12.7965 10.8577C12.9311 10.9257 13.1677 11.1335 13.2023 11.0995C13.3023 11.0316 13.3369 10.9277 13.4042 10.8577C13.7754 11.0296 14.0793 11.1335 14.5524 11.4452C14.6197 11.4452 14.6197 11.3073 14.6197 11.2374C14.4505 11.1335 13.9427 10.8577 13.8773 10.8238C13.7427 10.7898 13.6754 10.7199 13.5388 10.6859V10.4101C13.7754 10.4781 14.2466 10.514 14.7216 10.7898C14.7543 10.6859 14.8236 10.6179 14.789 10.582C14.2466 10.3062 13.8446 10.2023 13.5061 10.2023C13.5061 10.1684 13.4388 10.1324 13.5061 10.0984C13.6081 10.0305 13.6408 9.99455 13.6754 9.96058C13.7754 9.82271 13.8446 9.68485 13.8773 9.54698C13.9793 9.33918 14.0793 9.40911 14.1485 8.95954C14.0466 8.95954 14.012 9.02748 13.912 9.06344C13.9446 8.95954 13.9793 8.85564 13.9793 8.75374C14.012 8.54594 14.0812 8.40807 14.0812 8.1663C14.1831 8.13234 14.3524 8.02844 14.3851 7.89057C14.3851 7.8566 14.3851 7.7527 14.4197 7.61483C14.4197 7.40703 14.4524 7.2352 14.3851 7.09733C14.3851 7.06336 14.1485 6.71769 13.9793 6.61379C13.7427 6.50989 13.6427 6.54586 13.4734 6.57983C13.2715 6.57983 13.0003 6.78763 13.0003 7.16726C12.7984 7.16726 12.3926 7.20123 12.1579 7.40903C11.956 7.30513 11.7867 7.27116 11.6175 7.2372H11.3136C11.2809 7.09933 11.2117 6.96146 11.0771 6.85756C10.9078 6.75366 10.704 6.61579 10.4693 6.61579C10.3674 6.61579 10.2674 6.58182 10.1654 6.64976C10.0635 6.71769 9.89618 6.78763 9.86156 6.92549C9.79425 7.09733 9.72694 7.2352 9.72694 7.40903C9.72694 7.58286 9.82887 7.71873 9.92888 7.89257C9.96157 7.9625 9.99619 7.9625 10.0635 7.99647C10.0981 7.99647 10.2328 8.0664 10.2654 8.10037C10.2981 8.13433 10.2328 8.23823 10.2328 8.44603C10.2328 8.56059 10.2437 8.66383 10.2654 8.75574C10.2654 8.8936 10.2981 9.03147 10.3328 9.13537C10.2328 9.13537 10.1635 9.03147 10.0962 9.10141C10.0962 9.17134 10.1635 9.34317 10.2308 9.48104C10.4001 9.65288 10.5674 9.82671 10.6693 10.0325C10.6693 10.0665 10.6693 10.1364 10.702 10.1364C10.4655 10.1704 10.2308 10.1704 9.99427 10.2403C9.79233 10.3082 9.55577 10.4121 9.35382 10.516C9.35382 10.6539 9.38652 10.7578 9.38652 10.7578C9.42114 10.7578 9.72501 10.584 9.99427 10.516C10.4328 10.3782 10.6693 10.4121 10.6693 10.4121C10.702 10.4801 10.7366 10.584 10.702 10.6199C10.2981 10.7918 9.89234 10.9996 9.51922 11.2414C9.55384 11.3113 9.51922 11.4132 9.58846 11.4831C9.92696 11.2753 10.3982 11.0355 10.7366 10.8977C10.8713 10.8637 10.8713 10.8977 10.9386 10.8977C10.9713 10.9316 11.0386 11.0695 11.1059 11.0695L11.1117 11.0655ZM13.2734 10.582C13.1388 10.548 13.0369 10.4441 12.8676 10.4441C12.8676 10.3762 12.8792 10.3302 12.9022 10.3062C13.1042 10.2723 13.2061 10.3402 13.3061 10.3762C13.3061 10.4101 13.2715 10.582 13.2715 10.582H13.2734ZM13.6446 8.44404C13.61 8.51197 13.5427 8.54594 13.4754 8.5819C13.4408 8.5819 13.4081 8.64984 13.4081 8.68381C13.3388 8.78771 13.2388 8.82167 13.1042 8.82167C13.0369 8.82167 12.9022 8.82167 12.833 8.68381C12.833 8.68381 12.8657 9.09741 12.8657 9.20131C12.8657 9.23528 12.9003 9.23528 12.9003 9.23528C13.0349 9.26924 13.0696 9.40911 13.1369 9.47704C13.1369 9.47704 13.1715 9.51101 13.2061 9.51101C13.3407 9.61491 13.6446 9.75278 13.51 9.75278C13.51 9.82271 13.41 9.99455 13.3754 9.99455C13.2734 9.89065 13.1042 9.82271 12.9696 9.75278C12.9369 9.68484 12.9022 9.61491 12.8676 9.54698C12.8003 9.47704 12.7676 9.47704 12.6657 9.40911C12.6657 9.16734 12.633 9.16734 12.633 8.92557C12.633 8.89161 12.5657 8.51197 12.5657 8.51197C12.5657 8.478 12.6676 8.3741 12.7676 8.34014C12.7676 8.34014 13.41 8.34014 13.7119 8.3761C13.7119 8.3761 13.6792 8.44404 13.6446 8.44404ZM13.4408 6.99543C13.5427 6.89153 13.6792 6.85756 13.8119 6.89153C13.9812 6.92549 14.0139 6.95946 14.0812 7.02939C14.1831 7.16726 14.1504 7.443 14.1139 7.61483C14.0812 7.71873 13.9793 7.78867 13.8773 7.78867C13.7081 7.58087 13.5388 7.443 13.3023 7.37306C13.2677 7.2352 13.3715 7.09733 13.4369 6.99343L13.4408 6.99543ZM12.8003 7.68477C12.8676 7.68477 13.4408 7.82263 13.0696 7.99447C13.0023 8.0644 12.833 8.02844 12.6638 8.02844C12.6638 7.9605 12.6638 7.82263 12.5964 7.82263C12.5272 7.7527 12.4272 7.7527 12.4272 7.68477C12.2906 7.5469 12.6291 7.6508 12.7984 7.68477H12.8003ZM11.4156 7.82263C11.5175 7.7527 11.6175 7.68477 11.6848 7.68477C11.7521 7.6508 11.8868 7.61483 11.8868 7.68477C11.8868 7.82263 11.7848 7.89257 11.6848 8.02844C11.6156 8.13234 11.5829 8.0624 11.4156 8.0624H11.2463C11.2463 7.9585 11.3156 7.92454 11.4156 7.82064V7.82263ZM10.402 7.8566C10.3347 7.78867 10.1981 7.68477 10.1308 7.5469C10.0308 7.40903 10.0635 7.27116 10.0635 7.2372C10.1308 7.02939 10.3674 6.96146 10.5039 6.92749C10.5712 6.92749 10.6386 6.92749 10.7405 6.99743C10.8751 7.06536 10.9424 7.06536 11.0098 7.30713C11.0098 7.34309 11.0098 7.37506 10.9751 7.37506C10.9751 7.37506 10.7732 7.51293 10.704 7.58286C10.5366 7.68676 10.502 7.8586 10.4001 7.8586L10.402 7.8566ZM10.9751 9.61691C11.0424 9.51301 11.179 9.44508 11.279 9.41111C11.4136 9.37714 11.379 9.10141 11.379 9.06544C11.4136 8.99551 11.379 8.8936 11.379 8.82367C11.3117 8.85764 11.3117 8.82367 11.1771 8.85764C11.0405 8.85764 10.9732 8.78771 10.9078 8.71977C10.8386 8.65184 10.6713 8.51197 10.6039 8.3761C10.7713 8.34014 10.9078 8.34014 11.0771 8.34014H11.5156C11.6156 8.3761 11.6848 8.44404 11.6848 8.51197C11.6848 8.54594 11.6521 8.75374 11.6521 8.78771C11.6175 8.99551 11.6175 9.06344 11.5848 9.37514V9.47904C11.5502 9.54898 11.4156 9.58294 11.3482 9.65088C11.3136 9.75478 11.3136 9.82271 11.2136 9.85868C11.1117 9.89265 11.0444 9.99655 10.9771 9.96258C10.8751 9.89464 10.9097 9.72081 10.9771 9.61691H10.9751ZM11.2117 10.3422C11.2809 10.3422 11.3463 10.3422 11.4136 10.3762C11.379 10.4101 11.2444 10.4801 11.2444 10.4801C11.179 10.514 11.1444 10.548 11.0424 10.584C11.0098 10.516 10.9751 10.3782 10.9751 10.3782C10.9751 10.3782 11.1098 10.3442 11.2117 10.3442V10.3422ZM14.5197 12.0326C14.6216 12.1705 14.7236 12.2744 14.8255 12.3783C14.8582 12.4482 14.9601 12.4482 15.0274 12.4482H15.3659C15.4679 12.4122 15.5352 12.4122 15.6025 12.3443C15.4679 12.2764 15.2986 12.2064 15.1621 12.1365C15.0274 12.0686 14.9255 11.9986 14.8255 11.8947C14.7563 11.8947 14.7236 11.9287 14.689 11.9287C14.6216 11.9647 14.587 11.9986 14.5197 12.0326ZM16.0064 13.2055H16.1756C16.2449 13.2055 16.2449 13.0676 16.1756 13.0676C15.9391 12.9977 15.7371 12.9297 15.6025 12.7219C15.5698 12.7559 15.3659 12.8258 15.2986 12.8938C15.2986 12.8938 15.3659 13.0676 15.5352 13.2394C15.6352 13.3433 15.8391 13.2734 16.0083 13.2055H16.0064ZM20.5972 18.2426C20.5645 18.3465 20.5299 18.4145 20.4626 18.4844C20.4972 18.5184 20.5645 18.5184 20.5972 18.5184H20.9357C20.9684 18.4844 20.9684 18.3805 21.0011 18.3106C21.0011 18.2426 21.0338 18.1727 21.0338 18.0688H20.8318C20.7318 18.0688 20.6299 18.1387 20.5953 18.2406L20.5972 18.2426ZM17.897 15.2055C17.8623 15.1356 17.8277 15.0317 17.795 14.9638C17.795 14.9298 17.795 14.8599 17.7604 14.756C17.7604 14.756 17.5238 14.9278 17.4911 14.9638C17.6258 15.1356 17.5585 15.2415 17.5912 15.3774C17.5912 15.4453 17.7277 15.4813 17.7604 15.5852C17.7604 15.6191 17.695 15.9289 17.695 15.9289C17.897 15.6531 17.897 15.3074 17.897 15.2055ZM19.651 17.0338C19.4817 17.0338 19.2798 17.2416 19.1451 17.895C19.1105 18.1367 19.0778 18.3445 19.1105 18.4824L19.4144 18.5164C19.4817 18.4125 19.4817 18.2406 19.549 18.1028C19.549 18.0348 19.6163 18.0348 19.6837 18.0348C19.7529 18.0688 19.8875 18.2426 19.9548 18.3106C19.9895 18.2426 20.0568 18.1028 20.0568 18.0009C20.0568 17.9669 19.9548 17.897 19.9221 17.897C19.8221 17.829 19.7529 17.7591 19.6183 17.7591C19.5837 17.6212 19.7856 17.4494 19.7856 17.4494C20.0222 17.4494 20.2587 17.7251 20.2587 17.7251C20.326 17.6912 20.3587 17.5873 20.428 17.5193C20.226 17.1397 19.8529 17.0358 19.651 17.0358V17.0338ZM16.9488 14.6181C16.9161 14.722 16.8142 14.7899 16.8142 14.9278C16.8142 14.9278 16.9834 15.0996 17.0161 15.2035C17.0507 15.2715 17.0161 15.5832 17.0507 15.6511C17.1526 15.5472 17.22 15.5132 17.22 15.3754C17.1853 15.3414 17.1526 15.0637 17.118 14.8579C17.118 14.7879 17.0161 14.686 16.9488 14.6161V14.6181ZM13.912 12.1325C13.912 12.1325 13.9446 12.3063 14.012 12.4782C14.0466 12.5481 14.1139 12.616 14.1485 12.616C14.2139 12.65 14.3505 12.684 14.4524 12.684V12.616C14.3524 12.5121 14.2158 12.2704 14.2158 12.2024C14.1722 12.1798 14.1165 12.1685 14.0485 12.1685C14.0139 12.1325 13.9466 12.1325 13.9139 12.1325H13.912ZM15.5313 13.685C15.464 13.6171 15.3967 13.5471 15.2948 13.4772C15.1582 13.4432 15.0928 13.3733 15.0236 13.2354C14.9909 13.1675 14.9563 13.0976 14.889 13.0276C14.8236 13.0276 14.789 13.0616 14.7216 13.0976C14.6524 13.1675 14.5178 13.1675 14.4505 13.2694C14.4832 13.3373 14.5178 13.4073 14.5851 13.4772C14.6197 13.5112 14.6524 13.5811 14.789 13.649C15.0236 13.7869 15.0928 13.8209 15.0928 13.8209C15.2948 13.8548 15.5313 13.683 15.5313 13.683V13.685ZM8.74607 8.6878C8.79095 8.61987 8.83582 8.56259 8.8807 8.51597C9.01725 8.41207 9.08457 8.34413 9.25381 8.20626C9.28651 8.13633 9.32113 8.1723 9.42306 8.10236C9.45768 8.0684 9.49037 8.03243 9.49037 7.99846C9.49037 7.93053 9.45576 7.8606 9.42306 7.79266C9.38844 7.72273 9.32113 7.55089 9.32113 7.51493C9.32113 7.23919 9.35575 7.17126 9.38844 6.92949C9.25381 6.89552 9.08457 6.89552 9.01725 7.03339C8.94994 7.13729 8.94994 7.24119 8.94994 7.34509C8.94994 7.51693 8.98263 7.65479 9.01725 7.86259C8.8807 7.9665 8.81339 8.03443 8.68068 8.10436C8.71338 8.31216 8.74607 8.6898 8.74607 8.6898V8.6878ZM13.912 13.2075C13.7773 12.9997 13.7427 12.7939 13.7427 12.7599C13.6754 12.69 13.81 12.4502 13.6408 12.4502C13.5735 12.4142 13.3715 12.3463 13.3715 12.3463C13.3369 12.4502 13.3369 12.656 13.3715 12.7599C13.3715 12.8638 13.5388 13.1735 13.6062 13.2075C13.6408 13.2414 13.8081 13.2414 13.8427 13.2414C13.8754 13.2075 13.91 13.2075 13.91 13.2075H13.912ZM12.8657 11.9307C12.933 11.8628 13.0003 11.7249 13.0003 11.6889C13.0676 11.5511 13.0676 11.3792 13.0676 11.2414C12.7984 11.0675 12.4599 11.0336 12.1233 11.0336C11.8194 11.0336 11.481 11.0675 11.1444 11.3093C11.179 11.4472 11.2117 11.5511 11.279 11.6889C11.3117 11.6889 11.3463 11.7589 11.379 11.7589C11.4463 11.6889 11.5156 11.587 11.6156 11.5511V11.6889C11.6156 11.7928 11.6156 11.8608 11.6502 11.9667C11.6502 12.0686 11.7521 12.0686 11.8868 12.0686C12.0214 12.0686 12.056 11.8268 12.056 11.7928C12.056 11.7928 12.0906 11.9307 12.2906 12.0346C12.2906 12.0346 12.5272 12.0346 12.5272 12.0006C12.5618 11.8288 12.5964 11.7928 12.5618 11.655C12.5618 11.655 12.7638 11.7928 12.8657 11.9307ZM14.1831 14.1745C14.3178 14.2784 14.587 14.2425 14.8255 14.2085C14.689 14.1046 14.6563 14.0347 14.5889 13.9667C14.487 13.8968 14.4216 13.8628 14.2851 13.725H13.8466C13.9139 13.8968 13.9466 14.0007 14.1831 14.1725V14.1745ZM16.1756 15.4513C16.1429 15.4173 16.0756 15.3834 16.0064 15.3494V15.4873C16.0064 15.6251 16.0391 15.6591 16.0391 15.729C16.0391 15.799 16.141 16.2805 16.141 16.4184C16.3103 16.4523 16.3103 16.5922 16.4103 16.6601C16.4103 16.6601 16.343 16.2465 16.343 15.729C16.343 15.6951 16.2429 15.4873 16.1737 15.4513H16.1756ZM8.94994 9.30921C8.98263 9.27524 9.35575 8.9995 9.38844 8.96354C9.45576 8.8956 9.49037 8.92957 9.52307 8.85964C9.52307 8.65184 9.59231 8.65184 9.55769 8.5839C9.52307 8.51397 9.25381 8.5839 9.1865 8.5839C9.01725 8.61787 8.71338 8.72177 8.71338 8.7897C8.68068 8.8936 8.68068 9.13337 8.68068 9.16934C8.71338 9.27124 8.71338 9.37714 8.74607 9.47904C8.84801 9.37514 8.8807 9.34118 8.94994 9.30721V9.30921ZM12.8657 12.5521C12.7657 12.62 12.6984 12.656 12.6984 12.7239C12.6984 12.8618 12.7311 12.9997 12.7311 13.0696C12.7311 13.1735 12.7311 13.2414 12.7657 13.2774C12.8657 13.3114 12.9003 13.3114 13.0349 13.3813C13.0349 13.4153 13.1696 13.4852 13.1696 13.4852C13.1696 13.4852 13.1023 13.1755 13.0676 13.0356V12.4842C12.933 12.5181 12.8984 12.5541 12.8657 12.5541V12.5521ZM12.4272 12.62C12.2906 12.654 12.0214 12.688 12.0214 12.7919C11.9868 12.8958 12.0214 12.9997 12.0214 13.0676C12.056 13.1355 12.056 13.2055 12.056 13.3094C12.056 13.3773 12.0214 13.4472 12.056 13.5511C12.0906 13.4812 12.2579 13.4133 12.2906 13.3433C12.3599 13.2394 12.4272 13.1715 12.4599 13.0676C12.4945 12.9637 12.4599 12.7919 12.4272 12.618V12.62ZM13.7446 14.5182C13.6427 14.4503 13.4734 14.2425 13.3734 14.1386C13.3042 14.0706 13.3388 13.9667 13.2715 13.8968C13.2042 13.8968 13.1369 13.8968 13.0696 13.9308C12.9676 13.9308 12.9003 13.9308 12.8003 13.9647C12.833 14.0327 12.833 14.1026 12.9022 14.1366C13.0369 14.2744 13.0369 14.3104 13.1715 14.5162C13.2061 14.5861 13.3754 14.6201 13.51 14.6201C13.5792 14.6201 13.7119 14.5522 13.7466 14.5162L13.7446 14.5182ZM8.50951 10.6199C8.57683 10.516 8.78069 10.3102 8.8807 10.1704C8.94994 10.1024 9.08457 9.92861 9.42114 9.75678C9.45576 9.61891 9.48845 9.51501 9.48845 9.37714C9.14996 9.48104 8.9134 9.54898 8.84801 9.61891C8.67876 9.72281 8.61144 9.79274 8.4422 9.89664C8.4422 10.0338 8.4531 10.1371 8.47489 10.2063L8.50951 10.6199ZM11.7502 13.5531C11.8502 13.4492 11.7502 13.2774 11.7502 13.1735C11.7156 13.0696 11.7502 12.9657 11.7156 12.8618C11.6829 12.7939 11.6137 12.7579 11.5463 12.7579C11.479 12.7579 11.3098 12.654 11.3098 12.7239C11.1405 12.7239 11.2771 12.8958 11.2771 12.9997C11.2771 13.1375 11.6137 13.4832 11.6137 13.4832C11.6829 13.5172 11.6829 13.4832 11.7502 13.5531ZM10.8367 12.9997C10.8713 12.8618 10.9713 12.7919 10.9713 12.5521C10.9713 12.5521 10.9386 12.3803 10.904 12.3103C10.8694 12.2424 10.8347 12.1725 10.7347 12.1045C10.7001 12.1045 10.6328 12.0346 10.6001 12.0686C10.6001 12.0686 10.5655 12.3443 10.5328 12.3803C10.6001 12.4842 10.6674 12.5521 10.7001 12.656C10.7347 12.7599 10.7674 12.8978 10.8347 13.0017L10.8367 12.9997ZM10.127 11.9287C10.0943 11.8608 9.99235 11.8248 9.92503 11.7908C9.85772 11.7908 9.7904 11.9287 9.7904 12.0666C9.7904 12.1345 9.82502 12.3783 9.85772 12.4802C9.85772 12.5141 9.92503 12.5501 9.99235 12.5841C10.0943 12.652 10.1943 12.686 10.2962 12.7559C10.2962 12.7559 10.1943 12.4462 10.1616 12.2724C10.127 12.1685 10.1943 12.0306 10.127 11.9267V11.9287ZM13.1311 15.6551C13.1657 15.6551 13.2003 15.5872 13.2003 15.5872C13.1657 15.4493 13.1311 15.2775 13.0984 15.1376C13.0984 15.1376 12.9965 15.0677 12.8965 15.0677C12.8292 15.0677 12.7618 15.0337 12.6945 15.0677C12.7272 15.1716 12.7272 15.2415 12.7618 15.3454C12.8619 15.4833 12.9965 15.5512 13.133 15.6551H13.1311ZM8.54413 10.7578V10.9297C8.54413 10.9996 8.57875 11.3792 8.57875 11.4811C8.61144 11.585 8.61144 11.6889 8.64414 11.7908C8.67876 11.8588 8.71338 11.9287 8.71338 11.9986C8.71338 11.9986 8.78069 11.9647 8.81339 11.8947C8.91532 11.7908 8.94994 11.6869 9.01725 11.5511C8.98263 11.3093 8.91532 11.1015 8.91532 11.0336C8.91532 10.7578 8.94994 10.6879 8.98263 10.516C8.84801 10.584 8.67876 10.6879 8.54221 10.7578H8.54413ZM11.8521 14.726C11.9541 14.692 12.0214 14.6221 12.1233 14.5881C12.1906 14.5542 12.2579 14.0027 12.2579 14.0027C12.2579 14.0027 12.056 14.0367 12.0214 14.0706C11.9868 14.0706 11.8521 14.0706 11.7848 14.1386C11.7848 14.2425 11.7848 14.3464 11.7521 14.4842C11.6848 14.5881 11.5156 14.6561 11.5156 14.8299C11.5156 14.8299 11.6502 14.8639 11.6848 14.8639C11.7521 14.8299 11.8194 14.76 11.8541 14.726H11.8521ZM15.4986 18.1767C15.4313 18.3146 15.364 18.4524 15.364 18.5224H15.7352C15.8371 18.3845 15.8698 18.2466 15.8025 18.0388C15.7025 18.0728 15.4986 17.9689 15.4986 18.1767ZM15.7679 16.5902C15.7006 16.5562 15.0582 16.2445 14.9582 16.2445C14.7563 16.2785 14.4178 16.2785 14.2139 16.3824C14.1812 16.2785 14.1485 16.1067 14.2139 16.0028C14.2466 15.9328 14.5851 15.9328 14.687 15.9328C15.0582 15.9668 15.2621 16.0367 15.3621 16.0367C15.464 16.1406 15.566 16.1406 15.5987 16.1406C15.5987 16.1406 15.566 15.9328 15.5313 15.8649C15.3967 15.797 15.2621 15.761 15.1602 15.727C14.9909 15.6571 14.9236 15.6231 14.6543 15.5892C14.5543 15.5892 14.5543 15.6231 14.3505 15.6231C14.3505 15.5892 14.3832 15.5552 14.4178 15.5192C14.4832 15.4153 14.5524 15.3474 14.6197 15.2775H15.1582C15.2948 15.3114 15.3602 15.3474 15.5294 15.4153C15.6294 15.4153 15.5294 15.2435 15.5294 15.1396C15.4967 15.1056 15.4621 15.0697 15.3948 15.0357C15.2602 15.0017 15.1582 14.9678 15.0217 14.8978C14.9217 14.8639 14.7197 14.7939 14.5505 14.8299C14.3812 14.8978 14.3812 14.8639 14.2447 14.9338C14.0774 15.1756 13.9754 15.4513 13.8735 15.727C13.8735 15.795 13.7042 16.2106 13.7042 16.2785C13.7042 16.3125 13.6715 16.3824 13.6715 16.3824C13.535 16.3484 12.9272 16.2445 12.7599 16.4164C12.6926 16.4843 12.6253 16.5543 12.5234 16.7621C12.3887 16.6582 12.2868 16.6242 12.1522 16.6242C11.9829 16.6242 11.781 16.7281 11.679 16.8999C11.679 16.9359 11.4098 17.4534 11.4425 17.9349C11.4771 18.2127 11.5771 18.3146 11.7117 18.5224H12.0849C12.0502 18.3845 11.9829 18.2127 11.9156 18.0049C11.881 17.833 11.9502 17.5213 11.9829 17.2456C11.9829 17.2456 12.0849 17.1777 12.1849 17.1417C12.2541 17.0738 12.2868 17.1077 12.3868 17.1077C12.4214 17.1077 12.4214 17.1417 12.4214 17.1417C12.2849 17.2796 12.2849 17.4174 12.2522 17.6252C12.2522 17.7291 12.3868 18.2466 12.5214 18.5224H12.7926C12.7926 18.5224 12.7253 17.831 12.758 17.7631C12.758 17.6252 12.7926 17.5213 12.8253 17.4174C12.8926 17.4514 12.9599 17.4514 13.0273 17.4854C13.1292 17.5553 13.1292 17.6232 13.1292 17.7271C13.1292 17.899 13.1292 17.9349 13.0965 18.0388V18.2107C13.0965 18.3825 13.1292 18.5204 13.1292 18.5204H13.4004C13.4004 18.2107 13.4331 18.2446 13.4677 18.0708C13.5023 17.9329 13.4677 17.863 13.5023 17.7611C13.5023 17.6912 13.535 17.6232 13.5715 17.5893C13.6735 17.5213 13.7408 17.5213 13.8754 17.5553C13.8754 17.6572 13.8754 17.7611 13.8427 17.865C13.8081 18.0368 13.7735 18.2107 13.7062 18.3825C13.7062 18.4165 13.6735 18.4864 13.6389 18.5204H14.0447C14.0447 18.5204 14.112 18.3825 14.1466 18.2107C14.2466 18.3146 14.3832 18.2446 14.4505 18.2446C14.5524 18.2107 14.6197 18.1068 14.687 18.0368C14.5524 17.9329 14.2466 17.9669 14.2466 17.829C14.1812 17.5873 14.2466 17.5533 14.2466 17.4154C14.2466 17.2076 14.0447 17.1397 13.8427 17.1037C13.7735 17.0698 13.6389 17.0698 13.5735 17.0698C13.5042 17.1037 13.4369 17.2076 13.3715 17.2076C13.3715 17.2076 13.235 17.1037 13.133 17.0698C13.0657 17.0698 12.8638 16.9998 12.8638 16.9998C12.8984 16.9319 12.9311 16.862 12.9657 16.828C12.9984 16.794 13.1023 16.6901 13.135 16.6901C13.2042 16.6562 13.3042 16.6901 13.3734 16.7241C13.5408 16.7581 13.6773 16.794 13.71 16.794C13.7427 16.794 13.8466 16.862 13.8466 16.862C13.9466 16.794 13.9466 16.7241 14.0139 16.7241C14.2158 16.6562 14.2851 16.6202 14.487 16.6202C14.6563 16.6202 14.7928 16.9319 14.8928 17.0338C14.9274 17.1017 15.1621 17.4134 15.2986 17.6892C15.3659 17.6552 15.4006 17.5853 15.4679 17.5853C15.4679 17.5173 15.4333 17.2396 15.4006 17.2056C15.2986 16.8939 15.0967 16.826 15.0967 16.7561C15.1621 16.7561 15.2986 16.824 15.3659 16.824C15.4333 16.858 15.5352 16.8919 15.6352 16.9619C15.6698 16.9958 15.7371 17.0318 15.7717 17.0658C15.8044 17.2036 15.8044 17.3075 15.8737 17.4454C15.8737 17.4794 15.8737 17.5153 15.9064 17.5493C16.0083 17.3415 16.1083 17.3075 16.1756 17.1337C16.1083 16.824 15.9391 16.6861 15.7717 16.5822L15.7679 16.5902ZM11.479 13.8648C11.479 13.8309 11.3771 13.8309 11.3098 13.8309C11.2425 13.8309 11.1752 13.8648 11.1059 13.8648C11.0386 13.9687 11.0059 14.0726 10.9713 14.2105C10.9386 14.3144 10.8694 14.3823 10.8367 14.4523C10.8367 14.4523 11.1405 14.3843 11.2078 14.3843C11.3098 14.3164 11.3771 14.2804 11.4444 14.1426C11.479 14.0387 11.5136 14.0047 11.479 13.8668V13.8648ZM8.84608 12.658C8.84608 12.658 8.94801 12.5901 8.94801 12.5201C9.11726 12.3123 9.3192 12.1405 9.35382 12.1065C9.28459 11.9327 9.25189 11.8987 9.14996 11.7948C9.11726 11.8288 8.94801 11.9327 8.9134 12.0026C8.84608 12.0366 8.77877 12.0706 8.74415 12.1065C8.74415 12.1745 8.77877 12.2084 8.81146 12.2784C8.81146 12.3463 8.84608 12.5201 8.84608 12.658ZM12.356 15.9348C12.3233 15.9009 12.3233 15.8309 12.2868 15.763C12.2195 15.5552 12.2541 15.4513 12.2195 15.2455H11.9502C11.8829 15.2795 11.8483 15.2455 11.781 15.2795C11.781 15.4173 11.8156 15.5212 11.9156 15.6931C12.0156 15.9009 12.3541 15.9348 12.3541 15.9348H12.356ZM10.5328 13.4173H10.3308C10.3308 13.4173 10.2635 13.693 10.2635 13.9008C10.2308 14.0047 10.1943 14.0726 10.1943 14.1086C10.127 14.2465 10.0943 14.2804 10.027 14.4543C10.127 14.4882 10.2289 14.4203 10.2962 14.4203C10.3635 14.3863 10.4655 14.3504 10.5001 14.3164C10.5328 14.2824 10.6347 14.0387 10.6693 13.9707V13.729C10.6347 13.659 10.6693 13.5212 10.6693 13.4193C10.6347 13.3493 10.5674 13.3853 10.5347 13.4193L10.5328 13.4173ZM9.24997 13.2454C9.31728 13.1415 9.51922 12.9357 9.58654 12.8658C9.5173 12.7979 9.48461 12.694 9.45191 12.624C9.31728 12.624 8.80954 12.8298 8.80954 12.8298C8.91147 13.0037 8.97879 13.1755 9.0461 13.3833C9.11342 13.3493 9.18073 13.3154 9.24804 13.2454H9.24997ZM9.65385 14.0387C9.68655 13.9348 9.65385 13.8668 9.68655 13.7629C9.68655 13.695 9.68655 13.5212 9.72117 13.4193C9.65385 13.3853 9.5173 13.4532 9.41729 13.4532C9.31728 13.4532 9.08072 13.4532 9.08072 13.4872C9.11342 13.5571 9.11342 13.6251 9.14803 13.695C9.18265 13.7629 9.21535 13.8329 9.21535 14.0047C9.21535 14.1086 9.24997 14.2125 9.21535 14.3484C9.21535 14.3484 9.65385 14.1066 9.65385 14.0387ZM10.4309 15.0057C10.2616 14.8679 9.99235 14.73 9.58654 14.5921C9.4846 14.5582 9.24997 14.5921 9.14803 14.5921C8.87685 15.0757 8.77684 15.5232 8.5749 16.0407C8.54028 16.1446 8.47297 16.3524 8.47297 16.3524C8.30565 16.2485 8.1364 16.1806 7.96523 16.1806C7.69405 16.1806 7.49211 16.2845 7.3921 16.5602C7.29209 16.5263 7.15553 16.4563 6.98821 16.4903C6.75165 16.5243 6.54971 16.6641 6.44777 16.8699C6.34776 17.0078 6.31315 17.1457 6.34776 17.2836C6.17852 17.3535 6.07659 17.5253 6.00927 17.6632C5.94196 17.9389 6.17852 18.4225 6.28045 18.5264H6.61702C6.54971 18.2167 6.41508 18.0768 6.51509 17.7671C6.5824 17.5953 6.81896 17.5253 6.88628 17.4914C6.88628 17.3535 6.71703 17.2496 6.75165 17.1117C6.81896 16.9399 7.02091 16.9399 7.22285 16.9738C7.18823 17.1816 7.15553 17.4574 7.12092 17.7331C7.0863 18.0448 7.25554 18.5284 7.25554 18.5284H7.62673C7.59212 18.4245 7.55942 18.3206 7.55942 18.2187C7.52672 18.1148 7.52672 18.0468 7.52672 17.9409C7.55942 17.8031 7.55942 17.6652 7.55942 17.5633C7.89791 17.3894 7.79598 17.6312 7.8633 17.7011C7.8633 17.7011 7.99985 17.3914 7.8306 17.2536C7.79598 17.2196 7.59404 17.2536 7.59404 17.2196C7.59404 17.1856 7.62866 17.0817 7.66135 16.9778C7.73059 16.84 7.76329 16.806 7.8306 16.7021C7.8633 16.6681 7.96523 16.6681 8.10178 16.7021C8.13447 16.7021 8.30372 16.7361 8.40565 16.77C8.37104 16.8739 8.23641 17.0797 8.20371 17.1836C8.06908 17.5972 8.06908 18.0808 8.10178 18.5304H8.47297C8.47297 18.2886 8.44027 18.0128 8.47297 17.7711C8.54028 17.4614 8.64029 17.4254 8.67683 17.4254C8.74223 17.4254 8.81146 17.4933 8.84608 17.5633C8.9134 17.907 8.71145 18.2187 8.71145 18.5284H8.98071C8.98071 18.5284 9.08264 18.4944 9.11534 18.3905C9.18265 18.1827 9.31728 17.9749 9.3519 17.7691C9.3846 17.5972 9.31728 17.4594 9.21535 17.2516C9.11534 17.1137 9.01341 17.0098 8.77684 16.838C8.70953 16.7001 8.77684 16.5283 8.77684 16.5283C8.77684 16.5622 8.91147 16.4943 8.97879 16.4943C9.24804 16.5642 9.31536 16.5642 9.45191 16.6322C9.55384 16.6661 9.68847 16.7361 9.78848 16.806C9.89041 16.8739 9.99042 17.0817 10.0924 17.3235C10.0924 17.3235 10.1597 16.8759 10.1597 16.7381C10.025 16.6002 9.89041 16.4623 9.68655 16.3584C9.5173 16.2206 9.14611 16.1167 8.97879 16.0467C8.97879 16.0467 9.0461 15.9428 9.0461 15.8749C9.24804 15.8409 9.4846 15.8409 9.58654 15.8749C9.92503 15.9788 10.3289 16.1866 10.4982 16.3245C10.4982 16.3245 10.5655 16.1866 10.5655 16.1167C10.5655 16.1167 10.0924 15.807 10.127 15.7031C9.99235 15.5992 9.89041 15.4953 9.75578 15.4613C9.55384 15.4273 9.14803 15.3934 9.14803 15.3934C9.14803 15.3934 9.24997 15.2555 9.3519 15.1516H9.62116C9.75578 15.1516 10.0924 15.2555 10.2962 15.3594C10.6001 15.4973 10.7693 15.6012 10.804 15.6691C10.8367 15.5652 10.8713 15.4273 10.9059 15.3594C10.5347 15.2215 10.5674 15.0817 10.4328 15.0137L10.4309 15.0057ZM9.8231 17.835C9.58654 17.835 9.65385 18.2147 9.58654 18.3885C9.55192 18.4225 9.5173 18.4924 9.55192 18.5264H10.0577C10.0577 18.5264 10.0924 18.2167 10.0924 18.1467C10.0577 18.0768 9.95773 17.905 9.8231 17.835Z" fill="white"/>
</g>
<defs>
<clipPath id="clip0_10328_10955">
<rect width="20" height="13.0435" fill="white" transform="translate(6 5.47827)"/>
</clipPath>
</defs>
</svg>
