<svg width="32" height="24" viewBox="0 0 32 24" fill="none" xmlns="http://www.w3.org/2000/svg">
<rect width="32" height="24" rx="4" fill="#F36805"/>
<path d="M18.3953 11.0867L16.0273 11.4531L16.3664 9.08513L20.2602 5.16404C20.4614 4.96419 20.7171 4.82806 20.9952 4.77262C21.2734 4.71718 21.5617 4.7449 21.8242 4.85232L22.7211 3.95544L23.4977 4.73201L22.6008 5.62888C22.7082 5.89138 22.7359 6.1797 22.6805 6.45786C22.625 6.73602 22.4889 6.99168 22.2891 7.19294L18.3953 11.0867ZM24.2031 9.2656V18.0156H7.79688V9.2656H15.2289L14.7367 12.7164L18.9094 12.1203L21.7586 9.2656H24.2031ZM17.0938 14.1875H10.5312V15.2812H17.0938V14.1875ZM21.4688 14.1875H19.2812V15.2812H21.4688V14.1875Z" fill="white"/>
</svg>
