<svg width="32" height="24" viewBox="0 0 32 24" fill="none" xmlns="http://www.w3.org/2000/svg">
<rect width="32" height="24" rx="4" fill="#659AD2"/>
<rect x="0.5" y="0.5" width="31" height="23" rx="3.5" stroke="white" stroke-opacity="0.01"/>
<path fill-rule="evenodd" clip-rule="evenodd" d="M13.1998 10.0857H8.20967H8.12673C8.50779 5.18453 10.4987 3.70195 15.6848 3.64235C15.7646 3.64185 15.8423 3.64185 15.9211 3.64185H16.0613C16.1403 3.64185 16.2177 3.64185 16.2978 3.64235C16.9546 3.64988 17.5598 3.68049 18.1175 3.73758C18.0766 3.73896 18.0366 3.74034 17.9915 3.74524C17.9498 3.74938 17.8974 3.75249 17.8357 3.75616C17.222 3.79266 15.6745 3.88468 14.2587 5.59508C13.4217 6.60727 13.3387 10.0857 13.3387 10.0857H13.1998ZM12.8306 16.0498C12.2455 16.7815 11.4032 16.7323 11.3914 16.7316V19.7057C9.30756 18.8644 8.36827 17.1101 8.12335 13.8756C8.09374 13.4858 8.07604 13.1433 8.065 12.8595L13.3389 12.8575L13.3353 13.1713L13.3353 13.1715L13.3353 13.173C13.3291 13.7158 13.3171 14.7682 13.3184 14.8033C13.3224 14.9578 13.2834 15.4841 12.8306 16.0498ZM19.7871 4.03147C22.4373 4.73726 23.5851 6.50115 23.8591 10.1248C23.9444 11.2503 23.9346 12 23.9346 12C23.9346 12 23.9446 12.7501 23.8592 13.8754C23.4862 18.808 21.4976 20.298 16.2979 20.3579C16.2178 20.3584 15.7647 20.3584 15.6849 20.3579C14.783 20.3473 13.9806 20.2927 13.2637 20.1861C13.2668 20.186 13.2698 20.186 13.2729 20.186C13.2949 20.1858 13.3165 20.1856 13.3389 20.1841C14.2796 20.1301 15.5895 19.4045 16.369 17.7165C16.7096 16.9784 16.801 15.6607 16.801 15.6607V12.8581H16.8013V12.8573H19.6493H19.7874V10.0855H19.6493H16.8015C16.8015 10.0855 16.8015 10.0852 16.8013 10.085C16.8013 10.085 16.8 10.0821 16.799 10.0769L16.7983 10.0732C16.7975 10.071 16.7969 10.0686 16.7962 10.0659C16.7954 10.0627 16.7944 10.059 16.793 10.0544C16.7929 10.0535 16.7927 10.0523 16.7925 10.051C16.7922 10.0492 16.7919 10.0473 16.7917 10.0456C16.7896 10.0376 16.7877 10.0298 16.7862 10.0192C16.7855 10.0165 16.785 10.0134 16.7846 10.0102C16.7843 10.0081 16.784 10.0059 16.7836 10.0038C16.7816 9.99343 16.7799 9.98289 16.7783 9.97047C16.7771 9.96558 16.7767 9.95953 16.7763 9.9538C16.7762 9.95247 16.7761 9.95117 16.7761 9.94989C16.774 9.93672 16.7727 9.92417 16.771 9.90912C16.7708 9.90605 16.7707 9.90279 16.7706 9.89949C16.7704 9.8947 16.7702 9.88981 16.7698 9.88528C16.7696 9.88213 16.7694 9.879 16.7692 9.87587C16.7683 9.86302 16.7675 9.85014 16.7673 9.83571C16.7671 9.83145 16.7671 9.82693 16.7671 9.8224C16.7671 9.81786 16.7671 9.81332 16.767 9.80899C16.767 9.80273 16.7669 9.79651 16.7668 9.79023C16.7665 9.77752 16.7663 9.76459 16.767 9.75064C16.767 9.74582 16.7673 9.74061 16.7677 9.73533C16.7679 9.73126 16.7682 9.72715 16.7683 9.72316C16.7688 9.70096 16.7697 9.67887 16.772 9.65428C16.7723 9.65073 16.7727 9.64695 16.7731 9.6431C16.7736 9.63893 16.774 9.63468 16.7743 9.63057C16.7767 9.60371 16.7798 9.57661 16.784 9.54775C16.7842 9.54502 16.7848 9.5422 16.7853 9.53939C16.7858 9.53665 16.7863 9.53392 16.7866 9.53132C16.7916 9.49869 16.797 9.46557 16.8042 9.43069C16.8042 9.42993 16.8044 9.42881 16.8047 9.42768C16.8551 9.18539 16.9633 8.88714 17.1799 8.54924C17.7626 7.64258 19.4174 7.68524 19.7347 7.70205C19.7679 7.70406 19.7866 7.70544 19.7871 7.70544V4.03147ZM13.1584 20.1687C13.1736 20.169 13.1889 20.1693 13.2042 20.1694C13.1888 20.1693 13.1736 20.169 13.1584 20.1687H13.1584Z" fill="white"/>
</svg>
