<svg width="32" height="24" viewBox="0 0 32 24" fill="none" xmlns="http://www.w3.org/2000/svg">
<rect x="0.5" y="0.5" width="31" height="23" rx="3.5" fill="red"/>
<rect x="0.5" y="0.5" width="31" height="23" rx="3.5" stroke="#DBD9D7"/>
<path d="M9.02981 8.97H4.94572C4.41385 8.97 3.98302 9.4048 3.98302 9.94065V14.0594C3.98302 14.5952 4.41385 15.03 4.94572 15.03H9.02981C9.56167 15.03 9.99193 14.5952 9.99193 14.0594V9.94065C9.9925 9.40424 9.56167 8.97 9.02981 8.97Z" fill="#1677FF"/>
<path d="M8.93046 12.7754C8.69036 12.6942 8.36738 12.5699 8.00807 12.4388C8.22377 12.0602 8.39632 11.6293 8.50985 11.161H7.32521V10.7308H8.77607V10.4907H7.32521V9.77319H6.73317C6.6293 9.77319 6.6293 9.8765 6.6293 9.8765V10.4901H5.16198V10.7302H6.6293V11.1605H5.41741V11.4006H7.76739C7.68168 11.6992 7.56588 11.9801 7.42909 12.235C6.66676 11.9813 5.85278 11.7758 5.34192 11.9024C5.01496 11.9835 4.80437 12.1283 4.68063 12.2804C4.113 12.9769 4.51999 14.0349 5.71882 14.0349C6.42779 14.0349 7.11065 13.6365 7.63968 12.9797C8.42925 13.3623 9.99193 14.0196 9.99193 14.0196V13.083C9.99249 13.083 9.7961 13.0671 8.93046 12.7754ZM5.607 13.6302C4.67211 13.6302 4.39568 12.8878 4.85773 12.4813C5.01212 12.344 5.29367 12.277 5.44352 12.2622C5.99866 12.2072 6.51293 12.4206 7.11973 12.7192C6.69344 13.28 6.15022 13.6302 5.607 13.6302Z" fill="white"/>
<path d="M17.0311 9.85721C17.0311 10.1705 17.2604 10.3817 17.58 10.3817C17.8996 10.3817 18.1289 10.1705 18.1289 9.85721C18.1289 9.54955 17.8996 9.33272 17.58 9.33272C17.2604 9.33272 17.0311 9.54955 17.0311 9.85721Z" fill="#1677FF"/>
<path d="M16.4521 9.46498H15.4996V13.8664H16.4521V9.46498Z" fill="black"/>
<path d="M13.8297 9.61595H12.5514L11.1226 13.8669H12.003L12.2443 13.0348H13.7576L13.9869 13.8669H15.1142L13.8297 9.61595ZM12.4429 12.3411L13.0094 10.3817H13.0333L13.5697 12.3411H12.4429Z" fill="black"/>
<path d="M18.0562 10.6349H17.1038V13.8669H18.0562V10.6349Z" fill="black"/>
<path d="M28.0113 10.6411L28.017 10.6349H27.119L26.5519 12.6006H26.5218L25.8708 10.6349H24.8036L26.0876 13.8789L25.5512 14.8677V14.8915H26.389L28.0113 10.6411Z" fill="black"/>
<path d="M20.4261 10.5685C20.0764 10.5685 19.8051 10.7013 19.4974 10.9544V10.6349H18.545V14.8915H19.4974V13.8363C19.6785 13.8845 19.8471 13.9089 20.052 13.9089C20.9023 13.9089 21.668 13.2817 21.668 12.1663C21.668 11.1656 21.1135 10.5685 20.4261 10.5685ZM19.8227 13.3118C19.7143 13.3118 19.6115 13.2999 19.4969 13.2636V11.5153C19.6961 11.3768 19.8584 11.3103 20.0634 11.3103C20.4193 11.3103 20.7025 11.5936 20.7025 12.197C20.7031 12.9684 20.287 13.3118 19.8227 13.3118Z" fill="black"/>
<path d="M24.6163 13.0586V11.7082C24.6163 10.9726 24.1821 10.5685 23.4164 10.5685C22.9276 10.5685 22.5905 10.653 21.9751 10.8398L22.1437 11.5817C22.7045 11.3285 22.9515 11.2201 23.2109 11.2201C23.5242 11.2201 23.6633 11.4432 23.6633 11.7871V11.811C22.5717 12.0159 22.234 12.1306 22.0234 12.3417C21.8667 12.4984 21.8003 12.7215 21.8003 12.9809C21.8003 13.6019 22.2828 13.9334 22.7346 13.9334C23.0724 13.9334 23.3437 13.8068 23.7115 13.5292L23.7779 13.8669H24.7304L24.6163 13.0586ZM23.6638 13.083C23.4107 13.2215 23.2659 13.276 23.0973 13.276C22.868 13.276 22.7233 13.125 22.7233 12.8844C22.7233 12.7941 22.7414 12.7033 22.8135 12.6312C22.9282 12.5166 23.1513 12.432 23.6638 12.3116V13.083Z" fill="black"/>
</svg>
