<svg width="32" height="24" viewBox="0 0 32 24" fill="none" xmlns="http://www.w3.org/2000/svg">
<rect width="32" height="24" rx="4" fill="white"/>
<rect width="32" height="24" rx="4" fill="#14366E"/>
<rect x="0.5" y="0.5" width="31" height="23" rx="3.5" stroke="white" stroke-opacity="0.01"/>
<g clip-path="url(#clip0_13263_7615)">
<path d="M11.3001 11.7537H10.3427C10.1422 11.7537 9.95069 11.6374 9.88687 11.4584C9.71364 10.9571 9.21219 10.7871 9.21219 10.7871C9.02985 10.7244 8.89309 10.5454 8.89309 10.3396V9.39983C8.89309 9.14028 9.1119 8.93443 9.3763 8.93443C9.64071 8.93443 9.8504 9.13133 9.8504 9.39983L9.84129 10.1606L10.9536 9.06868C11.1451 8.88073 11.4459 8.88073 11.6374 9.06868C11.8289 9.25663 11.8289 9.56093 11.6374 9.73993L10.5433 10.805H11.2909C11.5553 10.805 11.7742 11.0198 11.7742 11.2793C11.7742 11.5389 11.5553 11.7537 11.3001 11.7537ZM11.2909 12.8993L10.516 12.8904L11.6283 13.9823C11.8197 14.1702 11.8197 14.4656 11.6283 14.6535C11.4368 14.8415 11.1359 14.8415 10.9445 14.6535L9.8504 13.5795V14.3224C9.8504 14.5998 9.63159 14.7967 9.36719 14.7967C9.10279 14.7967 8.88397 14.5819 8.88397 14.3224V13.3737C8.88397 13.1768 9.01161 12.9888 9.19396 12.9262C9.70453 12.7561 9.87776 12.2639 9.87776 12.2639C9.94158 12.0849 10.1239 11.9506 10.3336 11.9506H11.2909C11.5553 11.9506 11.7742 12.1654 11.7742 12.425C11.7742 12.6935 11.5736 12.8993 11.2909 12.8993ZM8.20018 14.7788C7.93577 14.7788 7.72608 14.6088 7.73519 14.3134L7.74431 13.5527L6.632 14.6535C6.44054 14.8415 6.13055 14.8415 5.94821 14.6535C5.75674 14.4656 5.75674 14.1613 5.94821 13.9823L7.03316 12.9083H6.28555C6.01203 12.9083 5.80233 12.6935 5.80233 12.4339C5.80233 12.1744 6.01203 11.9596 6.28555 11.9596H7.24286C7.44344 11.9596 7.62579 12.0759 7.69872 12.2549C7.87195 12.7561 8.36429 12.9262 8.36429 12.9262C8.55575 12.9888 8.68339 13.1678 8.68339 13.3737V14.3134C8.68339 14.573 8.47369 14.7788 8.20018 14.7788ZM8.3734 10.796C7.86284 10.975 7.68961 11.4584 7.68961 11.4584C7.62579 11.6374 7.44344 11.7716 7.23374 11.7716H6.27643C6.01203 11.7716 5.79321 11.5568 5.79321 11.2972C5.79321 11.0377 5.97556 10.8318 6.27643 10.8318L7.0514 10.8408L5.93909 9.73993C5.74763 9.55198 5.74763 9.25663 5.93909 9.06868C6.13055 8.88073 6.43142 8.88073 6.62289 9.06868L7.71696 10.1427V9.39983C7.71696 9.14028 7.92666 8.92548 8.20018 8.92548C8.46458 8.92548 8.67427 9.14028 8.67427 9.39983V10.3485C8.67427 10.5454 8.55575 10.7334 8.3734 10.796Z" fill="white"/>
<path d="M23.9822 14.8236C23.4716 14.8236 22.8152 14.743 22.4961 14.6446L22.7514 13.6064C22.9884 13.7138 23.5081 13.8749 23.9822 13.8749C24.5566 13.8749 24.9851 13.6332 24.9851 13.132C24.9851 12.7114 24.7207 12.4876 23.9822 12.2012C23.2255 11.9148 22.5964 11.5568 22.5964 10.5007C22.5964 9.47143 23.426 8.89862 24.6933 8.89862C25.2313 8.89862 25.7692 9.00602 26.0974 9.10447L25.8512 10.1158C25.6324 9.99948 25.213 9.84733 24.6933 9.84733C24.0825 9.84733 23.809 10.08 23.809 10.4738C23.809 10.8766 24.1098 11.0198 24.7663 11.3062C25.6689 11.6821 26.2433 12.067 26.2433 13.0604C26.2433 14.1523 25.3498 14.8236 23.9822 14.8236ZM19.925 12.2281H19.2321V13.8928H19.9615C20.5359 13.8928 20.9826 13.669 20.9826 13.0515C20.9826 12.4876 20.5632 12.2281 19.925 12.2281ZM19.9341 9.85628H19.2321V11.3599H19.8794C20.3717 11.3599 20.7911 11.1003 20.7911 10.5812C20.8003 10.0979 20.4994 9.85628 19.9341 9.85628ZM19.9979 14.7699H18.0924V8.97917H20.0982C21.247 8.97917 22.0037 9.52513 22.0037 10.4917C22.0037 11.1719 21.5388 11.5568 21.1011 11.7268C21.7029 11.879 22.1952 12.2907 22.1952 13.0515C22.1952 14.0628 21.402 14.7699 19.9979 14.7699ZM15.1749 9.86523H14.5914V11.521H15.0473C15.6581 11.521 16.1049 11.2614 16.1049 10.6976C16.1049 10.1964 15.7766 9.86523 15.1749 9.86523ZM16.269 14.7699C15.9134 14.0628 15.2752 12.953 14.8923 12.3713H14.5914V14.7699H13.4608V8.97917H15.3299C16.5607 8.97917 17.2901 9.56093 17.2901 10.7155C17.2901 11.512 16.7066 11.9954 16.0957 12.2012C16.4878 12.7293 17.2445 14.0181 17.6183 14.7788L16.269 14.7699Z" fill="white"/>
</g>
<defs>
<clipPath id="clip0_13263_7615">
<rect width="22" height="7.42857" fill="white" transform="translate(5 8.29001)"/>
</clipPath>
</defs>
</svg>
