<svg width="32" height="24" viewBox="0 0 32 24" fill="none" xmlns="http://www.w3.org/2000/svg">
<rect x="0.5" y="0.5" width="31" height="23" rx="3.5" fill="white"/>
<rect x="0.5" y="0.5" width="31" height="23" rx="3.5" stroke="#DBD9D7"/>
<path d="M13.6541 14.121C13.5764 14.1623 13.489 14.1862 13.3961 14.1862C13.1809 14.1862 12.9939 14.0615 12.8957 13.8769L12.8581 13.7902L11.2917 10.1678C11.2748 10.1284 11.2643 10.0838 11.2643 10.0405C11.2643 9.87351 11.3928 9.73826 11.5512 9.73826C11.6155 9.73826 11.675 9.76071 11.7228 9.79818L13.5713 11.1852C13.7063 11.2782 13.8676 11.3328 14.0411 11.3328C14.1446 11.3328 14.2433 11.3125 14.3354 11.2772L23.028 7.20001C21.4699 5.26481 18.9037 4 15.9999 4C11.2478 4 7.39592 7.38294 7.39592 11.5563C7.39592 13.8329 8.55483 15.8824 10.3688 17.2677C10.5143 17.3772 10.6096 17.5571 10.6096 17.7601C10.6096 17.8273 10.596 17.8885 10.5793 17.9526C10.4344 18.5221 10.2025 19.4342 10.1918 19.4769C10.1736 19.5484 10.1454 19.6231 10.1454 19.6978C10.1454 19.8648 10.2738 20 10.4324 20C10.4946 20 10.5455 19.9756 10.598 19.9438L12.4816 18.7976C12.6233 18.7116 12.7733 18.6581 12.9386 18.6581C13.0265 18.6581 13.1115 18.6725 13.1914 18.6982C14.0701 18.9646 15.0182 19.1126 15.9999 19.1126C20.7516 19.1126 24.6041 15.7294 24.6041 11.5563C24.6041 10.2922 24.2486 9.1018 23.6239 8.05459L13.7172 14.0827L13.6541 14.121Z" fill="#1AAD19"/>
</svg>
