<svg width="32" height="24" viewBox="0 0 32 24" fill="none" xmlns="http://www.w3.org/2000/svg">
<rect width="32" height="24" rx="4" fill="#6461FC"/>
<rect x="0.5" y="0.5" width="31" height="23" rx="3.5" stroke="white" stroke-opacity="0.01"/>
<path fill-rule="evenodd" clip-rule="evenodd" d="M16.9279 8.50821L15.3648 8.85355V7.54894L16.9279 7.20999V8.50821ZM20.1787 9.23086C19.5684 9.23086 19.176 9.52504 18.9581 9.72968L18.8771 9.33318H17.507V16.79L19.0639 16.451L19.0702 14.6412C19.2943 14.8075 19.6244 15.0441 20.1725 15.0441C21.2872 15.0441 22.3023 14.1232 22.3023 12.0959C22.2961 10.2413 21.2685 9.23086 20.1787 9.23086ZM19.805 13.6371C19.4376 13.6371 19.2196 13.5028 19.0701 13.3366L19.0639 10.9639C19.2258 10.7785 19.45 10.6506 19.805 10.6506C20.3717 10.6506 20.7641 11.3029 20.7641 12.1407C20.7641 12.9976 20.378 13.6371 19.805 13.6371ZM27.2098 12.1599C27.2098 10.5227 26.4376 9.23086 24.9616 9.23086C23.4794 9.23086 22.5826 10.5227 22.5826 12.1471C22.5826 14.072 23.6413 15.0441 25.1609 15.0441C25.902 15.0441 26.4625 14.8714 26.886 14.6284V13.3494C26.4625 13.5668 25.9767 13.7011 25.3602 13.7011C24.7561 13.7011 24.2205 13.4837 24.152 12.729H27.1974C27.1974 12.6938 27.1996 12.6139 27.2022 12.5217L27.2022 12.5214L27.2022 12.5213V12.5212C27.2057 12.3959 27.2098 12.2482 27.2098 12.1599ZM24.1333 11.5523C24.1333 10.8297 24.563 10.5291 24.9553 10.5291C25.3352 10.5291 25.74 10.8297 25.74 11.5523H24.1333ZM15.3647 9.33959H16.9278V14.9354H15.3647V9.33959ZM13.5899 9.33957L13.6896 9.81282C14.057 9.12213 14.7856 9.26283 14.9849 9.33957V10.8105C14.7919 10.7401 14.1691 10.6506 13.8017 11.143V14.9354H12.2447V9.33957H13.5899ZM10.5756 7.9518L9.05606 8.28435L9.04983 13.4069C9.04983 14.3534 9.74111 15.0505 10.6628 15.0505C11.1735 15.0505 11.5471 14.9545 11.7527 14.8394V13.5412C11.5534 13.6243 10.5694 13.9185 10.5694 12.972V10.7017H11.7527V9.33956H10.5694L10.5756 7.9518ZM6.89513 10.6186C6.56506 10.6186 6.36577 10.7146 6.36577 10.964C6.36577 11.2363 6.70875 11.3561 7.13425 11.5047C7.82791 11.747 8.7409 12.0659 8.74476 13.2471C8.74476 14.3918 7.8542 15.0505 6.55883 15.0505C6.02325 15.0505 5.43784 14.9418 4.85867 14.686V13.1639C5.38179 13.4581 6.04193 13.6755 6.55883 13.6755C6.90758 13.6755 7.15669 13.5796 7.15669 13.2854C7.15669 12.9838 6.7849 12.8459 6.33604 12.6795C5.65247 12.426 4.79016 12.1062 4.79016 11.0407C4.79016 9.90878 5.6309 9.23088 6.89513 9.23088C7.41203 9.23088 7.9227 9.31402 8.4396 9.52506V11.0279C7.96629 10.7657 7.36843 10.6186 6.89513 10.6186Z" fill="white"/>
</svg>
