<svg width="32" height="24" viewBox="0 0 32 24" fill="none" xmlns="http://www.w3.org/2000/svg">
<rect width="32" height="24" rx="4" fill="#3E4A59"/>
<path d="M14.445 10.6052C13.8756 10.6052 13.5122 10.9128 13.2901 11.2794H13.2699L13.2779 10.6853H12.1755C12.0745 10.6853 11.9857 10.8159 11.9857 10.9339V14.5999C11.9857 14.7179 12.0786 14.8401 12.1795 14.8401H13.2779V12.7838C13.2779 12.1896 13.4354 11.7177 13.9887 11.7177C14.5217 11.7177 14.6025 12.1306 14.6025 12.6784V14.5957C14.6025 14.7263 14.6954 14.8359 14.7923 14.8359H15.8947V12.3793C15.8988 11.3806 15.5999 10.6052 14.445 10.6052V10.6052ZM22.9657 10.6052C22.4447 10.6052 22.0853 10.8033 21.8754 11.0055C21.8834 10.8539 21.8834 10.6389 21.8834 10.424V9.02506H20.785C20.6841 9.02506 20.5952 9.15569 20.5952 9.26524V14.5957C20.5952 14.7263 20.6881 14.8359 20.7891 14.8359H21.8229L21.8148 14.4946C22.1096 14.7896 22.5094 14.9286 22.9576 14.9286C24.1125 14.9286 24.8475 13.9847 24.8475 12.7627C24.8394 11.5449 24.1125 10.6052 22.9657 10.6052V10.6052ZM22.687 13.8077C22.1459 13.8077 21.7704 13.3695 21.7704 12.729C21.7704 12.0885 22.1419 11.6503 22.687 11.6503C23.2282 11.6503 23.5916 12.0885 23.5916 12.729C23.5916 13.3695 23.2322 13.8077 22.687 13.8077ZM11.7596 10.6811H10.431C10.33 10.6811 10.225 10.7401 10.1604 10.8201L9.06202 12.059V9.02084H7.95554C7.85459 9.02084 7.76575 9.15147 7.76575 9.26103V14.5957C7.76575 14.7137 7.84247 14.8359 7.95554 14.8359H9.05798V13.5802L9.41739 13.222L10.3018 14.68C10.3825 14.798 10.4956 14.8359 10.6289 14.8359H11.8767L10.3018 12.236L11.7596 10.6811ZM19.6261 11.0898C19.3111 10.7822 18.879 10.6052 18.14 10.6052C17.506 10.6052 16.9608 10.7906 16.6014 10.9466C16.5085 10.9929 16.4682 11.1235 16.5085 11.2205L16.771 11.9073C16.977 11.7683 17.4817 11.5323 17.9865 11.5323C18.5075 11.5323 18.8023 11.7598 18.8023 12.1981V12.2908L17.7967 12.3287C17.0618 12.3624 16.246 12.6742 16.246 13.597C16.246 14.5199 16.9931 14.9202 17.6958 14.9202C18.3419 14.9202 18.669 14.5662 18.8386 14.3892L18.8588 14.6716C18.8669 14.7516 18.9355 14.8233 19.0365 14.8233H20.1026V12.493C20.0985 11.7977 19.933 11.3932 19.6261 11.0898V11.0898ZM18.8184 13.6982C18.7376 13.8414 18.5034 14.0774 18.1602 14.0774C17.8008 14.0774 17.5504 13.8794 17.5504 13.5675C17.5504 13.2599 17.7806 13.0745 18.1763 13.0619L18.8144 13.024V13.6982H18.8184ZM24.9767 14.9792C24.7869 14.9792 24.6456 14.8275 24.6456 14.6336C24.6456 14.4356 24.791 14.2881 24.9767 14.2881C25.1625 14.2881 25.3079 14.4398 25.3079 14.6336C25.3119 14.8317 25.1584 14.9792 24.9767 14.9792ZM24.9767 14.3387C24.8192 14.3387 24.694 14.4693 24.694 14.6336C24.694 14.798 24.8192 14.9286 24.9767 14.9286C25.1342 14.9286 25.2594 14.798 25.2594 14.6336C25.2594 14.4693 25.1342 14.3387 24.9767 14.3387ZM25.1423 14.8359H25.0494L24.9686 14.6716H24.9323V14.8359H24.8515V14.4314H24.9888C25.0696 14.4314 25.1261 14.4777 25.1261 14.5578C25.1261 14.6379 25.0777 14.6631 25.0454 14.6758L25.1423 14.8359ZM24.9727 14.503H24.9283V14.6126H24.9727C25.009 14.6126 25.0413 14.6041 25.0413 14.562C25.0413 14.5072 25.009 14.503 24.9727 14.503V14.503Z" fill="white"/>
</svg>
