<svg width="32" height="24" viewBox="0 0 32 24" fill="none" xmlns="http://www.w3.org/2000/svg">
<rect x="0.5" y="0.5" width="31" height="23" rx="3.5" fill="white"/>
<rect x="0.5" y="0.5" width="31" height="23" rx="3.5" stroke="#DBD9D7"/>
<path fill-rule="evenodd" clip-rule="evenodd" d="M21.3553 18.454C21.5947 18.4181 21.8487 18.4234 22.0402 18.2479C22.8488 18.3716 23.6693 18.1721 24.305 17.7266C24.6401 17.4566 24.942 17.1427 25.1867 16.801C25.4021 16.4991 25.571 16.2185 25.6814 15.8807C25.7639 15.6719 25.8277 15.4564 25.8769 15.233C26.1083 14.1837 25.986 13.0108 25.6442 12.0134C25.5817 11.8285 25.5099 11.649 25.4327 11.4774C25.0058 10.597 24.426 9.64615 23.531 9.08893C23.027 8.77508 22.5642 8.28967 22.2796 7.78697C22.1253 7.64733 21.9763 7.46381 21.7769 7.43056C21.8314 7.52099 21.8912 7.60876 21.9072 7.71383L21.8952 7.72846C21.6824 7.7351 21.5162 7.62206 21.3713 7.48642L21.5308 7.34146C21.4697 7.31087 21.4005 7.2989 21.334 7.28294C20.7223 7.21379 20.2196 7.49572 19.677 7.63137L19.669 7.66196C20.0015 7.80958 20.0719 8.17663 20.2661 8.42532C20.314 8.36813 20.3964 8.40936 20.4629 8.40404C20.56 8.40936 20.6504 8.47984 20.7449 8.45457C20.7475 8.37345 20.7023 8.30962 20.6877 8.23647C20.7449 8.20987 20.814 8.23381 20.8792 8.23647C21.0547 8.33887 21.3353 8.21785 21.4457 8.45457C21.2462 8.46654 21.0574 8.5091 20.8699 8.55432C20.8818 8.63012 20.9577 8.68996 20.9523 8.76577C20.7914 8.69927 20.6225 8.65672 20.443 8.63677L20.4337 8.66337C20.6611 8.92934 20.9723 9.0876 21.2915 9.18069C21.7489 9.28708 22.1519 9.06898 22.5934 9.14479C23.6786 9.64084 24.6055 10.7766 25.0085 11.8538C25.0284 11.9056 25.0471 11.9575 25.0657 12.0107C25.4035 12.9948 25.4673 14.2037 25.1295 15.2304C24.95 15.6573 24.7518 16.0602 24.434 16.4073C24.3143 16.5549 24.1813 16.6866 24.0363 16.7983C23.5815 17.152 23.0216 17.3076 22.4431 17.1494C22.4072 17.1241 22.3341 17.1188 22.3461 17.055C22.366 16.9712 22.3846 16.8847 22.4019 16.797C22.4977 16.3049 22.5415 15.7876 22.5163 15.2703C22.5163 15.2476 22.5163 15.2264 22.5149 15.2038C22.483 14.4524 22.3328 13.7781 22.0575 13.1278C21.8806 12.7554 21.6691 12.3485 21.4045 11.9841C21.088 11.5492 20.6957 11.1729 20.1916 10.9854C19.8831 10.9029 19.5014 10.8883 19.2674 11.1449C19.1011 11.2912 19.032 11.4867 19.0559 11.7022C18.7953 11.8671 18.5027 11.9562 18.1835 11.9828C18.105 11.9894 18.0252 12.0187 17.9441 12.0173C17.867 12.0213 17.7925 12.0173 17.718 12.008C17.335 11.9615 16.9467 11.754 16.6515 11.5173C16.6448 11.3604 16.6368 11.2114 16.6302 11.0452C16.4613 10.9574 16.3217 10.7912 16.3097 10.5944L16.3243 10.5797C16.4214 10.6103 16.5065 10.6582 16.5943 10.7087C16.5544 10.4733 16.5092 10.2393 16.3921 10.0345C16.2831 9.98927 16.174 9.95203 16.0716 9.8975C15.9533 9.81904 15.8775 9.67674 15.8602 9.54641C15.9666 9.64881 16.1501 9.61291 16.2326 9.72196C16.0903 9.30171 16.0876 8.82029 15.8535 8.43596C15.7352 8.15136 15.4266 8.02103 15.2139 7.81357C15.1314 7.71383 15.0995 7.57419 14.9505 7.55823C14.8295 7.52764 14.8202 7.39199 14.7989 7.30422C14.8747 7.31353 14.9372 7.36407 15.0011 7.37603C14.8255 6.91057 14.6713 6.39325 14.1952 6.09668L14.114 6.14855C13.9292 6.17514 13.7324 6.18844 13.5475 6.19376C13.63 6.07274 13.7749 6.02088 13.8893 5.96635C13.7563 5.86661 13.6459 5.84267 13.4797 5.81607C13.3826 5.91183 13.2084 5.96103 13.0834 5.98896L13.0674 5.97699C13.0648 5.86794 13.0395 5.73495 13.2031 5.70702C13.0448 5.63122 12.7842 5.66181 12.6232 5.70702C12.578 5.82538 12.4477 5.93045 12.457 6.07141C12.3639 6.1685 12.2974 6.29882 12.199 6.36798C12.1963 6.13525 12.2961 5.91981 12.3373 5.72298C12.2017 5.77485 12.062 5.84666 11.929 5.9105C11.7149 5.78682 11.4875 5.66314 11.2574 5.56872C11.2362 5.55941 11.1909 5.55143 11.2003 5.58999C11.3971 5.73229 11.3213 5.99827 11.3426 6.20041L11.2189 6.09801C11.1577 5.94374 10.9835 5.83203 10.9529 5.66314C10.7468 5.70303 10.6151 5.75756 10.4236 5.83868L10.397 5.85331C10.5393 5.85331 10.6603 5.96502 10.7295 6.07673C10.514 6.0887 10.3239 6.00359 10.1111 5.98231C10.0898 5.96103 10.0712 5.93709 10.0379 5.93975C9.93155 5.97965 9.84111 6.05412 9.74802 6.12727C9.53923 6.3334 9.32645 6.56081 9.2267 6.83211C9.29719 6.84408 9.38496 6.84142 9.4355 6.88265C9.32113 6.9518 9.22005 7.07016 9.10834 7.13665C9.06845 7.29358 9.0751 7.47312 9.06579 7.64467C8.97802 7.77766 8.85965 7.89602 8.80247 8.04497C8.61496 8.65273 8.56575 9.32698 8.59368 10.0172C8.5325 10.0757 8.45404 10.1116 8.39686 10.1568L8.4035 10.7739H8.41813C8.44473 10.6449 8.60033 10.5718 8.69342 10.484H8.72401C8.70938 10.6236 8.69076 10.7619 8.6881 10.9042L8.51255 11.0492C8.33701 11.2035 8.48463 11.4362 8.47 11.6303C8.48197 11.6809 8.49127 11.7567 8.52718 11.77C8.54846 11.6942 8.61496 11.6397 8.65751 11.5732C8.73332 11.5559 8.79981 11.4947 8.86896 11.4854C8.82907 11.637 8.77853 11.7846 8.71735 11.9296C8.6881 11.9482 8.65485 11.9748 8.62559 12.0054C8.595 12.0386 8.56974 12.0759 8.56309 12.1171C8.70007 12.8339 8.91418 13.5414 9.15888 14.217C8.99264 14.4989 8.89822 14.8301 8.75991 15.1213C8.73996 15.1612 8.72267 15.2038 8.70539 15.245C8.56575 15.5974 8.52319 15.9897 8.35031 16.3275C8.27982 16.2796 8.20402 16.2424 8.12689 16.2092C7.79973 16.1001 7.42071 16.1693 7.18133 16.4206C6.96855 16.3807 6.75045 16.4179 6.58421 16.5297C6.46452 16.6188 6.37276 16.7265 6.31957 16.8528C6.28366 16.9406 6.26637 17.0363 6.27169 17.1414C6.13604 17.2345 6.0629 17.3795 6.01768 17.5257C5.95385 17.8529 6.06955 18.192 6.25706 18.4434H21.3553V18.454Z" fill="white"/>
<path fill-rule="evenodd" clip-rule="evenodd" d="M19.3498 11.6503C19.3472 11.7287 19.2886 11.8165 19.3405 11.883C19.4137 11.8006 19.5347 11.8045 19.6318 11.7686C19.9004 11.7447 20.1584 11.8285 20.4097 11.8897C20.3472 11.7899 20.3034 11.6782 20.2342 11.5864C20.0946 11.5505 19.8831 11.6463 19.8592 11.4415C19.7741 11.3683 19.6397 11.4202 19.5533 11.4255C19.4682 11.4867 19.399 11.5612 19.3498 11.6489V11.6503Z" fill="white"/>
<path fill-rule="evenodd" clip-rule="evenodd" d="M10.0924 9.03833C10.0924 9.03833 10.0898 9.03571 10.0885 9.03571C10.0885 9.03571 10.0885 9.03702 10.0885 9.03833H10.0924Z" fill="white"/>
<path fill-rule="evenodd" clip-rule="evenodd" d="M11.1936 11.7274L11.3758 11.5518C11.3918 11.5518 11.4024 11.5545 11.4117 11.5678L11.3971 11.9029C11.4849 11.9854 11.5939 12.012 11.7083 12.0186C11.7176 11.9282 11.7867 11.8644 11.8266 11.7859C11.8599 11.7221 11.8386 11.629 11.9051 11.5824L11.9264 11.6037C11.9477 11.7035 11.9423 11.8152 11.9942 11.9029C12.0009 11.9508 12.0088 12.012 12.0155 12.0545C12.1485 12.0612 12.2695 12.024 12.3732 11.9761C12.3666 11.8617 12.4065 11.7673 12.4238 11.6609C12.4517 11.625 12.3905 11.5585 12.4663 11.5612C12.5089 11.6516 12.5847 11.746 12.6272 11.8418C12.8028 11.6636 12.8759 11.4308 12.9185 11.1888C12.8679 11.1183 12.7882 11.1183 12.727 11.0731C12.2123 10.9068 11.5514 10.8736 11.054 11.1303C11.0221 11.3364 11.0646 11.5638 11.1949 11.7261L11.1936 11.7274Z" fill="white"/>
<path fill-rule="evenodd" clip-rule="evenodd" d="M6.37941 17.406C6.36079 17.6401 6.37941 17.8582 6.39404 18.0883C6.44324 18.1641 6.53101 18.2519 6.61746 18.2585L6.63342 18.1042C6.66932 17.8888 6.55495 17.6601 6.67597 17.4792C6.76109 17.5058 6.84487 17.5483 6.91801 17.5882C6.95392 17.3888 6.90338 17.156 6.71188 17.035L6.37941 17.4074V17.406Z" fill="white"/>
<path fill-rule="evenodd" clip-rule="evenodd" d="M7.12814 17.0789C7.00978 17.4326 6.92201 17.8702 7.06564 18.2425C7.14676 18.188 7.23187 18.1361 7.30369 18.0617C7.28906 17.7771 7.24916 17.4725 7.41939 17.2371C7.56701 17.2824 7.66808 17.4247 7.72526 17.5643C7.825 17.4366 7.85958 17.2611 7.81969 17.0922C7.82634 16.9592 7.6734 16.9898 7.60158 16.9353C7.62552 16.8235 7.62286 16.6932 7.74122 16.6307L7.37816 16.6666C7.28507 16.7996 7.18134 16.9299 7.12947 17.0815L7.12814 17.0789Z" fill="white"/>
<path fill-rule="evenodd" clip-rule="evenodd" d="M7.87554 18.1242C7.8915 18.1521 7.87554 18.2 7.90613 18.2066C7.95134 17.9526 8.15748 17.7877 8.27052 17.5643C8.32504 17.4885 8.32105 17.3821 8.40883 17.3249C8.52719 17.3249 8.6123 17.41 8.72667 17.4193C8.76257 17.4459 8.70805 17.4698 8.70539 17.5004C8.68145 17.7066 8.60299 17.8768 8.61762 18.0882H8.63889C8.79981 17.9193 8.90886 17.7358 9.02722 17.5417L9.0485 17.3701C9.0751 17.164 8.85168 17.031 8.70672 16.9472L8.83705 16.781L8.65485 16.7171C8.44207 16.7384 8.2519 16.8262 8.10295 16.9924C7.91942 17.3315 7.88884 17.7132 7.87687 18.1242H7.87554Z" fill="white"/>
<path fill-rule="evenodd" clip-rule="evenodd" d="M8.69076 16.3288C8.75991 16.3501 8.82374 16.2929 8.8929 16.3235C9.17217 16.4259 9.46342 16.5323 9.67221 16.765L9.9209 17.3967L10.0446 17.0071L9.96213 16.7956C9.89298 16.644 9.70147 16.656 9.57114 16.6507C9.51662 16.5908 9.5738 16.5203 9.59242 16.4631C9.65493 16.249 9.3916 16.2597 9.28654 16.1732C9.29319 16.0429 9.13494 16.0881 9.04717 16.0761L9.01658 16.0402C8.99929 16.0136 8.95408 16.0136 8.92881 16.0336C8.92216 16.0243 8.91019 16.019 8.91683 16.003L8.84901 16.019C8.75592 16.1014 8.69208 16.2065 8.68942 16.3301L8.69076 16.3288Z" fill="white"/>
<path fill-rule="evenodd" clip-rule="evenodd" d="M8.86631 15.6333C8.87562 15.6718 8.89955 15.7117 8.93014 15.7357C9.06712 15.6998 9.19612 15.6067 9.35438 15.6625C9.55785 15.8407 9.7693 16.0283 10.0153 16.1253L10.1031 16.1094C10.1576 16.128 10.2175 16.1307 10.2547 16.1918C10.288 16.2743 10.2042 16.3222 10.1762 16.3887C10.3132 16.4884 10.2587 16.6679 10.3438 16.7876L10.5619 16.4977C10.5114 16.37 10.5646 16.1533 10.3651 16.1413C10.2986 16.1081 10.2534 16.0416 10.256 15.9658C10.1257 15.8474 9.96613 15.7969 9.83447 15.6758C9.72808 15.5907 9.66557 15.4604 9.52859 15.4298C9.4355 15.3793 9.3331 15.3513 9.22272 15.3274C9.01925 15.2968 9.00063 15.5389 8.86764 15.6333H8.86631Z" fill="white"/>
<path fill-rule="evenodd" clip-rule="evenodd" d="M9.15755 15.0362L9.19479 15.0934C9.3464 15.0841 9.48338 15.0176 9.631 15.0202C9.73074 15.0814 9.86107 15.0787 9.96347 15.1293C10.0459 15.241 10.1337 15.3686 10.2534 15.4445C10.4994 15.4804 10.6351 15.7437 10.7202 15.9378V15.8434C10.7561 15.7144 10.7175 15.5615 10.6683 15.4445C10.6071 15.3833 10.5207 15.3434 10.4569 15.2902C10.4449 15.2516 10.4542 15.233 10.4662 15.1958C10.3717 15.096 10.2334 15.0415 10.1177 14.963C9.95682 14.7303 9.64828 14.7941 9.40226 14.7303L9.15755 15.0362Z" fill="white"/>
<path fill-rule="evenodd" clip-rule="evenodd" d="M9.15223 12.8166C9.17882 12.911 9.21207 13.028 9.22936 13.1278C9.31447 12.9402 9.48204 12.8565 9.62965 12.7022C9.54454 12.6437 9.43948 12.6171 9.34506 12.5985V12.5931C9.27856 12.6596 9.17483 12.7261 9.15089 12.8166H9.15223Z" fill="white"/>
<path fill-rule="evenodd" clip-rule="evenodd" d="M9.70279 13.8127L9.83844 13.673C9.97542 13.5334 10.0871 13.3738 10.1084 13.1943C10.0113 13.1371 9.88499 13.1757 9.79056 13.2089C9.75599 13.4057 9.70545 13.5999 9.70279 13.8114V13.8127Z" fill="white"/>
<path fill-rule="evenodd" clip-rule="evenodd" d="M9.80256 14.2396C10.0114 14.2515 10.2148 14.2941 10.3851 14.1771L10.5539 13.6318C10.4994 13.6291 10.4449 13.6052 10.3944 13.6225C10.2827 13.8712 10.0579 14.1159 9.80389 14.2396H9.80256Z" fill="white"/>
<path fill-rule="evenodd" clip-rule="evenodd" d="M9.86373 12.3086C9.99938 12.5081 10.2268 12.7328 10.4608 12.7953C10.4343 12.5413 10.2161 12.3658 10.1031 12.1477L10.0965 12.0745C10.0087 11.9894 9.90229 11.9322 9.81186 11.887C9.79723 12.0333 9.83713 12.1716 9.86373 12.3086Z" fill="white"/>
<path fill-rule="evenodd" clip-rule="evenodd" d="M10.6018 14.2635C10.7627 14.2914 10.9343 14.2635 11.0832 14.2169C11.2987 14.1664 11.417 13.9297 11.4888 13.7462H11.2189L10.9276 14.0307C10.8133 14.0919 10.7029 14.1824 10.6005 14.2635H10.6018Z" fill="white"/>
<path fill-rule="evenodd" clip-rule="evenodd" d="M10.5699 12.0333C10.6151 12.2687 10.7149 12.4841 10.8518 12.6876L10.8877 12.2368L10.5699 12.0346V12.0333Z" fill="white"/>
<path fill-rule="evenodd" clip-rule="evenodd" d="M11.562 13.2102C11.5806 13.0586 11.5168 12.883 11.4995 12.7288C11.4077 12.6676 11.2801 12.6743 11.187 12.6144C11.1923 12.8538 11.3798 13.0559 11.562 13.2102Z" fill="white"/>
<path fill-rule="evenodd" clip-rule="evenodd" d="M11.2867 14.7476C11.4782 14.6864 11.6617 14.6199 11.8373 14.5228C11.949 14.3632 12.1192 14.217 12.1431 14.0294C12.0035 14.068 11.8825 14.0241 11.7522 14.088C11.6737 14.2303 11.6245 14.3912 11.4729 14.4936C11.4489 14.596 11.3372 14.6665 11.2854 14.7476H11.2867Z" fill="white"/>
<path fill-rule="evenodd" clip-rule="evenodd" d="M11.5833 15.1199L11.8107 15.4165C11.9317 15.4564 12.0833 15.4431 12.1897 15.374L12.1072 15.104C11.9477 15.1652 11.7562 15.1465 11.5833 15.1199Z" fill="white"/>
<path fill-rule="evenodd" clip-rule="evenodd" d="M11.9623 12.9775L12.05 13.3778C12.2615 13.2049 12.3054 12.9536 12.3001 12.6876C12.179 12.8272 12.1072 12.911 11.9623 12.9775Z" fill="white"/>
<path fill-rule="evenodd" clip-rule="evenodd" d="M12.5594 13.6824C12.5621 13.7395 12.578 13.7941 12.6113 13.8393C12.8467 13.9231 12.8719 14.2116 13.09 14.3207C13.2323 14.3845 13.3959 14.3047 13.5196 14.2476C13.4252 14.1412 13.3188 14.068 13.2283 13.9563C13.1645 13.9297 13.1007 13.8898 13.1047 13.8114L12.5594 13.6824Z" fill="white"/>
<path fill-rule="evenodd" clip-rule="evenodd" d="M12.7469 15.1107C12.8506 15.229 12.989 15.2889 13.1352 15.3221C13.1113 15.2889 13.1512 15.3221 13.1565 15.3008L12.9743 14.9019C12.8839 14.9045 12.7895 14.9231 12.7057 14.9165C12.711 14.983 12.727 15.0481 12.7482 15.1093L12.7469 15.1107Z" fill="white"/>
<path fill-rule="evenodd" clip-rule="evenodd" d="M13.0674 13.2461C12.9823 13.0493 12.9464 12.8112 12.9225 12.5931C12.832 12.7022 12.7376 12.7713 12.6525 12.8831C12.6126 13.1065 12.9331 13.1623 13.0674 13.2461Z" fill="white"/>
<path fill-rule="evenodd" clip-rule="evenodd" d="M13.4371 13.0413C13.5462 13.1836 13.7856 13.1344 13.9199 13.0919C13.8561 12.9828 13.6512 12.919 13.614 12.8019C13.5927 12.5932 13.5515 12.391 13.4837 12.1995C13.3773 12.4562 13.2496 12.7621 13.4371 13.0413Z" fill="white"/>
<path fill-rule="evenodd" clip-rule="evenodd" d="M13.6273 13.6823C13.9305 13.9031 14.2271 14.1597 14.6513 14.0666C14.6819 14.0454 14.7338 14.048 14.7391 14.0095C14.6141 13.931 14.4824 13.8698 14.3548 13.798L14.2098 13.5866H14.1433C13.9797 13.6411 13.8029 13.6624 13.6286 13.6836L13.6273 13.6823Z" fill="white"/>
<path fill-rule="evenodd" clip-rule="evenodd" d="M13.634 16.1373H13.6552C13.8374 15.9924 14.0529 15.9432 14.267 15.8833C14.3255 15.9046 14.2883 15.9684 14.3401 15.9924C14.4705 15.9378 14.6287 15.9498 14.7617 15.9046C14.9226 15.9112 15.0529 15.9139 15.1833 15.9831C15.2857 16.1187 15.4798 16.1041 15.6142 16.1945L15.5929 15.9831C15.3109 15.6532 14.8721 15.6293 14.4665 15.6346L14.4572 15.5921C14.3601 15.5921 14.251 15.6133 14.1606 15.6559C14.0303 15.6612 13.9066 15.7251 13.7816 15.7649C13.7231 15.8807 13.6778 16.019 13.6353 16.1373H13.634Z" fill="white"/>
<path fill-rule="evenodd" clip-rule="evenodd" d="M13.8773 12.4176C13.9957 12.5719 14.1712 12.6903 14.3707 12.6504C14.2683 12.5506 14.15 12.4442 14.1433 12.3019C14.1739 12.032 13.8773 12.012 13.731 11.8724C13.7789 12.0546 13.7736 12.2567 13.876 12.4176H13.8773Z" fill="white"/>
<path fill-rule="evenodd" clip-rule="evenodd" d="M13.8827 16.6719C14.0436 16.5709 14.2763 16.648 14.4346 16.5416C14.5223 16.4964 14.5277 16.6174 14.5888 16.6507C14.7364 16.7411 14.7551 17.0137 14.9639 16.9499C15.2152 17.0802 15.1514 17.3861 15.1607 17.6095L15.3934 17.4645C15.3721 17.3462 15.4386 17.2039 15.3628 17.1015C15.3056 16.9725 15.1487 16.9592 15.0729 16.8541C15.1633 16.6999 14.9585 16.628 14.9146 16.515L14.9266 16.499L15.2471 16.5416C15.3575 16.6081 15.3961 16.7291 15.4293 16.8408C15.6807 16.8834 15.7418 17.168 15.8296 17.3488C15.8815 17.2252 15.9028 17.0908 15.9533 16.9712C15.956 16.8714 15.823 16.8714 15.7565 16.8262C15.7379 16.6719 15.6687 16.5256 15.533 16.4326C15.2538 16.3634 15.0091 16.2091 14.7032 16.2091L14.4479 16.2876C14.3082 16.3208 14.1606 16.2783 14.0542 16.3754C13.896 16.3873 13.884 16.5602 13.8454 16.6719H13.8827Z" fill="white"/>
<path fill-rule="evenodd" clip-rule="evenodd" d="M14.0063 15.4258L14.0648 15.4524C14.1885 15.3939 14.3135 15.3287 14.4439 15.2795C14.646 15.2223 14.8043 15.4524 14.9745 15.3075C15.0383 15.2622 15.0915 15.3287 15.1407 15.3646C15.2139 15.4976 15.3828 15.4883 15.5104 15.5256C15.4466 15.3527 15.3681 15.1173 15.1474 15.0894C15.0596 15.0508 14.9559 15.0534 14.8721 15.0016C14.6393 14.7449 14.4877 15.213 14.2324 15.0987C14.142 15.1997 14.0303 15.2928 14.0077 15.4258H14.0063Z" fill="white"/>
<path fill-rule="evenodd" clip-rule="evenodd" d="M14.0648 16.8993C14.1619 16.9805 14.2617 17.1201 14.4119 17.1015C14.6008 17.1893 14.5223 17.4366 14.6247 17.567L14.7338 17.4699L14.7245 17.4646L14.7404 17.4499L14.7471 17.4592C14.7777 17.3675 14.7351 17.2079 14.6832 17.1015C14.6141 17.0536 14.5316 17.1042 14.4651 17.0589C14.4558 16.9619 14.3946 16.914 14.3255 16.8528C14.2763 16.8169 14.2138 16.8648 14.1593 16.8621L14.0648 16.8993Z" fill="white"/>
<path fill-rule="evenodd" clip-rule="evenodd" d="M14.4439 13.2103C14.5436 13.3765 14.7378 13.4802 14.892 13.5946C15.0184 13.6531 15.1859 13.6664 15.3216 13.6372C15.1913 13.5308 15.0729 13.4111 14.9638 13.2834C14.9213 13.2236 14.912 13.1478 14.8548 13.0932C14.7112 13.1212 14.5516 13.1172 14.4425 13.2116L14.4439 13.2103Z" fill="white"/>
<path fill-rule="evenodd" clip-rule="evenodd" d="M14.6101 12.1277C14.7497 12.2992 14.9652 12.2301 15.162 12.2367V12.2154L14.8588 11.9601C14.7737 11.988 14.6832 12.0625 14.6101 12.1263V12.1277Z" fill="white"/>
<path fill-rule="evenodd" clip-rule="evenodd" d="M9.03385 9.27376L9.2094 9.81902C9.20674 9.51048 9.34904 9.25381 9.31845 8.93863L9.44878 8.74446L9.17216 8.82958C9.09902 8.96922 9.03917 9.10885 9.03385 9.27509V9.27376Z" fill="white"/>
<path fill-rule="evenodd" clip-rule="evenodd" d="M9.15223 8.32954L9.3916 8.18991V7.83616C9.29186 7.89733 9.23601 7.99973 9.15887 8.08218L9.15355 8.32954H9.15223Z" fill="white"/>
<path fill-rule="evenodd" clip-rule="evenodd" d="M14.0648 8.88009C14.0063 8.9559 13.9199 8.97451 13.8467 8.98914C13.9731 8.75641 14.0342 8.43192 13.9345 8.1686C14.001 8.14466 14.0741 8.13269 14.138 8.09679L14.1313 8.09147L14.2989 7.94518C14.5197 7.79357 14.4345 7.50632 14.517 7.2922C14.4079 7.12198 14.3747 6.91718 14.2164 6.77488L14.2258 6.76956C14.1007 6.61263 13.8773 6.62992 13.7071 6.55146C13.4837 6.47565 13.3108 6.62992 13.1499 6.73365C13.0807 6.74562 13.1233 6.83605 13.0475 6.83339C13.0049 6.9451 12.953 7.06612 12.9238 7.1898C12.6232 7.14725 12.3001 7.18049 12.0607 7.35072C11.933 7.25763 11.7788 7.23901 11.6298 7.19645C11.5208 7.17517 11.3971 7.21507 11.3186 7.1539C11.2042 7.0249 11.179 6.78818 10.9822 6.75493C10.913 6.73099 10.8984 6.65519 10.8984 6.58869C10.768 6.56741 10.6523 6.50757 10.5247 6.47964C10.3318 6.39187 10.1776 6.53151 10.0313 6.6246C9.96745 6.65253 9.89564 6.66051 9.83446 6.69774C9.72541 6.86664 9.62168 7.03953 9.55252 7.22704C9.5738 7.38131 9.6403 7.51829 9.72009 7.64728C9.78924 7.84411 10.0073 7.99837 10.1922 8.07684C10.1044 8.37606 10.1044 8.7338 10.1922 9.03569C10.1922 9.03569 10.1869 9.03968 10.1869 9.03835L10.1776 9.04633C10.1483 9.04633 10.1177 9.05165 10.0938 9.03835H10.0898C10.1324 9.32693 10.268 9.57961 10.4888 9.79771C10.5672 9.82564 10.5499 9.91873 10.5832 9.97991C10.6045 10.0065 10.6071 10.0637 10.5978 10.089C10.1257 10.0743 9.70413 10.1914 9.32644 10.4068C9.22936 10.4547 9.27192 10.589 9.26394 10.6821C9.52992 10.5065 9.8185 10.3762 10.1363 10.319C10.272 10.3097 10.4276 10.2765 10.5579 10.3124L10.5725 10.573C10.2121 10.7606 9.8185 10.8696 9.50864 11.1781C9.51529 11.2712 9.49667 11.3803 9.5246 11.4601L9.79988 11.2353C10.0659 11.0332 10.3451 10.8603 10.651 10.7486C10.7335 10.8457 10.8186 10.9481 10.9276 11.0079C11.1125 10.8896 11.312 10.8031 11.5248 10.7486C11.6365 10.6821 11.8147 10.7419 11.8878 10.6089L11.9397 10.3337C11.9304 10.327 11.925 10.3164 11.9091 10.319C11.7668 10.2366 11.6737 10.0956 11.6857 9.92804C11.6378 9.95198 11.5833 9.96794 11.5248 9.9706C11.4755 9.95863 11.4317 9.94666 11.4104 9.89746C11.4077 9.83628 11.3771 9.74585 11.437 9.70063C11.6338 9.57961 11.8891 9.57296 12.1365 9.59158C12.3214 9.61552 12.5887 9.60621 12.6512 9.82431C12.6432 9.88815 12.6485 9.9573 12.5847 9.99986C12.5182 10.0358 12.4424 9.9972 12.3812 9.96927C12.3333 10.1169 12.2509 10.2845 12.0846 10.3323L12.1059 10.5079C12.1272 10.5863 12.1325 10.7167 12.2575 10.6887C12.5448 10.7579 12.7988 10.9068 13.0515 11.0664C13.1366 10.9813 13.2031 10.8842 13.2629 10.7965C13.7111 10.9481 14.0994 11.2832 14.4691 11.5957L14.4851 11.3417C14.134 11.0305 13.743 10.8098 13.3361 10.6369C13.352 10.5544 13.3693 10.476 13.372 10.3895C13.8534 10.4161 14.3109 10.5651 14.7085 10.7978L14.7019 10.5797C14.2843 10.3563 13.8268 10.2073 13.3267 10.202C13.3081 10.1741 13.3028 10.1355 13.3055 10.1076C13.5475 10.0677 13.7204 9.81766 13.7789 9.59956C13.9026 9.45726 14.0821 9.303 14.0396 9.09154C14.0449 9.07426 14.0515 9.05564 14.0569 9.03702C14.0728 8.98382 14.0861 8.92797 14.0688 8.87876L14.0648 8.88009Z" fill="white"/>
<path fill-rule="evenodd" clip-rule="evenodd" d="M14.4864 9.65809L14.7351 9.57963L14.7617 9.43999C14.8322 9.23785 14.6832 9.08624 14.6101 8.92532L14.4864 9.65809Z" fill="white"/>
<path fill-rule="evenodd" clip-rule="evenodd" d="M15.1128 10.6169C15.2311 10.7459 15.3455 10.9561 15.5556 10.8922C15.5397 10.8045 15.4918 10.7326 15.4612 10.6542C15.4067 10.5903 15.3881 10.4082 15.279 10.4733C15.1966 10.4188 15.1766 10.327 15.1247 10.2552C15.1008 10.3669 15.1154 10.5066 15.1128 10.6183V10.6169Z" fill="white"/>
<path fill-rule="evenodd" clip-rule="evenodd" d="M15.1553 11.504C15.2006 11.5678 15.2139 11.6503 15.2578 11.7074C15.3402 11.762 15.4612 11.7527 15.561 11.7434C15.6514 11.7221 15.7099 11.8218 15.7937 11.7646C15.6886 11.6981 15.6248 11.5771 15.5237 11.4893C15.4054 11.3949 15.279 11.4774 15.154 11.504H15.1553Z" fill="white"/>
<path fill-rule="evenodd" clip-rule="evenodd" d="M15.3163 12.911C15.5251 13.0347 15.791 13.157 16.0703 13.1145C16.1009 13.0985 16.1528 13.1025 16.1581 13.0653C15.9852 13.0041 15.8043 12.8325 15.6235 12.7953C15.5237 12.641 15.3934 12.8352 15.2657 12.8219C15.2684 12.8578 15.3043 12.8857 15.3176 12.9097L15.3163 12.911Z" fill="white"/>
<path fill-rule="evenodd" clip-rule="evenodd" d="M15.9453 15.5827L15.9905 15.6798C16.0357 15.995 16.2352 16.2849 16.1262 16.6294C16.2166 16.6932 16.2445 16.7983 16.3017 16.8834H16.3163C16.3855 16.6201 16.3376 16.3474 16.3017 16.0841C16.3283 15.8447 16.0863 15.7064 15.944 15.5814L15.9453 15.5827Z" fill="white"/>
<path fill-rule="evenodd" clip-rule="evenodd" d="M15.9985 12.4841C16.1568 12.6051 16.4081 12.6171 16.589 12.5572C16.4746 12.4934 16.3469 12.4243 16.2525 12.3391L15.9985 12.4841Z" fill="white"/>
<path fill-rule="evenodd" clip-rule="evenodd" d="M16.7446 13.4137C16.7286 13.5414 16.8137 13.6464 16.9055 13.7103C16.9387 13.6344 16.9933 13.5706 16.9986 13.4868C16.972 13.3565 16.8989 13.2395 16.7805 13.1517C16.7592 13.2355 16.7353 13.3166 16.7446 13.415V13.4137Z" fill="white"/>
<path fill-rule="evenodd" clip-rule="evenodd" d="M16.7552 14.7928C16.7339 14.9351 16.8909 14.9537 16.9574 15.0322C17.0119 15.0987 16.9215 15.1439 16.9215 15.2077C17.0358 15.3553 17.1037 15.5256 17.1037 15.7224C17.1489 15.5375 17.2194 15.362 17.2433 15.1718C17.2313 15.0388 17.0199 15.0654 17.0518 14.9178C17.1116 14.7662 17.0398 14.6186 16.9999 14.4829C16.988 14.4617 16.96 14.4191 16.9374 14.4311C16.8816 14.5547 16.7459 14.6425 16.7552 14.7941V14.7928Z" fill="white"/>
<path fill-rule="evenodd" clip-rule="evenodd" d="M17.1701 14.072L17.3271 14.3778C17.3976 14.3699 17.4414 14.302 17.496 14.2542C17.5385 14.1265 17.4268 14.0454 17.3936 13.9416C17.3656 13.8685 17.3936 13.7727 17.3417 13.7089C17.3031 13.685 17.2566 13.6451 17.2114 13.6571L17.1701 14.072Z" fill="white"/>
<path fill-rule="evenodd" clip-rule="evenodd" d="M17.3723 13.2688C17.496 13.3446 17.6383 13.4536 17.7048 13.5866C17.8112 13.8951 17.9814 14.1744 18.1051 14.4736C18.1503 14.6824 18.1875 14.8686 18.2447 15.0748C18.266 15.1279 18.254 15.2343 18.3391 15.2264C18.3631 14.9963 18.4083 14.7755 18.4123 14.5361C18.3365 14.4364 18.2367 14.3938 18.1423 14.3327V14.3114C18.1543 14.2595 18.1968 14.1997 18.2607 14.209C18.2873 14.1784 18.3697 14.1478 18.3338 14.0933C18.1755 13.9364 18.1849 13.6651 17.9335 13.6159C17.8457 13.58 17.8245 13.4895 17.8165 13.4044C17.6981 13.3047 17.5226 13.2714 17.3736 13.2688H17.3723Z" fill="white"/>
<path fill-rule="evenodd" clip-rule="evenodd" d="M17.5172 14.9085C17.6715 15.0494 17.6183 15.2556 17.605 15.4471C17.5811 15.5628 17.726 15.495 17.7726 15.5561C17.8657 15.6958 17.8111 15.8979 17.7779 16.0495C17.8603 15.9245 17.9534 15.8155 18.0173 15.6798C18.0146 15.6279 18.0798 15.604 18.0785 15.5402C18.1051 15.4524 18.0026 15.4923 17.9601 15.4817C17.9242 15.4723 17.8843 15.4484 17.8963 15.4005C17.9747 15.2489 17.9029 15.0681 17.8723 14.9165C17.8364 14.7914 17.8883 14.6265 17.8298 14.5175C17.7327 14.6505 17.4454 14.6811 17.5172 14.9085Z" fill="white"/>
<path fill-rule="evenodd" clip-rule="evenodd" d="M17.7992 12.7594C18.0691 13.032 18.266 13.306 18.5572 13.5693C18.5639 13.4523 18.5479 13.3419 18.5426 13.2275C18.5 13.1464 18.4216 13.0852 18.3551 13.0254C18.141 13.0041 18.0279 12.7155 17.8005 12.7607L17.7992 12.7594Z" fill="white"/>
<path fill-rule="evenodd" clip-rule="evenodd" d="M18.5053 14.201C18.512 14.2276 18.524 14.2515 18.5359 14.2794C18.6543 14.4736 18.766 14.6731 18.8485 14.8819C18.8245 14.6585 18.9761 14.3792 18.7753 14.2076C18.7487 14.1345 18.6569 14.1598 18.5998 14.1651L18.5053 14.201Z" fill="white"/>
<path fill-rule="evenodd" clip-rule="evenodd" d="M19.2315 16.4126C19.3166 16.4512 19.4256 16.382 19.5067 16.3341C19.5825 16.3155 19.6464 16.3581 19.7036 16.398C19.7275 16.4458 19.7036 16.4911 19.7115 16.5376C19.8937 16.5895 20.0719 16.656 20.2329 16.761L20.2834 16.7105C20.2954 16.5802 20.193 16.4871 20.0959 16.4139C20.032 16.3767 19.9376 16.398 19.8937 16.3408C19.9243 16.2929 19.9243 16.2198 19.9203 16.1652C19.8206 16.1652 19.7568 16.1346 19.6743 16.0868C19.6238 16.0721 19.5772 16.0296 19.5347 16.0868C19.3831 16.1905 19.3751 16.3408 19.2288 16.4139L19.2315 16.4126Z" fill="white"/>
<path fill-rule="evenodd" clip-rule="evenodd" d="M19.4442 12.6038C19.52 12.5825 19.5985 12.5612 19.6623 12.5067C19.8645 12.3218 20.1584 12.4455 20.3951 12.4429C20.3499 12.3604 20.2861 12.2793 20.2289 12.2101C20.1438 12.1769 20.0653 12.137 19.9682 12.137C19.7621 12.016 19.6238 12.2194 19.4655 12.3179C19.423 12.4003 19.403 12.5213 19.4442 12.6024V12.6038Z" fill="white"/>
<path fill-rule="evenodd" clip-rule="evenodd" d="M19.4496 13.2262C19.4496 13.2182 19.4496 13.2076 19.4589 13.2049C19.4855 13.2289 19.4562 13.2861 19.5014 13.298C19.5799 13.2595 19.653 13.2049 19.7248 13.1531C19.9283 13.1531 20.0493 12.9562 20.2488 12.9562C20.5813 13.0161 20.9124 13.0826 21.2024 13.2462C21.1811 13.0493 21.0122 12.8711 20.8393 12.7834C20.7422 12.7501 20.6664 12.802 20.5959 12.8565C20.3925 12.9842 20.4988 12.6716 20.3565 12.6663C20.1717 12.7248 19.9802 12.7873 19.7754 12.7701C19.6544 12.8153 19.5693 12.927 19.4336 12.915C19.427 13.0148 19.4123 13.1358 19.4482 13.2262H19.4496Z" fill="white"/>
<path fill-rule="evenodd" clip-rule="evenodd" d="M19.5892 13.9018C19.6517 13.9683 19.7581 13.9563 19.8498 13.9683L20.1132 13.8659C20.1158 13.818 20.0347 13.8047 20.052 13.7515C20.1251 13.669 20.2249 13.7275 20.3153 13.693C20.443 13.6757 20.5733 13.548 20.6996 13.6424C20.697 13.6571 20.7063 13.6783 20.6943 13.693C20.6544 13.7874 20.7209 13.8446 20.7941 13.8805C20.943 13.9084 21.0813 14.0441 21.2303 13.9829C21.2156 13.8592 21.1824 13.7448 21.1518 13.6265C21.0281 13.6052 20.9404 13.5028 20.8247 13.4602C20.7728 13.5081 20.7063 13.5453 20.6425 13.5387C20.4097 13.4842 20.1305 13.3392 19.8951 13.4882C19.8099 13.5906 19.6583 13.56 19.544 13.6052C19.5506 13.7089 19.5626 13.8087 19.5905 13.9031L19.5892 13.9018Z" fill="white"/>
<path fill-rule="evenodd" clip-rule="evenodd" d="M19.6889 15.7011C19.6703 15.753 19.6198 15.8381 19.7129 15.862C19.907 15.8687 20.1557 15.7689 20.3073 15.9192C20.3579 15.9591 20.3339 16.0402 20.3313 16.0921L20.5853 16.3036C20.6092 16.1759 20.6544 16.0615 20.6584 15.9245C20.6371 15.8275 20.5893 15.7344 20.5042 15.6705C20.3366 15.6705 20.2395 15.475 20.0613 15.5003C19.9682 15.479 19.8858 15.5615 19.7913 15.5615C19.7488 15.604 19.7248 15.6559 19.6889 15.7011Z" fill="white"/>
<path fill-rule="evenodd" clip-rule="evenodd" d="M19.7621 14.2741C19.8007 14.3553 19.8472 14.4882 19.923 14.4976C20.1012 14.4191 20.3619 14.3699 20.5627 14.455C20.6292 14.467 20.6292 14.5428 20.6146 14.592C20.717 14.6518 20.842 14.6997 20.951 14.7675L20.9204 14.5867C20.9138 14.3898 20.6651 14.3712 20.6505 14.1771C20.447 14.1106 20.2209 14.0893 20.0055 14.1411C19.935 14.205 19.8352 14.1957 19.7501 14.2143C19.7448 14.2382 19.7594 14.2529 19.7621 14.2741Z" fill="white"/>
<path fill-rule="evenodd" clip-rule="evenodd" d="M19.8139 15.2543C19.9323 15.221 20.0068 15.0907 20.1344 15.0787C20.3286 15.0814 20.5015 15.1598 20.6225 15.3261C20.6957 15.374 20.681 15.499 20.7741 15.499C20.7475 15.35 20.7954 15.2144 20.7901 15.0628C20.6624 14.8513 20.3486 15.0149 20.2302 14.7662L20.0068 14.7808C19.8459 14.8207 19.8884 15.0082 19.8671 15.1346C19.8485 15.1745 19.8126 15.2037 19.8166 15.2529L19.8139 15.2543Z" fill="white"/>
<path fill-rule="evenodd" clip-rule="evenodd" d="M20.9244 16.5775C21.0188 16.765 21.225 16.9073 21.2463 17.1228C21.2955 17.0642 21.3287 16.9991 21.362 16.9352C21.3593 16.8741 21.2888 16.8741 21.2609 16.8262C21.2343 16.7477 21.2768 16.6786 21.2888 16.6081C21.2502 16.4964 21.1558 16.39 21.0494 16.3235L20.9257 16.5775H20.9244Z" fill="white"/>
<path fill-rule="evenodd" clip-rule="evenodd" d="M21.2981 16.1001L21.5162 16.3966C21.6093 16.2477 21.6093 16.0309 21.5734 15.8514C21.5521 15.8181 21.5122 15.7636 21.459 15.7875C21.3766 15.8727 21.3646 16.0017 21.2994 16.1001H21.2981Z" fill="white"/>
<path fill-rule="evenodd" clip-rule="evenodd" d="M20.4097 7.81753C20.4882 7.85743 20.564 7.89333 20.6584 7.89865C20.7223 7.86541 20.8047 7.84147 20.8832 7.86275C20.9949 7.93589 21.1319 7.84812 21.2609 7.85344C21.1465 7.74439 21.0162 7.67789 20.8832 7.61539C20.713 7.65129 20.5773 7.77231 20.4097 7.81753Z" fill="white"/>
<path fill-rule="evenodd" clip-rule="evenodd" d="M21.5946 8.10216C21.7542 8.11679 21.8699 8.25908 21.979 8.37744C22.116 8.39872 22.2184 8.49447 22.2995 8.59555L22.2476 8.43463C22.2117 8.27371 22.112 8.15003 22.0082 8.02369C21.8633 8.033 21.7197 8.04497 21.5933 8.10216H21.5946Z" fill="white"/>
<path fill-rule="evenodd" clip-rule="evenodd" d="M10.2906 6.77354L10.3784 6.78285C10.6151 6.90121 10.9968 6.96105 11.0181 7.30283C10.78 7.39726 10.5486 7.52492 10.3584 7.71776C10.2135 7.56881 9.91825 7.65126 9.87037 7.39061C9.91559 7.14591 10.0034 6.83737 10.2906 6.77354Z" fill="#FF6600"/>
<path fill-rule="evenodd" clip-rule="evenodd" d="M10.518 8.30826C10.7933 8.28433 11.0593 8.32289 11.3452 8.29896C11.4144 8.32954 11.4875 8.38939 11.5208 8.45987C11.5115 8.78702 11.4117 9.09822 11.3971 9.43468C11.2734 9.48655 11.1524 9.58895 11.1218 9.72593C11.0101 9.75917 10.909 9.82567 10.8 9.87753C10.7508 9.77513 10.7601 9.62086 10.8465 9.53575C10.9649 9.36952 11.2707 9.40808 11.2455 9.14476C11.3239 9.0171 11.2481 8.85352 11.2521 8.72053C11.2215 8.62079 11.191 8.75378 11.1431 8.75112C11.046 8.7724 10.9463 8.77772 10.8625 8.72984C10.7986 8.66202 10.7202 8.60882 10.7016 8.51839C10.6164 8.47583 10.5167 8.40934 10.4741 8.32156L10.5194 8.30959L10.518 8.30826Z" fill="#FF6600"/>
<path fill-rule="evenodd" clip-rule="evenodd" d="M10.8518 10.2818C10.9808 10.2991 11.1178 10.2419 11.2308 10.3057C11.2069 10.3483 11.1431 10.3656 11.0912 10.3789L10.8877 10.4733C10.8119 10.4547 10.8545 10.3337 10.8518 10.2831V10.2818Z" fill="#FF6600"/>
<path fill-rule="evenodd" clip-rule="evenodd" d="M11.3811 7.75499C11.5115 7.71244 11.6511 7.62599 11.7894 7.66722C11.6897 7.76696 11.6112 7.89729 11.5354 8.01831L11.1205 8.009C11.1657 7.89995 11.2801 7.80952 11.3811 7.75499Z" fill="#FF6600"/>
<path fill-rule="evenodd" clip-rule="evenodd" d="M12.5966 7.6553C12.7682 7.62471 12.7602 7.84946 12.9172 7.85877C12.9451 7.89468 12.9836 7.92792 12.969 7.98245C12.8786 8.01836 12.7456 8.00107 12.6419 8.02501C12.5062 7.9492 12.594 7.71381 12.3785 7.72844C12.3666 7.71115 12.3426 7.67391 12.3732 7.66195C12.4397 7.63801 12.5275 7.64732 12.598 7.65663L12.5966 7.6553Z" fill="#FF6600"/>
<path fill-rule="evenodd" clip-rule="evenodd" d="M12.4876 8.46654C12.5634 8.36015 12.6791 8.35217 12.7868 8.32956L13.5715 8.34419C13.6047 8.37478 13.5409 8.40138 13.5409 8.43861C13.4917 8.48383 13.4225 8.4958 13.38 8.53836C13.2775 8.54102 13.2855 8.66204 13.2137 8.7139C13.102 8.82561 12.9384 8.77508 12.8081 8.75646C12.7629 8.72321 12.711 8.67799 12.6897 8.62613L12.6538 8.66204C12.699 8.83226 12.6871 9.01978 12.7203 9.19133L12.9078 9.31634C12.9105 9.59429 13.2377 9.51848 13.3813 9.67408C13.348 9.77382 13.2815 9.85894 13.2097 9.94405C13.094 9.83234 12.9637 9.75919 12.8254 9.71132C12.8134 9.54774 12.6352 9.45199 12.5341 9.36954C12.5075 9.07297 12.5009 8.76976 12.453 8.4825L12.4889 8.46787L12.4876 8.46654Z" fill="#FF6600"/>
<path fill-rule="evenodd" clip-rule="evenodd" d="M12.7722 10.3324H13.1366L13.0914 10.5225L12.727 10.3683C12.719 10.3377 12.7509 10.3297 12.7722 10.3324Z" fill="#FF6600"/>
<path fill-rule="evenodd" clip-rule="evenodd" d="M13.4265 6.90524L13.6964 6.82013C13.8507 6.89194 13.997 6.9837 14.138 7.0861C14.2497 7.29224 14.2311 7.57018 14.1805 7.80025C14.0981 7.89202 13.9199 7.80025 13.8534 7.94521H13.8414C13.7417 7.66061 13.4571 7.40661 13.1937 7.27628C13.2363 7.13132 13.2815 6.98902 13.4265 6.90524Z" fill="#FF6600"/>
<path fill-rule="evenodd" clip-rule="evenodd" d="M19.7435 18.4327H21.3593C21.5987 18.3968 21.8527 18.4021 22.0442 18.2266C22.8527 18.3516 23.6733 18.1508 24.3103 17.7066C24.6454 17.4353 24.9473 17.1228 25.1907 16.781C25.4061 16.4791 25.575 16.1985 25.6854 15.8607C25.7665 15.6519 25.8317 15.4365 25.8809 15.213C26.1123 14.1651 25.9913 12.9921 25.6495 11.9934C25.5857 11.8085 25.5152 11.629 25.4367 11.4588C25.0098 10.5784 24.43 9.62751 23.535 9.07028C23.0309 8.75643 22.5681 8.27102 22.2835 7.76832C22.1293 7.62868 21.9803 7.44383 21.7809 7.41058C21.8354 7.50102 21.8952 7.58879 21.9112 7.69518L21.8992 7.70981C21.6878 7.71646 21.5202 7.60342 21.3752 7.46777L21.5362 7.32281C21.475 7.29222 21.4058 7.28025 21.3393 7.26562C20.7276 7.19647 20.2249 7.47708 19.6823 7.61406L19.673 7.64464C20.0054 7.79226 20.0759 8.15931 20.2701 8.408C20.3193 8.34948 20.4004 8.39204 20.4669 8.38672C20.564 8.39337 20.6544 8.46252 20.7475 8.43859C20.7502 8.35746 20.7063 8.29363 20.6903 8.22182C20.7475 8.19389 20.818 8.21916 20.8818 8.22182C21.0574 8.32422 21.3393 8.2032 21.4484 8.43859C21.2489 8.45056 21.0601 8.49311 20.8725 8.53833C20.8845 8.61413 20.9603 8.67531 20.955 8.74978C20.7941 8.68196 20.6252 8.64073 20.4456 8.61945L20.4377 8.64605C20.6651 8.91203 20.9763 9.07028 21.2941 9.16338C21.7516 9.26977 22.1545 9.05167 22.5961 9.12747C23.6813 9.62352 24.6082 10.7592 25.0112 11.8365C25.0311 11.8883 25.0497 11.9402 25.0683 11.9934C25.4061 12.9775 25.47 14.1877 25.1322 15.213C24.9526 15.6399 24.7545 16.0429 24.4366 16.39C24.3169 16.5376 24.184 16.6693 24.039 16.781C23.5842 17.1347 23.0243 17.2903 22.4458 17.1321C22.4099 17.1081 22.3367 17.1015 22.3487 17.039C22.3687 16.9552 22.3873 16.8688 22.4046 16.7823C22.5003 16.2902 22.5442 15.7729 22.5189 15.2556C22.5189 15.233 22.5176 15.2104 22.5163 15.1891C22.4844 14.4377 22.3341 13.7635 22.0588 13.1131C21.8819 12.7408 21.6718 12.3338 21.4058 11.9694C21.0893 11.5346 20.697 11.1582 20.193 10.9707C19.8844 10.8882 19.5014 10.8736 19.2687 11.1316C19.1011 11.2766 19.032 11.4734 19.0559 11.6875C18.7953 11.8524 18.5027 11.9428 18.1835 11.9694C18.105 11.9761 18.0252 12.004 17.9441 12.004C17.867 12.008 17.7912 12.004 17.718 11.9947C17.3337 11.9482 16.9454 11.742 16.6515 11.504C16.6448 11.3471 16.6355 11.1981 16.6302 11.0332C16.4613 10.9454 16.3217 10.7779 16.3097 10.5824L16.3256 10.5677C16.4227 10.5983 16.5078 10.6462 16.5943 10.6981C16.5544 10.4627 16.5092 10.2286 16.3921 10.0238C16.2831 9.9786 16.1727 9.94269 16.0703 9.88684C15.9519 9.80837 15.8761 9.66607 15.8589 9.53574C15.9639 9.63948 16.1488 9.60224 16.2312 9.71129C16.0889 9.29105 16.0863 8.80963 15.8522 8.42529C15.7338 8.14069 15.4253 8.01036 15.2125 7.80157C15.1301 7.70183 15.0982 7.56352 14.9492 7.54756C14.8282 7.51697 14.8189 7.38133 14.7976 7.29355C14.8734 7.30286 14.9372 7.3534 15.0011 7.36537C14.8255 6.89858 14.6713 6.38258 14.1952 6.08601L14.1127 6.13655C13.9279 6.16448 13.731 6.17645 13.5462 6.18177C13.6286 6.06075 13.7736 6.00888 13.888 5.95435C13.7536 5.85461 13.6446 5.83067 13.4784 5.80275C13.3813 5.89983 13.2071 5.9477 13.082 5.97563L13.0674 5.96366C13.0648 5.85461 13.0395 5.72162 13.2031 5.6937C13.0461 5.61789 12.7855 5.64848 12.6246 5.6937C12.5793 5.81206 12.4503 5.91712 12.4583 6.05676C12.3652 6.15384 12.2987 6.28417 12.2017 6.35332C12.199 6.12059 12.2974 5.90515 12.34 5.70832C12.2043 5.75886 12.0647 5.832 11.9317 5.89584C11.7163 5.77216 11.4902 5.64715 11.2601 5.55406C11.2388 5.54475 11.1936 5.53544 11.2016 5.57534C11.3984 5.71763 11.3226 5.98361 11.3439 6.18708L11.2202 6.08468C11.159 5.93042 10.9848 5.81871 10.9542 5.64848C10.7481 5.68838 10.6164 5.7429 10.4249 5.82403L10.3983 5.83865C10.5406 5.83865 10.6616 5.95036 10.7308 6.06208C10.5154 6.07404 10.3252 5.98893 10.1137 5.96898C10.0925 5.9477 10.0752 5.92377 10.0406 5.92643C9.9342 5.96632 9.84377 6.04213 9.74935 6.11394C9.54055 6.31874 9.32777 6.54748 9.22803 6.81878C9.29852 6.83075 9.38629 6.82809 9.43682 6.87065C9.32245 6.9398 9.22138 7.05816 9.10967 7.12466C9.0711 7.28158 9.07642 7.46112 9.06711 7.63267C8.97934 7.76566 8.86098 7.88402 8.8038 8.03164C8.61628 8.6394 8.56708 9.31498 8.595 10.0052C8.53383 10.0624 8.45536 10.0996 8.39818 10.1448L8.40483 10.7619H8.41946C8.44738 10.6316 8.60165 10.5598 8.69474 10.472H8.72533C8.7107 10.6116 8.69208 10.7499 8.68942 10.8922L8.51388 11.0372C8.33833 11.1915 8.48728 11.4242 8.47132 11.617C8.48329 11.6689 8.4926 11.7447 8.52984 11.7567C8.55112 11.6809 8.61761 11.6263 8.65884 11.5598C8.73464 11.5412 8.80114 11.4814 8.87029 11.4721C8.83172 11.6237 8.77986 11.7713 8.71868 11.9162C8.68942 11.9349 8.65618 11.9615 8.62692 11.992C8.59633 12.0253 8.57106 12.0639 8.56575 12.1051C8.70139 12.8219 8.91551 13.5294 9.16154 14.205C8.99397 14.4856 8.90088 14.8181 8.76124 15.108C8.74129 15.1492 8.724 15.1904 8.70671 15.2317C8.56708 15.5841 8.52452 15.9764 8.35163 16.3155C8.28248 16.2663 8.20667 16.2304 8.12821 16.1972C7.79973 16.0881 7.42204 16.1586 7.18266 16.4086C6.96988 16.3687 6.75178 16.406 6.58554 16.5177C6.46585 16.6081 6.37409 16.7158 6.32089 16.8422C6.28499 16.9299 6.2677 17.0257 6.27435 17.1294C6.13737 17.2238 6.06555 17.3688 6.02034 17.5137C5.9565 17.8409 6.07087 18.1814 6.25972 18.4314H19.7421L19.7435 18.4327Z" fill="white"/>
<path fill-rule="evenodd" clip-rule="evenodd" d="M25.6495 11.9934C25.5857 11.8085 25.5152 11.629 25.4367 11.4588C25.0098 10.5784 24.43 9.62751 23.535 9.07028C23.0309 8.75643 22.5681 8.27102 22.2835 7.76832C22.1293 7.62868 21.9803 7.44383 21.7809 7.41058C21.8354 7.50102 21.8952 7.58879 21.9112 7.69518L21.8992 7.70981C21.6878 7.71646 21.5202 7.60342 21.3752 7.46777L21.5362 7.32281C21.475 7.29222 21.4058 7.28025 21.3393 7.26562C20.7276 7.19647 20.2249 7.47708 19.6823 7.61406L19.673 7.64464C20.0054 7.79226 20.0759 8.15931 20.2701 8.408C20.3193 8.34948 20.4004 8.39204 20.4669 8.38672C20.564 8.39337 20.6544 8.46252 20.7475 8.43859C20.7502 8.35746 20.7063 8.29363 20.6903 8.22182C20.7475 8.19389 20.818 8.21916 20.8818 8.22182C21.0574 8.32422 21.3393 8.2032 21.4484 8.43859C21.2489 8.45056 21.0601 8.49311 20.8725 8.53833C20.8845 8.61413 20.9603 8.67531 20.955 8.74978C20.7941 8.68196 20.6252 8.64073 20.4456 8.61945L20.4377 8.64605C20.6651 8.91203 20.9763 9.07028 21.2941 9.16338C21.7516 9.26977 22.1545 9.05167 22.5961 9.12747C23.6813 9.62352 24.6082 10.7592 25.0112 11.8365C25.0311 11.8883 25.0497 11.9402 25.0683 11.9934C25.4061 12.9775 25.47 14.1877 25.1322 15.213C24.9526 15.6399 24.7545 16.0429 24.4366 16.39C24.3169 16.5376 24.184 16.6693 24.039 16.781C23.5842 17.1347 23.0243 17.2903 22.4458 17.1321C22.4099 17.1081 22.3367 17.1015 22.3487 17.039C22.3687 16.9552 22.3873 16.8688 22.4046 16.7823C22.5003 16.2902 22.5442 15.7729 22.5189 15.2556C22.5189 15.233 22.5176 15.2104 22.5163 15.1891C22.4844 14.4377 22.3341 13.7635 22.0588 13.1131C21.8819 12.7408 21.6718 12.3338 21.4058 11.9694C21.0893 11.5346 20.697 11.1582 20.193 10.9707C19.8844 10.8882 19.5014 10.8736 19.2687 11.1316C19.1011 11.2766 19.032 11.4734 19.0559 11.6875C18.7953 11.8524 18.5027 11.9428 18.1835 11.9694C18.105 11.9761 18.0252 12.004 17.9441 12.004C17.867 12.008 17.7912 12.004 17.718 11.9947C17.3337 11.9482 16.9454 11.742 16.6515 11.504C16.6448 11.3471 16.6355 11.1981 16.6302 11.0332C16.4613 10.9454 16.3217 10.7779 16.3097 10.5824L16.3256 10.5677C16.4227 10.5983 16.5078 10.6462 16.5943 10.6981C16.5544 10.4627 16.5092 10.2286 16.3921 10.0238C16.2831 9.9786 16.1727 9.94269 16.0703 9.88684C15.9519 9.80837 15.8761 9.66607 15.8589 9.53574C15.9639 9.63948 16.1488 9.60224 16.2312 9.71129C16.0889 9.29105 16.0863 8.80963 15.8522 8.42529C15.7338 8.14069 15.4253 8.01036 15.2125 7.80157C15.1301 7.70183 15.0982 7.56352 14.9492 7.54756C14.8282 7.51697 14.8189 7.38133 14.7976 7.29355C14.8734 7.30286 14.9372 7.3534 15.0011 7.36537C14.8255 6.89858 14.6713 6.38258 14.1952 6.08601L14.1127 6.13655C13.9279 6.16448 13.731 6.17645 13.5462 6.18177C13.6286 6.06075 13.7736 6.00888 13.888 5.95435C13.7536 5.85461 13.6446 5.83067 13.4784 5.80275C13.3813 5.89983 13.2071 5.9477 13.082 5.97563L13.0674 5.96366C13.0648 5.85461 13.0395 5.72162 13.2031 5.6937C13.0461 5.61789 12.7855 5.64848 12.6246 5.6937C12.5793 5.81206 12.4503 5.91712 12.4583 6.05676C12.3652 6.15384 12.2987 6.28417 12.2017 6.35332C12.199 6.12059 12.2974 5.90515 12.34 5.70832C12.2043 5.75886 12.0647 5.832 11.9317 5.89584C11.7163 5.77216 11.4902 5.64715 11.2601 5.55406C11.2388 5.54475 11.1936 5.53544 11.2016 5.57534C11.3984 5.71763 11.3226 5.98361 11.3439 6.18708L11.2202 6.08468C11.159 5.93042 10.9848 5.81871 10.9542 5.64848C10.7481 5.68838 10.6164 5.7429 10.4249 5.82403L10.3983 5.83865C10.5406 5.83865 10.6616 5.95036 10.7308 6.06208C10.5154 6.07404 10.3252 5.98893 10.1137 5.96898C10.0925 5.9477 10.0752 5.92377 10.0406 5.92643C9.9342 5.96632 9.84377 6.04213 9.74935 6.11394C9.54055 6.31874 9.32777 6.54748 9.22803 6.81878C9.29852 6.83075 9.38629 6.82809 9.43682 6.87065C9.32245 6.9398 9.22138 7.05816 9.10967 7.12466C9.0711 7.28158 9.07642 7.46112 9.06711 7.63267C8.97934 7.76566 8.86098 7.88402 8.8038 8.03164C8.61628 8.6394 8.56708 9.31498 8.595 10.0052C8.53383 10.0624 8.45536 10.0996 8.39818 10.1448L8.40483 10.7619H8.41946C8.44738 10.6316 8.60165 10.5598 8.69474 10.472H8.72533C8.7107 10.6116 8.69208 10.7499 8.68942 10.8922L8.51388 11.0372C8.33833 11.1915 8.48728 11.4242 8.47132 11.617C8.48329 11.6689 8.4926 11.7447 8.52984 11.7567C8.55112 11.6809 8.61761 11.6263 8.65884 11.5598C8.73464 11.5412 8.80114 11.4814 8.87029 11.4721C8.83172 11.6237 8.77986 11.7713 8.71868 11.9162C8.68942 11.9349 8.65618 11.9615 8.62692 11.992C8.59633 12.0253 8.57106 12.0639 8.56575 12.1051C8.70139 12.8219 8.91551 13.5294 9.16154 14.205C8.99397 14.4856 8.90088 14.8181 8.76124 15.108C8.74129 15.1492 8.724 15.1904 8.70671 15.2317C8.56708 15.5841 8.52452 15.9764 8.35163 16.3155C8.28248 16.2663 8.20667 16.2304 8.12821 16.1972C7.79973 16.0881 7.42204 16.1586 7.18266 16.4086C6.96988 16.3687 6.75178 16.406 6.58554 16.5177C6.46585 16.6081 6.37409 16.7158 6.32089 16.8422C6.28499 16.9299 6.2677 17.0257 6.27435 17.1294C6.13737 17.2238 6.06555 17.3688 6.02034 17.5137C5.9565 17.8409 6.07087 18.1814 6.25972 18.4314H11.6125C11.5341 18.3383 11.4609 18.208 11.4064 18.0962C11.292 17.9234 11.3705 17.6787 11.3585 17.4792C11.4676 17.2597 11.5779 17.0376 11.703 16.8235C11.7282 16.7796 11.7535 16.7384 11.7788 16.6959L12.0248 16.6014C12.1551 16.6014 12.2642 16.507 12.3878 16.5403C12.5541 16.7065 12.5541 16.374 12.715 16.3594C13.09 16.3115 13.4624 16.3474 13.6752 16.6653C13.6752 16.7078 13.743 16.7078 13.727 16.7477C13.6778 16.7624 13.6326 16.7318 13.5821 16.7318C13.352 16.6746 13.082 16.5283 12.8546 16.6586C12.8453 16.7132 12.8347 16.7677 12.8227 16.8222C12.8108 16.8807 12.8014 16.9366 12.7961 16.9911C12.9437 17.0337 13.0687 17.14 13.1805 17.2544C13.2563 17.1068 13.4172 17.0403 13.5595 16.9911C13.6832 17.0177 13.8201 17.0217 13.9239 17.1002C14.1154 17.2757 14.021 17.5749 14.0023 17.7997C14.1739 17.8968 14.3654 17.9513 14.5409 18.0444C14.4585 18.1175 14.3508 18.1481 14.251 18.184L13.9598 18.1255C13.9265 18.1016 13.868 18.1016 13.856 18.059C13.759 18.1614 13.6406 18.2984 13.5808 18.4314H17.73C17.6755 18.3077 17.6116 18.2106 17.5358 18.0962C17.4507 17.914 17.4853 17.6667 17.4747 17.4725L17.863 16.8821C18.0745 16.8794 18.3152 16.7996 18.5439 16.8395C18.5559 16.8342 18.5665 16.8289 18.5771 16.8222C18.6729 16.7557 18.7022 16.6028 18.8445 16.6227C19.0985 16.5536 19.2926 16.6693 19.4841 16.7836C19.4775 16.7983 19.4722 16.8116 19.4642 16.8235C19.3844 16.9512 19.2341 16.8089 19.1251 16.8475C19.0798 16.8954 19.1463 16.9539 19.1557 17.0084C19.1955 17.0629 19.1158 17.0563 19.0892 17.0656C19.0253 17.0749 18.9562 17.0589 18.907 17.0084C18.895 16.9924 18.9043 16.9751 18.8804 16.9725C18.8258 17.0629 18.746 17.1454 18.7261 17.2478C18.7952 17.3143 18.8897 17.3808 18.9229 17.4659C18.9921 17.5656 18.8684 17.6414 18.8445 17.7292C18.8351 17.7465 18.8072 17.7465 18.7992 17.7292C18.7354 17.6933 18.6809 17.6015 18.6117 17.6255C18.5506 17.8954 18.633 18.1641 18.5971 18.434C18.7155 18.462 18.8538 18.4274 18.9814 18.434L19.0333 17.8648C19.0878 17.4965 19.3059 17.1866 19.5639 16.9047C19.8419 16.7145 20.0214 17.0895 20.2262 17.2198C20.2595 17.2265 20.2475 17.2624 20.2621 17.2837C20.2595 17.3449 20.1956 17.3688 20.1531 17.3874C20.0254 17.4326 19.9323 17.293 19.8525 17.2119C19.7767 17.2943 19.7435 17.402 19.6557 17.4659L19.6863 17.4752C19.7873 17.5749 19.8831 17.6813 19.9057 17.8143C19.8937 17.9353 19.8326 18.0524 19.7235 18.1135C19.6424 17.9739 19.5759 17.8196 19.5214 17.6773C19.524 17.684 19.5174 17.6866 19.5121 17.6933C19.3445 17.7385 19.3006 17.926 19.2727 18.0776C19.282 18.2266 19.1703 18.2864 19.1995 18.434H21.3593C21.5987 18.3981 21.8527 18.4034 22.0442 18.2279C22.8527 18.3529 23.6733 18.1521 24.3103 17.7079C24.6454 17.4366 24.9473 17.1241 25.1907 16.7823C25.4061 16.4804 25.575 16.1998 25.6854 15.862C25.7665 15.6532 25.8317 15.4378 25.8809 15.2144C26.111 14.1664 25.9899 12.9935 25.6495 11.996V11.9934Z" fill="#FF6600"/>
<path fill-rule="evenodd" clip-rule="evenodd" d="M11.7482 17.6095C11.8665 17.5337 12.0567 17.5151 12.0846 17.3396C12.0368 17.3036 11.9942 17.2571 11.9397 17.2451L11.816 17.281C11.8253 17.2079 11.8652 17.1268 11.8891 17.0483L12.2881 16.918C12.2336 17.0988 12.2123 17.3263 12.1937 17.5351C12.2296 17.8436 12.2761 18.1734 12.4331 18.4301H12.0022C11.9543 18.1455 11.6564 17.9393 11.7482 17.6069V17.6095Z" fill="#FF6600"/>
<path fill-rule="evenodd" clip-rule="evenodd" d="M12.703 17.2464L12.993 17.5097L13.0355 17.5004C13.0116 17.809 12.9969 18.1122 12.993 18.4327H12.6778C12.6139 18.1335 12.5075 17.8183 12.5195 17.4951C12.574 17.4127 12.6099 17.3103 12.6778 17.2464H12.703Z" fill="#FF6600"/>
<path fill-rule="evenodd" clip-rule="evenodd" d="M13.3268 17.5377C13.3853 17.4619 13.4092 17.3342 13.5236 17.3196C13.606 17.3223 13.6818 17.3342 13.743 17.3914C13.8494 17.5244 13.7457 17.6946 13.7071 17.8276C13.6645 18.0298 13.5914 18.2412 13.5249 18.4327H13.219L13.3281 17.5377H13.3268Z" fill="#FF6600"/>
<path fill-rule="evenodd" clip-rule="evenodd" d="M17.9215 17.4433C17.988 17.5284 18.0093 17.6428 18.1091 17.7186C18.1968 17.5975 18.2181 17.41 18.1755 17.2558L18.0878 17.168C18.1995 17.1414 18.3178 17.1321 18.4296 17.1108C18.3803 17.2717 18.2899 17.4167 18.3059 17.6042C18.3085 17.8768 18.3538 18.1494 18.379 18.4327H18.0465C17.9255 18.1667 17.8045 17.9127 17.8138 17.6042C17.8497 17.5497 17.875 17.4858 17.9229 17.4433H17.9215Z" fill="#FF6600"/>
<path fill-rule="evenodd" clip-rule="evenodd" d="M19.3551 11.6303C19.3525 11.7088 19.294 11.7965 19.3458 11.863C19.419 11.7806 19.54 11.7846 19.6371 11.7473C19.9071 11.7234 20.1637 11.8072 20.4151 11.8684C20.3512 11.7686 20.3087 11.6569 20.2395 11.5651C20.0999 11.5292 19.8884 11.625 19.8645 11.4189C19.7794 11.347 19.6464 11.3976 19.5586 11.4042C19.4735 11.4641 19.4044 11.5399 19.3551 11.6277V11.6303Z" fill="white"/>
<path fill-rule="evenodd" clip-rule="evenodd" d="M10.0964 9.01706C10.0964 9.01706 10.0938 9.01575 10.0925 9.01444C10.0925 9.01444 10.0925 9.01575 10.0925 9.01706H10.0964Z" fill="white"/>
<path fill-rule="evenodd" clip-rule="evenodd" d="M11.1976 11.7061L11.3798 11.5306C11.3957 11.5306 11.4077 11.5332 11.4157 11.5452L11.4011 11.8817C11.4888 11.9641 11.5966 11.9907 11.7123 11.9974C11.7216 11.9069 11.7907 11.8431 11.8306 11.7646C11.8639 11.7008 11.8426 11.6077 11.9091 11.5625L11.9304 11.5838C11.9516 11.6835 11.945 11.7952 11.9969 11.883C12.0035 11.9309 12.0115 11.992 12.0168 12.0346C12.1511 12.0412 12.2721 12.004 12.3745 11.9561C12.3679 11.8418 12.4078 11.7473 12.4251 11.6423C12.453 11.6064 12.3918 11.5385 12.4676 11.5425C12.5102 11.633 12.586 11.7274 12.6286 11.8245C12.8041 11.6463 12.8772 11.4135 12.9185 11.1702C12.8679 11.101 12.7881 11.101 12.727 11.0558C12.2123 10.8896 11.5527 10.8563 11.0553 11.113C11.022 11.3178 11.0646 11.5452 11.1949 11.7088L11.1976 11.7061Z" fill="white"/>
<path fill-rule="evenodd" clip-rule="evenodd" d="M6.3834 17.3847C6.36478 17.6174 6.3834 17.8369 6.39803 18.0669C6.44724 18.1427 6.53501 18.2305 6.62278 18.2358L6.63741 18.0816C6.67332 17.8675 6.55895 17.6387 6.67997 17.4579C6.76508 17.4845 6.85019 17.527 6.92201 17.5669C6.95792 17.3674 6.90605 17.1334 6.71588 17.0123L6.3834 17.386V17.3847Z" fill="white"/>
<path fill-rule="evenodd" clip-rule="evenodd" d="M7.13213 17.0576C7.01377 17.4114 6.92599 17.8476 7.06829 18.2213C7.15074 18.1668 7.23453 18.1149 7.30767 18.0391C7.29304 17.7545 7.25315 17.4513 7.42337 17.2146C7.57099 17.2598 7.67206 17.4021 7.72925 17.5417C7.83032 17.4154 7.86356 17.2385 7.82367 17.0709C7.83032 16.938 7.67871 16.9685 7.60557 16.914C7.6295 16.8023 7.62685 16.672 7.74521 16.6081L7.38214 16.644C7.28772 16.777 7.18532 16.9074 7.13346 17.059L7.13213 17.0576Z" fill="white"/>
<path fill-rule="evenodd" clip-rule="evenodd" d="M7.88087 18.1029C7.8955 18.1295 7.88087 18.1787 7.91146 18.1853C7.95667 17.9313 8.1628 17.7664 8.27451 17.5417C8.32904 17.4672 8.32638 17.3608 8.41415 17.3036C8.53251 17.3036 8.61763 17.3887 8.732 17.398C8.7679 17.426 8.71338 17.4499 8.71072 17.4805C8.68678 17.6866 8.60832 17.8569 8.62294 18.0683H8.64422C8.80514 17.8981 8.91419 17.7159 9.03255 17.5217L9.05383 17.3502C9.08175 17.144 8.85834 17.011 8.71205 16.9259L8.84238 16.7597L8.66018 16.6959C8.44873 16.7171 8.25723 16.8049 8.10961 16.9712C7.92475 17.3089 7.8955 17.6919 7.88353 18.1042L7.88087 18.1029Z" fill="white"/>
<path fill-rule="evenodd" clip-rule="evenodd" d="M8.69608 16.3075C8.76524 16.3288 8.82907 16.2716 8.89822 16.3009C9.1775 16.4046 9.46742 16.5097 9.67754 16.7424L9.92623 17.3754L10.0499 16.9845L9.96746 16.773C9.89697 16.6214 9.7068 16.6334 9.57647 16.6281C9.52194 16.5669 9.57913 16.4977 9.59775 16.4405C9.66158 16.2251 9.39826 16.2371 9.29187 16.1493C9.29852 16.0203 9.14026 16.0642 9.05249 16.0522L9.0219 16.0163C9.00328 15.9884 8.95807 15.9884 8.93413 16.0097C8.92881 16.0003 8.91684 15.995 8.92216 15.9791L8.85567 15.9937C8.76125 16.0761 8.69741 16.1812 8.69475 16.3062L8.69608 16.3075Z" fill="white"/>
<path fill-rule="evenodd" clip-rule="evenodd" d="M8.87028 15.612C8.87959 15.6506 8.90353 15.6905 8.93412 15.7144C9.07109 15.6785 9.20142 15.5841 9.35835 15.6413C9.56182 15.8195 9.77328 16.007 10.0193 16.1041L10.1071 16.0894C10.1616 16.1067 10.2215 16.1107 10.2574 16.1719C10.2906 16.2544 10.2068 16.3009 10.1789 16.3687C10.3145 16.4685 10.2613 16.6467 10.3451 16.7677L10.5632 16.4778C10.5127 16.3501 10.5659 16.1333 10.3677 16.12C10.2999 16.0868 10.256 16.0203 10.2574 15.9445C10.127 15.8261 9.96744 15.7756 9.83711 15.6532C9.73072 15.5695 9.66689 15.4391 9.53124 15.4085C9.43682 15.3567 9.33441 15.3301 9.22536 15.3061C9.02189 15.2756 9.00327 15.5176 8.87028 15.612Z" fill="white"/>
<path fill-rule="evenodd" clip-rule="evenodd" d="M9.16153 15.0149L9.19743 15.0734C9.34904 15.0641 9.48469 14.9976 9.63364 15.0003C9.73338 15.0601 9.86371 15.0575 9.96611 15.1093C10.0486 15.221 10.1363 15.3474 10.256 15.4232C10.5021 15.4591 10.6377 15.7237 10.7228 15.9166V15.8235C10.7587 15.6932 10.7202 15.5415 10.6723 15.4232C10.6111 15.3633 10.5233 15.3234 10.4595 15.2703C10.4475 15.2304 10.4568 15.2117 10.4688 15.1758C10.3744 15.0761 10.2361 15.0216 10.1204 14.9418C9.95946 14.709 9.65093 14.7729 9.40623 14.709L9.16153 15.0149Z" fill="white"/>
<path fill-rule="evenodd" clip-rule="evenodd" d="M9.15622 12.7953C9.18282 12.8897 9.21606 13.0068 9.23468 13.1078C9.3198 12.9203 9.48603 12.8352 9.63498 12.6809C9.54987 12.6237 9.44348 12.5958 9.35038 12.5785V12.5719C9.28389 12.6384 9.18016 12.7049 9.15622 12.7953Z" fill="white"/>
<path fill-rule="evenodd" clip-rule="evenodd" d="M9.70679 13.7914L9.84244 13.6517C9.97942 13.5121 10.0911 13.3512 10.1124 13.173C10.0153 13.1158 9.88898 13.1557 9.79456 13.1889C9.76131 13.3844 9.70945 13.5786 9.70679 13.7914Z" fill="white"/>
<path fill-rule="evenodd" clip-rule="evenodd" d="M9.80654 14.2183C10.0153 14.2303 10.2188 14.2729 10.389 14.1545L10.5593 13.6106C10.5047 13.6079 10.4489 13.5826 10.3983 13.6013C10.2866 13.8486 10.0619 14.0946 9.80787 14.2183H9.80654Z" fill="white"/>
<path fill-rule="evenodd" clip-rule="evenodd" d="M9.86772 12.2873C10.0034 12.4868 10.2321 12.7102 10.4648 12.774C10.4382 12.52 10.2201 12.3445 10.1071 12.1264L10.1005 12.0532C10.0127 11.9681 9.90629 11.911 9.81586 11.8657C9.80123 12.0107 9.84113 12.149 9.86772 12.286V12.2873Z" fill="white"/>
<path fill-rule="evenodd" clip-rule="evenodd" d="M10.6071 14.2422C10.7681 14.2688 10.9409 14.2422 11.0886 14.197C11.304 14.1451 11.4224 13.9097 11.4942 13.7249H11.2242L10.9343 14.0095C10.8199 14.0693 10.7109 14.1611 10.6071 14.2422Z" fill="white"/>
<path fill-rule="evenodd" clip-rule="evenodd" d="M10.5739 12.012C10.6191 12.2487 10.7202 12.4628 10.8558 12.6663L10.8917 12.2155L10.5739 12.0133V12.012Z" fill="white"/>
<path fill-rule="evenodd" clip-rule="evenodd" d="M11.5673 13.1889C11.5859 13.0373 11.5221 12.8618 11.5048 12.7075C11.4144 12.6463 11.2867 12.653 11.1923 12.5931C11.1989 12.8312 11.3851 13.0347 11.5673 13.1889Z" fill="white"/>
<path fill-rule="evenodd" clip-rule="evenodd" d="M11.292 14.7263C11.4822 14.6665 11.6671 14.5986 11.8439 14.5029C11.9556 14.342 12.1245 14.197 12.1498 14.0095C12.0102 14.0481 11.8891 14.0028 11.7588 14.0667C11.6804 14.209 11.6311 14.3699 11.4795 14.4723C11.4556 14.5747 11.3439 14.6438 11.292 14.7263Z" fill="white"/>
<path fill-rule="evenodd" clip-rule="evenodd" d="M11.5873 15.0987L11.8147 15.3952C11.9357 15.4338 12.0873 15.4232 12.1937 15.3527L12.1126 15.084C11.9517 15.1439 11.7601 15.1266 11.5873 15.0987Z" fill="white"/>
<path fill-rule="evenodd" clip-rule="evenodd" d="M11.9663 12.9562L12.0541 13.3552C12.2655 13.1837 12.3094 12.9323 12.3041 12.6663C12.1831 12.806 12.1126 12.8897 11.9663 12.9562Z" fill="white"/>
<path fill-rule="evenodd" clip-rule="evenodd" d="M12.5634 13.661C12.566 13.7196 12.5807 13.7728 12.6139 13.818C12.8506 13.9031 12.8746 14.1903 13.0927 14.2994C13.235 14.3632 13.3986 14.2848 13.5222 14.2262C13.4291 14.1199 13.3228 14.048 13.2323 13.9363C13.1685 13.9097 13.1047 13.8698 13.1086 13.7914L12.5634 13.661Z" fill="white"/>
<path fill-rule="evenodd" clip-rule="evenodd" d="M12.7509 15.0894C12.8533 15.2064 12.9929 15.2676 13.1379 15.3008C13.114 15.2676 13.1539 15.3008 13.1592 15.2795L12.977 14.8792C12.8866 14.8819 12.7921 14.9005 12.707 14.8952C12.7137 14.9617 12.7283 15.0282 12.7496 15.0894H12.7509Z" fill="white"/>
<path fill-rule="evenodd" clip-rule="evenodd" d="M13.0727 13.2262C12.9876 13.0294 12.9531 12.79 12.9278 12.5732C12.8374 12.6823 12.7429 12.7514 12.6578 12.8631C12.6179 13.0866 12.9384 13.1411 13.0727 13.2262Z" fill="white"/>
<path fill-rule="evenodd" clip-rule="evenodd" d="M13.4411 13.02C13.5515 13.1623 13.7895 13.1145 13.9225 13.0719C13.8587 12.9629 13.6539 12.899 13.6167 12.782C13.5954 12.5732 13.5528 12.3697 13.4863 12.1796C13.3799 12.4362 13.2523 12.7421 13.4398 13.02H13.4411Z" fill="white"/>
<path fill-rule="evenodd" clip-rule="evenodd" d="M13.6326 13.661C13.9358 13.8818 14.2324 14.1398 14.6566 14.0454C14.6872 14.0241 14.7391 14.0268 14.7444 13.9882C14.6207 13.9097 14.4877 13.8486 14.3601 13.7767L14.2151 13.5653H14.1486C13.985 13.6198 13.8095 13.6411 13.6339 13.6624L13.6326 13.661Z" fill="white"/>
<path fill-rule="evenodd" clip-rule="evenodd" d="M13.6393 16.1147H13.6606C13.8428 15.9698 14.0569 15.9206 14.2723 15.8607C14.3308 15.882 14.2936 15.9458 14.3454 15.9698C14.4758 15.9152 14.6327 15.9272 14.7657 15.882C14.9266 15.8873 15.0569 15.8913 15.1873 15.9605C15.291 16.0974 15.4838 16.0815 15.6182 16.1719L15.5969 15.9605C15.3163 15.6306 14.8761 15.6067 14.4705 15.6134L14.4611 15.5708C14.3641 15.5708 14.255 15.5921 14.1646 15.6346C14.0343 15.6413 13.9106 15.7038 13.7856 15.7437C13.7271 15.8594 13.6818 15.999 13.6393 16.1161V16.1147Z" fill="white"/>
<path fill-rule="evenodd" clip-rule="evenodd" d="M13.8826 12.3963C14.001 12.5506 14.1765 12.669 14.376 12.6304C14.2736 12.5293 14.1553 12.4243 14.1486 12.282C14.1792 12.012 13.8826 11.9907 13.7363 11.8524C13.7856 12.0346 13.7789 12.2368 13.8813 12.3977L13.8826 12.3963Z" fill="white"/>
<path fill-rule="evenodd" clip-rule="evenodd" d="M13.8507 16.6506H13.8866C14.0462 16.5509 14.2803 16.6267 14.4372 16.5216C14.525 16.4764 14.5316 16.5974 14.5915 16.6307C14.7404 16.7211 14.759 16.9937 14.9678 16.9299C15.2192 17.0602 15.1553 17.3648 15.1646 17.5895L15.3974 17.4446C15.3761 17.3262 15.4426 17.1839 15.3668 17.0815C15.3096 16.9512 15.1513 16.9392 15.0755 16.8341C15.1673 16.6799 14.9612 16.6067 14.9173 16.495L14.9293 16.4804L15.2498 16.5229C15.3588 16.5894 15.3987 16.7105 15.432 16.8222C15.6833 16.8647 15.7432 17.1493 15.8309 17.3302C15.8828 17.2065 15.9041 17.0722 15.9546 16.9525C15.9573 16.8528 15.8243 16.8528 15.7578 16.8075C15.7405 16.6533 15.67 16.5083 15.5344 16.4152C15.2551 16.3447 15.0104 16.1918 14.7045 16.1918L14.4505 16.2703C14.3109 16.3035 14.1619 16.261 14.0569 16.358C13.8986 16.37 13.8866 16.5429 13.8481 16.6546L13.8507 16.6506Z" fill="white"/>
<path fill-rule="evenodd" clip-rule="evenodd" d="M14.0116 15.4046L14.0701 15.4325C14.1938 15.3753 14.3188 15.3088 14.4492 15.2596C14.6513 15.2024 14.8096 15.4325 14.9798 15.2862C15.0423 15.241 15.0982 15.3075 15.146 15.3447C15.2192 15.4777 15.3894 15.4684 15.5157 15.5043C15.4519 15.3328 15.3734 15.096 15.1513 15.0694C15.0636 15.0309 14.9598 15.0335 14.8761 14.9817C14.6433 14.725 14.4917 15.1931 14.2364 15.0787C14.1459 15.1785 14.0342 15.2729 14.013 15.4046H14.0116Z" fill="white"/>
<path fill-rule="evenodd" clip-rule="evenodd" d="M14.0688 16.8781C14.1659 16.9605 14.2657 17.0988 14.4173 17.0802C14.6048 17.168 14.5263 17.4167 14.6287 17.547L14.7378 17.4499L14.7285 17.4433L14.7431 17.4286L14.7497 17.4366C14.7803 17.3462 14.7378 17.1866 14.6859 17.0802C14.6167 17.0323 14.5356 17.0829 14.4678 17.0376C14.4585 16.9406 14.3986 16.8927 14.3282 16.8328C14.2789 16.7956 14.2164 16.8448 14.1606 16.8408L14.0675 16.8781H14.0688Z" fill="white"/>
<path fill-rule="evenodd" clip-rule="evenodd" d="M14.4479 13.189C14.5476 13.3552 14.7418 13.4589 14.896 13.5733C15.0237 13.6305 15.1899 13.6464 15.3256 13.6158C15.1953 13.5095 15.0769 13.3884 14.9678 13.2621C14.9253 13.2009 14.916 13.1251 14.8588 13.0719C14.7165 13.0999 14.5556 13.0959 14.4465 13.1903L14.4479 13.189Z" fill="white"/>
<path fill-rule="evenodd" clip-rule="evenodd" d="M14.6154 12.1064C14.7551 12.2793 14.9705 12.2088 15.166 12.2155V12.1942L14.8628 11.9402C14.7777 11.9668 14.6872 12.0426 14.6141 12.1064H14.6154Z" fill="white"/>
<path fill-rule="evenodd" clip-rule="evenodd" d="M9.0392 9.2525L9.21475 9.79775C9.21209 9.48922 9.35438 9.23122 9.32379 8.91736L9.45412 8.7232L9.17884 8.80831C9.10569 8.94795 9.04585 9.08626 9.04053 9.25382L9.0392 9.2525Z" fill="white"/>
<path fill-rule="evenodd" clip-rule="evenodd" d="M9.15622 8.30824L9.3956 8.1686V7.81485C9.29453 7.87469 9.24133 7.97843 9.16287 8.05955L9.15755 8.30824H9.15622Z" fill="white"/>
<path fill-rule="evenodd" clip-rule="evenodd" d="M14.0702 8.85884C14.013 8.93465 13.9252 8.95327 13.8521 8.9679C13.9798 8.73516 14.0396 8.412 13.9399 8.14735C14.0063 8.12342 14.0795 8.11145 14.142 8.07554L14.1353 8.06889L14.3016 7.92393C14.5223 7.77233 14.4372 7.48507 14.5197 7.27096C14.4106 7.10206 14.3774 6.89593 14.2205 6.75363L14.2298 6.74698C14.1061 6.59005 13.8813 6.60734 13.7124 6.52888C13.4877 6.45308 13.3148 6.60734 13.1539 6.70974C13.0847 6.72171 13.1273 6.81215 13.0515 6.80949C13.0089 6.9212 12.9571 7.04222 12.9265 7.16723C12.6273 7.12467 12.3028 7.15792 12.0634 7.32814C11.9357 7.23372 11.7814 7.21643 11.6338 7.17388C11.5248 7.1526 11.4011 7.19116 11.3226 7.13132C11.2083 7.00232 11.183 6.7656 10.9862 6.73235C10.917 6.70841 10.9024 6.63261 10.9024 6.56612C10.7721 6.54484 10.6564 6.48366 10.53 6.45707C10.3359 6.36929 10.1816 6.50893 10.0366 6.60202C9.97279 6.62862 9.89965 6.63793 9.8398 6.67384C9.73075 6.84406 9.62835 7.01562 9.55787 7.20313C9.57915 7.3574 9.64564 7.49305 9.72544 7.62338C9.79459 7.8202 10.0127 7.97447 10.1975 8.05293C10.1098 8.35216 10.1098 8.70857 10.1975 9.01178C10.1975 9.01178 10.1922 9.01577 10.1922 9.01444L10.1829 9.02375C10.155 9.02375 10.1231 9.02907 10.0991 9.01444H10.0951C10.139 9.30303 10.2747 9.55704 10.4941 9.77381C10.5726 9.80041 10.5553 9.89483 10.5872 9.95467C10.6085 9.9826 10.6111 10.0398 10.6032 10.0637C10.1297 10.0491 9.70948 10.1675 9.33046 10.3816C9.23338 10.4294 9.27593 10.5624 9.26662 10.6569C9.53393 10.4813 9.82119 10.351 10.139 10.2938C10.2747 10.2858 10.4289 10.2512 10.5606 10.2871L10.5752 10.5478C10.2148 10.7353 9.82119 10.8444 9.51265 11.1529C9.51797 11.246 9.50069 11.355 9.52728 11.4335L9.8039 11.2101C10.0699 11.0066 10.3492 10.8351 10.655 10.7233C10.7375 10.8204 10.8226 10.9228 10.9316 10.984C11.1165 10.8656 11.316 10.7779 11.5288 10.7233C11.6405 10.6569 11.82 10.7167 11.8918 10.5837L11.9424 10.3084C11.9344 10.3018 11.9277 10.2898 11.9118 10.2925C11.7695 10.21 11.6751 10.069 11.6884 9.90281C11.6391 9.92674 11.5859 9.9427 11.5274 9.94403C11.4796 9.93206 11.433 9.9201 11.4131 9.87089C11.4104 9.81105 11.3798 9.71928 11.441 9.6754C11.6378 9.55438 11.8918 9.54773 12.1405 9.56635C12.3254 9.59028 12.5913 9.58097 12.6552 9.79908C12.6459 9.86291 12.6525 9.93207 12.5887 9.97462C12.5222 10.0105 12.4464 9.97196 12.3852 9.94403C12.3373 10.093 12.2549 10.2592 12.0886 10.3071L12.1099 10.4826C12.1312 10.5611 12.1365 10.6914 12.2615 10.6635C12.5488 10.734 12.8041 10.8816 13.0555 11.0412C13.1406 10.9574 13.2071 10.8603 13.2669 10.7712C13.7164 10.9228 14.1034 11.2593 14.4731 11.5705L14.4878 11.3165C14.1367 11.004 13.7457 10.7845 13.3401 10.6116C13.356 10.5292 13.3733 10.4507 13.3773 10.3629C13.8587 10.3909 14.3162 10.5385 14.7125 10.7712L14.7059 10.5531C14.2883 10.3297 13.8308 10.1808 13.3308 10.1754C13.3121 10.1488 13.3068 10.1089 13.3095 10.081C13.5515 10.0424 13.7244 9.7911 13.7816 9.573C13.9066 9.4307 14.0848 9.27643 14.0423 9.06498C14.0476 9.04769 14.0542 9.02907 14.0595 9.01045C14.0755 8.95859 14.0888 8.90273 14.0715 8.85353L14.0702 8.85884Z" fill="white"/>
<path fill-rule="evenodd" clip-rule="evenodd" d="M14.4904 9.63681L14.7391 9.55834L14.767 9.42004C14.8362 9.21656 14.6885 9.06629 14.6154 8.90537L14.4917 9.63814L14.4904 9.63681Z" fill="white"/>
<path fill-rule="evenodd" clip-rule="evenodd" d="M15.1181 10.5957C15.2365 10.726 15.3508 10.9348 15.561 10.871C15.545 10.7832 15.4971 10.7101 15.4665 10.6316C15.412 10.5678 15.3934 10.3869 15.2843 10.4507C15.2019 10.3962 15.1819 10.3058 15.1301 10.2326C15.1061 10.3443 15.1208 10.484 15.1181 10.5957Z" fill="white"/>
<path fill-rule="evenodd" clip-rule="evenodd" d="M15.1593 11.4827C15.2045 11.5466 15.2178 11.6277 15.2617 11.6862C15.3442 11.7407 15.4652 11.7314 15.5649 11.7221C15.6554 11.7008 15.7126 11.8006 15.7977 11.7434C15.6913 11.6769 15.6288 11.5559 15.529 11.4681C15.4107 11.375 15.283 11.4561 15.1593 11.484V11.4827Z" fill="white"/>
<path fill-rule="evenodd" clip-rule="evenodd" d="M15.3203 12.8897C15.5291 13.0134 15.795 13.1344 16.0743 13.0919C16.1049 13.0773 16.1568 13.0799 16.1621 13.044C15.9892 12.9828 15.8083 12.8113 15.6261 12.774C15.5264 12.6198 15.3961 12.8139 15.2684 12.8006C15.2711 12.8366 15.307 12.8632 15.3203 12.8884V12.8897Z" fill="white"/>
<path fill-rule="evenodd" clip-rule="evenodd" d="M15.9493 15.5615L15.9945 15.6586C16.0411 15.9737 16.2392 16.2637 16.1302 16.6081C16.2206 16.6719 16.2485 16.7783 16.3057 16.8621H16.3203C16.3895 16.5988 16.3416 16.3262 16.3057 16.0628C16.3323 15.8235 16.0903 15.6852 15.948 15.5601L15.9493 15.5615Z" fill="white"/>
<path fill-rule="evenodd" clip-rule="evenodd" d="M16.0025 12.4628C16.1594 12.5839 16.4107 12.5958 16.5929 12.536C16.4786 12.4721 16.3509 12.403 16.2565 12.3179L16.0025 12.4628Z" fill="white"/>
<path fill-rule="evenodd" clip-rule="evenodd" d="M16.7499 13.3911C16.7353 13.5188 16.819 13.6238 16.9108 13.6877C16.9441 13.6119 16.9986 13.548 17.0039 13.4642C16.9773 13.3339 16.9042 13.2155 16.7858 13.1278C16.7645 13.2129 16.7406 13.294 16.7499 13.3911Z" fill="white"/>
<path fill-rule="evenodd" clip-rule="evenodd" d="M16.7592 14.7715C16.7379 14.9138 16.8948 14.9324 16.9613 15.0109C17.0159 15.0774 16.9254 15.1226 16.9254 15.1864C17.0411 15.3341 17.1076 15.503 17.1076 15.7011C17.1528 15.5163 17.222 15.3407 17.2473 15.1505C17.2353 15.0175 17.0238 15.0441 17.0558 14.8965C17.1169 14.7449 17.0438 14.5973 17.0039 14.4603C16.9919 14.439 16.964 14.3965 16.9414 14.4098C16.8869 14.5335 16.7499 14.6212 16.7592 14.7728V14.7715Z" fill="white"/>
<path fill-rule="evenodd" clip-rule="evenodd" d="M17.1741 14.052L17.3311 14.3579C17.4002 14.3486 17.4454 14.2821 17.5 14.2342C17.5425 14.1065 17.4295 14.0254 17.3976 13.9217C17.3696 13.8485 17.3976 13.7528 17.3457 13.689C17.3058 13.665 17.2606 13.6251 17.2154 13.6371L17.1728 14.052H17.1741Z" fill="white"/>
<path fill-rule="evenodd" clip-rule="evenodd" d="M17.3763 13.2461C17.5013 13.3219 17.6436 13.431 17.7101 13.564C17.8165 13.8725 17.9854 14.1505 18.109 14.4497C18.1542 14.6585 18.1915 14.8447 18.2487 15.0508C18.2699 15.1053 18.258 15.2117 18.3431 15.2024C18.367 14.9723 18.4122 14.7516 18.4162 14.5122C18.3404 14.4125 18.2407 14.3699 18.1463 14.3101V14.2888C18.1582 14.2382 18.2008 14.1771 18.2646 14.1864C18.2912 14.1558 18.3737 14.1265 18.3378 14.0707C18.1795 13.9137 18.1888 13.6425 17.9388 13.5946C17.851 13.5587 17.8298 13.4669 17.8204 13.3831C17.7021 13.2821 17.5265 13.2501 17.3776 13.2461H17.3763Z" fill="white"/>
<path fill-rule="evenodd" clip-rule="evenodd" d="M17.5226 14.8872C17.6768 15.0295 17.6223 15.2357 17.6103 15.4258C17.5864 15.5415 17.7313 15.4737 17.7766 15.5349C17.871 15.6745 17.8165 15.8767 17.7832 16.0283C17.8657 15.9033 17.9588 15.7955 18.0226 15.6586C18.0199 15.608 18.0864 15.5828 18.0838 15.5189C18.1104 15.4311 18.008 15.471 17.9654 15.4617C17.9295 15.4524 17.8896 15.4285 17.9029 15.3793C17.9814 15.2277 17.9082 15.0468 17.879 14.8952C17.8431 14.7715 17.8949 14.604 17.8364 14.4949C17.7393 14.6292 17.4507 14.6585 17.5252 14.8859L17.5226 14.8872Z" fill="white"/>
<path fill-rule="evenodd" clip-rule="evenodd" d="M17.8032 12.7381C18.0731 13.0107 18.2699 13.2847 18.5612 13.548C18.5678 13.4297 18.5519 13.3206 18.5466 13.2062C18.504 13.1238 18.4255 13.0639 18.3577 13.0028C18.1423 12.9815 18.0306 12.6929 17.8032 12.7381Z" fill="white"/>
<path fill-rule="evenodd" clip-rule="evenodd" d="M18.5093 14.1797C18.516 14.2076 18.5279 14.2316 18.5399 14.2582C18.6583 14.4523 18.77 14.6518 18.8524 14.8606C18.8285 14.6372 18.9788 14.3579 18.7793 14.1864C18.7527 14.1132 18.6623 14.1385 18.6037 14.1438L18.5093 14.1797Z" fill="white"/>
<path fill-rule="evenodd" clip-rule="evenodd" d="M19.2368 16.39C19.3219 16.4299 19.4309 16.3594 19.5121 16.3115C19.5879 16.2929 19.6517 16.3355 19.7089 16.3754C19.7328 16.4232 19.7089 16.4698 19.7182 16.515C19.9004 16.5655 20.0786 16.6333 20.2382 16.7384L20.2887 16.6865C20.3007 16.5562 20.1983 16.4631 20.1012 16.39C20.0387 16.3541 19.943 16.3753 19.8991 16.3182C19.9297 16.2703 19.9297 16.1971 19.9257 16.1426C19.8259 16.1426 19.7621 16.112 19.681 16.0642C19.6291 16.0495 19.5839 16.0056 19.5413 16.0642C19.3897 16.1666 19.3817 16.3182 19.2355 16.3913L19.2368 16.39Z" fill="white"/>
<path fill-rule="evenodd" clip-rule="evenodd" d="M19.4482 12.5825C19.524 12.5612 19.6025 12.5399 19.6663 12.4854C19.8698 12.3006 20.1637 12.4256 20.4004 12.4216C20.3552 12.3391 20.2901 12.258 20.2329 12.1888C20.1478 12.1556 20.0693 12.117 19.9722 12.117C19.7661 11.996 19.6278 12.1995 19.4695 12.2979C19.427 12.3804 19.4057 12.5 19.4482 12.5825Z" fill="white"/>
<path fill-rule="evenodd" clip-rule="evenodd" d="M19.4535 13.2062C19.4535 13.1969 19.4535 13.1876 19.4629 13.185C19.4908 13.2089 19.4602 13.2674 19.5054 13.2794C19.5839 13.2395 19.657 13.185 19.7288 13.1344C19.9323 13.1344 20.0533 12.9376 20.2528 12.9376C20.5866 12.9988 20.9164 13.0653 21.2063 13.2275C21.1851 13.032 21.0148 12.8525 20.8433 12.7647C20.7462 12.7315 20.6704 12.7833 20.6012 12.8379C20.3991 12.9655 20.5042 12.653 20.3619 12.6477C20.177 12.7049 19.9855 12.7687 19.7794 12.7501C19.6583 12.7966 19.5732 12.907 19.4376 12.895C19.4323 12.9961 19.4176 13.1171 19.4522 13.2076L19.4535 13.2062Z" fill="white"/>
<path fill-rule="evenodd" clip-rule="evenodd" d="M19.5932 13.8805C19.657 13.9483 19.7621 13.935 19.8538 13.9483L20.1171 13.8446C20.1198 13.7967 20.0387 13.7847 20.056 13.7302C20.1291 13.6478 20.2275 13.7063 20.3193 13.673C20.4456 13.6544 20.576 13.5281 20.7036 13.6212C20.6996 13.6371 20.709 13.6571 20.697 13.673C20.6584 13.7674 20.7236 13.8246 20.7967 13.8605C20.9457 13.8871 21.084 14.0241 21.2329 13.9629C21.2183 13.8393 21.1851 13.7249 21.1545 13.6065C21.0308 13.5852 20.9417 13.4828 20.8273 13.4403C20.7768 13.4882 20.7089 13.5254 20.6451 13.5188C20.4124 13.4642 20.1331 13.3193 19.8964 13.4669C19.8113 13.5706 19.6597 13.54 19.5453 13.5852C19.5519 13.6876 19.5639 13.7887 19.5918 13.8818L19.5932 13.8805Z" fill="white"/>
<path fill-rule="evenodd" clip-rule="evenodd" d="M19.6943 15.6798C19.6756 15.7317 19.6251 15.8155 19.7182 15.8407C19.9124 15.8461 20.1597 15.7463 20.3113 15.8979C20.3632 15.9378 20.3379 16.019 20.3353 16.0708L20.5893 16.2823C20.6132 16.1546 20.6598 16.0402 20.6624 15.9033C20.6411 15.8062 20.5919 15.7131 20.5082 15.6492C20.3406 15.6492 20.2448 15.4537 20.0653 15.4777C19.9722 15.4564 19.8898 15.5402 19.7953 15.5402C19.7541 15.5827 19.7288 15.6346 19.6929 15.6798H19.6943Z" fill="white"/>
<path fill-rule="evenodd" clip-rule="evenodd" d="M19.7661 14.2529C19.8046 14.3353 19.8512 14.4683 19.927 14.4763C20.1052 14.3978 20.3672 14.3499 20.5667 14.4351C20.6331 14.447 20.6331 14.5228 20.6185 14.5707C20.7209 14.6306 20.8459 14.6798 20.955 14.7463L20.9244 14.5641C20.9177 14.3672 20.6704 14.3499 20.6544 14.1558C20.451 14.0893 20.2249 14.068 20.0094 14.1199C19.9403 14.1837 19.8392 14.1744 19.7554 14.193C19.7488 14.217 19.7634 14.2329 19.7674 14.2529H19.7661Z" fill="white"/>
<path fill-rule="evenodd" clip-rule="evenodd" d="M19.8179 15.233C19.9363 15.1998 20.0121 15.0694 20.1398 15.0575C20.3339 15.0601 20.5068 15.1399 20.6278 15.3061C20.701 15.354 20.685 15.4777 20.7794 15.4777C20.7515 15.3301 20.8007 15.1944 20.7941 15.0415C20.6677 14.83 20.3525 14.9936 20.2342 14.7449L20.0108 14.7596C19.8498 14.7995 19.8924 14.987 19.8711 15.1146C19.8525 15.1532 19.8166 15.1838 19.8192 15.2317L19.8179 15.233Z" fill="white"/>
<path fill-rule="evenodd" clip-rule="evenodd" d="M20.9297 16.5576C21.0228 16.7451 21.2303 16.8874 21.2502 17.1015C21.2981 17.0443 21.3327 16.9778 21.3646 16.914C21.3619 16.8541 21.2915 16.8541 21.2649 16.8049C21.2369 16.7265 21.2795 16.6573 21.2915 16.5868C21.2516 16.4751 21.1571 16.3687 21.0521 16.3022L20.9284 16.5562L20.9297 16.5576Z" fill="white"/>
<path fill-rule="evenodd" clip-rule="evenodd" d="M21.3021 16.0788L21.5202 16.3754C21.6133 16.2278 21.6133 16.0097 21.5774 15.8301C21.5561 15.7969 21.5162 15.7423 21.463 15.7663C21.3806 15.8501 21.3686 15.9804 21.3021 16.0775V16.0788Z" fill="white"/>
<path fill-rule="evenodd" clip-rule="evenodd" d="M20.4151 7.79622C20.4935 7.83612 20.5693 7.87203 20.6637 7.87868C20.7262 7.84543 20.8087 7.82016 20.8872 7.84277C20.9989 7.91591 21.1358 7.82814 21.2662 7.83346C21.1505 7.72441 21.0201 7.65792 20.8872 7.59408C20.7169 7.62999 20.5813 7.75101 20.4137 7.79622H20.4151Z" fill="white"/>
<path fill-rule="evenodd" clip-rule="evenodd" d="M21.5987 8.08081C21.7596 8.09544 21.8753 8.23774 21.983 8.3561C22.1186 8.37737 22.2224 8.47446 22.3035 8.5742L22.253 8.41461C22.2171 8.25369 22.116 8.13001 22.0136 8.00235C21.8686 8.01165 21.725 8.02495 21.5987 8.08081Z" fill="white"/>
<path fill-rule="evenodd" clip-rule="evenodd" d="M10.2959 6.75362L10.3837 6.76293C10.6191 6.88129 11.0008 6.94114 11.0234 7.28292C10.784 7.37734 10.5539 7.50368 10.3624 7.69785C10.2175 7.55023 9.92358 7.63135 9.87437 7.37069C9.92092 7.12466 10.0074 6.81613 10.2959 6.75362Z" fill="#FF6600"/>
<path fill-rule="evenodd" clip-rule="evenodd" d="M10.5234 8.28827C10.7986 8.26433 11.066 8.3029 11.3505 8.27896C11.4197 8.30955 11.4928 8.36939 11.5261 8.43855C11.5168 8.7657 11.417 9.07689 11.4024 9.41336C11.2787 9.46389 11.1564 9.56762 11.1258 9.70327C11.0141 9.73652 10.913 9.80301 10.804 9.85488C10.7561 9.75248 10.7654 9.59821 10.8505 9.5131C10.9689 9.34686 11.2747 9.38543 11.2508 9.12211C11.3293 8.99577 11.2535 8.83219 11.2561 8.69921C11.2255 8.59946 11.195 8.73245 11.1471 8.72979C11.05 8.75107 10.9503 8.75639 10.8651 8.70851C10.8013 8.64202 10.7228 8.58749 10.7042 8.49706C10.6191 8.45451 10.5194 8.38801 10.4768 8.30024L10.522 8.2896L10.5234 8.28827Z" fill="#FF6600"/>
<path fill-rule="evenodd" clip-rule="evenodd" d="M10.8558 10.2605C10.9848 10.2791 11.1218 10.2206 11.2348 10.2845C11.2109 10.327 11.1471 10.3443 11.0952 10.3576L10.8917 10.4507C10.8159 10.4334 10.8585 10.3111 10.8558 10.2605Z" fill="#FF6600"/>
<path fill-rule="evenodd" clip-rule="evenodd" d="M11.3864 7.73373C11.5168 7.69117 11.6564 7.60473 11.7947 7.64595C11.695 7.7457 11.6165 7.87603 11.5407 7.99705L11.1258 7.98774C11.171 7.87869 11.2867 7.78825 11.3864 7.73373Z" fill="#FF6600"/>
<path fill-rule="evenodd" clip-rule="evenodd" d="M12.6006 7.63401C12.7735 7.60342 12.7642 7.82817 12.9211 7.83615C12.9491 7.87206 12.989 7.90531 12.973 7.95983C12.8812 7.99574 12.7483 7.97845 12.6458 8.00239C12.5089 7.92658 12.598 7.69119 12.3825 7.70582C12.3706 7.6872 12.3466 7.6513 12.3759 7.63933C12.4424 7.61539 12.5315 7.6247 12.6006 7.63401Z" fill="#FF6600"/>
<path fill-rule="evenodd" clip-rule="evenodd" d="M12.4916 8.44391C12.5674 8.33751 12.6831 8.32953 12.7921 8.30826L13.5768 8.32289C13.61 8.35347 13.5462 8.3814 13.5462 8.41731C13.4983 8.46252 13.4278 8.47582 13.3853 8.51705C13.2829 8.51971 13.2909 8.64073 13.219 8.69259C13.1073 8.8043 12.9424 8.75244 12.8134 8.73515C12.7682 8.7019 12.7163 8.65669 12.6951 8.60482L12.6592 8.64073C12.7044 8.81095 12.6924 8.99847 12.727 9.17002L12.9145 9.2937C12.9172 9.57165 13.2443 9.49585 13.3866 9.65011C13.3534 9.74986 13.2869 9.83497 13.2137 9.92008C13.0993 9.80837 12.9677 9.73523 12.8294 9.68735C12.8174 9.5251 12.6379 9.42802 12.5395 9.34557C12.5115 9.049 12.5062 8.74579 12.457 8.45853L12.4929 8.44258L12.4916 8.44391Z" fill="#FF6600"/>
<path fill-rule="evenodd" clip-rule="evenodd" d="M12.7762 10.3111H13.1406L13.0954 10.5013L12.731 10.347C12.723 10.3164 12.7549 10.3084 12.7775 10.3111H12.7762Z" fill="#FF6600"/>
<path fill-rule="evenodd" clip-rule="evenodd" d="M13.4305 6.88397L13.7004 6.79886C13.8547 6.87067 13.9997 6.96244 14.142 7.06484C14.2537 7.27097 14.2364 7.54892 14.1845 7.77899C14.1021 7.86942 13.9239 7.77899 13.8574 7.92395H13.8454C13.7457 7.63935 13.4611 7.38534 13.1977 7.25501C13.2403 7.11005 13.2855 6.96776 13.4305 6.88264V6.88397Z" fill="#FF6600"/>
</svg>
