<svg width="32" height="24" viewBox="0 0 32 24" fill="none" xmlns="http://www.w3.org/2000/svg">
<rect width="32" height="24" rx="4" fill="url(#paint0_linear_10328_11132)"/>
<rect x="0.5" y="0.5" width="31" height="23" rx="3.5" stroke="white" stroke-opacity="0.01"/>
<g clip-path="url(#clip0_10328_11132)">
<path d="M4.36075 3.5H27.6397C28.1149 3.5 28.5004 3.88076 28.5004 4.35016V19.6502C28.5004 20.1196 28.1149 20.5004 27.6397 20.5004H4.36075C3.8855 20.5004 3.5 20.1196 3.5 19.6502V4.35016C3.5 3.88076 3.8855 3.5 4.36075 3.5Z" fill="white"/>
<path d="M5.7261 18.2513V15.3197H6.64192C7.30768 15.3197 7.73601 15.5666 7.73601 16.0775C7.73601 16.3664 7.60017 16.5675 7.40966 16.6847C7.68543 16.8105 7.84656 17.0534 7.84656 17.3842C7.84656 17.9749 7.40966 18.2513 6.73126 18.2513H5.72651H5.7261ZM6.31557 16.5385H6.75247C7.01967 16.5385 7.13389 16.4087 7.13389 16.1698C7.13389 15.9144 6.92625 15.8306 6.64641 15.8306H6.31557V16.5385ZM6.31557 17.7404H6.68027C7.0364 17.7404 7.24404 17.6526 7.24404 17.3762C7.24404 17.0998 7.06577 16.991 6.73085 16.991H6.31517V17.7408L6.31557 17.7404ZM8.98919 18.3017C8.40829 18.3017 8.1158 18.0212 8.1158 17.6441C8.1158 17.2295 8.45928 16.9865 8.96798 16.9825C9.09444 16.9849 9.22049 16.9958 9.34532 17.0159V16.9156C9.34532 16.6602 9.19683 16.5389 8.91291 16.5389C8.72159 16.5365 8.53149 16.5707 8.35322 16.6392L8.24715 16.1867C8.4295 16.1114 8.72199 16.061 8.98063 16.061C9.60395 16.061 9.91358 16.3878 9.91358 16.9531V18.1175C9.7398 18.2054 9.41345 18.3017 8.98919 18.3017ZM9.34532 17.8282V17.3802C9.2466 17.3584 9.14543 17.3471 9.04426 17.3467C8.84927 17.3467 8.6967 17.4221 8.6967 17.6191C8.6967 17.7952 8.82398 17.8871 9.04875 17.8871C9.15114 17.8903 9.25272 17.8701 9.34573 17.8282H9.34532ZM10.3256 18.2513V16.2452C10.6303 16.1243 10.9554 16.0618 11.2838 16.061C11.9031 16.061 12.2592 16.3624 12.2592 16.9197V18.2513H11.6742V16.9616C11.6742 16.6727 11.5384 16.5385 11.2798 16.5385C11.1513 16.5369 11.024 16.5623 10.9065 16.6138V18.2513H10.3256ZM14.3038 16.1867L14.1937 16.6432C14.0423 16.5784 13.8795 16.5429 13.7143 16.5385C13.3708 16.5385 13.1844 16.777 13.1844 17.1711C13.1844 17.6026 13.3794 17.8242 13.7441 17.8242C13.9069 17.8198 14.0668 17.7827 14.2149 17.7154L14.3083 18.1804C14.1161 18.2646 13.9077 18.3061 13.6976 18.3017C12.9939 18.3017 12.5868 17.8701 12.5868 17.1876C12.5868 16.505 12.9894 16.061 13.6637 16.061C13.8836 16.0598 14.1015 16.1025 14.3038 16.1867ZM15.568 18.3017C14.9149 18.3017 14.5078 17.8536 14.5078 17.1791C14.5078 16.5046 14.9149 16.061 15.568 16.061C16.2211 16.061 16.6237 16.5091 16.6237 17.1791C16.6237 17.8532 16.2252 18.3017 15.568 18.3017ZM15.568 17.8242C15.869 17.8242 16.0261 17.5772 16.0261 17.1791C16.0261 16.781 15.869 16.5385 15.568 16.5385C15.2669 16.5385 15.1058 16.7855 15.1058 17.1791C15.1058 17.5768 15.271 17.8242 15.568 17.8242ZM16.9623 18.2513V16.2452C17.267 16.1243 17.5922 16.0618 17.9206 16.061C18.5398 16.061 18.8959 16.3624 18.8959 16.9197V18.2513H18.311V16.9616C18.311 16.6727 18.1751 16.5385 17.9165 16.5385C17.788 16.5369 17.6607 16.5623 17.5432 16.6138V18.2513H16.9623ZM20.2156 18.3017C19.711 18.3017 19.4524 18.0293 19.4524 17.4765V16.5719H19.164V16.1114H19.4524V15.6464L20.0373 15.617V16.111H20.5081V16.5715H20.0373V17.4676C20.0373 17.7106 20.1389 17.8234 20.3298 17.8234C20.4053 17.8234 20.4808 17.8149 20.5546 17.7984L20.5844 18.2634C20.4632 18.29 20.3396 18.3025 20.2156 18.3013V18.3017ZM21.6923 18.3017C21.1114 18.3017 20.819 18.0212 20.819 17.6441C20.819 17.2295 21.1624 16.9865 21.6711 16.9825C21.7976 16.9849 21.9236 16.9958 22.0485 17.0159V16.9156C22.0485 16.6602 21.9 16.5389 21.6161 16.5389C21.4247 16.5365 21.2346 16.5707 21.0564 16.6392L20.9503 16.1867C21.1327 16.1114 21.4251 16.061 21.6838 16.061C22.3071 16.061 22.6167 16.3878 22.6167 16.9531V18.1175C22.4429 18.2054 22.1162 18.3017 21.6923 18.3017ZM22.0485 17.8282V17.3802C21.9498 17.3584 21.8486 17.3471 21.7474 17.3467C21.5524 17.3467 21.3999 17.4221 21.3999 17.6191C21.3999 17.7952 21.5271 17.8871 21.7519 17.8871C21.8539 17.8903 21.9555 17.8701 22.0489 17.8282H22.0485ZM24.6185 16.1867L24.5083 16.6432C24.357 16.5784 24.1942 16.5429 24.029 16.5385C23.6855 16.5385 23.4991 16.777 23.4991 17.1711C23.4991 17.6026 23.6941 17.8242 24.0588 17.8242C24.2216 17.8198 24.3815 17.7827 24.5295 17.7154L24.623 18.1804C24.4308 18.2646 24.2224 18.3061 24.0123 18.3017C23.3086 18.3017 22.9015 17.8701 22.9015 17.1876C22.9015 16.505 23.3041 16.061 23.9784 16.061C24.1983 16.0598 24.4161 16.1025 24.6189 16.1867H24.6185ZM25.9051 18.3017C25.4005 18.3017 25.1419 18.0293 25.1419 17.4765V16.5719H24.8534V16.1114H25.1419V15.6464L25.7268 15.617V16.111H26.1976V16.5715H25.7268V17.4676C25.7268 17.7106 25.8284 17.8234 26.0193 17.8234C26.0948 17.8234 26.1703 17.8149 26.2441 17.7984L26.2739 18.2634C26.1527 18.29 26.0291 18.3025 25.9051 18.3013V18.3017Z" fill="#1E3764"/>
<path d="M9.80751 13.8538C12.9038 13.8538 14.4519 11.8151 16 9.77629H5.7261V13.8538H9.80751Z" fill="url(#paint1_linear_10328_11132)"/>
<path d="M22.1925 5.69873C19.0962 5.69873 17.5481 7.73751 16 9.77628H26.2739V5.69873H22.1925Z" fill="url(#paint2_linear_10328_11132)"/>
</g>
<defs>
<linearGradient id="paint0_linear_10328_11132" x1="30.5" y1="1.5" x2="2" y2="22" gradientUnits="userSpaceOnUse">
<stop stop-color="#025BB9"/>
<stop offset="1" stop-color="#1F3966"/>
</linearGradient>
<linearGradient id="paint1_linear_10328_11132" x1="7.80414" y1="12.0032" x2="15.2972" y2="9.18552" gradientUnits="userSpaceOnUse">
<stop stop-color="#005AB9"/>
<stop offset="1" stop-color="#1E3764"/>
</linearGradient>
<linearGradient id="paint2_linear_10328_11132" x1="16.6221" y1="10.1296" x2="24.5814" y2="7.38036" gradientUnits="userSpaceOnUse">
<stop stop-color="#FBA900"/>
<stop offset="1" stop-color="#FFD800"/>
</linearGradient>
<clipPath id="clip0_10328_11132">
<rect width="25" height="17" fill="white" transform="translate(3.5 3.5)"/>
</clipPath>
</defs>
</svg>
