<svg width="32" height="24" viewBox="0 0 32 24" fill="none" xmlns="http://www.w3.org/2000/svg">
<rect width="32" height="24" rx="4" fill="#FFF48D"/>
<path d="M8.62453 2.31999V13.3418C8.62453 13.8694 9.05846 14.3009 9.58854 14.3009H16.2056C21.2083 14.3009 23.3763 11.514 23.3763 7.81634C23.3763 4.11871 21.2075 1.36084 16.2048 1.36084H9.58773C9.05765 1.36084 8.62373 1.79234 8.62373 2.31999H8.62453Z" fill="white"/>
<path d="M13.0534 4.06619V12.2105H16.6145C19.8483 12.2105 21.2503 10.3924 21.2503 7.822C21.2503 5.2516 19.8475 3.45288 16.6145 3.45288H13.67C13.3282 3.45288 13.0534 3.73085 13.0534 4.067V4.06619Z" fill="#CC0066"/>
<path fill-rule="evenodd" clip-rule="evenodd" d="M10.4507 13.4234H16.2048C20.2483 13.4234 22.4793 11.4332 22.4793 7.82119C22.4793 5.73965 21.6648 2.24323 16.2048 2.24323H10.4507C9.94004 2.24323 9.52551 2.65533 9.52551 3.1644V12.503C9.52551 13.0113 9.94004 13.4242 10.4507 13.4242V13.4234ZM9.83338 3.1644C9.83338 2.82421 10.1081 2.55028 10.4499 2.55028H16.204C18.4302 2.55028 22.1699 3.23632 22.1699 7.82119C22.1699 11.236 20.0495 13.1163 16.204 13.1163H10.4499C10.1081 13.1163 9.83338 12.8432 9.83338 12.5022V3.1644Z" fill="#232323"/>
<path fill-rule="evenodd" clip-rule="evenodd" d="M14.8061 6.63737C14.6978 6.59858 14.5847 6.57919 14.4619 6.57919V6.57434H13.6466V8.54113H14.4716C14.6178 8.54113 14.7447 8.51204 14.853 8.46356C14.9613 8.41023 15.0509 8.34235 15.1221 8.25508C15.1932 8.16781 15.2449 8.06115 15.282 7.93994C15.3152 7.81874 15.3338 7.68783 15.3338 7.54238C15.3338 7.37754 15.3103 7.23694 15.2675 7.11573C15.2206 6.99937 15.1592 6.89756 15.0841 6.81514C15.0041 6.73757 14.9144 6.67454 14.8061 6.63575V6.63737ZM14.6122 8.15408C14.5508 8.17347 14.4942 8.18317 14.4328 8.18317V8.18801H14.0603V6.94766H14.3617C14.4651 6.94766 14.55 6.9622 14.6211 6.99129C14.6922 7.02038 14.7479 7.06887 14.7908 7.1222C14.8336 7.17553 14.8659 7.24825 14.8853 7.32583C14.9039 7.4034 14.9136 7.49552 14.9136 7.59248C14.9136 7.70399 14.899 7.79126 14.8716 7.86884C14.8433 7.94641 14.8053 8.00459 14.7633 8.05307C14.7205 8.10155 14.6687 8.13549 14.6122 8.15488V8.15408Z" fill="white"/>
<path d="M17.0355 6.58001V6.94364H16.0263V7.36544H16.9547V7.69997H16.0263V8.17995H17.0589V8.54357H15.6069V6.57678H17.0355V6.58163V6.58001Z" fill="white"/>
<path fill-rule="evenodd" clip-rule="evenodd" d="M19.1946 8.54681L18.4779 6.58002H18.0391L17.3175 8.54681H17.7417L17.8929 8.11046H18.6096L18.7558 8.54681H19.1946ZM18.2613 7.06404L18.5021 7.78563H18.0068L18.2565 7.06404H18.2613Z" fill="white"/>
<path d="M19.8782 6.57922V8.1832H20.8115V8.54682H19.4589V6.58003H19.8782V6.57922Z" fill="white"/>
<path d="M11.3986 8.5759C11.9093 8.5759 12.323 8.16217 12.323 7.65068C12.323 7.13918 11.9093 6.72546 11.3986 6.72546C10.8879 6.72546 10.4742 7.13918 10.4742 7.65068C10.4742 8.16217 10.8879 8.5759 11.3986 8.5759Z" fill="#232323"/>
<path d="M11.9488 12.276C11.2329 12.276 10.6592 11.6578 10.6592 10.8982V9.82273C10.6592 9.44295 10.9461 9.13104 11.3064 9.13104C11.6668 9.13104 11.9537 9.4381 11.9537 9.82273V12.276H11.9488Z" fill="#232323"/>
<path d="M24.8885 16.5521H7.11146C7.02258 16.5521 6.94985 16.4794 6.94985 16.3905C6.94985 16.3016 7.02258 16.2289 7.11146 16.2289H24.8885C24.9774 16.2289 25.0501 16.3016 25.0501 16.3905C25.0501 16.4794 24.9774 16.5521 24.8885 16.5521Z" fill="#1D1C1C"/>
<path d="M20.6701 20.573C20.6701 19.4918 21.4394 18.5068 22.7678 18.5068C24.0962 18.5068 24.8712 19.4927 24.8712 20.573C24.8712 21.6534 24.1019 22.6392 22.7678 22.6392C21.4394 22.6392 20.6701 21.6534 20.6701 20.573ZM23.7035 20.573C23.7035 20.0518 23.3601 19.571 22.7678 19.571C22.1755 19.571 21.8321 20.0526 21.8321 20.573C21.8321 21.0934 22.1812 21.5758 22.7678 21.5758C23.3545 21.5758 23.7035 21.0942 23.7035 20.573Z" fill="#1D1C1C"/>
<path d="M19.8532 21.3406C20.296 21.0885 20.5618 20.6069 20.5618 20.0752C20.5618 19.2858 19.9914 18.6135 19.1057 18.6135H17.2464V22.5333H18.3979V21.5313H18.6136L19.2722 22.5333H20.6281L19.8532 21.3406ZM18.8738 20.6295H18.3979V19.5209H18.8795C19.1898 19.5209 19.3886 19.773 19.3886 20.0752C19.3886 20.3774 19.1833 20.6295 18.8738 20.6295Z" fill="#1D1C1C"/>
<path d="M11.9909 18.6094L11.3 20.9455L10.6261 18.6094H9.70894L9.02937 20.9455L8.34414 18.6094H7.12884L8.5211 22.522H9.52147L10.1679 20.392L10.8087 22.522H11.8139L13.2062 18.6094H11.9909Z" fill="#1D1C1C"/>
<path d="M14.9483 21.5661H14.9451C14.5144 21.5661 14.2122 21.3059 14.0829 20.9617H17.0088C17.0323 20.8324 17.0444 20.6999 17.0444 20.5657C17.0444 19.4878 16.2776 18.5044 14.9475 18.5036V19.5654C15.3806 19.5662 15.6796 19.8264 15.8081 20.1698H12.8862C12.8627 20.2991 12.8506 20.4316 12.8506 20.5657C12.8506 21.6445 13.6183 22.6287 14.9443 22.6287H14.9475V21.5661H14.9483Z" fill="#1D1C1C"/>
<path d="M14.9451 22.6279C14.9903 22.6279 15.034 22.6263 15.0784 22.6247C15.3475 22.6109 15.5923 22.556 15.8105 22.4679C16.0287 22.379 16.2202 22.2578 16.3826 22.1108C16.545 21.9637 16.68 21.7916 16.7842 21.6017C16.8788 21.4296 16.9482 21.2421 16.9919 21.0474H15.7725C15.7475 21.0991 15.7184 21.1492 15.6853 21.1952C15.64 21.2591 15.5867 21.3164 15.5261 21.3657C15.4655 21.4158 15.3976 21.4579 15.3233 21.4902C15.2481 21.5225 15.1673 21.5451 15.0792 21.5572C15.0364 21.5629 14.992 21.5661 14.9459 21.5661C14.6712 21.5661 14.4498 21.4603 14.2914 21.2946L13.4987 22.0962C13.851 22.4219 14.3399 22.6271 14.9459 22.6271L14.9451 22.6279Z" fill="url(#paint0_linear_26074_271)"/>
<path d="M14.9451 18.5027C13.8203 18.5027 13.0971 19.2106 12.904 20.0833H14.1193C14.2647 19.7827 14.5508 19.5645 14.9451 19.5645C15.2594 19.5645 15.5035 19.7003 15.6626 19.9055L16.4626 19.0967C16.1054 18.7347 15.5915 18.5027 14.9459 18.5027H14.9451Z" fill="url(#paint1_linear_26074_271)"/>
<defs>
<linearGradient id="paint0_linear_26074_271" x1="16.3972" y1="20.3371" x2="14.5782" y2="22.5649" gradientUnits="userSpaceOnUse">
<stop offset="0.02" stop-color="#1D1C1C" stop-opacity="0"/>
<stop offset="0.68" stop-color="#1D1C1C"/>
</linearGradient>
<linearGradient id="paint1_linear_26074_271" x1="13.2239" y1="20.8097" x2="15.0889" y2="18.9666" gradientUnits="userSpaceOnUse">
<stop offset="0.02" stop-color="#1D1C1C" stop-opacity="0"/>
<stop offset="0.68" stop-color="#1D1C1C"/>
</linearGradient>
</defs>
</svg>
