<svg width="32" height="24" viewBox="0 0 32 24" fill="none" xmlns="http://www.w3.org/2000/svg">
<rect width="32" height="24" rx="4" fill="url(#paint0_linear_16658_451)"/>
<path fill-rule="evenodd" clip-rule="evenodd" d="M11.1866 4.34003C9.7967 4.34003 8.66998 5.46674 8.66998 6.85661V16.8234C8.66998 18.2133 9.7967 19.34 11.1866 19.34H21.1534C22.5433 19.34 23.67 18.2133 23.67 16.8234V15.5999C23.4024 15.8556 23.0969 16.0479 22.7417 16.1532C22.3656 16.2646 21.9894 16.3203 21.5994 16.3203C21.293 16.3203 21.0144 16.2785 20.7636 16.2089C20.4989 16.1392 20.2761 16.0278 20.0811 15.8606C19.8861 15.7074 19.7328 15.5124 19.6214 15.2756C19.5099 15.0388 19.4542 14.7602 19.4542 14.4259C19.4542 14.0637 19.5239 13.7712 19.6492 13.5344C19.7746 13.2976 19.9418 13.1165 20.1368 12.9772C20.3318 12.8379 20.5686 12.7404 20.8194 12.6707C21.0701 12.6011 21.3347 12.5453 21.5994 12.5035C21.8641 12.4618 22.1148 12.4339 22.3656 12.406C22.6163 12.3782 22.8392 12.3503 23.0342 12.2946C23.2292 12.2389 23.3824 12.1692 23.4939 12.0857C23.6053 11.9882 23.661 11.8489 23.6471 11.6817C23.6471 11.5006 23.6192 11.3474 23.5496 11.236C23.4939 11.1245 23.4103 11.0409 23.3128 10.9852C23.2153 10.9295 23.0899 10.8877 22.9645 10.8598C22.8252 10.8459 22.6859 10.832 22.5327 10.832C22.1984 10.832 21.9198 10.9016 21.7248 11.0549C21.5298 11.2081 21.4183 11.4449 21.3905 11.7931H19.6492C19.705 11.3753 19.8025 11.0409 19.9836 10.7763C20.1647 10.5116 20.3875 10.2887 20.6661 10.1216C20.9447 9.95441 21.2512 9.84297 21.5994 9.77333C21.9476 9.70367 22.2959 9.67582 22.6442 9.67582C22.9645 9.67582 23.2849 9.70367 23.6053 9.74546C23.6302 9.74872 23.6516 9.75204 23.67 9.75551V6.85661C23.67 5.46674 22.5433 4.34003 21.1534 4.34003H11.1866ZM12.9774 10.7763V7.43313H11.0551V16.1532H12.9774V12.3921H16.5016V16.1532H18.4239V7.43313H16.5016V10.7763H12.9774Z" fill="white"/>
<path d="M23.67 13.0786C23.6007 13.133 23.5052 13.1868 23.3963 13.214C23.2849 13.2558 23.1735 13.2836 23.0481 13.3115C22.9338 13.3369 22.808 13.3507 22.6917 13.3635L22.6581 13.3672C22.5884 13.3742 22.5188 13.3846 22.4491 13.3951C22.3795 13.4055 22.3098 13.416 22.2402 13.4229C22.221 13.4272 22.2016 13.4314 22.1819 13.4357C22.0726 13.4596 21.9564 13.485 21.8501 13.5204C21.7248 13.5622 21.6133 13.6179 21.5158 13.6876C21.4183 13.7572 21.3487 13.8408 21.293 13.9522C21.2372 14.0637 21.2094 14.189 21.2094 14.3562C21.2094 14.5094 21.2372 14.6348 21.293 14.7462C21.3487 14.8577 21.4323 14.9413 21.5298 14.997C21.6273 15.0527 21.7387 15.0945 21.8641 15.1223C21.9894 15.1502 22.1287 15.1641 22.268 15.1641C22.6023 15.1641 22.867 15.1084 23.062 14.997C23.2431 14.8855 23.3824 14.7462 23.4799 14.593C23.5635 14.4398 23.6192 14.2726 23.6471 14.1055C23.6504 14.0648 23.6538 14.0266 23.657 13.9907C23.6621 13.9331 23.6667 13.8814 23.67 13.8347V13.0786Z" fill="white"/>
<defs>
<linearGradient id="paint0_linear_16658_451" x1="28.5" y1="8" x2="8.5" y2="20.5" gradientUnits="userSpaceOnUse">
<stop stop-color="#008DC8"/>
<stop offset="1" stop-color="#0063A5"/>
</linearGradient>
</defs>
</svg>
