<svg width="32" height="24" viewBox="0 0 32 24" fill="none" xmlns="http://www.w3.org/2000/svg">
<rect width="32" height="24" rx="4" fill="#FF4785"/>
<path fill-rule="evenodd" clip-rule="evenodd" d="M18.089 7.33883C18.6227 6.9653 19.2669 6.74664 19.9663 6.74664C21.7516 6.74664 23.1871 8.17701 23.1871 9.93536C23.1871 11.6937 21.7424 13.1241 19.9663 13.1241C18.3651 13.1241 17.0399 11.967 16.7914 10.4547L13.9203 12.5228C13.3865 12.8963 12.7331 13.1241 12.0338 13.1241C10.2577 13.1241 8.8129 11.6937 8.8129 9.93536C8.8129 8.17701 10.2577 6.74664 12.0338 6.74664C13.635 6.74664 14.9601 7.90369 15.2086 9.41606L18.089 7.33883ZM10.589 9.93536C10.589 10.728 11.2331 11.3657 12.0338 11.3657C12.8344 11.3657 13.4785 10.728 13.4785 9.93536C13.4785 9.14274 12.8344 8.50499 12.0338 8.50499C11.2331 8.50499 10.589 9.14274 10.589 9.93536ZM18.5215 9.93536C18.5215 10.728 19.1657 11.3657 19.9663 11.3657C20.7669 11.3657 21.4111 10.728 21.4111 9.93536C21.4111 9.14274 20.7669 8.50499 19.9663 8.50499C19.1657 8.50499 18.5215 9.14274 18.5215 9.93536ZM23.3251 15.0646H22.5797V17.652H23.3251V15.0646ZM22.5153 14.354C22.5153 14.108 22.7086 13.9167 22.9478 13.9167C23.1871 13.9167 23.3895 14.108 23.3803 14.354C23.3803 14.6 23.1871 14.7913 22.9478 14.7913C22.7086 14.7913 22.5153 14.5909 22.5153 14.354ZM26.2607 18.2442V15.0737H25.5153V15.1831C25.3497 15.1011 25.1564 15.0555 24.954 15.0555C24.227 15.0555 23.6472 15.6386 23.6472 16.3583C23.6472 17.0781 24.2362 17.6612 24.954 17.6612C25.1564 17.6612 25.3405 17.6156 25.5153 17.5336V18.2442H26.2607ZM24.9632 15.8026C25.2668 15.8026 25.5153 16.0486 25.5153 16.3583C25.5153 16.659 25.2668 16.9141 24.9632 16.9141C24.6595 16.9141 24.411 16.6681 24.411 16.3583C24.411 16.0486 24.6595 15.8026 24.9632 15.8026ZM15.8987 16.0486C15.7975 15.8846 15.6227 15.7935 15.4386 15.7935C15.1349 15.7935 14.8865 16.0486 14.8957 16.3583C14.8957 16.6681 15.1441 16.9141 15.4478 16.9141C15.6319 16.9141 15.8067 16.823 15.908 16.6681L16.5245 17.069C16.2761 17.4334 15.8711 17.652 15.4386 17.652C14.7116 17.652 14.1319 17.069 14.1319 16.3492C14.1319 15.6295 14.7208 15.0464 15.4386 15.0464C15.8803 15.0464 16.2853 15.2742 16.5245 15.6386L15.8987 16.0486ZM7.04599 17.6612C7.77298 17.6612 8.35274 17.0781 8.35274 16.3583C8.35274 15.6386 7.77298 15.0464 7.04599 15.0464C6.84353 15.0464 6.65028 15.1011 6.47544 15.1831V15.0646H5.73004V18.2442H6.47544V17.5245C6.65028 17.6156 6.84353 17.6612 7.04599 17.6612ZM7.05519 15.8026C7.35887 15.8026 7.60734 16.0486 7.60734 16.3583C7.60734 16.659 7.35887 16.9141 7.05519 16.9141C6.75151 16.9141 6.50304 16.6681 6.50304 16.3583C6.50304 16.0486 6.75151 15.8026 7.05519 15.8026ZM10.4417 17.652H11.1871V15.0737H10.4417V15.1831C10.2761 15.1011 10.0828 15.0555 9.88955 15.0555C9.16255 15.0555 8.5828 15.6386 8.5828 16.3583C8.5828 17.0781 9.17176 17.6612 9.88955 17.6612C10.0828 17.6612 10.2761 17.6156 10.4417 17.5336V17.652ZM9.88955 15.7935C10.1748 15.7935 10.4141 16.0121 10.4417 16.2854V16.413C10.4049 16.6863 10.1748 16.905 9.88955 16.905C9.58587 16.905 9.3374 16.659 9.3374 16.3492C9.3374 16.0395 9.58587 15.7935 9.88955 15.7935ZM20.4172 15.1648C20.5736 15.1102 20.7392 15.0737 20.8957 15.0737C21.4938 15.0737 22.1012 15.4928 22.1012 16.3037V17.6338H21.3558V16.3128C21.3558 16.1488 21.3098 16.0212 21.2178 15.9392C21.1349 15.8573 21.0245 15.8208 20.8957 15.8208C20.8405 15.8208 20.4172 15.839 20.4172 16.2946V17.652H19.6718V15.0646H20.4172V15.1648ZM13.3865 15.0737H14.1411L12.8895 18.2533H12.1349L12.4938 17.3514L11.4632 15.0737H12.273L12.8527 16.4403L13.3865 15.0737ZM18.0429 17.6612C18.7699 17.6612 19.3497 17.0781 19.3497 16.3583C19.3497 15.6386 18.7607 15.0464 18.0429 15.0555C17.3159 15.0555 16.7362 15.6386 16.7362 16.3583C16.7362 17.0781 17.3251 17.6612 18.0429 17.6612ZM18.0521 15.8026C18.3558 15.8026 18.6043 16.0486 18.6043 16.3583C18.6043 16.659 18.3558 16.9141 18.0521 16.9141C17.7484 16.9141 17.5 16.6681 17.5 16.3583C17.5 16.0486 17.7484 15.8026 18.0521 15.8026Z" fill="white"/>
</svg>
