<svg width="32" height="24" viewBox="0 0 32 24" fill="none" xmlns="http://www.w3.org/2000/svg">
<rect x="0.5" y="0.5" width="31" height="23" rx="3.5" fill="white"/>
<rect x="0.5" y="0.5" width="31" height="23" rx="3.5" stroke="black"/>
<path d="M8.79838 8.72685C9.07238 8.39228 9.25831 7.94304 9.20927 7.48398C8.80818 7.50345 8.31873 7.74231 8.03536 8.07715C7.78093 8.36388 7.55573 8.83193 7.61444 9.27175C8.06468 9.30988 8.51451 9.05204 8.79838 8.72685Z" fill="black"/>
<path d="M9.20415 9.35762C8.55029 9.3196 7.99435 9.71991 7.6821 9.71991C7.36968 9.71991 6.89152 9.37678 6.37435 9.38603C5.70123 9.39569 5.07664 9.76725 4.73506 10.3582C4.03248 11.5404 4.54965 13.294 5.23287 14.2569C5.56466 14.7332 5.96452 15.2577 6.49139 15.2389C6.9892 15.2198 7.18433 14.9242 7.78944 14.9242C8.3941 14.9242 8.56986 15.2388 9.09683 15.2293C9.6433 15.2198 9.98494 14.7527 10.3167 14.2759C10.6973 13.7329 10.8532 13.2086 10.863 13.1798C10.8532 13.1703 9.80921 12.7793 9.79953 11.6069C9.78967 10.6253 10.6191 10.1583 10.6582 10.1294C10.1898 9.45305 9.45789 9.37678 9.20415 9.35762Z" fill="black"/>
<path d="M14.8975 8.02913C16.3186 8.02913 17.3082 8.9855 17.3082 10.3779C17.3082 11.7753 16.2982 12.7366 14.8618 12.7366H13.2883V15.1795H12.1515V8.02913L14.8975 8.02913ZM13.2883 11.805H14.5928C15.5826 11.805 16.1459 11.2848 16.1459 10.3829C16.1459 9.48107 15.5826 8.96571 14.5979 8.96571H13.2883V11.805Z" fill="black"/>
<path d="M17.6052 13.6979C17.6052 12.7861 18.3209 12.2262 19.5899 12.1568L21.0516 12.0726V11.6713C21.0516 11.0915 20.6506 10.7446 19.9807 10.7446C19.3461 10.7446 18.9502 11.0419 18.8539 11.5077H17.8185C17.8794 10.5662 18.7016 9.87247 20.0213 9.87247C21.3156 9.87247 22.1428 10.5414 22.1428 11.587V15.1795H21.0921V14.3223H21.0669C20.7573 14.9021 20.0822 15.2687 19.3818 15.2687C18.3362 15.2687 17.6052 14.6344 17.6052 13.6979ZM21.0516 13.2272V12.8159L19.737 12.8952C19.0822 12.9398 18.7117 13.2222 18.7117 13.6682C18.7117 14.124 19.0975 14.4214 19.6863 14.4214C20.4526 14.4214 21.0516 13.906 21.0516 13.2272Z" fill="black"/>
<path d="M23.1348 17.0972V16.23C23.2158 16.2498 23.3985 16.2498 23.49 16.2498C23.9975 16.2498 24.2716 16.0417 24.439 15.5066C24.439 15.4967 24.5356 15.1895 24.5356 15.1845L22.6069 9.96662H23.7944L25.1447 14.2083H25.1649L26.5152 9.96662H27.6724L25.6724 15.452C25.2158 16.7157 24.6879 17.122 23.5814 17.122C23.49 17.122 23.2158 17.112 23.1348 17.0972Z" fill="black"/>
</svg>
