<svg width="32" height="24" viewBox="0 0 32 24" fill="none" xmlns="http://www.w3.org/2000/svg">
<rect width="32" height="24" rx="4" fill="#F36805"/>
<rect x="0.5" y="0.5" width="31" height="23" rx="3.5" stroke="white" stroke-opacity="0.01"/>
<g clip-path="url(#clip0_10328_11091)">
<path d="M10.5312 13.6406H13.8125V14.7344H10.5312V13.6406ZM24.2031 7.625V16.375C24.2031 16.8101 24.0303 17.2274 23.7226 17.5351C23.4149 17.8428 22.9976 18.0156 22.5625 18.0156H9.4375C9.00238 18.0156 8.58508 17.8428 8.2774 17.5351C7.96973 17.2274 7.79688 16.8101 7.79688 16.375V7.625C7.79688 7.18988 7.96973 6.77258 8.2774 6.4649C8.58508 6.15723 9.00238 5.98438 9.4375 5.98438H22.5625C22.9976 5.98438 23.4149 6.15723 23.7226 6.4649C24.0303 6.77258 24.2031 7.18988 24.2031 7.625V7.625ZM8.89062 7.625V8.99219H23.1094V7.625C23.1094 7.47996 23.0518 7.34086 22.9492 7.2383C22.8466 7.13574 22.7075 7.07812 22.5625 7.07812H9.4375C9.29246 7.07812 9.15336 7.13574 9.0508 7.2383C8.94824 7.34086 8.89062 7.47996 8.89062 7.625V7.625ZM23.1094 16.375V10.6328H8.89062V16.375C8.89062 16.52 8.94824 16.6591 9.0508 16.7617C9.15336 16.8643 9.29246 16.9219 9.4375 16.9219H22.5625C22.7075 16.9219 22.8466 16.8643 22.9492 16.7617C23.0518 16.6591 23.1094 16.52 23.1094 16.375ZM20.5336 13.2523C20.3996 13.2518 20.2672 13.2804 20.1454 13.3361C20.0236 13.3918 19.9153 13.4733 19.8281 13.575C19.7033 13.4309 19.5374 13.3285 19.3526 13.2814C19.1679 13.2342 18.9732 13.2447 18.7946 13.3113C18.616 13.378 18.462 13.4976 18.3533 13.6542C18.2446 13.8108 18.1863 13.9969 18.1863 14.1875C18.1863 14.3781 18.2446 14.5642 18.3533 14.7208C18.462 14.8774 18.616 14.997 18.7946 15.0637C18.9732 15.1303 19.1679 15.1408 19.3526 15.0936C19.5374 15.0465 19.7033 14.9441 19.8281 14.8C19.9307 14.9184 20.0614 15.0091 20.2082 15.0638C20.355 15.1185 20.5132 15.1354 20.6683 15.1131C20.8233 15.0907 20.9703 15.0298 21.0956 14.9358C21.221 14.8419 21.3207 14.7179 21.3857 14.5754C21.4507 14.4328 21.4788 14.2762 21.4675 14.12C21.4562 13.9637 21.4058 13.8128 21.321 13.6811C21.2362 13.5494 21.1196 13.4412 20.982 13.3662C20.8444 13.2913 20.6903 13.2521 20.5336 13.2523V13.2523Z" fill="white"/>
</g>
<defs>
<clipPath id="clip0_10328_11091">
<rect width="17.5" height="17.5" fill="white" transform="translate(7.25 3.25)"/>
</clipPath>
</defs>
</svg>
