<svg width="32" height="24" viewBox="0 0 32 24" fill="none" xmlns="http://www.w3.org/2000/svg">
<rect x="0.5" y="0.5" width="31" height="23" rx="3.5" fill="white"/>
<rect x="0.5" y="0.5" width="31" height="23" rx="3.5" stroke="#DBD9D7"/>
<path d="M17.7156 10.3473C17.7156 11.5459 16.8753 12.4015 15.701 12.4015H14.5947C14.5825 12.4015 14.5704 12.4039 14.5591 12.4086C14.5479 12.4133 14.5376 12.4201 14.529 12.4288C14.5204 12.4375 14.5136 12.4477 14.5089 12.459C14.5043 12.4703 14.502 12.4824 14.502 12.4947V14.0699C14.502 14.0946 14.4923 14.1182 14.4749 14.1356C14.4575 14.1531 14.4339 14.163 14.4093 14.1631H13.6352C13.6168 14.163 13.5988 14.1575 13.5835 14.1472C13.5682 14.137 13.5563 14.1225 13.5492 14.1055C13.5445 14.0944 13.5421 14.0824 13.542 14.0704V8.38591C13.5419 8.3737 13.5443 8.3616 13.5489 8.3503C13.5536 8.33899 13.5604 8.32872 13.569 8.32006C13.5776 8.31141 13.5879 8.30454 13.5991 8.29985C13.6104 8.29516 13.6225 8.29275 13.6347 8.29275H15.706C16.8753 8.2914 17.7156 9.14699 17.7156 10.3473ZM16.7501 10.3473C16.7501 9.65828 16.2803 9.15464 15.643 9.15464H14.5947C14.5825 9.15464 14.5704 9.15706 14.5591 9.16174C14.5479 9.16643 14.5376 9.1733 14.529 9.18196C14.5204 9.19062 14.5136 9.20089 14.5089 9.21219C14.5043 9.22349 14.502 9.2356 14.502 9.24781V11.4415C14.502 11.4661 14.5118 11.4897 14.5292 11.507C14.5466 11.5244 14.5701 11.5342 14.5947 11.5342H15.643C16.2803 11.5387 16.7501 11.0346 16.7501 10.3473ZM17.9451 13.0726C17.9371 12.8887 17.9751 12.7058 18.0557 12.5404C18.1364 12.3751 18.2571 12.2325 18.4069 12.1256C18.7089 11.8983 19.181 11.7808 19.8741 11.7565L20.6122 11.7304V11.5126C20.6122 11.076 20.3197 10.8915 19.8498 10.8915C19.3799 10.8915 19.082 11.058 19.0136 11.3303C19.008 11.3495 18.9962 11.3662 18.9801 11.3779C18.964 11.3897 18.9444 11.3957 18.9245 11.3951H18.1953C18.1819 11.3955 18.1686 11.3929 18.1563 11.3875C18.144 11.3821 18.133 11.3741 18.1241 11.364C18.1153 11.3539 18.1088 11.342 18.105 11.3291C18.1013 11.3162 18.1005 11.3026 18.1026 11.2894C18.2106 10.6439 18.7476 10.1534 19.8831 10.1534C21.0911 10.1534 21.5272 10.716 21.5272 11.7898V14.0699C21.527 14.0948 21.5169 14.1186 21.4992 14.136C21.4815 14.1535 21.4576 14.1632 21.4327 14.1631H20.6978C20.6732 14.163 20.6496 14.1533 20.632 14.1361C20.6234 14.1274 20.6166 14.1172 20.612 14.1059C20.6074 14.0946 20.605 14.0826 20.605 14.0704V13.8998C20.6053 13.8857 20.6013 13.8719 20.5935 13.8601C20.5858 13.8483 20.5746 13.8392 20.5616 13.8339C20.5485 13.8285 20.5342 13.8273 20.5204 13.8303C20.5066 13.8333 20.4941 13.8405 20.4844 13.8507C20.2639 14.0906 19.9079 14.2639 19.3376 14.2639C18.4987 14.2639 17.9451 13.8273 17.9451 13.0726ZM20.6122 12.5784V12.4015L19.6563 12.4519C19.1526 12.4776 18.8596 12.6868 18.8596 13.0392C18.8596 13.3579 19.1283 13.5343 19.5978 13.5343C20.2355 13.5343 20.6122 13.19 20.6122 12.5784ZM22.2654 15.886V15.2253C22.2655 15.2114 22.2687 15.1978 22.2747 15.1853C22.2807 15.1728 22.2894 15.1618 22.3001 15.153C22.3109 15.1442 22.3234 15.138 22.3368 15.1346C22.3503 15.1312 22.3643 15.1308 22.3779 15.1335C22.4904 15.1546 22.6052 15.1654 22.7199 15.1659C22.9173 15.1755 23.1121 15.1186 23.2732 15.0043C23.4344 14.8901 23.5526 14.7251 23.6089 14.5358L23.6566 14.3836C23.6635 14.3632 23.6635 14.341 23.6566 14.3206L22.1249 10.387C22.1194 10.3727 22.1174 10.3573 22.1191 10.3421C22.1209 10.3269 22.1263 10.3123 22.1348 10.2997C22.1434 10.287 22.155 10.2766 22.1684 10.2694C22.1819 10.2622 22.197 10.2584 22.2123 10.2582H22.9549C22.9739 10.2584 22.9923 10.2643 23.0079 10.2752C23.0235 10.286 23.0354 10.3013 23.0422 10.319L24.0823 13.0933C24.0888 13.1117 24.1009 13.1276 24.1169 13.1389C24.1328 13.1502 24.1519 13.1563 24.1714 13.1563C24.191 13.1563 24.2101 13.1502 24.226 13.1389C24.242 13.1276 24.254 13.1117 24.2606 13.0933L25.1639 10.3266C25.1701 10.3077 25.1822 10.2913 25.1984 10.2796C25.2145 10.268 25.234 10.2618 25.2539 10.2618H26.0222C26.0375 10.2619 26.0527 10.2657 26.0663 10.273C26.0799 10.2802 26.0915 10.2906 26.1002 10.3032C26.109 10.3159 26.1145 10.3305 26.1163 10.3458C26.1182 10.3611 26.1163 10.3766 26.1108 10.391L24.4725 14.7594C24.0954 15.7748 23.4486 16.0345 22.7366 16.0345C22.6016 16.0381 22.4666 16.0219 22.336 15.9863C22.3143 15.9806 22.2953 15.9674 22.2824 15.949C22.2695 15.9307 22.2635 15.9083 22.2654 15.886ZM8.56731 7.96509C7.59158 7.95814 6.65029 8.32538 5.93707 8.99127C5.90657 9.0192 5.88755 9.05748 5.88373 9.09867C5.8799 9.13985 5.89153 9.18098 5.91636 9.21405L6.35789 9.81716C6.3722 9.83724 6.39074 9.85394 6.4122 9.86608C6.43366 9.87822 6.45753 9.88552 6.48211 9.88745C6.50669 9.88938 6.5314 9.8859 6.5545 9.87725C6.57759 9.86861 6.59851 9.85501 6.61578 9.83741C6.87224 9.58102 7.17723 9.37831 7.51292 9.24114C7.84862 9.10398 8.20829 9.03509 8.57091 9.03852C10.085 9.03852 10.8758 10.1781 10.8758 11.3033C10.8758 12.5266 10.0449 13.3872 8.85086 13.4043C7.9282 13.4043 7.23284 12.7926 7.23284 11.9847C7.2338 11.7806 7.28004 11.5793 7.36822 11.3952C7.4564 11.2111 7.58432 11.0489 7.74277 10.9203C7.77627 10.8923 7.79744 10.8523 7.80174 10.8089C7.80603 10.7654 7.7931 10.722 7.76573 10.6881L7.3017 10.1021C7.28767 10.0843 7.27022 10.0696 7.2504 10.0587C7.23058 10.0479 7.20879 10.0411 7.1863 10.0388C7.16382 10.0365 7.14109 10.0387 7.11948 10.0453C7.09787 10.0519 7.0778 10.0628 7.06046 10.0773C6.77548 10.3069 6.5455 10.5974 6.38741 10.9274C6.22931 11.2575 6.1471 11.6188 6.1468 11.9847C6.1468 13.3755 7.3287 14.4664 8.84276 14.4754H8.86301C10.6606 14.452 11.9604 13.1207 11.9604 11.3011C11.9604 9.68528 10.7704 7.96509 8.56776 7.96509H8.56731Z" fill="#5A31F4"/>
</svg>
