<svg width="32" height="24" viewBox="0 0 32 24" fill="none" xmlns="http://www.w3.org/2000/svg">
<rect x="0.5" y="0.5" width="31" height="23" rx="3.5" fill="white"/>
<rect x="0.5" y="0.5" width="31" height="23" rx="3.5" stroke="#DBD9D7"/>
<path d="M15.4023 11.065L15.1318 12.3468C15.0244 12.8738 14.7019 13.207 14.057 13.207C13.3047 13.207 13.107 12.7514 13.2873 12.119C13.5231 11.2044 14.2755 10.9256 15.4023 11.065ZM16.5845 9.21883L15.7767 9.29023L15.5271 10.538C15.222 10.521 15.1318 10.521 14.7747 10.521C13.6652 10.521 12.6771 10.9766 12.4275 12.051C12.1952 13.0166 12.7499 13.7748 13.9877 13.7748C15.2428 13.7748 15.7975 13.1254 15.9951 12.2278L16.5845 9.21883ZM7.98266 11.116C6.81771 11.0106 5.81572 11.116 5.79492 11.4866C5.77758 12.068 7.71223 11.575 7.67756 12.629C7.62208 14.21 4.91774 13.8428 4.25552 13.649L4.38034 13.173C5.52795 13.3498 6.74491 13.3668 6.78304 12.7514C6.81771 12.085 4.86573 12.68 4.90041 11.609C4.93508 10.8168 6.1555 10.3782 8.14562 10.6604L7.98266 11.116ZM11.1204 12.1904C10.9956 12.8058 10.4408 13.2614 9.79596 13.2614C9.13374 13.2614 8.84597 12.8908 9.00892 12.1904C9.13374 11.558 9.68848 11.1194 10.3542 11.1024C10.9574 11.082 11.2833 11.5206 11.1204 12.1904ZM10.4408 10.555C9.27589 10.555 8.36058 11.2044 8.12828 12.1904C7.89598 13.1764 8.52353 13.8258 9.67114 13.8258C10.8188 13.8258 11.7514 13.1594 11.9837 12.1904C12.216 11.2214 11.585 10.555 10.4408 10.555ZM23.7892 13.8054H22.7872C21.7852 12.8398 20.9046 11.7484 20.1522 10.589H20.8872C21.7124 11.6804 23.7892 13.8054 23.7892 13.8054ZM24.8467 7.41003L25.3113 6.46143L25.4361 7.42703L26.3861 7.09383L25.7273 7.92003L26.445 8.46403L25.4777 8.55243L25.443 9.53503L24.9021 8.79723L24.1324 9.50103L24.4202 8.51843L23.5049 8.39603L24.3821 7.90303L24.025 7.04283L24.8467 7.41003ZM26.8021 12.1904C26.6773 12.8228 26.1018 13.2784 25.4569 13.2784C24.7947 13.2784 24.4896 12.8908 24.6698 12.1904C24.7947 11.558 25.3702 11.1024 26.0324 11.082C26.6565 11.082 26.9789 11.5206 26.8021 12.1904ZM26.1191 10.538C24.9368 10.538 24.0042 11.2044 23.7719 12.1904C23.5396 13.173 24.1671 13.8598 25.3494 13.8598C26.5317 13.8598 27.4643 13.1934 27.6966 12.1904C27.9289 11.1874 27.3014 10.538 26.1191 10.538Z" fill="#2F3B96"/>
<path d="M19.3998 13.5232C21.2998 12.4862 22.9466 10.9052 24.1116 9.53498C23.2691 12.102 21.2443 13.5062 19.3998 13.5232Z" fill="#EC2024"/>
<path d="M18.6474 11.031C19.0045 11.031 19.2021 11.1534 19.2021 11.4016C19.2021 12.051 17.895 12.017 17.3195 11.8946C17.5345 11.3642 18.0545 11.0106 18.6474 11.031ZM19.9926 11.3642C19.9926 10.8882 19.5974 10.538 18.7376 10.538C17.323 10.538 16.3903 11.4356 16.3903 12.5576C16.3903 13.2784 17.0005 13.8768 18.1273 13.8768C18.5746 13.8768 19.0219 13.7544 19.4171 13.5062C18.4324 13.6116 17.2294 13.5062 17.2294 12.4862V12.3638C18.5573 12.646 19.9926 12.3128 19.9926 11.3642Z" fill="#2F3B96"/>
<path d="M8.18346 15.3252V16.8484C8.18346 16.947 8.20426 17.015 8.2424 17.0524C8.28054 17.0898 8.34641 17.1102 8.43656 17.1102H9.00169V17.5046H8.23546C8.04477 17.5046 7.90262 17.4536 7.80554 17.3482C7.70846 17.2462 7.65992 17.1 7.65992 16.913V15.3252H8.18346Z" fill="#E9444E"/>
<path d="M9.24802 15.9134H9.75768V16.9062C9.75768 16.9946 9.77502 17.0558 9.81316 17.0864C9.85129 17.117 9.8929 17.134 9.93797 17.134C10.0004 17.134 10.0559 17.1136 10.1044 17.0728C10.1529 17.032 10.198 16.9912 10.2396 16.9504L10.3124 16.879V15.9066H10.8256V17.4978H10.3124V17.219L10.2257 17.3108C10.1633 17.372 10.0975 17.423 10.0247 17.4638C9.95184 17.5046 9.85823 17.525 9.74035 17.525C9.5982 17.525 9.48031 17.4842 9.3867 17.406C9.29309 17.3278 9.24802 17.1884 9.24802 16.9844V15.9134Z" fill="#E9444E"/>
<path d="M11.2276 15.9134H11.7373V16.199L11.8274 16.1072C11.8864 16.046 11.9522 15.995 12.025 15.9542C12.0979 15.9134 12.1949 15.893 12.3128 15.893C12.455 15.893 12.5728 15.9304 12.6665 16.0086C12.7601 16.0868 12.8051 16.2228 12.8051 16.4166V17.508H12.2955V16.5152C12.2955 16.4268 12.2781 16.3656 12.24 16.335C12.2019 16.3044 12.1603 16.2874 12.1152 16.2874C12.0528 16.2874 11.9973 16.3078 11.9488 16.3486C11.8968 16.3894 11.8517 16.4302 11.8135 16.4744L11.7407 16.5424V17.5148H11.2276V15.9134Z" fill="#E9444E"/>
<path d="M13.1242 16.59C13.1242 16.352 13.2075 16.1786 13.3704 16.063C13.5334 15.9474 13.7241 15.893 13.9459 15.893C14.05 15.893 14.1574 15.9032 14.2684 15.9236C14.3793 15.944 14.4729 15.9746 14.5527 16.0154V16.505H14.1436V16.3146C14.1124 16.3044 14.0777 16.2942 14.0465 16.2908C14.0118 16.2874 13.9806 16.284 13.9494 16.284C13.8593 16.284 13.7865 16.3078 13.7275 16.3588C13.6686 16.4098 13.6374 16.488 13.6374 16.59V16.8008C13.6374 16.9198 13.6686 17.0048 13.7275 17.0592C13.7865 17.1136 13.8731 17.1408 13.9876 17.1408C14.0708 17.1408 14.1609 17.134 14.2511 17.117C14.3412 17.1 14.4209 17.083 14.4972 17.0626H14.5215V17.4298C14.4487 17.4604 14.3585 17.4842 14.2476 17.5012C14.1366 17.5182 14.0361 17.5318 13.9425 17.5318C13.7067 17.5318 13.5126 17.4808 13.36 17.3788C13.2075 17.2768 13.1312 17.1034 13.1312 16.862V16.59H13.1242Z" fill="#E9444E"/>
<path d="M14.8646 15.3252H15.3742V16.199L15.4644 16.1072C15.5233 16.046 15.5892 15.995 15.662 15.9542C15.7348 15.9134 15.8319 15.893 15.9498 15.893C16.0919 15.893 16.2098 15.9338 16.3034 16.012C16.397 16.0902 16.4421 16.2296 16.4421 16.4336V17.508H15.9324V16.5152C15.9324 16.4268 15.9151 16.3656 15.877 16.335C15.8388 16.3044 15.7972 16.2874 15.7521 16.2874C15.6897 16.2874 15.6343 16.3078 15.5857 16.3486C15.5337 16.3894 15.4887 16.4302 15.4505 16.4744L15.3777 16.5424V17.5148H14.8646V15.3252Z" fill="#E9444E"/>
<path d="M17.6314 15.3252H18.5155C18.7755 15.3252 18.9731 15.3864 19.1014 15.5122C19.2297 15.6346 19.2956 15.825 19.2956 16.0834C19.2956 16.3384 19.2228 16.539 19.0806 16.6818C18.9385 16.8246 18.7339 16.896 18.4704 16.896H18.1514V17.508H17.6314V15.3252ZM18.148 16.5016H18.3907C18.5432 16.5016 18.6438 16.4642 18.6958 16.3928C18.7478 16.3214 18.772 16.216 18.772 16.08C18.772 15.9474 18.7443 15.8522 18.6888 15.7978C18.6334 15.7434 18.5363 15.7162 18.4011 15.7162H18.148V16.5016Z" fill="#E9444E"/>
<path d="M19.4896 16.7327C19.4896 16.4845 19.5832 16.2873 19.7705 16.1377C19.9577 15.9881 20.1657 15.9167 20.4015 15.9167H21.1053V17.5079H20.5956V17.2563L20.4708 17.3515C20.405 17.4025 20.3321 17.4467 20.2559 17.4807C20.1796 17.5147 20.086 17.5317 19.9785 17.5317C19.8433 17.5317 19.7254 17.4875 19.6318 17.4025C19.5382 17.3175 19.4896 17.1781 19.4896 16.9843V16.7327ZM20.5922 16.8993V16.2873H20.45C20.3183 16.2873 20.2108 16.3281 20.1276 16.4063C20.0409 16.4845 19.9993 16.5899 19.9993 16.7191V16.9061C19.9993 16.9979 20.0166 17.0591 20.0548 17.0897C20.0929 17.1203 20.1345 17.1373 20.1865 17.1373C20.2489 17.1373 20.3079 17.1169 20.3703 17.0727C20.4327 17.0285 20.4812 16.9911 20.5194 16.9605L20.5922 16.8993Z" fill="#E9444E"/>
<path d="M21.4417 17.0932H21.4659C21.5457 17.1102 21.6393 17.1238 21.7398 17.134C21.8404 17.1442 21.927 17.151 21.9999 17.151C22.0623 17.151 22.1316 17.1442 22.2079 17.1272C22.2842 17.1102 22.3188 17.0762 22.3188 17.0218C22.3188 16.9844 22.2946 16.9538 22.2495 16.9334C22.2044 16.913 22.1593 16.8994 22.1143 16.8892L21.8646 16.8348C21.7329 16.8042 21.6289 16.7566 21.5526 16.6852C21.4763 16.6138 21.4382 16.5152 21.4382 16.3826C21.4382 16.199 21.5214 16.0732 21.6878 16.0018C21.8542 15.9304 22.038 15.893 22.2356 15.893C22.3223 15.893 22.409 15.8998 22.5026 15.91C22.5962 15.9202 22.6794 15.9338 22.7557 15.9508V16.318H22.7314C22.6586 16.3078 22.5823 16.2942 22.4991 16.2874C22.4194 16.2772 22.3327 16.2738 22.2426 16.2738C22.1801 16.2738 22.1177 16.2806 22.0588 16.2976C21.9999 16.3146 21.9687 16.3486 21.9687 16.3996C21.9687 16.437 21.9895 16.4642 22.0311 16.4812C22.0727 16.4948 22.1143 16.5084 22.1559 16.5186L22.3708 16.5696C22.4957 16.5934 22.6066 16.641 22.7037 16.709C22.8008 16.777 22.8493 16.8858 22.8493 17.0354C22.8493 17.2394 22.7592 17.3754 22.5789 17.44C22.3986 17.508 22.2079 17.5386 21.9999 17.5386C21.8993 17.5386 21.8057 17.5352 21.7121 17.5284C21.6185 17.5216 21.5283 17.508 21.4417 17.491V17.0932Z" fill="#E9444E"/>
<path d="M23.0748 17.0932H23.099C23.1788 17.1102 23.2724 17.1238 23.3729 17.134C23.4735 17.1442 23.5602 17.151 23.633 17.151C23.6954 17.151 23.7647 17.1442 23.841 17.1272C23.9173 17.1102 23.9519 17.0762 23.9519 17.0218C23.9519 16.9844 23.9277 16.9538 23.8826 16.9334C23.8375 16.913 23.7925 16.8994 23.7474 16.8892L23.4977 16.8348C23.366 16.8042 23.262 16.7566 23.1857 16.6852C23.1094 16.6138 23.0713 16.5152 23.0713 16.3826C23.0713 16.199 23.1545 16.0732 23.3209 16.0018C23.4873 15.9304 23.6711 15.893 23.8687 15.893C23.9554 15.893 24.0421 15.8998 24.1357 15.91C24.2293 15.9202 24.3125 15.9338 24.3888 15.9508V16.318H24.3645C24.2917 16.3078 24.2154 16.2942 24.1322 16.2874C24.0525 16.2772 23.9658 16.2738 23.8757 16.2738C23.8133 16.2738 23.7508 16.2806 23.6919 16.2976C23.633 16.3146 23.6018 16.3486 23.6018 16.3996C23.6018 16.437 23.6226 16.4642 23.6642 16.4812C23.7058 16.4948 23.7474 16.5084 23.789 16.5186L24.0039 16.5696C24.1288 16.5934 24.2397 16.641 24.3368 16.709C24.4339 16.777 24.4824 16.8858 24.4824 17.0354C24.4824 17.2394 24.3923 17.3754 24.212 17.44C24.0317 17.508 23.841 17.5386 23.633 17.5386C23.5324 17.5386 23.4388 17.5352 23.3452 17.5284C23.2516 17.5216 23.1614 17.508 23.0748 17.491V17.0932Z" fill="#E9444E"/>
</svg>
