<svg width="32" height="24" viewBox="0 0 32 24" fill="none" xmlns="http://www.w3.org/2000/svg">
<rect width="32" height="24" rx="4" fill="#F36805"/>
<rect x="0.5" y="0.5" width="31" height="23" rx="3.5" stroke="white" stroke-opacity="0.01"/>
<path d="M19.1502 6.37816L18.658 5.19144C18.5755 4.99142 18.4543 4.80969 18.3013 4.65671C18.1483 4.50372 17.9666 4.38251 17.7666 4.30004C17.3655 4.13444 16.9152 4.13444 16.5142 4.30004L11.5048 6.37816H19.1502Z" fill="white"/>
<path d="M22.0158 16.6539H17.9142C17.7953 16.6539 17.6812 16.6067 17.5971 16.5226C17.513 16.4385 17.4658 16.3244 17.4658 16.2055V10.5672C17.4672 10.4492 17.5151 10.3366 17.599 10.2537C17.683 10.1707 17.7962 10.1242 17.9142 10.1243H22.6173V9.07973C22.616 8.83939 22.5618 8.60229 22.4588 8.38519C22.3339 8.08126 22.1207 7.82181 21.8467 7.64045C21.5727 7.45909 21.2506 7.36418 20.922 7.36801H9.43766C9.08891 7.36994 8.74985 7.48296 8.46969 7.69066C8.37253 7.76778 8.28282 7.85383 8.20172 7.94769L8.10328 8.07894L8.05953 8.13363C8.00545 8.21257 7.95964 8.29687 7.92281 8.38519C7.81972 8.60229 7.76558 8.83939 7.76422 9.07973V17.7586C7.76422 18.2025 7.94053 18.6281 8.25436 18.9419C8.56819 19.2558 8.99384 19.4321 9.43766 19.4321H20.922C21.3659 19.4321 21.7915 19.2558 22.1053 18.9419C22.4192 18.6281 22.5955 18.2025 22.5955 17.7586V16.6649H22.0158V16.6539Z" fill="white"/>
<path d="M18.5595 11.218V15.5602H24.2033V11.218H18.5595Z" fill="white"/>
</svg>
