<svg width="32" height="24" viewBox="0 0 32 24" fill="none" xmlns="http://www.w3.org/2000/svg">
<path d="M0 4C0 1.79086 1.79086 0 4 0H28C30.2091 0 32 1.79086 32 4V20C32 22.2091 30.2091 24 28 24H4C1.79086 24 0 22.2091 0 20V4Z" fill="white"/>
<path d="M19.6163 10.8285C19.4481 8.14104 17.1249 6 14.3236 6C11.3847 6 9.00004 8.28819 9.00004 11.1402C8.99495 12.4683 9.53127 13.7447 10.4925 14.6923L14.0008 10.8285H19.6163ZM16.2463 19H23V14.7212L19.6146 10.8293L16.2446 14.7212V19H16.2463Z" fill="#F9383D"/>
</svg>
