<svg width="32" height="24" viewBox="0 0 32 24" fill="none" xmlns="http://www.w3.org/2000/svg">
<rect width="32" height="24" rx="4" fill="#F36805"/>
<path d="M24.2031 9.81253V16.9219C24.2031 17.212 24.0879 17.4902 23.8828 17.6953C23.6777 17.9004 23.3995 18.0157 23.1094 18.0157H8.89062C8.60054 18.0157 8.32234 17.9004 8.11723 17.6953C7.91211 17.4902 7.79688 17.212 7.79688 16.9219V9.81253C7.79688 9.52245 7.91211 9.24425 8.11723 9.03913C8.32234 8.83401 8.60054 8.71878 8.89062 8.71878H10.4875V9.26565C10.4909 9.45036 10.5166 9.63398 10.5641 9.81253C10.5641 9.87815 10.5969 9.94378 10.6242 10.0258C10.6242 10.0258 10.6734 10.1625 10.6898 10.1899C10.9232 10.8024 11.3493 11.3225 11.9039 11.6719C11.9835 11.7226 12.0495 11.7919 12.0962 11.8739C12.1429 11.9558 12.1688 12.0479 12.1719 12.1422V15.2813C12.1719 15.4263 12.2295 15.5654 12.3321 15.668C12.4346 15.7705 12.5737 15.8282 12.7188 15.8282H14.9062C15.0513 15.8282 15.1904 15.7705 15.2929 15.668C15.3955 15.5654 15.4531 15.4263 15.4531 15.2813V12.0821C15.4543 12.0008 15.4736 11.9209 15.5095 11.8481C15.5455 11.7752 15.5972 11.7113 15.6609 11.661C15.7383 12.0295 15.9203 12.3679 16.1851 12.6356C16.4499 12.9033 16.7863 13.089 17.1539 13.1703L17.4711 13.2305C17.4383 13.7774 17.4055 14.275 17.3727 14.6414L17.3234 15.2375C17.3174 15.3129 17.327 15.3888 17.3518 15.4603C17.3766 15.5318 17.4159 15.5973 17.4673 15.6528C17.5187 15.7083 17.581 15.7526 17.6504 15.7828C17.7198 15.8129 17.7947 15.8284 17.8703 15.8282H20.0578C20.1956 15.8286 20.3284 15.777 20.4298 15.6837C20.5312 15.5905 20.5937 15.4624 20.6047 15.325L20.6484 14.8219C20.7414 13.6625 20.8727 11.1469 20.8672 8.71878H23.1094C23.253 8.71878 23.3952 8.74707 23.5279 8.80204C23.6606 8.857 23.7812 8.93757 23.8828 9.03913C23.9843 9.14069 24.0649 9.26127 24.1199 9.39397C24.1748 9.52667 24.2031 9.6689 24.2031 9.81253ZM11.6687 9.71409L11.7016 9.79612C11.8394 10.1205 12.0537 10.4067 12.326 10.6305C12.5983 10.8543 12.9207 11.0089 13.2656 11.0813V14.7344H14.3594V11.0594C14.6836 10.9778 14.9847 10.823 15.2397 10.6068C15.4948 10.3907 15.6968 10.119 15.8305 9.81253L15.8633 9.7305C15.8633 9.68675 15.8906 9.64847 15.9016 9.60472C15.9361 9.4912 15.9546 9.37337 15.9563 9.25472V9.25472C15.9563 9.25472 15.9563 9.21097 15.9563 9.18909V5.15315L14.8625 5.70003V9.19456C14.8601 9.25596 14.849 9.3167 14.8297 9.37503C14.8083 9.42125 14.7745 9.46058 14.732 9.4886C14.6895 9.51662 14.64 9.53221 14.5891 9.53362C14.5165 9.53362 14.447 9.50481 14.3957 9.45353C14.3444 9.40225 14.3156 9.3327 14.3156 9.26018V5.15315L13.2219 5.70003V9.26565C13.2205 9.33774 13.1912 9.40647 13.1402 9.45745C13.0893 9.50843 13.0205 9.53769 12.9484 9.53909C12.8966 9.5387 12.8459 9.52358 12.8024 9.4955C12.7588 9.46743 12.7241 9.42754 12.7023 9.3805C12.6849 9.32191 12.6757 9.26116 12.675 9.20003V5.15315L11.5813 5.70003V9.26565C11.5811 9.38406 11.5977 9.50189 11.6305 9.61565C11.625 9.63206 11.6578 9.67034 11.6687 9.71409ZM16.6891 11.1852C16.5165 9.02774 17.0089 6.86919 18.1 5.00003C18.2033 4.82488 18.3671 4.69364 18.5606 4.63116C18.7541 4.56868 18.9638 4.57928 19.15 4.66097C19.3688 4.76487 19.6258 5.00003 19.6969 5.90784C19.8293 8.85009 19.7836 11.7977 19.5602 14.7344H18.4664C18.5102 14.1875 18.5648 13.3399 18.6086 12.3227C18.2039 12.2516 17.5477 12.1367 17.3781 12.0985C17.1759 12.0484 16.9971 11.9303 16.8716 11.764C16.7462 11.5977 16.6817 11.3934 16.6891 11.1852ZM17.7828 11.0649L18.6523 11.218C18.7016 9.61565 18.718 7.81643 18.6523 6.33987C17.9907 7.82339 17.6908 9.44281 17.7773 11.0649H17.7828Z" fill="white"/>
</svg>
