<svg width="32" height="24" viewBox="0 0 32 24" fill="none" xmlns="http://www.w3.org/2000/svg">
<rect width="32" height="24" rx="4" fill="#273680"/>
<rect x="0.5" y="0.5" width="31" height="23" rx="3.5" stroke="white" stroke-opacity="0.01"/>
<g clip-path="url(#clip0_10328_10685)">
<mask id="mask0_10328_10685" style="mask-type:alpha" maskUnits="userSpaceOnUse" x="8" y="4" width="16" height="16">
<path d="M21.6226 4.28571H10.3773C9.22217 4.28571 8.28571 5.22217 8.28571 6.37735V17.6226C8.28571 18.7778 9.22217 19.7143 10.3773 19.7143H21.6226C22.7778 19.7143 23.7143 18.7778 23.7143 17.6226V6.37735C23.7143 5.22217 22.7778 4.28571 21.6226 4.28571Z" fill="white"/>
</mask>
<g mask="url(#mask0_10328_10685)">
<path d="M2.33911 2.97729H28.9231V21.4116H2.33911V2.97729Z" fill="url(#paint0_linear_10328_10685)"/>
</g>
<mask id="mask1_10328_10685" style="mask-type:alpha" maskUnits="userSpaceOnUse" x="8" y="4" width="16" height="16">
<path d="M21.6226 4.28571H10.3773C9.22217 4.28571 8.28571 5.22217 8.28571 6.37735V17.6226C8.28571 18.7778 9.22217 19.7143 10.3773 19.7143H21.6226C22.7778 19.7143 23.7143 18.7778 23.7143 17.6226V6.37735C23.7143 5.22217 22.7778 4.28571 21.6226 4.28571Z" fill="white"/>
</mask>
<g mask="url(#mask1_10328_10685)">
<path d="M39.1392 3.44113L28.6465 21.6143C28.0606 22.6293 26.9776 23.2546 25.8056 23.2546C24.6336 23.2546 23.5507 22.6293 22.9648 21.6143L15.7579 9.141L19.0592 3.44113H39.1392Z" fill="url(#paint1_linear_10328_10685)"/>
</g>
<mask id="mask2_10328_10685" style="mask-type:alpha" maskUnits="userSpaceOnUse" x="8" y="4" width="16" height="16">
<path d="M21.6226 4.28571H10.3773C9.22217 4.28571 8.28571 5.22217 8.28571 6.37735V17.6226C8.28571 18.7778 9.22217 19.7143 10.3773 19.7143H21.6226C22.7778 19.7143 23.7143 18.7778 23.7143 17.6226V6.37735C23.7143 5.22217 22.7778 4.28571 21.6226 4.28571Z" fill="white"/>
</mask>
<g mask="url(#mask2_10328_10685)">
<path d="M19.059 3.44101L15.7581 9.14101L12.4731 3.44101H19.059Z" fill="url(#paint2_linear_10328_10685)"/>
</g>
<mask id="mask3_10328_10685" style="mask-type:alpha" maskUnits="userSpaceOnUse" x="8" y="4" width="16" height="16">
<path d="M21.6226 4.28571H10.3773C9.22217 4.28571 8.28571 5.22217 8.28571 6.37735V17.6226C8.28571 18.7778 9.22217 19.7143 10.3773 19.7143H21.6226C22.7778 19.7143 23.7143 18.7778 23.7143 17.6226V6.37735C23.7143 5.22217 22.7778 4.28571 21.6226 4.28571Z" fill="white"/>
</mask>
<g mask="url(#mask3_10328_10685)">
<path d="M12.4731 3.44113L15.7581 9.14099L12.4641 14.8378C11.9273 15.7664 10.9362 16.3384 9.86358 16.3384C8.791 16.3384 7.79981 15.7664 7.2631 14.8378L0.683319 3.44113H12.4731Z" fill="url(#paint3_linear_10328_10685)"/>
</g>
<mask id="mask4_10328_10685" style="mask-type:alpha" maskUnits="userSpaceOnUse" x="8" y="4" width="16" height="16">
<path d="M21.6226 4.28571H10.3773C9.22217 4.28571 8.28571 5.22217 8.28571 6.37735V17.6226C8.28571 18.7778 9.22217 19.7143 10.3773 19.7143H21.6226C22.7778 19.7143 23.7143 18.7778 23.7143 17.6226V6.37735C23.7143 5.22217 22.7778 4.28571 21.6226 4.28571Z" fill="white"/>
</mask>
<g mask="url(#mask4_10328_10685)">
<path d="M8.93638 30.3865H22.4179C23.1237 30.3865 23.7758 30.01 24.1287 29.3987C24.4816 28.7875 24.4815 28.0344 24.1286 27.4232L17.3879 15.748C17.035 15.1368 16.3828 14.7602 15.6771 14.7602C14.9713 14.7602 14.3191 15.1368 13.9662 15.748L7.22549 27.4232C6.87256 28.0345 6.87255 28.7875 7.22546 29.3988C7.57837 30.01 8.23057 30.3865 8.93638 30.3865Z" fill="url(#paint4_linear_10328_10685)"/>
</g>
<mask id="mask5_10328_10685" style="mask-type:alpha" maskUnits="userSpaceOnUse" x="8" y="4" width="16" height="16">
<path d="M21.6226 4.28571H10.3773C9.22217 4.28571 8.28571 5.22217 8.28571 6.37735V17.6226C8.28571 18.7778 9.22217 19.7143 10.3773 19.7143H21.6226C22.7778 19.7143 23.7143 18.7778 23.7143 17.6226V6.37735C23.7143 5.22217 22.7778 4.28571 21.6226 4.28571Z" fill="white"/>
</mask>
<g mask="url(#mask5_10328_10685)">
<path d="M-9.1957 30.8429H7.86921C8.76261 30.8429 9.58814 30.3663 10.0348 29.5926C10.4815 28.8189 10.4815 27.8656 10.0347 27.0919L1.50228 12.3134C1.0556 11.5397 0.23011 11.0631 -0.663243 11.0631C-1.5566 11.0631 -2.38209 11.5397 -2.82876 12.3134L-11.3612 27.0919C-11.8079 27.8656 -11.8079 28.8189 -11.3612 29.5925C-10.9145 30.3662 -10.0889 30.8429 -9.19557 30.8429H-9.1957Z" fill="url(#paint5_linear_10328_10685)"/>
</g>
<path d="M20.4808 6.96719H10.9868C10.4897 6.96719 10.0304 7.23232 9.7819 7.66277C9.53336 8.09322 9.53335 8.62357 9.78188 9.05403L14.529 17.2762C14.7775 17.7066 15.2368 17.9717 15.7338 17.9717C16.2308 17.9717 16.69 17.7066 16.9386 17.2762L21.6857 9.05403C21.9342 8.62357 21.9342 8.09322 21.6857 7.66277C21.4371 7.23232 20.9778 6.96719 20.4808 6.96719Z" fill="white"/>
<path d="M20.9266 8.68316C20.3392 9.7024 19.7506 10.7201 19.1609 11.7363C19.0614 11.9156 18.8718 12.0262 18.6667 12.0244C18.4616 12.0225 18.274 11.9087 18.1776 11.7277C17.5946 10.7136 17.0127 9.69933 16.4321 8.68489C16.3244 8.51158 16.3192 8.2935 16.4185 8.11525C16.5178 7.937 16.7059 7.82662 16.91 7.82694C17.114 7.82725 17.3018 7.93821 17.4006 8.11677C17.8122 8.82639 18.2179 9.53787 18.6269 10.2495C18.6392 10.2704 18.6532 10.2914 18.6759 10.3282C18.8237 10.0737 18.9617 9.8342 19.1006 9.59468C19.3856 9.10351 19.668 8.61141 19.9547 8.12198C20.052 7.94263 20.239 7.83023 20.4431 7.82843C20.6471 7.82663 20.8361 7.9357 20.9366 8.1133C21.0371 8.2909 21.0332 8.50904 20.9266 8.68303V8.68316ZM17.9967 13.7477C17.6157 14.4137 17.2301 15.0762 16.8464 15.7405C16.6436 16.092 16.4408 16.4428 16.238 16.793C15.9889 17.2212 15.4672 17.2238 15.2197 16.7957C14.6412 15.7903 14.0643 14.7844 13.4891 13.7781C13.3548 13.5639 13.3799 13.2865 13.5503 13.0998C13.7116 12.9136 13.9789 12.861 14.1988 12.9722C14.2985 13.0225 14.383 13.0986 14.4435 13.1925C14.8543 13.8909 15.2548 14.5955 15.6585 15.2981C15.6805 15.3348 15.7022 15.3707 15.7311 15.4204C15.8517 15.2124 15.9645 15.0193 16.0764 14.8252C16.3875 14.2886 16.6961 13.7501 17.0107 13.2152C17.098 13.0522 17.2603 12.9431 17.4442 12.9239C17.628 12.9046 17.8094 12.9778 17.9285 13.1192C18.0819 13.2931 18.1092 13.5448 17.9967 13.7476V13.7477ZM12.2889 11.7574C11.9401 11.1489 11.591 10.5405 11.2418 9.93222C11.0084 9.5268 10.7733 9.12205 10.5434 8.71463C10.4411 8.54188 10.439 8.32766 10.5378 8.15289C10.6365 7.97813 10.8212 7.86948 11.0219 7.868C11.2227 7.86652 11.4089 7.97243 11.5102 8.14571C11.9192 8.85368 12.3268 9.56197 12.733 10.2706C12.7478 10.2976 12.7645 10.3239 12.7881 10.364C13.0022 9.99344 13.2067 9.64029 13.4113 9.28715C13.6332 8.90441 13.8527 8.51979 14.0773 8.13785C14.2354 7.87089 14.58 7.78264 14.8469 7.94074C15.1139 8.09883 15.2022 8.44341 15.0441 8.71037C14.5047 9.64478 13.9646 10.5788 13.4236 11.5126C13.3746 11.5956 13.3274 11.6805 13.2776 11.7635C13.1783 11.9445 12.9878 12.0565 12.7814 12.0553C12.575 12.054 12.3859 11.9396 12.2889 11.7574Z" fill="#273680"/>
</g>
<defs>
<linearGradient id="paint0_linear_10328_10685" x1="20.8602" y1="11.6819" x2="1.21427" y2="15.6859" gradientUnits="userSpaceOnUse">
<stop offset="0.002" stop-color="#81CFF4"/>
<stop offset="0.467" stop-color="#0998D5"/>
<stop offset="1" stop-color="#273680"/>
</linearGradient>
<linearGradient id="paint1_linear_10328_10685" x1="25.3953" y1="2.33669" x2="28.8926" y2="11.4457" gradientUnits="userSpaceOnUse">
<stop stop-color="#0998D5"/>
<stop offset="1" stop-color="#273680"/>
</linearGradient>
<linearGradient id="paint2_linear_10328_10685" x1="16.8046" y1="8.34655" x2="16.0625" y2="3.62294" gradientUnits="userSpaceOnUse">
<stop stop-color="#E20E7E"/>
<stop offset="0.005" stop-color="#E20E7E"/>
<stop offset="1" stop-color="#6E237F"/>
</linearGradient>
<linearGradient id="paint3_linear_10328_10685" x1="12.3331" y1="13.1858" x2="7.59962" y2="2.5417" gradientUnits="userSpaceOnUse">
<stop stop-color="#FABE03"/>
<stop offset="0.47" stop-color="#EE8906"/>
<stop offset="1" stop-color="#E64516"/>
</linearGradient>
<linearGradient id="paint4_linear_10328_10685" x1="650.273" y1="1588.21" x2="758.604" y2="2312.13" gradientUnits="userSpaceOnUse">
<stop stop-color="#97C02B"/>
<stop offset="0.998" stop-color="#06863B"/>
<stop offset="1" stop-color="#06863B"/>
</linearGradient>
<linearGradient id="paint5_linear_10328_10685" x1="5.7337" y1="18.2344" x2="3.69826" y2="21.4657" gradientUnits="userSpaceOnUse">
<stop stop-color="#EE8906"/>
<stop offset="1" stop-color="#E64516"/>
</linearGradient>
<clipPath id="clip0_10328_10685">
<rect width="15.4286" height="15.4286" fill="white" transform="translate(8.28571 4.28571)"/>
</clipPath>
</defs>
</svg>
