<svg width="32" height="24" viewBox="0 0 32 24" fill="none" xmlns="http://www.w3.org/2000/svg">
<rect x="0.5" y="0.5" width="31" height="23" rx="3.5" fill="white"/>
<rect x="0.5" y="0.5" width="31" height="23" rx="3.5" stroke="#DBD9D7"/>
<g clip-path="url(#clip0_13183_9039)">
<rect x="5.5" y="4.64999" width="21" height="14.7" fill="white"/>
<path d="M7.22118 7.45938H10.8451V8.24948C10.5878 8.03374 10.0413 7.94636 9.458 7.94636V10.1005C9.458 10.4221 9.48533 10.5094 9.60956 10.6749H8.45671C8.58066 10.5094 8.60827 10.4223 8.60827 10.1005V7.94622C8.02494 7.94622 7.47847 8.0336 7.22118 8.24934V7.45938ZM7.22118 7.45938H10.8451V8.24948C10.5878 8.03374 10.0413 7.94636 9.458 7.94636V10.1005C9.458 10.4221 9.48533 10.5094 9.60956 10.6749H8.45671C8.58066 10.5094 8.60827 10.4223 8.60827 10.1005V7.94622C8.02494 7.94622 7.47847 8.0336 7.22118 8.24934V7.45938ZM7.22118 7.45938H10.8451V8.24948C10.5878 8.03374 10.0413 7.94636 9.458 7.94636V10.1005C9.458 10.4221 9.48533 10.5094 9.60956 10.6749H8.45671C8.58066 10.5094 8.60827 10.4223 8.60827 10.1005V7.94622C8.02494 7.94622 7.47847 8.0336 7.22118 8.24934V7.45938ZM7.22118 7.45938H10.8451V8.24948C10.5878 8.03374 10.0413 7.94636 9.458 7.94636V10.1005C9.458 10.4221 9.48533 10.5094 9.60956 10.6749H8.45671C8.58066 10.5094 8.60827 10.4223 8.60827 10.1005V7.94622C8.02494 7.94622 7.47847 8.0336 7.22118 8.24934V7.45938ZM12.5858 10.1877C12.958 10.1877 13.578 10.1004 13.8215 9.88462V10.6747H11.1805C11.3092 10.5232 11.3321 10.4221 11.3321 10.1143V8.01966C11.3321 7.71184 11.3092 7.6108 11.1805 7.45924H13.6837V8.24934C13.4404 8.0336 12.8202 7.94622 12.4482 7.94622H12.1543V8.80051H12.3701C12.5811 8.80051 12.9076 8.79154 13.1233 8.71341V9.34726C12.9076 9.26913 12.5813 9.25988 12.3701 9.25988H12.1543V10.1879H12.5858V10.1877ZM16.0492 8.69505C16.6784 8.78215 17.2022 9.00287 17.2022 9.68723C17.2022 10.491 16.4397 10.748 15.6174 10.7436C15.0434 10.7389 14.5565 10.6838 14.1982 10.5415V9.8203C14.7081 10.151 15.2316 10.2568 15.6174 10.2568C16.0172 10.2568 16.3845 10.1604 16.3845 9.85715C16.3845 9.55389 16.0445 9.4806 15.3465 9.37486C14.7448 9.28307 14.1982 9.02564 14.1935 8.4332C14.1889 7.63413 14.947 7.3905 15.6725 7.3905C16.1411 7.3905 16.5958 7.44572 17.0136 7.58333V8.35977C16.6646 8.05196 16.1456 7.87748 15.6357 7.87748C15.2913 7.87748 14.9652 7.9875 14.9652 8.24479C14.9652 8.56641 15.4475 8.61237 16.0492 8.69505ZM19.6365 7.3905C20.0131 7.3905 20.3393 7.43647 20.6011 7.50548V8.30456C20.3438 8.04271 20.0407 7.87748 19.6412 7.87748C18.911 7.87748 18.4241 8.38738 18.4241 9.06705C18.4241 9.74673 18.911 10.2566 19.6412 10.2566C20.0408 10.2566 20.344 10.0911 20.6011 9.82954V10.6289C20.3393 10.6978 20.0131 10.748 19.6365 10.748C18.3735 10.748 17.4595 10.119 17.4595 9.06705C17.4595 8.0151 18.3734 7.3905 19.6365 7.3905Z" fill="#E3000F"/>
<path d="M22.8766 7.3905C21.572 7.3905 20.8282 8.1483 20.8282 9.06705C20.8282 9.9811 21.572 10.7436 22.8766 10.7436C24.1811 10.7436 24.925 9.9811 24.925 9.06705C24.925 8.1483 24.1811 7.3905 22.8766 7.3905ZM22.8766 10.2566C22.2198 10.2566 21.7926 9.71456 21.7926 9.06705C21.7926 8.41485 22.2197 7.87748 22.8766 7.87748C23.5333 7.87748 23.9606 8.41498 23.9606 9.06705C23.9604 9.71456 23.5333 10.2566 22.8766 10.2566Z" fill="#E3000F"/>
<path d="M22.6969 11.5482H24.8852C24.8879 11.5482 24.8899 11.5487 24.8913 11.5494L24.8919 11.55C24.8924 11.5503 24.8928 11.5507 24.8934 11.551C24.8978 11.5551 24.8981 11.5637 24.8915 11.5697C24.8898 11.5714 24.888 11.5725 24.8861 11.5735L24.8822 11.5751C24.628 11.6911 24.2877 12.0441 24.2877 12.0441C24.0329 12.286 23.8423 12.4385 23.4349 12.4385H21.3484C21.3426 12.4385 21.3395 12.4328 21.3392 12.427C21.3392 12.4232 21.3408 12.4192 21.3436 12.4171C21.3453 12.4156 21.3477 12.4139 21.3502 12.4124C21.5792 12.2843 21.9211 11.9299 21.9211 11.9299C22.0608 11.7645 22.3406 11.5482 22.6969 11.5482Z" fill="#004997"/>
<path d="M19.1311 11.5482H21.3194C21.3221 11.5482 21.3241 11.5487 21.3255 11.5494L21.3261 11.55C21.3266 11.5503 21.327 11.5507 21.3276 11.551C21.332 11.5551 21.3323 11.5637 21.3257 11.5697C21.324 11.5714 21.3222 11.5725 21.3203 11.5735L21.3164 11.5751C21.0622 11.6911 20.7216 12.0441 20.7216 12.0441C20.4671 12.286 20.2762 12.4385 19.8691 12.4385H17.7826C17.7766 12.4385 17.7734 12.4328 17.7728 12.427C17.7728 12.4232 17.7748 12.4192 17.7775 12.4171C17.7792 12.4156 17.7817 12.4139 17.7841 12.4124C18.0131 12.2843 18.355 11.9299 18.355 11.9299C18.495 11.7645 18.7747 11.5482 19.1311 11.5482Z" fill="#004997"/>
<path d="M15.5653 11.5482H17.7536C17.7563 11.5482 17.7583 11.5487 17.7597 11.5494L17.7603 11.55C17.7608 11.5503 17.7612 11.5507 17.7618 11.551C17.7662 11.5551 17.7665 11.5637 17.7598 11.5697C17.7582 11.5714 17.7564 11.5725 17.7545 11.5735L17.7506 11.5751C17.4963 11.6911 17.1558 12.0441 17.1558 12.0441C16.9013 12.286 16.7104 12.4385 16.3033 12.4385H14.2164C14.2106 12.4385 14.2074 12.4328 14.2072 12.427C14.2072 12.4232 14.2087 12.4192 14.2116 12.4171C14.2131 12.4156 14.2157 12.4139 14.2179 12.4124C14.4471 12.2843 14.7891 11.9299 14.7891 11.9299C14.9292 11.7645 15.2089 11.5482 15.5653 11.5482Z" fill="#004997"/>
<path d="M11.999 11.5482H14.1876C14.19 11.5482 14.192 11.5487 14.1934 11.5494L14.1939 11.55C14.1945 11.5503 14.1949 11.5507 14.1954 11.551C14.1998 11.5551 14.2001 11.5637 14.1935 11.5697C14.1918 11.5714 14.19 11.5725 14.1881 11.5735L14.1842 11.5751C13.93 11.6911 13.5897 12.0441 13.5897 12.0441C13.3349 12.286 13.1443 12.4385 12.737 12.4385H10.6503C10.6445 12.4385 10.6414 12.4328 10.6411 12.427C10.6411 12.4232 10.6427 12.4192 10.6455 12.4171C10.6472 12.4156 10.6496 12.4139 10.6521 12.4124C10.8811 12.2843 11.223 11.9299 11.223 11.9299C11.363 11.7645 11.6428 11.5482 11.999 11.5482Z" fill="#004997"/>
<path d="M8.43324 11.5482H10.6216C10.6242 11.5482 10.6263 11.5487 10.6277 11.5494L10.6282 11.55C10.6288 11.5503 10.6292 11.5507 10.6298 11.551C10.6342 11.5551 10.6345 11.5637 10.6278 11.5697C10.6262 11.5714 10.6244 11.5725 10.6224 11.5735L10.6186 11.5751C10.3643 11.6911 10.0238 12.0441 10.0238 12.0441C9.76926 12.286 9.57864 12.4385 9.1713 12.4385H7.0848C7.07872 12.4385 7.07555 12.4328 7.075 12.427C7.075 12.4232 7.07693 12.4192 7.07969 12.4171C7.08135 12.4156 7.08383 12.4139 7.08632 12.4124C7.31531 12.2843 7.65722 11.9299 7.65722 11.9299C7.79719 11.7645 8.07684 11.5482 8.43324 11.5482Z" fill="#004997"/>
<path d="M8.31965 13.3625C8.59807 13.3625 8.81712 13.4352 8.97614 13.5807C9.13529 13.7259 9.2148 13.9244 9.2148 14.1752C9.2148 14.3221 9.17891 14.4529 9.10685 14.5676C9.0348 14.6823 8.94839 14.7659 8.84735 14.8178C9.01575 14.8822 9.14799 14.9823 9.24447 15.1184C9.3411 15.2546 9.38927 15.4269 9.38927 15.6349C9.38927 15.9259 9.29817 16.1553 9.1161 16.3237C8.93376 16.4921 8.68682 16.576 8.37459 16.576H7.21304V13.3625H8.31965ZM8.30599 14.6848C8.47121 14.6848 8.5982 14.6451 8.68696 14.5654C8.77585 14.4859 8.82002 14.368 8.82002 14.2118C8.82002 14.0558 8.77585 13.9379 8.68696 13.8584C8.59806 13.7789 8.46942 13.739 8.3013 13.739H7.6172V14.6848H8.30599ZM8.32435 16.1999C8.5325 16.1999 8.69386 16.1525 8.80884 16.0576C8.92355 15.9626 8.98097 15.8203 8.98097 15.6306C8.98097 15.4378 8.92437 15.2948 8.81105 15.2014C8.69786 15.1079 8.53554 15.0612 8.32435 15.0612H7.61734V16.1999H8.32435Z" fill="#004997"/>
<path d="M10.108 16.5281C9.98861 16.4718 9.89364 16.3905 9.82339 16.2848C9.75285 16.1793 9.71765 16.0561 9.71765 15.9153C9.71765 15.6673 9.81262 15.4755 10.0024 15.3392C10.1921 15.203 10.4447 15.1347 10.7598 15.1347H11.265V15.0153C11.265 14.8625 11.2113 14.7407 11.1042 14.6505C10.9971 14.5602 10.8592 14.5151 10.6909 14.5151C10.547 14.5151 10.4224 14.5502 10.3167 14.6208C10.2113 14.6913 10.1293 14.7831 10.0712 14.8962L9.77259 14.7173C9.8521 14.5581 9.97081 14.4273 10.1284 14.3248C10.2858 14.2223 10.4732 14.1708 10.6908 14.1708C10.9786 14.1708 11.2103 14.246 11.3863 14.3958C11.5623 14.546 11.6504 14.7538 11.6504 15.0201V16.5766H11.3426L11.2737 16.2185C11.1974 16.3349 11.0909 16.4296 10.9547 16.5031C10.8185 16.5766 10.6677 16.6132 10.5025 16.6132C10.3591 16.613 10.2273 16.5847 10.108 16.5281ZM10.9046 16.1861C11.0132 16.1309 11.1003 16.0491 11.1662 15.9405C11.232 15.8319 11.265 15.7041 11.265 15.5571V15.4653H10.769C10.558 15.4653 10.3964 15.5036 10.2848 15.58C10.1727 15.6566 10.1171 15.7605 10.1171 15.8922C10.1171 16.0116 10.1569 16.1044 10.2365 16.1699C10.316 16.2358 10.4233 16.2688 10.558 16.2688C10.6803 16.2689 10.796 16.2413 10.9046 16.1861Z" fill="#004997"/>
<path d="M12.2065 14.2075H12.5922V14.6529C12.6595 14.5061 12.7628 14.3889 12.9022 14.3018C13.0413 14.2144 13.1936 14.1708 13.3588 14.1708C13.5946 14.1708 13.7813 14.2406 13.919 14.3798C14.0566 14.5192 14.1257 14.7127 14.1257 14.9606V16.5766H13.7401V15.0339C13.7401 14.8716 13.7003 14.7471 13.6207 14.6597C13.5409 14.5726 13.4247 14.5289 13.2716 14.5289C13.14 14.5289 13.0222 14.5694 12.9182 14.6505C12.814 14.7318 12.7337 14.8472 12.6771 14.9971C12.6205 15.1471 12.5922 15.3217 12.5922 15.5206V16.5764H12.2065V14.2075Z" fill="#004997"/>
<path d="M15.1048 15.2175L16.0186 14.2075H16.5003L15.5181 15.2955L16.5695 16.5764H16.0919L15.1048 15.3733V16.5764H14.7191V13.3259H15.1048V15.2175Z" fill="#004997"/>
</g>
<defs>
<clipPath id="clip0_13183_9039">
<rect width="21" height="14.7" fill="white" transform="translate(5.5 4.64999)"/>
</clipPath>
</defs>
</svg>
