<svg width="32" height="24" viewBox="0 0 32 24" fill="none" xmlns="http://www.w3.org/2000/svg">
<rect width="32" height="24" rx="4" fill="black"/>
<rect x="0.5" y="0.5" width="31" height="23" rx="3.5" stroke="white" stroke-opacity="0.01"/>
<g clip-path="url(#clip0_13202_9327)">
<path d="M22.3268 8.32854C21.024 8.32854 19.821 9.01799 19.1649 10.1401C19.84 11.2908 19.84 12.7125 19.1649 13.8632C20.1919 15.6082 22.4409 16.193 24.1907 15.166C25.9357 14.1389 26.5206 11.8899 25.4935 10.1401C24.8326 9.01799 23.6296 8.32854 22.3268 8.32854Z" fill="#243887"/>
<path d="M19.1649 10.1354C18.1378 8.3856 15.8888 7.80551 14.139 8.83255C13.6017 9.15113 13.1548 9.59808 12.8362 10.1354C13.5114 11.286 13.5114 12.7077 12.8362 13.8584C13.8632 15.6082 16.1123 16.1883 17.862 15.1612C18.3993 14.8426 18.851 14.3957 19.1649 13.8584C18.4897 12.7125 18.4897 11.286 19.1649 10.1354Z" fill="#0968B2"/>
<path d="M12.8362 10.1354C11.8092 8.3856 9.56013 7.80551 7.81036 8.83255C6.06059 9.85959 5.4805 12.1086 6.50754 13.8584C7.53458 15.6082 9.78361 16.1883 11.5334 15.1612C12.0707 14.8426 12.5224 14.3957 12.8362 13.8584C12.161 12.7125 12.161 11.286 12.8362 10.1354Z" fill="#37BDED"/>
<path d="M12.8362 10.1354C13.5114 11.286 13.5114 12.7077 12.8362 13.8584C12.161 12.7125 12.161 11.286 12.8362 10.1354Z" fill="#025D9E"/>
<path d="M12.8362 13.8584C12.161 12.7077 12.161 11.286 12.8362 10.1354C13.5114 11.286 13.5114 12.7125 12.8362 13.8584ZM12.8362 10.1401C12.161 11.286 12.161 12.7125 12.8362 13.8584C13.5114 12.7125 13.5114 11.286 12.8362 10.1401Z" fill="#5E5E5E"/>
<path d="M19.1649 13.8584C19.84 12.7077 19.84 11.286 19.1649 10.1354C18.4897 11.286 18.4897 12.7125 19.1649 13.8584Z" fill="#1D335A"/>
<path d="M11.0531 10.7155H9.98331V13.9868H9.24632V10.7155H8.20026V10.045H11.0484L11.0531 10.7155Z" fill="white"/>
<path d="M21.0525 10.045H22.4314C22.9544 10.0498 23.0971 10.0545 23.2873 10.1116C23.7961 10.2733 24.0766 10.8153 23.9149 11.3241C23.8911 11.4002 23.8531 11.4762 23.8103 11.5476C23.6914 11.7045 23.5155 11.8043 23.3206 11.8328C23.8151 11.9184 24.1669 12.3654 24.1336 12.8694C24.1669 13.3211 23.8864 13.7395 23.4585 13.8917C23.2065 13.982 23.0115 13.9868 22.5646 13.9868H21.0525V10.045ZM21.78 10.6489V11.6331H22.0082C22.2127 11.6331 22.3649 11.6331 22.4552 11.6284C22.6264 11.6427 22.7975 11.6141 22.9592 11.5523C23.1827 11.4477 23.2825 11.1862 23.1827 10.958C23.1446 10.8724 23.0781 10.801 22.9925 10.7535C22.8356 10.6632 22.7595 10.6584 22.2222 10.6536H21.78V10.6489ZM21.78 12.1847V13.3496H22.4837C22.9212 13.3496 23.0353 13.3496 23.2255 13.2165C23.3443 13.1166 23.4109 12.9597 23.4062 12.8028C23.4062 12.6982 23.3824 12.5984 23.3348 12.508C23.1542 12.1895 22.7452 12.1847 22.4932 12.1847H21.78Z" fill="white"/>
<path d="M16.3785 11.6522L15.9744 11.5618C15.6178 11.4953 15.2564 11.4287 15.2564 11.0958C15.2564 10.7963 15.5988 10.6204 15.9934 10.6204C16.3976 10.6109 16.7779 10.8201 16.9872 11.1719L17.5672 10.706C17.2154 10.2162 16.6401 9.93567 16.0362 9.95945C15.1185 9.95945 14.4909 10.4349 14.4909 11.1767C14.4814 11.6046 14.7476 11.9898 15.1518 12.1324C15.3135 12.1895 15.4751 12.237 15.6463 12.2703L16.117 12.3701C16.2692 12.3987 16.4213 12.4415 16.5735 12.4938C16.7494 12.5413 16.8683 12.6982 16.8683 12.8789C16.8683 13.0834 16.7352 13.2688 16.5354 13.3259C16.4023 13.3734 16.2597 13.3972 16.1123 13.3924C15.3277 13.3924 15.0234 12.9883 14.9141 12.8218L14.3197 13.2783C14.5527 13.6207 14.8998 13.8679 15.2992 13.9725C15.5274 14.0343 15.7604 14.0629 15.9982 14.0629C16.8302 14.0629 17.6576 13.7015 17.6576 12.8076C17.6481 11.9802 16.9063 11.7615 16.3785 11.6522Z" fill="white"/>
</g>
<defs>
<clipPath id="clip0_13202_9327">
<rect width="20" height="8" fill="white" transform="translate(6 8)"/>
</clipPath>
</defs>
</svg>
