<svg width="32" height="24" viewBox="0 0 32 24" fill="none" xmlns="http://www.w3.org/2000/svg">
<rect x="0.5" y="0.5" width="31" height="23" rx="3.5" fill="white"/>
<rect x="0.5" y="0.5" width="31" height="23" rx="3.5" stroke="#DBD9D7"/>
<path fill-rule="evenodd" clip-rule="evenodd" d="M13.8635 12.706H12.862V12.313C12.862 11.8018 13.154 11.6556 13.406 11.6556C13.684 11.6556 13.9005 11.7789 13.9005 11.7789L14.2415 10.9997C14.2415 10.9997 13.8958 10.7737 13.2675 10.7737C12.5611 10.7737 11.7574 11.172 11.7574 12.4218V12.706H10.0807V12.313C10.0807 11.8018 10.3727 11.6556 10.6242 11.6556C10.7673 11.6556 10.9599 11.6889 11.1192 11.7789L11.4602 10.9997C11.2566 10.8799 10.9297 10.7737 10.4862 10.7737C9.77983 10.7737 8.9761 11.172 8.9761 12.4218V12.706H8.33478V13.5587H8.9761V16.5711H10.0807V13.5587H11.7574V16.5711H12.862V13.5587H13.8635V12.706ZM5.79881 15.8776C5.50834 15.8776 5.36363 15.735 5.36363 15.4992C5.36363 15.063 5.8519 14.9136 6.74309 14.8193C6.74309 15.4029 6.34851 15.8776 5.79881 15.8776ZM6.18297 12.5924C5.54634 12.5924 4.8134 12.8928 4.4157 13.2098L4.77905 13.9745C5.09815 13.6825 5.61401 13.4331 6.07938 13.4331C6.52133 13.4331 6.76547 13.5809 6.76547 13.8782C6.76547 14.0791 6.60358 14.1801 6.29749 14.2197C5.15541 14.3685 4.25902 14.6835 4.25902 15.5642C4.25902 16.2623 4.75614 16.685 5.53281 16.685C6.08667 16.685 6.58015 16.3768 6.81492 15.9703V16.571H7.84769V14.0541C7.84769 13.0146 7.12517 12.5924 6.18297 12.5924ZM16.5545 12.706V16.5711H17.6601V14.7091C17.6601 13.8236 18.1958 13.5639 18.5695 13.5639C18.7153 13.5639 18.912 13.606 19.0422 13.7034L19.2436 12.6815C19.0729 12.6087 18.8944 12.5925 18.7481 12.5925C18.1796 12.5925 17.8225 12.8445 17.5867 13.3557V12.706H16.5545ZM23.1198 13.2714C23.3472 12.9383 23.784 12.5926 24.3686 12.5926C25.0749 12.5926 25.6595 13.0309 25.6595 13.8997V16.5712H24.5549V14.249C24.5549 13.7373 24.2468 13.5249 23.9547 13.5249C23.5893 13.5249 23.2239 13.8591 23.2239 14.5817V16.5712H22.1193V14.2568C22.1193 13.7295 21.8288 13.5249 21.5128 13.5249C21.1635 13.5249 20.7898 13.8669 20.7898 14.5817V16.5712H19.6836V12.7061H20.7492V13.2907C20.9361 12.9175 21.3405 12.5926 21.9251 12.5926C22.4607 12.5926 22.9084 12.8409 23.1198 13.2714ZM15.6266 16.5713H14.5231V12.7062H15.6266V16.5713Z" fill="#060809"/>
<path fill-rule="evenodd" clip-rule="evenodd" d="M20.9613 7.315C17.9775 7.315 15.318 9.38627 14.5632 12.0494H15.645C16.2753 10.0661 18.4153 8.32539 20.9613 8.32539C24.056 8.32539 26.7306 10.6814 26.7306 14.3492C26.7306 15.1727 26.6239 15.915 26.4219 16.5709H27.4713L27.4817 16.535C27.6535 15.8583 27.741 15.1233 27.741 14.3492C27.741 10.2587 24.7603 7.315 20.9613 7.315Z" fill="#0FA0EA"/>
</svg>
