<svg width="32" height="24" viewBox="0 0 32 24" fill="none" xmlns="http://www.w3.org/2000/svg">
<rect width="32" height="24" rx="4" fill="#F59100"/>
<rect x="0.5" y="0.5" width="31" height="23" rx="3.5" stroke="white" stroke-opacity="0.01"/>
<path d="M8 4.25V19.75H23.5V4.25H8Z" fill="#F59100"/>
<path d="M14.1442 11.9659C14.1442 12.775 13.9706 13.3857 13.0716 13.3857C12.0672 13.3857 11.9556 12.6634 11.9556 12.0744V7.5081L10.666 7.7933V12.2759C10.666 13.9809 11.8471 14.6381 13.0065 14.6381C14.5162 14.6381 15.4121 13.6771 15.4121 12.4743V7.5081L14.1225 7.7933V11.969H14.1442V11.9659Z" fill="white"/>
<path d="M18.6671 9.365C18.1432 9.365 17.6844 9.5169 17.269 9.8021V9.0798L16.0228 9.3867V16.2315L17.269 15.9463V14.1979C17.6627 14.4831 18.1432 14.635 18.6671 14.635C20.0652 14.635 21.1812 13.4539 21.1812 12.0124C21.1812 10.5709 20.0683 9.365 18.6671 9.365ZM18.602 13.4973C17.7712 13.4973 17.1822 12.7967 17.1822 11.9876C17.1822 11.1785 17.7929 10.4779 18.602 10.4779C19.4328 10.4779 20.0218 11.1785 20.0218 11.9876C20.0249 12.7967 19.4328 13.4973 18.602 13.4973Z" fill="white"/>
</svg>
