<svg width="32" height="24" viewBox="0 0 32 24" fill="none" xmlns="http://www.w3.org/2000/svg">
<rect width="32" height="24" rx="4" fill="#10298E"/>
<rect x="0.5" y="0.5" width="31" height="23" rx="3.5" stroke="white" stroke-opacity="0.01"/>
<path fill-rule="evenodd" clip-rule="evenodd" d="M18.0026 12.0574H18.9531C19.2544 12.0462 19.4377 12.0224 19.5037 11.9849C19.5938 11.9339 19.6542 11.8316 19.6843 11.6782C19.7036 11.5761 19.7132 11.4244 19.7132 11.2227C19.7132 10.9758 19.6941 10.7927 19.6557 10.6731C19.6008 10.5056 19.4695 10.4036 19.2615 10.3665C19.2204 10.3609 19.1219 10.358 18.9659 10.358H18.0026V12.0574ZM16.478 14.92V9.07999H19.3184C19.708 9.07999 20.0053 9.11279 20.2095 9.17833C20.6767 9.32924 20.9902 9.63821 21.1507 10.1052C21.2336 10.3503 21.275 10.7192 21.275 11.2119C21.275 11.8043 21.229 12.23 21.1381 12.4892C20.9559 13.0017 20.5809 13.297 20.0146 13.3735C19.948 13.385 19.6647 13.3952 19.1646 13.4034L18.9115 13.4122H18.0026V14.92H16.478ZM10.241 10.9429H8.82273C8.82273 10.7029 8.79538 10.5419 8.74095 10.4599C8.65656 10.3386 8.42359 10.2779 8.04232 10.2779C7.67204 10.2779 7.42656 10.3128 7.30678 10.3828C7.18706 10.4529 7.12714 10.6054 7.12714 10.8403C7.12714 11.0529 7.18019 11.1929 7.28657 11.26C7.36279 11.3076 7.46347 11.3356 7.58902 11.344L7.87505 11.3648C8.48805 11.4067 8.87091 11.4363 9.02361 11.4531C9.50838 11.5035 9.85983 11.6364 10.0779 11.8518C10.2495 12.0198 10.3518 12.2394 10.3845 12.5107C10.4036 12.6729 10.413 12.8565 10.413 13.0605C10.413 13.5306 10.3695 13.8749 10.2824 14.0932C10.1245 14.4935 9.76973 14.7464 9.21775 14.8526C8.9865 14.8975 8.63271 14.92 8.15688 14.92C7.36258 14.92 6.80902 14.8712 6.49647 14.7732C6.11286 14.6532 5.85996 14.4101 5.73757 14.0439C5.66939 13.8401 5.63565 13.5006 5.63565 13.0255H7.05395L7.05409 13.1469C7.05409 13.4005 7.1248 13.5636 7.26589 13.6362C7.36368 13.6863 7.48175 13.7126 7.62057 13.7157H8.14197C8.40806 13.7157 8.57787 13.7016 8.65113 13.6734C8.7815 13.6206 8.86706 13.5355 8.90795 13.4177C8.92966 13.3453 8.94045 13.2515 8.94045 13.1367C8.94045 12.8796 8.8494 12.7231 8.66763 12.667C8.59966 12.6448 8.2834 12.614 7.71891 12.5748C7.26561 12.5414 6.95073 12.5093 6.77438 12.4782C6.31003 12.3887 6.00057 12.2045 5.84615 11.9249C5.71042 11.6874 5.64252 11.328 5.64252 10.8472C5.64252 10.481 5.67922 10.1874 5.75255 9.96659C5.82594 9.74568 5.94422 9.57797 6.10743 9.46327C6.34652 9.28721 6.65247 9.18384 7.02488 9.15295C7.33475 9.1251 7.6785 9.11086 8.05661 9.11086C8.65189 9.11086 9.07611 9.14615 9.32901 9.21607C9.94621 9.38704 10.2548 9.86591 10.2548 10.6528C10.2548 10.7174 10.2502 10.8139 10.241 10.9429ZM23.5121 10.2414L24.2264 12.773H22.8189L23.5121 10.2414ZM22.4909 13.9107H24.5293L24.8201 14.92H26.3643L24.6414 9.07999H22.3417L20.6397 14.92H22.2171L22.4909 13.9107Z" fill="white"/>
<path fill-rule="evenodd" clip-rule="evenodd" d="M14.3738 9.90163C15.0026 9.90163 15.5638 10.2003 15.9327 10.668L16.2613 9.94159C15.7473 9.44075 15.0478 9.13199 14.2763 9.13199C13.075 9.13199 12.0474 9.87995 11.6256 10.9387H10.9848L10.6064 11.775H11.4308C11.4246 11.8526 11.4206 11.9303 11.4206 12.0095C11.4206 12.1053 11.4255 12.2001 11.4347 12.2937H11.0203L10.642 13.1302H11.6453C12.0791 14.1622 13.0938 14.8868 14.2763 14.8868C14.8722 14.8868 15.4251 14.7027 15.8829 14.3883V13.363C15.5142 13.7957 14.975 14.0692 14.3738 14.0692C13.671 14.0692 13.0529 13.6956 12.6929 13.1302H14.7938L15.1721 12.2937H12.3838C12.3694 12.193 12.3617 12.0901 12.3617 11.9853C12.3617 11.9145 12.3653 11.8443 12.3719 11.775H15.4066L15.7849 10.9387H12.6344C12.9828 10.3188 13.6312 9.90163 14.3738 9.90163Z" fill="#FFBE00"/>
</svg>
