<svg width="32" height="24" viewBox="0 0 32 24" fill="none" xmlns="http://www.w3.org/2000/svg">
<path d="M0 2.66667C0 1.19391 1.19391 0 2.66667 0V0V24V24C1.19391 24 0 22.8061 0 21.3333V2.66667Z" fill="#238647"/>
<path d="M2.66667 0H5.33335V24H2.66667V0Z" fill="#2F9B47"/>
<path d="M5.33335 0H8V24H5.33335V0Z" fill="#62B64F"/>
<path d="M8 0H10.6667V24H8V0Z" fill="#89CC53"/>
<path d="M10.6667 0H13.3333V24H10.6667V0Z" fill="#3DB8AD"/>
<path d="M13.3333 0H16V24H13.3333V0Z" fill="#3394D7"/>
<path d="M16 0H18.6667V24H16V0Z" fill="#2872BC"/>
<path d="M18.6667 0H21.3333V24H18.6667V0Z" fill="#1D5C84"/>
<path d="M21.3333 0H24V24H21.3333V0Z" fill="#993233"/>
<path d="M24 0H26.6667V24H24V0Z" fill="#E13030"/>
<path d="M26.6667 0H29.3334V24H26.6667V0Z" fill="#F28825"/>
<path d="M29.3334 0V0C30.8061 0 32 1.1939 32 2.66665V21.3334C32 22.8061 30.8061 24 29.3334 24V24V0Z" fill="#F5C836"/>
<path fill-rule="evenodd" clip-rule="evenodd" d="M14.4008 9.46693H15.4675V12.2669C15.4675 13.5915 14.392 14.6669 13.0675 14.6669C11.7429 14.6669 10.6675 13.5915 10.6675 12.2669V9.46693H11.7341V12.2669C11.7341 13.0764 12.3316 13.7336 13.0675 13.7336C13.8033 13.7336 14.4008 13.0764 14.4008 12.2669V9.46693Z" fill="white"/>
<path fill-rule="evenodd" clip-rule="evenodd" d="M20.2735 14.5336H21.3401V11.7336C21.3401 10.4091 20.2647 9.3336 18.9402 9.3336C17.6156 9.3336 16.5402 10.4091 16.5402 11.7336V14.5336H17.6068V11.7336C17.6068 10.9241 18.2043 10.2669 18.9402 10.2669C19.676 10.2669 20.2735 10.9241 20.2735 11.7336V14.5336Z" fill="white"/>
<path fill-rule="evenodd" clip-rule="evenodd" d="M5.20019 14.5336H4.26686V12.1336H4.27086C4.2682 12.0895 4.26686 12.0449 4.26686 12.0003V7.20026H5.33352V9.86733C5.77885 9.53226 6.33352 9.33359 6.93351 9.33359C8.40551 9.33359 9.60017 10.5285 9.60017 12.0003C9.60017 13.472 8.40551 14.6669 6.93351 14.6669C6.29618 14.6669 5.71086 14.4428 5.25219 14.0692L5.20019 14.5336ZM6.86685 10.2669C7.78684 10.2669 8.53351 11.0436 8.53351 12.0003C8.53351 12.9569 7.78684 13.7336 6.86685 13.7336C5.94685 13.7336 5.20019 12.9569 5.20019 12.0003C5.20019 11.0436 5.94685 10.2669 6.86685 10.2669Z" fill="white"/>
<path fill-rule="evenodd" clip-rule="evenodd" d="M26.8013 9.46694H27.7346V11.8669H27.7306C27.7333 11.9111 27.7346 11.9556 27.7346 12.0003V16.8003H26.6679V14.1332C26.2226 14.4683 25.6679 14.6669 25.0679 14.6669C23.596 14.6669 22.4013 13.472 22.4013 12.0003C22.4013 10.5285 23.596 9.3336 25.0679 9.3336C25.7053 9.3336 26.2906 9.55774 26.7493 9.93134L26.8013 9.46694ZM25.1346 13.7336C24.2146 13.7336 23.468 12.9569 23.468 12.0003C23.468 11.0436 24.2146 10.2669 25.1346 10.2669C26.0546 10.2669 26.8013 11.0436 26.8013 12.0003C26.8013 12.9569 26.0546 13.7336 25.1346 13.7336Z" fill="white"/>
</svg>
