<svg width="32" height="24" viewBox="0 0 32 24" fill="none" xmlns="http://www.w3.org/2000/svg">
<rect x="0.5" y="0.5" width="31" height="23" rx="3.5" fill="white"/>
<rect x="0.5" y="0.5" width="31" height="23" rx="3.5" stroke="#DBD9D7"/>
<path fill-rule="evenodd" clip-rule="evenodd" d="M22.91 8.09931C25.0644 11.9158 23.7172 16.7561 19.9009 18.9104C16.0846 21.0647 11.2443 19.7172 9.08994 15.9007C6.93554 12.0842 8.28279 7.24391 12.0991 5.08962C15.9154 2.93532 20.7556 4.28281 22.91 8.09931ZM16.2108 8.49542C17.3583 8.28292 18.3405 8.38028 18.7218 9.37801C19.0018 10.1082 18.811 10.6455 18.3774 11.0406C19.2606 11.0093 19.873 11.5502 20.1156 12.4854C20.3653 13.8873 19.4445 14.537 18.0078 15.0255L18.4024 16.4613L17.5343 16.7018L17.1449 15.2853C16.9199 15.3479 16.6887 15.4095 16.4495 15.471L16.8411 16.8943L15.9739 17.1343L15.5773 15.6962L13.8264 16.1763L13.7144 15.0944C13.7144 15.0944 14.3594 14.9257 14.3455 14.9193C14.591 14.8508 14.6079 14.6567 14.5932 14.5425L13.5207 10.6464C13.4392 10.4799 13.2686 10.3084 12.9168 10.4056C12.9239 10.3907 12.2865 10.5808 12.2865 10.5808L12.0317 9.65632L13.7811 9.16845L13.39 7.74609L14.2577 7.50585L14.6414 8.89991C14.8722 8.83057 15.1044 8.7616 15.3324 8.69841L14.9509 7.31335L15.819 7.07287L16.2108 8.49542ZM15.5627 11.6022C16.1588 11.447 17.4561 11.1092 17.21 10.2138C16.9576 9.29795 15.7245 9.67441 15.1207 9.85873C15.0523 9.87961 14.992 9.89803 14.9421 9.91183L15.4181 11.6406C15.4592 11.6292 15.508 11.6165 15.5627 11.6022ZM16.3519 14.3728C17.0653 14.1858 18.6257 13.7768 18.3539 12.7905C18.0762 11.7818 16.593 12.2309 15.8694 12.45C15.7885 12.4745 15.7171 12.4961 15.658 12.5125L16.1822 14.418C16.2307 14.4046 16.2879 14.3896 16.3519 14.3728Z" fill="#8FC258"/>
</svg>
