<svg width="32" height="24" viewBox="0 0 32 24" fill="none" xmlns="http://www.w3.org/2000/svg">
<rect width="32" height="24" rx="4" fill="#0F3365"/>
<rect x="0.5" y="0.5" width="31" height="23" rx="3.5" stroke="white" stroke-opacity="0.01"/>
<path fill-rule="evenodd" clip-rule="evenodd" d="M16.4893 7.70276H5.13015C4.52732 7.70375 4.03958 8.14827 4.03841 8.6976V15.3025C4.03958 15.8516 4.52732 16.2963 5.13015 16.2973H16.4893V7.70276Z" fill="white"/>
<path fill-rule="evenodd" clip-rule="evenodd" d="M5.13016 7.70271C4.52732 7.7037 4.03958 8.14822 4.03841 8.69756V8.69761V15.3024V15.3025C4.03842 15.3068 4.03846 15.311 4.03852 15.3153C4.03905 15.3483 4.04134 15.381 4.04532 15.4132C4.10661 15.9102 4.5684 16.2963 5.13016 16.2973H16.4893V16.2973V7.70277V7.70271H5.13016ZM5.13015 6.95999H26.8699C27.923 6.96016 28.7762 7.73755 28.7766 8.6976V15.3025C28.7762 16.2622 27.923 17.0397 26.8699 17.04H5.13015C4.07692 17.0397 3.22376 16.2622 3.2234 15.3025V8.6976C3.22376 7.73755 4.07692 6.96016 5.13015 6.95999Z" fill="#0F3365"/>
<path fill-rule="evenodd" clip-rule="evenodd" d="M18.3483 14.222H17.3947V10.692H18.2743V11.1459H18.2849C18.4756 10.7934 18.8784 10.634 19.313 10.634C20.0761 10.634 20.4944 11.2957 20.4944 11.904C20.4944 12.6477 20.0546 13.2659 19.2333 13.2659C18.8996 13.2659 18.5392 13.155 18.359 12.8556H18.3483V14.222ZM18.9315 12.5995C19.2916 12.5995 19.5089 12.3244 19.5089 11.9234C19.5089 11.5901 19.3023 11.3005 18.9315 11.3005C18.5816 11.3005 18.3483 11.5806 18.3483 11.9572C18.3483 12.3244 18.6135 12.5995 18.9315 12.5995ZM24.1488 14.2221C24.345 14.2608 24.5409 14.2802 24.7424 14.2802C25.5673 14.2802 25.7978 13.7342 26.048 13.1417C26.063 13.106 26.0781 13.0702 26.0934 13.0344L27.1057 10.692H26.1519L25.5848 12.3338H25.5742L24.9807 10.692H23.9531L25.0706 13.2659C25.0022 13.488 24.8219 13.6137 24.5891 13.6137C24.4562 13.6137 24.3396 13.5994 24.2127 13.5604L24.1488 14.2221ZM23.7934 13.2898C23.7511 13.0918 23.7402 12.894 23.7402 12.6958V11.759C23.7402 10.9912 23.131 10.716 22.4262 10.716C22.0181 10.716 21.6631 10.7689 21.324 10.8947L21.3397 11.4838C21.6049 11.3487 21.9122 11.2955 22.2193 11.2955C22.5639 11.2955 22.8449 11.3872 22.8501 11.7302C22.7282 11.7107 22.5588 11.6961 22.4051 11.6961C21.8964 11.6961 20.9797 11.7881 20.9797 12.5559C20.9797 13.1018 21.4672 13.348 22.013 13.348C22.4051 13.348 22.6701 13.2078 22.8872 12.894H22.8975C22.8975 12.9705 22.9031 13.0471 22.9088 13.1246L22.9088 13.1247C22.9128 13.1792 22.9168 13.2341 22.9189 13.2898H23.7934ZM21.8697 12.4932C21.8697 12.2518 22.124 12.16 22.4473 12.16C22.5487 12.16 22.6473 12.1648 22.7395 12.1694L22.7396 12.1694L22.7396 12.1694C22.7776 12.1712 22.8145 12.173 22.8501 12.1744C22.8501 12.4689 22.6224 12.7687 22.2618 12.7687C22.0393 12.7687 21.8697 12.6668 21.8697 12.4932Z" fill="#FFFFFE"/>
<path fill-rule="evenodd" clip-rule="evenodd" d="M9.10562 13.2078H10.0594V10.6919H9.10562V13.2078ZM9.10562 10.2814H10.0594V9.64398H9.10562V10.2814ZM12.392 10.634C12.5031 10.634 12.6197 10.6485 12.7151 10.6628L12.6673 11.3872C12.5615 11.3583 12.4554 11.3583 12.3443 11.3583C11.8992 11.3583 11.65 11.6529 11.65 12.1456V13.2078H10.6963V10.692H11.5653V11.1554H11.5758C11.7402 10.8369 11.9787 10.634 12.392 10.634ZM15.9627 11.9525C15.9627 12.7831 15.2685 13.2659 14.3573 13.2659C13.446 13.2659 12.7518 12.7831 12.7518 11.9525C12.7518 11.1168 13.446 10.634 14.3573 10.634C15.2685 10.634 15.9627 11.1168 15.9627 11.9525ZM13.7373 11.9525C13.7373 12.3244 13.9175 12.6574 14.3573 12.6574C14.7971 12.6574 14.9773 12.3244 14.9773 11.9525C14.9773 11.5758 14.7971 11.2425 14.3573 11.2425C13.9175 11.2425 13.7373 11.5758 13.7373 11.9525ZM7.5836 10.692H8.44749V12.9135C8.44749 13.9468 7.89643 14.2801 6.78366 14.2801C6.32804 14.2801 5.9518 14.193 5.72917 14.1209L5.77698 13.435C6.06834 13.5654 6.31207 13.6426 6.70952 13.6426C7.26067 13.6426 7.55726 13.4061 7.55726 12.9135V12.778H7.54653C7.31885 13.0729 7.00097 13.2078 6.61949 13.2078C5.86168 13.2078 5.39009 12.6867 5.39009 11.9427C5.39009 11.1941 5.77698 10.634 6.63528 10.634C7.04318 10.634 7.3718 10.8369 7.57323 11.1458H7.5836V10.692ZM6.91621 11.3005C6.56116 11.3005 6.3757 11.5854 6.3757 11.9282C6.3757 12.3192 6.63008 12.5416 6.91621 12.5416C7.2552 12.5416 7.52554 12.2809 7.52554 11.8943C7.52554 11.6141 7.34531 11.3005 6.91621 11.3005Z" fill="#D8232A"/>
<path d="M3.2234 15.3025V8.6976V15.3025ZM3.2234 15.3025C3.22376 16.2622 4.07692 17.0397 5.13015 17.04L3.2234 15.3025ZM5.13015 6.85999H5.13014C4.03062 6.86016 3.12379 7.67379 3.1234 8.69756V8.6976L3.1234 15.3025L3.1234 15.3025C3.12379 16.326 4.03063 17.1396 5.13012 17.14H5.13015H26.8699H26.8699C27.9693 17.1396 28.8762 16.326 28.8766 15.3025V15.3025V8.6976V8.69756C28.8762 7.67378 27.9693 6.86016 26.8699 6.85999H5.13015Z" stroke="white" stroke-width="0.2"/>
</svg>
