<svg width="32" height="24" viewBox="0 0 32 24" fill="none" xmlns="http://www.w3.org/2000/svg">
<rect width="32" height="24" rx="4" fill="#001920"/>
<path d="M7 12C7 16.9706 11.0294 21 16 21C20.9706 21 25 16.9706 25 12C25 7.02944 20.9706 3 16 3C11.0294 3 7 7.02944 7 12Z" fill="#001920"/>
<path d="M16.5824 17.1618C16.9265 14.303 18.5147 12.6618 21.2941 12.1059C21.2941 11.7618 21.2941 11.4177 21.2941 11.0471C19.7324 10.8088 18.1971 10.9412 16.6353 11.2853C16.6353 9.75002 16.6353 8.29414 16.6353 6.83826C16.1853 6.83826 15.7882 6.83826 15.4176 6.83826C15.0735 9.67061 13.5118 11.3383 10.7324 11.8941C10.7324 12.2383 10.7324 12.5824 10.7324 12.953C12.2941 13.1912 13.8294 13.0588 15.3912 12.7147C15.3912 14.25 15.3912 15.7059 15.3912 17.1618C15.8147 17.1618 16.1853 17.1618 16.5824 17.1618Z" fill="#80DAFF"/>
</svg>
