<svg width="32" height="24" viewBox="0 0 32 24" fill="none" xmlns="http://www.w3.org/2000/svg">
<rect width="32" height="24" rx="4" fill="black"/>
<rect x="0.5" y="0.5" width="31" height="23" rx="3.5" stroke="white" stroke-opacity="0.01"/>
<path fill-rule="evenodd" clip-rule="evenodd" d="M9.75603 8.87554C9.52538 9.15995 9.15634 9.38427 8.78731 9.35222C8.74118 8.96767 8.92185 8.55909 9.13328 8.30673C9.36393 8.01431 9.76756 7.80602 10.0943 7.78999C10.1328 8.19056 9.98283 8.58312 9.75603 8.87554ZM10.0904 9.42833C9.76532 9.40883 9.46867 9.53021 9.22906 9.62826C9.07486 9.69135 8.94428 9.74478 8.84494 9.74478C8.73346 9.74478 8.59749 9.68849 8.44483 9.6253C8.2448 9.54249 8.0161 9.44782 7.77628 9.45236C7.22657 9.46037 6.7153 9.78484 6.43468 10.3016C5.85806 11.335 6.28476 12.8652 6.84216 13.7064C7.11509 14.123 7.44184 14.5797 7.87238 14.5636C8.06179 14.5562 8.19804 14.4959 8.33905 14.4336C8.50139 14.3618 8.67003 14.2873 8.93336 14.2873C9.18755 14.2873 9.34882 14.3599 9.50362 14.4296C9.65082 14.4959 9.79218 14.5595 10.002 14.5556C10.4479 14.5476 10.7286 14.139 11.0015 13.7224C11.296 13.2753 11.4255 12.839 11.4451 12.7727L11.4474 12.7651C11.4469 12.7646 11.4433 12.7629 11.4369 12.7598C11.3384 12.7128 10.5859 12.3538 10.5786 11.3911C10.5714 10.5831 11.1756 10.1737 11.2707 10.1092C11.2764 10.1053 11.2804 10.1027 11.2821 10.1013C10.8977 9.50844 10.298 9.44435 10.0904 9.42833ZM13.1773 14.5116V8.26667H15.4261C16.587 8.26667 17.3981 9.09986 17.3981 10.3176C17.3981 11.5353 16.5717 12.3765 15.3954 12.3765H14.1076V14.5116H13.1773ZM14.1075 9.08383H15.18C15.9873 9.08383 16.4486 9.53246 16.4486 10.3216C16.4486 11.1107 15.9873 11.5634 15.1762 11.5634H14.1075V9.08383ZM20.4696 13.7625C20.2236 14.2512 19.6816 14.5596 19.0973 14.5596C18.2324 14.5596 17.6288 14.0229 17.6288 13.2137C17.6288 12.4126 18.2132 11.9519 19.2933 11.8838L20.4543 11.8117V11.4672C20.4543 10.9585 20.1352 10.6821 19.5663 10.6821C19.0973 10.6821 18.7552 10.9345 18.686 11.319H17.848C17.8749 10.5099 18.6053 9.92103 19.5932 9.92103C20.658 9.92103 21.35 10.5019 21.35 11.4031V14.5116H20.4889V13.7625H20.4696ZM19.3471 13.8186C18.8512 13.8186 18.536 13.5702 18.536 13.1897C18.536 12.7971 18.8397 12.5688 19.4201 12.5328L20.4542 12.4647V12.8172C20.4542 13.402 19.9775 13.8186 19.3471 13.8186ZM24.2061 14.7559C23.8332 15.8495 23.4065 16.21 22.4993 16.21C22.4301 16.21 22.1995 16.202 22.1456 16.186V15.4369C22.2033 15.4449 22.3455 15.4529 22.4186 15.4529C22.8299 15.4529 23.0605 15.2727 23.2028 14.804L23.2873 14.5276L21.7113 9.98112H22.6838L23.7794 13.6704H23.7986L24.8942 9.98112H25.8398L24.2061 14.7559Z" fill="white"/>
</svg>
