<svg width="32" height="24" viewBox="0 0 32 24" fill="none" xmlns="http://www.w3.org/2000/svg">
<rect width="32" height="24" rx="4" fill="#FF000C"/>
<path d="M17.1742 14.0564L22.8022 8.4865V6.90144L15.6593 14.0466L17.1742 14.0564Z" fill="white"/>
<path d="M15.5637 14.1206H15.4706L22.8824 6.70886L22.872 8.51366L17.2053 14.1206H15.5637Z" fill="white"/>
<path d="M20.0376 15.1318V17.1186H22.7011C23.2662 17.1186 23.7226 16.6689 23.7226 16.1122C23.7226 15.5554 23.2662 15.1033 22.7011 15.1033L20.0376 15.1318ZM20.0376 18.3511H19.7985H18.8084V15.5197C17.6541 17.2257 15.6837 18.3511 13.4451 18.3511C9.8857 18.3511 7 15.5078 7 12.0006C7 8.49338 9.8857 5.65002 13.4451 5.65002C16.0435 5.65002 18.2844 7.16569 19.3035 9.35234L18.2047 10.4873C17.5551 8.50528 15.6692 7.07289 13.4451 7.07289C10.6826 7.07289 8.44406 9.27858 8.44406 12.0006C8.44406 14.7226 10.6826 16.9283 13.4451 16.9283C15.5436 16.9283 17.3426 15.6529 18.084 13.847H18.8133H19.6126H22.6987C23.2638 13.847 23.7202 13.3973 23.7202 12.8405C23.7202 12.2837 23.2638 11.8316 22.6987 11.8316H20.4819L21.7593 10.573H22.6987C23.9689 10.573 25 11.5866 25 12.8405C25 13.4853 24.7271 14.0635 24.29 14.4799C24.7271 14.8915 25 15.4721 25 16.1169C25 17.3685 23.9834 18.3559 22.7132 18.3559H20.0376V18.3511Z" fill="white"/>
</svg>
