<svg width="32" height="24" viewBox="0 0 32 24" fill="none" xmlns="http://www.w3.org/2000/svg">
<rect x="0.5" y="0.5" width="31" height="23" rx="3.5" fill="white"/>
<rect x="0.5" y="0.5" width="31" height="23" rx="3.5" stroke="#DBD9D7"/>
<path d="M24.2019 11.9996C24.2019 16.5269 20.5394 20.1894 16.0122 20.1894C11.4849 20.1894 7.82244 16.5269 7.82244 11.9996C7.82244 7.47241 11.4849 3.80993 16.0122 3.80993C20.5224 3.80993 24.2019 7.47241 24.2019 11.9996Z" fill="white"/>
<path d="M15.9952 20.2233C20.537 20.2233 24.2188 16.5414 24.2188 11.9996C24.2188 7.45786 20.537 3.77601 15.9952 3.77601C11.4534 3.77601 7.77158 7.45786 7.77158 11.9996C7.77158 16.5414 11.4534 20.2233 15.9952 20.2233Z" fill="white"/>
<path d="M15.9952 11.9996L19.0473 10.304L23.9136 14.2717L15.9952 11.9996Z" fill="url(#paint0_linear_16573_1020)"/>
<path d="M19.0473 10.304L23.9136 14.2717L23.4219 14.0174L19.0473 10.4397L19.0473 10.304Z" fill="#E53121"/>
<path d="M15.9952 11.9996L19.0473 10.304L19.0303 10.4397L16.2665 11.9657L15.9952 11.9996Z" fill="#F08465"/>
<path d="M23.9136 14.2717L15.9952 11.9996L16.2835 11.9657L23.4219 14.0174L23.9136 14.2717Z" fill="#B82B18"/>
<path d="M15.9952 11.9996L19.0473 10.304L18.2673 4.08122L15.9952 11.9996Z" fill="#F5B0AC"/>
<path d="M18.2673 4.08122L15.9952 11.9996L16.1817 11.7792L18.2334 4.62381L18.2673 4.08122Z" fill="#D47785"/>
<path d="M19.0473 10.304L18.2673 4.08122L18.2334 4.62381L18.9455 10.2362L19.0473 10.304Z" fill="#D99E9B"/>
<path d="M15.9952 11.9996L19.0473 10.304L18.9286 10.2362L16.1648 11.7623L15.9952 11.9996Z" fill="#F9D1CD"/>
<path d="M17.6908 15.0517L13.7231 19.9181L13.9774 19.4263L17.5551 15.0348L17.6908 15.0517Z" fill="#F9F9FC"/>
<path d="M15.9952 11.9996L17.6908 15.0517L17.5551 15.0348L16.0291 12.2709L15.9952 11.9996Z" fill="#F3F2F9"/>
<path d="M13.7231 19.9181L15.9952 11.9996L16.0291 12.2879L13.9774 19.4263L13.7231 19.9181Z" fill="#DCDAEE"/>
<path d="M15.9952 11.9996L17.6908 15.0517L23.9136 14.2717L15.9952 11.9996Z" fill="#2B2B85"/>
<path d="M23.9136 14.2717L15.9952 11.9996L16.2156 12.1862L23.371 14.2378L23.9136 14.2717Z" fill="#484293"/>
<path d="M17.6908 15.0517L23.9136 14.2717L23.371 14.2378L17.7586 14.95L17.6908 15.0517Z" fill="#24236F"/>
<path d="M15.9952 11.9996L17.6908 15.0517L17.7586 14.933L16.2326 12.1692L15.9952 11.9996Z" fill="#8F88C0"/>
<path d="M15.9952 11.9996L12.9431 13.6952L8.07678 9.72754L15.9952 11.9996Z" fill="url(#paint1_linear_16573_1020)"/>
<path d="M12.9431 13.6952L8.07678 9.72754L8.5685 9.98188L12.9601 13.5596L12.9431 13.6952Z" fill="#BBB7DB"/>
<path d="M15.9952 11.9996L12.9431 13.6952L12.9601 13.5596L15.7239 12.0336L15.9952 11.9996Z" fill="#B0AAD4"/>
<path d="M8.07678 9.72754L15.9952 11.9996L15.7069 12.0335L8.5685 9.98188L8.07678 9.72754Z" fill="#D1CCE6"/>
<path d="M15.9952 11.9996L12.9431 13.6952L13.7231 19.9181L15.9952 11.9996Z" fill="#FFDD00"/>
<path d="M13.7231 19.9181L15.9952 11.9996L15.8087 12.2201L13.774 19.3755L13.7231 19.9181Z" fill="#DBBB85"/>
<path d="M12.9431 13.6952L13.7231 19.9181L13.757 19.3755L13.0449 13.7631L12.9431 13.6952Z" fill="#EBC536"/>
<path d="M15.9952 11.9996L12.9431 13.6952L13.0618 13.7631L15.8256 12.237L15.9952 11.9996Z" fill="#FFE167"/>
<path d="M15.9952 11.9996L14.2996 8.94757L18.2673 4.08122L15.9952 11.9996Z" fill="#E53121"/>
<path d="M14.2996 8.94757L18.2673 4.08122L18.0129 4.57294L14.4352 8.96452L14.2996 8.94757Z" fill="#EA583C"/>
<path d="M15.9952 11.9996L14.2996 8.94757L14.4352 8.96452L15.9613 11.7283L15.9952 11.9996Z" fill="#D42F1E"/>
<path d="M18.2673 4.08122L15.9952 11.9996L15.9613 11.7114L18.0129 4.57294L18.2673 4.08122Z" fill="#C22C1A"/>
<path d="M15.9952 11.9996L14.2996 8.94757L8.07678 9.72754L15.9952 11.9996Z" fill="#F3F2F9"/>
<path d="M8.07678 9.72754L15.9952 11.9996L15.7748 11.8131L8.61937 9.77841L8.07678 9.72754Z" fill="#F9F8FB"/>
<path d="M14.2996 8.94757L8.07678 9.72754L8.61937 9.76146L14.2318 9.04931L14.2996 8.94757Z" fill="#DCDAEE"/>
<path d="M15.9952 11.9996L14.2996 8.94757L14.2318 9.06626L15.7578 11.8301L15.9952 11.9996Z" fill="#F9F9FC"/>
<path d="M21.9298 6.28549C20.9124 5.23422 19.6577 4.48816 18.2673 4.08122L19.0473 10.304L21.9298 6.28549Z" fill="url(#paint2_linear_16573_1020)"/>
<path d="M18.2673 4.08122L19.0473 10.304L19.1151 10.0158L18.386 4.11513C18.3521 4.11513 18.3012 4.09817 18.2673 4.08122Z" fill="#8F88C0"/>
<path d="M21.845 6.20071L19.132 10.0158L19.0642 10.304L21.9298 6.26854C21.8959 6.25158 21.8789 6.21767 21.845 6.20071Z" fill="#A59FCE"/>
<path d="M21.9298 6.28549C20.9124 5.23422 19.6577 4.48816 18.2673 4.08122L18.4199 4.35251C19.6746 4.7425 20.7937 5.43769 21.7263 6.37027L21.9298 6.28549Z" fill="url(#paint3_linear_16573_1020)"/>
<path d="M19.0473 10.304L21.9128 6.26854C22.9132 7.30285 23.6254 8.5915 23.9814 9.99884L19.0473 10.304Z" fill="url(#paint4_linear_16573_1020)"/>
<path d="M21.9298 6.28549L19.0473 10.304L19.2677 10.1854L21.9976 6.37027C21.9806 6.33636 21.9467 6.30244 21.9298 6.28549Z" fill="#ED6F50"/>
<path d="M23.9645 9.8971L19.2846 10.1854L19.0642 10.304L23.9984 9.99884C23.9814 9.96493 23.9645 9.93101 23.9645 9.8971Z" fill="#A62714"/>
<path d="M23.7441 9.91406C23.4049 8.65932 22.7606 7.50632 21.8789 6.53983L21.9298 6.26854C22.9302 7.30285 23.6423 8.5915 23.9984 9.99884L23.7441 9.91406Z" fill="url(#paint5_linear_16573_1020)"/>
<path d="M19.0473 10.304L23.9814 9.99884C24.3206 11.3553 24.3206 12.8135 23.9136 14.2548L19.0473 10.304Z" fill="url(#paint6_linear_16573_1020)"/>
<path d="M23.9984 10.0158L19.0642 10.321L19.3525 10.4058L24.0323 10.1175C24.0154 10.0836 23.9984 10.0497 23.9984 10.0158Z" fill="#D1CEE8"/>
<path d="M23.9136 14.2717C23.9306 14.2378 23.9306 14.187 23.9475 14.153L19.3355 10.4058L19.0473 10.321L23.9136 14.2717Z" fill="#F3F2F9"/>
<path d="M23.761 14.0004C24.1001 12.6948 24.1001 11.3723 23.7949 10.1345L23.9984 10.0158C24.3375 11.3723 24.3375 12.8305 23.9306 14.2717L23.761 14.0004Z" fill="url(#paint7_linear_16573_1020)"/>
<path d="M10.281 6.08202C9.26369 7.0485 8.50067 8.28629 8.07678 9.72754L14.2996 8.94757L10.281 6.08202Z" fill="url(#paint8_linear_16573_1020)"/>
<path d="M8.07678 9.72754L14.2996 8.94757L14.0114 8.87975L8.11069 9.60885C8.11069 9.64277 8.09373 9.69363 8.07678 9.72754Z" fill="#FFCB00"/>
<path d="M10.1963 6.14984L14.0113 8.86279L14.2996 8.93061L10.281 6.08202C10.2471 6.09897 10.2302 6.13288 10.1963 6.14984Z" fill="#FFDD00"/>
<path d="M10.281 6.08202C9.22978 7.08242 8.48372 8.33716 8.07678 9.72754L8.34807 9.57494C8.73806 8.3202 9.43325 7.20111 10.3658 6.26853C10.3828 6.28549 10.281 6.08202 10.281 6.08202Z" fill="#FFF8C7"/>
<path d="M14.2996 8.94757L10.281 6.08202C11.3154 5.08162 12.604 4.36947 14.0114 4.01339L14.2996 8.94757Z" fill="url(#paint9_linear_16573_1020)"/>
<path d="M10.281 6.08202L14.3166 8.94757L14.1979 8.72714L10.3658 5.99724C10.3319 6.03115 10.298 6.0481 10.281 6.08202ZM13.8927 4.03035L14.1809 8.71019L14.2996 8.93061L14.0114 4.01339L13.8927 4.03035Z" fill="#E53121"/>
<path d="M13.9096 4.26773C12.6549 4.60685 11.5019 5.25118 10.5354 6.13289L10.2641 6.08202C11.2984 5.08162 12.5871 4.36947 13.9944 4.01339L13.9096 4.26773Z" fill="url(#paint10_linear_16573_1020)"/>
<path d="M14.2996 8.94757L14.0114 4.01339C15.3678 3.67428 16.826 3.67427 18.2673 4.08122L14.2996 8.94757Z" fill="url(#paint11_linear_16573_1020)"/>
<path d="M14.0114 4.01339L14.3166 8.94757L14.4013 8.65932L14.1131 3.97949C14.0792 3.99644 14.0453 3.99644 14.0114 4.01339Z" fill="#1E398E"/>
<path d="M18.2673 4.08122C18.2334 4.06426 18.1825 4.06427 18.1486 4.04731L14.4013 8.65932L14.3166 8.94757L18.2673 4.08122Z" fill="#2F2482"/>
<path d="M17.996 4.23382C16.6904 3.8947 15.3678 3.8947 14.1301 4.19991L14.0114 3.99644C15.3678 3.65732 16.826 3.65732 18.2673 4.06426L17.996 4.23382Z" fill="url(#paint12_linear_16573_1020)"/>
<path d="M10.0776 17.7307C11.078 18.7651 12.3497 19.5281 13.7401 19.9181L12.9601 13.6952L10.0776 17.7307Z" fill="#2B2B85"/>
<path d="M13.7231 19.9181L12.9431 13.6952L12.8753 13.9835L13.6214 19.8842C13.6553 19.9011 13.6892 19.9011 13.7231 19.9181Z" fill="#24236F"/>
<path d="M10.1454 17.7986L12.8583 13.9835L12.9262 13.6952L10.0776 17.7307L10.1454 17.7986Z" fill="#5B549F"/>
<path d="M10.0776 17.7307C11.078 18.7651 12.3497 19.5281 13.7401 19.9181L13.5875 19.6468C12.3327 19.2568 11.2136 18.5616 10.281 17.629L10.0776 17.7307Z" fill="url(#paint13_linear_16573_1020)"/>
<path d="M12.9431 13.6952L10.0776 17.7307C9.08102 16.6842 8.3689 15.4 8.00896 14.0004L12.9431 13.6952Z" fill="url(#paint14_linear_16573_1020)"/>
<path d="M10.0776 17.7307L12.9431 13.6952L12.7227 13.8139L9.99281 17.646C10.0267 17.6629 10.0437 17.6968 10.0776 17.7307Z" fill="#B0AAD4"/>
<path d="M8.02592 14.1022L12.7058 13.8139L12.9262 13.6952L8.00896 14.0004C8.00896 14.0344 8.02592 14.0683 8.02592 14.1022Z" fill="#DAD8ED"/>
<path d="M8.2633 14.0852C8.60242 15.34 9.24675 16.493 10.1285 17.4594L10.0776 17.7307C9.08102 16.6842 8.3689 15.4 8.00896 14.0004L8.2633 14.0852Z" fill="url(#paint15_linear_16573_1020)"/>
<path d="M12.9431 13.6952L8.00896 14.0004C7.66985 12.644 7.66984 11.1858 8.07679 9.7445L12.9431 13.6952Z" fill="#E53121"/>
<path d="M8.00896 14.0004L12.9431 13.6952L12.6549 13.6105L7.97504 13.8817C7.99199 13.9157 7.99201 13.9496 8.00896 14.0004Z" fill="#CA2D0A"/>
<path d="M8.07678 9.72754C8.05982 9.76146 8.05983 9.81232 8.04287 9.84624L12.6549 13.6105L12.9431 13.6952L8.07678 9.72754ZM8.22939 9.99884C7.89027 11.3044 7.89027 12.627 8.19548 13.8648L7.99201 13.9835C7.65289 12.5931 7.68679 11.1179 8.07678 9.72754L8.22939 9.99884Z" fill="#ED6F50"/>
<path d="M21.7263 17.9342C22.7606 16.9338 23.5236 15.6621 23.9136 14.2717L17.6908 15.0517L21.7263 17.9342Z" fill="url(#paint16_linear_16573_1020)"/>
<path d="M23.9136 14.2717L17.6908 15.0517L17.979 15.1195L23.8797 14.3735C23.8967 14.3565 23.8967 14.3056 23.9136 14.2717Z" fill="#7B73B3"/>
<path d="M21.7941 17.8494L17.979 15.1365L17.6908 15.0687L21.7263 17.9342C21.7433 17.9003 21.7772 17.8664 21.7941 17.8494Z" fill="#D1CEE8"/>
<path d="M21.7263 17.9342C22.7267 16.9677 23.5067 15.713 23.9136 14.2717L23.6423 14.4243C23.2523 15.6791 22.5571 16.7982 21.6246 17.7307L21.7263 17.9342Z" fill="#655EA5"/>
<path d="M17.6908 15.0517L21.7263 17.9173C20.692 18.9177 19.4033 19.6298 17.996 19.9859L17.6908 15.0517Z" fill="url(#paint17_linear_16573_1020)"/>
<path d="M21.7263 17.9342L17.6908 15.0517L17.8095 15.2721L21.6246 18.002C21.6585 17.9851 21.6924 17.9512 21.7263 17.9342ZM18.0977 19.9689L17.8095 15.2891L17.6908 15.0687L17.996 20.0028C18.0299 19.9859 18.0638 19.9689 18.0977 19.9689Z" fill="#E53121"/>
<path d="M18.0808 19.7485C19.3355 19.4094 20.4885 18.7651 21.455 17.8833L21.7263 17.9342C20.692 18.9346 19.4033 19.6468 17.996 20.0028L18.0808 19.7485Z" fill="url(#paint18_linear_16573_1020)"/>
<path d="M17.6908 15.0517L17.996 19.9859C16.6395 20.325 15.1813 20.325 13.7401 19.9181L17.6908 15.0517Z" fill="url(#paint19_linear_16573_1020)"/>
<path d="M17.996 19.9859L17.6908 15.0517L17.606 15.34L17.8943 20.0198C17.9112 20.0028 17.9621 20.0028 17.996 19.9859Z" fill="#F5B0AC"/>
<path d="M13.7231 19.9181L13.8418 19.952L17.606 15.34L17.6908 15.0517L13.7231 19.9181Z" fill="#FAD9D5"/>
<path d="M13.9944 19.7655C15.3 20.1046 16.6226 20.1046 17.8604 19.7994L17.979 20.0028C16.5717 20.3589 15.1135 20.325 13.7231 19.935L13.9944 19.7655Z" fill="url(#paint20_linear_16573_1020)"/>
<defs>
<linearGradient id="paint0_linear_16573_1020" x1="15.069" y1="9.68247" x2="21.9985" y2="10.662" gradientUnits="userSpaceOnUse">
<stop stop-color="#E53121"/>
<stop offset="1" stop-color="#C22C1A"/>
</linearGradient>
<linearGradient id="paint1_linear_16573_1020" x1="7.86227" y1="9.20168" x2="25.2518" y2="11.6598" gradientUnits="userSpaceOnUse">
<stop stop-color="#DCDAEE"/>
<stop offset="1" stop-color="#8F88C0"/>
</linearGradient>
<linearGradient id="paint2_linear_16573_1020" x1="22.9931" y1="14.1275" x2="6.26655" y2="6.51955" gradientUnits="userSpaceOnUse">
<stop stop-color="#7B73B3"/>
<stop offset="1" stop-color="#C6C2E2"/>
</linearGradient>
<linearGradient id="paint3_linear_16573_1020" x1="24.6364" y1="19.4018" x2="4.5947" y2="12.1758" gradientUnits="userSpaceOnUse">
<stop stop-color="#6C62A8"/>
<stop offset="1" stop-color="#CBCAE6"/>
</linearGradient>
<linearGradient id="paint4_linear_16573_1020" x1="11.1294" y1="7.99979" x2="21.1339" y2="22.1602" gradientUnits="userSpaceOnUse">
<stop stop-color="#E53121"/>
<stop offset="1" stop-color="#A62714"/>
</linearGradient>
<linearGradient id="paint5_linear_16573_1020" x1="8.21945" y1="3.849" x2="14.8154" y2="23.9384" gradientUnits="userSpaceOnUse">
<stop stop-color="#E84D2C"/>
<stop offset="1" stop-color="#811F08"/>
</linearGradient>
<linearGradient id="paint6_linear_16573_1020" x1="14.8027" y1="1.63984" x2="23.3963" y2="21.0196" gradientUnits="userSpaceOnUse">
<stop stop-color="#F3F2F9"/>
<stop offset="1" stop-color="#BBB7DB"/>
</linearGradient>
<linearGradient id="paint7_linear_16573_1020" x1="-9.32497" y1="11.2164" x2="-2.86554" y2="27.4933" gradientUnits="userSpaceOnUse">
<stop stop-color="white"/>
<stop offset="1" stop-color="#BBB7DB"/>
</linearGradient>
<linearGradient id="paint8_linear_16573_1020" x1="10.4473" y1="11.8888" x2="24.9765" y2="14.29" gradientUnits="userSpaceOnUse">
<stop stop-color="#FFF098"/>
<stop offset="1" stop-color="#FFD530"/>
</linearGradient>
<linearGradient id="paint9_linear_16573_1020" x1="8.87769" y1="7.61588" x2="27.0748" y2="15.7418" gradientUnits="userSpaceOnUse">
<stop stop-color="#F4A286"/>
<stop offset="1" stop-color="#E53121"/>
</linearGradient>
<linearGradient id="paint10_linear_16573_1020" x1="7.43994" y1="20.2144" x2="28.1593" y2="13.4234" gradientUnits="userSpaceOnUse">
<stop stop-color="#F4A286"/>
<stop offset="1" stop-color="#E53121"/>
</linearGradient>
<linearGradient id="paint11_linear_16573_1020" x1="7.16819" y1="10.3204" x2="21.9319" y2="15.3902" gradientUnits="userSpaceOnUse">
<stop stop-color="#4464AC"/>
<stop offset="1" stop-color="#1D3584"/>
</linearGradient>
<linearGradient id="paint12_linear_16573_1020" x1="7.93782" y1="11.9983" x2="24.4498" y2="11.9983" gradientUnits="userSpaceOnUse">
<stop stop-color="#4464AC"/>
<stop offset="0.373" stop-color="#2F4B97"/>
<stop offset="0.728" stop-color="#223B89"/>
<stop offset="1" stop-color="#1D3584"/>
</linearGradient>
<linearGradient id="paint13_linear_16573_1020" x1="6.89672" y1="7.60856" x2="26.0085" y2="11.031" gradientUnits="userSpaceOnUse">
<stop stop-color="#5B62A2"/>
<stop offset="0.152" stop-color="#4C579A"/>
<stop offset="0.482" stop-color="#31438C"/>
<stop offset="0.776" stop-color="#213783"/>
<stop offset="1" stop-color="#1B3380"/>
</linearGradient>
<linearGradient id="paint14_linear_16573_1020" x1="15.9652" y1="3.86023" x2="17.7587" y2="20.6117" gradientUnits="userSpaceOnUse">
<stop stop-color="white"/>
<stop offset="1" stop-color="#DAD8ED"/>
</linearGradient>
<linearGradient id="paint15_linear_16573_1020" x1="3.96878" y1="10.0702" x2="23.9963" y2="20.1679" gradientUnits="userSpaceOnUse">
<stop stop-color="white"/>
<stop offset="1" stop-color="#D1CEE8"/>
</linearGradient>
<linearGradient id="paint16_linear_16573_1020" x1="8.97953" y1="6.06201" x2="24.3577" y2="8.61534" gradientUnits="userSpaceOnUse">
<stop stop-color="#D1CEE8"/>
<stop offset="1" stop-color="#7B73B3"/>
</linearGradient>
<linearGradient id="paint17_linear_16573_1020" x1="7.43638" y1="3.76247" x2="15.0132" y2="19.7953" gradientUnits="userSpaceOnUse">
<stop stop-color="#E53121"/>
<stop offset="1" stop-color="#B02916"/>
</linearGradient>
<linearGradient id="paint18_linear_16573_1020" x1="7.53586" y1="21.104" x2="28.2546" y2="14.313" gradientUnits="userSpaceOnUse">
<stop stop-color="#E53121"/>
<stop offset="1" stop-color="#9D2511"/>
</linearGradient>
<linearGradient id="paint19_linear_16573_1020" x1="14.4309" y1="10.6938" x2="23.1248" y2="21.2674" gradientUnits="userSpaceOnUse">
<stop stop-color="#F5B0AC"/>
<stop offset="1" stop-color="#EF8495"/>
</linearGradient>
<linearGradient id="paint20_linear_16573_1020" x1="13.7826" y1="20.0078" x2="18.045" y2="20.0078" gradientUnits="userSpaceOnUse">
<stop stop-color="#F5B0AC"/>
<stop offset="1" stop-color="#EE788F"/>
</linearGradient>
</defs>
</svg>
