<svg width="32" height="24" viewBox="0 0 32 24" fill="none" xmlns="http://www.w3.org/2000/svg">
<rect width="32" height="24" rx="4" fill="black"/>
<path d="M19.3399 9.32447H24.2416V14.8144H19.3399V9.32447Z" fill="white"/>
<path d="M20.3876 13.3929H21.6376C21.6734 13.3929 21.7567 13.381 21.7924 13.381C22.0305 13.3333 22.2329 13.119 22.2329 12.8214C22.2329 12.5357 22.0305 12.3214 21.7924 12.2619C21.7567 12.25 21.6853 12.25 21.6376 12.25H20.3876V13.3929Z" fill="url(#paint0_linear_10328_10927)"/>
<path d="M21.4948 5.5C20.3043 5.5 19.3281 6.46429 19.3281 7.66667V9.91667H22.3876C22.4591 9.91667 22.5424 9.91667 22.6019 9.92857C23.2924 9.96429 23.8043 10.3214 23.8043 10.9405C23.8043 11.4286 23.4591 11.8452 22.8162 11.9286V11.9524C23.5186 12 24.0543 12.3929 24.0543 13C24.0543 13.6548 23.4591 14.0833 22.6734 14.0833H19.3162V18.4881H22.4948C23.6853 18.4881 24.6614 17.5238 24.6614 16.3214V5.5H21.4948Z" fill="url(#paint1_linear_10328_10927)"/>
<path d="M22.0781 11.0833C22.0781 10.7976 21.8757 10.6071 21.6376 10.5714C21.6138 10.5714 21.5543 10.5595 21.5186 10.5595H20.3876V11.6071H21.5186C21.5543 11.6071 21.6257 11.6071 21.6376 11.5952C21.8757 11.5595 22.0781 11.369 22.0781 11.0833Z" fill="url(#paint2_linear_10328_10927)"/>
<path d="M7.44499 9.32447H12.3467V14.8144H7.44499V9.32447Z" fill="white"/>
<path d="M9.51857 5.5C8.3281 5.5 7.3519 6.46429 7.3519 7.66667V13.0119C7.95905 13.3095 8.59 13.5 9.22095 13.5C9.97095 13.5 10.3757 13.0476 10.3757 12.4286V9.90476H12.2329V12.4167C12.2329 13.3929 11.6257 14.1905 9.56619 14.1905C8.31619 14.1905 7.34 13.9167 7.34 13.9167V18.4762H10.5186C11.709 18.4762 12.6852 17.5119 12.6852 16.3095V5.5H9.51857Z" fill="url(#paint3_linear_10328_10927)"/>
<path d="M13.34 9.32447H18.2417V14.8144H13.34V9.32447Z" fill="white"/>
<path d="M15.5067 5.5C14.3162 5.5 13.34 6.46429 13.34 7.66667V10.5C13.8876 10.0357 14.84 9.7381 16.3757 9.80952C17.1971 9.84524 18.0781 10.0714 18.0781 10.0714V10.9881C17.6376 10.7619 17.1138 10.5595 16.4352 10.5119C15.2686 10.4286 14.5662 11 14.5662 12C14.5662 13.0119 15.2686 13.5833 16.4352 13.4881C17.1138 13.4405 17.6376 13.2262 18.0781 13.0119V13.9286C18.0781 13.9286 17.2091 14.1548 16.3757 14.1905C14.84 14.2619 13.8876 13.9643 13.34 13.5V18.5H16.5186C17.7091 18.5 18.6852 17.5357 18.6852 16.3333V5.5H15.5067Z" fill="url(#paint4_linear_10328_10927)"/>
<defs>
<linearGradient id="paint0_linear_10328_10927" x1="16.2412" y1="12.0102" x2="31.7381" y2="12.0102" gradientUnits="userSpaceOnUse">
<stop stop-color="#007940"/>
<stop offset="0.2285" stop-color="#00873F"/>
<stop offset="0.7433" stop-color="#40A737"/>
<stop offset="1" stop-color="#5CB531"/>
</linearGradient>
<linearGradient id="paint1_linear_10328_10927" x1="19.326" y1="11.9888" x2="24.6761" y2="11.9888" gradientUnits="userSpaceOnUse">
<stop stop-color="#007940"/>
<stop offset="0.2285" stop-color="#00873F"/>
<stop offset="0.7433" stop-color="#40A737"/>
<stop offset="1" stop-color="#5CB531"/>
</linearGradient>
<linearGradient id="paint2_linear_10328_10927" x1="19.326" y1="11.0818" x2="24.6759" y2="11.0818" gradientUnits="userSpaceOnUse">
<stop stop-color="#007940"/>
<stop offset="0.2285" stop-color="#00873F"/>
<stop offset="0.7433" stop-color="#40A737"/>
<stop offset="1" stop-color="#5CB531"/>
</linearGradient>
<linearGradient id="paint3_linear_10328_10927" x1="7.34938" y1="11.9888" x2="12.7819" y2="11.9888" gradientUnits="userSpaceOnUse">
<stop stop-color="#1F286F"/>
<stop offset="0.4751" stop-color="#004E94"/>
<stop offset="0.8261" stop-color="#0066B1"/>
<stop offset="1" stop-color="#006FBC"/>
</linearGradient>
<linearGradient id="paint4_linear_10328_10927" x1="13.3092" y1="11.9888" x2="18.5854" y2="11.9888" gradientUnits="userSpaceOnUse">
<stop stop-color="#6C2C2F"/>
<stop offset="0.1735" stop-color="#882730"/>
<stop offset="0.5731" stop-color="#BE1833"/>
<stop offset="0.8585" stop-color="#DC0436"/>
<stop offset="1" stop-color="#E60039"/>
</linearGradient>
</defs>
</svg>
