<svg width="32" height="24" viewBox="0 0 32 24" fill="none" xmlns="http://www.w3.org/2000/svg">
<rect x="0.5" y="0.5" width="31" height="23" rx="3.5" fill="white"/>
<rect x="0.5" y="0.5" width="31" height="23" rx="3.5" stroke="#DBD9D7"/>
<g clip-path="url(#clip0_13183_8995)">
<path d="M20.6198 8.51331V4.22H15.7006V6.0825H14.0243V6.85746C13.8955 6.84778 13.7673 6.84132 13.636 6.84132C10.8153 6.84132 8.52 9.15717 8.52 12.0026C8.52 13.6707 9.45105 15.2394 11.0113 16.2016L11.2587 16.354V19.78H20.6179V17.9078H23.4815V11.4039C23.4815 11.4039 21.0004 8.89756 20.6198 8.51331Z" fill="white"/>
<path d="M19.1695 15.6979H19.9596V14.1301H19.1695V15.6979ZM15.8132 18.3765H12.7204V16.0368H15.8132V18.3765ZM19.9485 8.75432V4.81846H16.4786V6.72714H14.7591V7.66526C14.3834 7.56198 13.9867 7.50571 13.5768 7.50571C11.1099 7.50571 9.11846 9.51965 9.11846 12.0023C9.11846 13.5303 10.0439 14.8584 11.2958 15.6297L14.0872 11.1933H17.9708H17.9702C17.7147 9.7752 16.7985 8.59212 15.5558 7.97179V7.53219H17.2733V5.62219H19.1518V11.999H22.0877V16.4579H19.1518V18.3765H16.6086V16.0057L19.1518 11.999H14.5239L11.9243 16.1302V19.1815H19.9478V17.2636H22.8831V11.7183L19.9485 8.75432Z" fill="#004890"/>
</g>
<defs>
<clipPath id="clip0_13183_8995">
<rect width="16" height="16" fill="white" transform="translate(8 4)"/>
</clipPath>
</defs>
</svg>
