<svg width="32" height="24" viewBox="0 0 32 24" fill="none" xmlns="http://www.w3.org/2000/svg">
<rect x="0.5" y="0.5" width="31" height="23" rx="3.5" fill="white"/>
<rect x="0.5" y="0.5" width="31" height="23" rx="3.5" stroke="#DBD9D7"/>
<g clip-path="url(#clip0_10207_11022)">
<path d="M17.0617 11.4914C16.5127 11.2739 16.014 10.9462 15.5964 10.5286C15.1788 10.111 14.8511 9.61232 14.6336 9.06328C14.5933 8.96128 14.5232 8.87375 14.4325 8.81207C14.3418 8.7504 14.2347 8.71742 14.125 8.71742C14.0153 8.71742 13.9082 8.7504 13.8175 8.81207C13.7268 8.87375 13.6567 8.96128 13.6164 9.06328C13.3989 9.61232 13.0712 10.111 12.6536 10.5286C12.236 10.9462 11.7373 11.2739 11.1883 11.4914C11.0863 11.5317 10.9988 11.6018 10.9371 11.6925C10.8754 11.7832 10.8424 11.8903 10.8424 12C10.8424 12.1097 10.8754 12.2168 10.9371 12.3075C10.9988 12.3982 11.0863 12.4683 11.1883 12.5086C11.7373 12.7261 12.236 13.0538 12.6536 13.4714C13.0712 13.889 13.3989 14.3877 13.6164 14.9367C13.6567 15.0387 13.7268 15.1262 13.8175 15.1879C13.9082 15.2496 14.0153 15.2826 14.125 15.2826C14.2347 15.2826 14.3418 15.2496 14.4325 15.1879C14.5232 15.1262 14.5933 15.0387 14.6336 14.9367C14.8511 14.3877 15.1788 13.889 15.5964 13.4714C16.014 13.0538 16.5127 12.7261 17.0617 12.5086C17.1637 12.4683 17.2512 12.3982 17.3129 12.3075C17.3746 12.2168 17.4076 12.1097 17.4076 12C17.4076 11.8903 17.3746 11.7832 17.3129 11.6925C17.2512 11.6018 17.1637 11.5317 17.0617 11.4914ZM14.125 13.5531C13.7195 12.9342 13.1908 12.4055 12.5719 12C13.1908 11.5945 13.7195 11.0658 14.125 10.4469C14.5305 11.0658 15.0592 11.5945 15.6781 12C15.0592 12.4055 14.5305 12.9342 14.125 13.5531ZM22.5523 5.4375H9.52578L7.5625 7.40078V16.5992L9.52578 18.5625H22.5523L24.5156 16.5992V7.40078L22.5523 5.4375ZM23.4219 16.1508L22.1039 17.4688H20.6875V15.8281H19.5938V17.4688H9.97422L8.65625 16.1508V7.84922L9.97422 6.53125H19.5938V8.17188H20.6875V6.53125H22.1039L23.4219 7.84922V16.1508ZM19.5938 12.5469H20.6875V14.7344H19.5938V12.5469ZM19.5938 9.26562H20.6875V11.4531H19.5938V9.26562Z" fill="#242E30"/>
</g>
<defs>
<clipPath id="clip0_10207_11022">
<rect width="17.5" height="17.5" fill="white" transform="translate(7.25 3.25)"/>
</clipPath>
</defs>
</svg>
