<svg width="32" height="24" viewBox="0 0 32 24" fill="none" xmlns="http://www.w3.org/2000/svg">
<rect width="32" height="24" rx="4" fill="black"/>
<rect x="0.5" y="0.5" width="31" height="23" rx="3.5" stroke="white" stroke-opacity="0.01"/>
<path d="M9.00003 4.59061H14.7443C15.5461 4.59061 16.0448 5.2634 15.8578 6.09156L13.1834 17.9113C12.9947 18.7366 12.1919 19.4099 11.3895 19.4099H5.64579C4.84507 19.4099 4.34523 18.7366 4.53228 17.9113L7.20775 6.09156C7.3948 5.2634 8.19721 4.59061 9.00003 4.59061Z" fill="white"/>
<path d="M14.266 4.59H20.8717C21.6734 4.59 21.3119 5.26279 21.1233 6.09095L18.4494 17.9107C18.2617 18.736 18.3203 19.4093 17.5169 19.4093H10.9112C10.1078 19.4093 9.6106 18.736 9.79934 17.9107L12.4731 6.09095C12.663 5.26279 13.4637 4.59 14.266 4.59Z" fill="white"/>
<path d="M20.6098 4.59H26.354C27.157 4.59 27.6557 5.26279 27.4671 6.09095L24.7932 17.9107C24.6044 18.736 23.8011 19.4093 22.9982 19.4093H17.2567C16.4533 19.4093 15.955 18.736 16.1432 17.9107L18.8175 6.09095C19.0046 5.26279 19.8064 4.59 20.6098 4.59Z" fill="white"/>
<path d="M10.4999 8.37783C9.90923 8.38403 9.73478 8.37783 9.67905 8.36429C9.65763 8.46907 9.25902 10.3619 9.2579 10.3635C9.17207 10.7464 9.10963 11.0194 8.89751 11.1957C8.7771 11.2982 8.63653 11.3476 8.47356 11.3476C8.2116 11.3476 8.05899 11.2137 8.03337 10.9598L8.02847 10.8726C8.02847 10.8726 8.10827 10.3596 8.10827 10.3567C8.10827 10.3567 8.52662 8.63179 8.60153 8.40378C8.60545 8.39081 8.60657 8.38403 8.60755 8.37783C7.79325 8.38518 7.6489 8.37783 7.63895 8.36429C7.63349 8.38288 7.61333 8.48982 7.61333 8.48982L7.18616 10.434L7.14948 10.5989L7.07849 11.1382C7.07849 11.2982 7.10901 11.4288 7.16978 11.5392C7.36439 11.8892 7.91954 11.9417 8.23358 11.9417C8.63821 11.9417 9.01778 11.8532 9.27428 11.6916C9.71952 11.4208 9.83601 10.9975 9.93989 10.6213L9.98806 10.4284C9.98806 10.4284 10.419 8.63683 10.4922 8.40378C10.495 8.39081 10.4962 8.38403 10.4999 8.37783ZM11.9662 9.82307C11.8623 9.82307 11.6725 9.84901 11.502 9.93506C11.4401 9.96778 11.3815 10.0055 11.3198 10.0432L11.3755 9.83604L11.345 9.80116C10.9834 9.87654 10.9024 9.88663 10.5684 9.93506L10.5404 9.95423C10.5016 10.2853 10.4671 10.5342 10.3233 11.1849C10.2686 11.4248 10.2118 11.6669 10.1548 11.9062L10.1702 11.9366C10.5125 11.918 10.6164 11.918 10.9139 11.923L10.938 11.8961C10.9758 11.6967 10.9807 11.65 11.0644 11.2463C11.1038 11.0549 11.1858 10.6344 11.2263 10.4846C11.3006 10.4492 11.374 10.4143 11.444 10.4143C11.6107 10.4143 11.5904 10.564 11.584 10.6237C11.5769 10.7239 11.5161 11.051 11.4538 11.332L11.4122 11.5133C11.3832 11.6472 11.3514 11.7773 11.3225 11.9101L11.3351 11.9366C11.6725 11.918 11.7754 11.918 12.0635 11.923L12.0974 11.8961C12.1495 11.5848 12.1648 11.5015 12.2572 11.0482L12.3037 10.8399C12.394 10.4323 12.4393 10.2256 12.371 10.0573C12.2988 9.86862 12.1254 9.82307 11.9662 9.82307ZM13.6042 10.2498C13.4249 10.2853 13.3105 10.3089 13.1968 10.3242C13.0841 10.3428 12.9742 10.3596 12.8009 10.3844L12.7871 10.3973L12.7745 10.4075C12.7565 10.5404 12.7439 10.6553 12.7199 10.7903C12.6996 10.93 12.6684 11.0887 12.6176 11.3167C12.5782 11.4912 12.5579 11.552 12.5355 11.6134C12.5137 11.6748 12.4896 11.7345 12.4454 11.9062L12.4557 11.922L12.4644 11.9366C12.6264 11.9286 12.7324 11.923 12.8413 11.922C12.9501 11.918 13.0628 11.922 13.2373 11.923L13.2525 11.9102L13.2689 11.8961C13.2941 11.7413 13.2979 11.6996 13.3133 11.6241C13.3286 11.5431 13.3549 11.431 13.4194 11.1315C13.45 10.9908 13.484 10.8506 13.5156 10.707C13.5485 10.564 13.583 10.4232 13.6157 10.2825L13.6108 10.2655L13.6042 10.2498ZM13.6081 9.67443C13.4451 9.57541 13.1591 9.60683 12.9665 9.74361C12.7746 9.87765 12.7527 10.0679 12.9152 10.1682C13.0753 10.2645 13.3625 10.2358 13.5533 10.0979C13.7449 9.96096 13.7688 9.77244 13.6081 9.67443ZM14.5937 11.9676C14.9234 11.9676 15.2614 11.8741 15.5158 11.5965C15.7115 11.3713 15.8013 11.0364 15.8324 10.8984C15.9336 10.4413 15.8548 10.2278 15.7558 10.0978C15.6054 9.89963 15.3397 9.83607 15.064 9.83607C14.8982 9.83607 14.5034 9.85293 14.1949 10.1457C13.9734 10.3568 13.8711 10.6433 13.8093 10.918C13.747 11.1979 13.6753 11.7018 14.1255 11.8893C14.2644 11.9507 14.4646 11.9676 14.5937 11.9676ZM14.5679 10.9389C14.6439 10.5927 14.7337 10.3022 14.9627 10.3022C15.1422 10.3022 15.1553 10.5184 15.0755 10.8657C15.0612 10.9428 14.9956 11.2295 14.907 11.3516C14.8451 11.4417 14.7719 11.4963 14.691 11.4963C14.6669 11.4963 14.5237 11.4963 14.5214 11.2774C14.5203 11.1693 14.5417 11.0589 14.5679 10.9389ZM16.6566 11.9231L16.6824 11.8961C16.7189 11.6968 16.7249 11.6499 16.8058 11.2464C16.8463 11.055 16.93 10.6344 16.9694 10.4847C17.0439 10.4491 17.116 10.4142 17.1882 10.4142C17.3538 10.4142 17.3337 10.5639 17.3271 10.6236C17.3211 10.7239 17.2603 11.0509 17.1969 11.3319L17.1576 11.5132C17.1275 11.6472 17.0947 11.7772 17.0657 11.9101L17.0783 11.9366C17.4169 11.918 17.5158 11.918 17.8057 11.9231L17.8407 11.8961C17.8915 11.5847 17.9052 11.5014 18.0004 11.0482L18.0458 10.8398C18.1365 10.4322 18.1824 10.2257 18.1152 10.0573C18.0409 9.86866 17.8664 9.82311 17.7095 9.82311C17.6054 9.82311 17.4146 9.84891 17.2451 9.9351C17.1844 9.96782 17.1237 10.0054 17.064 10.0432L17.116 9.83609L17.0881 9.80106C16.7266 9.87659 16.644 9.88668 16.3103 9.9351L16.2847 9.95427C16.2443 10.2853 16.2114 10.5341 16.0676 11.185C16.0128 11.4248 15.956 11.667 15.8991 11.9062L15.9144 11.9366C16.2573 11.918 16.3596 11.918 16.6566 11.9231ZM19.144 11.9365C19.1652 11.8296 19.2917 11.1957 19.2928 11.1957C19.2928 11.1957 19.4005 10.7306 19.407 10.7138C19.407 10.7138 19.4409 10.6653 19.4748 10.6462H19.5246C19.9949 10.6462 20.526 10.6462 20.9423 10.331C21.2255 10.1148 21.4191 9.79551 21.5055 9.40752C21.5279 9.31239 21.5444 9.19925 21.5444 9.08611C21.5444 8.93752 21.5155 8.7905 21.4317 8.67563C21.2195 8.36994 20.7968 8.36431 20.3088 8.36201C20.3073 8.36201 20.0683 8.36431 20.0683 8.36431C19.4437 8.37224 19.1932 8.36994 19.0903 8.35696C19.0817 8.40381 19.0653 8.48711 19.0653 8.48711C19.0653 8.48711 18.8415 9.55453 18.8415 9.55626C18.8415 9.55626 18.3061 11.8257 18.2809 11.9327C18.8263 11.9259 19.0499 11.9259 19.144 11.9365ZM19.5585 10.0404C19.5585 10.0404 19.7964 8.97513 19.7953 8.97917L19.803 8.92454L19.8064 8.88289L19.9014 8.89298C19.9014 8.89298 20.392 8.93636 20.4035 8.93751C20.5971 9.01462 20.6769 9.21338 20.6212 9.47281C20.5704 9.7099 20.421 9.90923 20.229 10.0055C20.071 10.0871 19.8773 10.0939 19.6778 10.0939H19.5487L19.5585 10.0404ZM21.0396 10.9587C20.9768 11.2345 20.9045 11.7384 21.3524 11.918C21.4952 11.9806 21.6232 11.9991 21.7533 11.9924C21.8906 11.9847 22.0179 11.9138 22.1358 11.8118C22.1251 11.8537 22.1145 11.8957 22.1038 11.9377L22.1241 11.9647C22.4463 11.9507 22.5463 11.9507 22.8953 11.9535L22.927 11.9287C22.9779 11.6202 23.026 11.3207 23.1584 10.7307C23.223 10.448 23.2874 10.1681 23.3536 9.88665L23.3432 9.85566C22.9828 9.92441 22.8865 9.93911 22.5398 9.9897L22.5135 10.0118C22.51 10.0404 22.5064 10.068 22.503 10.0955C22.4491 10.0058 22.371 9.92931 22.2504 9.8816C22.0963 9.81919 21.7342 9.89962 21.423 10.1913C21.2043 10.3996 21.0993 10.685 21.0396 10.9587ZM21.7965 10.9755C21.8737 10.6355 21.9623 10.3479 22.1919 10.3479C22.3371 10.3479 22.4136 10.4858 22.398 10.721C22.3857 10.7797 22.3724 10.8415 22.3566 10.9114C22.3336 11.0124 22.3087 11.1126 22.2845 11.2129C22.2598 11.2815 22.2311 11.3462 22.1996 11.3893C22.1405 11.4755 22 11.529 21.919 11.529C21.8961 11.529 21.7544 11.529 21.7495 11.314C21.7484 11.2069 21.7698 11.0966 21.7965 10.9755ZM25.7491 9.85291L25.7212 9.82019C25.3646 9.89456 25.3001 9.90638 24.9725 9.95192L24.9484 9.97671C24.9473 9.98075 24.9463 9.98695 24.9446 9.99257L24.9435 9.98695C24.6996 10.5662 24.7067 10.4412 24.5082 10.8973C24.5071 10.8765 24.5071 10.8635 24.5059 10.8415L24.4562 9.85291L24.425 9.82019C24.0515 9.89456 24.0426 9.90638 23.6977 9.95192L23.6708 9.97671C23.667 9.98853 23.667 10.0015 23.6648 10.0156L23.667 10.0207C23.7101 10.2475 23.6998 10.1969 23.743 10.555C23.7632 10.7307 23.7901 10.9074 23.8102 11.0809C23.8443 11.3713 23.8633 11.5143 23.9049 11.9575C23.6719 12.3533 23.6167 12.503 23.3924 12.8504L23.394 12.8538L23.236 13.1109C23.218 13.138 23.2016 13.1566 23.1786 13.1646C23.1534 13.1774 23.1207 13.1797 23.0752 13.1797H22.9877L22.8576 13.625L23.3038 13.633C23.5658 13.6318 23.7304 13.5057 23.819 13.3362L24.0996 12.8413H24.0952L24.1247 12.8064C24.3134 12.3881 25.7491 9.85291 25.7491 9.85291ZM21.0396 15.702H20.8503L21.5509 13.3165H21.7833L21.8571 13.0708L21.8643 13.3441C21.8556 13.513 21.9847 13.6627 22.3238 13.6379H22.716L22.8509 13.1786H22.7034C22.6185 13.1786 22.5792 13.1566 22.5841 13.1093L22.5769 12.8313H21.8507V12.8327C21.6159 12.8377 20.9147 12.8559 20.7727 12.8948C20.601 12.9404 20.4199 13.0744 20.4199 13.0744L20.491 12.8284H19.8117L19.6702 13.3165L18.9602 15.7385H18.8224L18.6873 16.1945H20.0404L19.995 16.3466H20.6617L20.706 16.1945H20.893L21.0396 15.702ZM20.4845 13.8012C20.3757 13.8322 20.1732 13.9262 20.1732 13.9262L20.3533 13.3165H20.893L20.7628 13.7607C20.7628 13.7607 20.5961 13.7708 20.4845 13.8012ZM20.4948 14.6722C20.4948 14.6722 20.3253 14.6941 20.2137 14.7201C20.1038 14.7544 19.8977 14.8625 19.8977 14.8625L20.0836 14.228H20.6262L20.4948 14.6722ZM20.1924 15.7076H19.651L19.8079 15.1722H20.3477L20.1924 15.7076ZM21.4963 14.228H22.2767L22.1645 14.6019H21.3738L21.255 15.0106H21.947L21.423 15.77C21.3864 15.8258 21.3535 15.8456 21.3169 15.8613C21.2802 15.8804 21.2321 15.9029 21.1763 15.9029H20.9844L20.8525 16.3506H21.3546C21.6156 16.3506 21.7697 16.2284 21.8835 16.068L22.2428 15.5618L22.32 16.0757C22.3363 16.172 22.4035 16.2284 22.449 16.2503C22.4993 16.2762 22.5513 16.3208 22.6246 16.3274C22.7033 16.3308 22.7601 16.3336 22.7979 16.3336H23.0446L23.1928 15.8326H23.0955C23.0396 15.8326 22.9434 15.8229 22.927 15.8049C22.9107 15.783 22.9107 15.7493 22.9018 15.698L22.8236 15.1829H22.5031L22.6437 15.0106H23.4329L23.5543 14.6019H22.8236L22.9374 14.228H23.6659L23.801 13.7669H21.6291L21.4963 14.228ZM14.9048 15.8117L15.087 15.188H15.8356L15.9724 14.724H15.2231L15.3374 14.34H16.0697L16.2054 13.8908H14.3732L14.2403 14.34H14.6566L14.5455 14.724H14.1282L13.9898 15.1959H14.4059L14.1632 16.0212C14.1304 16.1304 14.1786 16.1721 14.2091 16.2228C14.2403 16.2722 14.272 16.3049 14.3431 16.3235C14.4164 16.3404 14.4667 16.3505 14.535 16.3505H15.379L15.5294 15.8365L15.1553 15.8894C15.083 15.8894 14.883 15.8805 14.9048 15.8117ZM14.9907 12.8256L14.801 13.1785C14.7604 13.2556 14.7238 13.3035 14.6909 13.3255C14.6619 13.3441 14.6045 13.3519 14.5214 13.3519H14.4224L14.2901 13.8035H14.6188C14.7769 13.8035 14.8983 13.7438 14.9562 13.714C15.0185 13.6797 15.0349 13.6993 15.0831 13.6514L15.1941 13.5524H16.2207L16.3569 13.0823H15.6055L15.7367 12.8256H14.9907ZM16.5062 15.8208C16.4887 15.7949 16.5013 15.7492 16.5281 15.654L16.8086 14.698H17.8068C17.9522 14.6959 18.0573 14.6942 18.1256 14.6891C18.1989 14.6812 18.2787 14.6542 18.3657 14.6058C18.4554 14.5551 18.5014 14.5016 18.5401 14.4402C18.5834 14.3789 18.6529 14.2449 18.7125 14.0382L19.0652 12.8284L18.0294 12.8346C18.0294 12.8346 17.7104 12.883 17.57 12.9365C17.4283 12.9962 17.2259 13.1628 17.2259 13.1628L17.3194 12.8311H16.6795L15.7838 15.8894C15.752 16.0082 15.7307 16.0944 15.7258 16.1461C15.7241 16.2019 15.7941 16.2571 15.8395 16.2987C15.8931 16.3404 15.9723 16.3336 16.0484 16.3404C16.1283 16.3466 16.242 16.3505 16.399 16.3505H16.8907L17.0416 15.8259L16.6014 15.8687C16.5544 15.8687 16.5204 15.8427 16.5062 15.8208ZM16.9897 14.0523H18.0381L17.9714 14.2674C17.962 14.2724 17.9396 14.2567 17.833 14.2697H16.9251L16.9897 14.0523ZM17.1997 13.3311H18.2569L18.1809 13.5901C18.1809 13.5901 17.6826 13.5851 17.6028 13.6002C17.2516 13.6628 17.0465 13.8559 17.0465 13.8559L17.1997 13.3311ZM17.9949 14.9875C17.9862 15.0196 17.9725 15.0392 17.9533 15.0539C17.932 15.0681 17.8976 15.0731 17.8462 15.0731H17.6968L17.7056 14.8112H17.0843L17.0591 16.0915C17.0581 16.1839 17.0668 16.2374 17.1324 16.2802C17.1981 16.3337 17.4004 16.3404 17.6727 16.3404H18.0621L18.2027 15.8612L17.8637 15.8804L17.751 15.8871C17.7356 15.8804 17.7209 15.8742 17.7045 15.8573C17.6902 15.8428 17.6661 15.8517 17.6701 15.7593L17.6727 15.4311L18.0282 15.416C18.2202 15.416 18.3022 15.3517 18.3722 15.2905C18.439 15.2318 18.4608 15.1643 18.486 15.0731L18.5457 14.7825H18.0572L17.9949 14.9875Z" fill="black"/>
</svg>
