<svg width="32" height="24" viewBox="0 0 32 24" fill="none" xmlns="http://www.w3.org/2000/svg">
<rect width="32" height="24" rx="4" fill="#005D9D"/>
<rect x="0.5" y="0.5" width="31" height="23" rx="3.5" stroke="white" stroke-opacity="0.01"/>
<g clip-path="url(#clip0_13202_9296)">
<path d="M6.5 5.95999H13.4399L16.9347 9.59297H10.3347L6.5 5.95999Z" fill="white"/>
<path d="M16.3955 8.17136L18.5601 5.95999H25.5L21.6653 9.59297H17.7629L16.3955 8.17136Z" fill="white"/>
<path d="M17.763 14.393L16.3955 15.8146L18.5601 18.026H25.5L21.6653 14.393H17.763Z" fill="white"/>
<path d="M16.9347 14.393H10.3347L6.502 18.0241L13.4399 18.026L16.9347 14.393Z" fill="white"/>
<path d="M7.38514 11.683H8.57559V10.2724H9.39232V13.7136H8.57559V12.4089H7.38514V13.7136H6.57341V10.2724H7.38514V11.683Z" fill="white"/>
<path d="M13.1797 10.2724H13.9965V12.9877H15.2635V13.7136H13.1797V10.2724Z" fill="white"/>
<path d="M15.6423 13.7136H16.4688V10.2724H15.6423V13.7136Z" fill="white"/>
<path d="M19.29 10.9983H17.7513V11.683H19.0262V12.4089H17.7513V13.7136H16.9347V10.2724H19.29V10.9983Z" fill="white"/>
<path fill-rule="evenodd" clip-rule="evenodd" d="M10.8393 10.2724L9.65699 13.7136H10.4964L10.6964 13.0883H11.8757L12.0757 13.7136H12.9151L11.734 10.2724H10.8393ZM10.9137 12.4089L11.286 11.2452L11.6583 12.4089H10.9137Z" fill="white"/>
<path fill-rule="evenodd" clip-rule="evenodd" d="M24.4118 10.2724H25.3383L24.1978 11.993L25.3383 13.7136H24.4118L23.7536 12.674L23.0954 13.7136H21.459L21.2589 13.0883H20.0796L19.8796 13.7136H19.0402L20.2225 10.2724H21.1172L22.2541 13.585L23.3094 11.993L22.1689 10.2724H23.0954L23.7536 11.3121L24.4118 10.2724ZM20.6693 11.2452L20.297 12.4089H21.0415L20.6693 11.2452Z" fill="white"/>
</g>
<defs>
<clipPath id="clip0_13202_9296">
<rect width="20" height="14" fill="white" transform="translate(6 5)"/>
</clipPath>
</defs>
</svg>
