<svg width="32" height="24" viewBox="0 0 32 24" fill="none" xmlns="http://www.w3.org/2000/svg">
<rect x="0.5" y="0.5" width="31" height="23" rx="3.5" fill="white"/>
<rect x="0.5" y="0.5" width="31" height="23" rx="3.5" stroke="#DBD9D7"/>
<path fill-rule="evenodd" clip-rule="evenodd" d="M14.6172 13.7531C14.3553 13.8731 14.0675 13.9254 13.7802 13.9051C13.4929 13.8849 13.2152 13.7927 12.9728 13.6371C12.7304 13.4815 12.531 13.2675 12.3929 13.0148C12.2547 12.762 12.1824 12.4786 12.1824 12.1905V10.1857H12.9462V12.1905C12.9462 12.7731 13.3745 13.2392 13.9011 13.2392C14.0396 13.2379 14.176 13.2051 14.3 13.1435C14.4241 13.0818 14.5325 12.9928 14.6172 12.8833V13.7531Z" fill="#89CC53"/>
<path fill-rule="evenodd" clip-rule="evenodd" d="M8.45883 8.5625V10.4724C8.74339 10.259 9.08186 10.1292 9.43615 10.0977C9.79044 10.0662 10.1465 10.1342 10.4642 10.2941V11.1931C10.3547 11.0579 10.2165 10.9488 10.0596 10.8737C9.90268 10.7985 9.73105 10.7591 9.55708 10.7584C8.89813 10.7584 8.36328 11.3148 8.36328 12C8.36328 12.6852 8.89813 13.241 9.55708 13.241C9.73105 13.2403 9.90268 13.2009 10.0596 13.1258C10.2165 13.0506 10.3547 12.9415 10.4642 12.8064V13.7054C10.1353 13.8709 9.76541 13.9378 9.39927 13.898C9.03312 13.8582 8.6863 13.7134 8.40057 13.481L8.36328 13.8137H7.69501V12.095H7.69792C7.69792 12.0635 7.69501 12.0315 7.69501 12V8.5625H8.45883Z" fill="#238647"/>
<path fill-rule="evenodd" clip-rule="evenodd" d="M9.07934 10.1636C9.36372 10.0817 9.66325 10.067 9.95429 10.1207C10.2453 10.1744 10.5199 10.2949 10.7563 10.4729C10.9928 10.6509 11.1847 10.8814 11.3168 11.1462C11.4489 11.411 11.5177 11.7029 11.5177 11.9988C11.5177 12.2948 11.4489 12.5867 11.3168 12.8515C11.1847 13.1163 10.9928 13.3468 10.7563 13.5248C10.5199 13.7027 10.2453 13.8233 9.95429 13.877C9.66325 13.9307 9.36372 13.916 9.07934 13.8341V13.135C9.22924 13.2036 9.39222 13.239 9.55709 13.2387C10.216 13.2387 10.7503 12.6823 10.7503 11.9977C10.7503 11.3131 10.216 10.7561 9.55709 10.7561C9.39225 10.7561 9.22933 10.7914 9.07934 10.8598V10.1636Z" fill="#2F9B47"/>
<path fill-rule="evenodd" clip-rule="evenodd" d="M10.4642 10.2941C10.7799 10.4534 11.0453 10.6971 11.2306 10.9983C11.416 11.2994 11.5141 11.6461 11.5141 11.9997C11.5141 12.3533 11.416 12.7 11.2306 13.0011C11.0453 13.3023 10.7799 13.5461 10.4642 13.7054V12.8064C10.649 12.5781 10.7499 12.2934 10.7499 11.9997C10.7499 11.706 10.649 11.4213 10.4642 11.1931V10.2941Z" fill="#62B64F"/>
<path fill-rule="evenodd" clip-rule="evenodd" d="M13.2329 12.9404C13.3173 13.0341 13.4203 13.1093 13.5354 13.161C13.6504 13.2128 13.775 13.24 13.9012 13.241C14.4284 13.241 14.8561 12.7702 14.8561 12.1923V10.1857H15.6199V12.1905C15.62 12.4744 15.5499 12.7538 15.4157 13.0039C15.2815 13.2541 15.0874 13.467 14.8508 13.6239C14.6143 13.7807 14.3425 13.8765 14.0599 13.9027C13.7773 13.9289 13.4925 13.8848 13.2311 13.7741L13.2329 12.9404Z" fill="#3DB8AD"/>
<path fill-rule="evenodd" clip-rule="evenodd" d="M14.6172 12.885C14.7735 12.6874 14.8578 12.4425 14.8561 12.1905L14.8561 10.1857H15.6199V12.1905C15.6199 12.5196 15.5253 12.8418 15.3476 13.1188C15.1699 13.3958 14.9164 13.6159 14.6172 13.7531L14.6172 12.885Z" fill="#3394D7"/>
<path fill-rule="evenodd" clip-rule="evenodd" d="M18.7707 11.0591C18.6863 10.9653 18.5833 10.8902 18.4682 10.8384C18.3532 10.7867 18.2286 10.7594 18.1025 10.7584C17.5781 10.7584 17.1475 11.2292 17.1475 11.8072V13.8137H16.3837V11.8089C16.3836 11.5251 16.4538 11.2456 16.588 10.9955C16.7222 10.7454 16.9162 10.5324 17.1528 10.3755C17.3894 10.2187 17.6611 10.1229 17.9437 10.0967C18.2264 10.0705 18.5111 10.1147 18.7725 10.2253L18.7707 11.0591Z" fill="#2872BC"/>
<path fill-rule="evenodd" clip-rule="evenodd" d="M17.3864 10.2463C17.6483 10.1263 17.9361 10.074 18.2234 10.0943C18.5108 10.1146 18.7884 10.2067 19.0308 10.3623C19.2732 10.5179 19.4727 10.7319 19.6108 10.9847C19.7489 11.2374 19.8213 11.5209 19.8212 11.8089V13.8137H19.0574V11.8089C19.0574 11.2263 18.6292 10.7602 18.1025 10.7602C17.964 10.7615 17.8276 10.7943 17.7036 10.856C17.5796 10.9176 17.4711 11.0066 17.3864 11.1162V10.2463Z" fill="#1D5C84"/>
<path fill-rule="evenodd" clip-rule="evenodd" d="M18.7707 10.2253C19.0817 10.3572 19.3469 10.5777 19.5334 10.8593C19.7199 11.1409 19.8194 11.4711 19.8195 11.8089V13.8137L19.0574 13.8137V11.8089C19.0596 11.5318 18.9572 11.2641 18.7707 11.0591L18.7707 10.2253Z" fill="#993233"/>
<path fill-rule="evenodd" clip-rule="evenodd" d="M22.9243 13.8359C22.6399 13.9177 22.3404 13.9324 22.0493 13.8787C21.7583 13.8251 21.4837 13.7045 21.2473 13.5265C21.0108 13.3485 20.819 13.118 20.6869 12.8532C20.5547 12.5884 20.486 12.2965 20.486 12.0006C20.486 11.7046 20.5547 11.4127 20.6869 11.1479C20.819 10.8831 21.0108 10.6526 21.2473 10.4747C21.4837 10.2967 21.7583 10.1761 22.0493 10.1224C22.3404 10.0687 22.6399 10.0834 22.9243 10.1653V10.8645C22.7743 10.7961 22.6114 10.7607 22.4465 10.7607C21.7882 10.7607 21.2533 11.3172 21.2533 12.0023C21.2533 12.6875 21.7882 13.2433 22.4465 13.2433C22.6114 13.2436 22.7744 13.2083 22.9243 13.1396V13.8359Z" fill="#E13030"/>
<path fill-rule="evenodd" clip-rule="evenodd" d="M21.5394 10.2941C21.8684 10.1285 22.2382 10.0616 22.6044 10.1014C22.9705 10.1412 23.3173 10.286 23.6031 10.5184L23.6404 10.1857H24.3086V15.4375H23.5448V13.5271C23.2602 13.7405 22.9218 13.8702 22.5675 13.9017C22.2132 13.9332 21.8571 13.8652 21.5394 13.7053V12.8064C21.6491 12.9416 21.7876 13.0507 21.9446 13.1259C22.1017 13.2011 22.2736 13.2404 22.4477 13.241C23.1067 13.241 23.6415 12.6846 23.6415 12C23.6415 11.3154 23.1067 10.7584 22.4477 10.7584C22.2738 10.7592 22.1022 10.7986 21.9453 10.8738C21.7884 10.9489 21.6502 11.058 21.5406 11.1931L21.5394 10.2941Z" fill="#F28825"/>
<path fill-rule="evenodd" clip-rule="evenodd" d="M22.9243 10.1636C23.1723 10.2346 23.4032 10.3553 23.6031 10.5184L23.6404 10.1857H24.3086V15.4375H23.5448V13.5271C23.3586 13.6671 23.1483 13.7718 22.9243 13.8359L22.9243 13.1367C23.138 13.0336 23.3184 12.8723 23.4445 12.6713C23.5707 12.4704 23.6377 12.2379 23.6377 12.0006C23.6377 11.7633 23.5707 11.5308 23.4445 11.3298C23.3184 11.1289 23.138 10.9676 22.9243 10.8645L22.9243 10.1636Z" fill="#F5C836"/>
</svg>
