<svg width="32" height="24" viewBox="0 0 32 24" fill="none" xmlns="http://www.w3.org/2000/svg">
<rect x="0.5" y="0.5" width="31" height="23" rx="3.5" fill="white"/>
<rect x="0.5" y="0.5" width="31" height="23" rx="3.5" stroke="#DBD9D7"/>
<path d="M16.0079 6.98889C16.876 6.98889 17.744 7.21211 18.5116 7.61963L17.5813 9.1948C17.1111 8.95736 16.5732 8.82223 16.0079 8.82223C15.4176 8.82223 14.8674 8.9587 14.393 9.19934L13.4944 7.60691C14.2559 7.20746 15.1232 6.98889 16.0079 6.98889Z" fill="#01A2E9"/>
<path d="M17.8944 12C17.8944 13.0463 17.0463 13.8944 16 13.8944C14.9537 13.8944 14.1056 13.0463 14.1056 12C14.1056 10.9537 14.9537 10.1056 16 10.1056C17.0463 10.1056 17.8944 10.9537 17.8944 12Z" fill="#01A2E9"/>
<path fill-rule="evenodd" clip-rule="evenodd" d="M24.25 12C24.25 16.5563 20.5563 20.25 16 20.25C11.4437 20.25 7.75 16.5563 7.75 12C7.75 7.44365 11.4437 3.75 16 3.75C20.5563 3.75 24.25 7.44365 24.25 12ZM22.4167 12C22.4167 15.222 20.0419 17.8894 16.9472 18.3472V16.9091C19.3458 16.4625 21.1028 14.3455 21.1028 11.8014C21.1028 11.2852 21.0202 10.7995 20.8699 10.35C20.6346 9.98333 20.2651 9.8713 20.1097 9.86111C19.6361 9.81528 19.3356 10.1208 19.2694 10.2431C19.1014 10.4417 19.0708 10.7574 19.0861 10.9C19.2328 11.2422 19.2694 11.6435 19.2694 11.8014C19.2694 13.7006 17.8139 15.1625 16 15.1625C14.1861 15.1625 12.7306 13.7006 12.7306 11.8014C12.7306 11.5926 12.7611 11.12 12.8833 10.9C12.9139 10.7218 12.8711 10.295 12.4556 10.0139C12.2926 9.90185 11.8597 9.745 11.4319 10.0139C11.3462 10.0597 11.1598 10.2064 11.0999 10.4264C10.9686 10.8544 10.8972 11.3143 10.8972 11.8014C10.8972 14.3455 12.6542 16.4625 15.0528 16.9091V18.3472C11.9581 17.8894 9.58333 15.222 9.58333 12C9.58333 8.45617 12.4562 5.58333 16 5.58333C19.5438 5.58333 22.4167 8.45617 22.4167 12Z" fill="#01A2E9"/>
</svg>
