<svg width="32" height="24" viewBox="0 0 32 24" fill="none" xmlns="http://www.w3.org/2000/svg">
<rect width="32" height="24" rx="4" fill="#F36805"/>
<rect x="0.5" y="0.5" width="31" height="23" rx="3.5" stroke="white" stroke-opacity="0.01"/>
<path d="M7.79688 10.6328V16.375C7.79688 16.8101 7.96973 17.2274 8.2774 17.5351C8.58508 17.8428 9.00238 18.0156 9.4375 18.0156H22.5625C22.9976 18.0156 23.4149 17.8428 23.7226 17.5351C24.0303 17.2274 24.2031 16.8101 24.2031 16.375V10.6328H7.79688ZM13.8125 14.7344H10.5312V13.6406H13.8125V14.7344ZM20.5336 15.1227C20.3996 15.1232 20.2672 15.0946 20.1454 15.0389C20.0236 14.9832 19.9153 14.9017 19.8281 14.8C19.7033 14.9441 19.5374 15.0465 19.3526 15.0936C19.1679 15.1408 18.9732 15.1303 18.7946 15.0637C18.616 14.997 18.462 14.8774 18.3533 14.7208C18.2446 14.5642 18.1863 14.3781 18.1863 14.1875C18.1863 13.9969 18.2446 13.8108 18.3533 13.6542C18.462 13.4976 18.616 13.378 18.7946 13.3113C18.9732 13.2447 19.1679 13.2342 19.3526 13.2814C19.5374 13.3285 19.7033 13.4309 19.8281 13.575C19.9307 13.4566 20.0614 13.3659 20.2082 13.3112C20.355 13.2565 20.5132 13.2396 20.6683 13.2619C20.8233 13.2843 20.9703 13.3452 21.0956 13.4392C21.221 13.5331 21.3207 13.6571 21.3857 13.7996C21.4507 13.9422 21.4788 14.0988 21.4675 14.255C21.4562 14.4113 21.4058 14.5622 21.321 14.6939C21.2362 14.8256 21.1196 14.9338 20.982 15.0088C20.8444 15.0837 20.6903 15.1229 20.5336 15.1227V15.1227ZM7.79688 8.99219V7.625C7.79688 7.18988 7.96973 6.77258 8.2774 6.4649C8.58508 6.15723 9.00238 5.98438 9.4375 5.98438H22.5625C22.9976 5.98438 23.4149 6.15723 23.7226 6.4649C24.0303 6.77258 24.2031 7.18988 24.2031 7.625V8.99219H7.79688Z" fill="white"/>
</svg>
