<svg width="32" height="24" viewBox="0 0 32 24" fill="none" xmlns="http://www.w3.org/2000/svg">
<rect x="0.5" y="0.5" width="31" height="23" rx="3.5" fill="white"/>
<rect x="0.5" y="0.5" width="31" height="23" rx="3.5" stroke="#DBD9D7"/>
<g clip-path="url(#clip0_13183_8911)">
<path d="M28.5007 10.1629H19.5504V13.827H28.5007V10.1629ZM28.4033 10.2552V13.7325H19.6454V10.2552H28.4033Z" fill="#03426A"/>
<path d="M3.50091 13.827H19.1634V10.1629H3.50091V13.827Z" fill="#03426A"/>
<path d="M28.4033 10.2552V13.7325H19.6454V10.2552H28.4033Z" fill="white"/>
<path d="M8.90956 12.2423C8.90956 12.6027 8.71041 12.7808 8.2646 12.7808H7.56306V11.4312H8.24197C8.78057 11.4312 8.90956 11.6862 8.90956 11.9653V12.2423ZM9.19697 12.2313V12.0005C9.19697 11.2641 8.59952 11.2356 8.19897 11.2356H7.27339V12.9808H8.27817C9.06797 12.9808 9.19697 12.5654 9.19697 12.2313Z" fill="white"/>
<path d="M10.763 12.55C10.763 12.6511 10.7539 12.7434 10.634 12.7852C10.5638 12.8116 10.4643 12.8204 10.2968 12.8204C10.1293 12.8204 10.0298 12.805 9.97093 12.7676C9.9302 12.7434 9.91436 12.7039 9.91436 12.6203C9.91436 12.5148 9.94151 12.4555 9.99356 12.4313C10.0456 12.4071 10.1112 12.4027 10.3149 12.4027H10.763V12.55ZM11.0346 12.9808V12.295C11.0346 12.1653 11.0346 12.0752 11.0232 12.0093C11.0097 11.9411 10.987 11.8928 10.9305 11.851C10.7992 11.7521 10.4778 11.7499 10.3194 11.7499C10.1995 11.7499 9.87362 11.7631 9.75367 11.862C9.71294 11.895 9.70389 11.9346 9.70389 11.9829C9.70389 12.0137 9.70841 12.0554 9.71068 12.1104H9.97545C9.97998 12.0796 9.98677 12.0049 10.0162 11.9741C10.0524 11.9411 10.1135 11.928 10.2945 11.928C10.5027 11.928 10.6476 11.9346 10.7087 11.9675C10.7653 11.9983 10.763 12.0642 10.763 12.1148V12.2335H10.152C9.98677 12.2335 9.79668 12.2379 9.69258 12.3764C9.64505 12.4357 9.62469 12.5126 9.62469 12.6115C9.62469 12.9017 9.80799 12.9984 10.2787 12.9984C10.5231 12.9984 10.6838 12.961 10.7811 12.8797L10.806 12.9808H11.0346Z" fill="white"/>
<path d="M12.673 12.9808V12.3126C12.673 12.0818 12.6617 12.0335 12.6051 11.9917C12.5508 11.9521 12.4422 11.928 12.277 11.928C12.1321 11.928 11.9828 11.9455 11.8425 11.9829V12.9808H11.5732V11.7587H11.8153L11.8334 11.8466C11.8877 11.8181 11.9285 11.7961 11.985 11.7807C12.0756 11.7543 12.1887 11.7411 12.3403 11.7411C12.5123 11.7411 12.6458 11.7675 12.7477 11.8115C12.8472 11.8532 12.9016 11.9324 12.9219 12.0247C12.9355 12.0884 12.9423 12.1434 12.9423 12.2818V12.9808H12.673Z" fill="white"/>
<path d="M14.6713 12.9061C14.5468 12.9676 14.3431 12.994 14.0783 12.994C13.895 12.994 13.7434 12.9808 13.6257 12.95C13.499 12.9215 13.4356 12.8643 13.4288 12.7588C13.4243 12.7039 13.4288 12.6555 13.4356 12.5896H13.6959C13.7049 12.6511 13.7049 12.6709 13.7072 12.6841C13.7162 12.7412 13.7117 12.772 13.7819 12.794C13.8498 12.8138 13.9584 12.8226 14.0964 12.8226C14.2684 12.8226 14.3884 12.805 14.4676 12.7698C14.5242 12.7456 14.5513 12.7017 14.5513 12.6181C14.5513 12.5214 14.5309 12.4819 14.4268 12.4665C14.3952 12.4599 14.3635 12.4599 14.3295 12.4577C14.3114 12.4555 14.2526 12.4555 14.1575 12.4533C14.1123 12.4533 14.0602 12.4489 13.9991 12.4467C13.7298 12.4335 13.4447 12.4225 13.4447 12.117C13.4447 11.84 13.6189 11.7433 14.0987 11.7433C14.2209 11.7433 14.3703 11.7521 14.4608 11.7631C14.5649 11.7763 14.6441 11.7939 14.7007 11.8246C14.764 11.8598 14.7844 11.9148 14.7844 12.0115C14.7844 12.0379 14.7844 12.0642 14.7799 12.106H14.5174L14.506 12.0511C14.4925 11.9851 14.4879 11.9719 14.4653 11.9565C14.4268 11.928 14.3114 11.9148 14.1485 11.9148C13.9856 11.9148 13.8928 11.9214 13.8181 11.9477C13.7479 11.9719 13.7163 12.0159 13.7163 12.1038C13.7163 12.1631 13.7389 12.2071 13.7683 12.2269C13.8385 12.2687 14.2096 12.2643 14.3363 12.2665C14.4721 12.2687 14.5604 12.2796 14.6373 12.306C14.7754 12.3522 14.8297 12.4401 14.8297 12.6181C14.8297 12.761 14.7821 12.8511 14.6713 12.9061Z" fill="white"/>
<path d="M16.3323 12.9808L15.6828 12.4027H15.5878V12.9808H15.3162V11.2356H15.5878V12.2291H15.6828L16.2214 11.7587H16.5382L15.9114 12.2972L16.6921 12.9808H16.3323Z" fill="white"/>
<path d="M18.0319 12.2511H17.1651C17.1742 12.0972 17.2081 12.0291 17.2692 11.9851C17.3326 11.9411 17.448 11.9192 17.6177 11.9192C17.8531 11.9192 17.964 11.9697 18.0047 12.0752C18.0205 12.1192 18.0319 12.1609 18.0319 12.2511ZM18.2808 12.5984H18.0138C18.0047 12.6357 18.0002 12.7302 17.964 12.7654C17.9232 12.805 17.8418 12.8226 17.6245 12.8226C17.4095 12.8226 17.2918 12.794 17.2307 12.7346C17.1855 12.6907 17.1583 12.5983 17.1583 12.4555V12.4225H18.2876C18.2898 12.3632 18.2944 12.3478 18.2944 12.2994C18.2944 12.0972 18.265 11.9851 18.1744 11.8994C18.0726 11.7961 17.8757 11.7455 17.6041 11.7455C17.2579 11.7455 17.0452 11.8224 16.9569 11.9917C16.9049 12.0884 16.8754 12.2247 16.8754 12.3939C16.8754 12.6599 16.9479 12.8269 17.1085 12.9105C17.2081 12.9632 17.3801 12.994 17.5996 12.9962C17.7829 12.9962 17.93 12.9874 18.0907 12.9412C18.2468 12.8929 18.2853 12.8072 18.2853 12.7346C18.2853 12.717 18.2853 12.6577 18.2808 12.5984Z" fill="white"/>
<path d="M21.8473 11.6752C21.8473 11.9323 21.698 11.9851 21.3902 11.9851H20.709V11.4312H21.4241C21.698 11.4312 21.8473 11.4554 21.8473 11.6752ZM22.2026 12.4884C22.2026 12.273 22.0759 12.1148 21.7726 12.0686V12.0642C22.008 12.0049 22.1347 11.8862 22.1347 11.6994C22.1347 11.3916 21.9808 11.2356 21.5441 11.2356H20.4193V12.9808H21.5893C21.9831 12.9808 22.2026 12.8072 22.2026 12.4884ZM21.913 12.5082C21.913 12.7566 21.7319 12.7808 21.4513 12.7808H20.709V12.1829H21.4875C21.8202 12.1829 21.913 12.2862 21.913 12.5082Z" fill="#03426A"/>
<path d="M23.6713 12.55C23.6713 12.6511 23.6645 12.7434 23.5446 12.7852C23.4745 12.8116 23.3749 12.8204 23.2074 12.8204C23.04 12.8204 22.9404 12.805 22.8815 12.7676C22.8408 12.7434 22.825 12.7039 22.825 12.6203C22.825 12.5148 22.8521 12.4555 22.9064 12.4313C22.9562 12.4071 23.0218 12.4027 23.2278 12.4027H23.6713V12.55ZM23.9452 12.9808V12.295C23.9452 12.1653 23.9452 12.0752 23.9338 12.0093C23.9203 11.9411 23.8976 11.8928 23.8411 11.851C23.7098 11.7521 23.3885 11.7499 23.23 11.7499C23.1101 11.7499 22.7842 11.7631 22.6643 11.862C22.6236 11.895 22.6145 11.9346 22.6145 11.9829C22.6145 12.0137 22.619 12.0554 22.6213 12.1104H22.8861C22.8929 12.0796 22.8974 12.0049 22.9268 11.9741C22.963 11.9411 23.0241 11.928 23.2052 11.928C23.4134 11.928 23.5582 11.9346 23.6193 11.9675C23.6759 11.9983 23.6713 12.0642 23.6713 12.1148V12.2335H23.0626C22.8974 12.2335 22.7073 12.2379 22.6032 12.3764C22.5579 12.4357 22.5353 12.5126 22.5353 12.6115C22.5353 12.9017 22.7186 12.9984 23.1893 12.9984C23.436 12.9984 23.5944 12.961 23.6917 12.8797L23.7166 12.9808H23.9452Z" fill="#03426A"/>
<path d="M25.5157 12.9808V12.3126C25.5157 12.0818 25.5044 12.0335 25.4478 11.9917C25.3935 11.9521 25.2849 11.928 25.1197 11.928C24.9748 11.928 24.8255 11.9455 24.6852 11.9829V12.9808H24.4159V11.7587H24.658L24.6784 11.8466C24.7304 11.8181 24.7712 11.7961 24.83 11.7807C24.9183 11.7543 25.0314 11.7411 25.183 11.7411C25.355 11.7411 25.4886 11.7675 25.5904 11.8115C25.69 11.8532 25.7443 11.9324 25.7669 12.0247C25.7805 12.0884 25.785 12.1434 25.785 12.2818V12.9808H25.5157Z" fill="#03426A"/>
<path d="M27.2718 12.9808L26.6223 12.4027H26.525V12.9808H26.2557V11.2356H26.525V12.2291H26.6223L27.1609 11.7587H27.4755L26.8486 12.2972L27.6294 12.9808H27.2718Z" fill="#03426A"/>
</g>
<defs>
<clipPath id="clip0_13183_8911">
<rect width="26" height="4" fill="white" transform="translate(3 10)"/>
</clipPath>
</defs>
</svg>
