<svg width="32" height="24" viewBox="0 0 32 24" fill="none" xmlns="http://www.w3.org/2000/svg">
<rect x="0.5" y="0.5" width="31" height="23" rx="3.5" fill="white"/>
<rect x="0.5" y="0.5" width="31" height="23" rx="3.5" stroke="#DBD9D7"/>
<path d="M11.0781 17.4687H12.7187V18.5625H9.98437V9.99843C9.15859 10.7477 8.59531 11.2836 8.5789 11.3L7.82421 10.5125C8.00468 10.3594 12.3414 6.17578 15.0758 4.5789C15.359 4.42948 15.6743 4.35138 15.9945 4.35138C16.3147 4.35138 16.6301 4.42948 16.9133 4.5789C19.6477 6.18671 24.0227 10.3484 24.1758 10.5234L23.4211 11.3109C23.4211 11.3109 22.8414 10.7641 22.0156 10.0094V12H20.9219V9.01953C19.504 7.72979 17.9822 6.55915 16.3719 5.51953C16.2528 5.46422 16.1231 5.43557 15.9918 5.43557C15.8605 5.43557 15.7308 5.46422 15.6117 5.51953C14.0062 6.55863 12.4898 7.72933 11.0781 9.01953V17.4687ZM24.2031 14.7344V18.5625C24.2031 18.9976 24.0303 19.4149 23.7226 19.7226C23.4149 20.0303 22.9976 20.2031 22.5625 20.2031H15.4531C15.018 20.2031 14.6007 20.0303 14.293 19.7226C13.9853 19.4149 13.8125 18.9976 13.8125 18.5625V14.7344C13.8125 14.2992 13.9853 13.8819 14.293 13.5743C14.6007 13.2666 15.018 13.0937 15.4531 13.0937H22.5625C22.9976 13.0937 23.4149 13.2666 23.7226 13.5743C24.0303 13.8819 24.2031 14.2992 24.2031 14.7344V14.7344ZM14.9062 14.7344V15.2812H23.1094V14.7344C23.1094 14.5893 23.0518 14.4502 22.9492 14.3477C22.8466 14.2451 22.7075 14.1875 22.5625 14.1875H15.4531C15.3081 14.1875 15.169 14.2451 15.0664 14.3477C14.9639 14.4502 14.9062 14.5893 14.9062 14.7344ZM23.1094 18.5625V16.375H14.9062V18.5625C14.9062 18.7075 14.9639 18.8466 15.0664 18.9492C15.169 19.0518 15.3081 19.1094 15.4531 19.1094H22.5625C22.7075 19.1094 22.8466 19.0518 22.9492 18.9492C23.0518 18.8466 23.1094 18.7075 23.1094 18.5625ZM16 18.5625H17.6406V17.4687H16V18.5625Z" fill="#242E30"/>
</svg>
