<svg width="32" height="24" viewBox="0 0 32 24" fill="none" xmlns="http://www.w3.org/2000/svg">
<rect x="0.5" y="0.5" width="31" height="23" rx="3.5" fill="white"/>
<rect x="0.5" y="0.5" width="31" height="23" rx="3.5" stroke="#DBD9D7"/>
<path d="M13.2667 23.0334L31 17.6667V20.0334C31 21.6902 29.6569 23.0334 28 23.0334H13.2667Z" fill="#FD6020"/>
<path fill-rule="evenodd" clip-rule="evenodd" d="M27.6341 10.0701C28.6097 10.0701 29.1463 10.5214 29.1463 11.3739C29.1951 12.0258 28.756 12.5774 28.1707 12.6777L29.4878 14.533H28.4634L27.3414 12.7278H27.2439V14.533H26.4146V10.0701H27.6341ZM27.2438 12.1261H27.4878C28.0243 12.1261 28.2682 11.8754 28.2682 11.4241C28.2682 11.0229 28.0243 10.7722 27.4878 10.7722H27.2438V12.1261ZM23.5366 14.533H25.878V13.7809H24.3658V12.5774H25.8292V11.8252H24.3658V10.8223H25.878V10.0701H23.5366V14.533ZM21.0975 13.0788L19.9756 10.0701H19.0975L20.9024 14.6333H21.3414L23.1463 10.0701H22.2683L21.0975 13.0788ZM11.1951 12.3267C11.1951 13.5803 12.1707 14.6333 13.3902 14.6333C13.7805 14.6333 14.1219 14.533 14.4634 14.3826V13.3797C14.2195 13.6806 13.878 13.8812 13.4878 13.8812C12.7073 13.8812 12.0732 13.2794 12.0732 12.4771V12.3768C12.0244 11.5745 12.6585 10.8725 13.439 10.8223C13.8293 10.8223 14.2195 11.0229 14.4634 11.3238V10.3209C14.1707 10.1203 13.7805 10.0701 13.439 10.0701C12.1707 9.96984 11.1951 11.0229 11.1951 12.3267ZM9.68291 11.7751C9.19511 11.5745 9.04876 11.4742 9.04876 11.2235C9.09754 10.9226 9.34145 10.6719 9.63413 10.722C9.87803 10.722 10.1219 10.8725 10.3171 11.073L10.7561 10.4713C10.4146 10.1704 9.97559 9.96984 9.53657 9.96984C8.85364 9.9197 8.26828 10.4713 8.2195 11.1733V11.2235C8.2195 11.8252 8.4634 12.1762 9.24389 12.427C9.43901 12.4771 9.63413 12.5774 9.82925 12.6777C9.97559 12.778 10.0732 12.9284 10.0732 13.129C10.0732 13.48 9.78047 13.7809 9.48779 13.7809H9.43901C9.04876 13.7809 8.7073 13.5301 8.56096 13.1791L8.02438 13.7307C8.31706 14.2823 8.90242 14.5832 9.48779 14.5832C10.2683 14.6333 10.9024 14.0316 10.9512 13.2293V13.0788C10.9024 12.4771 10.6585 12.1762 9.68291 11.7751ZM6.85365 14.533H7.68292V10.0701H6.85365V14.533ZM3 10.0701H4.21951H4.46341C5.63414 10.1203 6.56097 11.1232 6.51219 12.3267C6.51219 12.9786 6.21951 13.5803 5.7317 14.0316C5.29268 14.3826 4.75609 14.5832 4.21951 14.5331H3V10.0701ZM4.07318 13.7809C4.46342 13.831 4.90244 13.6806 5.19513 13.4299C5.48781 13.129 5.63415 12.7278 5.63415 12.2765C5.63415 11.8754 5.48781 11.4742 5.19513 11.1733C4.90244 10.9226 4.46342 10.7722 4.07318 10.8223H3.82927V13.7809H4.07318Z" fill="black"/>
<path fill-rule="evenodd" clip-rule="evenodd" d="M16.9512 9.96667C15.7317 9.96667 14.7073 10.9696 14.7073 12.2734C14.7073 13.527 15.6829 14.58 16.9512 14.6302C18.2195 14.6803 19.1951 13.6273 19.2439 12.3235C19.1951 11.0197 18.2195 9.96667 16.9512 9.96667V9.96667Z" fill="#FD6020"/>
</svg>
