<svg width="32" height="24" viewBox="0 0 32 24" fill="none" xmlns="http://www.w3.org/2000/svg">
<rect width="32" height="24" rx="4" fill="#333333"/>
<rect x="0.5" y="0.5" width="31" height="23" rx="3.5" stroke="white" stroke-opacity="0.01"/>
<path d="M15.9987 5.07053L15.9058 5.38633V14.5502L15.9987 14.6429L20.2525 12.1285L15.9987 5.07053Z" fill="#E7E7E7"/>
<path d="M15.9987 5.07053L11.745 12.1285L15.9987 14.6429V10.1951V5.07053Z" fill="white"/>
<path d="M15.9987 15.4483L15.9464 15.5122V18.7765L15.9987 18.9295L20.255 12.9352L15.9987 15.4483Z" fill="#C8C8C8"/>
<path d="M15.9987 18.9294V15.4483L11.745 12.9352L15.9987 18.9294Z" fill="white"/>
<path d="M15.9987 14.6429L20.2524 12.1286L15.9987 10.1951V14.6429Z" fill="#C8C8C8"/>
<path d="M11.745 12.1286L15.9987 14.6429V10.1951L11.745 12.1286Z" fill="#E7E7E7"/>
</svg>
