<svg width="32" height="24" viewBox="0 0 32 24" fill="none" xmlns="http://www.w3.org/2000/svg">
<rect x="0.5" y="0.5" width="31" height="23" rx="3.5" fill="white"/>
<rect x="0.5" y="0.5" width="31" height="23" rx="3.5" stroke="#DBD9D7"/>
<path d="M15.9987 5.26291L15.9058 5.56994V14.4794L15.9987 14.5695L20.2525 12.125L15.9987 5.26291Z" fill="#353535"/>
<path d="M15.9987 5.26291L11.745 12.125L15.9987 14.5696V10.2452V5.26291Z" fill="#8C8C8C"/>
<path d="M15.9987 15.3526L15.9464 15.4146V18.5884L15.9987 18.7371L20.255 12.9092L15.9987 15.3526Z" fill="#3D3D3B"/>
<path d="M15.9987 18.737V15.3526L11.745 12.9092L15.9987 18.737Z" fill="#8C8C8C"/>
<path d="M15.9987 14.5695L20.2524 12.125L15.9987 10.2452V14.5695Z" fill="#151515"/>
<path d="M11.745 12.125L15.9987 14.5695V10.2452L11.745 12.125Z" fill="#383838"/>
</svg>
