<svg width="32" height="24" viewBox="0 0 32 24" fill="none" xmlns="http://www.w3.org/2000/svg">
<rect width="32" height="24" rx="4" fill="white"/>
<rect width="32" height="24" rx="4" fill="black"/>
<rect x="0.5" y="0.5" width="31" height="23" rx="3.5" stroke="white" stroke-opacity="0.01"/>
<g clip-path="url(#clip0_13202_9293)">
<path d="M8.96875 9.44907V10.9337H10.2862V17.3781H12.4833V10.9337H14.0005V9.44907H12.4833V8.97317C12.4833 8.61929 12.538 8.42133 12.6762 8.2749C12.8062 8.13661 13.0319 8.06746 13.3575 8.06746C13.6352 8.06746 13.9266 8.09051 14.1236 8.11356V6.48789C13.7351 6.44857 13.181 6.42688 12.9621 6.42688C12.0647 6.42688 11.393 6.65195 10.9497 7.10209C10.5064 7.55223 10.2848 8.12983 10.2848 8.83487V9.44907H8.96875Z" fill="white"/>
<path fill-rule="evenodd" clip-rule="evenodd" d="M20.8341 10.4158V6.42688H23.0312V17.3781H20.9422V16.3666H20.9108C20.3991 17.2316 19.5017 17.5828 18.4592 17.5828C16.2894 17.5828 14.8968 15.9463 14.8968 13.3512C14.8968 10.409 16.8408 9.23349 18.3402 9.23349C19.3279 9.23349 20.265 9.57923 20.804 10.4158H20.8341ZM17.0884 13.4149C17.0884 14.9809 17.8203 15.9531 18.9982 15.9531C20.2185 15.9531 20.908 15.0365 20.908 13.4149C20.908 11.7933 20.2185 10.8768 18.9982 10.8768C17.8203 10.8768 17.0884 11.8503 17.0884 13.4149Z" fill="white"/>
</g>
<defs>
<clipPath id="clip0_13202_9293">
<rect width="15" height="11.25" fill="white" transform="translate(8.5 6.38)"/>
</clipPath>
</defs>
</svg>
