<svg width="32" height="24" viewBox="0 0 32 24" fill="none" xmlns="http://www.w3.org/2000/svg">
<rect x="0.5" y="0.5" width="31" height="23" rx="3.5" fill="white"/>
<rect x="0.5" y="0.5" width="31" height="23" rx="3.5" stroke="#DBD9D7"/>
<path fill-rule="evenodd" clip-rule="evenodd" d="M6.20851 8.12903C5.66548 8.12992 5.22613 8.53034 5.22507 9.02518V9.02523V14.9748V14.9749C5.22508 14.9787 5.22511 14.9825 5.22517 14.9864C5.2254 15.0004 5.22597 15.0142 5.22689 15.028C5.25798 15.4979 5.68508 15.8701 6.20851 15.871H16.4407V15.871V8.12909V8.12903H6.20851ZM6.20851 7.45999H25.7915C26.7402 7.46014 27.5088 8.16041 27.5091 9.02521V14.9748C27.5088 15.8393 26.7402 16.5397 25.7915 16.54H6.20851C5.25976 16.5397 4.49125 15.8393 4.49092 14.9748V9.02521C4.49125 8.16041 5.25976 7.46014 6.20851 7.45999Z" fill="#0F3365"/>
<path fill-rule="evenodd" clip-rule="evenodd" d="M18.1153 14.0016H17.2563V10.8217H18.0486V11.2307H18.0582C18.23 10.9131 18.5929 10.7696 18.9843 10.7696C19.6717 10.7696 20.0485 11.3656 20.0485 11.9135C20.0485 12.5835 19.6524 13.1403 18.9125 13.1403C18.6119 13.1403 18.2873 13.0404 18.1249 12.7707H18.1153V14.0016ZM18.6407 12.54C18.9651 12.54 19.1608 12.2922 19.1608 11.9311C19.1608 11.6308 18.9747 11.3699 18.6407 11.3699C18.3255 11.3699 18.1153 11.6222 18.1153 11.9614C18.1153 12.2922 18.3542 12.54 18.6407 12.54ZM23.3404 14.0016C23.5171 14.0365 23.6936 14.054 23.8751 14.054C24.6182 14.054 24.8258 13.5622 25.0511 13.0284L25.0921 12.9318L26.004 10.8218H25.1448L24.6339 12.3007H24.6244L24.0897 10.8218H23.1641L24.1707 13.1403C24.1091 13.3404 23.9467 13.4536 23.737 13.4536C23.6173 13.4536 23.5122 13.4408 23.3979 13.4056L23.3404 14.0016ZM23.0202 13.1618C22.9821 12.9835 22.9724 12.8053 22.9724 12.6268V11.7829C22.9724 11.0913 22.4236 10.8434 21.7887 10.8434C21.421 10.8434 21.1013 10.8911 20.7958 11.0044L20.81 11.535C21.0489 11.4133 21.3256 11.3654 21.6023 11.3654C21.9127 11.3654 22.1658 11.448 22.1705 11.757C22.0607 11.7394 21.9081 11.7262 21.7697 11.7262C21.3114 11.7262 20.4857 11.8092 20.4857 12.5008C20.4857 12.9925 20.9248 13.2143 21.4165 13.2143C21.7697 13.2143 22.0083 13.0879 22.2039 12.8053H22.2133C22.2133 12.8743 22.2183 12.9433 22.2234 13.0131L22.2234 13.0131C22.227 13.0622 22.2306 13.1117 22.2325 13.1618H23.0202ZM21.2874 12.4443C21.2874 12.2268 21.5165 12.1442 21.8077 12.1442C21.899 12.1442 21.9879 12.1485 22.0709 12.1526L22.0709 12.1526C22.1052 12.1543 22.1384 12.1559 22.1705 12.1571C22.1705 12.4224 21.9654 12.6924 21.6405 12.6924C21.4402 12.6924 21.2874 12.6007 21.2874 12.4443Z" fill="#FFFFFE"/>
<path fill-rule="evenodd" clip-rule="evenodd" d="M9.78959 13.0879H10.6487V10.8217H9.78959V13.0879ZM9.78959 10.4519H10.6487V9.87772H9.78959V10.4519ZM12.7499 10.7696C12.85 10.7696 12.955 10.7826 13.041 10.7954L12.9979 11.448C12.9026 11.422 12.807 11.422 12.7069 11.422C12.306 11.422 12.0816 11.6874 12.0816 12.1312V13.088H11.2225V10.8217H12.0053V11.2392H12.0147C12.1628 10.9522 12.3776 10.7696 12.7499 10.7696ZM15.9664 11.9572C15.9664 12.7054 15.3411 13.1403 14.5203 13.1403C13.6994 13.1403 13.074 12.7054 13.074 11.9572C13.074 11.2044 13.6994 10.7696 14.5203 10.7696C15.3411 10.7696 15.9664 11.2044 15.9664 11.9572ZM13.9618 11.9572C13.9618 12.2922 14.1241 12.5922 14.5203 12.5922C14.9164 12.5922 15.0788 12.2922 15.0788 11.9572C15.0788 11.6178 14.9164 11.3177 14.5203 11.3177C14.1241 11.3177 13.9618 11.6178 13.9618 11.9572ZM8.41856 10.8217H9.19674V12.8229C9.19674 13.7536 8.70035 14.0539 7.69798 14.0539C7.28756 14.0539 6.94864 13.9755 6.7481 13.9105L6.79117 13.2927C7.05362 13.4101 7.27318 13.4797 7.63119 13.4797C8.12766 13.4797 8.39483 13.2666 8.39483 12.8229V12.7008H8.38516C8.18007 12.9665 7.89373 13.088 7.55009 13.088C6.86746 13.088 6.44266 12.6186 6.44266 11.9484C6.44266 11.274 6.79117 10.7696 7.56431 10.7696C7.93175 10.7696 8.22777 10.9522 8.40921 11.2305H8.41856V10.8217ZM7.81738 11.3699C7.49755 11.3699 7.33049 11.6265 7.33049 11.9353C7.33049 12.2875 7.55963 12.4879 7.81738 12.4879C8.12274 12.4879 8.36626 12.253 8.36626 11.9048C8.36626 11.6524 8.20391 11.3699 7.81738 11.3699Z" fill="#D8232A"/>
</svg>
