<svg width="32" height="24" viewBox="0 0 32 24" fill="none" xmlns="http://www.w3.org/2000/svg">
<rect width="32" height="24" rx="4" fill="black"/>
<rect x="0.5" y="0.5" width="31" height="23" rx="3.5" stroke="white" stroke-opacity="0.01"/>
<path fill-rule="evenodd" clip-rule="evenodd" d="M15.2463 14.2577V11.91H16.458C16.9545 11.91 17.3736 11.7436 17.7152 11.4155L17.7972 11.3323C18.4213 10.6529 18.3803 9.59461 17.7152 8.96609C17.3827 8.63334 16.9272 8.4531 16.458 8.46234H14.5129V14.2577H15.2463ZM15.2464 11.1982V9.17402H16.4765C16.7407 9.17402 16.9913 9.27569 17.1781 9.46055C17.5745 9.84876 17.5836 10.4958 17.2009 10.8978C17.0141 11.0966 16.7498 11.2075 16.4765 11.1982H15.2464ZM21.2182 10.6021C20.9039 10.3109 20.4757 10.163 19.9337 10.163C19.2367 10.163 18.7129 10.4219 18.3667 10.9348L19.0135 11.3462C19.2504 10.9949 19.5738 10.8193 19.9838 10.8193C20.2434 10.8193 20.494 10.9164 20.6898 11.092C20.8812 11.2583 20.9905 11.4987 20.9905 11.7528V11.9238C20.7081 11.7667 20.3527 11.6835 19.9154 11.6835C19.4053 11.6835 18.9953 11.8037 18.6901 12.0486C18.3849 12.2936 18.23 12.6171 18.23 13.0284C18.2209 13.4027 18.3803 13.7586 18.6627 13.9989C18.9497 14.2577 19.3141 14.3871 19.7423 14.3871C20.248 14.3871 20.6488 14.1606 20.954 13.7077H20.9859V14.2577H21.6874V11.8129C21.6874 11.2999 21.5326 10.8932 21.2182 10.6021ZM19.2277 13.5275C19.0774 13.4166 18.9862 13.2364 18.9862 13.0423C18.9862 12.825 19.0865 12.6448 19.2824 12.5015C19.4829 12.3583 19.7334 12.2843 20.0296 12.2843C20.4396 12.2797 20.7585 12.3721 20.9863 12.557C20.9863 12.8713 20.8633 13.1439 20.6219 13.375C20.4032 13.5968 20.107 13.7216 19.7972 13.7216C19.5922 13.7262 19.3917 13.6569 19.2277 13.5275ZM23.2636 16L25.7143 10.2924H24.9171L23.7829 13.1393H23.7692L22.6076 10.2924H21.8104L23.4185 14.0035L22.5074 16H23.2636Z" fill="white"/>
<path d="M12.7143 11.4016C12.7143 11.1752 12.6961 10.9487 12.6596 10.7269H9.56662V12.007H11.3386C11.2657 12.4183 11.0289 12.7881 10.6827 13.0191V13.851H11.7395C12.359 13.2733 12.7143 12.4183 12.7143 11.4016Z" fill="#4285F4"/>
<path d="M9.56675 14.6552C10.4505 14.6552 11.1975 14.3594 11.7396 13.851L10.6828 13.0192C10.3867 13.2225 10.0086 13.338 9.56675 13.338C8.71036 13.338 7.98607 12.7511 7.72642 11.9655H6.63771V12.8251C7.19345 13.9481 8.32772 14.6552 9.56675 14.6552Z" fill="#34A853"/>
<path d="M7.72655 11.9655C7.58987 11.5542 7.58987 11.1059 7.72655 10.6899V9.83496H6.63767C6.1684 10.7731 6.1684 11.8823 6.63767 12.8204L7.72655 11.9655Z" fill="#FBBC04"/>
<path d="M9.56675 9.31733C10.0359 9.30808 10.4869 9.48832 10.824 9.81645L11.7624 8.86442C11.1656 8.3006 10.3821 7.99096 9.56675 8.0002C8.32772 8.0002 7.19345 8.71191 6.63771 9.83494L7.72642 10.6945C7.98607 9.90426 8.71036 9.31733 9.56675 9.31733Z" fill="#EA4335"/>
</svg>
