<svg width="32" height="24" viewBox="0 0 32 24" fill="none" xmlns="http://www.w3.org/2000/svg">
<rect width="32" height="24" rx="4" fill="#CC0066"/>
<rect x="0.5" y="0.5" width="31" height="23" rx="3.5" stroke="white" stroke-opacity="0.01"/>
<g clip-path="url(#clip0_10328_10938)">
<path d="M8.375 6.22709V17.7729C8.375 18.3256 8.82338 18.7778 9.37141 18.7778H16.2117C21.3831 18.7778 23.625 15.8587 23.625 11.9849C23.625 8.1313 21.3831 5.22223 16.2117 5.22223H9.37141C8.82338 5.22223 8.375 5.67442 8.375 6.22709Z" fill="white"/>
<path d="M12.9535 8.05592V16.5872H16.6352C19.9782 16.5872 21.4279 14.683 21.4279 11.9899C21.4279 9.41248 19.9782 7.41281 16.6352 7.41281H13.5912C13.2375 7.41281 12.9535 7.70422 12.9535 8.05592Z" fill="#CC0066"/>
<path d="M16.2117 17.8583H10.2632C9.7351 17.8583 9.30664 17.4262 9.30664 16.8937V7.11136C9.30664 6.57879 9.7351 6.1467 10.2632 6.1467H16.2117C21.8564 6.1467 22.6983 9.80941 22.6983 11.99C22.6983 15.7733 20.3917 17.8583 16.2117 17.8583ZM10.2632 6.46825C9.90947 6.46825 9.62549 6.75464 9.62549 7.11136V16.8937C9.62549 17.2504 9.90947 17.5368 10.2632 17.5368H16.2117C20.1874 17.5368 22.3795 15.5673 22.3795 11.99C22.3795 7.18673 18.5134 6.46825 16.2117 6.46825H10.2632Z" fill="black"/>
<path d="M14.2488 10.8394C14.3784 10.8394 14.4979 10.8595 14.6125 10.8997C14.7271 10.9399 14.8218 11.0052 14.9065 11.0856C14.9862 11.171 15.0509 11.2765 15.1008 11.3971C15.1456 11.5227 15.1705 11.6684 15.1705 11.8392C15.1705 11.99 15.1506 12.1256 15.1157 12.2512C15.0758 12.3768 15.021 12.4874 14.9463 12.5778C14.8716 12.6682 14.7769 12.7386 14.6623 12.7939C14.5477 12.8441 14.4132 12.8742 14.2588 12.8742H13.3869V10.8344H14.2488V10.8394ZM14.2189 12.5024C14.2837 12.5024 14.3435 12.4924 14.4082 12.4723C14.468 12.4522 14.5228 12.417 14.5677 12.3668C14.6125 12.3165 14.6524 12.2563 14.6823 12.1759C14.7122 12.0955 14.7271 12.005 14.7271 11.8895C14.7271 11.789 14.7171 11.6935 14.6972 11.6131C14.6773 11.5328 14.6424 11.4574 14.5976 11.4021C14.5527 11.3469 14.4929 11.2966 14.4182 11.2665C14.3435 11.2363 14.2538 11.2213 14.1442 11.2213H13.8254V12.5075H14.2189V12.5024Z" fill="white"/>
<path d="M16.969 10.8394V11.2162H15.9029V11.6533H16.8843V12H15.9029V12.4974H16.9939V12.8742H15.4595V10.8344H16.969V10.8394Z" fill="white"/>
<path d="M18.4935 10.8394L19.2508 12.8793H18.7875L18.633 12.4271H17.8758L17.7163 12.8793H17.2679L18.0302 10.8394H18.4935ZM18.5184 12.0905L18.2644 11.3418H18.2594L17.9953 12.0905H18.5184Z" fill="white"/>
<path d="M19.9732 10.8394V12.5025H20.9596V12.8793H19.5298V10.8394H19.9732Z" fill="white"/>
<path d="M11.2895 12.7989C11.804 12.7989 12.2211 12.3782 12.2211 11.8593C12.2211 11.3404 11.804 10.9198 11.2895 10.9198C10.775 10.9198 10.3578 11.3404 10.3578 11.8593C10.3578 12.3782 10.775 12.7989 11.2895 12.7989Z" fill="black"/>
<path d="M11.9919 16.5872C11.2098 16.5872 10.582 15.9491 10.582 15.1653V14.0549C10.582 13.663 10.8959 13.3415 11.2895 13.3415C11.6781 13.3415 11.9969 13.658 11.9969 14.0549V16.5872H11.9919Z" fill="black"/>
</g>
<defs>
<clipPath id="clip0_10328_10938">
<rect width="15.25" height="13.5556" fill="white" transform="translate(8.375 5.22223)"/>
</clipPath>
</defs>
</svg>
