<svg width="32" height="24" viewBox="0 0 32 24" fill="none" xmlns="http://www.w3.org/2000/svg">
<rect width="32" height="24" rx="4" fill="#F36805"/>
<rect x="0.5" y="0.5" width="31" height="23" rx="3.5" stroke="white" stroke-opacity="0.01"/>
<g clip-path="url(#clip0_13202_9279)">
<path d="M21.1988 16.6759V14.2685L20.9592 14.726L20.6814 15.2544L20.4145 15.7663V15.799H20.3982L20.1149 16.3437L19.3633 17.7816L19.3143 17.8796H21.1988V20.1345H21.2642L21.8143 19.0833L21.8796 18.9581L22.1029 18.5387L23.0616 16.7086C23.0616 16.7086 23.0616 16.6868 23.0616 16.6759H21.1988Z" fill="white"/>
<path d="M22.1792 6.75219L16.0027 3.85458L9.82081 6.75219C9.27615 7.00818 8.92212 7.59641 8.92212 8.25546V9.70426H10.5016V15.2598C9.62473 15.287 8.92212 16.006 8.92212 16.8829L8.90033 19.0833H17.457L17.5169 18.969L18.0234 17.994H9.9951L10.006 16.8884C10.006 16.5888 10.2511 16.3437 10.5507 16.3437H18.8785L19.445 15.2544H18.1923V9.70426H20.409V13.4134L20.9537 12.3677L21.4984 11.3274V9.70426H23.0779V8.25546C23.0779 7.59641 22.7239 7.00818 22.1792 6.75219ZM13.8023 15.2544H11.5855V9.70426H13.8023V15.2544ZM17.1084 15.2544H14.8916V9.70426H17.1084V15.2544ZM21.994 8.61493H10.0114V8.25546C10.0114 8.0267 10.1258 7.81428 10.2838 7.73803L16.0027 5.05829L21.7217 7.73803C21.8796 7.81428 21.994 8.0267 21.994 8.25546V8.61493Z" fill="white"/>
</g>
<defs>
<clipPath id="clip0_13202_9279">
<rect width="17.5" height="17.5" fill="white" transform="translate(7.25 3.25)"/>
</clipPath>
</defs>
</svg>
