<svg width="32" height="24" viewBox="0 0 32 24" fill="none" xmlns="http://www.w3.org/2000/svg">
<rect width="32" height="24" rx="4" fill="black"/>
<rect x="0.5" y="0.5" width="31" height="23" rx="3.5" stroke="white" stroke-opacity="0.01"/>
<path d="M20.2881 12.2568C20.7472 12.2668 21.2088 12.2366 21.6661 12.2726C22.1291 12.3589 22.2407 13.0599 21.8293 13.2895C21.5486 13.4407 21.2152 13.3458 20.9109 13.3725H20.2881V12.2568ZM21.9315 10.9941C22.0335 11.3541 21.6864 11.6773 21.3397 11.6277H20.2881C20.2955 11.2882 20.2737 10.9197 20.2988 10.5981C20.7201 10.61 21.1452 10.5739 21.5641 10.617C21.744 10.6622 21.8946 10.8101 21.9315 10.9941ZM24.4623 5.65539C24.4819 6.3429 24.4652 7.06674 24.4708 7.76819C24.4695 10.62 24.4735 13.4718 24.4686 16.3238C24.4501 17.3926 23.5029 18.3213 22.4415 18.3427C21.379 18.347 20.3165 18.3433 19.2539 18.3445V14.0331C20.4116 14.0271 21.5699 14.0452 22.7272 14.0241C23.264 13.9904 23.8521 13.6361 23.8771 13.0454C23.9403 12.452 23.3809 12.0416 22.8497 11.9768C22.6456 11.9715 22.6516 11.9173 22.8497 11.8936C23.3563 11.7841 23.7541 11.2599 23.6051 10.7348C23.4781 10.1825 22.8677 9.9688 22.36 9.96986C21.3248 9.96283 20.2894 9.96888 19.2541 9.96683C19.2608 9.16195 19.2402 8.35619 19.2652 7.5519C19.3473 6.50239 20.3183 5.63689 21.3648 5.65566C22.3974 5.65551 23.4299 5.65551 24.4623 5.65547V5.65539Z" fill="white"/>
<path d="M7.5554 7.66061C7.58184 6.5935 8.53309 5.67241 9.59313 5.65682C10.6516 5.65356 11.7103 5.65635 12.7688 5.6554C12.7659 9.22572 12.7745 12.7964 12.7644 16.3665C12.7237 17.4207 11.7828 18.3242 10.7343 18.3429C9.67378 18.3467 8.61316 18.3434 7.55261 18.3445V13.8877C8.58275 14.1311 9.66302 14.2347 10.7139 14.0733C11.3421 13.9722 12.0294 13.6637 12.2421 13.012C12.3986 12.4545 12.3105 11.8678 12.3338 11.2956V9.96685H10.5151C10.5069 10.8457 10.5318 11.726 10.5019 12.6038C10.4529 13.1433 9.9186 13.4861 9.40975 13.4678C8.7787 13.4745 7.52817 13.0104 7.52817 13.0104C7.52503 11.3639 7.54648 9.30185 7.5554 7.66077V7.66061Z" fill="white"/>
<path d="M13.447 10.5028C13.3513 10.5231 13.4278 10.1767 13.4033 10.0453C13.4098 9.21447 13.3897 8.38272 13.4144 7.55245C13.4962 6.4985 14.4747 5.63084 15.5255 5.65551H18.6197C18.6168 9.22583 18.6254 12.7965 18.6154 16.3666C18.5746 17.4208 17.6336 18.3243 16.5851 18.343C15.5246 18.347 14.4639 18.3436 13.4033 18.3446V13.4616C14.1276 14.056 15.1121 14.1485 16.0145 14.1501C16.6949 14.1499 17.3712 14.045 18.0319 13.8881V12.9935C17.2873 13.3646 16.4121 13.6003 15.5867 13.3871C15.011 13.2438 14.5931 12.6874 14.6024 12.0932C14.5357 11.4753 14.8979 10.823 15.5051 10.6393C16.259 10.4032 17.0806 10.5838 17.7873 10.8906C17.9387 10.9699 18.0924 11.0682 18.0318 10.8151V10.112C16.8499 9.8308 15.5922 9.72732 14.4048 10.0332C14.0611 10.1302 13.7262 10.2772 13.447 10.5029V10.5028Z" fill="white"/>
</svg>
