<svg width="32" height="24" viewBox="0 0 32 24" fill="none" xmlns="http://www.w3.org/2000/svg">
<rect width="32" height="24" rx="4" fill="#F36805"/>
<rect x="0.5" y="0.5" width="31" height="23" rx="3.5" stroke="white" stroke-opacity="0.01"/>
<path d="M16.4073 9.17411H14.1823V14.7067H15.3544V12.8691H16.4073C17.5595 12.8691 18.374 12.0944 18.374 11.0216C18.374 9.94887 17.5694 9.17411 16.4073 9.17411ZM16.298 11.8659H15.3544V10.1773H16.298C16.8145 10.1773 17.1721 10.5051 17.1721 11.0216C17.1721 11.5381 16.8145 11.8659 16.298 11.8659Z" fill="white"/>
<path d="M10.9938 10.0879C10.9938 10.0879 10.964 10.0482 10.964 10.0184C10.8945 9.19397 10.7753 8.37947 10.7753 8.37947C10.7554 8.29008 10.676 8.22055 10.5766 8.20068L9.90121 8.12122C9.82175 8.12122 9.76215 8.18082 9.76215 8.26028V9.07478C9.76215 9.07478 8.86819 8.04176 8.41128 7.76364C8.32188 7.70404 8.20269 7.66431 8.08349 7.66431C7.9643 7.66431 7.85504 7.69411 7.75571 7.76364C5.48108 9.16417 4.22953 11.4587 4.17987 11.5779C4.16994 11.6077 4.16 11.6375 4.16 11.6772C4.16 11.7865 4.22953 11.8759 4.32886 11.8957L4.98443 12.0248C5.07383 12.0447 5.13343 12.1242 5.14336 12.2136C5.14336 12.3328 5.27249 14.9153 5.43141 15.5808C5.45128 15.6801 5.55061 15.7497 5.64994 15.7497L10.4972 15.7298C10.6064 15.7298 10.6859 15.6603 10.7157 15.561C10.8746 14.8855 10.9938 12.303 11.0038 12.1937C11.0137 12.1043 11.0832 12.0248 11.1627 12.005L11.8183 11.8759C11.9176 11.856 11.9871 11.7567 11.9871 11.6573C11.9871 11.6375 11.9871 11.6077 11.9673 11.5779C11.9474 11.5083 11.5997 10.8826 10.964 10.0879H10.9938Z" fill="white"/>
<path d="M20.887 10.4058C20.0526 10.4058 19.4566 10.7038 19.1388 11.0912L19.8142 11.7467C20.003 11.5381 20.3605 11.3891 20.7877 11.3891C21.3042 11.3891 21.6816 11.6275 21.6816 12.144V12.2136L20.589 12.2632C19.4467 12.3228 18.8805 12.7797 18.8805 13.5346C18.8805 14.3392 19.5361 14.8061 20.4499 14.8061C21.026 14.8061 21.483 14.5975 21.7313 14.2498H21.7511V14.6968H22.7842V12.0646C22.7842 11.1011 22.1286 10.3859 20.8969 10.3859L20.887 10.4058ZM21.6816 13.1572C21.6816 13.6638 21.2346 14.0114 20.6486 14.0114C20.2711 14.0114 19.9732 13.8525 19.9732 13.5247C19.9732 13.2267 20.2413 13.0579 20.7082 13.0281L21.6816 12.9685V13.1572Z" fill="white"/>
<path d="M25.6051 13.3757H25.5852L24.5026 10.5051H23.2907L24.9793 14.7266C24.7707 15.1835 24.6118 15.3524 24.1549 15.3524C24.0158 15.3524 23.8768 15.3325 23.7874 15.3126V16.2861C23.9165 16.3158 24.1052 16.3357 24.2542 16.3357C25.317 16.3357 25.7144 15.7695 26.1514 14.6968L27.84 10.4952H26.6679L25.5852 13.3658L25.6051 13.3757Z" fill="white"/>
</svg>
