<svg width="32" height="24" viewBox="0 0 32 24" fill="none" xmlns="http://www.w3.org/2000/svg">
<rect x="0.5" y="0.5" width="31" height="23" rx="3.5" fill="white"/>
<rect x="0.5" y="0.5" width="31" height="23" rx="3.5" stroke="#DBD9D7"/>
<path fill-rule="evenodd" clip-rule="evenodd" d="M5.53084 14.6481H4.36021V9.25H5.53084V14.6481ZM8.45342 9.25H7.30818C7.30818 10.2434 6.87661 11.1552 6.12417 11.7517L5.67044 12.1113L7.42849 14.6484H8.87393L7.2563 12.3139C8.02309 11.5058 8.45342 10.4187 8.45342 9.25ZM10.3206 14.6467H9.21507V9.25103H10.3206V14.6467ZM13.6607 10.9143V11.1531C13.3624 10.9377 13.0024 10.8111 12.6141 10.8111C11.5863 10.8111 10.7531 11.6929 10.7531 12.7806C10.7531 13.8683 11.5863 14.75 12.6141 14.75C13.0024 14.75 13.3624 14.6234 13.6607 14.4081V14.6467H14.7167V10.9143H13.6607ZM13.6576 12.7806C13.6576 13.3109 13.2292 13.7409 12.7007 13.7409C12.1724 13.7409 11.744 13.3109 11.744 12.7806C11.744 12.2502 12.1724 11.8204 12.7007 11.8204C13.2292 11.8204 13.6576 12.2502 13.6576 12.7806ZM24.8004 11.1531V10.9143H25.8563V14.6467H24.8004V14.4081C24.5021 14.6234 24.1421 14.75 23.7537 14.75C22.7259 14.75 21.8928 13.8683 21.8928 12.7806C21.8928 11.6929 22.7259 10.8111 23.7537 10.8111C24.1421 10.8111 24.5021 10.9377 24.8004 11.1531ZM23.8404 13.7409C24.3688 13.7409 24.7971 13.3109 24.7971 12.7806C24.7971 12.2502 24.3688 11.8204 23.8404 11.8204C23.3119 11.8204 22.8836 12.2502 22.8836 12.7806C22.8836 13.3109 23.3119 13.7409 23.8404 13.7409ZM26.3146 14.0241C26.3146 13.6368 26.6112 13.3228 26.9772 13.3228C27.3431 13.3228 27.6398 13.6368 27.6398 14.0241C27.6398 14.4113 27.3431 14.7253 26.9772 14.7253C26.6112 14.7253 26.3146 14.4113 26.3146 14.0241ZM20.0164 10.8139C19.5946 10.8139 19.1954 10.9525 18.9286 11.3348V10.9145H17.8772V14.6467H18.9415V12.6853C18.9415 12.1177 19.3011 11.8398 19.7341 11.8398C20.1982 11.8398 20.465 12.1332 20.465 12.6776V14.6467H21.5196V12.2732C21.5196 11.4046 20.8671 10.8139 20.0164 10.8139ZM16.3501 10.9143V11.4005C16.5618 11.1089 16.9562 10.9146 17.385 10.9146V12.0006L17.3791 12.0004L17.3724 12.0001C16.9546 12.0001 16.3525 12.3162 16.3525 12.9041V14.6467H15.269V10.9143H16.3501Z" fill="#17120F"/>
</svg>
