<svg width="32" height="24" viewBox="0 0 32 24" fill="none" xmlns="http://www.w3.org/2000/svg">
<rect x="0.5" y="0.5" width="31" height="23" rx="3.5" fill="white"/>
<rect x="0.5" y="0.5" width="31" height="23" rx="3.5" stroke="#DBD9D7"/>
<path fill-rule="evenodd" clip-rule="evenodd" d="M23.935 12C23.935 16.3824 20.3824 19.935 16 19.935C11.6176 19.935 8.065 16.3824 8.065 12C8.065 7.61762 11.6176 4.065 16 4.065C20.3824 4.065 23.935 7.61762 23.935 12ZM13.846 12.5892L14.9646 8.39334H17.389L16.5498 11.6569L17.6689 11.1907L17.389 12.2162L16.27 12.5892L15.7107 14.6405H19.7202L19.3472 16.1321H12.9133L13.5662 13.6146L12.6339 13.9876L12.9133 12.9622L13.846 12.5892Z" fill="#A5A8A9"/>
</svg>
