<svg width="32" height="24" viewBox="0 0 32 24" fill="none" xmlns="http://www.w3.org/2000/svg">
<rect x="0.5" y="0.5" width="31" height="23" rx="3.5" fill="white"/>
<rect x="0.5" y="0.5" width="31" height="23" rx="3.5" stroke="#DBD9D7"/>
<g clip-path="url(#clip0_13183_8979)">
<path fill-rule="evenodd" clip-rule="evenodd" d="M23.8446 12.3781C24.1673 12.6115 24.5 12.7828 24.5 13.1541C24.5 13.2619 24.36 13.3687 24.0485 13.3687C23.8121 13.3687 23.5544 13.3042 23.4357 13.133C23.3393 13.0051 23.4794 12.835 23.3931 12.7083C23.3281 12.6015 23.178 12.6538 23.0805 12.6015C22.9629 12.5371 22.9528 12.4848 22.8766 12.3247C22.7915 12.1335 22.5002 11.8144 22.1563 11.4742C21.8661 11.1873 21.5546 11.0383 21.4146 11.0495C21.3171 11.0595 21.2846 11.0595 21.1883 11.0595C20.9407 11.0595 20.7256 11.2941 20.3704 11.4419C20.124 11.5487 19.9839 11.612 19.8226 11.6343L19.7688 11.6976L20.0915 11.6876C20.3917 11.6876 20.7906 11.6443 21.0908 11.6443C21.4045 11.6443 21.5546 11.9211 21.6734 12.208C21.9098 12.7928 22.2649 13.6333 22.6839 14.3348C22.8878 14.665 23.0604 14.8785 23.0604 15.2832C23.0604 15.4111 23.0492 15.5812 22.8766 15.5812C22.6402 15.5812 22.0386 15.3366 22.0386 15.0697C22.0386 14.8674 22.1999 14.7818 22.1999 14.5794C22.1999 14.4527 22.0061 14.4738 21.9636 14.3571C21.8123 13.73 21.6297 13.1119 21.2746 12.7394C21.0908 12.5482 21.0695 12.4626 20.8869 12.4626C20.7906 12.4626 20.6931 12.4848 20.6068 12.517C20.1128 12.6972 19.4574 13.2408 18.6406 13.4854C18.3281 13.581 18.2743 13.3998 17.9527 13.4643H17.974C17.7141 13.5165 17.5102 13.6655 17.1551 13.7611C16.661 13.9001 15.8118 13.9635 15.134 13.879C14.6511 13.8145 14.026 13.7189 13.7571 13.73C13.5532 14.3148 13.1118 15.0808 12.4676 15.3799C12.1236 15.5278 12.0161 15.7401 12.1236 16.1226C12.2525 16.6007 12.6827 16.952 12.9079 17.3567C13.1118 17.7069 13.4456 18.2606 13.7997 18.4407C14.1548 18.6219 14.371 18.8876 14.371 19.11C14.371 19.2167 14.3273 19.2801 14.2198 19.2801H13.5106C13.4019 19.2801 13.3482 19.2167 13.3269 19.1734C13.2305 18.9933 13.2944 18.8232 13.1667 18.6642C13.0692 18.5474 12.9941 18.5786 12.8754 18.4841C12.6603 18.2817 12.8216 18.165 12.6603 17.9082C12.2088 17.2077 12.0161 17.0376 11.6396 16.5373C11.4245 16.2716 11.1669 16.1437 11.1669 15.7935C11.1669 15.3688 11.596 15.2943 11.5859 14.8674C11.3058 15.0697 10.9831 15.2298 10.4879 15.2943C10.423 15.3043 10.2515 15.4322 10.1765 15.5178C10.004 15.6868 9.9401 15.8569 9.91769 16.1126C9.86391 16.6863 9.74628 17.2711 9.82134 17.8448C9.91769 18.2183 9.98267 18.3451 10.2941 18.5474C10.4879 18.6742 10.7142 18.8554 10.7355 19.1211C10.7355 19.1945 10.7142 19.2801 10.6056 19.2801H9.84263C9.76756 19.2801 9.7037 19.2267 9.6813 19.1845C9.59503 19.0355 9.64881 18.9299 9.61744 18.7598C9.54125 18.4096 9.14354 18.4307 9.14354 18.0694C9.14354 17.9615 9.20851 17.8237 9.21972 17.6002C9.241 17.1121 9.39113 16.3249 9.241 15.3688C9.17602 14.814 9.75636 14.7929 10.0577 14.3037C10.2403 14.0269 10.1866 14.1447 10.2941 13.9424C10.4017 13.73 10.3804 13.581 10.3703 13.4532C10.3703 13.2931 10.2079 12.9518 10.3165 12.2613C10.3591 11.9522 10.5092 11.6443 10.7142 11.3786C10.7142 11.3674 10.7142 11.3252 10.6493 11.3252C10.3479 11.3474 10.3479 11.2718 10.144 11.2718C9.95018 11.2718 9.80005 11.4319 9.76756 11.5164C9.67121 11.4742 9.62864 11.3674 9.62864 11.3041C9.62864 11.1973 9.64881 11.1017 9.75636 10.9961C9.80005 10.9539 9.75636 10.9316 9.7037 10.9316C9.46619 10.9316 9.241 11.2185 9.18723 11.4208C9.04719 11.3997 9.0371 11.2185 8.97212 11.2185C8.90826 11.2185 8.86457 11.3152 8.86457 11.4108C8.86457 12.0912 9.98267 12.2402 9.98267 13.133C9.98267 14.1658 8.72453 13.9524 8.72453 14.3248C8.72453 14.3993 8.77831 14.4627 8.87577 14.506C8.83208 14.6017 8.72453 14.6439 8.60689 14.6439C8.32681 14.6439 8.12291 14.4427 8.12291 14.1658C8.12291 13.6022 8.88586 13.591 8.88586 13.1652C8.88586 12.9629 8.75702 12.8984 8.63826 12.8039C7.9078 12.2925 7.5 11.7821 7.5 10.9427C7.5 10.0388 8.13299 9.34619 8.96204 9.34619C10.1653 9.34619 10.1978 10.7193 11.2957 10.836C11.7035 10.5603 12.1875 10.4002 12.6603 10.4002C13.3706 10.4002 13.682 10.5814 14.4349 10.5814C14.7374 10.5814 15.2427 10.4958 15.8443 10.0922C16.0695 9.94323 16.1669 9.9121 16.3708 9.72976C16.8436 9.32507 17.285 8.53903 17.285 7.97534V8.00647C17.285 7.82636 17.2413 7.71963 17.1551 7.71963C16.8974 7.71963 16.6722 7.95422 16.4134 8.19882C16.2521 8.36892 16.4997 8.44341 16.1344 8.64465C16.0056 8.70913 15.8544 8.59128 15.7154 8.59128C15.4241 8.59128 15.2953 8.25218 15.2953 7.95422C15.2953 7.80524 15.4141 7.76188 15.4779 7.62402C15.6292 7.33717 15.618 7.23155 15.758 6.94359C15.8443 6.75237 15.9944 6.62451 15.9843 6.48665C15.9843 6.43439 15.9406 6.40104 15.9406 6.34878C15.9406 6.05971 16.3283 5.86849 16.3283 5.58164C16.3283 5.42265 16.1445 5.34816 16.102 5.22031C16.0594 5.09245 16.0919 5.06132 16.0919 5.06132C16.102 5.03908 16.1232 5.02908 16.1445 5.02908C16.2958 5.02908 16.3607 5.18806 16.4997 5.27367C16.5109 5.08244 16.4459 5.03908 16.4459 4.90122C16.4459 4.82673 16.4358 4.70999 16.5109 4.70999C16.6072 4.70999 16.596 4.83785 16.6823 4.90122C16.7898 4.98572 16.8873 4.97571 17.0049 5.0502C17.1551 5.14582 17.2413 5.3048 17.2951 5.31592C17.4452 5.33705 17.4889 5.15582 17.4139 5.0502C17.5853 5.03908 17.7578 5.17806 17.9841 5.17806C18.3393 5.17806 18.458 5.27367 18.5219 5.32593C18.7482 5.51827 18.7908 5.66614 19.0384 5.66614C19.1672 5.66614 19.2322 5.56052 19.2635 5.51827C19.4361 5.64501 19.4473 5.9641 19.2635 6.22982C19.3386 6.45552 19.6613 6.47553 19.8125 6.58226C19.9626 6.68899 19.9413 6.74125 20.0489 6.80573C20.1352 6.8591 20.2102 6.84798 20.2741 6.80573C20.3503 7.10258 20.0915 7.36941 19.78 7.41166C19.7912 7.79412 20.199 8.0276 20.3816 8.12432C20.2741 8.3578 20.0803 8.43229 19.9089 8.47454C19.9626 8.70913 20.2203 9.04934 20.0915 9.35731C19.9738 9.30394 19.8013 9.35731 19.8013 9.52741C19.8013 9.71864 20.0489 9.81648 19.7912 9.95435C19.6725 10.0177 19.6501 10.1878 19.8652 10.3479C20.1452 10.2734 20.4141 10.2834 20.7256 10.2834C20.9194 10.2834 21.1771 10.2301 21.3496 10.2301C21.6734 10.2301 21.8661 10.3579 22.1036 10.6136C22.6951 11.2507 23.2318 11.9211 23.8446 12.3781Z" fill="#231F20"/>
<path fill-rule="evenodd" clip-rule="evenodd" d="M7.84282 10.518C7.9078 9.96546 8.44556 9.50629 8.96092 9.50629C9.4774 9.50629 9.84263 9.81648 9.96138 10.1456C10.004 10.2946 9.8964 10.2412 9.84263 10.2301C9.72499 10.1989 9.61744 10.1878 9.48748 10.1878C9.00461 10.1878 8.91835 10.4435 8.79959 10.4435C8.75702 10.4435 8.74694 10.4113 8.74694 10.3902C8.74694 10.2623 8.90714 10.1778 8.90714 10.0811C8.90714 10.0288 8.87577 9.97547 8.73573 9.97547C8.25175 9.97547 8.01536 10.677 7.88652 10.677C7.83274 10.677 7.83274 10.6136 7.84282 10.518Z" fill="#6D6E70"/>
<path fill-rule="evenodd" clip-rule="evenodd" d="M16.9075 6.49776C16.6285 6.40104 16.4885 6.59338 16.3271 6.8591C16.1333 7.16707 16.0695 7.33717 16.0157 7.64514C15.9619 7.98535 16.177 8.07096 16.037 8.17769C15.8868 8.29443 15.8432 8.25218 15.8969 8.14545C15.9619 7.99647 15.9518 7.783 15.7681 7.84749C15.5967 7.90085 15.4454 7.88973 15.5104 7.80524C15.5642 7.70962 15.6393 7.66738 15.7356 7.36941C15.8432 7.08146 15.8969 6.99696 16.1232 6.59338C16.2521 6.34878 16.0695 6.36991 16.112 6.21981C16.1546 6.10307 16.2958 5.9641 16.3809 5.84736C16.4773 5.74174 16.5747 5.69838 16.6498 5.7195C16.7361 5.74174 16.7249 5.81623 16.6935 5.99634C16.6498 6.16645 16.6711 6.24094 16.8111 6.29542C16.9624 6.35879 17.015 6.55002 16.9075 6.49776Z" fill="#6D6E70"/>
<path fill-rule="evenodd" clip-rule="evenodd" d="M22.5114 15.1865C22.5114 15.0909 22.619 14.9419 22.6514 14.7184C22.7691 14.814 22.8553 15.0386 22.8553 15.1865C22.8553 15.251 22.8453 15.3266 22.7915 15.3266C22.7153 15.3266 22.5114 15.2621 22.5114 15.1865Z" fill="#6D6E70"/>
<path fill-rule="evenodd" clip-rule="evenodd" d="M23.9734 12.686C24.146 12.7394 24.3387 12.9629 24.3387 13.0907C24.3387 13.1541 24.2098 13.1863 24.1236 13.1863C23.9734 13.1863 24.0922 12.9095 23.9734 12.686Z" fill="#6D6E70"/>
<path fill-rule="evenodd" clip-rule="evenodd" d="M17.9953 9.71864C18.9622 8.80474 19.2848 6.92247 18.2317 6.22982C18.0278 6.09196 17.8542 6.03859 17.8542 6.00746C17.8542 5.97522 18.0054 5.97522 18.1891 6.04971C19.7688 6.72123 19.4361 8.63464 18.9084 9.90098C18.7796 10.2201 18.9084 10.1244 19.2423 10.5069C19.6725 10.985 19.5111 11.4853 19.4686 11.5909C19.3599 11.8466 19.4361 10.8371 18.2205 10.2834C17.8217 10.1033 17.6715 10.0288 17.9953 9.71864Z" fill="#6D6E70"/>
<path fill-rule="evenodd" clip-rule="evenodd" d="M13.9184 19.0989C13.7896 19.0989 13.7784 18.7809 13.7459 18.6531C13.8646 18.7064 14.0047 18.792 14.0797 18.9188C14.1111 18.9721 14.1548 19.0989 14.0685 19.0989H13.9184Z" fill="#6D6E70"/>
<path fill-rule="evenodd" clip-rule="evenodd" d="M10.2303 19.0989C10.1014 19.0989 10.079 18.792 10.0465 18.6642C10.1653 18.7175 10.3154 18.792 10.3916 18.9188C10.423 18.9721 10.4879 19.0989 10.4017 19.0989H10.2303Z" fill="#6D6E70"/>
<path fill-rule="evenodd" clip-rule="evenodd" d="M14.2411 11.7721C14.2198 11.602 14.5111 11.5909 14.5111 11.4208C14.5111 11.3363 14.2299 11.1128 13.542 11.1128C12.5964 11.1128 11.9298 11.4419 11.317 12.0167C10.898 12.4092 10.7994 12.8561 10.6806 12.8561C10.6381 12.8561 10.6168 12.8461 10.6056 12.7294C10.5193 11.9745 11.1456 10.677 12.8216 10.677C13.3807 10.677 13.9072 10.8571 14.5212 10.8571C14.8113 10.8571 15.5317 10.6981 16.0045 10.3679C16.102 10.2946 16.3271 10.1456 16.4022 10.0922C16.456 10.0711 16.4347 10.1233 16.4022 10.1878C16.3059 10.3468 16.2095 10.4324 16.112 10.538C15.9619 10.6981 15.7894 10.9427 15.7356 11.1762C15.618 11.6765 15.5104 11.8244 14.8438 11.8989C14.4035 11.9522 14.2411 11.8244 14.2411 11.7721Z" fill="#6D6E70"/>
</g>
<defs>
<clipPath id="clip0_13183_8979">
<rect width="18" height="16" fill="white" transform="translate(7 4)"/>
</clipPath>
</defs>
</svg>
