<svg width="32" height="24" viewBox="0 0 32 24" fill="none" xmlns="http://www.w3.org/2000/svg">
<rect x="0.5" y="0.5" width="31" height="23" rx="3.5" fill="white"/>
<rect x="0.5" y="0.5" width="31" height="23" rx="3.5" stroke="#DBD9D7"/>
<g clip-path="url(#clip0_10207_11262)">
<path d="M25.8195 14.3128V14.0895H25.7625L25.696 14.2383L25.6295 14.0895H25.5725V14.3128H25.6105V14.1453L25.677 14.2942H25.7245L25.791 14.1453V14.3128H25.8195ZM25.4395 14.3128V14.1267H25.5155V14.0895H25.3255V14.1267H25.4015V14.3128H25.4395Z" fill="#00A2E5"/>
<path d="M19.065 15.271H13.9255V6.22806H19.065V15.271Z" fill="#7375CF"/>
<path d="M14.258 10.7495C14.258 8.91676 15.132 7.27935 16.5 6.22806C15.5025 5.45587 14.239 5 12.871 5C9.6315 5 7 7.57706 7 10.7495C7 13.922 9.6315 16.4991 12.871 16.4991C14.239 16.4991 15.5025 16.0432 16.5 15.271C15.132 14.2197 14.258 12.5823 14.258 10.7495Z" fill="#EB001B"/>
<path d="M26 10.7495C26 13.922 23.3685 16.4991 20.129 16.4991C18.761 16.4991 17.4975 16.0432 16.5 15.271C17.868 14.2197 18.742 12.5823 18.742 10.7495C18.742 8.91676 17.868 7.27935 16.5 6.22806C17.4975 5.45587 18.761 5 20.129 5C23.3685 5 26 7.57706 26 10.7495Z" fill="#00A2E5"/>
<path d="M20.794 17.8295C20.8605 17.8295 20.965 17.8388 21.0315 17.8667L20.927 18.183C20.851 18.1551 20.7845 18.1458 20.718 18.1458C20.4995 18.1458 20.3855 18.2853 20.3855 18.5365V19.3925H20.0435V17.8667H20.376V18.0528C20.471 17.9132 20.604 17.8295 20.794 17.8295ZM19.54 18.1644H18.989V18.8529C18.989 19.0017 19.046 19.104 19.217 19.104C19.3025 19.104 19.4165 19.0761 19.521 19.0203L19.616 19.3087C19.5115 19.3832 19.3405 19.4297 19.1885 19.4297C18.7895 19.4297 18.647 19.2157 18.647 18.8622V18.1644H18.3335V17.8574H18.647V17.3922H18.989V17.8574H19.54V18.1644ZM15.1985 18.49C15.2365 18.2667 15.3695 18.1179 15.6165 18.1179C15.835 18.1179 15.9775 18.2481 16.0155 18.49H15.1985ZM16.367 18.6296C16.367 18.1551 16.063 17.8295 15.626 17.8295C15.17 17.8295 14.847 18.1551 14.847 18.6296C14.847 19.1134 15.1795 19.4297 15.645 19.4297C15.8825 19.4297 16.0915 19.3738 16.2815 19.2157L16.1105 18.9738C15.9775 19.0761 15.816 19.132 15.6545 19.132C15.436 19.132 15.2365 19.0296 15.189 18.7598H16.348C16.3575 18.7133 16.367 18.6761 16.367 18.6296ZM17.8585 18.2574C17.7635 18.2016 17.5735 18.1272 17.374 18.1272C17.184 18.1272 17.0795 18.1923 17.0795 18.304C17.0795 18.4063 17.1935 18.4342 17.3455 18.4528L17.507 18.4714C17.849 18.5179 18.0485 18.6575 18.0485 18.9273C18.0485 19.2157 17.792 19.4297 17.336 19.4297C17.0795 19.4297 16.842 19.3645 16.6615 19.2343L16.823 18.9738C16.937 19.0575 17.108 19.132 17.3455 19.132C17.5735 19.132 17.697 19.0668 17.697 18.9459C17.697 18.8622 17.6115 18.8156 17.4215 18.7877L17.26 18.7691C16.9085 18.7226 16.7185 18.5644 16.7185 18.3226C16.7185 18.0155 16.975 17.8295 17.3645 17.8295C17.6115 17.8295 17.8395 17.8853 18.001 17.9876L17.8585 18.2574ZM22.0385 18.1365C21.972 18.1365 21.9055 18.1458 21.8485 18.1737C21.7915 18.2016 21.7345 18.2295 21.6965 18.276C21.6585 18.3226 21.6205 18.3691 21.592 18.4342C21.5635 18.49 21.554 18.5644 21.554 18.6296C21.554 18.704 21.5635 18.7691 21.592 18.8249C21.6205 18.8808 21.649 18.9366 21.6965 18.9831C21.744 19.0296 21.7915 19.0575 21.8485 19.0854C21.9055 19.1134 21.972 19.1227 22.0385 19.1227C22.105 19.1227 22.1715 19.1134 22.2285 19.0854C22.2855 19.0575 22.3425 19.0296 22.3805 18.9831C22.428 18.9366 22.4565 18.8901 22.485 18.8249C22.5135 18.7691 22.523 18.6947 22.523 18.6296C22.523 18.5551 22.5135 18.49 22.485 18.4342C22.4565 18.3784 22.428 18.3226 22.3805 18.276C22.333 18.2295 22.2855 18.2016 22.2285 18.1737C22.1715 18.1551 22.105 18.1365 22.0385 18.1365ZM22.0385 17.8295C22.162 17.8295 22.276 17.8481 22.371 17.8946C22.4755 17.9318 22.561 17.9876 22.637 18.0621C22.713 18.1365 22.77 18.2202 22.8175 18.3133C22.8555 18.4156 22.884 18.5179 22.884 18.6296C22.884 18.7412 22.865 18.8529 22.8175 18.9459C22.7795 19.0482 22.713 19.132 22.637 19.1971C22.561 19.2715 22.4755 19.3273 22.371 19.3645C22.2665 19.4018 22.1525 19.4297 22.0385 19.4297C21.915 19.4297 21.801 19.4111 21.706 19.3645C21.6015 19.3273 21.516 19.2715 21.44 19.1971C21.364 19.1227 21.307 19.0389 21.2595 18.9459C21.2215 18.8436 21.193 18.7412 21.193 18.6296C21.193 18.5179 21.212 18.4063 21.2595 18.3133C21.2975 18.2109 21.364 18.1272 21.44 18.0621C21.516 17.9876 21.6015 17.9318 21.706 17.8946C21.801 17.8481 21.915 17.8295 22.0385 17.8295ZM13.2225 18.6296C13.2225 18.3598 13.403 18.1365 13.6975 18.1365C13.9825 18.1365 14.163 18.3505 14.163 18.6296C14.163 18.9087 13.973 19.1134 13.6975 19.1134C13.403 19.1134 13.2225 18.8994 13.2225 18.6296ZM14.486 18.6296V17.8667H14.144V18.0528C14.0395 17.9132 13.878 17.8295 13.65 17.8295C13.213 17.8295 12.871 18.1644 12.871 18.6296C12.871 19.0947 13.213 19.4297 13.65 19.4297C13.8685 19.4297 14.03 19.3459 14.144 19.2064V19.3925H14.486V18.6296ZM12.5765 19.3925V18.4342C12.5765 18.0714 12.339 17.8295 11.959 17.8295C11.7595 17.8295 11.5505 17.8853 11.408 18.0993C11.3035 17.9318 11.1325 17.8295 10.895 17.8295C10.7335 17.8295 10.5625 17.876 10.439 18.0528V17.8667H10.097V19.3925H10.439V18.5458C10.439 18.2853 10.591 18.1365 10.819 18.1365C11.047 18.1365 11.161 18.276 11.161 18.5365V19.3832H11.503V18.5365C11.503 18.276 11.6645 18.1272 11.883 18.1272C12.111 18.1272 12.225 18.2667 12.225 18.5272V19.3738H12.5765V19.3925Z" fill="black"/>
<path d="M23.245 19.2715V19.3087H23.283C23.2925 19.3087 23.302 19.3087 23.302 19.2994C23.3115 19.2994 23.3115 19.2901 23.3115 19.2808C23.3115 19.2715 23.3115 19.2715 23.302 19.2715C23.302 19.2715 23.2925 19.2622 23.283 19.2622H23.245V19.2715ZM23.283 19.2529C23.302 19.2529 23.3115 19.2529 23.321 19.2622C23.3305 19.2715 23.34 19.2808 23.34 19.2994C23.34 19.3087 23.34 19.318 23.3305 19.3273C23.321 19.3367 23.3115 19.3367 23.2925 19.3367L23.34 19.3925H23.302L23.2545 19.3367H23.245V19.3925H23.2165V19.2529H23.283ZM23.2735 19.439C23.2925 19.439 23.302 19.439 23.321 19.4297C23.34 19.4204 23.3495 19.4111 23.359 19.4018C23.3685 19.3925 23.378 19.3832 23.3875 19.3646C23.397 19.346 23.397 19.3367 23.397 19.318C23.397 19.2994 23.397 19.2901 23.3875 19.2715C23.378 19.2529 23.3685 19.2436 23.359 19.2343C23.3495 19.225 23.34 19.2157 23.321 19.2064C23.3115 19.1971 23.2925 19.1971 23.2735 19.1971C23.2545 19.1971 23.245 19.1971 23.226 19.2064C23.207 19.2157 23.1975 19.225 23.188 19.2343C23.1785 19.2436 23.169 19.2622 23.1595 19.2715C23.15 19.2901 23.15 19.2994 23.15 19.318C23.15 19.3367 23.15 19.346 23.1595 19.3646C23.169 19.3832 23.1785 19.3925 23.188 19.4018C23.1975 19.4111 23.2165 19.4204 23.226 19.4297C23.245 19.439 23.2545 19.439 23.2735 19.439ZM23.2735 19.1692C23.2925 19.1692 23.3115 19.1692 23.3305 19.1785C23.3495 19.1878 23.3685 19.1971 23.378 19.2064C23.3875 19.2157 23.4065 19.2343 23.416 19.2529C23.4255 19.2715 23.4255 19.2901 23.4255 19.3087C23.4255 19.3273 23.4255 19.346 23.416 19.3646C23.4065 19.3832 23.397 19.4018 23.378 19.4111C23.359 19.4204 23.3495 19.439 23.3305 19.4483C23.3115 19.4576 23.2925 19.4576 23.2735 19.4576C23.2545 19.4576 23.226 19.4576 23.207 19.4483C23.188 19.439 23.169 19.4297 23.1595 19.4111C23.15 19.4018 23.131 19.3832 23.1215 19.3646C23.112 19.346 23.112 19.3273 23.112 19.3087C23.112 19.2901 23.112 19.2715 23.1215 19.2529C23.131 19.2343 23.1405 19.2157 23.1595 19.2064C23.169 19.1971 23.188 19.1785 23.207 19.1785C23.226 19.1692 23.2545 19.1692 23.2735 19.1692Z" fill="black"/>
</g>
<defs>
<clipPath id="clip0_10207_11262">
<rect width="19" height="14.4762" fill="white" transform="translate(7 5)"/>
</clipPath>
</defs>
</svg>
