<svg width="32" height="24" viewBox="0 0 32 24" fill="none" xmlns="http://www.w3.org/2000/svg">
<rect x="0.5" y="0.5" width="31" height="23" rx="3.5" fill="white"/>
<rect x="0.5" y="0.5" width="31" height="23" rx="3.5" stroke="#DBD9D7"/>
<path fill-rule="evenodd" clip-rule="evenodd" d="M16.0105 16.0383C15.0031 16.8874 13.6965 17.4 12.2686 17.4C9.08271 17.4 6.5 14.848 6.5 11.7C6.5 8.55198 9.08271 6 12.2686 6C13.6965 6 15.0031 6.51257 16.0105 7.36166C17.0178 6.51257 18.3245 6 19.7523 6C22.9382 6 25.5209 8.55198 25.5209 11.7C25.5209 14.848 22.9382 17.4 19.7523 17.4C18.3245 17.4 17.0178 16.8874 16.0105 16.0383Z" fill="#ED0006"/>
<path fill-rule="evenodd" clip-rule="evenodd" d="M16.0105 16.0383C17.2508 14.9929 18.0373 13.4372 18.0373 11.7C18.0373 9.96281 17.2508 8.40714 16.0105 7.36165C17.0178 6.51257 18.3245 6 19.7523 6C22.9382 6 25.5209 8.55198 25.5209 11.7C25.5209 14.848 22.9382 17.4 19.7523 17.4C18.3245 17.4 17.0178 16.8874 16.0105 16.0383Z" fill="#F9A000"/>
<path fill-rule="evenodd" clip-rule="evenodd" d="M16.0105 16.0383C17.2508 14.9929 18.0373 13.4372 18.0373 11.7C18.0373 9.96285 17.2508 8.40718 16.0105 7.36169C14.7702 8.40718 13.9837 9.96285 13.9837 11.7C13.9837 13.4372 14.7702 14.9929 16.0105 16.0383Z" fill="#FF5E00"/>
</svg>
