<svg width="32" height="26" viewBox="0 0 32 26" fill="none" xmlns="http://www.w3.org/2000/svg">
<rect x="0.5" y="1.5" width="31" height="23" rx="3.5" fill="white"/>
<rect x="0.5" y="1.5" width="31" height="23" rx="3.5" stroke="#DBD9D7"/>
<path d="M4.43223 20.5135L5.2799 17.9121C5.28906 17.8761 5.32111 17.8499 5.35926 17.8473H5.78501C5.82296 17.8525 5.85499 17.8773 5.8685 17.9121L6.52823 19.5532C6.54079 19.5856 6.57417 19.5897 6.58663 19.5532L7.2422 17.9121C7.25565 17.8773 7.28767 17.8524 7.32562 17.8473H7.75171C7.78984 17.8499 7.82189 17.8761 7.83107 17.9121L8.66184 20.5135C8.67863 20.5662 8.64938 20.6027 8.59927 20.6027H8.09393C8.05788 20.6044 8.02599 20.5803 8.0188 20.5459L7.48021 18.8563C7.47181 18.8239 7.43427 18.8239 7.42171 18.8563L6.78696 20.5337C6.76611 20.5824 6.73685 20.6027 6.69514 20.6027H6.39869C6.35275 20.6027 6.32773 20.5783 6.31104 20.5337L5.65547 18.8563C5.64301 18.8239 5.60959 18.8239 5.6012 18.8563L5.05018 20.546C5.04182 20.5813 5.00816 20.6054 4.97092 20.6027H4.49486C4.44479 20.6027 4.41137 20.5703 4.43223 20.5135ZM8.82446 19.5856C8.82446 18.9819 9.30041 18.5159 9.94342 18.5159C10.5906 18.5159 11.0624 18.982 11.0624 19.5856C11.0624 20.1854 10.5906 20.6554 9.94342 20.6554C9.30041 20.6554 8.82446 20.1854 8.82446 19.5856ZM10.4946 19.5856C10.4946 19.2695 10.2482 19.0185 9.94342 19.0185C9.64281 19.0185 9.39227 19.2695 9.39227 19.5856C9.39227 19.8976 9.64277 20.153 9.94342 20.153C10.2482 20.153 10.4946 19.8976 10.4946 19.5856ZM12.0644 20.4366C12.0226 20.4041 11.985 20.4163 11.985 20.4731V20.5258C11.9855 20.5669 11.9522 20.601 11.9099 20.6028H11.5175C11.4742 20.6014 11.4395 20.5677 11.4381 20.5258V17.9243C11.4395 17.8824 11.4742 17.8487 11.5175 17.8473H11.9308C11.9732 17.8491 12.0064 17.8832 12.0059 17.9243V18.6658C12.0059 18.7185 12.0435 18.7347 12.102 18.6942C12.2597 18.5792 12.4515 18.5166 12.6489 18.5159C13.221 18.5159 13.6593 18.986 13.6593 19.5856C13.6593 20.1852 13.2127 20.6554 12.6323 20.6554C12.3859 20.6554 12.2189 20.5581 12.0644 20.4366ZM13.0916 19.5856C13.0916 19.2695 12.8452 19.0185 12.5363 19.0185C12.2357 19.0185 11.9893 19.2657 11.9893 19.5856C11.9893 19.9018 12.2316 20.1489 12.5363 20.1489C12.8451 20.1489 13.0916 19.8976 13.0916 19.5856ZM14.0058 18.0377C14.0058 17.8676 14.1479 17.7298 14.3231 17.7298C14.4984 17.7298 14.6404 17.8677 14.6404 18.0378C14.6404 18.2079 14.4983 18.3458 14.3231 18.3458C14.149 18.343 14.0086 18.2067 14.0058 18.0377ZM14.035 20.5257V18.6455C14.0345 18.6044 14.0678 18.5703 14.1101 18.5685H14.5235C14.5667 18.5699 14.6014 18.6036 14.6028 18.6455V20.5257C14.6014 20.5677 14.5667 20.6013 14.5235 20.6027H14.1101C14.0677 20.601 14.0345 20.5669 14.035 20.5257ZM15.0679 19.9139V17.9243C15.0674 17.8832 15.1007 17.8491 15.143 17.8473H15.5564C15.5996 17.8487 15.6343 17.8824 15.6357 17.9243V19.9262C15.6357 20.0559 15.6941 20.141 15.8403 20.141C15.8613 20.141 15.8815 20.1491 15.8964 20.1635C15.9113 20.178 15.9197 20.1976 15.9197 20.218V20.5502C15.9178 20.5913 15.8827 20.6236 15.8403 20.6231C15.2891 20.623 15.0679 20.4487 15.0679 19.9139ZM16.0706 19.5938C16.0706 18.9777 16.5382 18.5159 17.1645 18.5159C17.7866 18.5159 18.2417 18.9861 18.2417 19.602C18.2417 19.6749 18.2209 19.7356 18.1457 19.7356H16.7095C16.6719 19.7356 16.6594 19.7558 16.6636 19.7883C16.6928 20.0193 16.9016 20.1894 17.1729 20.1894C17.3253 20.1917 17.4707 20.1278 17.5696 20.0152C17.6011 19.9744 17.6506 19.9504 17.7032 19.9504H18.0873C18.1541 19.9504 18.1834 19.9949 18.1584 20.0598C18.0207 20.4042 17.6281 20.6555 17.1563 20.6555C16.5217 20.6554 16.0706 20.2057 16.0706 19.5938ZM17.5946 19.4075C17.6238 19.4075 17.6363 19.3953 17.6321 19.3629C17.588 19.1417 17.3884 18.9819 17.1562 18.982C16.9292 18.9845 16.733 19.1365 16.6801 19.3507C16.6717 19.3791 16.676 19.4075 16.7136 19.4075L17.5946 19.4075ZM18.5883 20.5257V17.9243C18.5878 17.8832 18.6211 17.8491 18.6634 17.8473H19.9787C20.5798 17.8473 20.9891 18.1877 20.9891 18.7591C20.9891 19.3182 20.5257 19.6829 19.9494 19.6829H19.2522C19.231 19.681 19.21 19.6886 19.1953 19.7037C19.1807 19.7187 19.174 19.7395 19.1771 19.76V20.5259C19.1757 20.5679 19.141 20.6015 19.0977 20.6029H18.6633C18.6209 20.6011 18.5877 20.5669 18.5883 20.5257ZM19.9495 19.2129C20.2377 19.2129 20.3962 18.9738 20.3962 18.7631C20.3962 18.5403 20.2417 18.3297 19.9495 18.3297H19.248C19.1979 18.3297 19.177 18.354 19.177 18.4027V19.1401C19.177 19.1887 19.1979 19.2131 19.248 19.2131L19.9495 19.2129ZM21.1847 19.5856C21.1847 18.9696 21.6608 18.5159 22.2202 18.5159C22.4582 18.5159 22.6252 18.6051 22.7755 18.7226C22.813 18.755 22.8549 18.7509 22.8549 18.7023V18.6416C22.8548 18.6222 22.8626 18.6036 22.8768 18.5899C22.8909 18.5762 22.9101 18.5685 22.9301 18.5686H23.3225C23.3657 18.57 23.4004 18.6036 23.4018 18.6456V19.9868C23.4018 20.0882 23.4394 20.1328 23.5104 20.1368C23.5477 20.1375 23.5784 20.1655 23.5813 20.2016V20.5541C23.5815 20.5724 23.574 20.59 23.5607 20.6029C23.5474 20.6159 23.5292 20.6231 23.5104 20.623C23.235 20.623 23.072 20.546 22.9801 20.3921C22.955 20.3515 22.9258 20.3434 22.8841 20.3839C22.7171 20.5338 22.525 20.6554 22.2118 20.6554C21.6523 20.6554 21.1847 20.1976 21.1847 19.5856ZM22.8549 19.5856C22.8549 19.2656 22.6126 19.0185 22.3079 19.0185C21.9989 19.0185 21.7567 19.2695 21.7567 19.5856C21.7567 19.8976 21.9989 20.153 22.3079 20.153C22.6128 20.153 22.8549 19.9017 22.8549 19.5856ZM23.7815 21.3159V20.9876C23.7833 20.9465 23.8184 20.9142 23.8608 20.9147C24.1364 20.9147 24.4036 20.7729 24.4619 20.5257C24.4775 20.4716 24.4716 20.4137 24.4453 20.3636L23.6774 18.6779C23.6523 18.6131 23.694 18.5685 23.7442 18.5685H24.1575C24.1993 18.5685 24.2243 18.6009 24.241 18.6415L24.7212 19.7193C24.7547 19.8044 24.8089 19.8003 24.8465 19.7152L25.3058 18.6333C25.3226 18.5928 25.3433 18.5685 25.3851 18.5685H25.7818C25.8067 18.5672 25.8305 18.5784 25.8449 18.5981C25.8593 18.6178 25.8623 18.6434 25.8528 18.6657L25.0635 20.4852C24.7754 21.1457 24.4707 21.3928 23.8612 21.3928C23.8179 21.3916 23.783 21.3579 23.7815 21.3159ZM26.341 19.1277V18.7064C26.3415 18.702 26.3398 18.6976 26.3366 18.6944C26.3333 18.6913 26.3288 18.6897 26.3242 18.6901H26.1739C26.1613 18.6901 26.153 18.686 26.153 18.6699V18.5888C26.1527 18.5833 26.1548 18.578 26.1588 18.5741C26.1627 18.5702 26.1682 18.5682 26.1739 18.5685H26.6582C26.6638 18.5682 26.6693 18.5703 26.6733 18.5741C26.6773 18.578 26.6794 18.5833 26.679 18.5888V18.6699C26.679 18.686 26.6706 18.6901 26.6582 18.6901H26.5037C26.4954 18.6901 26.4912 18.6982 26.4912 18.7064V19.1277C26.4915 19.1342 26.489 19.1406 26.4842 19.1452C26.4794 19.1498 26.4729 19.1523 26.4662 19.152H26.3618C26.3493 19.1506 26.3401 19.1399 26.341 19.1277ZM26.675 19.1196L26.8503 18.5848C26.8533 18.5741 26.864 18.5671 26.8754 18.5685H26.9672C26.9781 18.5688 26.9879 18.5752 26.9923 18.5848L27.1132 18.8968C27.1216 18.909 27.1258 18.909 27.1341 18.8968L27.2594 18.5848C27.2627 18.5744 27.2731 18.5676 27.2844 18.5685H27.3763C27.3877 18.5671 27.3984 18.5741 27.4013 18.5848L27.5726 19.1196C27.5768 19.1399 27.5726 19.152 27.5517 19.152H27.4348C27.4224 19.152 27.418 19.144 27.414 19.1359L27.3138 18.8239C27.3128 18.8202 27.3093 18.8176 27.3054 18.8176C27.3014 18.8176 27.2979 18.8202 27.297 18.8239L27.1842 19.1318C27.1759 19.144 27.1674 19.152 27.155 19.152H27.0882C27.0747 19.1532 27.0623 19.1446 27.059 19.1318L26.9421 18.8279C26.941 18.8242 26.9376 18.8216 26.9337 18.8216C26.9298 18.8216 26.9263 18.8242 26.9253 18.8279L26.8292 19.1359C26.8209 19.1481 26.8167 19.152 26.8041 19.152H26.6956C26.675 19.152 26.6666 19.1399 26.675 19.1196ZM14.4495 15.148C14.0716 15.148 13.7309 14.9272 13.5861 14.5885L10.3623 7.03753C10.165 6.57551 10.3911 6.04583 10.8673 5.8544L14.2439 4.49752C14.4725 4.40559 14.7294 4.40557 14.9581 4.49747C15.1868 4.58937 15.3684 4.76565 15.4631 4.98753L18.6869 12.5389C18.8838 13.0007 18.6577 13.5301 18.1819 13.7215L14.8053 15.079C14.6925 15.1245 14.5716 15.1479 14.4495 15.148ZM14.6011 4.91573C14.5445 4.91582 14.4885 4.92675 14.4362 4.9479L11.0595 6.30478C10.954 6.3472 10.8701 6.42857 10.8264 6.53099C10.7827 6.63341 10.7827 6.74848 10.8265 6.85088L14.0502 14.4024C14.1415 14.6154 14.3932 14.7166 14.6131 14.6286L17.9896 13.2708C18.0952 13.2284 18.1791 13.147 18.2228 13.0446C18.2665 12.9422 18.2664 12.8271 18.2227 12.7247L14.9989 5.17402C14.9322 5.01789 14.7753 4.91601 14.6011 4.91573Z" fill="#5A78FF"/>
<path d="M15.677 5.48533L15.2128 5.67221L16.4871 8.66211L16.9513 8.47523L15.677 5.48533Z" fill="url(#paint0_linear_10207_11248)" style="mix-blend-mode:multiply"/>
<path d="M18.007 12.2233L18.4713 12.0365L17.0289 8.65203L16.5647 8.83891L18.007 12.2233Z" fill="url(#paint1_linear_10207_11248)" style="mix-blend-mode:multiply"/>
<path d="M17.422 9.97989C16.4563 10.3684 15.65 10.9039 15.1221 11.5495L13.761 8.3599C14.3818 7.66001 15.1721 7.12066 16.0609 6.79027C17.0265 6.40175 18.0021 6.21371 18.831 6.32327L20.1925 9.51273C19.2434 9.44337 18.2914 9.6039 17.422 9.97989Z" fill="#5A78FF"/>
<path d="M17.422 9.97989C16.4563 10.3684 15.65 10.9039 15.1221 11.5495L13.761 8.3599C14.3818 7.66001 15.1721 7.12066 16.0609 6.79027C17.0265 6.40175 18.0021 6.21371 18.831 6.32327L20.1925 9.51273C19.2434 9.44337 18.2914 9.6039 17.422 9.97989Z" fill="url(#paint2_linear_10207_11248)" style="mix-blend-mode:multiply"/>
<path d="M17.422 9.97989C16.4563 10.3684 15.65 10.9039 15.1221 11.5495L13.761 8.3599C14.3818 7.66001 15.1721 7.12066 16.0609 6.79027C17.0265 6.40175 18.0021 6.21371 18.831 6.32327L20.1925 9.51273C19.2434 9.44337 18.2914 9.6039 17.422 9.97989Z" fill="url(#paint3_linear_10207_11248)" style="mix-blend-mode:multiply"/>
<path d="M17.8655 10.9523C16.8202 10.9523 15.8634 11.1483 15.1218 11.5483V8.32323C15.9714 7.90724 16.9142 7.70244 17.8655 7.72723C18.9108 7.72723 19.8864 7.91528 20.6091 8.324V11.5491C19.7596 11.1327 18.8169 10.9277 17.8655 10.9523Z" fill="#5A78FF"/>
<defs>
<linearGradient id="paint0_linear_10207_11248" x1="15.709" y1="17.3218" x2="16.1645" y2="4.31594" gradientUnits="userSpaceOnUse">
<stop stop-color="#504678"/>
<stop offset="0.302" stop-color="#504678" stop-opacity="0.616"/>
<stop offset="0.608" stop-color="#504678" stop-opacity="0.283"/>
<stop offset="0.852" stop-color="#504678" stop-opacity="0.076"/>
<stop offset="1" stop-color="#504678" stop-opacity="0"/>
</linearGradient>
<linearGradient id="paint1_linear_10207_11248" x1="15.709" y1="17.3218" x2="16.1645" y2="4.31594" gradientUnits="userSpaceOnUse">
<stop stop-color="#504678"/>
<stop offset="0.302" stop-color="#504678" stop-opacity="0.616"/>
<stop offset="0.608" stop-color="#504678" stop-opacity="0.283"/>
<stop offset="0.852" stop-color="#504678" stop-opacity="0.076"/>
<stop offset="1" stop-color="#504678" stop-opacity="0"/>
</linearGradient>
<linearGradient id="paint2_linear_10207_11248" x1="7.59768" y1="15.6828" x2="15.9279" y2="9.15471" gradientUnits="userSpaceOnUse">
<stop stop-color="#504678"/>
<stop offset="0.179" stop-color="#504678" stop-opacity="0.872"/>
<stop offset="0.526" stop-color="#504678" stop-opacity="0.536"/>
<stop offset="1" stop-color="#504678" stop-opacity="0"/>
</linearGradient>
<linearGradient id="paint3_linear_10207_11248" x1="15.4731" y1="10.3611" x2="15.1638" y2="7.51738" gradientUnits="userSpaceOnUse">
<stop stop-color="#504678"/>
<stop offset="0.643" stop-color="#504678" stop-opacity="0.332"/>
<stop offset="1" stop-color="#504678" stop-opacity="0"/>
</linearGradient>
</defs>
</svg>
