<svg width="32" height="24" viewBox="0 0 32 24" fill="none" xmlns="http://www.w3.org/2000/svg">
<rect x="0.5" y="0.5" width="31" height="23" rx="3.5" fill="white"/>
<rect x="0.5" y="0.5" width="31" height="23" rx="3.5" stroke="#DBD9D7"/>
<g clip-path="url(#clip0_13183_8987)">
<path d="M23.5 15.0821C23.5 15.1733 23.482 15.2636 23.4471 15.3479C23.4122 15.4321 23.3611 15.5087 23.2966 15.5732L20.1862 18.6836C20.0112 18.8586 19.7119 18.7346 19.7119 18.4871V11.5175L23.4568 7.7936H23.5V15.0821Z" fill="#E83860"/>
<path d="M21.018 5.31145C20.9922 5.28563 20.9615 5.26515 20.9278 5.25118C20.8941 5.2372 20.858 5.23001 20.8215 5.23001C20.785 5.23001 20.7489 5.2372 20.7151 5.25118C20.6814 5.26515 20.6508 5.28563 20.625 5.31145L16 9.93646H15.9358V15.1565L16 15.2936L23.5 7.7936L21.018 5.31145Z" fill="#DFC586"/>
<path d="M8.5 15.0821C8.5 15.2663 8.57311 15.4429 8.7034 15.5732L11.8138 18.6836C11.9888 18.8586 12.2881 18.7346 12.2881 18.4871V11.5175L8.5431 7.7936H8.5V15.0821Z" fill="#327787"/>
<path d="M11.375 5.31145C11.3492 5.28564 11.3186 5.26517 11.2848 5.25121C11.2511 5.23724 11.215 5.23006 11.1785 5.23006C11.142 5.23006 11.1059 5.23724 11.0722 5.25121C11.0385 5.26517 11.0078 5.28564 10.982 5.31145L8.5 7.7936L16 15.2936V9.93646L11.375 5.31145Z" fill="#8ABB9C"/>
</g>
<defs>
<clipPath id="clip0_13183_8987">
<rect width="16" height="14" fill="white" transform="translate(8 5)"/>
</clipPath>
</defs>
</svg>
