<svg width="32" height="24" viewBox="0 0 32 24" fill="none" xmlns="http://www.w3.org/2000/svg">
<rect x="0.5" y="0.5" width="31" height="23" rx="3.5" fill="white"/>
<rect x="0.5" y="0.5" width="31" height="23" rx="3.5" stroke="#DBD9D7"/>
<path d="M23.75 12C23.75 19.1876 23.1876 19.75 16.0001 19.75C8.81266 19.75 8.25 19.1876 8.25 12C8.25 4.8124 8.81266 4.25 16.0001 4.25C23.1876 4.25 23.75 4.8124 23.75 12Z" fill="#471563"/>
<path d="M18.3175 13.7033H15.233L16.7744 16.3759H19.8589L18.3175 13.7033Z" fill="#E3000A"/>
<path d="M19.8567 11.0349L21.399 13.7061L19.8576 16.3772L18.3153 13.7047L19.8567 11.0349Z" fill="#C30203"/>
<path d="M13.6888 13.7033L15.2299 11.0335H12.1457L10.6045 13.7033V13.7044L13.6888 13.7033Z" fill="#E3000A"/>
<path d="M15.2308 16.3764H12.1465L10.6043 13.7047V13.7037H13.6888L15.2308 16.3764Z" fill="#C30203"/>
<path d="M17.5437 7.02672H14.4595L12.9183 9.69627H16.0023L17.5437 7.02672Z" fill="#E3000A"/>
<path d="M16.0018 9.69518L17.544 12.3672L19.0855 9.69654L17.5432 7.02536L16.0018 9.69518Z" fill="#C30203"/>
</svg>
