<svg width="32" height="24" viewBox="0 0 32 24" fill="none" xmlns="http://www.w3.org/2000/svg">
<path d="M0 4C0 1.79086 1.79086 0 4 0H28C30.2091 0 32 1.79086 32 4V20C32 22.2091 30.2091 24 28 24H4C1.79086 24 0 22.2091 0 20V4Z" fill="#E13134"/>
<path d="M13.36 15.8315C13.36 15.8115 13.382 15.6655 13.41 15.5095C13.626 14.2615 13.634 14.2175 13.694 14.0355C13.824 13.6335 14.07 13.2835 14.368 13.0815C14.642 12.8935 15.114 12.7275 16.1 12.4735C16.72 12.3115 17.326 12.1435 17.46 12.0935C17.74 11.9875 17.87 11.8595 17.94 11.6275C17.98 11.4955 18.1 10.7175 18.1 10.5975C18.098 10.4995 18.032 10.3775 17.954 10.3275C17.858 10.2675 17.572 10.2335 16.954 10.2035C16.23 10.1695 15.776 10.2155 15.52 10.3455C15.342 10.4355 15.208 10.7935 15.114 11.4355L15.09 11.5955L14.574 11.6015C14.244 11.6035 14.06 11.5995 14.06 11.5855C14.06 11.5195 14.188 10.8435 14.23 10.6855C14.464 9.80952 14.892 9.43552 15.82 9.29552C16.256 9.22952 17.252 9.20552 17.726 9.24752C17.994 9.27152 18.27 9.33552 18.44 9.41152C18.676 9.51752 18.886 9.72152 19.006 9.96552C19.068 10.0915 19.07 10.1015 19.076 10.4155C19.09 10.9715 19.024 11.4315 18.866 11.9055C18.728 12.3175 18.568 12.5535 18.306 12.7295C17.988 12.9415 17.804 13.0095 16.72 13.3055C15.132 13.7375 15.034 13.7715 14.862 13.9055C14.732 14.0095 14.668 14.1595 14.608 14.5035C14.582 14.6535 14.556 14.7995 14.552 14.8315L14.542 14.8855H16.48C17.548 14.8855 18.42 14.8915 18.42 14.8975C18.42 14.9135 18.282 15.7415 18.268 15.8115L18.256 15.8655H15.808C13.49 15.8655 13.36 15.8635 13.36 15.8315Z" fill="#CFD4DA"/>
<path d="M21.886 15.8215C21.902 15.7575 22.12 14.4555 22.12 14.4275C22.12 14.4115 21.658 14.4055 20.464 14.4055H18.806L18.892 13.8915C18.974 13.4075 18.982 13.3755 19.036 13.3175C19.068 13.2835 19.422 12.9055 19.82 12.4755C20.22 12.0475 21.046 11.1575 21.658 10.5015L22.77 9.30554H23.992L23.65 11.3615L23.306 13.4155L23.776 13.4215L24.246 13.4255L24.234 13.5215C24.22 13.6295 24.106 14.2915 24.09 14.3615L24.08 14.4055H23.61C23.352 14.4055 23.14 14.4095 23.14 14.4155C23.14 14.4315 22.92 15.7655 22.908 15.8215L22.9 15.8655H21.876L21.886 15.8215ZM22.522 12.0455C22.648 11.2875 22.746 10.6655 22.738 10.6655C22.73 10.6655 22.706 10.6875 22.686 10.7135C22.666 10.7395 22.106 11.3395 21.442 12.0475C20.778 12.7555 20.216 13.3555 20.194 13.3815L20.154 13.4255H22.29L22.522 12.0455Z" fill="#CFD4DA"/>
<path d="M7.73999 15.8474C7.73999 15.8374 7.88799 14.9294 8.06999 13.8314C8.25199 12.7334 8.49199 11.2914 8.59999 10.6254C8.70999 9.95942 8.80599 9.39142 8.81199 9.36142L8.82399 9.30542H10.356C11.58 9.30542 11.94 9.31142 12.14 9.33542C12.868 9.42142 13.21 9.63742 13.348 10.1014C13.408 10.3094 13.408 10.4654 13.342 10.9254C13.228 11.7154 13.14 12.1874 13.072 12.3814C12.994 12.5974 12.87 12.7954 12.708 12.9594C12.57 13.1014 12.52 13.1374 12.358 13.2114C12.162 13.3034 12.034 13.3434 11.756 13.4014C11.61 13.4314 11.44 13.4354 10.37 13.4354H9.14999L9.05799 13.9854C9.00799 14.2874 8.91799 14.8354 8.85799 15.1994L8.74999 15.8654H8.24599C7.95399 15.8654 7.73999 15.8574 7.73999 15.8474ZM11.56 12.4354C11.664 12.4174 11.786 12.3854 11.832 12.3654C11.926 12.3194 12.03 12.2214 12.072 12.1394C12.122 12.0434 12.34 10.8734 12.34 10.7034C12.34 10.4934 12.272 10.3974 12.086 10.3514C11.962 10.3194 11.042 10.2894 10.146 10.2874L9.68399 10.2854L9.67199 10.3414C9.66599 10.3714 9.58799 10.8354 9.49999 11.3734C9.40999 11.9114 9.33199 12.3774 9.32599 12.4094L9.31599 12.4654H10.342C11.17 12.4654 11.406 12.4594 11.56 12.4354Z" fill="white"/>
</svg>
