<svg width="32" height="24" viewBox="0 0 32 24" fill="none" xmlns="http://www.w3.org/2000/svg">
<rect x="0.5" y="0.5" width="31" height="23" rx="3.5" fill="white"/>
<rect x="0.5" y="0.5" width="31" height="23" rx="3.5" stroke="#DBD9D7"/>
<path fill-rule="evenodd" clip-rule="evenodd" d="M13.5954 18.3297L13.823 16.8348L13.3158 16.8226H10.8938L12.577 5.79144C12.5823 5.75803 12.5992 5.72703 12.624 5.70497C12.6488 5.68291 12.6806 5.67081 12.7137 5.67081H16.7977C18.1536 5.67081 19.0892 5.96236 19.5777 6.53792C19.8067 6.80792 19.9526 7.09015 20.0232 7.40061C20.0972 7.72646 20.0984 8.11571 20.0262 8.59054L20.021 8.62508V8.92937L20.25 9.06349C20.4428 9.16925 20.5961 9.29026 20.7137 9.42879C20.9095 9.65971 21.0363 9.95316 21.0898 10.3009C21.1452 10.6587 21.1269 11.0845 21.0363 11.5665C20.9317 12.1209 20.7628 12.6038 20.5347 12.9988C20.3249 13.3629 20.0576 13.6649 19.7401 13.8988C19.437 14.1212 19.077 14.29 18.6699 14.398C18.2754 14.5041 17.8256 14.5577 17.3323 14.5577H17.0145C16.7873 14.5577 16.5666 14.6423 16.3933 14.7939C16.2195 14.9487 16.1046 15.1602 16.0694 15.3915L16.0453 15.5262L15.643 18.161L15.6248 18.2577C15.6199 18.2883 15.6116 18.3036 15.5995 18.3139C15.5886 18.3234 15.573 18.3297 15.5577 18.3297H13.5954Z" fill="#28356A"/>
<path fill-rule="evenodd" clip-rule="evenodd" d="M20.4671 8.66028C20.455 8.74083 20.441 8.82314 20.4253 8.90772C19.8868 11.7658 18.0442 12.7532 15.6909 12.7532H14.4927C14.2049 12.7532 13.9623 12.9691 13.9175 13.2626L13.1303 18.4237C13.1012 18.6165 13.2448 18.79 13.4329 18.79H15.5581C15.8097 18.79 16.0235 18.6011 16.0631 18.3446L16.084 18.233L16.4841 15.6085L16.5098 15.4645C16.549 15.2071 16.7633 15.0181 17.0148 15.0181H17.3327C19.3916 15.0181 21.0035 14.1541 21.4747 11.6538C21.6714 10.6093 21.5695 9.73714 21.0488 9.12377C20.8912 8.93885 20.6957 8.78532 20.4671 8.66028Z" fill="#298FC2"/>
<path fill-rule="evenodd" clip-rule="evenodd" d="M19.9034 8.42806C19.8211 8.40323 19.7362 8.38079 19.6491 8.3605C19.5616 8.34071 19.4719 8.32319 19.3796 8.30781C19.0566 8.25386 18.7025 8.22827 18.3234 8.22827H15.1224C15.0435 8.22827 14.9686 8.24668 14.9016 8.27995C14.7539 8.35331 14.6443 8.49777 14.6177 8.67462L13.9367 13.1326L13.9172 13.2625C13.962 12.9691 14.2045 12.7531 14.4923 12.7531H15.6906C18.0438 12.7531 19.8865 11.7653 20.425 8.90769C20.4411 8.82311 20.4547 8.7408 20.4667 8.66025C20.3305 8.5855 20.1829 8.52159 20.024 8.46714C19.9848 8.45365 19.9443 8.44067 19.9034 8.42806Z" fill="#22284F"/>
<path fill-rule="evenodd" clip-rule="evenodd" d="M14.6179 8.67465C14.6445 8.4978 14.7541 8.35334 14.9018 8.28048C14.9693 8.24708 15.0437 8.22868 15.1226 8.22868H18.3235C18.7027 8.22868 19.0567 8.25439 19.3798 8.30834C19.4721 8.32359 19.5618 8.34124 19.6493 8.36103C19.7364 8.3812 19.8213 8.40376 19.9036 8.42847C19.9445 8.44107 19.9849 8.45418 20.0246 8.46717C20.1835 8.52162 20.3312 8.58603 20.4674 8.66028C20.6277 7.60409 20.4661 6.88497 19.9136 6.23378C19.3044 5.5168 18.2051 5.20999 16.7984 5.20999H12.7143C12.427 5.20999 12.1818 5.42592 12.1374 5.71987L10.4364 16.8645C10.4029 17.0849 10.5674 17.2838 10.7825 17.2838H13.3038L14.6179 8.67465Z" fill="#28356A"/>
</svg>
