<svg width="32" height="26" viewBox="0 0 32 26" fill="none" xmlns="http://www.w3.org/2000/svg">
<rect x="0.5" y="1.5" width="31" height="23" rx="3.5" fill="white"/>
<rect x="0.5" y="1.5" width="31" height="23" rx="3.5" stroke="#DBD9D7"/>
<path d="M4.60868 10.92C4.60868 10.92 4.64118 10.8875 4.65743 10.855C4.77118 10.4325 5.06368 10.205 5.48618 10.1888C6.28243 10.1563 7.09493 10.1075 7.89118 10.2213C8.81743 10.3675 9.27243 10.855 9.40243 11.7975C9.45118 12.1713 9.45118 12.545 9.36993 12.9188C9.19118 13.7638 8.62243 14.2513 7.71243 14.3325C7.04618 14.3975 6.37993 14.3488 5.69743 14.365C5.55118 14.365 5.50243 14.3975 5.50243 14.56C5.50243 15.1125 5.50243 15.665 5.50243 16.2175C5.50243 16.3963 5.53493 16.6075 5.32368 16.6888C5.07993 16.7863 4.77118 16.7213 4.60868 16.5425V10.92ZM5.51868 12.3825C5.51868 12.7238 5.51868 13.065 5.51868 13.4063C5.51868 13.5038 5.53493 13.5525 5.64868 13.5525C6.29868 13.5525 6.93243 13.5688 7.58243 13.52C8.18368 13.4713 8.49243 13.1463 8.52493 12.545C8.52493 12.3825 8.52493 12.22 8.52493 12.0575C8.49243 11.4075 8.16743 11.0663 7.51743 11.05C6.98118 11.0338 6.44493 11.05 5.90868 11.05C5.63243 11.05 5.53493 11.1475 5.53493 11.44C5.53493 11.765 5.53493 12.09 5.53493 12.3988L5.51868 12.3825Z" fill="#9FC603"/>
<path d="M25.9287 7.32877C26.0749 7.60502 25.9937 7.89752 25.9774 8.19002C25.9774 8.27127 25.8799 8.28752 25.8149 8.28752C25.6199 8.28752 25.4249 8.28752 25.2299 8.28752C25.1487 8.28752 25.0674 8.28752 25.0674 8.19002C25.0674 7.89752 24.9862 7.60502 25.1162 7.32877H25.9449H25.9287Z" fill="#9FC603"/>
<path d="M25.0187 11.6188C25.0187 12.3663 25.0187 13.13 25.0187 13.8775C25.0187 14.235 25.0349 14.5925 24.9537 14.9338C24.7749 15.7625 24.2549 16.2988 23.4749 16.575C22.5162 16.9 21.5412 16.9 20.5824 16.6075C19.5424 16.2988 18.9737 15.535 18.9574 14.4138C18.9249 13.2113 18.9574 12.0088 18.9574 10.79C18.9574 10.3838 19.1037 10.2375 19.4937 10.1888C19.7862 10.1563 20.0949 10.1563 20.4037 10.205C20.6637 10.2538 20.7612 10.3513 20.8099 10.6113C20.8262 10.7088 20.8262 10.8063 20.8262 10.9038C20.8262 12.0088 20.8262 13.0975 20.8262 14.2025C20.8262 14.8525 21.0699 15.0963 21.7037 15.1775C21.9149 15.1938 22.1099 15.1938 22.3049 15.1775C22.8574 15.1125 23.1337 14.8363 23.1337 14.2838C23.1337 13.6175 23.1337 12.9675 23.1337 12.3013C23.1337 11.83 23.1337 11.3425 23.1337 10.8713C23.1337 10.3675 23.2799 10.2213 23.7837 10.1888C23.8812 10.1888 23.9624 10.1888 24.0599 10.1888C24.0599 10.4975 24.0599 10.8063 24.0599 11.0988C24.0599 11.6188 24.0762 11.635 24.5799 11.635C24.7099 11.635 24.8399 11.635 24.9699 11.635L25.0187 11.6188Z" fill="#9EC602"/>
<path d="M16.2599 16.7863C16.2599 16.7863 16.1624 16.7863 16.1137 16.7863C15.5124 16.8838 15.1062 16.6563 14.8949 16.0875C14.7162 15.6325 14.6187 15.145 14.4887 14.6738C14.2612 13.8613 14.0499 13.065 13.8224 12.2525C13.8062 12.1713 13.7737 12.09 13.7737 12.0088C13.7737 11.9113 13.8062 11.8463 13.8874 11.7975C14.1962 11.635 14.5862 11.7975 14.6837 12.1225C14.9112 12.935 15.1387 13.7638 15.3499 14.5763C15.4474 14.95 15.5449 15.3238 15.6587 15.6975C15.7399 15.9575 15.8537 16.0225 16.0974 16.0388C16.4062 16.0388 16.5362 15.9413 16.6337 15.5513C16.8449 14.6738 17.0562 13.7963 17.2674 12.9188C17.3324 12.6588 17.3974 12.3825 17.4624 12.1225C17.5437 11.7975 17.9824 11.635 18.2749 11.8138C18.4049 11.895 18.3887 12.025 18.3562 12.155C18.2262 12.7075 18.0799 13.26 17.9499 13.8125C17.6899 14.8525 17.4299 15.8763 17.1699 16.9163C17.0887 17.2575 16.9587 17.5825 16.7637 17.875C16.3737 18.4763 15.7887 18.7363 15.0899 18.6875C14.9924 18.6875 14.9437 18.6388 14.8949 18.5738C14.8624 18.5088 14.8462 18.4438 14.8299 18.3788C14.7487 18.0538 14.7974 17.9888 15.1224 17.9238C15.8212 17.81 16.1299 17.5175 16.2924 16.8188L16.2599 16.7863Z" fill="#9FC603"/>
<path d="M13.4487 14.2188C13.4487 14.7063 13.4974 15.1938 13.3999 15.665C13.3024 16.12 13.0424 16.445 12.6037 16.5913C11.8562 16.8675 11.0924 16.9 10.3449 16.64C9.69493 16.4288 9.36993 15.8925 9.38618 15.1938C9.41868 14.4788 9.74368 14.04 10.4424 13.8613C10.7349 13.78 11.0274 13.7475 11.3199 13.7475C11.6774 13.7475 12.0349 13.7475 12.4087 13.7475C12.5549 13.7475 12.6037 13.6988 12.5874 13.5525C12.5874 13.4063 12.5874 13.26 12.5874 13.1138C12.5712 12.7725 12.4087 12.5613 12.0837 12.4638C11.6287 12.3175 11.1574 12.3663 10.7024 12.415C10.5399 12.415 10.3774 12.4638 10.2149 12.4963C10.0199 12.5288 9.92243 12.4475 9.88993 12.2525C9.85743 11.8463 9.92243 11.7488 10.3287 11.6838C11.0112 11.57 11.6937 11.5375 12.3599 11.7325C13.0587 11.9275 13.4162 12.3663 13.4487 13.0975C13.4487 13.4713 13.4487 13.845 13.4487 14.2188ZM12.5874 14.95V14.8363C12.5874 14.4625 12.5874 14.4625 12.2137 14.4625C11.7587 14.4625 11.2874 14.43 10.8487 14.5275C10.4587 14.625 10.2799 14.8525 10.2799 15.2588C10.2799 15.6488 10.4749 15.8763 10.8487 15.9738C11.1412 16.055 11.4499 16.0388 11.7424 16.0063C12.3924 15.925 12.5874 15.6975 12.5874 15.0475C12.5874 15.015 12.5874 14.9825 12.5874 14.95Z" fill="#9FC603"/>
<path d="M24.0924 10.1563C24.0924 10.1563 24.0924 10.0425 24.0924 9.97752C24.0924 9.79877 24.1899 9.70127 24.3687 9.70127C24.8074 9.70127 25.2624 9.70127 25.7012 9.70127C25.8962 9.70127 25.9774 9.81502 25.9937 10.01C25.9937 10.4488 25.9937 10.8713 25.9937 11.31C25.9937 11.5213 25.8799 11.6188 25.6687 11.6188C25.4574 11.6188 25.2299 11.6188 25.0187 11.6188C25.0187 11.31 25.0187 11.0013 25.0187 10.6763C25.0187 10.3838 24.8724 10.2375 24.5799 10.1888C24.4174 10.1563 24.2549 10.1725 24.0924 10.1563Z" fill="#9FC603"/>
<path d="M27.3912 9.01877C27.3912 9.18127 27.3912 9.32752 27.3912 9.49002C27.3912 9.63627 27.3262 9.71752 27.1799 9.71752C26.8549 9.71752 26.5462 9.71752 26.2212 9.71752C26.0749 9.71752 25.9937 9.63627 25.9937 9.47377C25.9937 9.16502 25.9937 8.84002 25.9937 8.53127C25.9937 8.36877 26.0749 8.28752 26.2374 8.28752C26.5462 8.28752 26.8549 8.28752 27.1637 8.28752C27.3099 8.28752 27.3912 8.35252 27.3912 8.51502C27.3912 8.67752 27.3912 8.84002 27.3912 9.00252V9.01877Z" fill="#9FC603"/>
</svg>
