<svg width="32" height="24" viewBox="0 0 32 24" fill="none" xmlns="http://www.w3.org/2000/svg">
<rect width="32" height="24" rx="4" fill="#F28A1A"/>
<rect x="0.5" y="0.5" width="31" height="23" rx="3.5" stroke="white" stroke-opacity="0.01"/>
<path fill-rule="evenodd" clip-rule="evenodd" d="M7.99615 11.0919C7.99615 15.2075 11.2573 18.5638 15.295 18.5638C15.7906 18.5638 16.2862 18.5192 16.8556 18.4679C17.4906 18.4107 18.2174 18.3452 19.1385 18.3241C20.5362 18.3241 22.0503 18.8435 23.7197 20.3619C23.875 20.5217 24.108 20.322 23.9527 20.1222C22.2832 18.0044 20.7691 17.6049 19.255 17.2453C17.3915 16.8057 16.4209 15.7669 15.7609 14.5681C15.6444 14.3284 15.5668 14.3684 15.5668 14.688C15.5279 15.1675 15.5668 15.607 15.6444 16.0466H15.4115C12.7715 16.0466 10.5973 13.809 10.5973 11.0919C10.5973 8.37482 12.7715 6.13723 15.4115 6.13723C18.0515 6.13723 20.2256 8.37482 20.2256 11.0919C20.2256 11.2517 20.2256 11.4515 20.1868 11.6513C19.7985 11.5714 19.1385 11.5714 18.6338 11.6113C18.4397 11.6113 18.4397 11.6912 18.595 11.7312C20.1479 12.0509 21.235 13.0498 21.5068 14.8878C21.5068 14.9677 21.5456 14.9677 21.5844 14.9278C22.2056 13.809 22.5938 12.4904 22.5938 11.0919C22.5938 6.93637 19.3327 3.57999 15.295 3.57999C11.2573 3.57999 7.99615 6.97633 7.99615 11.0919ZM20.5749 14.1686C20.8467 14.2885 20.9632 14.688 20.9632 14.8878C21.002 15.2075 20.9244 15.3673 20.8079 15.3673C20.6914 15.3673 20.5361 15.2474 20.3808 14.9677C20.2255 14.688 20.1479 14.4083 20.2255 14.2485C20.342 14.1686 20.4585 14.1286 20.5749 14.1686ZM18.9832 15.4073C19.1385 15.4073 19.3326 15.4872 19.5268 15.647C19.8374 15.9267 19.9538 16.2464 19.7985 16.4861C19.7209 16.606 19.5268 16.6859 19.3715 16.6859C19.1773 16.6859 18.9832 16.606 18.8668 16.4861C18.5562 16.2064 18.4785 15.8068 18.6726 15.5671C18.7115 15.4872 18.8279 15.4073 18.9832 15.4073Z" fill="white"/>
</svg>
