<svg width="32" height="24" viewBox="0 0 32 24" fill="none" xmlns="http://www.w3.org/2000/svg">
<rect x="0.5" y="0.5" width="31" height="23" rx="3.5" fill="white"/>
<rect x="0.5" y="0.5" width="31" height="23" rx="3.5" stroke="#DBD9D7"/>
<g clip-path="url(#clip0_13183_9013)">
<path fill-rule="evenodd" clip-rule="evenodd" d="M15.6502 7.96132C15.4708 9.1781 15.3274 10.2025 15.0691 11.7979C15.767 11.7833 17.351 12.0511 17.6996 9.8708C17.9883 8.05688 16.7017 7.88888 15.6502 7.96132Z" fill="black"/>
<path fill-rule="evenodd" clip-rule="evenodd" d="M21.6943 16.7332C21.9659 17.3157 21.6925 18.0523 21.1259 18.3487C20.8007 18.5191 20.4293 18.6774 20.0586 18.7663C19.4465 18.9072 18.8207 18.9855 18.1916 19C17.1855 19 16.1769 18.4449 15.7424 17.7692C15.6299 18.0023 15.2245 18.471 14.5139 18.6914C14.0649 18.8314 13.5236 19 12.3937 18.9988C11.3813 18.9982 10.8041 18.5557 10.499 18.1843C10.0127 17.5939 9.94133 16.844 10.0361 16.3388L10.0411 16.3144C10.4232 14.467 10.9455 11.1083 11.1862 9.42523L11.1887 9.4088C11.2544 8.94193 11.3213 8.47506 11.3611 8.00515C11.3807 7.76836 11.394 7.53036 11.3965 7.29297C11.399 7.06836 11.3775 6.84436 11.3794 6.61976C11.382 6.40793 11.4173 6.19367 11.5203 6.00619C11.6876 5.70367 11.994 5.46506 12.318 5.36098C12.6735 5.24654 13.0449 5.20089 13.4144 5.1595C13.7921 5.11587 14.1707 5.07934 14.5499 5.04993C15.0123 5.01718 15.4758 5.00053 15.9394 5.00002C16.7327 4.99941 17.531 5.01219 18.3129 5.16741C19.1093 5.32567 19.9139 5.62819 20.5423 6.15837C20.9731 6.52176 21.3148 6.9801 21.5718 7.48167C21.7967 7.92358 21.8882 8.38862 21.9426 8.7441C22.0392 9.38209 22.0137 10.0317 21.8674 10.6609C21.7518 11.1196 21.5569 11.5563 21.2908 11.9525C20.9914 12.4005 20.6074 12.8071 20.1179 13.1943C20.416 14.0282 21.1929 15.657 21.6943 16.7332ZM12.7853 6.70436C12.8043 7.01358 12.8068 7.32523 12.7929 7.63567C12.779 7.9528 12.7506 8.26871 12.714 8.58401C12.678 8.8981 12.6344 9.21097 12.5902 9.52384L12.5756 9.6261C12.4367 10.6043 12.2902 11.5812 12.1367 12.5564C11.975 13.5814 11.7937 14.601 11.6125 15.6217C11.5285 16.0977 11.3396 16.7077 11.598 17.1617C11.8279 17.5671 12.4177 17.6164 12.8289 17.5757C14.3264 17.4283 14.5645 17.1076 14.5645 17.1076C14.2657 16.7886 14.5253 15.335 14.8259 13.3811H15.8902L17.0043 16.6285C17.0043 16.6285 17.3327 17.6347 18.2453 17.586C19.4144 17.5239 20.2746 17.2664 20.3983 17.1234C20.0384 16.9298 19.0089 14.4488 18.448 12.627C18.7196 12.4675 18.983 12.294 19.2312 12.0998C19.5704 11.8332 19.8849 11.5258 20.1255 11.1649C20.2986 10.9056 20.4306 10.6201 20.5063 10.317C20.5461 10.1569 20.5682 9.98949 20.5821 9.82575C20.6074 9.53723 20.5979 9.24506 20.5543 8.95897C20.5127 8.68384 20.4501 8.37767 20.3226 8.12932C20.0857 7.66489 19.7504 7.25949 19.2931 7.00019C18.5213 6.56315 17.632 6.47976 16.7649 6.4341C15.8244 6.38371 14.8812 6.41344 13.9462 6.52297C13.8413 6.53515 12.7809 6.62523 12.7853 6.70436Z" fill="black"/>
</g>
<defs>
<clipPath id="clip0_13183_9013">
<rect width="12" height="14" fill="white" transform="translate(10 5)"/>
</clipPath>
</defs>
</svg>
