<svg width="32" height="24" viewBox="0 0 32 24" fill="none" xmlns="http://www.w3.org/2000/svg">
<rect x="0.5" y="0.5" width="31" height="23" rx="3.5" fill="white"/>
<rect x="0.5" y="0.5" width="31" height="23" rx="3.5" stroke="#DBD9D7"/>
<g clip-path="url(#clip0_13183_9029)">
<path fill-rule="evenodd" clip-rule="evenodd" d="M23.4994 15.0473C23.4994 17.3201 20.143 19.1477 15.9997 19.1477C11.8564 19.1477 8.5 17.3201 8.5 15.0473C8.5 13.4279 10.2446 12.013 12.7448 11.3596C12.7448 11.9815 12.8832 12.5977 13.1913 13.1499L15.5579 17.2503C15.7285 17.5608 15.8613 17.9038 15.9305 18.2525L16.0367 18.0805C16.6169 17.0784 16.6169 15.803 16.0367 14.8056L14.149 11.5306C13.5687 10.4959 13.5687 9.25777 14.149 8.25559L14.2551 8.08458C14.3244 8.43234 14.4571 8.77531 14.6325 9.08676L15.7285 11.0166L17.4409 14.0126C17.6115 14.3231 17.75 14.6661 17.8135 15.009L17.9197 14.838C18.4999 13.8406 18.4999 12.5652 17.9197 11.5688L16.0367 8.29381C15.4517 7.29068 15.4517 6.021 16.0367 5.01883L16.1381 4.84686C16.2073 5.18984 16.3458 5.53854 16.5155 5.84426L18.845 9.94467C19.1162 10.3946 19.2546 10.9086 19.2869 11.4293C21.8241 12.0828 23.5364 13.4977 23.4994 15.0473Z" fill="#EA1D25"/>
</g>
<defs>
<clipPath id="clip0_13183_9029">
<rect width="15" height="15" fill="white" transform="translate(8.5 4.5)"/>
</clipPath>
</defs>
</svg>
