<svg width="32" height="24" viewBox="0 0 32 24" fill="none" xmlns="http://www.w3.org/2000/svg">
<rect width="32" height="24" rx="4" fill="#5A31F4"/>
<rect x="0.5" y="0.5" width="31" height="23" rx="3.5" stroke="white" stroke-opacity="0.01"/>
<path d="M17.7155 10.3473C17.7155 11.5459 16.8752 12.4015 15.701 12.4015H14.5947C14.5825 12.4015 14.5704 12.4039 14.5591 12.4086C14.5479 12.4133 14.5376 12.4201 14.529 12.4288C14.5204 12.4375 14.5136 12.4477 14.5089 12.459C14.5043 12.4703 14.5019 12.4824 14.502 12.4947V14.0699C14.502 14.0946 14.4922 14.1182 14.4749 14.1356C14.4575 14.1531 14.4339 14.163 14.4093 14.1631H13.6352C13.6167 14.163 13.5988 14.1575 13.5835 14.1472C13.5682 14.137 13.5563 14.1225 13.5492 14.1055C13.5445 14.0944 13.5421 14.0824 13.542 14.0704V8.38591C13.5419 8.3737 13.5443 8.3616 13.5489 8.3503C13.5535 8.33899 13.5604 8.32872 13.569 8.32006C13.5776 8.31141 13.5878 8.30454 13.5991 8.29985C13.6104 8.29516 13.6225 8.29275 13.6347 8.29275H15.706C16.8752 8.2914 17.7155 9.14699 17.7155 10.3473ZM16.7501 10.3473C16.7501 9.65828 16.2802 9.15464 15.6429 9.15464H14.5947C14.5825 9.15464 14.5704 9.15706 14.5591 9.16174C14.5479 9.16643 14.5376 9.1733 14.529 9.18196C14.5204 9.19062 14.5136 9.20089 14.5089 9.21219C14.5043 9.22349 14.5019 9.2356 14.502 9.24781V11.4415C14.502 11.4661 14.5118 11.4897 14.5292 11.507C14.5465 11.5244 14.5701 11.5342 14.5947 11.5342H15.6429C16.2802 11.5387 16.7501 11.0346 16.7501 10.3473ZM17.9451 13.0726C17.937 12.8887 17.9751 12.7058 18.0557 12.5404C18.1364 12.3751 18.2571 12.2325 18.4069 12.1256C18.7089 11.8983 19.181 11.7808 19.8741 11.7565L20.6122 11.7304V11.5126C20.6122 11.076 20.3197 10.8915 19.8498 10.8915C19.3799 10.8915 19.082 11.058 19.0136 11.3303C19.008 11.3495 18.9962 11.3662 18.9801 11.3779C18.9639 11.3897 18.9444 11.3957 18.9244 11.3951H18.1953C18.1819 11.3955 18.1686 11.3929 18.1562 11.3875C18.1439 11.3821 18.133 11.3741 18.1241 11.364C18.1153 11.3539 18.1087 11.342 18.105 11.3291C18.1013 11.3162 18.1005 11.3026 18.1026 11.2894C18.2106 10.6439 18.7476 10.1534 19.8831 10.1534C21.0911 10.1534 21.5272 10.716 21.5272 11.7898V14.0699C21.527 14.0948 21.5169 14.1186 21.4992 14.136C21.4815 14.1535 21.4576 14.1632 21.4327 14.1631H20.6977C20.6732 14.163 20.6496 14.1533 20.632 14.1361C20.6234 14.1274 20.6166 14.1172 20.612 14.1059C20.6074 14.0946 20.605 14.0826 20.605 14.0704V13.8998C20.6053 13.8857 20.6013 13.8719 20.5935 13.8601C20.5858 13.8483 20.5746 13.8392 20.5616 13.8339C20.5485 13.8285 20.5341 13.8273 20.5204 13.8303C20.5066 13.8333 20.4941 13.8405 20.4844 13.8507C20.2639 14.0906 19.9079 14.2639 19.3376 14.2639C18.4987 14.2639 17.9451 13.8273 17.9451 13.0726ZM20.6122 12.5784V12.4015L19.6563 12.4519C19.1526 12.4776 18.8596 12.6868 18.8596 13.0392C18.8596 13.3579 19.1283 13.5343 19.5978 13.5343C20.2355 13.5343 20.6122 13.19 20.6122 12.5784ZM22.2654 15.886V15.2253C22.2655 15.2114 22.2687 15.1978 22.2747 15.1853C22.2807 15.1728 22.2894 15.1618 22.3001 15.153C22.3109 15.1442 22.3234 15.138 22.3368 15.1346C22.3503 15.1312 22.3643 15.1308 22.3779 15.1335C22.4904 15.1546 22.6052 15.1654 22.7199 15.1659C22.9172 15.1755 23.1121 15.1186 23.2732 15.0043C23.4344 14.8901 23.5526 14.7251 23.6088 14.5358L23.6565 14.3836C23.6635 14.3632 23.6635 14.341 23.6565 14.3206L22.1249 10.387C22.1194 10.3727 22.1174 10.3573 22.1191 10.3421C22.1208 10.3269 22.1262 10.3123 22.1348 10.2997C22.1434 10.287 22.1549 10.2766 22.1684 10.2694C22.1819 10.2622 22.197 10.2584 22.2122 10.2582H22.9549C22.9738 10.2584 22.9923 10.2643 23.0079 10.2752C23.0235 10.286 23.0354 10.3013 23.0422 10.319L24.0823 13.0933C24.0888 13.1117 24.1009 13.1276 24.1169 13.1389C24.1328 13.1502 24.1519 13.1563 24.1714 13.1563C24.191 13.1563 24.21 13.1502 24.226 13.1389C24.242 13.1276 24.254 13.1117 24.2605 13.0933L25.1638 10.3266C25.1701 10.3077 25.1822 10.2913 25.1983 10.2796C25.2145 10.268 25.2339 10.2618 25.2539 10.2618H26.0221C26.0375 10.2619 26.0527 10.2657 26.0663 10.273C26.0799 10.2802 26.0915 10.2906 26.1002 10.3032C26.1089 10.3159 26.1145 10.3305 26.1163 10.3458C26.1181 10.3611 26.1163 10.3766 26.1108 10.391L24.4725 14.7594C24.0954 15.7748 23.4486 16.0345 22.7366 16.0345C22.6016 16.0381 22.4665 16.0219 22.336 15.9863C22.3143 15.9806 22.2953 15.9674 22.2824 15.949C22.2695 15.9307 22.2634 15.9083 22.2654 15.886ZM8.5673 7.96509C7.59157 7.95814 6.65028 8.32538 5.93705 8.99127C5.90655 9.0192 5.88754 9.05748 5.88371 9.09867C5.87988 9.13985 5.89152 9.18098 5.91635 9.21405L6.35787 9.81716C6.37219 9.83724 6.39073 9.85394 6.41219 9.86608C6.43365 9.87822 6.45751 9.88552 6.4821 9.88745C6.50668 9.88938 6.53139 9.8859 6.55448 9.87725C6.57758 9.86861 6.59849 9.85501 6.61577 9.83741C6.87222 9.58102 7.17721 9.37831 7.51291 9.24114C7.8486 9.10398 8.20827 9.03509 8.5709 9.03852C10.085 9.03852 10.8757 10.1781 10.8757 11.3033C10.8757 12.5266 10.0449 13.3872 8.85084 13.4043C7.92819 13.4043 7.23282 12.7926 7.23282 11.9847C7.23378 11.7806 7.28002 11.5793 7.3682 11.3952C7.45638 11.2111 7.58431 11.0489 7.74276 10.9203C7.77625 10.8923 7.79743 10.8523 7.80172 10.8089C7.80601 10.7654 7.79308 10.722 7.76571 10.6881L7.30168 10.1021C7.28765 10.0843 7.27021 10.0696 7.25039 10.0587C7.23057 10.0479 7.20877 10.0411 7.18629 10.0388C7.1638 10.0365 7.14108 10.0387 7.11946 10.0453C7.09785 10.0519 7.07778 10.0628 7.06044 10.0773C6.77546 10.3069 6.54549 10.5974 6.38739 10.9274C6.22929 11.2575 6.14708 11.6188 6.14679 11.9847C6.14679 13.3755 7.32869 14.4664 8.84274 14.4754H8.863C10.6606 14.452 11.9604 13.1207 11.9604 11.3011C11.9604 9.68528 10.7704 7.96509 8.56775 7.96509H8.5673Z" fill="white"/>
</svg>
