<svg width="32" height="24" viewBox="0 0 32 24" fill="none" xmlns="http://www.w3.org/2000/svg">
<rect width="32" height="24" rx="4" fill="#862165"/>
<rect x="0.5" y="0.5" width="31" height="23" rx="3.5" stroke="white" stroke-opacity="0.01"/>
<path fill-rule="evenodd" clip-rule="evenodd" d="M19.7122 9.21968C19.7122 8.73398 20.0971 8.34 20.5711 8.34C21.046 8.34 21.4306 8.73398 21.4306 9.21968C21.4306 9.70566 21.046 10.0988 20.5711 10.0988C20.0971 10.0988 19.7122 9.70566 19.7122 9.21968ZM22.1818 9.05943L23.924 8.7403V15.5866H22.1818V9.05943ZM24.7264 9.05943V15.5866H26.4697V8.7403L24.7264 9.05943ZM19.7002 10.579V15.5866H21.4432V10.579H19.7002ZM16.2884 12.7695C16.2884 11.2987 17.1066 10.5588 18.717 10.5056C18.717 10.5056 19.0079 10.4942 19.1795 10.5316V11.9953C18.1587 12.0313 18.0459 12.4087 18.0459 13.289V15.5866H16.2884V12.7695ZM13.9883 10.5734L13.9795 10.597C13.9171 10.7646 13.633 11.5277 12.9957 12.3167V8.7403L11.1969 9.10457V15.5866H12.9957V13.5827C13.5166 14.3826 13.7739 15.5866 13.7739 15.5866H15.9281C15.7151 14.6798 14.783 13.0081 14.783 13.0081C15.6199 11.9219 15.987 10.7651 16.0456 10.5734H13.9883ZM7.44997 10.7688C7.44997 11.2388 7.96025 11.2728 8.18049 11.2873C9.7959 11.3982 10.7587 12.2076 10.7587 13.453C10.7587 14.5518 9.89779 15.66 7.97727 15.66C7.0868 15.66 6.32697 15.5703 5.65311 15.3889V13.7895C6.10309 13.9789 6.8445 14.1778 7.60824 14.1778C8.30527 14.1778 8.7198 13.9418 8.7198 13.5407C8.7198 13.0567 8.21708 13.0252 8.0243 13.0131L8.02222 13.013C5.77259 12.8561 5.53029 11.4939 5.53029 10.9156C5.53029 9.91139 6.22648 8.7403 8.19138 8.7403C9.33113 8.7403 9.94552 8.92229 10.4748 9.11171L10.5013 9.12V10.6734L10.4815 10.6677C10.2691 10.5757 10.0195 10.4854 10.0195 10.4854C9.57119 10.3479 8.94423 10.2017 8.45964 10.2017C8.18412 10.2017 7.44997 10.2017 7.44997 10.7688Z" fill="white"/>
</svg>
