<svg width="32" height="24" viewBox="0 0 32 24" fill="none" xmlns="http://www.w3.org/2000/svg">
<g clip-path="url(#clip0_10328_10724)">
<rect width="32" height="24" rx="4" fill="black"/>
<path d="M24.7316 15.9623H21.5821V16.7094H22.7133V19.903H23.6049V16.7094H24.7314L24.7316 15.9623ZM10.4226 15.9623H7.26837V16.7094H8.39959V19.903H9.29114V16.7094H10.4224L10.4226 15.9623ZM19.54 15.8386C18.5478 15.8386 17.9964 16.4668 17.9964 17.3759V19.9032H18.8784V17.3569C18.8784 16.962 19.1134 16.6574 19.5496 16.6574C19.9858 16.6574 20.2159 17.019 20.2159 17.3569V19.9032H21.0979V17.3759C21.1028 16.4668 20.5323 15.8386 19.54 15.8386ZM16.2133 15.9623V19.903H17.0953V15.9623H16.2133ZM13.2221 17.5233L13.2508 17.6994L14.0801 19.903H14.4396L15.5661 15.9623H14.6984L14.1615 18.0327L14.1279 18.2564L14.0848 18.0327L13.3657 15.9623H13.0781L12.3591 18.0327L12.3159 18.2564L12.2872 18.0327L11.7503 15.9623H10.8779L12.0044 19.903H12.3639L13.1932 17.6994L13.2221 17.5233Z" fill="white"/>
<path d="M20.3288 11.4983C20.3288 11.6233 20.2395 11.7745 20.1295 11.837L16.2789 14.0454C16.1686 14.1079 15.9903 14.1079 15.8801 14.0454L12.0294 11.837C11.9192 11.7745 11.8301 11.6235 11.8301 11.4983V7.08141C11.8301 6.95646 11.9194 6.80525 12.0294 6.74277L15.8801 4.53431C15.9903 4.47184 16.1686 4.47184 16.2789 4.53431L20.1295 6.74277C20.2398 6.80525 20.3288 6.95625 20.3288 7.08141V11.4983Z" fill="white"/>
<path d="M18.0887 9.30024L17.0814 10.7639L16.5673 9.9826L17.16 9.10244C17.2703 8.94615 17.5063 8.5139 17.2335 7.92536C17.0131 7.4461 16.5357 7.21695 16.116 7.21695C15.6963 7.21695 15.2398 7.43043 14.9933 7.92536C14.7152 8.49315 14.9566 8.93577 15.0615 9.08698C15.0615 9.08698 15.3919 9.56624 15.6649 9.97244L16.1109 10.6131L16.7824 11.6341C16.7877 11.6394 16.8926 11.8007 17.0814 11.8007C17.2598 11.8007 17.37 11.6394 17.3858 11.6237L18.9596 9.31105H18.0887V9.30024ZM16.1109 9.33667C16.1109 9.33667 15.8486 8.94085 15.6753 8.66469C15.4916 8.36777 15.6963 7.92515 16.1109 7.92515C16.5252 7.92515 16.7299 8.36798 16.5464 8.66469C16.3785 8.94085 16.1109 9.33667 16.1109 9.33667Z" fill="url(#paint0_radial_10328_10724)"/>
<path d="M15.1453 10.717L14.1589 9.34195C14.1589 9.34195 13.8966 8.94613 13.7233 8.66997C13.5397 8.37305 13.7443 7.93043 14.1589 7.93043C14.2114 7.93043 14.2586 7.93572 14.3058 7.95118L14.6521 7.32092C14.4946 7.25315 14.3216 7.21672 14.1642 7.21672C13.7445 7.21672 13.288 7.4302 13.0416 7.92513C12.7635 8.49292 13.0048 8.93554 13.1097 9.08675L14.8358 11.6235C14.8516 11.6442 14.9616 11.8058 15.1453 11.8058C15.3289 11.8058 15.4338 11.6495 15.4496 11.6288L15.9691 10.8422L15.5231 10.1912L15.1453 10.717Z" fill="url(#paint1_radial_10328_10724)"/>
</g>
<rect x="0.5" y="0.5" width="31" height="23" rx="3.5" stroke="white" stroke-opacity="0.01"/>
<defs>
<radialGradient id="paint0_radial_10328_10724" cx="0" cy="0" r="1" gradientUnits="userSpaceOnUse" gradientTransform="translate(11.1889 5.83788) scale(19.7836 17.464)">
<stop stop-color="#FFCC00"/>
<stop offset="0.09157" stop-color="#FFC800"/>
<stop offset="0.1739" stop-color="#FFBD00"/>
<stop offset="0.2528" stop-color="#FFAB00"/>
<stop offset="0.3295" stop-color="#FF9100"/>
<stop offset="0.4046" stop-color="#FF7000"/>
<stop offset="0.4786" stop-color="#FF4700"/>
<stop offset="0.5503" stop-color="#FF1800"/>
<stop offset="0.5822" stop-color="#FF0000"/>
<stop offset="1" stop-color="#FF0000"/>
</radialGradient>
<radialGradient id="paint1_radial_10328_10724" cx="0" cy="0" r="1" gradientUnits="userSpaceOnUse" gradientTransform="translate(12.9869 7.88329) scale(4.25434 6.38687)">
<stop stop-color="#00B4E6"/>
<stop offset="0.201" stop-color="#00B0E3"/>
<stop offset="0.3898" stop-color="#01A5DB"/>
<stop offset="0.5737" stop-color="#0292CD"/>
<stop offset="0.7546" stop-color="#0377BA"/>
<stop offset="0.9316" stop-color="#0455A1"/>
<stop offset="1" stop-color="#054696"/>
</radialGradient>
<clipPath id="clip0_10328_10724">
<rect width="32" height="24" rx="4" fill="white"/>
</clipPath>
</defs>
</svg>
