<svg width="32" height="24" viewBox="0 0 32 24" fill="none" xmlns="http://www.w3.org/2000/svg">
<path d="M28 0.5H4C2.067 0.5 0.5 2.067 0.5 4V20C0.5 21.933 2.067 23.5 4 23.5H28C29.933 23.5 31.5 21.933 31.5 20V4C31.5 2.067 29.933 0.5 28 0.5Z" fill="white"/>
<path d="M28 0.5H4C2.067 0.5 0.5 2.067 0.5 4V20C0.5 21.933 2.067 23.5 4 23.5H28C29.933 23.5 31.5 21.933 31.5 20V4C31.5 2.067 29.933 0.5 28 0.5Z" stroke="#DBD9D7"/>
<path d="M18.6239 15.8117H17.5893V12.4532H18.6838C19.3435 12.4532 19.7784 12.7831 19.7784 13.3228C19.7784 13.6527 19.5834 13.9525 19.2686 14.0575C19.6434 14.1175 19.8983 14.4473 19.8983 14.8222C19.8833 15.4069 19.4335 15.8117 18.6239 15.8117ZM18.6389 12.918H18.189V13.8476H18.5939C18.8937 13.8476 19.1336 13.6677 19.1336 13.3678C19.1336 13.0679 18.9537 12.918 18.6389 12.918ZM18.6389 14.3274H18.189V15.3319H18.6688C18.9987 15.3319 19.2536 15.182 19.2536 14.8222C19.2386 14.4923 18.9987 14.3274 18.6389 14.3274ZM22.2373 15.122V14.1175C22.2373 13.5327 21.9374 13.2628 21.2477 13.2628C20.9478 13.2628 20.663 13.3228 20.3781 13.4278L20.3631 13.4428L20.4231 13.9525L20.4681 13.9376C20.678 13.8026 20.9329 13.7426 21.1877 13.7426C21.5326 13.7426 21.6675 13.8626 21.6675 14.1774V14.2974C20.7679 14.2974 20.2282 14.6422 20.2282 15.212C20.2282 15.6168 20.498 15.8567 20.9329 15.8567C21.2477 15.8717 21.5326 15.7218 21.7125 15.4519C21.6975 15.5568 21.6975 15.6768 21.6975 15.7817V15.8267H22.2673V15.7967C22.2373 15.6018 22.2373 15.3469 22.2373 15.122ZM21.0828 15.4069C20.9329 15.4219 20.7979 15.317 20.7829 15.167C20.7829 15.152 20.7829 15.152 20.7829 15.137C20.7829 14.8671 21.0828 14.7322 21.6675 14.7172V14.7322C21.6525 15.0621 21.4426 15.4069 21.0828 15.4069ZM24.0965 13.2778C23.7666 13.2628 23.4518 13.4278 23.2868 13.6977C23.3018 13.5777 23.3018 13.4578 23.3018 13.3528V13.3228H22.7471V15.8267H23.3318V14.6273C23.3318 14.1325 23.5867 13.7726 23.9316 13.7726C24.1714 13.7726 24.2764 13.9076 24.2764 14.2224V15.8267H24.8462V14.0875C24.8462 13.5627 24.5913 13.2778 24.0965 13.2778ZM26.4954 14.4773C26.5104 14.4623 26.7353 14.1774 26.9602 13.8926C27.0952 13.7276 27.2451 13.5477 27.41 13.3378H26.7203C26.6004 13.5027 26.4804 13.6527 26.3755 13.7876C26.1956 14.0275 26.0156 14.2674 25.9707 14.3274V12.4532H25.3859V15.8267H25.9707V14.6572C26.0156 14.7172 26.2106 15.0171 26.4055 15.302C26.5254 15.4669 26.6304 15.6468 26.7653 15.8417H27.5C27.3201 15.6018 27.1552 15.3769 27.0052 15.182C26.7653 14.8372 26.5104 14.4923 26.4954 14.4773Z" fill="#02296A"/>
<path d="M15.7601 9.24459C15.6402 9.28957 15.5352 9.37953 15.4602 9.46949C15.4302 9.51447 15.4003 9.55945 15.3703 9.61943C15.3253 9.72438 15.2353 9.79935 15.1304 9.79935H14.5906C14.4407 9.79935 14.3207 9.6794 14.3207 9.52947C14.3207 9.37953 14.4257 9.25958 14.5756 9.25958H15.0254L14.4107 8.64485C14.3057 8.5399 14.3057 8.37497 14.4107 8.27001C14.5156 8.16506 14.6806 8.16506 14.7855 8.27001L15.4003 8.88475V8.44994C15.4003 8.3 15.5202 8.18005 15.6552 8.18005C15.6552 8.18005 15.6551 8.18005 15.6701 8.18005C15.8201 8.18005 15.94 8.3 15.94 8.44994V8.9897C15.94 9.10965 15.8651 9.19961 15.7601 9.24459Z" fill="#02296A"/>
<path d="M15.6701 11.5086C15.5352 11.5236 15.4153 11.4186 15.4153 11.2837C15.4153 11.2687 15.4153 11.2537 15.4153 11.2537V10.8189L14.8005 11.4336C14.6956 11.5386 14.5156 11.5386 14.4107 11.4336C14.3057 11.3287 14.3057 11.1638 14.4107 11.0438L15.0254 10.4291H14.6056C14.4557 10.4291 14.3357 10.3091 14.3357 10.1592C14.3357 10.0093 14.4557 9.88931 14.6056 9.88931H15.1454C15.2503 9.88931 15.3553 9.94928 15.4003 10.0542C15.4602 10.2192 15.5952 10.3691 15.7751 10.4291C15.895 10.4591 15.955 10.564 15.955 10.684V11.2237C15.94 11.3887 15.8201 11.5086 15.6701 11.5086Z" fill="#02296A"/>
<path d="M17.3944 10.4441L16.9596 10.4291L17.5743 11.0438C17.6793 11.1488 17.6793 11.3137 17.5743 11.4336C17.4694 11.5386 17.3044 11.5386 17.1995 11.4336L16.5847 10.8189V11.2387C16.5847 11.3887 16.4648 11.5086 16.3299 11.5086H16.3149C16.1649 11.5086 16.045 11.3887 16.045 11.2387V10.714C16.045 10.594 16.1199 10.504 16.2249 10.4591C16.3449 10.4141 16.4498 10.3391 16.5248 10.2342C16.5548 10.1892 16.5847 10.1442 16.6147 10.0842C16.6597 9.97927 16.7497 9.9193 16.8696 9.9043H17.3944C17.5443 9.9043 17.6643 10.0243 17.6643 10.1742C17.6643 10.3241 17.5443 10.4441 17.4094 10.4441C17.4094 10.4441 17.4094 10.4441 17.3944 10.4441Z" fill="#02296A"/>
<path d="M17.3944 9.79935H16.8546C16.7497 9.79935 16.6447 9.73938 16.5997 9.63442C16.5548 9.51447 16.4798 9.40952 16.3748 9.33455C16.3299 9.30456 16.2849 9.27458 16.2249 9.24459C16.1199 9.19961 16.045 9.10965 16.045 8.9897V8.44994C16.045 8.3 16.1649 8.18005 16.2999 8.18005C16.4498 8.18005 16.5698 8.28501 16.5698 8.43494C16.5698 8.43494 16.5698 8.43494 16.5698 8.44994V8.88475L17.1845 8.27001C17.2894 8.16506 17.4544 8.16506 17.5593 8.27001C17.6643 8.37497 17.6643 8.5399 17.5593 8.65985L16.9446 9.27458H17.3944C17.5443 9.27458 17.6643 9.39453 17.6643 9.54446C17.6643 9.66441 17.5443 9.79935 17.3944 9.79935Z" fill="#02296A"/>
<path d="M6.58409 12.4532V14.4173C6.58409 14.5373 6.58409 14.6572 6.5691 14.7772C6.52412 15.197 6.31421 15.3769 5.83442 15.3769C5.39961 15.3769 5.1897 15.212 5.12973 14.8821C5.09974 14.7472 5.08475 14.6123 5.08475 14.4773V12.4532H4.5V14.5223C4.5 14.6872 4.51499 14.8522 4.54498 15.0171C4.66493 15.5718 5.06975 15.8717 5.78944 15.8717C6.58409 15.8717 7.0339 15.5419 7.13885 14.9121C7.15385 14.7472 7.16884 14.5973 7.16884 14.4323V12.4532H6.58409Z" fill="#02296A"/>
<path d="M8.29335 12.4532H7.7086V15.8267H8.29335V12.4532Z" fill="#02296A"/>
<path d="M9.74772 14.3424C9.49283 14.2374 9.34289 14.1625 9.34289 13.9825C9.34289 13.7726 9.53781 13.7126 9.76271 13.7126C9.92764 13.7126 10.0926 13.7426 10.2425 13.7876V13.2928C10.0776 13.2628 9.89765 13.2479 9.73272 13.2479C9.13299 13.2479 8.74316 13.5327 8.74316 13.9975C8.74316 14.4473 9.02803 14.5973 9.40287 14.7472C9.65776 14.8522 9.82269 14.9121 9.82269 15.092C9.82269 15.272 9.68774 15.3619 9.40287 15.3619C9.20795 15.3619 8.99804 15.3319 8.81812 15.257L8.75815 15.7668C8.95306 15.8117 9.16297 15.8417 9.35789 15.8417C10.0026 15.8417 10.4224 15.5568 10.4224 15.0471C10.4074 14.5973 10.0776 14.4773 9.74772 14.3424Z" fill="#02296A"/>
<path d="M11.5769 12.4382L11.0072 12.6031V13.3228H10.5424V13.8026H11.0072V15.0771C11.0072 15.6468 11.2021 15.8567 11.7119 15.8567C11.8768 15.8567 12.0417 15.8417 12.2066 15.7967H12.2216V15.302C12.1017 15.3319 11.9967 15.3469 11.8768 15.3469C11.6669 15.3469 11.5919 15.287 11.5919 14.9121V13.7876H12.2366V13.3078H11.5919V12.4382H11.5769Z" fill="#02296A"/>
<path d="M14.6206 14.6273L14.6356 14.3574C14.6356 13.6677 14.2608 13.2778 13.616 13.2778C12.9263 13.2778 12.4765 13.7876 12.4765 14.5823C12.4765 15.4369 12.8814 15.8567 13.676 15.8567C13.9759 15.8567 14.2608 15.8117 14.5456 15.6918L14.5007 15.227L14.4557 15.242C14.2308 15.3469 14.0059 15.3919 13.751 15.3919C13.5561 15.4069 13.3761 15.3469 13.2262 15.212C13.0913 15.0471 13.0313 14.8522 13.0463 14.6422V14.6273H14.6206ZM13.586 13.7126C13.706 13.7126 13.8259 13.7576 13.9159 13.8476C14.0059 13.9376 14.0508 14.0725 14.0508 14.2074H13.0763C13.1362 13.9076 13.3162 13.7126 13.586 13.7126Z" fill="#02296A"/>
<path d="M15.6252 13.7126C15.6402 13.5927 15.6552 13.4728 15.6552 13.3528V13.3228H15.1004V15.8267H15.6851V14.8072C15.6851 14.3574 15.7751 14.0725 15.94 13.9376C16.03 13.8626 16.1349 13.8326 16.2399 13.8326C16.2999 13.8326 16.3598 13.8476 16.4198 13.8476L16.4348 13.2628C16.3898 13.2628 16.3598 13.2628 16.3149 13.2628C16 13.2778 15.7301 13.4578 15.6252 13.7126Z" fill="#02296A"/>
</svg>
