<svg width="32" height="24" viewBox="0 0 32 24" fill="none" xmlns="http://www.w3.org/2000/svg">
<rect x="0.5" y="0.5" width="31" height="23" rx="3.5" fill="white"/>
<rect x="0.5" y="0.5" width="31" height="23" rx="3.5" stroke="#DBD9D7"/>
<path fill-rule="evenodd" clip-rule="evenodd" d="M13.9948 10.7045H14.8942L15.0387 9.96454H14.1392L13.9948 10.7045ZM13.9015 11.1805H14.8011L14.2296 14.1023C14.1879 14.1171 14.0591 14.169 13.8813 14.169C13.6413 14.169 13.4212 14.0741 13.4212 13.7373C13.4212 13.6739 13.4284 13.6018 13.4444 13.5198C13.6232 12.6081 13.9015 11.1805 13.9015 11.1805ZM22.8336 11.1138C22.2349 11.1138 21.9969 11.4699 21.8852 11.6867H21.8746L21.9091 11.1811H21.0201C21.0143 11.2923 20.9759 11.6427 20.9189 11.9449C20.9189 11.9449 20.7136 13.0055 20.6747 13.2085C20.6451 13.3636 20.591 13.593 20.591 13.7261C20.591 14.0094 20.7326 14.1691 21.0484 14.1691C21.2255 14.1691 21.3532 14.12 21.3997 14.1023L21.697 12.5807C21.7794 12.1605 22.0787 11.8856 22.4345 11.8856C22.7215 11.8856 22.8588 12.0982 22.8588 12.272C22.8588 12.4233 22.8214 12.5909 22.7924 12.7392L22.6646 13.3908C22.6494 13.469 22.6168 13.6193 22.6168 13.7371C22.6168 14.0252 22.7768 14.1691 23.0806 14.1691C23.2464 14.1691 23.3516 14.127 23.4261 14.1023L23.6928 12.7383C23.7507 12.43 23.772 12.2676 23.772 12.0714C23.772 11.5065 23.4467 11.1138 22.8336 11.1138ZM18.8379 11.8203C18.3351 11.8203 18.0566 12.3423 18.0566 12.8076C18.0566 13.2 18.2311 13.4629 18.6279 13.4629C19.0764 13.4629 19.4274 13.0753 19.4274 12.4137C19.4274 12.111 19.2688 11.8203 18.8379 11.8203ZM18.5727 14.1692C17.6096 14.1692 17.1487 13.5826 17.1487 12.8349C17.1487 11.809 17.8423 11.1138 18.9142 11.1138C19.8443 11.1138 20.3382 11.6857 20.3382 12.4201C20.3382 13.5207 19.5973 14.1692 18.5727 14.1692ZM15.2043 13.4657C15.1837 13.5709 15.1708 13.6445 15.1708 13.7351C15.1708 14.07 15.3912 14.1691 15.6249 14.1691C15.8117 14.1691 15.9273 14.1173 15.9696 14.1023L16.4021 11.8876L17.1015 11.8875L17.2395 11.1805L16.5402 11.1806L16.5742 11.0065C16.6375 10.6799 16.7888 10.5363 17.0506 10.5363C17.2254 10.5363 17.3668 10.5679 17.4159 10.5809L17.5476 9.90866C17.4915 9.89426 17.233 9.82999 16.8505 9.82999C16.241 9.82999 15.8417 10.206 15.7236 10.8115L15.6513 11.1805H15.1959L15.0578 11.8875H15.5134C15.5134 11.8875 15.3337 12.8032 15.2043 13.4657ZM13.1334 11.1138C12.682 11.1138 12.4337 11.4322 12.3366 11.6862H12.3262L12.3609 11.1805H11.4716C11.4637 11.3558 11.4276 11.6522 11.337 12.1181C11.2452 12.5903 11.1557 13.0613 11.0633 13.5197C11.0475 13.5981 11.0405 13.6748 11.0405 13.7397C11.0405 13.9798 11.1573 14.1689 11.5025 14.1689C11.6735 14.1689 11.7923 14.1238 11.8493 14.1023L12.1138 12.7478C12.2091 12.2296 12.3823 11.8869 12.8845 11.8869C13.113 11.8869 13.33 11.9364 13.3755 11.95L13.5278 11.1707C13.4949 11.1591 13.363 11.1138 13.1334 11.1138ZM26.1807 12.3647C26.2289 12.0969 26.0754 11.8203 25.7287 11.8203C25.3052 11.8203 25.1192 12.1141 25.0362 12.3647H26.1807ZM26.5821 13.452C26.5821 13.8584 26.1947 14.17 25.5086 14.17C24.5604 14.17 24.0967 13.5701 24.0967 12.8357C24.0967 12.1067 24.5732 11.1145 25.7361 11.1145C26.5029 11.1145 27.0763 11.5014 27.0763 12.3872C27.0763 12.605 27.0285 12.8418 27.008 12.9366H24.9698C24.9663 13.1492 25.1427 13.5175 25.8512 13.5175C26.167 13.5175 26.5245 13.4042 26.5821 13.3753C26.5821 13.3974 26.5821 13.4374 26.5821 13.452ZM9.92756 12.3647C9.97563 12.0969 9.82219 11.8203 9.4754 11.8203C9.05194 11.8203 8.86602 12.1141 8.7829 12.3647H9.92756ZM10.329 13.452C10.329 13.8584 9.94153 14.17 9.25553 14.17C8.30723 14.17 7.84364 13.5701 7.84364 12.8357C7.84364 12.1067 8.32003 11.1145 9.48309 11.1145C10.2499 11.1145 10.8232 11.5014 10.8232 12.3872C10.8232 12.605 10.7754 12.8418 10.7549 12.9366H8.7167C8.71329 13.1492 8.8896 13.5175 9.59808 13.5175C9.91382 13.5175 10.2714 13.4042 10.329 13.3753C10.329 13.3974 10.329 13.4374 10.329 13.452ZM4.92374 10.1863H5.82866V13.0914C5.82866 13.5283 6.04274 13.7513 6.38642 13.7513C6.42147 13.7513 6.44213 13.7468 6.44895 13.7451C6.2983 13.9766 6.103 14.1665 5.65455 14.1665C5.18006 14.1665 4.92374 13.832 4.92374 13.3299V10.1863Z" fill="#1A1919"/>
<path fill-rule="evenodd" clip-rule="evenodd" d="M6.23483 12.547C6.13413 12.7066 6.0807 12.8916 6.0807 13.0804V13.0963C6.0807 13.3908 6.23732 13.4964 6.40833 13.4964C6.58312 13.4964 6.67669 13.376 6.76253 13.2391C6.90636 13.0099 8.66397 10.1863 8.66397 10.1863H7.72339L6.23483 12.547Z" fill="#00A3DA"/>
</svg>
