<svg width="32" height="24" viewBox="0 0 32 24" fill="none" xmlns="http://www.w3.org/2000/svg">
<rect width="32" height="24" rx="4" fill="#172B85"/>
<rect x="0.5" y="0.5" width="31" height="23" rx="3.5" stroke="white" stroke-opacity="0.01"/>
<path fill-rule="evenodd" clip-rule="evenodd" d="M10.4502 15.5063H8.56358L7.14882 9.95015C7.08167 9.69456 6.93909 9.46862 6.72936 9.36212C6.20595 9.0945 5.62919 8.88152 5 8.7741V8.56019H8.03925C8.45871 8.56019 8.77331 8.88152 8.82574 9.2547L9.5598 13.2625L11.4455 8.56019H13.2797L10.4502 15.5063ZM14.3284 15.5063H12.5466L14.0138 8.56019H15.7956L14.3284 15.5063ZM18.1008 10.4845C18.1532 10.1104 18.4678 9.89645 18.8349 9.89645C19.4116 9.84274 20.0399 9.95016 20.5642 10.2169L20.8788 8.72132C20.3545 8.50741 19.7777 8.39999 19.2543 8.39999C17.525 8.39999 16.2666 9.36213 16.2666 10.6975C16.2666 11.7133 17.1579 12.2467 17.7871 12.568C18.4678 12.8884 18.73 13.1023 18.6776 13.4227C18.6776 13.9033 18.1532 14.1173 17.6298 14.1173C17.0006 14.1173 16.3714 13.9571 15.7956 13.6894L15.481 15.1859C16.1102 15.4526 16.7909 15.56 17.4201 15.56C19.3592 15.6128 20.5642 14.6516 20.5642 13.2088C20.5642 11.392 18.1008 11.2855 18.1008 10.4845ZM26.8 15.5063L25.3853 8.56019H23.8656C23.551 8.56019 23.2364 8.7741 23.1316 9.0945L20.5118 15.5063H22.346L22.7121 14.4914H24.9658L25.1755 15.5063H26.8ZM24.1278 10.4308L24.6512 13.0486H23.184L24.1278 10.4308Z" fill="white"/>
</svg>
