<svg width="32" height="24" viewBox="0 0 32 24" fill="none" xmlns="http://www.w3.org/2000/svg">
<rect x="0.5" y="0.5" width="31" height="23" rx="3.5" fill="white"/>
<rect x="0.5" y="0.5" width="31" height="23" rx="3.5" stroke="#DBD9D7"/>
<path fill-rule="evenodd" clip-rule="evenodd" d="M11.7912 15.8287C11.9351 15.7539 12.1797 15.6558 12.4388 15.6558C13.0334 15.6558 13.3549 16.0574 13.3549 16.8046C13.3549 17.6775 12.9233 18.1024 12.2278 18.1024C11.9735 18.1024 11.5802 18.023 11.2924 17.8734V14.6148L11.7912 14.498V15.8287ZM11.7865 17.7008C11.9399 17.7661 12.1079 17.7754 12.2278 17.7754C12.5827 17.7754 12.8513 17.5607 12.8513 16.8046C12.8513 16.2115 12.6307 16.0201 12.3093 16.0201C12.1174 16.0201 11.9784 16.0714 11.7865 16.1741V17.7008ZM6.67786 15.7165H6.71145L7.36363 18.0463H7.88161L8.65875 14.736H8.09751L7.60829 17.2059H7.57486L6.90801 14.736H6.48114L5.85763 17.2059H5.82403L5.2868 14.736H4.74965L5.5267 18.0463H6.0446L6.67786 15.7165ZM10.7842 17.8875V17.5327C10.5204 17.6867 10.2806 17.7754 10.0216 17.7754C9.52759 17.7754 9.29261 17.5279 9.29261 16.9677H10.8561V16.795C10.8561 16.0341 10.4868 15.6559 9.88736 15.6559C9.16791 15.6559 8.79855 16.1695 8.79855 16.879C8.79855 17.6168 9.12948 18.1024 9.9352 18.1024C10.2806 18.1024 10.5684 18.009 10.7842 17.8875ZM10.4005 16.655H9.30231C9.35491 16.1882 9.58022 15.9687 9.87297 15.9687C10.132 15.9687 10.3767 16.1647 10.4005 16.655ZM15.5613 17.346H15.5372L14.4628 14.736H13.8825V18.0463H14.3142V15.7026H14.3573L15.3359 18.0463H15.6428L16.6213 15.6465H16.6645V18.0463H17.1825V14.736H16.5877L15.5613 17.346ZM17.7102 16.879C17.7102 16.062 18.1707 15.6559 18.8038 15.6559C19.4369 15.6559 19.8975 16.062 19.8975 16.879C19.8975 17.6775 19.4609 18.1024 18.8038 18.1024C18.1466 18.1024 17.7102 17.6775 17.7102 16.879ZM19.3937 16.879C19.3937 16.2488 19.1298 15.9828 18.8037 15.9828C18.4871 15.9828 18.2137 16.2488 18.2137 16.879C18.2137 17.5189 18.4633 17.7754 18.8037 17.7754C19.1442 17.7754 19.3937 17.5189 19.3937 16.879ZM21.5759 15.6559C21.0245 15.6559 20.5687 15.8753 20.3529 16.0013V18.0463H20.8518V16.1975C21.0005 16.1136 21.2451 16.0293 21.4371 16.0293C21.6816 16.0293 21.8685 16.0947 21.8685 16.4636V18.0463H22.3673V16.3561C22.3673 15.8753 22.1517 15.6559 21.5759 15.6559ZM24.799 17.5327V17.8875C24.5833 18.009 24.2956 18.1024 23.9501 18.1024C23.1445 18.1024 22.8135 17.6168 22.8135 16.879C22.8135 16.1695 23.1829 15.6559 23.9023 15.6559C24.5019 15.6559 24.8714 16.0341 24.8714 16.795V16.9677H23.3077C23.3077 17.5279 23.5427 17.7754 24.0366 17.7754C24.2956 17.7754 24.5355 17.6867 24.799 17.5327ZM23.3173 16.655H24.4156C24.3917 16.1647 24.1469 15.9687 23.8879 15.9687C23.5953 15.9687 23.3701 16.1882 23.3173 16.655ZM27.2504 15.7352H26.7371L26.1901 17.4532H26.1616L25.5476 15.7352H25.02L25.9409 18.0696C25.8256 18.415 25.6244 18.6674 25.2982 18.6674V19.05C25.8495 19.05 26.1422 18.714 26.3821 18.0696L27.2504 15.7352Z" fill="#0068A3"/>
<path fill-rule="evenodd" clip-rule="evenodd" d="M15.6784 4.95001C16.3385 4.95001 16.9636 5.09963 17.5203 5.36527C17.6078 5.40565 17.695 5.45007 17.7825 5.49912L17.3955 5.83626L16.814 5.25107L15.8327 6.10306L15.2498 5.48384L13.4218 7.08774L14.5938 8.3449L14.1332 8.73919L15.2875 9.99826L14.8297 10.3916L16.4791 12.1788L17.4583 11.3013L18.3048 12.2416C18.1364 12.369 17.953 12.4889 17.7509 12.5997C17.1388 12.9395 16.4313 13.134 15.6784 13.134C13.363 13.134 11.4746 11.2956 11.4746 9.04215C11.4746 6.78816 13.363 4.95001 15.6784 4.95001ZM14.9123 8.78342L15.9119 7.90716L16.812 8.88044L15.8125 9.75637L14.9123 8.78342ZM16.6228 9.58874L15.6231 10.4647L16.5234 11.438L17.5231 10.5618L16.6228 9.58874ZM14.197 7.12176L15.1966 6.24575L16.0965 7.21879L15.0969 8.0948L14.197 7.12176ZM16.7812 5.99327L16.0314 6.65022L16.7064 7.38024L17.4562 6.72305L16.7812 5.99327ZM17.3635 9.65984L18.1135 9.00265L18.7885 9.73259L18.0388 10.3896L17.3635 9.65984ZM18.7727 10.4767L18.0231 11.134L18.6981 11.8635L19.4478 11.2065L18.7727 10.4767ZM18.325 7.75552L18.8248 7.31748L19.2748 7.804L18.7752 8.24196L18.325 7.75552ZM18.1863 5.87193L17.6864 6.3099L18.1364 6.79642L18.6363 6.35845L18.1863 5.87193ZM18.964 9.20101L19.4638 8.76296L19.9139 9.2494L19.414 9.68745L18.964 9.20101ZM17.4721 7.46056L16.7224 8.11784L17.3976 8.84737L18.1471 8.19034L17.4721 7.46056Z" fill="#0068A3"/>
</svg>
