<svg width="32" height="24" viewBox="0 0 32 24" fill="none" xmlns="http://www.w3.org/2000/svg">
<rect width="32" height="24" rx="4" fill="#FC401D"/>
<rect x="0.5" y="0.5" width="31" height="23" rx="3.5" stroke="white" stroke-opacity="0.01"/>
<g clip-path="url(#clip0_10328_10622)">
<path fill-rule="evenodd" clip-rule="evenodd" d="M16.0928 9.24891C16.5979 9.25122 17.1025 9.24431 17.6071 9.2526C18.1173 9.26134 18.6569 9.37737 19.0506 9.72132C19.3876 10.0114 19.5534 10.4589 19.5654 10.8959C19.5801 11.3213 19.5004 11.7735 19.232 12.1156C18.9917 12.4397 18.609 12.6253 18.2237 12.7151C17.8406 12.8035 17.4446 12.7869 17.0546 12.7892C17.0523 13.4412 17.056 14.0931 17.0528 14.7451C16.7332 14.7451 16.4132 14.746 16.0937 14.7442C16.0919 12.9126 16.0937 11.081 16.0928 9.24891ZM17.0542 9.99758C17.0542 10.6804 17.0542 11.3628 17.0542 12.0456C17.4395 12.0387 17.8645 12.0944 18.2043 11.8706C18.5248 11.6671 18.6155 11.2518 18.592 10.8963C18.5833 10.5984 18.4594 10.2743 18.1813 10.1306C17.8374 9.93864 17.4303 10.0109 17.0542 9.99758ZM20.984 9.24845C20.5005 11.081 20.0124 12.9121 19.5308 14.7451C19.8043 14.7451 20.0778 14.7456 20.3509 14.7451C20.4554 14.3468 20.5553 13.9472 20.6584 13.5489C21.2206 13.5484 21.7828 13.548 22.345 13.5489C22.4435 13.9481 22.5448 14.3464 22.6434 14.7456C22.9753 14.7456 23.3073 14.746 23.6397 14.7456C23.1577 12.914 22.676 11.0814 22.1926 9.25029C21.7897 9.24937 21.3868 9.25075 20.984 9.24937V9.24845ZM21.5042 10.2586C21.7234 11.1049 21.9384 11.9526 22.1516 12.8002C21.7174 12.7989 21.2832 12.8016 20.849 12.7989C21.0696 11.9526 21.2865 11.1058 21.5042 10.2586ZM23.328 9.24983C23.6692 9.24799 24.0108 9.24937 24.3525 9.24937C24.7264 10.0146 25.0979 10.7812 25.4769 11.5442C25.8498 10.7776 26.2329 10.016 26.6068 9.24937C26.9042 9.24799 27.2021 9.24983 27.5 9.24845C26.97 10.3028 26.4221 11.3489 25.8968 12.4056C25.8899 13.1852 25.8977 13.9651 25.8931 14.7446C25.5749 14.7446 25.2572 14.7456 24.9391 14.7446C24.9354 13.9647 24.9441 13.1852 24.9354 12.4056C24.41 11.3489 23.8548 10.3065 23.328 9.24983Z" fill="white"/>
<path fill-rule="evenodd" clip-rule="evenodd" d="M8.63642 7.4437C9.68069 7.33181 10.7581 7.61221 11.6297 8.19466C12.4723 8.76284 13.1256 9.61279 13.4355 10.5829C13.7242 11.4651 13.7362 12.4325 13.4654 13.3207C13.157 14.3691 12.4488 15.2904 11.5252 15.8715C10.7282 16.3784 9.76909 16.6279 8.82704 16.5741C7.77449 16.5133 6.74266 16.086 5.9742 15.3604C5.16246 14.6186 4.63526 13.5739 4.52798 12.4794C4.44464 11.7782 4.55008 11.0609 4.78858 10.3983C5.15647 9.41066 5.87751 8.55886 6.79193 8.03489C7.35412 7.7066 7.98905 7.50355 8.63642 7.4437Z" fill="white"/>
<path fill-rule="evenodd" clip-rule="evenodd" d="M10.3986 9.41743C10.3631 9.45334 10.3433 9.50122 10.3208 9.54589C9.99158 10.2941 9.66789 11.0446 9.33132 11.79C9.2931 11.8761 9.26501 11.9664 9.23785 12.0566C9.55094 12.0709 9.86404 12.0645 10.1776 12.0608C10.2292 11.9535 10.2844 11.8481 10.3305 11.7375C10.6643 10.9608 11.0202 10.1928 11.3476 9.41374C11.0317 9.41374 10.7145 9.40085 10.3986 9.41743ZM6.81183 9.41328C7.1415 9.41098 7.47209 9.40592 7.80176 9.41466C8.2539 10.3922 8.70098 11.3724 9.14945 12.3522C9.30968 12.7123 9.50076 13.071 9.53667 13.4706C9.58962 13.9398 9.55324 14.4136 9.56476 14.8846C9.24844 14.9191 8.92752 14.9145 8.61074 14.8887C8.59554 14.4011 8.61074 13.9131 8.60475 13.4255C8.60613 13.3477 8.58311 13.2726 8.55042 13.2031C7.97074 11.9401 7.38507 10.6795 6.81183 9.41328Z" fill="#FC401D"/>
</g>
<defs>
<clipPath id="clip0_10328_10622">
<rect width="23" height="9.16169" fill="white" transform="translate(4.5 7.41916)"/>
</clipPath>
</defs>
</svg>
