<svg width="17" height="16" viewBox="0 0 17 16" fill="none" xmlns="http://www.w3.org/2000/svg">
<path d="M14.4071 4.91124L14.1709 4.80624L12.0621 3.78249L12.0884 5.92624L11.8871 6.97624L11.4934 7.29999H10.8459C10.7846 6.65249 10.6884 6.05749 10.5396 5.53249C10.5221 5.42749 10.4696 5.29624 10.4171 5.16499C10.4084 5.14749 9.96213 4.32499 9.95338 4.30749C9.97088 3.79999 10.1196 3.41499 10.4084 3.15249C10.9684 2.61874 11.8871 2.64499 11.9396 2.64499V1.34124C11.7646 1.34124 10.4521 1.32374 9.51588 2.19874C9.28838 2.40874 9.11338 2.66249 8.97338 2.94249H8.73713H8.49213C8.35213 2.67999 8.18588 2.40874 7.96713 2.19874C7.00463 1.28874 5.57838 1.34124 5.54338 1.34124H5.45588V2.64499H5.56963C5.56963 2.64499 6.50588 2.61874 7.06588 3.14374C7.35463 3.41499 7.50338 3.79999 7.52088 4.28999C7.52088 4.30749 7.06588 5.13874 7.04838 5.15624C6.98713 5.28749 6.94338 5.40999 6.91713 5.52374C6.76838 6.03999 6.66338 6.64374 6.60213 7.29124H5.93713L5.56088 6.98499L5.30713 6.06624L5.33338 3.92249L3.22463 4.94624C2.69088 5.20874 2.46338 5.19999 2.46338 5.80374C2.46338 6.63499 2.90963 7.41374 3.62713 7.83374L3.99463 8.04374L4.43213 7.73749L5.46463 8.60374H6.52338C6.51463 9.84624 6.64588 11.115 6.91713 12.1037L6.34838 12.9262C6.12088 13.2587 6.09463 13.6875 6.27838 14.0375C6.46213 14.3962 6.82963 14.615 7.23213 14.6237H7.37213L7.83588 14.4225L8.22963 14.615C8.37838 14.6937 8.55338 14.7287 8.71963 14.7287C8.88588 14.7287 9.05213 14.6937 9.20088 14.615L9.58588 14.4225L10.0409 14.6325H10.1809C10.5834 14.6325 10.9509 14.4137 11.1346 14.055C11.3271 13.6962 11.3009 13.2675 11.0734 12.9437L10.4784 12.06C10.7496 11.0537 10.8809 9.82875 10.8809 8.62125H12.0096L13.0421 7.75499L13.4796 8.06124L13.8471 7.85124C14.5734 7.43124 15.0109 6.66124 15.0109 5.82124C15.0109 5.22624 14.9059 5.16499 14.3721 4.90249L14.4071 4.91124ZM9.08713 12.2962L9.55088 12.9875L8.73713 13.3987L7.92338 12.9875L8.38713 12.3137M9.40213 10.9925H8.03713C7.96713 10.5812 7.90588 10.135 7.87963 9.68875L7.86213 8.38499C7.88838 7.46624 7.99338 6.57374 8.19463 5.87374C8.23838 5.68124 8.46588 5.27874 8.73713 4.85874C9.01713 5.29624 9.23588 5.68124 9.27088 5.84749C9.47213 6.55624 9.55088 8.76124 9.56838 9.69749C9.53338 10.1612 9.48088 10.5987 9.41088 11.0012L9.40213 10.9925Z" fill="#242E30"/>
</svg>
