<svg width="17" height="16" viewBox="0 0 17 16" fill="none" xmlns="http://www.w3.org/2000/svg">
<path d="M14.6695 5.10377C14.2758 3.48502 12.9195 2.20752 11.2745 1.92752C9.96205 1.70002 8.77205 2.16377 7.8358 3.25752C7.3108 3.87002 7.00455 4.67502 6.96955 5.56752C6.95205 5.93502 6.6633 6.22377 6.26955 6.24127C5.41205 6.27627 4.5983 6.58252 3.9858 7.10752C2.89205 8.04377 2.4283 9.23377 2.6558 10.5463C2.9358 12.1825 4.2133 13.5475 5.83205 13.9413C6.26955 14.0463 6.77705 14.125 7.3283 14.125C8.8158 14.125 10.627 13.5913 12.4733 11.745C15.002 9.21627 15.0633 6.74002 14.6695 5.10377ZM11.5983 10.87C9.9008 12.5675 8.05455 13.1975 6.12955 12.7338C4.9833 12.4625 4.0908 11.5 3.88955 10.3363C3.7408 9.47002 4.04705 8.70003 4.8083 8.04378C5.11455 7.78128 5.51705 7.59752 5.9633 7.52752C6.0333 7.66752 6.12955 7.79003 6.25205 7.89503C6.88205 8.43753 7.9233 8.26252 8.56205 7.51877C9.2008 6.76627 9.20955 5.71627 8.57955 5.17377C8.5008 5.10377 8.4133 5.05127 8.3258 5.00752C8.42205 4.65752 8.5708 4.33377 8.7983 4.07127C9.3408 3.44127 9.9708 3.11752 10.6708 3.11752C10.8108 3.11752 10.942 3.12627 11.0908 3.15252C12.2458 3.35377 13.2083 4.24627 13.4795 5.39252C13.9433 7.31752 13.3133 9.16378 11.6158 10.8613L11.5983 10.87Z" fill="#242E30"/>
</svg>
