<svg width="16" height="16" viewBox="0 0 16 16" fill="none" xmlns="http://www.w3.org/2000/svg">
<path d="M13.0572 11.9857L10.1822 6.34041V2.42006H10.8008V1.11328H5.15547V2.42006H5.75659V6.3317L2.92523 11.9857C2.6116 12.6043 2.64645 13.3273 3.01235 13.9198C3.37825 14.5122 4.01421 14.8606 4.70245 14.8606H11.2712C11.9682 14.8606 12.6041 14.5034 12.97 13.911C13.3359 13.3186 13.3621 12.5868 13.0484 11.9683L13.0572 11.9857ZM8.86673 2.42006L8.88416 6.64533L9.74663 8.35286C9.25877 8.34415 8.77961 8.05665 8.28304 7.76045C7.85616 7.50781 7.38571 7.23774 6.85429 7.10706L7.08951 6.64533L7.07209 2.42006H8.86673ZM11.8636 13.2402C11.8026 13.3361 11.6284 13.5626 11.2799 13.5626H4.71116C4.3714 13.5626 4.18845 13.3361 4.12747 13.2402C4.06649 13.1444 3.94452 12.883 4.10133 12.5781L6.23574 8.33543C6.65392 8.31801 7.12436 8.58808 7.60351 8.88428C8.21334 9.25018 8.91029 9.66835 9.77277 9.66835C9.94701 9.66835 10.13 9.64222 10.339 9.59866L10.3129 9.49411L11.881 12.5781C12.0379 12.883 11.9159 13.1444 11.8549 13.2402H11.8636Z" fill="#242E30"/>
<path d="M6.8629 11.5329C6.81063 11.4806 6.74093 11.4458 6.67124 11.4109C6.60154 11.3761 6.52314 11.3587 6.43602 11.3412C6.3489 11.3238 6.27049 11.3064 6.20951 11.2977C6.14853 11.2803 6.09625 11.2715 6.06141 11.2541C6.02656 11.2367 6.00042 11.2193 5.983 11.2018C5.96558 11.1844 5.95686 11.1583 5.95686 11.1322C5.95686 11.0799 5.983 11.045 6.02656 11.0276C6.07883 11.0015 6.13981 10.9928 6.21822 10.9928C6.27049 10.9928 6.31405 10.9928 6.35761 11.0102C6.40117 11.0276 6.43602 11.0276 6.47087 11.045C6.50571 11.0625 6.54056 11.0799 6.5667 11.0973C6.60154 11.1147 6.62768 11.1409 6.65382 11.167L7.011 10.8098C7.011 10.8098 6.92388 10.7314 6.88032 10.6966C6.82805 10.6617 6.77578 10.6269 6.70609 10.6007C6.6451 10.5746 6.5667 10.5485 6.48829 10.531C6.40117 10.5136 6.31405 10.5049 6.20951 10.5049C6.08754 10.5049 5.96558 10.5223 5.86103 10.5485C5.75649 10.5746 5.66937 10.6181 5.59097 10.6791C5.52127 10.7314 5.46029 10.8011 5.41673 10.8795C5.37317 10.9579 5.35574 11.0537 5.35574 11.1496C5.35574 11.2454 5.37317 11.3238 5.3993 11.3935C5.42544 11.4632 5.469 11.5242 5.52127 11.5765C5.57354 11.6287 5.64324 11.6723 5.71293 11.6984C5.79134 11.7333 5.86975 11.7507 5.95686 11.7681C6.04398 11.7855 6.12239 11.7943 6.18337 11.8117C6.24436 11.8291 6.29663 11.8378 6.33148 11.8552C6.36632 11.8727 6.39246 11.8901 6.40988 11.9075C6.42731 11.9249 6.43602 11.9511 6.43602 11.9685C6.43602 12.0208 6.40988 12.0556 6.35761 12.0817C6.30534 12.1079 6.23564 12.1253 6.14853 12.1253C6.08754 12.1253 6.02656 12.1253 5.97429 12.1079C5.92202 12.0992 5.87846 12.0817 5.8349 12.0643C5.79134 12.0469 5.75649 12.0295 5.72164 12.0033C5.6868 11.9772 5.66066 11.9511 5.62581 11.9162L5.27734 12.2647C5.37317 12.3779 5.49513 12.4651 5.62581 12.5173C5.7652 12.5783 5.93073 12.6045 6.1311 12.6045C6.26178 12.6045 6.38375 12.587 6.48829 12.5522C6.60154 12.5173 6.68866 12.4738 6.76707 12.4128C6.84548 12.3518 6.90646 12.2821 6.94131 12.2037C6.98487 12.1253 7.00229 12.0295 7.00229 11.9336C7.00229 11.8378 6.98487 11.7594 6.95002 11.6897C6.91517 11.62 6.87161 11.559 6.81934 11.5068L6.8629 11.5329Z" fill="#242E30"/>
<path d="M9.1366 10.8446C9.04077 10.74 8.92752 10.6616 8.78813 10.5919C8.64874 10.5309 8.48321 10.4961 8.30026 10.4961C8.11731 10.4961 7.95179 10.5309 7.8124 10.5919C7.67301 10.6616 7.55975 10.74 7.46392 10.8446C7.3768 10.9491 7.30711 11.0624 7.26355 11.1843C7.21999 11.3063 7.19385 11.437 7.19385 11.5589C7.19385 11.6809 7.21999 11.8029 7.26355 11.9335C7.30711 12.0555 7.3768 12.1775 7.46392 12.2733C7.55975 12.3778 7.67301 12.4563 7.8124 12.526C7.95179 12.5956 8.11731 12.6218 8.30026 12.6218C8.48321 12.6218 8.64874 12.5869 8.78813 12.526C8.92752 12.465 9.04077 12.3778 9.1366 12.2733C9.22372 12.1688 9.29342 12.0555 9.33698 11.9335C9.38054 11.8116 9.40667 11.6809 9.40667 11.5589C9.40667 11.437 9.38054 11.315 9.33698 11.1843C9.29342 11.0624 9.22372 10.9491 9.1366 10.8446ZM8.67487 11.9423C8.57904 12.0381 8.45708 12.0904 8.30026 12.0904C8.14345 12.0904 8.02148 12.0381 7.92565 11.9423C7.82982 11.8464 7.78626 11.7157 7.78626 11.5502C7.78626 11.3847 7.82982 11.254 7.92565 11.1582C8.02148 11.0624 8.14345 11.0188 8.30026 11.0188C8.45708 11.0188 8.57904 11.0624 8.67487 11.1582C8.7707 11.254 8.81426 11.3847 8.81426 11.5502C8.81426 11.7157 8.7707 11.8377 8.67487 11.9423Z" fill="#242E30"/>
<path d="M9.99033 12.5605C9.99033 12.5605 9.99033 12.5518 9.99033 12.5431C9.99033 12.5431 10.0078 12.5257 10.0252 12.5169C10.0426 12.5082 10.0688 12.4908 10.1036 12.4734C10.1385 12.456 10.182 12.4298 10.243 12.4037C10.3737 12.3427 10.4782 12.2817 10.5392 12.212C10.6002 12.1423 10.635 12.0552 10.635 11.9594C10.635 11.8897 10.6176 11.8374 10.6002 11.7851C10.5741 11.7329 10.5392 11.698 10.4957 11.6632C10.4521 11.6283 10.3998 11.6022 10.3388 11.5848C10.2779 11.5673 10.2169 11.5586 10.1472 11.5586C10.0426 11.5586 9.94677 11.5761 9.85965 11.6022C9.77253 11.637 9.70283 11.6719 9.65056 11.7329L9.84222 11.9768C9.84222 11.9768 9.92063 11.9245 9.96419 11.9071C10.0078 11.8897 10.0601 11.881 10.1123 11.881C10.1646 11.881 10.1995 11.881 10.2343 11.9071C10.2691 11.9245 10.2866 11.9507 10.2866 11.9942C10.2866 12.0117 10.2866 12.0291 10.2691 12.0465C10.2691 12.0639 10.243 12.0726 10.2256 12.0901C10.1995 12.1075 10.1733 12.1249 10.1298 12.1423C10.0862 12.1598 10.0339 12.1859 9.9729 12.212C9.92063 12.2382 9.86836 12.2643 9.8248 12.2904C9.78124 12.3166 9.74639 12.3514 9.71155 12.395C9.68541 12.4298 9.65927 12.4821 9.64185 12.5344C9.62443 12.5866 9.61572 12.6476 9.61572 12.7173V12.8828H10.6699V12.5779H9.98161L9.99033 12.5605Z" fill="#242E30"/>
</svg>
