<svg width="17" height="16" viewBox="0 0 17 16" fill="none" xmlns="http://www.w3.org/2000/svg">
<path d="M3.98571 7.54506C4.02946 7.66756 4.10821 7.77256 4.19571 7.86881C4.28321 7.95631 4.40571 8.03506 4.52821 8.07881C4.66821 8.14006 4.79946 8.16631 4.95696 8.20131C5.10571 8.22756 5.24571 8.24506 5.35071 8.28006C5.45571 8.31506 5.55196 8.32381 5.61321 8.35881C5.67446 8.39381 5.71821 8.42006 5.75321 8.44631C5.78821 8.47256 5.79696 8.52506 5.79696 8.55131C5.79696 8.63881 5.75321 8.70006 5.65696 8.75256C5.56071 8.80506 5.44696 8.83131 5.28946 8.83131C5.18446 8.83131 5.07946 8.83131 4.98321 8.80506C4.89571 8.78756 4.81696 8.76131 4.73821 8.72631C4.65946 8.70006 4.59821 8.66506 4.53696 8.62131C4.47571 8.57756 4.43196 8.53381 4.37071 8.47256L3.75821 9.08506C3.92446 9.28631 4.14321 9.43506 4.37071 9.53131C4.61571 9.63631 4.90446 9.68006 5.25446 9.68006C5.48196 9.68006 5.70071 9.65381 5.88446 9.59256C6.08571 9.53131 6.23446 9.45256 6.37446 9.34756C6.51446 9.24256 6.61946 9.12006 6.68071 8.98006C6.75946 8.84006 6.78571 8.67381 6.78571 8.50756C6.78571 8.34131 6.75946 8.20131 6.69821 8.07881C6.63696 7.95631 6.55821 7.85131 6.47071 7.75506L6.54946 7.79881C6.46196 7.71131 6.33946 7.65006 6.21696 7.58881C6.09446 7.52756 5.95446 7.50131 5.80571 7.46631C5.65696 7.43131 5.51696 7.40506 5.41196 7.38756C5.30696 7.36131 5.21071 7.34381 5.14946 7.30881C5.08821 7.27381 5.04446 7.24756 5.00946 7.22131C4.97446 7.19506 4.96571 7.14256 4.96571 7.09881C4.96571 7.01131 5.00946 6.95006 5.08821 6.91506C5.17571 6.87131 5.28946 6.85381 5.42071 6.85381C5.50821 6.85381 5.58696 6.85381 5.66571 6.88006C5.74446 6.91506 5.80571 6.91506 5.86696 6.94131C5.92821 6.96756 5.98946 7.00256 6.03321 7.02881C6.09446 7.05506 6.13821 7.10756 6.18196 7.15131L6.81196 6.52131C6.81196 6.52131 6.66321 6.38131 6.58446 6.32006C6.49696 6.25881 6.40071 6.19756 6.27821 6.15381C6.17321 6.11006 6.03321 6.06631 5.89321 6.03131C5.74446 6.00506 5.58696 5.98756 5.40321 5.98756C5.19321 5.98756 4.97446 6.01381 4.79071 6.06631C4.60696 6.11006 4.45821 6.18881 4.31821 6.29381C4.19571 6.38131 4.09071 6.50381 4.01196 6.64381C3.93321 6.78381 3.90696 6.95006 3.90696 7.11631C3.90696 7.28256 3.93321 7.42256 3.98571 7.54506Z" fill="#242E30"/>
<path d="M7.59946 9.09381C7.76571 9.27756 7.96696 9.41756 8.21196 9.54006C8.45696 9.66256 8.74571 9.70631 9.06946 9.70631C9.39321 9.70631 9.68196 9.64506 9.92696 9.54006C10.172 9.43506 10.3732 9.27756 10.5395 9.09381C10.6882 8.91006 10.8107 8.70881 10.8895 8.49881C10.9682 8.28881 11.012 8.05256 11.012 7.84256C11.012 7.63256 10.9682 7.41381 10.8895 7.18631C10.8107 6.97631 10.6882 6.77506 10.5395 6.59131C10.3732 6.40756 10.172 6.26756 9.92696 6.14506C9.68196 6.04006 9.39321 5.97881 9.06946 5.97881C8.74571 5.97881 8.45696 6.04006 8.21196 6.14506C7.96696 6.26756 7.76571 6.40756 7.59946 6.59131C7.45071 6.77506 7.32821 6.97631 7.24946 7.18631C7.17071 7.39631 7.12696 7.63256 7.12696 7.84256C7.12696 8.05256 7.17071 8.27131 7.24946 8.49881C7.32821 8.70881 7.45071 8.92756 7.59946 9.09381ZM8.41321 7.13381C8.57946 6.96756 8.79821 6.88881 9.06946 6.88881C9.34071 6.88881 9.55946 6.96756 9.72571 7.13381C9.89196 7.30006 9.97071 7.52756 9.97071 7.82506C9.97071 8.12256 9.89196 8.33256 9.72571 8.51631C9.55946 8.68256 9.34071 8.77881 9.06946 8.77881C8.79821 8.77881 8.57946 8.69131 8.41321 8.51631C8.24696 8.35006 8.16821 8.12256 8.16821 7.82506C8.16821 7.52756 8.24696 7.30881 8.41321 7.13381Z" fill="#242E30"/>
<path d="M13.2257 9.76756L12.0182 9.62756L12.0357 9.73256V9.70631C12.0357 9.70631 12.062 9.68006 12.097 9.66256C12.1232 9.64506 12.1757 9.61881 12.237 9.58381C12.2982 9.55756 12.377 9.50506 12.482 9.46131C12.7095 9.35631 12.8932 9.25131 12.9982 9.12881C13.1032 9.00631 13.1645 8.85756 13.1645 8.68256C13.1645 8.56006 13.1382 8.47256 13.1032 8.37631C13.0595 8.28881 12.9982 8.22756 12.9195 8.16631C12.8407 8.10506 12.7532 8.06131 12.6482 8.02631C12.5432 8.00006 12.4382 7.98256 12.3157 7.98256C12.132 7.98256 11.9657 8.00881 11.8082 8.06131C11.6595 8.12256 11.537 8.18381 11.4407 8.28881L11.7732 8.71756C11.7732 8.71756 11.9132 8.63006 11.9832 8.59506C12.0532 8.56006 12.1495 8.55131 12.2457 8.55131C12.342 8.55131 12.3945 8.55131 12.4557 8.59506C12.517 8.62131 12.5432 8.67381 12.5432 8.74381C12.5432 8.77006 12.5432 8.80506 12.517 8.83131C12.517 8.85756 12.4732 8.87506 12.4382 8.91006C12.3945 8.94506 12.3507 8.97131 12.272 8.99756C12.1932 9.02381 12.1057 9.07631 12.0007 9.12006C11.9132 9.16381 11.817 9.20756 11.7382 9.26006C11.6595 9.30381 11.5982 9.36506 11.537 9.44381C11.4932 9.50506 11.4495 9.59256 11.4145 9.68881C11.3882 9.77631 11.3707 9.89006 11.3707 10.0126V10.3013H13.217V9.76756H13.2257Z" fill="#242E30"/>
<path d="M7.80946 2.43506H9.60321L9.62071 5.65506H10.9245V2.43506H11.537V1.12256H5.89321V2.43506H6.49696V5.65506H7.82696L7.80946 2.43506Z" fill="#242E30"/>
<path d="M13.2257 10.8701H11.747L12.622 12.5938C12.7795 12.9001 12.657 13.1626 12.5957 13.2588H12.6045C12.5432 13.3551 12.3682 13.5826 12.0182 13.5826H5.44696C5.10571 13.5826 4.92196 13.3551 4.86071 13.2588C4.79946 13.1626 4.67696 12.9001 4.83446 12.5938L5.70071 10.8701H4.22196L3.65321 11.9988C3.33821 12.6201 3.37321 13.3376 3.74071 13.9326C4.10821 14.5276 4.74696 14.8776 5.42946 14.8776H12.0007C12.7007 14.8776 13.3307 14.5188 13.6982 13.9238C14.0657 13.3288 14.092 12.6026 13.777 11.9813L13.2082 10.8701H13.2257Z" fill="#242E30"/>
</svg>
