<?xml version="1.0" encoding="UTF-8"?>
<svg id="ICON" xmlns="http://www.w3.org/2000/svg" viewBox="0 0 32 32">
  <defs>
    <style>
      .cls-1 {
        fill: #242e30;
      }
    </style>
  </defs>
  <path class="cls-1" d="M9.16,10.93v1.75s4.37,0,4.37,0v-1.75s-4.37,0-4.37,0ZM9.16,19.68v1.75s7,0,7,0v-1.75s-7,0-7,0ZM9.16,15.3v1.75s10.5,0,10.5,0v-1.75s-10.5,0-10.5,0ZM9.16,15.3v1.75s10.5,0,10.5,0v-1.75s-10.5,0-10.5,0ZM9.16,19.68v1.75s7,0,7,0v-1.75s-7,0-7,0ZM9.16,10.93v1.75s4.37,0,4.37,0v-1.75s-4.37,0-4.37,0ZM25.12,8.45c-.44-1.06-1.09-2.02-1.9-2.83-.81-.82-1.77-1.46-2.84-1.9-1.06-.44-2.2-.67-3.35-.67H3.03s0,25.9,0,25.9h9.35s0-1.75,0-1.75h-7.59s0-22.4,0-22.4h12.24s0,7,0,7h8.76c0-1.12-.24-2.31-.67-3.35ZM18.79,10.05v-5.02c1.2.32,2.3.95,3.19,1.83.88.88,1.51,1.99,1.83,3.19h-5.02ZM9.16,15.3v1.75s10.5,0,10.5,0v-1.75s-10.5,0-10.5,0ZM9.16,19.68v1.75s7,0,7,0v-1.75s-7,0-7,0ZM9.16,10.93v1.75s4.37,0,4.37,0v-1.75s-4.37,0-4.37,0ZM9.16,10.93v1.75s4.37,0,4.37,0v-1.75s-4.37,0-4.37,0ZM9.16,19.68v1.75s7,0,7,0v-1.75s-7,0-7,0ZM9.16,15.3v1.75s10.5,0,10.5,0v-1.75s-10.5,0-10.5,0ZM9.16,10.93v1.75s4.37,0,4.37,0v-1.75s-4.37,0-4.37,0ZM9.16,19.68v1.75s7,0,7,0v-1.75s-7,0-7,0ZM9.16,15.3v1.75s10.5,0,10.5,0v-1.75s-10.5,0-10.5,0Z"/>
  <path class="cls-1" d="M28.39,17.14l-1.94-1.94c-.16-.16-.35-.29-.57-.38-.21-.09-.44-.13-.67-.13s-.46.05-.67.13c-.21.09-.4.22-.57.38l-8.27,8.27c-.29.29-.47.67-.52,1.07l-.48,4.36,4.36-.48c.41-.05.78-.24,1.07-.52l8.24-8.27c.33-.33.51-.77.51-1.23s-.18-.9-.51-1.23v-.03ZM22.89,18.76l1.94,1.94-5.94,5.92-2.2.25.25-2.19,5.95-5.92ZM27.12,18.41l-1.06,1.06-1.94-1.94,1.05-1.06,1.95,1.94Z"/>
</svg>