<?xml version="1.0" encoding="UTF-8"?>
<svg id="Grid" xmlns="http://www.w3.org/2000/svg" viewBox="0 0 16 16">
  <defs>
    <style>
      .cls-1 {
        fill: #242e30;
      }
    </style>
  </defs>
  <rect class="cls-1" x="5.38" y="8.66" width="4.25" height="1.31"/>
  <path class="cls-1" d="M3.41,2.97h5.68v3.5h4.82v-.66c0-1.1-.44-2.16-1.22-2.94-.78-.78-1.84-1.21-2.94-1.21H2.09v12.68h4.16v-1.31h-2.84V2.97ZM10.41,3.06c.51.12.97.38,1.34.75.38.37.64.84.76,1.35h-2.1v-2.1Z"/>
  <polygon class="cls-1" points="8 7.25 8 6.03 5.38 6.03 5.38 7.34 6.25 7.34 8 7.34 8 7.25"/>
  <path class="cls-1" d="M15.35,8.73c-.05-.13-.13-.25-.23-.34v-.03l-.88-.88c-.2-.2-.47-.31-.75-.31s-.55.11-.75.31l-3.92,3.87c-.17.18-.28.41-.31.66l-.26,2.34,2.34-.26c.25-.02.48-.13.66-.31l3.88-3.88c.1-.1.18-.22.23-.34.05-.13.08-.27.08-.41s-.03-.28-.08-.41ZM10.37,12.73l-.56-.56,2.57-2.57.56.56-2.57,2.57Z"/>
</svg>