<?xml version="1.0" encoding="UTF-8"?>
<svg id="ICON" xmlns="http://www.w3.org/2000/svg" viewBox="0 0 16 16">
  <path class="cls-1" d="M2.39,2.37h5.68v3.5h4.82v-.66c0-1.1-.44-2.16-1.22-2.94-.78-.78-1.84-1.21-2.94-1.21H1.07v12.68h4.16v-1.31h-2.84V2.37ZM9.39,2.46c.51.12.97.38,1.34.75.38.37.64.84.76,1.35h-2.1v-2.1Z"/>
  <polygon class="cls-1" points="6.98 6.65 6.98 5.43 4.36 5.43 4.36 6.74 5.23 6.74 6.98 6.74 6.98 6.65"/>
  <path class="cls-1" d="M14.93,9.33c-.05-.13-.13-.25-.23-.34v-.03l-.88-.88c-.2-.2-.47-.31-.75-.31s-.55.11-.75.31l-3.92,3.87c-.17.18-.28.41-.31.66l-.26,2.34,2.34-.26c.25-.02.48-.13.66-.31l3.88-3.88c.1-.1.18-.22.23-.34.05-.13.08-.27.08-.41s-.03-.28-.08-.41ZM9.95,13.34l-.56-.56,2.57-2.57.56.56-2.57,2.57Z"/>
</svg>