<?xml version="1.0" encoding="UTF-8"?>
<svg id="Grid" xmlns="http://www.w3.org/2000/svg" viewBox="0 0 32 32">
  <defs>
    <style>
      .cls-1 {
        fill: #242e30;
      }
    </style>
  </defs>
  <path class="cls-1" d="M10.75,11.19v1.75h4.37v-1.75h-4.37ZM10.75,19.94v1.75h7v-1.75h-7ZM10.75,15.56v1.75h10.5v-1.75h-10.5ZM10.75,15.56v1.75h10.5v-1.75h-10.5ZM10.75,19.94v1.75h7v-1.75h-7ZM10.75,11.19v1.75h4.37v-1.75h-4.37ZM26.71,8.71c-.44-1.06-1.09-2.02-1.9-2.83-.81-.82-1.77-1.46-2.84-1.9-1.06-.44-2.2-.67-3.35-.67H4.62v25.38h9.35v-1.75h-7.59V5.06h12.24v7h8.76c-.01-1.12-.24-2.31-.67-3.35ZM20.38,10.31v-5.02c1.2.32,2.3.95,3.19,1.83.88.88,1.51,1.99,1.83,3.19h-5.02ZM10.75,15.56v1.75h10.5v-1.75h-10.5ZM10.75,19.94v1.75h7v-1.75h-7ZM10.75,11.19v1.75h4.37v-1.75h-4.37ZM10.75,11.19v1.75h4.37v-1.75h-4.37ZM10.75,19.94v1.75h7v-1.75h-7ZM10.75,15.56v1.75h10.5v-1.75h-10.5ZM10.75,11.19v1.75h4.37v-1.75h-4.37ZM10.75,19.94v1.75h7v-1.75h-7ZM10.75,15.56v1.75h10.5v-1.75h-10.5Z"/>
  <path class="cls-1" d="M30.22,16.85l-1.94-1.94c-.16-.16-.35-.29-.57-.38-.21-.09-.44-.13-.67-.13s-.46.05-.67.13c-.21.09-.4.22-.57.38l-8.27,8.27c-.29.29-.47.67-.52,1.07l-.48,4.36,4.36-.48c.41-.05.78-.24,1.07-.52l8.24-8.27c.33-.33.51-.77.51-1.23s-.18-.9-.51-1.23v-.03ZM24.73,18.47l1.94,1.94-5.94,5.92-2.2.25.25-2.19,5.95-5.92ZM28.96,18.12l-1.06,1.06-1.94-1.94,1.05-1.06,1.95,1.94Z"/>
</svg>