<svg width="32" height="32" viewBox="0 0 32 32" fill="none" xmlns="http://www.w3.org/2000/svg">
<path fill-rule="evenodd" clip-rule="evenodd" d="M28.25 16C28.25 22.7655 22.7655 28.25 16 28.25C9.23451 28.25 3.75 22.7655 3.75 16C3.75 9.23451 9.23451 3.75 16 3.75C22.7655 3.75 28.25 9.23451 28.25 16ZM10.0446 11.2319C9.46981 10.5252 9.00808 9.93154 9.00808 9.93154L9.0175 9.92212C9.0175 9.91269 9.96923 9.91269 11.1188 9.93154H13.2108L14.9823 12.1177L16.7538 14.2944L18.2144 12.8433C19.0152 12.0519 20.0043 11.0628 20.4097 10.6574L21.145 9.92212H22.4077L22.0685 10.2613C20.8623 11.4392 17.3287 14.9729 17.3287 14.9917C17.3287 15.0012 17.8752 15.689 18.5442 16.5088C18.9314 16.9833 19.347 17.4955 19.6777 17.9032C19.9185 18.2001 20.1143 18.4415 20.2215 18.5725C20.3135 18.6849 20.4681 18.8747 20.6584 19.1083C20.9948 19.5212 21.4425 20.0707 21.8517 20.5702C21.9475 20.6885 22.041 20.8039 22.1307 20.9147C22.6411 21.5446 23.0296 22.0241 23.0296 22.0402C23.039 22.0779 22.6904 22.0779 20.9565 22.0779H18.8646L17.4983 20.4006C17.1243 19.9425 16.7226 19.445 16.3735 19.0128C16.0189 18.5737 15.7186 18.2018 15.5571 18.0071L14.9823 17.3004L14.9069 17.3758C14.899 17.3837 14.8643 17.4182 14.8065 17.4755C14.5215 17.7583 13.675 18.5982 12.7113 19.5619C11.8401 20.4332 11.0327 21.2352 10.6375 21.6278C10.5069 21.7575 10.4214 21.8425 10.3933 21.8706L10.1954 22.0779H9.58288C9.22481 22.0873 8.97981 22.0685 8.97981 22.059L11.5994 19.4394C13.0412 18.0165 14.2662 16.7915 14.3227 16.735L14.4263 16.6219L12.7585 14.5677C12.0698 13.7244 11.2185 12.6766 10.5918 11.9053C10.3782 11.6424 10.1907 11.4116 10.0446 11.2319ZM14.1674 12.528C14.0971 12.4413 14.0293 12.3576 13.9646 12.2779V12.2685L12.7208 10.7419H11.769C11.0152 10.7419 10.8173 10.7419 10.8362 10.7702C10.8536 10.7992 11.696 11.8355 13.3592 13.8812C14.3975 15.1582 15.7555 16.8286 17.4323 18.8929L19.3263 21.2204H20.2781C21.0225 21.2204 21.2298 21.2204 21.211 21.1921C21.1921 21.1733 20.3346 20.1179 19.2981 18.8363C18.2615 17.5642 16.914 15.9058 16.311 15.1613C15.7561 14.4869 14.8453 13.3639 14.1674 12.528Z" fill="#242E30"/>
</svg>
