<?xml version="1.0" encoding="UTF-8"?>
<svg id="Grid" xmlns="http://www.w3.org/2000/svg" viewBox="0 0 16 16">
  <path class="cls-1" d="M12.79,3.21c-1.27-1.27-2.99-1.99-4.79-1.99-1.34,0-2.65.4-3.77,1.14s-1.98,1.8-2.5,3.04c-.51,1.24-.65,2.6-.39,3.92s.91,2.52,1.86,3.47c.95.95,2.16,1.59,3.47,1.86,1.32.26,2.68.13,3.92-.39,1.24-.51,2.3-1.38,3.04-2.5.75-1.12,1.14-2.43,1.14-3.77,0-1.8-.72-3.52-1.99-4.79ZM11,9.92c0,.6-.48,1.08-1.08,1.08h-3.84c-.6,0-1.08-.48-1.08-1.08v-3.84c0-.6.48-1.08,1.08-1.08h3.84c.6,0,1.08.48,1.08,1.08v3.84Z"/>
</svg>