<?xml version="1.0" encoding="UTF-8"?>
<svg id="Grid" xmlns="http://www.w3.org/2000/svg" viewBox="0 0 32 32">
  <defs>
    <style>
      .cls-1 {
        fill: #242e30;
      }
    </style>
  </defs>
  <path class="cls-1" d="M21.77,7.11h-11.54c-1.72,0-3.12,1.4-3.12,3.12v11.54c0,1.72,1.4,3.12,3.12,3.12h11.54c1.72,0,3.12-1.4,3.12-3.12v-11.54c0-1.72-1.4-3.12-3.12-3.12ZM23.11,21.77c0,.74-.6,1.34-1.34,1.34h-11.54c-.74,0-1.34-.6-1.34-1.34v-11.54c0-.74.6-1.34,1.34-1.34h11.54c.74,0,1.34.6,1.34,1.34v11.54Z"/>
</svg>