<?xml version="1.0" encoding="UTF-8"?>
<svg id="Grid" xmlns="http://www.w3.org/2000/svg" viewBox="0 0 32 32">
  <path class="cls-1" d="M24.66,7.34c-2.3-2.3-5.41-3.59-8.66-3.59-2.42,0-4.79.72-6.81,2.06-2.01,1.35-3.58,3.26-4.51,5.5-.93,2.24-1.17,4.7-.7,7.08.47,2.38,1.64,4.56,3.35,6.27,1.71,1.71,3.9,2.88,6.27,3.35.79.16,1.59.24,2.39.24,1.6,0,3.19-.31,4.69-.93,2.24-.93,4.15-2.5,5.5-4.51,1.35-2.01,2.06-4.38,2.06-6.81,0-3.25-1.29-6.36-3.59-8.66ZM24.71,21.82c-1.15,1.73-2.78,3.06-4.7,3.86-1.28.53-2.63.8-4.01.8-.68,0-1.37-.07-2.04-.2-2.04-.41-3.89-1.4-5.36-2.87-1.47-1.47-2.46-3.32-2.87-5.36-.41-2.04-.2-4.13.6-6.05.8-1.92,2.13-3.55,3.86-4.7,1.73-1.15,3.74-1.76,5.82-1.76,2.8,0,5.43,1.09,7.41,3.07,1.98,1.98,3.07,4.61,3.07,7.4,0,2.08-.61,4.09-1.76,5.82Z"/>
  <path class="cls-1" d="M19.61,11h-7.21c-.77,0-1.39.62-1.39,1.39v7.21c0,.77.62,1.39,1.39,1.39h7.21c.77,0,1.39-.62,1.39-1.39v-7.21c0-.77-.62-1.39-1.39-1.39ZM19.22,19.22h-6.44v-6.44h6.44v6.44Z"/>
</svg>