<?xml version="1.0" encoding="UTF-8"?>
<svg id="Grid" xmlns="http://www.w3.org/2000/svg" viewBox="0 0 16 16">
  <defs>
    <style>
      .cls-1 {
        fill: #242e30;
      }
    </style>
  </defs>
  <path class="cls-1" d="M12.79,3.21c-1.27-1.27-2.99-1.99-4.79-1.99-1.34,0-2.65.4-3.77,1.14s-1.98,1.8-2.5,3.04c-.51,1.24-.65,2.6-.39,3.92s.91,2.52,1.86,3.47c.95.95,2.16,1.59,3.47,1.86.44.09.88.13,1.32.13.89,0,1.77-.17,2.6-.52,1.24-.51,2.3-1.38,3.04-2.5.75-1.12,1.14-2.43,1.14-3.77,0-1.8-.72-3.52-1.99-4.79ZM12.39,10.93c-.58.87-1.4,1.54-2.37,1.95-.64.27-1.32.4-2.02.4-.35,0-.69-.03-1.03-.1-1.03-.2-1.96-.7-2.7-1.45-.74-.74-1.24-1.68-1.45-2.7-.2-1.03-.1-2.08.3-3.05.4-.97,1.07-1.79,1.95-2.37.87-.58,1.89-.89,2.93-.89,1.41,0,2.74.55,3.73,1.55,1,1,1.55,2.32,1.55,3.73,0,1.05-.31,2.06-.89,2.93Z"/>
  <path class="cls-1" d="M9.92,5h-3.84c-.6,0-1.08.48-1.08,1.08v3.84c0,.6.48,1.08,1.08,1.08h3.84c.6,0,1.08-.48,1.08-1.08v-3.84c0-.6-.48-1.08-1.08-1.08ZM9.5,9.5h-3v-3h3v3Z"/>
</svg>