<?xml version="1.0" encoding="UTF-8"?>
<svg id="Grid" xmlns="http://www.w3.org/2000/svg" viewBox="0 0 32 32">
  <defs>
    <style>
      .cls-1 {
        fill: #242e30;
      }
    </style>
  </defs>
  <path class="cls-1" d="M24.66,7.34c-2.3-2.3-5.41-3.59-8.66-3.59-2.42,0-4.79.72-6.81,2.06-2.01,1.35-3.58,3.26-4.51,5.5-.93,2.24-1.17,4.7-.7,7.08.47,2.38,1.64,4.56,3.35,6.27,1.71,1.71,3.9,2.88,6.27,3.35,2.38.47,4.84.23,7.08-.7,2.24-.93,4.15-2.5,5.5-4.51,1.35-2.01,2.06-4.38,2.06-6.81,0-3.25-1.29-6.36-3.59-8.66ZM21,19.61c0,.77-.62,1.39-1.39,1.39h-7.21c-.77,0-1.39-.62-1.39-1.39v-7.21c0-.77.62-1.39,1.39-1.39h7.21c.77,0,1.39.62,1.39,1.39v7.21Z"/>
</svg>